<?xml version="1.0" encoding="UTF-8" standalone="no"?>
<!DOCTYPE svg PUBLIC "-//W3C//DTD SVG 1.1//EN"
 "http://www.w3.org/Graphics/SVG/1.1/DTD/svg11.dtd">
<!-- Generated by graphviz version 2.47.1 (20210421.1823)
 -->
<!-- Title: InstantiatedPlan Pages: 1 -->
<svg width="379pt" height="882pt"
 viewBox="0.00 0.00 379.00 882.00" xmlns="http://www.w3.org/2000/svg" xmlns:xlink="http://www.w3.org/1999/xlink">
<g id="graph0" class="graph" transform="scale(1 1) rotate(0) translate(4 878)">
<title>InstantiatedPlan</title>
<polygon fill="white" stroke="transparent" points="-4,4 -4,-878 375,-878 375,4 -4,4"/>
<!-- Node1 -->
<g id="node1" class="node">
<title>Node1</title>
<g id="a_node1"><a xlink:title=" ">
<polygon fill="#bfbfbf" stroke="black" points="89.5,-0.5 89.5,-90.5 190.5,-90.5 190.5,-0.5 89.5,-0.5"/>
<text text-anchor="middle" x="140" y="-78.5" font-family="Helvetica,sans-Serif" font-size="10.00">InstantiatedPlan</text>
<polyline fill="none" stroke="black" points="89.5,-71.5 190.5,-71.5 "/>
<text text-anchor="start" x="97.5" y="-59.5" font-family="Helvetica,sans-Serif" font-size="10.00">&#45; _index</text>
<polyline fill="none" stroke="black" points="89.5,-52.5 190.5,-52.5 "/>
<text text-anchor="start" x="97.5" y="-40.5" font-family="Helvetica,sans-Serif" font-size="10.00">+ InstantiatedPlan()</text>
<text text-anchor="start" x="97.5" y="-29.5" font-family="Helvetica,sans-Serif" font-size="10.00">+ run_plan()</text>
<text text-anchor="start" x="97.5" y="-18.5" font-family="Helvetica,sans-Serif" font-size="10.00">+ is_finished()</text>
<text text-anchor="start" x="97.5" y="-7.5" font-family="Helvetica,sans-Serif" font-size="10.00">+ get_plan()</text>
</a>
</g>
</g>
<!-- Node2 -->
<g id="node2" class="node">
<title>Node2</title>
<g id="a_node2"><a xlink:href="../../de/dcd/class_plan.html" target="_top" xlink:title=" ">
<polygon fill="white" stroke="black" points="91.5,-138.5 91.5,-250.5 188.5,-250.5 188.5,-138.5 91.5,-138.5"/>
<text text-anchor="middle" x="140" y="-238.5" font-family="Helvetica,sans-Serif" font-size="10.00">Plan</text>
<polyline fill="none" stroke="black" points="91.5,-231.5 188.5,-231.5 "/>
<text text-anchor="start" x="99.5" y="-219.5" font-family="Helvetica,sans-Serif" font-size="10.00">&#45; _operator</text>
<polyline fill="none" stroke="black" points="91.5,-212.5 188.5,-212.5 "/>
<text text-anchor="start" x="99.5" y="-200.5" font-family="Helvetica,sans-Serif" font-size="10.00">+ Plan()</text>
<text text-anchor="start" x="99.5" y="-189.5" font-family="Helvetica,sans-Serif" font-size="10.00">+ run_body()</text>
<text text-anchor="start" x="99.5" y="-178.5" font-family="Helvetica,sans-Serif" font-size="10.00">+ get_operator()</text>
<text text-anchor="start" x="99.5" y="-167.5" font-family="Helvetica,sans-Serif" font-size="10.00">+ get_proposition()</text>
<text text-anchor="start" x="99.5" y="-156.5" font-family="Helvetica,sans-Serif" font-size="10.00">+ get_context()</text>
<text text-anchor="start" x="99.5" y="-145.5" font-family="Helvetica,sans-Serif" font-size="10.00">+ get_body()</text>
</a>
</g>
</g>
<!-- Node2&#45;&gt;Node1 -->
<g id="edge1" class="edge">
<title>Node2&#45;&gt;Node1</title>
<path fill="none" stroke="#404040" d="M140,-138.34C140,-126.86 140,-114.73 140,-103.19"/>
<polygon fill="none" stroke="#404040" points="140,-102.95 136,-96.95 140,-90.95 144,-96.95 140,-102.95"/>
<text text-anchor="middle" x="154.5" y="-112" font-family="Helvetica,sans-Serif" font-size="10.00"> &#45;_plan</text>
</g>
<!-- Node3 -->
<g id="node3" class="node">
<title>Node3</title>
<g id="a_node3"><a xlink:href="../../df/d75/class_proposition.html" target="_top" xlink:title=" ">
<polygon fill="white" stroke="black" points="0,-298.5 0,-399.5 80,-399.5 80,-298.5 0,-298.5"/>
<text text-anchor="middle" x="40" y="-387.5" font-family="Helvetica,sans-Serif" font-size="10.00">Proposition</text>
<polyline fill="none" stroke="black" points="0,-380.5 80,-380.5 "/>
<text text-anchor="start" x="8" y="-368.5" font-family="Helvetica,sans-Serif" font-size="10.00">&#45; _name</text>
<polyline fill="none" stroke="black" points="0,-361.5 80,-361.5 "/>
<text text-anchor="start" x="8" y="-349.5" font-family="Helvetica,sans-Serif" font-size="10.00">+ Proposition()</text>
<text text-anchor="start" x="8" y="-338.5" font-family="Helvetica,sans-Serif" font-size="10.00">+ Proposition()</text>
<text text-anchor="start" x="8" y="-327.5" font-family="Helvetica,sans-Serif" font-size="10.00">+ is_equal()</text>
<text text-anchor="start" x="8" y="-316.5" font-family="Helvetica,sans-Serif" font-size="10.00">+ is_equal()</text>
<text text-anchor="start" x="8" y="-305.5" font-family="Helvetica,sans-Serif" font-size="10.00">+ get_name()</text>
</a>
</g>
</g>
<!-- Node3&#45;&gt;Node2 -->
<g id="edge2" class="edge">
<title>Node3&#45;&gt;Node2</title>
<path fill="none" stroke="#404040" d="M61.44,-298.49C66.43,-288.47 72.04,-278.2 78,-269 79.98,-265.95 82.07,-262.88 84.24,-259.82"/>
<polygon fill="none" stroke="#404040" points="84.26,-259.79 84.61,-252.58 91.39,-250.13 91.05,-257.34 84.26,-259.79"/>
<text text-anchor="middle" x="107" y="-272" font-family="Helvetica,sans-Serif" font-size="10.00"> &#45;_proposition</text>
</g>
<!-- Node4 -->
<g id="node4" class="node">
<title>Node4</title>
<g id="a_node4"><a xlink:href="../../d5/de2/class_context.html" target="_top" xlink:title=" ">
<polygon fill="white" stroke="black" points="98.5,-309.5 98.5,-388.5 181.5,-388.5 181.5,-309.5 98.5,-309.5"/>
<text text-anchor="middle" x="140" y="-376.5" font-family="Helvetica,sans-Serif" font-size="10.00">Context</text>
<polyline fill="none" stroke="black" points="98.5,-369.5 181.5,-369.5 "/>
<text text-anchor="start" x="106.5" y="-357.5" font-family="Helvetica,sans-Serif" font-size="10.00">&#45; _size</text>
<polyline fill="none" stroke="black" points="98.5,-350.5 181.5,-350.5 "/>
<text text-anchor="start" x="106.5" y="-338.5" font-family="Helvetica,sans-Serif" font-size="10.00">+ Context()</text>
<text text-anchor="start" x="106.5" y="-327.5" font-family="Helvetica,sans-Serif" font-size="10.00">+ add_context()</text>
<text text-anchor="start" x="106.5" y="-316.5" font-family="Helvetica,sans-Serif" font-size="10.00">+ is_valid()</text>
</a>
</g>
</g>
<!-- Node4&#45;&gt;Node2 -->
<g id="edge3" class="edge">
<title>Node4&#45;&gt;Node2</title>
<path fill="none" stroke="#404040" d="M140,-309.12C140,-295.13 140,-278.9 140,-263.17"/>
<polygon fill="none" stroke="#404040" points="140,-262.71 136,-256.71 140,-250.71 144,-256.71 140,-262.71"/>
<text text-anchor="middle" x="161.5" y="-272" font-family="Helvetica,sans-Serif" font-size="10.00"> &#45;_context</text>
</g>
<!-- Node5 -->
<g id="node5" class="node">
<title>Node5</title>
<g id="a_node5"><a xlink:href="../../df/d28/class_vector_queue.html" target="_top" xlink:title=" ">
<polygon fill="white" stroke="black" points="31,-447.5 31,-636.5 195,-636.5 195,-447.5 31,-447.5"/>
<text text-anchor="middle" x="113" y="-624.5" font-family="Helvetica,sans-Serif" font-size="10.00">VectorQueue&lt; ContextCondition &gt;</text>
<polyline fill="none" stroke="black" points="31,-617.5 195,-617.5 "/>
<text text-anchor="start" x="39" y="-605.5" font-family="Helvetica,sans-Serif" font-size="10.00">&#45; _queue</text>
<text text-anchor="start" x="39" y="-594.5" font-family="Helvetica,sans-Serif" font-size="10.00">&#45; _capacity</text>
<polyline fill="none" stroke="black" points="31,-587.5 195,-587.5 "/>
<text text-anchor="start" x="39" y="-575.5" font-family="Helvetica,sans-Serif" font-size="10.00">+ init()</text>
<text text-anchor="start" x="39" y="-564.5" font-family="Helvetica,sans-Serif" font-size="10.00">+ push_front()</text>
<text text-anchor="start" x="39" y="-553.5" font-family="Helvetica,sans-Serif" font-size="10.00">+ push_back()</text>
<text text-anchor="start" x="39" y="-542.5" font-family="Helvetica,sans-Serif" font-size="10.00">+ pop_back()</text>
<text text-anchor="start" x="39" y="-531.5" font-family="Helvetica,sans-Serif" font-size="10.00">+ front()</text>
<text text-anchor="start" x="39" y="-520.5" font-family="Helvetica,sans-Serif" font-size="10.00">+ back()</text>
<text text-anchor="start" x="39" y="-509.5" font-family="Helvetica,sans-Serif" font-size="10.00">+ item_at()</text>
<text text-anchor="start" x="39" y="-498.5" font-family="Helvetica,sans-Serif" font-size="10.00">+ erase()</text>
<text text-anchor="start" x="39" y="-487.5" font-family="Helvetica,sans-Serif" font-size="10.00">+ rotate()</text>
<text text-anchor="start" x="39" y="-476.5" font-family="Helvetica,sans-Serif" font-size="10.00">+ size()</text>
<text text-anchor="start" x="39" y="-465.5" font-family="Helvetica,sans-Serif" font-size="10.00">+ is_empty()</text>
<text text-anchor="start" x="39" y="-454.5" font-family="Helvetica,sans-Serif" font-size="10.00">+ is_full()</text>
</a>
</g>
</g>
<!-- Node5&#45;&gt;Node4 -->
<g id="edge4" class="edge">
<title>Node5&#45;&gt;Node4</title>
<path fill="none" stroke="#404040" d="M126.22,-447.46C128.5,-431.38 130.78,-415.22 132.82,-400.81"/>
<polygon fill="none" stroke="#404040" points="132.86,-400.53 129.74,-394.03 134.54,-388.65 137.66,-395.15 132.86,-400.53"/>
<text text-anchor="middle" x="151.5" y="-421" font-family="Helvetica,sans-Serif" font-size="10.00"> &#45;_context</text>
</g>
<!-- Node6 -->
<g id="node6" class="node">
<title>Node6</title>
<g id="a_node6"><a xlink:href="../../df/d28/class_vector_queue.html" target="_top" xlink:title=" ">
<polygon fill="white" stroke="black" points="153.5,-684.5 153.5,-873.5 250.5,-873.5 250.5,-684.5 153.5,-684.5"/>
<text text-anchor="middle" x="202" y="-861.5" font-family="Helvetica,sans-Serif" font-size="10.00">VectorQueue&lt; X &gt;</text>
<polyline fill="none" stroke="black" points="153.5,-854.5 250.5,-854.5 "/>
<text text-anchor="start" x="161.5" y="-842.5" font-family="Helvetica,sans-Serif" font-size="10.00">&#45; _queue</text>
<text text-anchor="start" x="161.5" y="-831.5" font-family="Helvetica,sans-Serif" font-size="10.00">&#45; _capacity</text>
<polyline fill="none" stroke="black" points="153.5,-824.5 250.5,-824.5 "/>
<text text-anchor="start" x="161.5" y="-812.5" font-family="Helvetica,sans-Serif" font-size="10.00">+ init()</text>
<text text-anchor="start" x="161.5" y="-801.5" font-family="Helvetica,sans-Serif" font-size="10.00">+ push_front()</text>
<text text-anchor="start" x="161.5" y="-790.5" font-family="Helvetica,sans-Serif" font-size="10.00">+ push_back()</text>
<text text-anchor="start" x="161.5" y="-779.5" font-family="Helvetica,sans-Serif" font-size="10.00">+ pop_back()</text>
<text text-anchor="start" x="161.5" y="-768.5" font-family="Helvetica,sans-Serif" font-size="10.00">+ front()</text>
<text text-anchor="start" x="161.5" y="-757.5" font-family="Helvetica,sans-Serif" font-size="10.00">+ back()</text>
<text text-anchor="start" x="161.5" y="-746.5" font-family="Helvetica,sans-Serif" font-size="10.00">+ item_at()</text>
<text text-anchor="start" x="161.5" y="-735.5" font-family="Helvetica,sans-Serif" font-size="10.00">+ erase()</text>
<text text-anchor="start" x="161.5" y="-724.5" font-family="Helvetica,sans-Serif" font-size="10.00">+ rotate()</text>
<text text-anchor="start" x="161.5" y="-713.5" font-family="Helvetica,sans-Serif" font-size="10.00">+ size()</text>
<text text-anchor="start" x="161.5" y="-702.5" font-family="Helvetica,sans-Serif" font-size="10.00">+ is_empty()</text>
<text text-anchor="start" x="161.5" y="-691.5" font-family="Helvetica,sans-Serif" font-size="10.00">+ is_full()</text>
</a>
</g>
</g>
<!-- Node6&#45;&gt;Node5 -->
<g id="edge5" class="edge">
<title>Node6&#45;&gt;Node5</title>
<path fill="none" stroke="orange" d="M162.91,-674.79C158.1,-662.09 153.21,-649.16 148.45,-636.62"/>
<polygon fill="orange" stroke="orange" points="159.75,-676.33 166.57,-684.45 166.3,-673.86 159.75,-676.33"/>
<text text-anchor="middle" x="204.5" y="-658" font-family="Helvetica,sans-Serif" font-size="10.00"> &lt; ContextCondition &gt;</text>
</g>
<!-- Node8 -->
<g id="node8" class="node">
<title>Node8</title>
<g id="a_node8"><a xlink:href="../../df/d28/class_vector_queue.html" target="_top" xlink:title=" ">
<polygon fill="white" stroke="black" points="213,-447.5 213,-636.5 371,-636.5 371,-447.5 213,-447.5"/>
<text text-anchor="middle" x="292" y="-624.5" font-family="Helvetica,sans-Serif" font-size="10.00">VectorQueue&lt; BodyInstruction &gt;</text>
<polyline fill="none" stroke="black" points="213,-617.5 371,-617.5 "/>
<text text-anchor="start" x="221" y="-605.5" font-family="Helvetica,sans-Serif" font-size="10.00">&#45; _queue</text>
<text text-anchor="start" x="221" y="-594.5" font-family="Helvetica,sans-Serif" font-size="10.00">&#45; _capacity</text>
<polyline fill="none" stroke="black" points="213,-587.5 371,-587.5 "/>
<text text-anchor="start" x="221" y="-575.5" font-family="Helvetica,sans-Serif" font-size="10.00">+ init()</text>
<text text-anchor="start" x="221" y="-564.5" font-family="Helvetica,sans-Serif" font-size="10.00">+ push_front()</text>
<text text-anchor="start" x="221" y="-553.5" font-family="Helvetica,sans-Serif" font-size="10.00">+ push_back()</text>
<text text-anchor="start" x="221" y="-542.5" font-family="Helvetica,sans-Serif" font-size="10.00">+ pop_back()</text>
<text text-anchor="start" x="221" y="-531.5" font-family="Helvetica,sans-Serif" font-size="10.00">+ front()</text>
<text text-anchor="start" x="221" y="-520.5" font-family="Helvetica,sans-Serif" font-size="10.00">+ back()</text>
<text text-anchor="start" x="221" y="-509.5" font-family="Helvetica,sans-Serif" font-size="10.00">+ item_at()</text>
<text text-anchor="start" x="221" y="-498.5" font-family="Helvetica,sans-Serif" font-size="10.00">+ erase()</text>
<text text-anchor="start" x="221" y="-487.5" font-family="Helvetica,sans-Serif" font-size="10.00">+ rotate()</text>
<text text-anchor="start" x="221" y="-476.5" font-family="Helvetica,sans-Serif" font-size="10.00">+ size()</text>
<text text-anchor="start" x="221" y="-465.5" font-family="Helvetica,sans-Serif" font-size="10.00">+ is_empty()</text>
<text text-anchor="start" x="221" y="-454.5" font-family="Helvetica,sans-Serif" font-size="10.00">+ is_full()</text>
</a>
</g>
</g>
<!-- Node6&#45;&gt;Node8 -->
<g id="edge8" class="edge">
<title>Node6&#45;&gt;Node8</title>
<path fill="none" stroke="orange" d="M250.53,-674.8C251.72,-671.85 252.88,-668.91 254,-666 257.61,-656.61 261.13,-646.73 264.47,-636.8"/>
<polygon fill="orange" stroke="orange" points="247.2,-673.71 246.63,-684.29 253.67,-676.37 247.2,-673.71"/>
<text text-anchor="middle" x="301.5" y="-658" font-family="Helvetica,sans-Serif" font-size="10.00"> &lt; BodyInstruction &gt;</text>
</g>
<!-- Node7 -->
<g id="node7" class="node">
<title>Node7</title>
<g id="a_node7"><a xlink:href="../../d0/dcb/class_body.html" target="_top" xlink:title=" ">
<polygon fill="white" stroke="black" points="234.5,-304 234.5,-394 331.5,-394 331.5,-304 234.5,-304"/>
<text text-anchor="middle" x="283" y="-382" font-family="Helvetica,sans-Serif" font-size="10.00">Body</text>
<polyline fill="none" stroke="black" points="234.5,-375 331.5,-375 "/>
<text text-anchor="start" x="242.5" y="-363" font-family="Helvetica,sans-Serif" font-size="10.00">&#45; _size</text>
<polyline fill="none" stroke="black" points="234.5,-356 331.5,-356 "/>
<text text-anchor="start" x="242.5" y="-344" font-family="Helvetica,sans-Serif" font-size="10.00">+ Body()</text>
<text text-anchor="start" x="242.5" y="-333" font-family="Helvetica,sans-Serif" font-size="10.00">+ run_body()</text>
<text text-anchor="start" x="242.5" y="-322" font-family="Helvetica,sans-Serif" font-size="10.00">+ add_instruction()</text>
<text text-anchor="start" x="242.5" y="-311" font-family="Helvetica,sans-Serif" font-size="10.00">+ get_size()</text>
</a>
</g>
</g>
<!-- Node7&#45;&gt;Node2 -->
<g id="edge6" class="edge">
<title>Node7&#45;&gt;Node2</title>
<path fill="none" stroke="#404040" d="M241.64,-303.89C227.65,-288.97 211.78,-272.04 196.8,-256.08"/>
<polygon fill="none" stroke="#404040" points="196.8,-256.07 189.78,-254.43 188.59,-247.32 195.61,-248.96 196.8,-256.07"/>
<text text-anchor="middle" x="231.5" y="-272" font-family="Helvetica,sans-Serif" font-size="10.00"> &#45;_body</text>
</g>
<!-- Node8&#45;&gt;Node7 -->
<g id="edge7" class="edge">
<title>Node8&#45;&gt;Node7</title>
<path fill="none" stroke="#404040" d="M287.59,-447.46C286.93,-433.42 286.27,-419.32 285.66,-406.39"/>
<polygon fill="none" stroke="#404040" points="285.66,-406.36 281.38,-400.56 285.09,-394.38 289.37,-400.18 285.66,-406.36"/>
<text text-anchor="middle" x="301.5" y="-421" font-family="Helvetica,sans-Serif" font-size="10.00"> &#45;_body</text>
</g>
</g>
</svg>
