<?xml version="1.0" encoding="UTF-8" standalone="no"?>
<!DOCTYPE svg PUBLIC "-//W3C//DTD SVG 1.1//EN"
 "http://www.w3.org/Graphics/SVG/1.1/DTD/svg11.dtd">
<!-- Generated by graphviz version 2.46.1 (20210215.1649)
 -->
<!-- Title: InstantiatedPlan Pages: 1 -->
<svg width="403pt" height="882pt"
 viewBox="0.00 0.00 403.00 882.00" xmlns="http://www.w3.org/2000/svg" xmlns:xlink="http://www.w3.org/1999/xlink">
<g id="graph0" class="graph" transform="scale(1 1) rotate(0) translate(4 878)">
<title>InstantiatedPlan</title>
<polygon fill="white" stroke="transparent" points="-4,4 -4,-878 399,-878 399,4 -4,4"/>
<!-- Node1 -->
<g id="node1" class="node">
<title>Node1</title>
<g id="a_node1"><a xlink:title=" ">
<polygon fill="#bfbfbf" stroke="black" points="201.5,-0.5 201.5,-90.5 302.5,-90.5 302.5,-0.5 201.5,-0.5"/>
<text text-anchor="middle" x="252" y="-78.5" font-family="Helvetica,sans-Serif" font-size="10.00">InstantiatedPlan</text>
<polyline fill="none" stroke="black" points="201.5,-71.5 302.5,-71.5 "/>
<text text-anchor="start" x="209.5" y="-59.5" font-family="Helvetica,sans-Serif" font-size="10.00">&#45; _index</text>
<polyline fill="none" stroke="black" points="201.5,-52.5 302.5,-52.5 "/>
<text text-anchor="start" x="209.5" y="-40.5" font-family="Helvetica,sans-Serif" font-size="10.00">+ InstantiatedPlan()</text>
<text text-anchor="start" x="209.5" y="-29.5" font-family="Helvetica,sans-Serif" font-size="10.00">+ run_plan()</text>
<text text-anchor="start" x="209.5" y="-18.5" font-family="Helvetica,sans-Serif" font-size="10.00">+ is_finished()</text>
<text text-anchor="start" x="209.5" y="-7.5" font-family="Helvetica,sans-Serif" font-size="10.00">+ get_plan()</text>
</a>
</g>
</g>
<!-- Node2 -->
<g id="node2" class="node">
<title>Node2</title>
<g id="a_node2"><a xlink:href="../../de/dcd/class_plan.html" target="_top" xlink:title=" ">
<polygon fill="white" stroke="black" points="205.5,-138.5 205.5,-250.5 298.5,-250.5 298.5,-138.5 205.5,-138.5"/>
<text text-anchor="middle" x="252" y="-238.5" font-family="Helvetica,sans-Serif" font-size="10.00">Plan</text>
<polyline fill="none" stroke="black" points="205.5,-231.5 298.5,-231.5 "/>
<text text-anchor="start" x="213.5" y="-219.5" font-family="Helvetica,sans-Serif" font-size="10.00">&#45; _operator</text>
<polyline fill="none" stroke="black" points="205.5,-212.5 298.5,-212.5 "/>
<text text-anchor="start" x="213.5" y="-200.5" font-family="Helvetica,sans-Serif" font-size="10.00">+ Plan()</text>
<text text-anchor="start" x="213.5" y="-189.5" font-family="Helvetica,sans-Serif" font-size="10.00">+ run_body()</text>
<text text-anchor="start" x="213.5" y="-178.5" font-family="Helvetica,sans-Serif" font-size="10.00">+ get_operator()</text>
<text text-anchor="start" x="213.5" y="-167.5" font-family="Helvetica,sans-Serif" font-size="10.00">+ get_statement()</text>
<text text-anchor="start" x="213.5" y="-156.5" font-family="Helvetica,sans-Serif" font-size="10.00">+ get_context()</text>
<text text-anchor="start" x="213.5" y="-145.5" font-family="Helvetica,sans-Serif" font-size="10.00">+ get_body()</text>
</a>
</g>
</g>
<!-- Node2&#45;&gt;Node1 -->
<g id="edge1" class="edge">
<title>Node2&#45;&gt;Node1</title>
<path fill="none" stroke="#404040" d="M252,-138.34C252,-126.86 252,-114.73 252,-103.19"/>
<polygon fill="none" stroke="#404040" points="252,-102.95 248,-96.95 252,-90.95 256,-96.95 252,-102.95"/>
<text text-anchor="middle" x="266.5" y="-112" font-family="Helvetica,sans-Serif" font-size="10.00"> &#45;_plan</text>
</g>
<!-- Node3 -->
<g id="node3" class="node">
<title>Node3</title>
<g id="a_node3"><a xlink:href="../../d5/de2/class_context.html" target="_top" xlink:title=" ">
<polygon fill="white" stroke="black" points="93.5,-309.5 93.5,-388.5 176.5,-388.5 176.5,-309.5 93.5,-309.5"/>
<text text-anchor="middle" x="135" y="-376.5" font-family="Helvetica,sans-Serif" font-size="10.00">Context</text>
<polyline fill="none" stroke="black" points="93.5,-369.5 176.5,-369.5 "/>
<text text-anchor="start" x="101.5" y="-357.5" font-family="Helvetica,sans-Serif" font-size="10.00">&#45; _size</text>
<polyline fill="none" stroke="black" points="93.5,-350.5 176.5,-350.5 "/>
<text text-anchor="start" x="101.5" y="-338.5" font-family="Helvetica,sans-Serif" font-size="10.00">+ Context()</text>
<text text-anchor="start" x="101.5" y="-327.5" font-family="Helvetica,sans-Serif" font-size="10.00">+ add_context()</text>
<text text-anchor="start" x="101.5" y="-316.5" font-family="Helvetica,sans-Serif" font-size="10.00">+ is_valid()</text>
</a>
</g>
</g>
<!-- Node3&#45;&gt;Node2 -->
<g id="edge2" class="edge">
<title>Node3&#45;&gt;Node2</title>
<path fill="none" stroke="#404040" d="M164.83,-309.12C176.2,-294.3 189.5,-276.96 202.23,-260.37"/>
<polygon fill="none" stroke="#404040" points="202.34,-260.23 202.82,-253.03 209.65,-250.71 209.17,-257.9 202.34,-260.23"/>
<text text-anchor="middle" x="215.5" y="-272" font-family="Helvetica,sans-Serif" font-size="10.00"> &#45;_context</text>
</g>
<!-- Node4 -->
<g id="node4" class="node">
<title>Node4</title>
<g id="a_node4"><a xlink:href="../../df/d28/class_vector_queue.html" target="_top" xlink:title=" ">
<polygon fill="white" stroke="black" points="0,-447.5 0,-636.5 164,-636.5 164,-447.5 0,-447.5"/>
<text text-anchor="middle" x="82" y="-624.5" font-family="Helvetica,sans-Serif" font-size="10.00">VectorQueue&lt; ContextCondition &gt;</text>
<polyline fill="none" stroke="black" points="0,-617.5 164,-617.5 "/>
<text text-anchor="start" x="8" y="-605.5" font-family="Helvetica,sans-Serif" font-size="10.00">&#45; _queue</text>
<text text-anchor="start" x="8" y="-594.5" font-family="Helvetica,sans-Serif" font-size="10.00">&#45; _capacity</text>
<polyline fill="none" stroke="black" points="0,-587.5 164,-587.5 "/>
<text text-anchor="start" x="8" y="-575.5" font-family="Helvetica,sans-Serif" font-size="10.00">+ init()</text>
<text text-anchor="start" x="8" y="-564.5" font-family="Helvetica,sans-Serif" font-size="10.00">+ push_front()</text>
<text text-anchor="start" x="8" y="-553.5" font-family="Helvetica,sans-Serif" font-size="10.00">+ push_back()</text>
<text text-anchor="start" x="8" y="-542.5" font-family="Helvetica,sans-Serif" font-size="10.00">+ pop_back()</text>
<text text-anchor="start" x="8" y="-531.5" font-family="Helvetica,sans-Serif" font-size="10.00">+ front()</text>
<text text-anchor="start" x="8" y="-520.5" font-family="Helvetica,sans-Serif" font-size="10.00">+ back()</text>
<text text-anchor="start" x="8" y="-509.5" font-family="Helvetica,sans-Serif" font-size="10.00">+ item_at()</text>
<text text-anchor="start" x="8" y="-498.5" font-family="Helvetica,sans-Serif" font-size="10.00">+ erase()</text>
<text text-anchor="start" x="8" y="-487.5" font-family="Helvetica,sans-Serif" font-size="10.00">+ rotate()</text>
<text text-anchor="start" x="8" y="-476.5" font-family="Helvetica,sans-Serif" font-size="10.00">+ size()</text>
<text text-anchor="start" x="8" y="-465.5" font-family="Helvetica,sans-Serif" font-size="10.00">+ is_empty()</text>
<text text-anchor="start" x="8" y="-454.5" font-family="Helvetica,sans-Serif" font-size="10.00">+ is_full()</text>
</a>
</g>
</g>
<!-- Node4&#45;&gt;Node3 -->
<g id="edge3" class="edge">
<title>Node4&#45;&gt;Node3</title>
<path fill="none" stroke="#404040" d="M107.96,-447.46C112.46,-431.21 116.99,-414.89 121.02,-400.38"/>
<polygon fill="none" stroke="#404040" points="121.07,-400.21 118.82,-393.36 124.28,-388.65 126.53,-395.5 121.07,-400.21"/>
<text text-anchor="middle" x="136.5" y="-421" font-family="Helvetica,sans-Serif" font-size="10.00"> &#45;_context</text>
</g>
<!-- Node5 -->
<g id="node5" class="node">
<title>Node5</title>
<g id="a_node5"><a xlink:href="../../df/d28/class_vector_queue.html" target="_top" xlink:title=" ">
<polygon fill="white" stroke="black" points="122.5,-684.5 122.5,-873.5 219.5,-873.5 219.5,-684.5 122.5,-684.5"/>
<text text-anchor="middle" x="171" y="-861.5" font-family="Helvetica,sans-Serif" font-size="10.00">VectorQueue&lt; X &gt;</text>
<polyline fill="none" stroke="black" points="122.5,-854.5 219.5,-854.5 "/>
<text text-anchor="start" x="130.5" y="-842.5" font-family="Helvetica,sans-Serif" font-size="10.00">&#45; _queue</text>
<text text-anchor="start" x="130.5" y="-831.5" font-family="Helvetica,sans-Serif" font-size="10.00">&#45; _capacity</text>
<polyline fill="none" stroke="black" points="122.5,-824.5 219.5,-824.5 "/>
<text text-anchor="start" x="130.5" y="-812.5" font-family="Helvetica,sans-Serif" font-size="10.00">+ init()</text>
<text text-anchor="start" x="130.5" y="-801.5" font-family="Helvetica,sans-Serif" font-size="10.00">+ push_front()</text>
<text text-anchor="start" x="130.5" y="-790.5" font-family="Helvetica,sans-Serif" font-size="10.00">+ push_back()</text>
<text text-anchor="start" x="130.5" y="-779.5" font-family="Helvetica,sans-Serif" font-size="10.00">+ pop_back()</text>
<text text-anchor="start" x="130.5" y="-768.5" font-family="Helvetica,sans-Serif" font-size="10.00">+ front()</text>
<text text-anchor="start" x="130.5" y="-757.5" font-family="Helvetica,sans-Serif" font-size="10.00">+ back()</text>
<text text-anchor="start" x="130.5" y="-746.5" font-family="Helvetica,sans-Serif" font-size="10.00">+ item_at()</text>
<text text-anchor="start" x="130.5" y="-735.5" font-family="Helvetica,sans-Serif" font-size="10.00">+ erase()</text>
<text text-anchor="start" x="130.5" y="-724.5" font-family="Helvetica,sans-Serif" font-size="10.00">+ rotate()</text>
<text text-anchor="start" x="130.5" y="-713.5" font-family="Helvetica,sans-Serif" font-size="10.00">+ size()</text>
<text text-anchor="start" x="130.5" y="-702.5" font-family="Helvetica,sans-Serif" font-size="10.00">+ is_empty()</text>
<text text-anchor="start" x="130.5" y="-691.5" font-family="Helvetica,sans-Serif" font-size="10.00">+ is_full()</text>
</a>
</g>
</g>
<!-- Node5&#45;&gt;Node4 -->
<g id="edge4" class="edge">
<title>Node5&#45;&gt;Node4</title>
<path fill="none" stroke="orange" d="M131.91,-674.79C127.1,-662.09 122.21,-649.16 117.45,-636.62"/>
<polygon fill="orange" stroke="orange" points="128.75,-676.33 135.57,-684.45 135.3,-673.86 128.75,-676.33"/>
<text text-anchor="middle" x="173.5" y="-658" font-family="Helvetica,sans-Serif" font-size="10.00"> &lt; ContextCondition &gt;</text>
</g>
<!-- Node8 -->
<g id="node8" class="node">
<title>Node8</title>
<g id="a_node8"><a xlink:href="../../df/d28/class_vector_queue.html" target="_top" xlink:title=" ">
<polygon fill="white" stroke="black" points="182,-447.5 182,-636.5 340,-636.5 340,-447.5 182,-447.5"/>
<text text-anchor="middle" x="261" y="-624.5" font-family="Helvetica,sans-Serif" font-size="10.00">VectorQueue&lt; BodyInstruction &gt;</text>
<polyline fill="none" stroke="black" points="182,-617.5 340,-617.5 "/>
<text text-anchor="start" x="190" y="-605.5" font-family="Helvetica,sans-Serif" font-size="10.00">&#45; _queue</text>
<text text-anchor="start" x="190" y="-594.5" font-family="Helvetica,sans-Serif" font-size="10.00">&#45; _capacity</text>
<polyline fill="none" stroke="black" points="182,-587.5 340,-587.5 "/>
<text text-anchor="start" x="190" y="-575.5" font-family="Helvetica,sans-Serif" font-size="10.00">+ init()</text>
<text text-anchor="start" x="190" y="-564.5" font-family="Helvetica,sans-Serif" font-size="10.00">+ push_front()</text>
<text text-anchor="start" x="190" y="-553.5" font-family="Helvetica,sans-Serif" font-size="10.00">+ push_back()</text>
<text text-anchor="start" x="190" y="-542.5" font-family="Helvetica,sans-Serif" font-size="10.00">+ pop_back()</text>
<text text-anchor="start" x="190" y="-531.5" font-family="Helvetica,sans-Serif" font-size="10.00">+ front()</text>
<text text-anchor="start" x="190" y="-520.5" font-family="Helvetica,sans-Serif" font-size="10.00">+ back()</text>
<text text-anchor="start" x="190" y="-509.5" font-family="Helvetica,sans-Serif" font-size="10.00">+ item_at()</text>
<text text-anchor="start" x="190" y="-498.5" font-family="Helvetica,sans-Serif" font-size="10.00">+ erase()</text>
<text text-anchor="start" x="190" y="-487.5" font-family="Helvetica,sans-Serif" font-size="10.00">+ rotate()</text>
<text text-anchor="start" x="190" y="-476.5" font-family="Helvetica,sans-Serif" font-size="10.00">+ size()</text>
<text text-anchor="start" x="190" y="-465.5" font-family="Helvetica,sans-Serif" font-size="10.00">+ is_empty()</text>
<text text-anchor="start" x="190" y="-454.5" font-family="Helvetica,sans-Serif" font-size="10.00">+ is_full()</text>
</a>
</g>
</g>
<!-- Node5&#45;&gt;Node8 -->
<g id="edge8" class="edge">
<title>Node5&#45;&gt;Node8</title>
<path fill="none" stroke="orange" d="M219.53,-674.8C220.72,-671.85 221.88,-668.91 223,-666 226.61,-656.61 230.13,-646.73 233.47,-636.8"/>
<polygon fill="orange" stroke="orange" points="216.2,-673.71 215.63,-684.29 222.67,-676.37 216.2,-673.71"/>
<text text-anchor="middle" x="270.5" y="-658" font-family="Helvetica,sans-Serif" font-size="10.00"> &lt; BodyInstruction &gt;</text>
</g>
<!-- Node6 -->
<g id="node6" class="node">
<title>Node6</title>
<g id="a_node6"><a xlink:href="../../d7/da3/class_statement.html" target="_top" xlink:title=" ">
<polygon fill="white" stroke="black" points="319,-298.5 319,-399.5 395,-399.5 395,-298.5 319,-298.5"/>
<text text-anchor="middle" x="357" y="-387.5" font-family="Helvetica,sans-Serif" font-size="10.00">Statement</text>
<polyline fill="none" stroke="black" points="319,-380.5 395,-380.5 "/>
<text text-anchor="start" x="327" y="-368.5" font-family="Helvetica,sans-Serif" font-size="10.00">&#45; _name</text>
<polyline fill="none" stroke="black" points="319,-361.5 395,-361.5 "/>
<text text-anchor="start" x="327" y="-349.5" font-family="Helvetica,sans-Serif" font-size="10.00">+ Statement()</text>
<text text-anchor="start" x="327" y="-338.5" font-family="Helvetica,sans-Serif" font-size="10.00">+ Statement()</text>
<text text-anchor="start" x="327" y="-327.5" font-family="Helvetica,sans-Serif" font-size="10.00">+ is_equal()</text>
<text text-anchor="start" x="327" y="-316.5" font-family="Helvetica,sans-Serif" font-size="10.00">+ is_equal()</text>
<text text-anchor="start" x="327" y="-305.5" font-family="Helvetica,sans-Serif" font-size="10.00">+ get_name()</text>
</a>
</g>
</g>
<!-- Node6&#45;&gt;Node2 -->
<g id="edge5" class="edge">
<title>Node6&#45;&gt;Node2</title>
<path fill="none" stroke="#404040" d="M322.91,-298.49C314.59,-286.41 305.57,-273.31 296.84,-260.62"/>
<polygon fill="none" stroke="#404040" points="296.72,-260.45 290.02,-257.78 289.92,-250.57 296.61,-253.24 296.72,-260.45"/>
<text text-anchor="middle" x="334.5" y="-272" font-family="Helvetica,sans-Serif" font-size="10.00"> &#45;_statement</text>
</g>
<!-- Node7 -->
<g id="node7" class="node">
<title>Node7</title>
<g id="a_node7"><a xlink:href="../../d0/dcb/class_body.html" target="_top" xlink:title=" ">
<polygon fill="white" stroke="black" points="203.5,-304 203.5,-394 300.5,-394 300.5,-304 203.5,-304"/>
<text text-anchor="middle" x="252" y="-382" font-family="Helvetica,sans-Serif" font-size="10.00">Body</text>
<polyline fill="none" stroke="black" points="203.5,-375 300.5,-375 "/>
<text text-anchor="start" x="211.5" y="-363" font-family="Helvetica,sans-Serif" font-size="10.00">&#45; _size</text>
<polyline fill="none" stroke="black" points="203.5,-356 300.5,-356 "/>
<text text-anchor="start" x="211.5" y="-344" font-family="Helvetica,sans-Serif" font-size="10.00">+ Body()</text>
<text text-anchor="start" x="211.5" y="-333" font-family="Helvetica,sans-Serif" font-size="10.00">+ run_body()</text>
<text text-anchor="start" x="211.5" y="-322" font-family="Helvetica,sans-Serif" font-size="10.00">+ add_instruction()</text>
<text text-anchor="start" x="211.5" y="-311" font-family="Helvetica,sans-Serif" font-size="10.00">+ get_size()</text>
</a>
</g>
</g>
<!-- Node7&#45;&gt;Node2 -->
<g id="edge6" class="edge">
<title>Node7&#45;&gt;Node2</title>
<path fill="none" stroke="#404040" d="M252,-303.89C252,-291.03 252,-276.68 252,-262.74"/>
<polygon fill="none" stroke="#404040" points="252,-262.64 248,-256.64 252,-250.64 256,-256.64 252,-262.64"/>
<text text-anchor="middle" x="267.5" y="-272" font-family="Helvetica,sans-Serif" font-size="10.00"> &#45;_body</text>
</g>
<!-- Node8&#45;&gt;Node7 -->
<g id="edge7" class="edge">
<title>Node8&#45;&gt;Node7</title>
<path fill="none" stroke="#404040" d="M256.59,-447.46C255.93,-433.42 255.27,-419.32 254.66,-406.39"/>
<polygon fill="none" stroke="#404040" points="254.66,-406.36 250.38,-400.56 254.09,-394.38 258.37,-400.18 254.66,-406.36"/>
<text text-anchor="middle" x="270.5" y="-421" font-family="Helvetica,sans-Serif" font-size="10.00"> &#45;_body</text>
</g>
</g>
</svg>
