<?xml version="1.0" encoding="UTF-8" standalone="no"?>
<!DOCTYPE svg PUBLIC "-//W3C//DTD SVG 1.1//EN"
 "http://www.w3.org/Graphics/SVG/1.1/DTD/svg11.dtd">
<!-- Generated by graphviz version 5.0.0 (20220708.1001)
 -->
<!-- Title: body_return.cpp Pages: 1 -->
<svg width="415pt" height="252pt"
 viewBox="0.00 0.00 414.93 252.00" xmlns="http://www.w3.org/2000/svg" xmlns:xlink="http://www.w3.org/1999/xlink">
<g id="graph0" class="graph" transform="scale(1 1) rotate(0) translate(4 248)">
<title>body_return.cpp</title>
<polygon fill="white" stroke="transparent" points="-4,4 -4,-248 410.93,-248 410.93,4 -4,4"/>
<!-- Node1 -->
<g id="node1" class="node">
<title>Node1</title>
<g id="a_node1"><a xlink:title=" ">
<polygon fill="#bfbfbf" stroke="black" points="187.5,-224.5 187.5,-243.5 272.5,-243.5 272.5,-224.5 187.5,-224.5"/>
<text text-anchor="middle" x="230" y="-231.5" font-family="Helvetica,sans-Serif" font-size="10.00">body_return.cpp</text>
</a>
</g>
</g>
<!-- Node2 -->
<g id="node2" class="node">
<title>Node2</title>
<g id="a_node2"><a xlink:href="../../d9/ded/body__return_8h.html" target="_top" xlink:title=" ">
<polygon fill="white" stroke="black" points="193,-168.5 193,-187.5 267,-187.5 267,-168.5 193,-168.5"/>
<text text-anchor="middle" x="230" y="-175.5" font-family="Helvetica,sans-Serif" font-size="10.00">body_return.h</text>
</a>
</g>
</g>
<!-- Node1&#45;&gt;Node2 -->
<g id="edge1" class="edge">
<title>Node1&#45;&gt;Node2</title>
<path fill="none" stroke="midnightblue" d="M230,-224.08C230,-217.01 230,-206.86 230,-197.99"/>
<polygon fill="midnightblue" stroke="midnightblue" points="233.5,-197.75 230,-187.75 226.5,-197.75 233.5,-197.75"/>
</g>
<!-- Node3 -->
<g id="node3" class="node">
<title>Node3</title>
<g id="a_node3"><a xlink:href="../../d0/d96/body__type_8h.html" target="_top" xlink:title=" ">
<polygon fill="white" stroke="black" points="108,-112.5 108,-131.5 176,-131.5 176,-112.5 108,-112.5"/>
<text text-anchor="middle" x="142" y="-119.5" font-family="Helvetica,sans-Serif" font-size="10.00">body_type.h</text>
</a>
</g>
</g>
<!-- Node2&#45;&gt;Node3 -->
<g id="edge2" class="edge">
<title>Node2&#45;&gt;Node3</title>
<path fill="none" stroke="midnightblue" d="M215.86,-168.32C202.13,-159.9 181.06,-146.97 164.94,-137.07"/>
<polygon fill="midnightblue" stroke="midnightblue" points="166.46,-133.9 156.1,-131.65 162.8,-139.87 166.46,-133.9"/>
</g>
<!-- Node4 -->
<g id="node4" class="node">
<title>Node4</title>
<g id="a_node4"><a xlink:href="../../dd/d20/event_8h.html" target="_top" xlink:title=" ">
<polygon fill="white" stroke="black" points="194.5,-112.5 194.5,-131.5 265.5,-131.5 265.5,-112.5 194.5,-112.5"/>
<text text-anchor="middle" x="230" y="-119.5" font-family="Helvetica,sans-Serif" font-size="10.00">../bdi/event.h</text>
</a>
</g>
</g>
<!-- Node2&#45;&gt;Node4 -->
<g id="edge3" class="edge">
<title>Node2&#45;&gt;Node4</title>
<path fill="none" stroke="midnightblue" d="M230,-168.08C230,-161.01 230,-150.86 230,-141.99"/>
<polygon fill="midnightblue" stroke="midnightblue" points="233.5,-141.75 230,-131.75 226.5,-141.75 233.5,-141.75"/>
</g>
<!-- Node6 -->
<g id="node6" class="node">
<title>Node6</title>
<g id="a_node6"><a xlink:title=" ">
<polygon fill="white" stroke="#bfbfbf" points="222,-0.5 222,-19.5 268,-19.5 268,-0.5 222,-0.5"/>
<text text-anchor="middle" x="245" y="-7.5" font-family="Helvetica,sans-Serif" font-size="10.00">cstdint</text>
</a>
</g>
</g>
<!-- Node2&#45;&gt;Node6 -->
<g id="edge10" class="edge">
<title>Node2&#45;&gt;Node6</title>
<path fill="none" stroke="midnightblue" d="M263.13,-168.43C304.15,-155.84 372.24,-127.99 402,-76 429.55,-27.88 332,-15.38 278.21,-12.14"/>
<polygon fill="midnightblue" stroke="midnightblue" points="278.25,-8.63 268.08,-11.6 277.88,-15.62 278.25,-8.63"/>
</g>
<!-- Node5 -->
<g id="node5" class="node">
<title>Node5</title>
<g id="a_node5"><a xlink:href="../../d5/d6b/proposition_8h.html" target="_top" xlink:title=" ">
<polygon fill="white" stroke="black" points="0,-56.5 0,-75.5 110,-75.5 110,-56.5 0,-56.5"/>
<text text-anchor="middle" x="55" y="-63.5" font-family="Helvetica,sans-Serif" font-size="10.00">../syntax/proposition.h</text>
</a>
</g>
</g>
<!-- Node4&#45;&gt;Node5 -->
<g id="edge4" class="edge">
<title>Node4&#45;&gt;Node5</title>
<path fill="none" stroke="midnightblue" d="M202.27,-112.44C172.57,-103.28 125.28,-88.69 92.33,-78.52"/>
<polygon fill="midnightblue" stroke="midnightblue" points="93.19,-75.12 82.6,-75.52 91.12,-81.81 93.19,-75.12"/>
</g>
<!-- Node4&#45;&gt;Node6 -->
<g id="edge9" class="edge">
<title>Node4&#45;&gt;Node6</title>
<path fill="none" stroke="midnightblue" d="M206.19,-112.45C179.51,-101.44 141.86,-80.75 157,-56 168.9,-36.56 192.14,-25.17 211.76,-18.72"/>
<polygon fill="midnightblue" stroke="midnightblue" points="213.02,-22 221.6,-15.78 211.02,-15.29 213.02,-22"/>
</g>
<!-- Node7 -->
<g id="node7" class="node">
<title>Node7</title>
<g id="a_node7"><a xlink:href="../../db/d50/event__operator_8h.html" target="_top" xlink:title=" ">
<polygon fill="white" stroke="black" points="166.5,-56.5 166.5,-75.5 293.5,-75.5 293.5,-56.5 166.5,-56.5"/>
<text text-anchor="middle" x="230" y="-63.5" font-family="Helvetica,sans-Serif" font-size="10.00">../syntax/event_operator.h</text>
</a>
</g>
</g>
<!-- Node4&#45;&gt;Node7 -->
<g id="edge6" class="edge">
<title>Node4&#45;&gt;Node7</title>
<path fill="none" stroke="midnightblue" d="M230,-112.08C230,-105.01 230,-94.86 230,-85.99"/>
<polygon fill="midnightblue" stroke="midnightblue" points="233.5,-85.75 230,-75.75 226.5,-85.75 233.5,-85.75"/>
</g>
<!-- Node8 -->
<g id="node8" class="node">
<title>Node8</title>
<g id="a_node8"><a xlink:href="../../df/dc3/event__id_8h.html" target="_top" xlink:title=" ">
<polygon fill="white" stroke="black" points="311.5,-56.5 311.5,-75.5 392.5,-75.5 392.5,-56.5 311.5,-56.5"/>
<text text-anchor="middle" x="352" y="-63.5" font-family="Helvetica,sans-Serif" font-size="10.00">../lib/event_id.h</text>
</a>
</g>
</g>
<!-- Node4&#45;&gt;Node8 -->
<g id="edge7" class="edge">
<title>Node4&#45;&gt;Node8</title>
<path fill="none" stroke="midnightblue" d="M249.33,-112.44C269.32,-103.6 300.74,-89.69 323.56,-79.59"/>
<polygon fill="midnightblue" stroke="midnightblue" points="325.03,-82.76 332.76,-75.52 322.2,-76.36 325.03,-82.76"/>
</g>
<!-- Node5&#45;&gt;Node6 -->
<g id="edge5" class="edge">
<title>Node5&#45;&gt;Node6</title>
<path fill="none" stroke="midnightblue" d="M85.11,-56.44C119.68,-46.62 176.21,-30.55 211.97,-20.39"/>
<polygon fill="midnightblue" stroke="midnightblue" points="213.25,-23.66 221.91,-17.56 211.33,-16.93 213.25,-23.66"/>
</g>
<!-- Node8&#45;&gt;Node6 -->
<g id="edge8" class="edge">
<title>Node8&#45;&gt;Node6</title>
<path fill="none" stroke="midnightblue" d="M334.81,-56.32C317.65,-47.66 291.05,-34.24 271.25,-24.25"/>
<polygon fill="midnightblue" stroke="midnightblue" points="272.65,-21.04 262.15,-19.65 269.5,-27.28 272.65,-21.04"/>
</g>
</g>
</svg>
