<?xml version="1.0" encoding="UTF-8" standalone="no"?>
<!DOCTYPE svg PUBLIC "-//W3C//DTD SVG 1.1//EN"
 "http://www.w3.org/Graphics/SVG/1.1/DTD/svg11.dtd">
<!-- Generated by graphviz version 2.47.1 (20210421.1823)
 -->
<!-- Title: belief_base.h Pages: 1 -->
<!--zoomable 476 -->
<svg id="main" version="1.1" xmlns="http://www.w3.org/2000/svg" xmlns:xlink="http://www.w3.org/1999/xlink" xml:space="preserve" onload="init(evt)">
<style type="text/css"><![CDATA[
.edge:hover path { stroke: red; }
.edge:hover polygon { stroke: red; fill: red; }
]]></style>
<script type="text/javascript"><![CDATA[
var edges = document.getElementsByTagName('g');
if (edges && edges.length) {
  for (var i=0;i<edges.length;i++) {
    if (edges[i].id.substr(0,4)=='edge') {
      edges[i].setAttribute('class','edge');
    }
  }
}
]]></script>
        <defs>
                <circle id="rim" cx="0" cy="0" r="7"/>
                <circle id="rim2" cx="0" cy="0" r="3.5"/>
                <g id="zoomPlus">
                        <use xlink:href="#rim" fill="#404040">
                                <set attributeName="fill" to="#808080" begin="zoomplus.mouseover" end="zoomplus.mouseout"/>
                        </use>
                        <path d="M-4,0h8M0,-4v8" fill="none" stroke="white" stroke-width="1.5" pointer-events="none"/>
                </g>
                <g id="zoomMin">
                        <use xlink:href="#rim" fill="#404040">
                                <set attributeName="fill" to="#808080" begin="zoomminus.mouseover" end="zoomminus.mouseout"/>
                        </use>
                        <path d="M-4,0h8" fill="none" stroke="white" stroke-width="1.5" pointer-events="none"/>
                </g>
                <g id="dirArrow">
                        <path fill="none" stroke="white" stroke-width="1.5" d="M0,-3.0v7 M-2.5,-0.5L0,-3.0L2.5,-0.5"/>
                </g>
               <g id="resetDef">
                       <use xlink:href="#rim2" fill="#404040">
                               <set attributeName="fill" to="#808080" begin="reset.mouseover" end="reset.mouseout"/>
                       </use>
               </g>
        </defs>

<script type="text/javascript">
var viewWidth = 651;
var viewHeight = 476;
var sectionId = 'dynsection-1';
</script>
<script xlink:href="../../svgpan.js"/>
<svg id="graph" class="graph">
<g id="viewport">
<title>belief_base.h</title>
<polygon fill="white" stroke="transparent" points="-4,4 -4,-472 646.5,-472 646.5,4 -4,4"/>
<!-- Node1 -->
<g id="node1" class="node">
<title>Node1</title>
<g id="a_node1"><a xlink:title=" ">
<polygon fill="#bfbfbf" stroke="black" points="235.5,-448.5 235.5,-467.5 309.5,-467.5 309.5,-448.5 235.5,-448.5"/>
<text text-anchor="middle" x="272.5" y="-455.5" font-family="Helvetica,sans-Serif" font-size="10.00">belief_base.h</text>
</a>
</g>
</g>
<!-- Node2 -->
<g id="node2" class="node">
<title>Node2</title>
<g id="a_node2"><a xlink:href="../../de/d9e/agent_8h.html" target="_top" xlink:title=" ">
<polygon fill="white" stroke="black" points="49.5,-56.5 49.5,-75.5 97.5,-75.5 97.5,-56.5 49.5,-56.5"/>
<text text-anchor="middle" x="73.5" y="-63.5" font-family="Helvetica,sans-Serif" font-size="10.00">agent.h</text>
</a>
</g>
</g>
<!-- Node1&#45;&gt;Node2 -->
<g id="edge1" class="edge">
<title>Node1&#45;&gt;Node2</title>
<path fill="none" stroke="midnightblue" d="M225.25,-455.49C156.11,-450.47 35.5,-429.84 35.5,-347 35.5,-347 35.5,-347 35.5,-177 35.5,-137.4 57.77,-93.96 68.22,-75.77"/>
<polygon fill="midnightblue" stroke="midnightblue" points="225.27,-458.99 235.47,-456.14 225.71,-452.01 225.27,-458.99"/>
</g>
<!-- Node5 -->
<g id="node5" class="node">
<title>Node5</title>
<g id="a_node5"><a xlink:href="../../de/d9b/belief__base_8cpp.html" target="_top" xlink:title=" ">
<polygon fill="white" stroke="black" points="558.5,-392.5 558.5,-411.5 642.5,-411.5 642.5,-392.5 558.5,-392.5"/>
<text text-anchor="middle" x="600.5" y="-399.5" font-family="Helvetica,sans-Serif" font-size="10.00">belief_base.cpp</text>
</a>
</g>
</g>
<!-- Node1&#45;&gt;Node5 -->
<g id="edge4" class="edge">
<title>Node1&#45;&gt;Node5</title>
<path fill="none" stroke="midnightblue" d="M320.03,-449.17C384.09,-438.63 497.14,-420.02 558.32,-409.94"/>
<polygon fill="midnightblue" stroke="midnightblue" points="319.11,-445.78 309.81,-450.86 320.24,-452.69 319.11,-445.78"/>
</g>
<!-- Node6 -->
<g id="node6" class="node">
<title>Node6</title>
<g id="a_node6"><a xlink:href="../../df/d3f/intention_8h.html" target="_top" xlink:title=" ">
<polygon fill="white" stroke="black" points="199,-168.5 199,-187.5 260,-187.5 260,-168.5 199,-168.5"/>
<text text-anchor="middle" x="229.5" y="-175.5" font-family="Helvetica,sans-Serif" font-size="10.00">intention.h</text>
</a>
</g>
</g>
<!-- Node1&#45;&gt;Node6 -->
<g id="edge5" class="edge">
<title>Node1&#45;&gt;Node6</title>
<path fill="none" stroke="midnightblue" d="M250.11,-442.7C224.04,-424.1 184.5,-388.97 184.5,-347 184.5,-347 184.5,-347 184.5,-289 184.5,-248.56 210.88,-205.56 223.24,-187.63"/>
<polygon fill="midnightblue" stroke="midnightblue" points="248.14,-445.59 258.36,-448.36 252.1,-439.82 248.14,-445.59"/>
</g>
<!-- Node8 -->
<g id="node8" class="node">
<title>Node8</title>
<g id="a_node8"><a xlink:href="../../d8/d83/intention__base_8h.html" target="_top" xlink:title=" ">
<polygon fill="white" stroke="black" points="327,-112.5 327,-131.5 414,-131.5 414,-112.5 327,-112.5"/>
<text text-anchor="middle" x="370.5" y="-119.5" font-family="Helvetica,sans-Serif" font-size="10.00">intention_base.h</text>
</a>
</g>
</g>
<!-- Node1&#45;&gt;Node8 -->
<g id="edge10" class="edge">
<title>Node1&#45;&gt;Node8</title>
<path fill="none" stroke="midnightblue" d="M319.82,-457.14C394.3,-454.6 530.5,-437.57 530.5,-347 530.5,-347 530.5,-347 530.5,-233 530.5,-174.35 456.58,-144.61 409.23,-131.57"/>
<polygon fill="midnightblue" stroke="midnightblue" points="319.64,-453.64 309.74,-457.41 319.83,-460.64 319.64,-453.64"/>
</g>
<!-- Node10 -->
<g id="node10" class="node">
<title>Node10</title>
<g id="a_node10"><a xlink:href="../../de/d75/plan__base_8h.html" target="_top" xlink:title=" ">
<polygon fill="white" stroke="black" points="88.5,-224.5 88.5,-243.5 156.5,-243.5 156.5,-224.5 88.5,-224.5"/>
<text text-anchor="middle" x="122.5" y="-231.5" font-family="Helvetica,sans-Serif" font-size="10.00">plan_base.h</text>
</a>
</g>
</g>
<!-- Node1&#45;&gt;Node10 -->
<g id="edge11" class="edge">
<title>Node1&#45;&gt;Node10</title>
<path fill="none" stroke="midnightblue" d="M225.44,-445.92C205.95,-439.12 184.64,-428.45 170.5,-412 126.08,-360.33 122.38,-271.36 122.37,-243.56"/>
<polygon fill="midnightblue" stroke="midnightblue" points="224.52,-449.3 235.11,-449.04 226.67,-442.64 224.52,-449.3"/>
</g>
<!-- Node12 -->
<g id="node12" class="node">
<title>Node12</title>
<g id="a_node12"><a xlink:href="../../d0/d77/body_8h.html" target="_top" xlink:title=" ">
<polygon fill="white" stroke="black" points="212.5,-336.5 212.5,-355.5 256.5,-355.5 256.5,-336.5 212.5,-336.5"/>
<text text-anchor="middle" x="234.5" y="-343.5" font-family="Helvetica,sans-Serif" font-size="10.00">body.h</text>
</a>
</g>
</g>
<!-- Node1&#45;&gt;Node12 -->
<g id="edge15" class="edge">
<title>Node1&#45;&gt;Node12</title>
<path fill="none" stroke="midnightblue" d="M264.43,-439.21C260.86,-431.01 256.74,-421.1 253.5,-412 246.4,-392.06 239.89,-368.03 236.65,-355.51"/>
<polygon fill="midnightblue" stroke="midnightblue" points="261.3,-440.78 268.56,-448.49 267.69,-437.93 261.3,-440.78"/>
</g>
<!-- Node18 -->
<g id="node18" class="node">
<title>Node18</title>
<g id="a_node18"><a xlink:href="../../d8/d67/body__instruction_8h.html" target="_top" xlink:title=" ">
<polygon fill="white" stroke="black" points="263,-392.5 263,-411.5 358,-411.5 358,-392.5 263,-392.5"/>
<text text-anchor="middle" x="310.5" y="-399.5" font-family="Helvetica,sans-Serif" font-size="10.00">body_instruction.h</text>
</a>
</g>
</g>
<!-- Node1&#45;&gt;Node18 -->
<g id="edge24" class="edge">
<title>Node1&#45;&gt;Node18</title>
<path fill="none" stroke="midnightblue" d="M284.56,-439.86C291.14,-430.5 299.01,-419.33 304.34,-411.75"/>
<polygon fill="midnightblue" stroke="midnightblue" points="281.67,-437.89 278.77,-448.08 287.39,-441.92 281.67,-437.89"/>
</g>
<!-- Node20 -->
<g id="node20" class="node">
<title>Node20</title>
<g id="a_node20"><a xlink:href="../../dc/d1e/context_8h.html" target="_top" xlink:title=" ">
<polygon fill="white" stroke="black" points="380.5,-392.5 380.5,-411.5 436.5,-411.5 436.5,-392.5 380.5,-392.5"/>
<text text-anchor="middle" x="408.5" y="-399.5" font-family="Helvetica,sans-Serif" font-size="10.00">context.h</text>
</a>
</g>
</g>
<!-- Node1&#45;&gt;Node20 -->
<g id="edge27" class="edge">
<title>Node1&#45;&gt;Node20</title>
<path fill="none" stroke="midnightblue" d="M303.63,-444.64C329.16,-434.5 364.61,-420.43 387.05,-411.52"/>
<polygon fill="midnightblue" stroke="midnightblue" points="302.05,-441.5 294.05,-448.44 304.64,-448.01 302.05,-441.5"/>
</g>
<!-- Node3 -->
<g id="node3" class="node">
<title>Node3</title>
<g id="a_node3"><a xlink:href="../../dd/d3d/agent_8cpp.html" target="_top" xlink:title=" ">
<polygon fill="white" stroke="black" points="0,-0.5 0,-19.5 59,-19.5 59,-0.5 0,-0.5"/>
<text text-anchor="middle" x="29.5" y="-7.5" font-family="Helvetica,sans-Serif" font-size="10.00">agent.cpp</text>
</a>
</g>
</g>
<!-- Node2&#45;&gt;Node3 -->
<g id="edge2" class="edge">
<title>Node2&#45;&gt;Node3</title>
<path fill="none" stroke="midnightblue" d="M59.77,-48.14C52.1,-38.74 42.87,-27.4 36.63,-19.75"/>
<polygon fill="midnightblue" stroke="midnightblue" points="57.2,-50.54 66.23,-56.08 62.63,-46.12 57.2,-50.54"/>
</g>
<!-- Node4 -->
<g id="node4" class="node">
<title>Node4</title>
<g id="a_node4"><a xlink:href="../../d4/d91/agent__loop_8cpp.html" target="_top" xlink:title=" ">
<polygon fill="white" stroke="black" points="77.5,-0.5 77.5,-19.5 159.5,-19.5 159.5,-0.5 77.5,-0.5"/>
<text text-anchor="middle" x="118.5" y="-7.5" font-family="Helvetica,sans-Serif" font-size="10.00">agent_loop.cpp</text>
</a>
</g>
</g>
<!-- Node2&#45;&gt;Node4 -->
<g id="edge3" class="edge">
<title>Node2&#45;&gt;Node4</title>
<path fill="none" stroke="midnightblue" d="M87.55,-48.14C95.39,-38.74 104.83,-27.4 111.21,-19.75"/>
<polygon fill="midnightblue" stroke="midnightblue" points="84.64,-46.16 80.93,-56.08 90.02,-50.64 84.64,-46.16"/>
</g>
<!-- Node7 -->
<g id="node7" class="node">
<title>Node7</title>
<g id="a_node7"><a xlink:href="../../d4/db4/intention_8cpp.html" target="_top" xlink:title=" ">
<polygon fill="white" stroke="black" points="194,-112.5 194,-131.5 265,-131.5 265,-112.5 194,-112.5"/>
<text text-anchor="middle" x="229.5" y="-119.5" font-family="Helvetica,sans-Serif" font-size="10.00">intention.cpp</text>
</a>
</g>
</g>
<!-- Node6&#45;&gt;Node7 -->
<g id="edge6" class="edge">
<title>Node6&#45;&gt;Node7</title>
<path fill="none" stroke="midnightblue" d="M229.5,-157.8C229.5,-148.91 229.5,-138.78 229.5,-131.75"/>
<polygon fill="midnightblue" stroke="midnightblue" points="226,-158.08 229.5,-168.08 233,-158.08 226,-158.08"/>
</g>
<!-- Node6&#45;&gt;Node8 -->
<g id="edge7" class="edge">
<title>Node6&#45;&gt;Node8</title>
<path fill="none" stroke="midnightblue" d="M261.43,-164.77C287.91,-154.63 324.89,-140.47 348.26,-131.52"/>
<polygon fill="midnightblue" stroke="midnightblue" points="259.93,-161.6 251.84,-168.44 262.43,-168.14 259.93,-161.6"/>
</g>
<!-- Node8&#45;&gt;Node2 -->
<g id="edge8" class="edge">
<title>Node8&#45;&gt;Node2</title>
<path fill="none" stroke="midnightblue" d="M316.93,-111.26C251.91,-99.44 145.08,-80.01 97.57,-71.38"/>
<polygon fill="midnightblue" stroke="midnightblue" points="316.53,-114.74 327,-113.09 317.78,-107.86 316.53,-114.74"/>
</g>
<!-- Node9 -->
<g id="node9" class="node">
<title>Node9</title>
<g id="a_node9"><a xlink:href="../../d2/dd9/intention__base_8cpp.html" target="_top" xlink:title=" ">
<polygon fill="white" stroke="black" points="321.5,-56.5 321.5,-75.5 419.5,-75.5 419.5,-56.5 321.5,-56.5"/>
<text text-anchor="middle" x="370.5" y="-63.5" font-family="Helvetica,sans-Serif" font-size="10.00">intention_base.cpp</text>
</a>
</g>
</g>
<!-- Node8&#45;&gt;Node9 -->
<g id="edge9" class="edge">
<title>Node8&#45;&gt;Node9</title>
<path fill="none" stroke="midnightblue" d="M370.5,-101.8C370.5,-92.91 370.5,-82.78 370.5,-75.75"/>
<polygon fill="midnightblue" stroke="midnightblue" points="367,-102.08 370.5,-112.08 374,-102.08 367,-102.08"/>
</g>
<!-- Node10&#45;&gt;Node2 -->
<g id="edge12" class="edge">
<title>Node10&#45;&gt;Node2</title>
<path fill="none" stroke="midnightblue" d="M108.76,-216.2C102.85,-208.13 96.42,-198.04 92.5,-188 76.89,-147.98 74.09,-95.78 73.6,-75.54"/>
<polygon fill="midnightblue" stroke="midnightblue" points="106.17,-218.56 115.05,-224.34 111.71,-214.29 106.17,-218.56"/>
</g>
<!-- Node10&#45;&gt;Node6 -->
<g id="edge13" class="edge">
<title>Node10&#45;&gt;Node6</title>
<path fill="none" stroke="midnightblue" d="M148.8,-219.73C168.61,-209.73 195.21,-196.31 212.35,-187.65"/>
<polygon fill="midnightblue" stroke="midnightblue" points="147.04,-216.69 139.69,-224.32 150.2,-222.94 147.04,-216.69"/>
</g>
<!-- Node11 -->
<g id="node11" class="node">
<title>Node11</title>
<g id="a_node11"><a xlink:href="../../d4/d51/plan__base_8cpp.html" target="_top" xlink:title=" ">
<polygon fill="white" stroke="black" points="102,-168.5 102,-187.5 181,-187.5 181,-168.5 102,-168.5"/>
<text text-anchor="middle" x="141.5" y="-175.5" font-family="Helvetica,sans-Serif" font-size="10.00">plan_base.cpp</text>
</a>
</g>
</g>
<!-- Node10&#45;&gt;Node11 -->
<g id="edge14" class="edge">
<title>Node10&#45;&gt;Node11</title>
<path fill="none" stroke="midnightblue" d="M129.05,-214.4C132.22,-205.36 135.89,-194.94 138.42,-187.75"/>
<polygon fill="midnightblue" stroke="midnightblue" points="125.65,-213.49 125.64,-224.08 132.26,-215.81 125.65,-213.49"/>
</g>
<!-- Node13 -->
<g id="node13" class="node">
<title>Node13</title>
<g id="a_node13"><a xlink:href="../../d1/d5f/body_8cpp.html" target="_top" xlink:title=" ">
<polygon fill="white" stroke="black" points="213,-280.5 213,-299.5 268,-299.5 268,-280.5 213,-280.5"/>
<text text-anchor="middle" x="240.5" y="-287.5" font-family="Helvetica,sans-Serif" font-size="10.00">body.cpp</text>
</a>
</g>
</g>
<!-- Node12&#45;&gt;Node13 -->
<g id="edge16" class="edge">
<title>Node12&#45;&gt;Node13</title>
<path fill="none" stroke="midnightblue" d="M236.6,-326.1C237.6,-317.14 238.74,-306.86 239.53,-299.75"/>
<polygon fill="midnightblue" stroke="midnightblue" points="233.12,-325.76 235.49,-336.08 240.07,-326.53 233.12,-325.76"/>
</g>
<!-- Node14 -->
<g id="node14" class="node">
<title>Node14</title>
<g id="a_node14"><a xlink:href="../../d9/d4e/plan_8h.html" target="_top" xlink:title=" ">
<polygon fill="white" stroke="black" points="299.5,-280.5 299.5,-299.5 341.5,-299.5 341.5,-280.5 299.5,-280.5"/>
<text text-anchor="middle" x="320.5" y="-287.5" font-family="Helvetica,sans-Serif" font-size="10.00">plan.h</text>
</a>
</g>
</g>
<!-- Node12&#45;&gt;Node14 -->
<g id="edge17" class="edge">
<title>Node12&#45;&gt;Node14</title>
<path fill="none" stroke="midnightblue" d="M256.95,-330.9C272.72,-321 293.31,-308.07 306.72,-299.65"/>
<polygon fill="midnightblue" stroke="midnightblue" points="254.93,-328.04 248.32,-336.32 258.65,-333.97 254.93,-328.04"/>
</g>
<!-- Node14&#45;&gt;Node8 -->
<g id="edge21" class="edge">
<title>Node14&#45;&gt;Node8</title>
<path fill="none" stroke="midnightblue" d="M350.97,-277.06C365.43,-269.75 381.48,-258.9 390.5,-244 408.03,-215.04 403.99,-200.77 395.5,-168 391.96,-154.33 383.27,-140.39 377.13,-131.73"/>
<polygon fill="midnightblue" stroke="midnightblue" points="349.36,-273.95 341.78,-281.35 352.32,-280.29 349.36,-273.95"/>
</g>
<!-- Node14&#45;&gt;Node10 -->
<g id="edge22" class="edge">
<title>Node14&#45;&gt;Node10</title>
<path fill="none" stroke="midnightblue" d="M289.58,-280.57C252.61,-270.48 191.1,-253.71 153.91,-243.57"/>
<polygon fill="midnightblue" stroke="midnightblue" points="288.74,-283.97 299.31,-283.22 290.58,-277.21 288.74,-283.97"/>
</g>
<!-- Node15 -->
<g id="node15" class="node">
<title>Node15</title>
<g id="a_node15"><a xlink:href="../../de/d3c/instantiated__plan_8h.html" target="_top" xlink:title=" ">
<polygon fill="white" stroke="black" points="283.5,-224.5 283.5,-243.5 381.5,-243.5 381.5,-224.5 283.5,-224.5"/>
<text text-anchor="middle" x="332.5" y="-231.5" font-family="Helvetica,sans-Serif" font-size="10.00">instantiated_plan.h</text>
</a>
</g>
</g>
<!-- Node14&#45;&gt;Node15 -->
<g id="edge18" class="edge">
<title>Node14&#45;&gt;Node15</title>
<path fill="none" stroke="midnightblue" d="M324.7,-270.1C326.69,-261.14 328.98,-250.86 330.56,-243.75"/>
<polygon fill="midnightblue" stroke="midnightblue" points="321.23,-269.56 322.48,-280.08 328.07,-271.08 321.23,-269.56"/>
</g>
<!-- Node17 -->
<g id="node17" class="node">
<title>Node17</title>
<g id="a_node17"><a xlink:href="../../d7/df1/plan_8cpp.html" target="_top" xlink:title=" ">
<polygon fill="white" stroke="black" points="213,-224.5 213,-243.5 266,-243.5 266,-224.5 213,-224.5"/>
<text text-anchor="middle" x="239.5" y="-231.5" font-family="Helvetica,sans-Serif" font-size="10.00">plan.cpp</text>
</a>
</g>
</g>
<!-- Node14&#45;&gt;Node17 -->
<g id="edge23" class="edge">
<title>Node14&#45;&gt;Node17</title>
<path fill="none" stroke="midnightblue" d="M298.93,-274.62C284.14,-264.76 264.99,-251.99 252.48,-243.65"/>
<polygon fill="midnightblue" stroke="midnightblue" points="297.22,-277.69 307.49,-280.32 301.11,-271.86 297.22,-277.69"/>
</g>
<!-- Node15&#45;&gt;Node6 -->
<g id="edge20" class="edge">
<title>Node15&#45;&gt;Node6</title>
<path fill="none" stroke="midnightblue" d="M306.92,-219.59C287.88,-209.61 262.44,-196.27 246.01,-187.65"/>
<polygon fill="midnightblue" stroke="midnightblue" points="305.47,-222.78 315.95,-224.32 308.72,-216.58 305.47,-222.78"/>
</g>
<!-- Node16 -->
<g id="node16" class="node">
<title>Node16</title>
<g id="a_node16"><a xlink:href="../../df/dbd/instantiated__plan_8cpp.html" target="_top" xlink:title=" ">
<polygon fill="white" stroke="black" points="278.5,-168.5 278.5,-187.5 386.5,-187.5 386.5,-168.5 278.5,-168.5"/>
<text text-anchor="middle" x="332.5" y="-175.5" font-family="Helvetica,sans-Serif" font-size="10.00">instantiated_plan.cpp</text>
</a>
</g>
</g>
<!-- Node15&#45;&gt;Node16 -->
<g id="edge19" class="edge">
<title>Node15&#45;&gt;Node16</title>
<path fill="none" stroke="midnightblue" d="M332.5,-213.8C332.5,-204.91 332.5,-194.78 332.5,-187.75"/>
<polygon fill="midnightblue" stroke="midnightblue" points="329,-214.08 332.5,-224.08 336,-214.08 329,-214.08"/>
</g>
<!-- Node18&#45;&gt;Node12 -->
<g id="edge25" class="edge">
<title>Node18&#45;&gt;Node12</title>
<path fill="none" stroke="midnightblue" d="M289.92,-386.38C276.19,-376.62 258.57,-364.11 246.93,-355.83"/>
<polygon fill="midnightblue" stroke="midnightblue" points="288.11,-389.38 298.29,-392.32 292.16,-383.68 288.11,-389.38"/>
</g>
<!-- Node19 -->
<g id="node19" class="node">
<title>Node19</title>
<g id="a_node19"><a xlink:href="../../d4/d8b/body__instruction_8cpp.html" target="_top" xlink:title=" ">
<polygon fill="white" stroke="black" points="275,-336.5 275,-355.5 380,-355.5 380,-336.5 275,-336.5"/>
<text text-anchor="middle" x="327.5" y="-343.5" font-family="Helvetica,sans-Serif" font-size="10.00">body_instruction.cpp</text>
</a>
</g>
</g>
<!-- Node18&#45;&gt;Node19 -->
<g id="edge26" class="edge">
<title>Node18&#45;&gt;Node19</title>
<path fill="none" stroke="midnightblue" d="M316.36,-382.4C319.2,-373.36 322.48,-362.94 324.75,-355.75"/>
<polygon fill="midnightblue" stroke="midnightblue" points="312.97,-381.49 313.31,-392.08 319.65,-383.6 312.97,-381.49"/>
</g>
<!-- Node20&#45;&gt;Node14 -->
<g id="edge29" class="edge">
<title>Node20&#45;&gt;Node14</title>
<path fill="none" stroke="midnightblue" d="M406.19,-382.27C403.71,-368.38 398.66,-349.58 388.5,-336 376.12,-319.45 355.74,-307.14 340.52,-299.62"/>
<polygon fill="midnightblue" stroke="midnightblue" points="402.73,-382.79 407.68,-392.16 409.66,-381.75 402.73,-382.79"/>
</g>
<!-- Node21 -->
<g id="node21" class="node">
<title>Node21</title>
<g id="a_node21"><a xlink:href="../../db/d12/context_8cpp.html" target="_top" xlink:title=" ">
<polygon fill="white" stroke="black" points="436.5,-336.5 436.5,-355.5 502.5,-355.5 502.5,-336.5 436.5,-336.5"/>
<text text-anchor="middle" x="469.5" y="-343.5" font-family="Helvetica,sans-Serif" font-size="10.00">context.cpp</text>
</a>
</g>
</g>
<!-- Node20&#45;&gt;Node21 -->
<g id="edge28" class="edge">
<title>Node20&#45;&gt;Node21</title>
<path fill="none" stroke="midnightblue" d="M425.97,-385.54C436.84,-375.91 450.44,-363.87 459.52,-355.83"/>
<polygon fill="midnightblue" stroke="midnightblue" points="423.47,-383.07 418.3,-392.32 428.11,-388.32 423.47,-383.07"/>
</g>
</g>
</svg>
        <g id="navigator" transform="translate(0 0)" fill="#404254">
                <rect fill="#f2f5e9" fill-opacity="0.5" stroke="#606060" stroke-width=".5" x="0" y="0" width="60" height="60"/>
                <use id="zoomplus" xlink:href="#zoomPlus" x="17" y="9" onmousedown="handleZoom(evt,'in')"/>
                <use id="zoomminus" xlink:href="#zoomMin" x="42" y="9" onmousedown="handleZoom(evt,'out')"/>
                <use id="reset" xlink:href="#resetDef" x="30" y="36" onmousedown="handleReset()"/>
                <g id="arrowUp" xlink:href="#dirArrow" transform="translate(30 24)" onmousedown="handlePan(0,-1)">
                  <use xlink:href="#rim" fill="#404040">
                        <set attributeName="fill" to="#808080" begin="arrowUp.mouseover" end="arrowUp.mouseout"/>
                  </use>
                  <path fill="none" stroke="white" stroke-width="1.5" d="M0,-3.0v7 M-2.5,-0.5L0,-3.0L2.5,-0.5"/>
                </g>
                <g id="arrowRight" xlink:href="#dirArrow" transform="rotate(90) translate(36 -43)" onmousedown="handlePan(1,0)">
                  <use xlink:href="#rim" fill="#404040">
                        <set attributeName="fill" to="#808080" begin="arrowRight.mouseover" end="arrowRight.mouseout"/>
                  </use>
                  <path fill="none" stroke="white" stroke-width="1.5" d="M0,-3.0v7 M-2.5,-0.5L0,-3.0L2.5,-0.5"/>
                </g>
                <g id="arrowDown" xlink:href="#dirArrow" transform="rotate(180) translate(-30 -48)" onmousedown="handlePan(0,1)">
                  <use xlink:href="#rim" fill="#404040">
                        <set attributeName="fill" to="#808080" begin="arrowDown.mouseover" end="arrowDown.mouseout"/>
                  </use>
                  <path fill="none" stroke="white" stroke-width="1.5" d="M0,-3.0v7 M-2.5,-0.5L0,-3.0L2.5,-0.5"/>
                </g>
                <g id="arrowLeft" xlink:href="#dirArrow" transform="rotate(270) translate(-36 17)" onmousedown="handlePan(-1,0)">
                  <use xlink:href="#rim" fill="#404040">
                        <set attributeName="fill" to="#808080" begin="arrowLeft.mouseover" end="arrowLeft.mouseout"/>
                  </use>
                  <path fill="none" stroke="white" stroke-width="1.5" d="M0,-3.0v7 M-2.5,-0.5L0,-3.0L2.5,-0.5"/>
                </g>
        </g>
        <svg viewBox="0 0 15 15" width="100%" height="30px" preserveAspectRatio="xMaxYMin meet">
         <g id="arrow_out" transform="scale(0.3 0.3)">
          <a xlink:href="belief__base_8h__dep__incl_org.svg" target="_base">
           <rect id="button" ry="5" rx="5" y="6" x="6" height="38" width="38"
                fill="#f2f5e9" fill-opacity="0.5" stroke="#606060" stroke-width="1.0"/>
           <path id="arrow"
             d="M 11.500037,31.436501 C 11.940474,20.09759 22.043105,11.32322 32.158766,21.979434 L 37.068811,17.246167 C 37.068811,17.246167 37.088388,32 37.088388,32 L 22.160133,31.978069 C 22.160133,31.978069 26.997745,27.140456 26.997745,27.140456 C 18.528582,18.264221 13.291696,25.230495 11.500037,31.436501 z"
             style="fill:#404040;"/>
          </a>
         </g>
        </svg>
</svg>
