<?xml version="1.0" encoding="UTF-8" standalone="no"?>
<!DOCTYPE svg PUBLIC "-//W3C//DTD SVG 1.1//EN"
 "http://www.w3.org/Graphics/SVG/1.1/DTD/svg11.dtd">
<!-- Generated by graphviz version 5.0.0 (20220708.1001)
 -->
<!-- Title: belief_base.h Pages: 1 -->
<!--zoomable 476 -->
<svg id="main" version="1.1" xmlns="http://www.w3.org/2000/svg" xmlns:xlink="http://www.w3.org/1999/xlink" xml:space="preserve" onload="init(evt)">
<style type="text/css"><![CDATA[
.edge:hover path { stroke: red; }
.edge:hover polygon { stroke: red; fill: red; }
]]></style>
<script type="text/javascript"><![CDATA[
var edges = document.getElementsByTagName('g');
if (edges && edges.length) {
  for (var i=0;i<edges.length;i++) {
    if (edges[i].id.substr(0,4)=='edge') {
      edges[i].setAttribute('class','edge');
    }
  }
}
]]></script>
        <defs>
                <circle id="rim" cx="0" cy="0" r="7"/>
                <circle id="rim2" cx="0" cy="0" r="3.5"/>
                <g id="zoomPlus">
                        <use xlink:href="#rim" fill="#404040">
                                <set attributeName="fill" to="#808080" begin="zoomplus.mouseover" end="zoomplus.mouseout"/>
                        </use>
                        <path d="M-4,0h8M0,-4v8" fill="none" stroke="white" stroke-width="1.5" pointer-events="none"/>
                </g>
                <g id="zoomMin">
                        <use xlink:href="#rim" fill="#404040">
                                <set attributeName="fill" to="#808080" begin="zoomminus.mouseover" end="zoomminus.mouseout"/>
                        </use>
                        <path d="M-4,0h8" fill="none" stroke="white" stroke-width="1.5" pointer-events="none"/>
                </g>
                <g id="dirArrow">
                        <path fill="none" stroke="white" stroke-width="1.5" d="M0,-3.0v7 M-2.5,-0.5L0,-3.0L2.5,-0.5"/>
                </g>
               <g id="resetDef">
                       <use xlink:href="#rim2" fill="#404040">
                               <set attributeName="fill" to="#808080" begin="reset.mouseover" end="reset.mouseout"/>
                       </use>
               </g>
        </defs>

<script type="text/javascript">
var viewWidth = 533;
var viewHeight = 476;
var sectionId = 'dynsection-1';
</script>
<script xlink:href="../../svgpan.js"/>
<svg id="graph" class="graph">
<g id="viewport">
<title>belief_base.h</title>
<polygon fill="white" stroke="transparent" points="-4,4 -4,-472 528.67,-472 528.67,4 -4,4"/>
<!-- Node1 -->
<g id="node1" class="node">
<title>Node1</title>
<g id="a_node1"><a xlink:title=" ">
<polygon fill="#bfbfbf" stroke="black" points="160.67,-448.5 160.67,-467.5 234.67,-467.5 234.67,-448.5 160.67,-448.5"/>
<text text-anchor="middle" x="197.67" y="-455.5" font-family="Helvetica,sans-Serif" font-size="10.00">belief_base.h</text>
</a>
</g>
</g>
<!-- Node2 -->
<g id="node2" class="node">
<title>Node2</title>
<g id="a_node2"><a xlink:href="../../de/d9e/agent_8h.html" target="_top" xlink:title=" ">
<polygon fill="white" stroke="black" points="121.67,-56.5 121.67,-75.5 169.67,-75.5 169.67,-56.5 121.67,-56.5"/>
<text text-anchor="middle" x="145.67" y="-63.5" font-family="Helvetica,sans-Serif" font-size="10.00">agent.h</text>
</a>
</g>
</g>
<!-- Node1&#45;&gt;Node2 -->
<g id="edge1" class="edge">
<title>Node1&#45;&gt;Node2</title>
<path fill="none" stroke="midnightblue" d="M150.51,-457.39C110.6,-455.16 54.5,-445.58 19.67,-412 -2,-391.11 0.67,-377.1 0.67,-347 0.67,-347 0.67,-347 0.67,-177 0.67,-117.12 80.12,-85.62 121.4,-73.29"/>
<polygon fill="midnightblue" stroke="midnightblue" points="150.4,-460.89 160.54,-457.82 150.7,-453.9 150.4,-460.89"/>
</g>
<!-- Node5 -->
<g id="node5" class="node">
<title>Node5</title>
<g id="a_node5"><a xlink:href="../../de/d9b/belief__base_8cpp.html" target="_top" xlink:title=" ">
<polygon fill="white" stroke="black" points="28.67,-392.5 28.67,-411.5 112.67,-411.5 112.67,-392.5 28.67,-392.5"/>
<text text-anchor="middle" x="70.67" y="-399.5" font-family="Helvetica,sans-Serif" font-size="10.00">belief_base.cpp</text>
</a>
</g>
</g>
<!-- Node1&#45;&gt;Node5 -->
<g id="edge4" class="edge">
<title>Node1&#45;&gt;Node5</title>
<path fill="none" stroke="midnightblue" d="M168.28,-444.5C144.47,-434.38 111.56,-420.39 90.7,-411.52"/>
<polygon fill="midnightblue" stroke="midnightblue" points="166.97,-447.75 177.54,-448.44 169.71,-441.31 166.97,-447.75"/>
</g>
<!-- Node6 -->
<g id="node6" class="node">
<title>Node6</title>
<g id="a_node6"><a xlink:href="../../d0/d77/body_8h.html" target="_top" xlink:title=" ">
<polygon fill="white" stroke="black" points="206.67,-336.5 206.67,-355.5 250.67,-355.5 250.67,-336.5 206.67,-336.5"/>
<text text-anchor="middle" x="228.67" y="-343.5" font-family="Helvetica,sans-Serif" font-size="10.00">body.h</text>
</a>
</g>
</g>
<!-- Node1&#45;&gt;Node6 -->
<g id="edge5" class="edge">
<title>Node1&#45;&gt;Node6</title>
<path fill="none" stroke="midnightblue" d="M202.83,-438.67C209.61,-414.62 221.23,-373.39 226.25,-355.59"/>
<polygon fill="midnightblue" stroke="midnightblue" points="199.44,-437.79 200.1,-448.37 206.18,-439.69 199.44,-437.79"/>
</g>
<!-- Node11 -->
<g id="node11" class="node">
<title>Node11</title>
<g id="a_node11"><a xlink:href="../../df/d3f/intention_8h.html" target="_top" xlink:title=" ">
<polygon fill="white" stroke="black" points="183.17,-168.5 183.17,-187.5 244.17,-187.5 244.17,-168.5 183.17,-168.5"/>
<text text-anchor="middle" x="213.67" y="-175.5" font-family="Helvetica,sans-Serif" font-size="10.00">intention.h</text>
</a>
</g>
</g>
<!-- Node1&#45;&gt;Node11 -->
<g id="edge27" class="edge">
<title>Node1&#45;&gt;Node11</title>
<path fill="none" stroke="midnightblue" d="M192.45,-438.39C186.83,-416.65 178.67,-379.51 178.67,-347 178.67,-347 178.67,-347 178.67,-289 178.67,-249.52 199.39,-205.66 208.95,-187.54"/>
<polygon fill="midnightblue" stroke="midnightblue" points="189.13,-439.5 195.11,-448.25 195.89,-437.68 189.13,-439.5"/>
</g>
<!-- Node13 -->
<g id="node13" class="node">
<title>Node13</title>
<g id="a_node13"><a xlink:href="../../d8/d83/intention__base_8h.html" target="_top" xlink:title=" ">
<polygon fill="white" stroke="black" points="313.17,-112.5 313.17,-131.5 400.17,-131.5 400.17,-112.5 313.17,-112.5"/>
<text text-anchor="middle" x="356.67" y="-119.5" font-family="Helvetica,sans-Serif" font-size="10.00">intention_base.h</text>
</a>
</g>
</g>
<!-- Node1&#45;&gt;Node13 -->
<g id="edge28" class="edge">
<title>Node1&#45;&gt;Node13</title>
<path fill="none" stroke="midnightblue" d="M245.16,-454.7C295.4,-450.79 376.05,-440.28 439.67,-412 483.12,-392.68 524.67,-394.56 524.67,-347 524.67,-347 524.67,-347 524.67,-233 524.67,-173.39 449.71,-144.33 399.93,-131.61"/>
<polygon fill="midnightblue" stroke="midnightblue" points="244.64,-451.22 234.91,-455.43 245.14,-458.21 244.64,-451.22"/>
</g>
<!-- Node16 -->
<g id="node16" class="node">
<title>Node16</title>
<g id="a_node16"><a xlink:href="../../de/d75/plan__base_8h.html" target="_top" xlink:title=" ">
<polygon fill="white" stroke="black" points="82.67,-224.5 82.67,-243.5 150.67,-243.5 150.67,-224.5 82.67,-224.5"/>
<text text-anchor="middle" x="116.67" y="-231.5" font-family="Helvetica,sans-Serif" font-size="10.00">plan_base.h</text>
</a>
</g>
</g>
<!-- Node1&#45;&gt;Node16 -->
<g id="edge29" class="edge">
<title>Node1&#45;&gt;Node16</title>
<path fill="none" stroke="midnightblue" d="M183.23,-440.44C176.78,-432.32 169.54,-422.13 164.67,-412 135.52,-351.47 121.81,-270.48 117.89,-243.87"/>
<polygon fill="midnightblue" stroke="midnightblue" points="180.7,-442.87 189.78,-448.33 186.09,-438.4 180.7,-442.87"/>
</g>
<!-- Node18 -->
<g id="node18" class="node">
<title>Node18</title>
<g id="a_node18"><a xlink:href="../../d8/d67/body__instruction_8h.html" target="_top" xlink:title=" ">
<polygon fill="white" stroke="black" points="245.17,-392.5 245.17,-411.5 340.17,-411.5 340.17,-392.5 245.17,-392.5"/>
<text text-anchor="middle" x="292.67" y="-399.5" font-family="Helvetica,sans-Serif" font-size="10.00">body_instruction.h</text>
</a>
</g>
</g>
<!-- Node1&#45;&gt;Node18 -->
<g id="edge21" class="edge">
<title>Node1&#45;&gt;Node18</title>
<path fill="none" stroke="midnightblue" d="M221.99,-443.18C239.47,-433.24 262.5,-420.15 277.44,-411.65"/>
<polygon fill="midnightblue" stroke="midnightblue" points="219.89,-440.34 212.93,-448.32 223.35,-446.43 219.89,-440.34"/>
</g>
<!-- Node20 -->
<g id="node20" class="node">
<title>Node20</title>
<g id="a_node20"><a xlink:href="../../dc/d1e/context_8h.html" target="_top" xlink:title=" ">
<polygon fill="white" stroke="black" points="374.67,-392.5 374.67,-411.5 430.67,-411.5 430.67,-392.5 374.67,-392.5"/>
<text text-anchor="middle" x="402.67" y="-399.5" font-family="Helvetica,sans-Serif" font-size="10.00">context.h</text>
</a>
</g>
</g>
<!-- Node1&#45;&gt;Node20 -->
<g id="edge24" class="edge">
<title>Node1&#45;&gt;Node20</title>
<path fill="none" stroke="midnightblue" d="M239.96,-445.86C280.28,-435.24 339.85,-419.55 374.62,-410.39"/>
<polygon fill="midnightblue" stroke="midnightblue" points="238.93,-442.51 230.15,-448.44 240.71,-449.28 238.93,-442.51"/>
</g>
<!-- Node3 -->
<g id="node3" class="node">
<title>Node3</title>
<g id="a_node3"><a xlink:href="../../dd/d3d/agent_8cpp.html" target="_top" xlink:title=" ">
<polygon fill="white" stroke="black" points="72.17,-0.5 72.17,-19.5 131.17,-19.5 131.17,-0.5 72.17,-0.5"/>
<text text-anchor="middle" x="101.67" y="-7.5" font-family="Helvetica,sans-Serif" font-size="10.00">agent.cpp</text>
</a>
</g>
</g>
<!-- Node2&#45;&gt;Node3 -->
<g id="edge2" class="edge">
<title>Node2&#45;&gt;Node3</title>
<path fill="none" stroke="midnightblue" d="M131.93,-48.14C124.27,-38.74 115.03,-27.4 108.8,-19.75"/>
<polygon fill="midnightblue" stroke="midnightblue" points="129.37,-50.54 138.4,-56.08 134.8,-46.12 129.37,-50.54"/>
</g>
<!-- Node4 -->
<g id="node4" class="node">
<title>Node4</title>
<g id="a_node4"><a xlink:href="../../d4/d91/agent__loop_8cpp.html" target="_top" xlink:title=" ">
<polygon fill="white" stroke="black" points="149.67,-0.5 149.67,-19.5 231.67,-19.5 231.67,-0.5 149.67,-0.5"/>
<text text-anchor="middle" x="190.67" y="-7.5" font-family="Helvetica,sans-Serif" font-size="10.00">agent_loop.cpp</text>
</a>
</g>
</g>
<!-- Node2&#45;&gt;Node4 -->
<g id="edge3" class="edge">
<title>Node2&#45;&gt;Node4</title>
<path fill="none" stroke="midnightblue" d="M159.71,-48.14C167.55,-38.74 177,-27.4 183.37,-19.75"/>
<polygon fill="midnightblue" stroke="midnightblue" points="156.81,-46.16 153.1,-56.08 162.19,-50.64 156.81,-46.16"/>
</g>
<!-- Node7 -->
<g id="node7" class="node">
<title>Node7</title>
<g id="a_node7"><a xlink:href="../../d1/d5f/body_8cpp.html" target="_top" xlink:title=" ">
<polygon fill="white" stroke="black" points="207.17,-280.5 207.17,-299.5 262.17,-299.5 262.17,-280.5 207.17,-280.5"/>
<text text-anchor="middle" x="234.67" y="-287.5" font-family="Helvetica,sans-Serif" font-size="10.00">body.cpp</text>
</a>
</g>
</g>
<!-- Node6&#45;&gt;Node7 -->
<g id="edge6" class="edge">
<title>Node6&#45;&gt;Node7</title>
<path fill="none" stroke="midnightblue" d="M230.77,-326.1C231.76,-317.14 232.91,-306.86 233.7,-299.75"/>
<polygon fill="midnightblue" stroke="midnightblue" points="227.28,-325.76 229.66,-336.08 234.24,-326.53 227.28,-325.76"/>
</g>
<!-- Node8 -->
<g id="node8" class="node">
<title>Node8</title>
<g id="a_node8"><a xlink:href="../../d9/d4e/plan_8h.html" target="_top" xlink:title=" ">
<polygon fill="white" stroke="black" points="293.67,-280.5 293.67,-299.5 335.67,-299.5 335.67,-280.5 293.67,-280.5"/>
<text text-anchor="middle" x="314.67" y="-287.5" font-family="Helvetica,sans-Serif" font-size="10.00">plan.h</text>
</a>
</g>
</g>
<!-- Node6&#45;&gt;Node8 -->
<g id="edge7" class="edge">
<title>Node6&#45;&gt;Node8</title>
<path fill="none" stroke="midnightblue" d="M251.12,-330.9C266.89,-321 287.48,-308.07 300.88,-299.65"/>
<polygon fill="midnightblue" stroke="midnightblue" points="249.09,-328.04 242.48,-336.32 252.81,-333.97 249.09,-328.04"/>
</g>
<!-- Node9 -->
<g id="node9" class="node">
<title>Node9</title>
<g id="a_node9"><a xlink:href="../../de/d3c/instantiated__plan_8h.html" target="_top" xlink:title=" ">
<polygon fill="white" stroke="black" points="277.67,-224.5 277.67,-243.5 375.67,-243.5 375.67,-224.5 277.67,-224.5"/>
<text text-anchor="middle" x="326.67" y="-231.5" font-family="Helvetica,sans-Serif" font-size="10.00">instantiated_plan.h</text>
</a>
</g>
</g>
<!-- Node8&#45;&gt;Node9 -->
<g id="edge8" class="edge">
<title>Node8&#45;&gt;Node9</title>
<path fill="none" stroke="midnightblue" d="M318.87,-270.1C320.86,-261.14 323.14,-250.86 324.72,-243.75"/>
<polygon fill="midnightblue" stroke="midnightblue" points="315.4,-269.56 316.65,-280.08 322.24,-271.08 315.4,-269.56"/>
</g>
<!-- Node8&#45;&gt;Node13 -->
<g id="edge15" class="edge">
<title>Node8&#45;&gt;Node13</title>
<path fill="none" stroke="midnightblue" d="M345.1,-277.68C359.87,-270.46 376.21,-259.5 384.67,-244 400.85,-214.35 393.95,-200.48 384.67,-168 380.67,-154.02 370.94,-140.16 364.08,-131.59"/>
<polygon fill="midnightblue" stroke="midnightblue" points="343.41,-274.6 335.73,-281.89 346.28,-280.98 343.41,-274.6"/>
</g>
<!-- Node15 -->
<g id="node15" class="node">
<title>Node15</title>
<g id="a_node15"><a xlink:href="../../d7/df1/plan_8cpp.html" target="_top" xlink:title=" ">
<polygon fill="white" stroke="black" points="207.17,-224.5 207.17,-243.5 260.17,-243.5 260.17,-224.5 207.17,-224.5"/>
<text text-anchor="middle" x="233.67" y="-231.5" font-family="Helvetica,sans-Serif" font-size="10.00">plan.cpp</text>
</a>
</g>
</g>
<!-- Node8&#45;&gt;Node15 -->
<g id="edge16" class="edge">
<title>Node8&#45;&gt;Node15</title>
<path fill="none" stroke="midnightblue" d="M293.1,-274.62C278.3,-264.76 259.16,-251.99 246.65,-243.65"/>
<polygon fill="midnightblue" stroke="midnightblue" points="291.39,-277.69 301.65,-280.32 295.27,-271.86 291.39,-277.69"/>
</g>
<!-- Node8&#45;&gt;Node16 -->
<g id="edge17" class="edge">
<title>Node8&#45;&gt;Node16</title>
<path fill="none" stroke="midnightblue" d="M283.74,-280.57C246.78,-270.48 185.26,-253.71 148.08,-243.57"/>
<polygon fill="midnightblue" stroke="midnightblue" points="282.91,-283.97 293.48,-283.22 284.75,-277.21 282.91,-283.97"/>
</g>
<!-- Node10 -->
<g id="node10" class="node">
<title>Node10</title>
<g id="a_node10"><a xlink:href="../../df/dbd/instantiated__plan_8cpp.html" target="_top" xlink:title=" ">
<polygon fill="white" stroke="black" points="267.67,-168.5 267.67,-187.5 375.67,-187.5 375.67,-168.5 267.67,-168.5"/>
<text text-anchor="middle" x="321.67" y="-175.5" font-family="Helvetica,sans-Serif" font-size="10.00">instantiated_plan.cpp</text>
</a>
</g>
</g>
<!-- Node9&#45;&gt;Node10 -->
<g id="edge9" class="edge">
<title>Node9&#45;&gt;Node10</title>
<path fill="none" stroke="midnightblue" d="M324.92,-214.1C324.09,-205.14 323.14,-194.86 322.48,-187.75"/>
<polygon fill="midnightblue" stroke="midnightblue" points="321.43,-214.45 325.84,-224.08 328.4,-213.8 321.43,-214.45"/>
</g>
<!-- Node9&#45;&gt;Node11 -->
<g id="edge10" class="edge">
<title>Node9&#45;&gt;Node11</title>
<path fill="none" stroke="midnightblue" d="M299.66,-220.1C278.55,-210.01 249.81,-196.27 231.49,-187.52"/>
<polygon fill="midnightblue" stroke="midnightblue" points="298.23,-223.29 308.76,-224.44 301.25,-216.97 298.23,-223.29"/>
</g>
<!-- Node12 -->
<g id="node12" class="node">
<title>Node12</title>
<g id="a_node12"><a xlink:href="../../d4/db4/intention_8cpp.html" target="_top" xlink:title=" ">
<polygon fill="white" stroke="black" points="178.17,-112.5 178.17,-131.5 249.17,-131.5 249.17,-112.5 178.17,-112.5"/>
<text text-anchor="middle" x="213.67" y="-119.5" font-family="Helvetica,sans-Serif" font-size="10.00">intention.cpp</text>
</a>
</g>
</g>
<!-- Node11&#45;&gt;Node12 -->
<g id="edge11" class="edge">
<title>Node11&#45;&gt;Node12</title>
<path fill="none" stroke="midnightblue" d="M213.67,-157.8C213.67,-148.91 213.67,-138.78 213.67,-131.75"/>
<polygon fill="midnightblue" stroke="midnightblue" points="210.17,-158.08 213.67,-168.08 217.17,-158.08 210.17,-158.08"/>
</g>
<!-- Node11&#45;&gt;Node13 -->
<g id="edge12" class="edge">
<title>Node11&#45;&gt;Node13</title>
<path fill="none" stroke="midnightblue" d="M245.69,-164.91C272.58,-154.75 310.31,-140.51 334.11,-131.52"/>
<polygon fill="midnightblue" stroke="midnightblue" points="244.44,-161.64 236.33,-168.44 246.92,-168.19 244.44,-161.64"/>
</g>
<!-- Node13&#45;&gt;Node2 -->
<g id="edge13" class="edge">
<title>Node13&#45;&gt;Node2</title>
<path fill="none" stroke="midnightblue" d="M313.51,-109.96C270.1,-98.85 204.72,-82.11 169.76,-73.16"/>
<polygon fill="midnightblue" stroke="midnightblue" points="312.68,-113.35 323.23,-112.44 314.41,-106.57 312.68,-113.35"/>
</g>
<!-- Node14 -->
<g id="node14" class="node">
<title>Node14</title>
<g id="a_node14"><a xlink:href="../../d2/dd9/intention__base_8cpp.html" target="_top" xlink:title=" ">
<polygon fill="white" stroke="black" points="307.67,-56.5 307.67,-75.5 405.67,-75.5 405.67,-56.5 307.67,-56.5"/>
<text text-anchor="middle" x="356.67" y="-63.5" font-family="Helvetica,sans-Serif" font-size="10.00">intention_base.cpp</text>
</a>
</g>
</g>
<!-- Node13&#45;&gt;Node14 -->
<g id="edge14" class="edge">
<title>Node13&#45;&gt;Node14</title>
<path fill="none" stroke="midnightblue" d="M356.67,-101.8C356.67,-92.91 356.67,-82.78 356.67,-75.75"/>
<polygon fill="midnightblue" stroke="midnightblue" points="353.17,-102.08 356.67,-112.08 360.17,-102.08 353.17,-102.08"/>
</g>
<!-- Node16&#45;&gt;Node2 -->
<g id="edge18" class="edge">
<title>Node16&#45;&gt;Node2</title>
<path fill="none" stroke="midnightblue" d="M120.51,-214.5C122.16,-206.38 124.07,-196.73 125.67,-188 133.35,-145.9 141.3,-95.32 144.36,-75.53"/>
<polygon fill="midnightblue" stroke="midnightblue" points="117.07,-213.89 118.48,-224.39 123.92,-215.3 117.07,-213.89"/>
</g>
<!-- Node16&#45;&gt;Node11 -->
<g id="edge19" class="edge">
<title>Node16&#45;&gt;Node11</title>
<path fill="none" stroke="midnightblue" d="M141,-219.45C158.91,-209.48 182.72,-196.23 198.12,-187.65"/>
<polygon fill="midnightblue" stroke="midnightblue" points="139.29,-216.4 132.25,-224.32 142.69,-222.52 139.29,-216.4"/>
</g>
<!-- Node17 -->
<g id="node17" class="node">
<title>Node17</title>
<g id="a_node17"><a xlink:href="../../d4/d51/plan__base_8cpp.html" target="_top" xlink:title=" ">
<polygon fill="white" stroke="black" points="38.17,-168.5 38.17,-187.5 117.17,-187.5 117.17,-168.5 38.17,-168.5"/>
<text text-anchor="middle" x="77.67" y="-175.5" font-family="Helvetica,sans-Serif" font-size="10.00">plan_base.cpp</text>
</a>
</g>
</g>
<!-- Node16&#45;&gt;Node17 -->
<g id="edge20" class="edge">
<title>Node16&#45;&gt;Node17</title>
<path fill="none" stroke="midnightblue" d="M104.29,-215.86C97.53,-206.5 89.46,-195.33 83.99,-187.75"/>
<polygon fill="midnightblue" stroke="midnightblue" points="101.54,-218.03 110.23,-224.08 107.21,-213.93 101.54,-218.03"/>
</g>
<!-- Node18&#45;&gt;Node6 -->
<g id="edge22" class="edge">
<title>Node18&#45;&gt;Node6</title>
<path fill="none" stroke="midnightblue" d="M274.68,-385.82C263.21,-376.15 248.75,-363.95 239.14,-355.83"/>
<polygon fill="midnightblue" stroke="midnightblue" points="272.48,-388.55 282.38,-392.32 277,-383.2 272.48,-388.55"/>
</g>
<!-- Node19 -->
<g id="node19" class="node">
<title>Node19</title>
<g id="a_node19"><a xlink:href="../../d4/d8b/body__instruction_8cpp.html" target="_top" xlink:title=" ">
<polygon fill="white" stroke="black" points="269.17,-336.5 269.17,-355.5 374.17,-355.5 374.17,-336.5 269.17,-336.5"/>
<text text-anchor="middle" x="321.67" y="-343.5" font-family="Helvetica,sans-Serif" font-size="10.00">body_instruction.cpp</text>
</a>
</g>
</g>
<!-- Node18&#45;&gt;Node19 -->
<g id="edge23" class="edge">
<title>Node18&#45;&gt;Node19</title>
<path fill="none" stroke="midnightblue" d="M302.34,-382.98C307.27,-373.82 313.03,-363.09 316.97,-355.75"/>
<polygon fill="midnightblue" stroke="midnightblue" points="299.1,-381.62 297.46,-392.08 305.27,-384.93 299.1,-381.62"/>
</g>
<!-- Node20&#45;&gt;Node8 -->
<g id="edge26" class="edge">
<title>Node20&#45;&gt;Node8</title>
<path fill="none" stroke="midnightblue" d="M400.65,-381.84C398.39,-367.99 393.63,-349.42 383.67,-336 371.31,-319.35 350.81,-307.12 335.36,-299.65"/>
<polygon fill="midnightblue" stroke="midnightblue" points="397.23,-382.7 402.02,-392.15 404.17,-381.78 397.23,-382.7"/>
</g>
<!-- Node21 -->
<g id="node21" class="node">
<title>Node21</title>
<g id="a_node21"><a xlink:href="../../db/d12/context_8cpp.html" target="_top" xlink:title=" ">
<polygon fill="white" stroke="black" points="430.67,-336.5 430.67,-355.5 496.67,-355.5 496.67,-336.5 430.67,-336.5"/>
<text text-anchor="middle" x="463.67" y="-343.5" font-family="Helvetica,sans-Serif" font-size="10.00">context.cpp</text>
</a>
</g>
</g>
<!-- Node20&#45;&gt;Node21 -->
<g id="edge25" class="edge">
<title>Node20&#45;&gt;Node21</title>
<path fill="none" stroke="midnightblue" d="M420.13,-385.54C431.01,-375.91 444.61,-363.87 453.69,-355.83"/>
<polygon fill="midnightblue" stroke="midnightblue" points="417.64,-383.07 412.47,-392.32 422.28,-388.32 417.64,-383.07"/>
</g>
</g>
</svg>
        <g id="navigator" transform="translate(0 0)" fill="#404254">
                <rect fill="#f2f5e9" fill-opacity="0.5" stroke="#606060" stroke-width=".5" x="0" y="0" width="60" height="60"/>
                <use id="zoomplus" xlink:href="#zoomPlus" x="17" y="9" onmousedown="handleZoom(evt,'in')"/>
                <use id="zoomminus" xlink:href="#zoomMin" x="42" y="9" onmousedown="handleZoom(evt,'out')"/>
                <use id="reset" xlink:href="#resetDef" x="30" y="36" onmousedown="handleReset()"/>
                <g id="arrowUp" xlink:href="#dirArrow" transform="translate(30 24)" onmousedown="handlePan(0,-1)">
                  <use xlink:href="#rim" fill="#404040">
                        <set attributeName="fill" to="#808080" begin="arrowUp.mouseover" end="arrowUp.mouseout"/>
                  </use>
                  <path fill="none" stroke="white" stroke-width="1.5" d="M0,-3.0v7 M-2.5,-0.5L0,-3.0L2.5,-0.5"/>
                </g>
                <g id="arrowRight" xlink:href="#dirArrow" transform="rotate(90) translate(36 -43)" onmousedown="handlePan(1,0)">
                  <use xlink:href="#rim" fill="#404040">
                        <set attributeName="fill" to="#808080" begin="arrowRight.mouseover" end="arrowRight.mouseout"/>
                  </use>
                  <path fill="none" stroke="white" stroke-width="1.5" d="M0,-3.0v7 M-2.5,-0.5L0,-3.0L2.5,-0.5"/>
                </g>
                <g id="arrowDown" xlink:href="#dirArrow" transform="rotate(180) translate(-30 -48)" onmousedown="handlePan(0,1)">
                  <use xlink:href="#rim" fill="#404040">
                        <set attributeName="fill" to="#808080" begin="arrowDown.mouseover" end="arrowDown.mouseout"/>
                  </use>
                  <path fill="none" stroke="white" stroke-width="1.5" d="M0,-3.0v7 M-2.5,-0.5L0,-3.0L2.5,-0.5"/>
                </g>
                <g id="arrowLeft" xlink:href="#dirArrow" transform="rotate(270) translate(-36 17)" onmousedown="handlePan(-1,0)">
                  <use xlink:href="#rim" fill="#404040">
                        <set attributeName="fill" to="#808080" begin="arrowLeft.mouseover" end="arrowLeft.mouseout"/>
                  </use>
                  <path fill="none" stroke="white" stroke-width="1.5" d="M0,-3.0v7 M-2.5,-0.5L0,-3.0L2.5,-0.5"/>
                </g>
        </g>
        <svg viewBox="0 0 15 15" width="100%" height="30px" preserveAspectRatio="xMaxYMin meet">
         <g id="arrow_out" transform="scale(0.3 0.3)">
          <a xlink:href="belief__base_8h__dep__incl_org.svg" target="_base">
           <rect id="button" ry="5" rx="5" y="6" x="6" height="38" width="38"
                fill="#f2f5e9" fill-opacity="0.5" stroke="#606060" stroke-width="1.0"/>
           <path id="arrow"
             d="M 11.500037,31.436501 C 11.940474,20.09759 22.043105,11.32322 32.158766,21.979434 L 37.068811,17.246167 C 37.068811,17.246167 37.088388,32 37.088388,32 L 22.160133,31.978069 C 22.160133,31.978069 26.997745,27.140456 26.997745,27.140456 C 18.528582,18.264221 13.291696,25.230495 11.500037,31.436501 z"
             style="fill:#404040;"/>
          </a>
         </g>
        </svg>
</svg>
