<?xml version="1.0" encoding="UTF-8" standalone="no"?>
<!DOCTYPE svg PUBLIC "-//W3C//DTD SVG 1.1//EN"
 "http://www.w3.org/Graphics/SVG/1.1/DTD/svg11.dtd">
<!-- Generated by graphviz version 2.48.0 (20210719.0153)
 -->
<!-- Title: lib Pages: 1 -->
<svg width="166pt" height="292pt"
 viewBox="0.00 0.00 166.00 292.00" xmlns="http://www.w3.org/2000/svg" xmlns:xlink="http://www.w3.org/1999/xlink">
<g id="graph0" class="graph" transform="scale(1 1) rotate(0) translate(4 288)">
<title>lib</title>
<polygon fill="white" stroke="transparent" points="-4,4 -4,-288 162,-288 162,4 -4,4"/>
<g id="clust1" class="cluster">
<title>clusterdir_97aefd0d527b934f1d99a682da8fe6a9</title>
<g id="a_clust1"><a xlink:href="dir_97aefd0d527b934f1d99a682da8fe6a9.html" target="_top">
<polygon fill="#eeeeff" stroke="black" points="8,-8 8,-276 150,-276 150,-8 8,-8"/>
</a>
</g>
</g>
<!-- dir_97aefd0d527b934f1d99a682da8fe6a9 -->
<g id="node1" class="node">
<title>dir_97aefd0d527b934f1d99a682da8fe6a9</title>
<text text-anchor="middle" x="115" y="-247.5" font-family="Helvetica,sans-Serif" font-size="10.00">lib</text>
</g>
<!-- dir_abfde87a261fb3598be4c71b510b585c -->
<g id="node2" class="node">
<title>dir_abfde87a261fb3598be4c71b510b585c</title>
<g id="a_node2"><a xlink:href="dir_abfde87a261fb3598be4c71b510b585c.html" target="_top" xlink:title="agent">
<polygon fill="white" stroke="black" points="70,-268 16,-268 16,-232 70,-232 70,-268"/>
<text text-anchor="middle" x="43" y="-247.5" font-family="Helvetica,sans-Serif" font-size="10.00">agent</text>
</a>
</g>
</g>
<!-- dir_41e793685514546dced968c1281957fa -->
<g id="node3" class="node">
<title>dir_41e793685514546dced968c1281957fa</title>
<g id="a_node3"><a xlink:href="dir_41e793685514546dced968c1281957fa.html" target="_top" xlink:title="bdi">
<polygon fill="white" stroke="black" points="80,-196 26,-196 26,-160 80,-160 80,-196"/>
<text text-anchor="middle" x="53" y="-175.5" font-family="Helvetica,sans-Serif" font-size="10.00">bdi</text>
</a>
</g>
</g>
<!-- dir_abfde87a261fb3598be4c71b510b585c&#45;&gt;dir_41e793685514546dced968c1281957fa -->
<g id="edge3" class="edge">
<title>dir_abfde87a261fb3598be4c71b510b585c&#45;&gt;dir_41e793685514546dced968c1281957fa</title>
<path fill="none" stroke="black" d="M45.47,-231.7C46.57,-223.98 47.9,-214.71 49.13,-206.11"/>
<polygon fill="black" stroke="black" points="52.61,-206.5 50.56,-196.1 45.68,-205.51 52.61,-206.5"/>
<g id="a_edge3&#45;headlabel"><a xlink:href="dir_000001_000003.html" target="_top" xlink:title="4">
<text text-anchor="middle" x="54.91" y="-207.96" font-family="Helvetica,sans-Serif" font-size="10.00">4</text>
</a>
</g>
</g>
<!-- dir_50f304ad28d896dc96a9607121c95770 -->
<g id="node4" class="node">
<title>dir_50f304ad28d896dc96a9607121c95770</title>
<g id="a_node4"><a xlink:href="dir_50f304ad28d896dc96a9607121c95770.html" target="_top" xlink:title="lib">
<polygon fill="white" stroke="black" points="80,-52 26,-52 26,-16 80,-16 80,-52"/>
<text text-anchor="middle" x="53" y="-31.5" font-family="Helvetica,sans-Serif" font-size="10.00">lib</text>
</a>
</g>
</g>
<!-- dir_41e793685514546dced968c1281957fa&#45;&gt;dir_50f304ad28d896dc96a9607121c95770 -->
<g id="edge4" class="edge">
<title>dir_41e793685514546dced968c1281957fa&#45;&gt;dir_50f304ad28d896dc96a9607121c95770</title>
<path fill="none" stroke="black" d="M41.95,-159.61C36.26,-149.62 29.92,-136.58 27,-124 23.38,-108.41 23.38,-103.59 27,-88 29.1,-78.96 32.97,-69.68 37.09,-61.47"/>
<polygon fill="black" stroke="black" points="40.31,-62.86 41.95,-52.39 34.14,-59.55 40.31,-62.86"/>
<g id="a_edge4&#45;headlabel"><a xlink:href="dir_000003_000005.html" target="_top" xlink:title="6">
<text text-anchor="middle" x="41.12" y="-64.87" font-family="Helvetica,sans-Serif" font-size="10.00">6</text>
</a>
</g>
</g>
<!-- dir_ff0793f814ca4a2bd64160b010297166 -->
<g id="node5" class="node">
<title>dir_ff0793f814ca4a2bd64160b010297166</title>
<g id="a_node5"><a xlink:href="dir_ff0793f814ca4a2bd64160b010297166.html" target="_top" xlink:title="syntax">
<polygon fill="white" stroke="black" points="90,-124 36,-124 36,-88 90,-88 90,-124"/>
<text text-anchor="middle" x="63" y="-103.5" font-family="Helvetica,sans-Serif" font-size="10.00">syntax</text>
</a>
</g>
</g>
<!-- dir_41e793685514546dced968c1281957fa&#45;&gt;dir_ff0793f814ca4a2bd64160b010297166 -->
<g id="edge5" class="edge">
<title>dir_41e793685514546dced968c1281957fa&#45;&gt;dir_ff0793f814ca4a2bd64160b010297166</title>
<path fill="none" stroke="black" d="M49.56,-159.7C49.86,-151.98 50.96,-142.71 52.53,-134.11"/>
<polygon fill="black" stroke="black" points="56,-134.61 54.66,-124.1 49.16,-133.16 56,-134.61"/>
<g id="a_edge5&#45;headlabel"><a xlink:href="dir_000003_000004.html" target="_top" xlink:title="6">
<text text-anchor="middle" x="58.03" y="-136.22" font-family="Helvetica,sans-Serif" font-size="10.00">6</text>
</a>
</g>
</g>
<!-- dir_ff0793f814ca4a2bd64160b010297166&#45;&gt;dir_41e793685514546dced968c1281957fa -->
<g id="edge1" class="edge">
<title>dir_ff0793f814ca4a2bd64160b010297166&#45;&gt;dir_41e793685514546dced968c1281957fa</title>
<path fill="none" stroke="black" d="M66.45,-124.1C66.16,-131.79 65.07,-141.05 63.51,-149.67"/>
<polygon fill="black" stroke="black" points="60.03,-149.19 61.39,-159.7 66.88,-150.64 60.03,-149.19"/>
<g id="a_edge1&#45;headlabel"><a xlink:href="dir_000004_000003.html" target="_top" xlink:title="7">
<text text-anchor="middle" x="58" y="-142.58" font-family="Helvetica,sans-Serif" font-size="10.00">7</text>
</a>
</g>
</g>
<!-- dir_ff0793f814ca4a2bd64160b010297166&#45;&gt;dir_50f304ad28d896dc96a9607121c95770 -->
<g id="edge2" class="edge">
<title>dir_ff0793f814ca4a2bd64160b010297166&#45;&gt;dir_50f304ad28d896dc96a9607121c95770</title>
<path fill="none" stroke="black" d="M60.53,-87.7C59.43,-79.98 58.1,-70.71 56.87,-62.11"/>
<polygon fill="black" stroke="black" points="60.32,-61.51 55.44,-52.1 53.39,-62.5 60.32,-61.51"/>
<g id="a_edge2&#45;headlabel"><a xlink:href="dir_000004_000005.html" target="_top" xlink:title="2">
<text text-anchor="middle" x="63.64" y="-62.17" font-family="Helvetica,sans-Serif" font-size="10.00">2</text>
</a>
</g>
</g>
</g>
</svg>
