<?xml version="1.0" encoding="UTF-8" standalone="no"?>
<!DOCTYPE svg PUBLIC "-//W3C//DTD SVG 1.1//EN"
 "http://www.w3.org/Graphics/SVG/1.1/DTD/svg11.dtd">
<!-- Generated by graphviz version 5.0.0 (20220708.1001)
 -->
<!-- Title: syntax Pages: 1 -->
<svg width="166pt" height="167pt"
 viewBox="0.00 0.00 166.00 167.00" xmlns="http://www.w3.org/2000/svg" xmlns:xlink="http://www.w3.org/1999/xlink">
<g id="graph0" class="graph" transform="scale(1 1) rotate(0) translate(4 163)">
<title>syntax</title>
<polygon fill="white" stroke="transparent" points="-4,4 -4,-163 162,-163 162,4 -4,4"/>
<g id="clust1" class="cluster">
<title>clusterdir_97aefd0d527b934f1d99a682da8fe6a9</title>
<g id="a_clust1"><a xlink:href="dir_97aefd0d527b934f1d99a682da8fe6a9.html" target="_top" xlink:title="lib">
<polygon fill="#edf0f7" stroke="#404040" stroke-dasharray="5,2" points="8,-8 8,-151 150,-151 150,-8 8,-8"/>
<text text-anchor="middle" x="79" y="-139" font-family="Helvetica,sans-Serif" font-size="10.00">lib</text>
</a>
</g>
</g>
<!-- dir_41e793685514546dced968c1281957fa -->
<g id="node1" class="node">
<title>dir_41e793685514546dced968c1281957fa</title>
<g id="a_node1"><a xlink:href="dir_41e793685514546dced968c1281957fa.html" target="_top" xlink:title="bdi">
<polygon fill="#a2b4d6" stroke="#404040" points="70,-52 16,-52 16,-16 70,-16 70,-52"/>
<text text-anchor="middle" x="43" y="-31.5" font-family="Helvetica,sans-Serif" font-size="10.00">bdi</text>
</a>
</g>
</g>
<!-- dir_50f304ad28d896dc96a9607121c95770 -->
<g id="node2" class="node">
<title>dir_50f304ad28d896dc96a9607121c95770</title>
<g id="a_node2"><a xlink:href="dir_50f304ad28d896dc96a9607121c95770.html" target="_top" xlink:title="lib">
<polygon fill="#a2b4d6" stroke="#404040" points="142,-52 88,-52 88,-16 142,-16 142,-52"/>
<text text-anchor="middle" x="115" y="-31.5" font-family="Helvetica,sans-Serif" font-size="10.00">lib</text>
</a>
</g>
</g>
<!-- dir_ff0793f814ca4a2bd64160b010297166 -->
<g id="node3" class="node">
<title>dir_ff0793f814ca4a2bd64160b010297166</title>
<g id="a_node3"><a xlink:href="dir_ff0793f814ca4a2bd64160b010297166.html" target="_top" xlink:title="syntax">
<polygon fill="#edf0f7" stroke="#404040" stroke-width="2" points="106,-124 52,-124 52,-88 106,-88 106,-124"/>
<text text-anchor="middle" x="79" y="-103.5" font-family="Helvetica,sans-Serif" font-size="10.00">syntax</text>
</a>
</g>
</g>
<!-- dir_ff0793f814ca4a2bd64160b010297166&#45;&gt;dir_41e793685514546dced968c1281957fa -->
<g id="edge1" class="edge">
<title>dir_ff0793f814ca4a2bd64160b010297166&#45;&gt;dir_41e793685514546dced968c1281957fa</title>
<path fill="none" stroke="black" d="M70.1,-87.7C66,-79.73 61.05,-70.1 56.51,-61.26"/>
<polygon fill="black" stroke="black" points="59.48,-59.4 51.8,-52.1 53.26,-62.6 59.48,-59.4"/>
<g id="a_edge1&#45;headlabel"><a xlink:href="dir_000005_000001.html" target="_top" xlink:title="7">
<text text-anchor="middle" x="63.65" y="-58.79" font-family="Helvetica,sans-Serif" font-size="10.00">7</text>
</a>
</g>
</g>
<!-- dir_ff0793f814ca4a2bd64160b010297166&#45;&gt;dir_50f304ad28d896dc96a9607121c95770 -->
<g id="edge2" class="edge">
<title>dir_ff0793f814ca4a2bd64160b010297166&#45;&gt;dir_50f304ad28d896dc96a9607121c95770</title>
<path fill="none" stroke="black" d="M87.9,-87.7C92,-79.73 96.95,-70.1 101.49,-61.26"/>
<polygon fill="black" stroke="black" points="104.74,-62.6 106.2,-52.1 98.52,-59.4 104.74,-62.6"/>
<g id="a_edge2&#45;headlabel"><a xlink:href="dir_000005_000003.html" target="_top" xlink:title="2">
<text text-anchor="middle" x="105.62" y="-64.59" font-family="Helvetica,sans-Serif" font-size="10.00">2</text>
</a>
</g>
</g>
</g>
</svg>
