<?xml version="1.0" encoding="UTF-8" standalone="no"?>
<!DOCTYPE svg PUBLIC "-//W3C//DTD SVG 1.1//EN"
 "http://www.w3.org/Graphics/SVG/1.1/DTD/svg11.dtd">
<!-- Generated by graphviz version 2.47.3 (20210711.2253)
 -->
<!-- Title: context.cpp Pages: 1 -->
<svg width="685pt" height="364pt"
 viewBox="0.00 0.00 684.50 364.00" xmlns="http://www.w3.org/2000/svg" xmlns:xlink="http://www.w3.org/1999/xlink">
<g id="graph0" class="graph" transform="scale(1 1) rotate(0) translate(4 360)">
<title>context.cpp</title>
<polygon fill="white" stroke="transparent" points="-4,4 -4,-360 680.5,-360 680.5,4 -4,4"/>
<!-- Node1 -->
<g id="node1" class="node">
<title>Node1</title>
<g id="a_node1"><a xlink:title=" ">
<polygon fill="#bfbfbf" stroke="black" points="505.5,-336.5 505.5,-355.5 571.5,-355.5 571.5,-336.5 505.5,-336.5"/>
<text text-anchor="middle" x="538.5" y="-343.5" font-family="Helvetica,sans-Serif" font-size="10.00">context.cpp</text>
</a>
</g>
</g>
<!-- Node2 -->
<g id="node2" class="node">
<title>Node2</title>
<g id="a_node2"><a xlink:href="../../dc/d1e/context_8h.html" target="_top" xlink:title=" ">
<polygon fill="white" stroke="black" points="510.5,-280.5 510.5,-299.5 566.5,-299.5 566.5,-280.5 510.5,-280.5"/>
<text text-anchor="middle" x="538.5" y="-287.5" font-family="Helvetica,sans-Serif" font-size="10.00">context.h</text>
</a>
</g>
</g>
<!-- Node1&#45;&gt;Node2 -->
<g id="edge1" class="edge">
<title>Node1&#45;&gt;Node2</title>
<path fill="none" stroke="midnightblue" d="M538.5,-336.08C538.5,-329.01 538.5,-318.86 538.5,-309.99"/>
<polygon fill="midnightblue" stroke="midnightblue" points="542,-309.75 538.5,-299.75 535,-309.75 542,-309.75"/>
</g>
<!-- Node3 -->
<g id="node3" class="node">
<title>Node3</title>
<g id="a_node3"><a xlink:href="../../d7/d7d/context__condition_8h.html" target="_top" xlink:title=" ">
<polygon fill="white" stroke="black" points="548.5,-112.5 548.5,-131.5 648.5,-131.5 648.5,-112.5 548.5,-112.5"/>
<text text-anchor="middle" x="598.5" y="-119.5" font-family="Helvetica,sans-Serif" font-size="10.00">context_condition.h</text>
</a>
</g>
</g>
<!-- Node2&#45;&gt;Node3 -->
<g id="edge2" class="edge">
<title>Node2&#45;&gt;Node3</title>
<path fill="none" stroke="midnightblue" d="M541.73,-280.08C551.21,-253.83 579.15,-176.55 591.95,-141.12"/>
<polygon fill="midnightblue" stroke="midnightblue" points="595.3,-142.16 595.4,-131.57 588.71,-139.78 595.3,-142.16"/>
</g>
<!-- Node5 -->
<g id="node5" class="node">
<title>Node5</title>
<g id="a_node5"><a xlink:title=" ">
<polygon fill="white" stroke="#bfbfbf" points="440.5,-0.5 440.5,-19.5 486.5,-19.5 486.5,-0.5 440.5,-0.5"/>
<text text-anchor="middle" x="463.5" y="-7.5" font-family="Helvetica,sans-Serif" font-size="10.00">cstdint</text>
</a>
</g>
</g>
<!-- Node2&#45;&gt;Node5 -->
<g id="edge25" class="edge">
<title>Node2&#45;&gt;Node5</title>
<path fill="none" stroke="midnightblue" d="M566.76,-280.6C607.13,-266.66 676.5,-234.61 676.5,-179 676.5,-179 676.5,-179 676.5,-121 676.5,-41.1 556.72,-19.18 496.81,-13.21"/>
<polygon fill="midnightblue" stroke="midnightblue" points="496.97,-9.71 486.7,-12.3 496.35,-16.68 496.97,-9.71"/>
</g>
<!-- Node6 -->
<g id="node6" class="node">
<title>Node6</title>
<g id="a_node6"><a xlink:href="../../d2/d2f/belief__base_8h.html" target="_top" xlink:title=" ">
<polygon fill="white" stroke="black" points="384,-224.5 384,-243.5 481,-243.5 481,-224.5 384,-224.5"/>
<text text-anchor="middle" x="432.5" y="-231.5" font-family="Helvetica,sans-Serif" font-size="10.00">../bdi/belief_base.h</text>
</a>
</g>
</g>
<!-- Node2&#45;&gt;Node6 -->
<g id="edge6" class="edge">
<title>Node2&#45;&gt;Node6</title>
<path fill="none" stroke="midnightblue" d="M521.47,-280.32C504.47,-271.66 478.12,-258.24 458.51,-248.25"/>
<polygon fill="midnightblue" stroke="midnightblue" points="459.99,-245.08 449.49,-243.65 456.81,-251.31 459.99,-245.08"/>
</g>
<!-- Node12 -->
<g id="node12" class="node">
<title>Node12</title>
<g id="a_node12"><a xlink:href="../../d0/d81/vector__queue_8h.html" target="_top" xlink:title=" ">
<polygon fill="white" stroke="black" points="0,-112.5 0,-131.5 103,-131.5 103,-112.5 0,-112.5"/>
<text text-anchor="middle" x="51.5" y="-119.5" font-family="Helvetica,sans-Serif" font-size="10.00">../lib/vector_queue.h</text>
</a>
</g>
</g>
<!-- Node2&#45;&gt;Node12 -->
<g id="edge24" class="edge">
<title>Node2&#45;&gt;Node12</title>
<path fill="none" stroke="midnightblue" d="M510.26,-283.46C447.88,-270.76 294.26,-236.79 172.5,-188 136.54,-173.59 97.5,-151.3 73.77,-136.93"/>
<polygon fill="midnightblue" stroke="midnightblue" points="75.52,-133.9 65.16,-131.66 71.86,-139.87 75.52,-133.9"/>
</g>
<!-- Node4 -->
<g id="node4" class="node">
<title>Node4</title>
<g id="a_node4"><a xlink:href="../../d5/d6b/proposition_8h.html" target="_top" xlink:title=" ">
<polygon fill="white" stroke="black" points="428,-56.5 428,-75.5 499,-75.5 499,-56.5 428,-56.5"/>
<text text-anchor="middle" x="463.5" y="-63.5" font-family="Helvetica,sans-Serif" font-size="10.00">proposition.h</text>
</a>
</g>
</g>
<!-- Node3&#45;&gt;Node4 -->
<g id="edge3" class="edge">
<title>Node3&#45;&gt;Node4</title>
<path fill="none" stroke="midnightblue" d="M577.11,-112.44C554.79,-103.52 519.6,-89.44 494.29,-79.32"/>
<polygon fill="midnightblue" stroke="midnightblue" points="495.38,-75.98 484.79,-75.52 492.78,-82.48 495.38,-75.98"/>
</g>
<!-- Node3&#45;&gt;Node5 -->
<g id="edge5" class="edge">
<title>Node3&#45;&gt;Node5</title>
<path fill="none" stroke="midnightblue" d="M598.31,-112.25C597.54,-98.54 594.13,-71.94 579.5,-56 558.06,-32.64 523.07,-21.28 497.12,-15.83"/>
<polygon fill="midnightblue" stroke="midnightblue" points="497.45,-12.33 486.97,-13.9 496.14,-19.2 497.45,-12.33"/>
</g>
<!-- Node4&#45;&gt;Node5 -->
<g id="edge4" class="edge">
<title>Node4&#45;&gt;Node5</title>
<path fill="none" stroke="midnightblue" d="M463.5,-56.08C463.5,-49.01 463.5,-38.86 463.5,-29.99"/>
<polygon fill="midnightblue" stroke="midnightblue" points="467,-29.75 463.5,-19.75 460,-29.75 467,-29.75"/>
</g>
<!-- Node6&#45;&gt;Node5 -->
<g id="edge23" class="edge">
<title>Node6&#45;&gt;Node5</title>
<path fill="none" stroke="midnightblue" d="M440.18,-224.29C459.41,-201.76 509.11,-138.96 523.5,-76 525.48,-67.33 527.48,-63.95 523.5,-56 516.77,-42.54 503.89,-32.07 491.79,-24.62"/>
<polygon fill="midnightblue" stroke="midnightblue" points="493.22,-21.41 482.8,-19.52 489.77,-27.5 493.22,-21.41"/>
</g>
<!-- Node7 -->
<g id="node7" class="node">
<title>Node7</title>
<g id="a_node7"><a xlink:href="../../da/db8/belief_8h.html" target="_top" xlink:title=" ">
<polygon fill="white" stroke="black" points="440,-112.5 440,-131.5 487,-131.5 487,-112.5 440,-112.5"/>
<text text-anchor="middle" x="463.5" y="-119.5" font-family="Helvetica,sans-Serif" font-size="10.00">belief.h</text>
</a>
</g>
</g>
<!-- Node6&#45;&gt;Node7 -->
<g id="edge7" class="edge">
<title>Node6&#45;&gt;Node7</title>
<path fill="none" stroke="midnightblue" d="M434.93,-224.37C439.96,-206.54 451.58,-165.3 458.35,-141.27"/>
<polygon fill="midnightblue" stroke="midnightblue" points="461.73,-142.17 461.08,-131.59 455,-140.27 461.73,-142.17"/>
</g>
<!-- Node8 -->
<g id="node8" class="node">
<title>Node8</title>
<g id="a_node8"><a xlink:href="../../dd/d20/event_8h.html" target="_top" xlink:title=" ">
<polygon fill="white" stroke="black" points="293.5,-112.5 293.5,-131.5 341.5,-131.5 341.5,-112.5 293.5,-112.5"/>
<text text-anchor="middle" x="317.5" y="-119.5" font-family="Helvetica,sans-Serif" font-size="10.00">event.h</text>
</a>
</g>
</g>
<!-- Node6&#45;&gt;Node8 -->
<g id="edge10" class="edge">
<title>Node6&#45;&gt;Node8</title>
<path fill="none" stroke="midnightblue" d="M423.48,-224.37C404.16,-205.89 358.58,-162.29 333.96,-138.74"/>
<polygon fill="midnightblue" stroke="midnightblue" points="336.13,-135.97 326.48,-131.59 331.29,-141.03 336.13,-135.97"/>
</g>
<!-- Node11 -->
<g id="node11" class="node">
<title>Node11</title>
<g id="a_node11"><a xlink:href="../../d7/dc4/event__base_8h.html" target="_top" xlink:title=" ">
<polygon fill="white" stroke="black" points="248.5,-168.5 248.5,-187.5 322.5,-187.5 322.5,-168.5 248.5,-168.5"/>
<text text-anchor="middle" x="285.5" y="-175.5" font-family="Helvetica,sans-Serif" font-size="10.00">event_base.h</text>
</a>
</g>
</g>
<!-- Node6&#45;&gt;Node11 -->
<g id="edge16" class="edge">
<title>Node6&#45;&gt;Node11</title>
<path fill="none" stroke="midnightblue" d="M409.21,-224.44C384.69,-215.44 345.9,-201.19 318.3,-191.05"/>
<polygon fill="midnightblue" stroke="midnightblue" points="319.28,-187.68 308.68,-187.52 316.86,-194.25 319.28,-187.68"/>
</g>
<!-- Node6&#45;&gt;Node12 -->
<g id="edge22" class="edge">
<title>Node6&#45;&gt;Node12</title>
<path fill="none" stroke="midnightblue" d="M390.39,-224.5C351.07,-216.25 290.9,-202.84 239.5,-188 184,-171.98 120.76,-149.14 83.59,-135.24"/>
<polygon fill="midnightblue" stroke="midnightblue" points="84.42,-131.81 73.83,-131.57 81.96,-138.36 84.42,-131.81"/>
</g>
<!-- Node7&#45;&gt;Node4 -->
<g id="edge8" class="edge">
<title>Node7&#45;&gt;Node4</title>
<path fill="none" stroke="midnightblue" d="M463.5,-112.08C463.5,-105.01 463.5,-94.86 463.5,-85.99"/>
<polygon fill="midnightblue" stroke="midnightblue" points="467,-85.75 463.5,-75.75 460,-85.75 467,-85.75"/>
</g>
<!-- Node7&#45;&gt;Node5 -->
<g id="edge9" class="edge">
<title>Node7&#45;&gt;Node5</title>
<path fill="none" stroke="midnightblue" d="M476.65,-112.46C493.01,-100.67 517.74,-78.32 508.5,-56 503.58,-44.12 493.83,-33.74 484.67,-25.96"/>
<polygon fill="midnightblue" stroke="midnightblue" points="486.58,-23.01 476.56,-19.56 482.25,-28.51 486.58,-23.01"/>
</g>
<!-- Node8&#45;&gt;Node4 -->
<g id="edge11" class="edge">
<title>Node8&#45;&gt;Node4</title>
<path fill="none" stroke="midnightblue" d="M340.63,-112.44C364.98,-103.44 403.51,-89.19 430.92,-79.05"/>
<polygon fill="midnightblue" stroke="midnightblue" points="432.31,-82.27 440.47,-75.52 429.88,-75.7 432.31,-82.27"/>
</g>
<!-- Node8&#45;&gt;Node5 -->
<g id="edge15" class="edge">
<title>Node8&#45;&gt;Node5</title>
<path fill="none" stroke="midnightblue" d="M330.17,-112.2C342.98,-103.24 363.28,-88.88 380.5,-76 402.96,-59.19 428.28,-39.21 444.98,-25.88"/>
<polygon fill="midnightblue" stroke="midnightblue" points="447.25,-28.55 452.87,-19.57 442.88,-23.08 447.25,-28.55"/>
</g>
<!-- Node9 -->
<g id="node9" class="node">
<title>Node9</title>
<g id="a_node9"><a xlink:href="../../db/d50/event__operator_8h.html" target="_top" xlink:title=" ">
<polygon fill="white" stroke="black" points="244,-56.5 244,-75.5 371,-75.5 371,-56.5 244,-56.5"/>
<text text-anchor="middle" x="307.5" y="-63.5" font-family="Helvetica,sans-Serif" font-size="10.00">../syntax/event_operator.h</text>
</a>
</g>
</g>
<!-- Node8&#45;&gt;Node9 -->
<g id="edge12" class="edge">
<title>Node8&#45;&gt;Node9</title>
<path fill="none" stroke="midnightblue" d="M315.85,-112.08C314.52,-104.93 312.62,-94.64 310.96,-85.69"/>
<polygon fill="midnightblue" stroke="midnightblue" points="314.38,-84.95 309.12,-75.75 307.5,-86.22 314.38,-84.95"/>
</g>
<!-- Node10 -->
<g id="node10" class="node">
<title>Node10</title>
<g id="a_node10"><a xlink:href="../../df/dc3/event__id_8h.html" target="_top" xlink:title=" ">
<polygon fill="white" stroke="black" points="145,-56.5 145,-75.5 226,-75.5 226,-56.5 145,-56.5"/>
<text text-anchor="middle" x="185.5" y="-63.5" font-family="Helvetica,sans-Serif" font-size="10.00">../lib/event_id.h</text>
</a>
</g>
</g>
<!-- Node8&#45;&gt;Node10 -->
<g id="edge13" class="edge">
<title>Node8&#45;&gt;Node10</title>
<path fill="none" stroke="midnightblue" d="M296.58,-112.44C274.76,-103.52 240.35,-89.44 215.61,-79.32"/>
<polygon fill="midnightblue" stroke="midnightblue" points="216.9,-76.06 206.32,-75.52 214.25,-82.54 216.9,-76.06"/>
</g>
<!-- Node10&#45;&gt;Node5 -->
<g id="edge14" class="edge">
<title>Node10&#45;&gt;Node5</title>
<path fill="none" stroke="midnightblue" d="M226.22,-57.09C281.53,-46.35 379.34,-27.35 430.39,-17.43"/>
<polygon fill="midnightblue" stroke="midnightblue" points="431.1,-20.86 440.25,-15.52 429.77,-13.99 431.1,-20.86"/>
</g>
<!-- Node11&#45;&gt;Node5 -->
<g id="edge21" class="edge">
<title>Node11&#45;&gt;Node5</title>
<path fill="none" stroke="midnightblue" d="M258.12,-168.43C204.29,-150.23 93.47,-105.36 136.5,-56 174.37,-12.57 354.54,-9.6 430.07,-10.33"/>
<polygon fill="midnightblue" stroke="midnightblue" points="430.38,-13.83 440.42,-10.46 430.47,-6.83 430.38,-13.83"/>
</g>
<!-- Node11&#45;&gt;Node8 -->
<g id="edge17" class="edge">
<title>Node11&#45;&gt;Node8</title>
<path fill="none" stroke="midnightblue" d="M290.78,-168.08C295.21,-160.61 301.66,-149.72 307.12,-140.52"/>
<polygon fill="midnightblue" stroke="midnightblue" points="310.23,-142.14 312.31,-131.75 304.21,-138.57 310.23,-142.14"/>
</g>
<!-- Node11&#45;&gt;Node12 -->
<g id="edge18" class="edge">
<title>Node11&#45;&gt;Node12</title>
<path fill="none" stroke="midnightblue" d="M248.42,-168.44C207.77,-159.06 142.47,-143.99 98.32,-133.8"/>
<polygon fill="midnightblue" stroke="midnightblue" points="98.94,-130.35 88.4,-131.52 97.36,-137.18 98.94,-130.35"/>
</g>
<!-- Node12&#45;&gt;Node5 -->
<g id="edge20" class="edge">
<title>Node12&#45;&gt;Node5</title>
<path fill="none" stroke="midnightblue" d="M45.02,-112.24C35.72,-98.52 21.19,-71.89 35.5,-56 61.82,-26.77 334.5,-15.18 430.38,-11.99"/>
<polygon fill="midnightblue" stroke="midnightblue" points="430.52,-15.48 440.4,-11.66 430.29,-8.49 430.52,-15.48"/>
</g>
<!-- Node13 -->
<g id="node13" class="node">
<title>Node13</title>
<g id="a_node13"><a xlink:title=" ">
<polygon fill="white" stroke="#bfbfbf" points="44.5,-56.5 44.5,-75.5 88.5,-75.5 88.5,-56.5 44.5,-56.5"/>
<text text-anchor="middle" x="66.5" y="-63.5" font-family="Helvetica,sans-Serif" font-size="10.00">vector</text>
</a>
</g>
</g>
<!-- Node12&#45;&gt;Node13 -->
<g id="edge19" class="edge">
<title>Node12&#45;&gt;Node13</title>
<path fill="none" stroke="midnightblue" d="M53.98,-112.08C55.99,-104.85 58.89,-94.41 61.39,-85.4"/>
<polygon fill="midnightblue" stroke="midnightblue" points="64.76,-86.32 64.07,-75.75 58.02,-84.45 64.76,-86.32"/>
</g>
</g>
</svg>
