<?xml version="1.0" encoding="UTF-8" standalone="no"?>
<!DOCTYPE svg PUBLIC "-//W3C//DTD SVG 1.1//EN"
 "http://www.w3.org/Graphics/SVG/1.1/DTD/svg11.dtd">
<!-- Generated by graphviz version 2.47.1 (20210421.1823)
 -->
<!-- Title: event.h Pages: 1 -->
<!--zoomable 588 -->
<svg id="main" version="1.1" xmlns="http://www.w3.org/2000/svg" xmlns:xlink="http://www.w3.org/1999/xlink" xml:space="preserve" onload="init(evt)">
<style type="text/css"><![CDATA[
.edge:hover path { stroke: red; }
.edge:hover polygon { stroke: red; fill: red; }
]]></style>
<script type="text/javascript"><![CDATA[
var edges = document.getElementsByTagName('g');
if (edges && edges.length) {
  for (var i=0;i<edges.length;i++) {
    if (edges[i].id.substr(0,4)=='edge') {
      edges[i].setAttribute('class','edge');
    }
  }
}
]]></script>
        <defs>
                <circle id="rim" cx="0" cy="0" r="7"/>
                <circle id="rim2" cx="0" cy="0" r="3.5"/>
                <g id="zoomPlus">
                        <use xlink:href="#rim" fill="#404040">
                                <set attributeName="fill" to="#808080" begin="zoomplus.mouseover" end="zoomplus.mouseout"/>
                        </use>
                        <path d="M-4,0h8M0,-4v8" fill="none" stroke="white" stroke-width="1.5" pointer-events="none"/>
                </g>
                <g id="zoomMin">
                        <use xlink:href="#rim" fill="#404040">
                                <set attributeName="fill" to="#808080" begin="zoomminus.mouseover" end="zoomminus.mouseout"/>
                        </use>
                        <path d="M-4,0h8" fill="none" stroke="white" stroke-width="1.5" pointer-events="none"/>
                </g>
                <g id="dirArrow">
                        <path fill="none" stroke="white" stroke-width="1.5" d="M0,-3.0v7 M-2.5,-0.5L0,-3.0L2.5,-0.5"/>
                </g>
               <g id="resetDef">
                       <use xlink:href="#rim2" fill="#404040">
                               <set attributeName="fill" to="#808080" begin="reset.mouseover" end="reset.mouseout"/>
                       </use>
               </g>
        </defs>

<script type="text/javascript">
var viewWidth = 798;
var viewHeight = 588;
var sectionId = 'dynsection-1';
</script>
<script xlink:href="../../svgpan.js"/>
<svg id="graph" class="graph">
<g id="viewport">
<title>event.h</title>
<polygon fill="white" stroke="transparent" points="-4,4 -4,-584 793.5,-584 793.5,4 -4,4"/>
<!-- Node1 -->
<g id="node1" class="node">
<title>Node1</title>
<g id="a_node1"><a xlink:title=" ">
<polygon fill="#bfbfbf" stroke="black" points="434,-560.5 434,-579.5 482,-579.5 482,-560.5 434,-560.5"/>
<text text-anchor="middle" x="458" y="-567.5" font-family="Helvetica,sans-Serif" font-size="10.00">event.h</text>
</a>
</g>
</g>
<!-- Node2 -->
<g id="node2" class="node">
<title>Node2</title>
<g id="a_node2"><a xlink:href="../../d2/d2f/belief__base_8h.html" target="_top" xlink:title=" ">
<polygon fill="white" stroke="black" points="179,-448.5 179,-467.5 253,-467.5 253,-448.5 179,-448.5"/>
<text text-anchor="middle" x="216" y="-455.5" font-family="Helvetica,sans-Serif" font-size="10.00">belief_base.h</text>
</a>
</g>
</g>
<!-- Node1&#45;&gt;Node2 -->
<g id="edge1" class="edge">
<title>Node1&#45;&gt;Node2</title>
<path fill="none" stroke="midnightblue" d="M429.76,-556.16C379.82,-533.47 277.23,-486.83 234.9,-467.59"/>
<polygon fill="midnightblue" stroke="midnightblue" points="428.46,-559.42 439.01,-560.37 431.36,-553.04 428.46,-559.42"/>
</g>
<!-- Node11 -->
<g id="node11" class="node">
<title>Node11</title>
<g id="a_node11"><a xlink:href="../../de/d75/plan__base_8h.html" target="_top" xlink:title=" ">
<polygon fill="white" stroke="black" points="58,-224.5 58,-243.5 126,-243.5 126,-224.5 58,-224.5"/>
<text text-anchor="middle" x="92" y="-231.5" font-family="Helvetica,sans-Serif" font-size="10.00">plan_base.h</text>
</a>
</g>
</g>
<!-- Node1&#45;&gt;Node11 -->
<g id="edge40" class="edge">
<title>Node1&#45;&gt;Node11</title>
<path fill="none" stroke="midnightblue" d="M423.48,-568.1C316.87,-564.4 0,-546.06 0,-459 0,-459 0,-459 0,-401 0,-333.12 59.57,-267 82.84,-243.76"/>
<polygon fill="midnightblue" stroke="midnightblue" points="423.59,-571.61 433.7,-568.43 423.82,-564.61 423.59,-571.61"/>
</g>
<!-- Node23 -->
<g id="node23" class="node">
<title>Node23</title>
<g id="a_node23"><a xlink:href="../../df/d1b/event_8cpp.html" target="_top" xlink:title=" ">
<polygon fill="white" stroke="black" points="649.5,-504.5 649.5,-523.5 708.5,-523.5 708.5,-504.5 649.5,-504.5"/>
<text text-anchor="middle" x="679" y="-511.5" font-family="Helvetica,sans-Serif" font-size="10.00">event.cpp</text>
</a>
</g>
</g>
<!-- Node1&#45;&gt;Node23 -->
<g id="edge31" class="edge">
<title>Node1&#45;&gt;Node23</title>
<path fill="none" stroke="midnightblue" d="M491.79,-560.74C534.81,-550.23 608.43,-532.24 649.36,-522.24"/>
<polygon fill="midnightblue" stroke="midnightblue" points="490.96,-557.34 482.07,-563.12 492.62,-564.14 490.96,-557.34"/>
</g>
<!-- Node24 -->
<g id="node24" class="node">
<title>Node24</title>
<g id="a_node24"><a xlink:href="../../d7/dc4/event__base_8h.html" target="_top" xlink:title=" ">
<polygon fill="white" stroke="black" points="421,-504.5 421,-523.5 495,-523.5 495,-504.5 421,-504.5"/>
<text text-anchor="middle" x="458" y="-511.5" font-family="Helvetica,sans-Serif" font-size="10.00">event_base.h</text>
</a>
</g>
</g>
<!-- Node1&#45;&gt;Node24 -->
<g id="edge32" class="edge">
<title>Node1&#45;&gt;Node24</title>
<path fill="none" stroke="midnightblue" d="M458,-549.8C458,-540.91 458,-530.78 458,-523.75"/>
<polygon fill="midnightblue" stroke="midnightblue" points="454.5,-550.08 458,-560.08 461.5,-550.08 454.5,-550.08"/>
</g>
<!-- Node26 -->
<g id="node26" class="node">
<title>Node26</title>
<g id="a_node26"><a xlink:href="../../d9/ded/body__return_8h.html" target="_top" xlink:title=" ">
<polygon fill="white" stroke="black" points="557,-504.5 557,-523.5 631,-523.5 631,-504.5 557,-504.5"/>
<text text-anchor="middle" x="594" y="-511.5" font-family="Helvetica,sans-Serif" font-size="10.00">body_return.h</text>
</a>
</g>
</g>
<!-- Node1&#45;&gt;Node26 -->
<g id="edge41" class="edge">
<title>Node1&#45;&gt;Node26</title>
<path fill="none" stroke="midnightblue" d="M489.13,-556.64C514.66,-546.5 550.11,-532.43 572.55,-523.52"/>
<polygon fill="midnightblue" stroke="midnightblue" points="487.55,-553.5 479.55,-560.44 490.14,-560.01 487.55,-553.5"/>
</g>
<!-- Node3 -->
<g id="node3" class="node">
<title>Node3</title>
<g id="a_node3"><a xlink:href="../../de/d9e/agent_8h.html" target="_top" xlink:title=" ">
<polygon fill="white" stroke="black" points="113,-56.5 113,-75.5 161,-75.5 161,-56.5 113,-56.5"/>
<text text-anchor="middle" x="137" y="-63.5" font-family="Helvetica,sans-Serif" font-size="10.00">agent.h</text>
</a>
</g>
</g>
<!-- Node2&#45;&gt;Node3 -->
<g id="edge2" class="edge">
<title>Node2&#45;&gt;Node3</title>
<path fill="none" stroke="midnightblue" d="M168.62,-450.87C140.3,-445.04 105.23,-433.76 81,-412 16.63,-354.2 0,-321.51 0,-235 0,-235 0,-235 0,-177 0,-119.81 73.49,-87.38 112.82,-74.13"/>
<polygon fill="midnightblue" stroke="midnightblue" points="168.24,-454.36 178.72,-452.77 169.54,-447.48 168.24,-454.36"/>
</g>
<!-- Node6 -->
<g id="node6" class="node">
<title>Node6</title>
<g id="a_node6"><a xlink:href="../../de/d9b/belief__base_8cpp.html" target="_top" xlink:title=" ">
<polygon fill="white" stroke="black" points="104,-392.5 104,-411.5 188,-411.5 188,-392.5 104,-392.5"/>
<text text-anchor="middle" x="146" y="-399.5" font-family="Helvetica,sans-Serif" font-size="10.00">belief_base.cpp</text>
</a>
</g>
</g>
<!-- Node2&#45;&gt;Node6 -->
<g id="edge5" class="edge">
<title>Node2&#45;&gt;Node6</title>
<path fill="none" stroke="midnightblue" d="M196.69,-442.1C184.09,-432.38 168.07,-420.03 157.45,-411.83"/>
<polygon fill="midnightblue" stroke="midnightblue" points="194.7,-444.99 204.75,-448.32 198.97,-439.44 194.7,-444.99"/>
</g>
<!-- Node7 -->
<g id="node7" class="node">
<title>Node7</title>
<g id="a_node7"><a xlink:href="../../df/d3f/intention_8h.html" target="_top" xlink:title=" ">
<polygon fill="white" stroke="black" points="164.5,-168.5 164.5,-187.5 225.5,-187.5 225.5,-168.5 164.5,-168.5"/>
<text text-anchor="middle" x="195" y="-175.5" font-family="Helvetica,sans-Serif" font-size="10.00">intention.h</text>
</a>
</g>
</g>
<!-- Node2&#45;&gt;Node7 -->
<g id="edge6" class="edge">
<title>Node2&#45;&gt;Node7</title>
<path fill="none" stroke="midnightblue" d="M216,-438.25C216,-416.36 216,-379.05 216,-347 216,-347 216,-347 216,-289 216,-250.7 203.56,-206.21 197.83,-187.73"/>
<polygon fill="midnightblue" stroke="midnightblue" points="212.5,-438.44 216,-448.44 219.5,-438.44 212.5,-438.44"/>
</g>
<!-- Node9 -->
<g id="node9" class="node">
<title>Node9</title>
<g id="a_node9"><a xlink:href="../../d8/d83/intention__base_8h.html" target="_top" xlink:title=" ">
<polygon fill="white" stroke="black" points="282.5,-112.5 282.5,-131.5 369.5,-131.5 369.5,-112.5 282.5,-112.5"/>
<text text-anchor="middle" x="326" y="-119.5" font-family="Helvetica,sans-Serif" font-size="10.00">intention_base.h</text>
</a>
</g>
</g>
<!-- Node2&#45;&gt;Node9 -->
<g id="edge11" class="edge">
<title>Node2&#45;&gt;Node9</title>
<path fill="none" stroke="midnightblue" d="M235.52,-441.85C258.04,-422.5 292,-386.72 292,-347 292,-347 292,-347 292,-233 292,-193.62 312.13,-149.71 321.41,-131.56"/>
<polygon fill="midnightblue" stroke="midnightblue" points="233.02,-439.37 227.54,-448.43 237.48,-444.76 233.02,-439.37"/>
</g>
<!-- Node2&#45;&gt;Node11 -->
<g id="edge12" class="edge">
<title>Node2&#45;&gt;Node11</title>
<path fill="none" stroke="midnightblue" d="M168.74,-452.23C142.45,-446.9 111.74,-435.66 95,-412 57.19,-358.56 80.22,-271.52 89.02,-243.78"/>
<polygon fill="midnightblue" stroke="midnightblue" points="168.47,-455.74 178.94,-454.05 169.71,-448.85 168.47,-455.74"/>
</g>
<!-- Node13 -->
<g id="node13" class="node">
<title>Node13</title>
<g id="a_node13"><a xlink:href="../../d0/d77/body_8h.html" target="_top" xlink:title=" ">
<polygon fill="white" stroke="black" points="480,-336.5 480,-355.5 524,-355.5 524,-336.5 480,-336.5"/>
<text text-anchor="middle" x="502" y="-343.5" font-family="Helvetica,sans-Serif" font-size="10.00">body.h</text>
</a>
</g>
</g>
<!-- Node2&#45;&gt;Node13 -->
<g id="edge16" class="edge">
<title>Node2&#45;&gt;Node13</title>
<path fill="none" stroke="midnightblue" d="M263.39,-448.39C299.02,-441.06 348.62,-428.98 390,-412 428.48,-396.21 469.83,-369.3 489.81,-355.58"/>
<polygon fill="midnightblue" stroke="midnightblue" points="262.38,-445.03 253.26,-450.43 263.76,-451.89 262.38,-445.03"/>
</g>
<!-- Node19 -->
<g id="node19" class="node">
<title>Node19</title>
<g id="a_node19"><a xlink:href="../../d8/d67/body__instruction_8h.html" target="_top" xlink:title=" ">
<polygon fill="white" stroke="black" points="524.5,-392.5 524.5,-411.5 619.5,-411.5 619.5,-392.5 524.5,-392.5"/>
<text text-anchor="middle" x="572" y="-399.5" font-family="Helvetica,sans-Serif" font-size="10.00">body_instruction.h</text>
</a>
</g>
</g>
<!-- Node2&#45;&gt;Node19 -->
<g id="edge25" class="edge">
<title>Node2&#45;&gt;Node19</title>
<path fill="none" stroke="midnightblue" d="M263.09,-449.86C331.07,-439.55 456,-420.6 524.31,-410.23"/>
<polygon fill="midnightblue" stroke="midnightblue" points="262.45,-446.41 253.09,-451.37 263.5,-453.33 262.45,-446.41"/>
</g>
<!-- Node21 -->
<g id="node21" class="node">
<title>Node21</title>
<g id="a_node21"><a xlink:href="../../dc/d1e/context_8h.html" target="_top" xlink:title=" ">
<polygon fill="white" stroke="black" points="325,-392.5 325,-411.5 381,-411.5 381,-392.5 325,-392.5"/>
<text text-anchor="middle" x="353" y="-399.5" font-family="Helvetica,sans-Serif" font-size="10.00">context.h</text>
</a>
</g>
</g>
<!-- Node2&#45;&gt;Node21 -->
<g id="edge28" class="edge">
<title>Node2&#45;&gt;Node21</title>
<path fill="none" stroke="midnightblue" d="M247.02,-444.77C272.76,-434.63 308.69,-420.47 331.39,-411.52"/>
<polygon fill="midnightblue" stroke="midnightblue" points="245.73,-441.52 237.71,-448.44 248.29,-448.03 245.73,-441.52"/>
</g>
<!-- Node4 -->
<g id="node4" class="node">
<title>Node4</title>
<g id="a_node4"><a xlink:href="../../dd/d3d/agent_8cpp.html" target="_top" xlink:title=" ">
<polygon fill="white" stroke="black" points="63.5,-0.5 63.5,-19.5 122.5,-19.5 122.5,-0.5 63.5,-0.5"/>
<text text-anchor="middle" x="93" y="-7.5" font-family="Helvetica,sans-Serif" font-size="10.00">agent.cpp</text>
</a>
</g>
</g>
<!-- Node3&#45;&gt;Node4 -->
<g id="edge3" class="edge">
<title>Node3&#45;&gt;Node4</title>
<path fill="none" stroke="midnightblue" d="M123.27,-48.14C115.6,-38.74 106.37,-27.4 100.13,-19.75"/>
<polygon fill="midnightblue" stroke="midnightblue" points="120.7,-50.54 129.73,-56.08 126.13,-46.12 120.7,-50.54"/>
</g>
<!-- Node5 -->
<g id="node5" class="node">
<title>Node5</title>
<g id="a_node5"><a xlink:href="../../d4/d91/agent__loop_8cpp.html" target="_top" xlink:title=" ">
<polygon fill="white" stroke="black" points="141,-0.5 141,-19.5 223,-19.5 223,-0.5 141,-0.5"/>
<text text-anchor="middle" x="182" y="-7.5" font-family="Helvetica,sans-Serif" font-size="10.00">agent_loop.cpp</text>
</a>
</g>
</g>
<!-- Node3&#45;&gt;Node5 -->
<g id="edge4" class="edge">
<title>Node3&#45;&gt;Node5</title>
<path fill="none" stroke="midnightblue" d="M151.05,-48.14C158.89,-38.74 168.33,-27.4 174.71,-19.75"/>
<polygon fill="midnightblue" stroke="midnightblue" points="148.14,-46.16 144.43,-56.08 153.52,-50.64 148.14,-46.16"/>
</g>
<!-- Node8 -->
<g id="node8" class="node">
<title>Node8</title>
<g id="a_node8"><a xlink:href="../../d4/db4/intention_8cpp.html" target="_top" xlink:title=" ">
<polygon fill="white" stroke="black" points="154.5,-112.5 154.5,-131.5 225.5,-131.5 225.5,-112.5 154.5,-112.5"/>
<text text-anchor="middle" x="190" y="-119.5" font-family="Helvetica,sans-Serif" font-size="10.00">intention.cpp</text>
</a>
</g>
</g>
<!-- Node7&#45;&gt;Node8 -->
<g id="edge7" class="edge">
<title>Node7&#45;&gt;Node8</title>
<path fill="none" stroke="midnightblue" d="M193.25,-158.1C192.42,-149.14 191.47,-138.86 190.81,-131.75"/>
<polygon fill="midnightblue" stroke="midnightblue" points="189.77,-158.45 194.17,-168.08 196.74,-157.8 189.77,-158.45"/>
</g>
<!-- Node7&#45;&gt;Node9 -->
<g id="edge8" class="edge">
<title>Node7&#45;&gt;Node9</title>
<path fill="none" stroke="midnightblue" d="M225.32,-164.5C249.88,-154.38 283.82,-140.39 305.34,-131.52"/>
<polygon fill="midnightblue" stroke="midnightblue" points="223.67,-161.4 215.76,-168.44 226.34,-167.87 223.67,-161.4"/>
</g>
<!-- Node9&#45;&gt;Node3 -->
<g id="edge9" class="edge">
<title>Node9&#45;&gt;Node3</title>
<path fill="none" stroke="midnightblue" d="M286.37,-109.68C248.52,-98.86 192.7,-82.91 161.11,-73.89"/>
<polygon fill="midnightblue" stroke="midnightblue" points="285.48,-113.06 296.05,-112.44 287.4,-106.33 285.48,-113.06"/>
</g>
<!-- Node10 -->
<g id="node10" class="node">
<title>Node10</title>
<g id="a_node10"><a xlink:href="../../d2/dd9/intention__base_8cpp.html" target="_top" xlink:title=" ">
<polygon fill="white" stroke="black" points="277,-56.5 277,-75.5 375,-75.5 375,-56.5 277,-56.5"/>
<text text-anchor="middle" x="326" y="-63.5" font-family="Helvetica,sans-Serif" font-size="10.00">intention_base.cpp</text>
</a>
</g>
</g>
<!-- Node9&#45;&gt;Node10 -->
<g id="edge10" class="edge">
<title>Node9&#45;&gt;Node10</title>
<path fill="none" stroke="midnightblue" d="M326,-101.8C326,-92.91 326,-82.78 326,-75.75"/>
<polygon fill="midnightblue" stroke="midnightblue" points="322.5,-102.08 326,-112.08 329.5,-102.08 322.5,-102.08"/>
</g>
<!-- Node11&#45;&gt;Node3 -->
<g id="edge13" class="edge">
<title>Node11&#45;&gt;Node3</title>
<path fill="none" stroke="midnightblue" d="M74.83,-216.62C63.59,-203.83 52.01,-185.38 58,-168 71.78,-128.01 108.62,-91.75 126.7,-75.7"/>
<polygon fill="midnightblue" stroke="midnightblue" points="72.55,-219.3 81.97,-224.13 77.62,-214.47 72.55,-219.3"/>
</g>
<!-- Node11&#45;&gt;Node7 -->
<g id="edge14" class="edge">
<title>Node11&#45;&gt;Node7</title>
<path fill="none" stroke="midnightblue" d="M117.58,-219.59C136.62,-209.61 162.06,-196.27 178.49,-187.65"/>
<polygon fill="midnightblue" stroke="midnightblue" points="115.78,-216.58 108.55,-224.32 119.03,-222.78 115.78,-216.58"/>
</g>
<!-- Node12 -->
<g id="node12" class="node">
<title>Node12</title>
<g id="a_node12"><a xlink:href="../../d4/d51/plan__base_8cpp.html" target="_top" xlink:title=" ">
<polygon fill="white" stroke="black" points="67.5,-168.5 67.5,-187.5 146.5,-187.5 146.5,-168.5 67.5,-168.5"/>
<text text-anchor="middle" x="107" y="-175.5" font-family="Helvetica,sans-Serif" font-size="10.00">plan_base.cpp</text>
</a>
</g>
</g>
<!-- Node11&#45;&gt;Node12 -->
<g id="edge15" class="edge">
<title>Node11&#45;&gt;Node12</title>
<path fill="none" stroke="midnightblue" d="M97.17,-214.4C99.68,-205.36 102.57,-194.94 104.57,-187.75"/>
<polygon fill="midnightblue" stroke="midnightblue" points="93.78,-213.51 94.48,-224.08 100.53,-215.38 93.78,-213.51"/>
</g>
<!-- Node14 -->
<g id="node14" class="node">
<title>Node14</title>
<g id="a_node14"><a xlink:href="../../d1/d5f/body_8cpp.html" target="_top" xlink:title=" ">
<polygon fill="white" stroke="black" points="483.5,-280.5 483.5,-299.5 538.5,-299.5 538.5,-280.5 483.5,-280.5"/>
<text text-anchor="middle" x="511" y="-287.5" font-family="Helvetica,sans-Serif" font-size="10.00">body.cpp</text>
</a>
</g>
</g>
<!-- Node13&#45;&gt;Node14 -->
<g id="edge17" class="edge">
<title>Node13&#45;&gt;Node14</title>
<path fill="none" stroke="midnightblue" d="M505.15,-326.1C506.64,-317.14 508.36,-306.86 509.54,-299.75"/>
<polygon fill="midnightblue" stroke="midnightblue" points="501.68,-325.64 503.49,-336.08 508.58,-326.79 501.68,-325.64"/>
</g>
<!-- Node15 -->
<g id="node15" class="node">
<title>Node15</title>
<g id="a_node15"><a xlink:href="../../d9/d4e/plan_8h.html" target="_top" xlink:title=" ">
<polygon fill="white" stroke="black" points="423,-280.5 423,-299.5 465,-299.5 465,-280.5 423,-280.5"/>
<text text-anchor="middle" x="444" y="-287.5" font-family="Helvetica,sans-Serif" font-size="10.00">plan.h</text>
</a>
</g>
</g>
<!-- Node13&#45;&gt;Node15 -->
<g id="edge18" class="edge">
<title>Node13&#45;&gt;Node15</title>
<path fill="none" stroke="midnightblue" d="M485.09,-329.25C474.8,-319.67 462.03,-307.79 453.49,-299.83"/>
<polygon fill="midnightblue" stroke="midnightblue" points="482.98,-332.07 492.68,-336.32 487.75,-326.95 482.98,-332.07"/>
</g>
<!-- Node15&#45;&gt;Node9 -->
<g id="edge22" class="edge">
<title>Node15&#45;&gt;Node9</title>
<path fill="none" stroke="midnightblue" d="M468.83,-275.04C486.92,-262.88 506.83,-244.08 498,-224 474.45,-170.42 407.04,-143.57 363.93,-131.5"/>
<polygon fill="midnightblue" stroke="midnightblue" points="466.83,-272.17 460.23,-280.46 470.56,-278.09 466.83,-272.17"/>
</g>
<!-- Node15&#45;&gt;Node11 -->
<g id="edge23" class="edge">
<title>Node15&#45;&gt;Node11</title>
<path fill="none" stroke="midnightblue" d="M412.6,-284.18C346.7,-274.07 194.43,-250.71 126.18,-240.24"/>
<polygon fill="midnightblue" stroke="midnightblue" points="412.36,-287.69 422.77,-285.74 413.42,-280.77 412.36,-287.69"/>
</g>
<!-- Node16 -->
<g id="node16" class="node">
<title>Node16</title>
<g id="a_node16"><a xlink:href="../../de/d3c/instantiated__plan_8h.html" target="_top" xlink:title=" ">
<polygon fill="white" stroke="black" points="320,-224.5 320,-243.5 418,-243.5 418,-224.5 320,-224.5"/>
<text text-anchor="middle" x="369" y="-231.5" font-family="Helvetica,sans-Serif" font-size="10.00">instantiated_plan.h</text>
</a>
</g>
</g>
<!-- Node15&#45;&gt;Node16 -->
<g id="edge19" class="edge">
<title>Node15&#45;&gt;Node16</title>
<path fill="none" stroke="midnightblue" d="M423.69,-274.38C410.14,-264.62 392.76,-252.11 381.27,-243.83"/>
<polygon fill="midnightblue" stroke="midnightblue" points="421.79,-277.32 431.95,-280.32 425.88,-271.64 421.79,-277.32"/>
</g>
<!-- Node18 -->
<g id="node18" class="node">
<title>Node18</title>
<g id="a_node18"><a xlink:href="../../d7/df1/plan_8cpp.html" target="_top" xlink:title=" ">
<polygon fill="white" stroke="black" points="435.5,-224.5 435.5,-243.5 488.5,-243.5 488.5,-224.5 435.5,-224.5"/>
<text text-anchor="middle" x="462" y="-231.5" font-family="Helvetica,sans-Serif" font-size="10.00">plan.cpp</text>
</a>
</g>
</g>
<!-- Node15&#45;&gt;Node18 -->
<g id="edge24" class="edge">
<title>Node15&#45;&gt;Node18</title>
<path fill="none" stroke="midnightblue" d="M450.2,-270.4C453.21,-261.36 456.69,-250.94 459.08,-243.75"/>
<polygon fill="midnightblue" stroke="midnightblue" points="446.81,-269.49 446.97,-280.08 453.46,-271.7 446.81,-269.49"/>
</g>
<!-- Node16&#45;&gt;Node7 -->
<g id="edge21" class="edge">
<title>Node16&#45;&gt;Node7</title>
<path fill="none" stroke="midnightblue" d="M331.74,-221.44C298.93,-211.26 251.92,-196.66 222.44,-187.52"/>
<polygon fill="midnightblue" stroke="midnightblue" points="330.84,-224.82 341.43,-224.44 332.92,-218.14 330.84,-224.82"/>
</g>
<!-- Node17 -->
<g id="node17" class="node">
<title>Node17</title>
<g id="a_node17"><a xlink:href="../../df/dbd/instantiated__plan_8cpp.html" target="_top" xlink:title=" ">
<polygon fill="white" stroke="black" points="320,-168.5 320,-187.5 428,-187.5 428,-168.5 320,-168.5"/>
<text text-anchor="middle" x="374" y="-175.5" font-family="Helvetica,sans-Serif" font-size="10.00">instantiated_plan.cpp</text>
</a>
</g>
</g>
<!-- Node16&#45;&gt;Node17 -->
<g id="edge20" class="edge">
<title>Node16&#45;&gt;Node17</title>
<path fill="none" stroke="midnightblue" d="M370.75,-214.1C371.58,-205.14 372.53,-194.86 373.19,-187.75"/>
<polygon fill="midnightblue" stroke="midnightblue" points="367.26,-213.8 369.83,-224.08 374.23,-214.45 367.26,-213.8"/>
</g>
<!-- Node19&#45;&gt;Node13 -->
<g id="edge26" class="edge">
<title>Node19&#45;&gt;Node13</title>
<path fill="none" stroke="midnightblue" d="M552.69,-386.1C540.09,-376.38 524.07,-364.03 513.45,-355.83"/>
<polygon fill="midnightblue" stroke="midnightblue" points="550.7,-388.99 560.75,-392.32 554.97,-383.44 550.7,-388.99"/>
</g>
<!-- Node20 -->
<g id="node20" class="node">
<title>Node20</title>
<g id="a_node20"><a xlink:href="../../d4/d8b/body__instruction_8cpp.html" target="_top" xlink:title=" ">
<polygon fill="white" stroke="black" points="542.5,-336.5 542.5,-355.5 647.5,-355.5 647.5,-336.5 542.5,-336.5"/>
<text text-anchor="middle" x="595" y="-343.5" font-family="Helvetica,sans-Serif" font-size="10.00">body_instruction.cpp</text>
</a>
</g>
</g>
<!-- Node19&#45;&gt;Node20 -->
<g id="edge27" class="edge">
<title>Node19&#45;&gt;Node20</title>
<path fill="none" stroke="midnightblue" d="M579.8,-382.69C583.68,-373.59 588.18,-363.01 591.27,-355.75"/>
<polygon fill="midnightblue" stroke="midnightblue" points="576.5,-381.51 575.8,-392.08 582.94,-384.25 576.5,-381.51"/>
</g>
<!-- Node21&#45;&gt;Node15 -->
<g id="edge30" class="edge">
<title>Node21&#45;&gt;Node15</title>
<path fill="none" stroke="midnightblue" d="M368.73,-384.97C376.81,-376.54 386.67,-365.92 395,-356 411.36,-336.52 428.94,-312.3 437.93,-299.63"/>
<polygon fill="midnightblue" stroke="midnightblue" points="366.09,-382.67 361.65,-392.29 371.12,-387.54 366.09,-382.67"/>
</g>
<!-- Node22 -->
<g id="node22" class="node">
<title>Node22</title>
<g id="a_node22"><a xlink:href="../../db/d12/context_8cpp.html" target="_top" xlink:title=" ">
<polygon fill="white" stroke="black" points="320,-336.5 320,-355.5 386,-355.5 386,-336.5 320,-336.5"/>
<text text-anchor="middle" x="353" y="-343.5" font-family="Helvetica,sans-Serif" font-size="10.00">context.cpp</text>
</a>
</g>
</g>
<!-- Node21&#45;&gt;Node22 -->
<g id="edge29" class="edge">
<title>Node21&#45;&gt;Node22</title>
<path fill="none" stroke="midnightblue" d="M353,-381.8C353,-372.91 353,-362.78 353,-355.75"/>
<polygon fill="midnightblue" stroke="midnightblue" points="349.5,-382.08 353,-392.08 356.5,-382.08 349.5,-382.08"/>
</g>
<!-- Node24&#45;&gt;Node2 -->
<g id="edge34" class="edge">
<title>Node24&#45;&gt;Node2</title>
<path fill="none" stroke="midnightblue" d="M410.93,-502.5C364.78,-492.2 295.36,-476.71 253.01,-467.26"/>
<polygon fill="midnightblue" stroke="midnightblue" points="410.46,-505.98 420.98,-504.74 411.98,-499.15 410.46,-505.98"/>
</g>
<!-- Node24&#45;&gt;Node3 -->
<g id="edge33" class="edge">
<title>Node24&#45;&gt;Node3</title>
<path fill="none" stroke="midnightblue" d="M418.99,-501.05C359.77,-480.19 254,-431.17 254,-347 254,-347 254,-347 254,-177 254,-146.77 253.87,-134.77 234,-112 214.96,-90.18 183.1,-78.24 161.12,-72.25"/>
<polygon fill="midnightblue" stroke="midnightblue" points="418.18,-504.47 428.77,-504.38 420.44,-497.84 418.18,-504.47"/>
</g>
<!-- Node24&#45;&gt;Node9 -->
<g id="edge36" class="edge">
<title>Node24&#45;&gt;Node9</title>
<path fill="none" stroke="midnightblue" d="M505.78,-509.67C569.94,-502.31 676,-478.7 676,-403 676,-403 676,-403 676,-233 676,-169.47 463.44,-138.15 369.62,-127.42"/>
<polygon fill="midnightblue" stroke="midnightblue" points="505.05,-506.23 495.48,-510.76 505.79,-513.19 505.05,-506.23"/>
</g>
<!-- Node24&#45;&gt;Node13 -->
<g id="edge37" class="edge">
<title>Node24&#45;&gt;Node13</title>
<path fill="none" stroke="midnightblue" d="M462.93,-494.39C472.42,-458.59 492.9,-381.34 499.73,-355.57"/>
<polygon fill="midnightblue" stroke="midnightblue" points="459.54,-493.51 460.37,-504.08 466.31,-495.31 459.54,-493.51"/>
</g>
<!-- Node24&#45;&gt;Node15 -->
<g id="edge39" class="edge">
<title>Node24&#45;&gt;Node15</title>
<path fill="none" stroke="midnightblue" d="M456.82,-494.3C453.94,-448.64 446.64,-332.85 444.56,-299.88"/>
<polygon fill="midnightblue" stroke="midnightblue" points="453.33,-494.54 457.45,-504.3 460.31,-494.1 453.33,-494.54"/>
</g>
<!-- Node24&#45;&gt;Node19 -->
<g id="edge38" class="edge">
<title>Node24&#45;&gt;Node19</title>
<path fill="none" stroke="midnightblue" d="M471.67,-496.19C483,-482.64 499.81,-463.38 516,-448 530.29,-434.43 548.27,-420.47 559.95,-411.77"/>
<polygon fill="midnightblue" stroke="midnightblue" points="468.75,-494.23 465.08,-504.17 474.15,-498.69 468.75,-494.23"/>
</g>
<!-- Node25 -->
<g id="node25" class="node">
<title>Node25</title>
<g id="a_node25"><a xlink:href="../../d8/ddf/event__base_8cpp.html" target="_top" xlink:title=" ">
<polygon fill="white" stroke="black" points="524.5,-448.5 524.5,-467.5 609.5,-467.5 609.5,-448.5 524.5,-448.5"/>
<text text-anchor="middle" x="567" y="-455.5" font-family="Helvetica,sans-Serif" font-size="10.00">event_base.cpp</text>
</a>
</g>
</g>
<!-- Node24&#45;&gt;Node25 -->
<g id="edge35" class="edge">
<title>Node24&#45;&gt;Node25</title>
<path fill="none" stroke="midnightblue" d="M484.52,-499.86C504.73,-489.85 531.99,-476.35 549.53,-467.65"/>
<polygon fill="midnightblue" stroke="midnightblue" points="482.92,-496.75 475.51,-504.32 486.03,-503.02 482.92,-496.75"/>
</g>
<!-- Node26&#45;&gt;Node19 -->
<g id="edge42" class="edge">
<title>Node26&#45;&gt;Node19</title>
<path fill="none" stroke="midnightblue" d="M607.98,-495.93C617,-482.74 625.87,-464.08 619,-448 612.35,-432.42 597.35,-419.65 586.08,-411.74"/>
<polygon fill="midnightblue" stroke="midnightblue" points="605.07,-493.98 601.9,-504.09 610.68,-498.16 605.07,-493.98"/>
</g>
<!-- Node27 -->
<g id="node27" class="node">
<title>Node27</title>
<g id="a_node27"><a xlink:href="../../de/dc0/body__return_8cpp.html" target="_top" xlink:title=" ">
<polygon fill="white" stroke="black" points="704.5,-448.5 704.5,-467.5 789.5,-467.5 789.5,-448.5 704.5,-448.5"/>
<text text-anchor="middle" x="747" y="-455.5" font-family="Helvetica,sans-Serif" font-size="10.00">body_return.cpp</text>
</a>
</g>
</g>
<!-- Node26&#45;&gt;Node27 -->
<g id="edge43" class="edge">
<title>Node26&#45;&gt;Node27</title>
<path fill="none" stroke="midnightblue" d="M627.89,-501.04C656.68,-490.88 697.29,-476.55 722.87,-467.52"/>
<polygon fill="midnightblue" stroke="midnightblue" points="626.51,-497.81 618.24,-504.44 628.84,-504.42 626.51,-497.81"/>
</g>
</g>
</svg>
        <g id="navigator" transform="translate(0 0)" fill="#404254">
                <rect fill="#f2f5e9" fill-opacity="0.5" stroke="#606060" stroke-width=".5" x="0" y="0" width="60" height="60"/>
                <use id="zoomplus" xlink:href="#zoomPlus" x="17" y="9" onmousedown="handleZoom(evt,'in')"/>
                <use id="zoomminus" xlink:href="#zoomMin" x="42" y="9" onmousedown="handleZoom(evt,'out')"/>
                <use id="reset" xlink:href="#resetDef" x="30" y="36" onmousedown="handleReset()"/>
                <g id="arrowUp" xlink:href="#dirArrow" transform="translate(30 24)" onmousedown="handlePan(0,-1)">
                  <use xlink:href="#rim" fill="#404040">
                        <set attributeName="fill" to="#808080" begin="arrowUp.mouseover" end="arrowUp.mouseout"/>
                  </use>
                  <path fill="none" stroke="white" stroke-width="1.5" d="M0,-3.0v7 M-2.5,-0.5L0,-3.0L2.5,-0.5"/>
                </g>
                <g id="arrowRight" xlink:href="#dirArrow" transform="rotate(90) translate(36 -43)" onmousedown="handlePan(1,0)">
                  <use xlink:href="#rim" fill="#404040">
                        <set attributeName="fill" to="#808080" begin="arrowRight.mouseover" end="arrowRight.mouseout"/>
                  </use>
                  <path fill="none" stroke="white" stroke-width="1.5" d="M0,-3.0v7 M-2.5,-0.5L0,-3.0L2.5,-0.5"/>
                </g>
                <g id="arrowDown" xlink:href="#dirArrow" transform="rotate(180) translate(-30 -48)" onmousedown="handlePan(0,1)">
                  <use xlink:href="#rim" fill="#404040">
                        <set attributeName="fill" to="#808080" begin="arrowDown.mouseover" end="arrowDown.mouseout"/>
                  </use>
                  <path fill="none" stroke="white" stroke-width="1.5" d="M0,-3.0v7 M-2.5,-0.5L0,-3.0L2.5,-0.5"/>
                </g>
                <g id="arrowLeft" xlink:href="#dirArrow" transform="rotate(270) translate(-36 17)" onmousedown="handlePan(-1,0)">
                  <use xlink:href="#rim" fill="#404040">
                        <set attributeName="fill" to="#808080" begin="arrowLeft.mouseover" end="arrowLeft.mouseout"/>
                  </use>
                  <path fill="none" stroke="white" stroke-width="1.5" d="M0,-3.0v7 M-2.5,-0.5L0,-3.0L2.5,-0.5"/>
                </g>
        </g>
        <svg viewBox="0 0 15 15" width="100%" height="30px" preserveAspectRatio="xMaxYMin meet">
         <g id="arrow_out" transform="scale(0.3 0.3)">
          <a xlink:href="event_8h__dep__incl_org.svg" target="_base">
           <rect id="button" ry="5" rx="5" y="6" x="6" height="38" width="38"
                fill="#f2f5e9" fill-opacity="0.5" stroke="#606060" stroke-width="1.0"/>
           <path id="arrow"
             d="M 11.500037,31.436501 C 11.940474,20.09759 22.043105,11.32322 32.158766,21.979434 L 37.068811,17.246167 C 37.068811,17.246167 37.088388,32 37.088388,32 L 22.160133,31.978069 C 22.160133,31.978069 26.997745,27.140456 26.997745,27.140456 C 18.528582,18.264221 13.291696,25.230495 11.500037,31.436501 z"
             style="fill:#404040;"/>
          </a>
         </g>
        </svg>
</svg>
