<?xml version="1.0" encoding="UTF-8" standalone="no"?>
<!DOCTYPE svg PUBLIC "-//W3C//DTD SVG 1.1//EN"
 "http://www.w3.org/Graphics/SVG/1.1/DTD/svg11.dtd">
<!-- Generated by graphviz version 5.0.0 (20220708.1001)
 -->
<!-- Title: event.h Pages: 1 -->
<!--zoomable 588 -->
<svg id="main" version="1.1" xmlns="http://www.w3.org/2000/svg" xmlns:xlink="http://www.w3.org/1999/xlink" xml:space="preserve" onload="init(evt)">
<style type="text/css"><![CDATA[
.edge:hover path { stroke: red; }
.edge:hover polygon { stroke: red; fill: red; }
]]></style>
<script type="text/javascript"><![CDATA[
var edges = document.getElementsByTagName('g');
if (edges && edges.length) {
  for (var i=0;i<edges.length;i++) {
    if (edges[i].id.substr(0,4)=='edge') {
      edges[i].setAttribute('class','edge');
    }
  }
}
]]></script>
        <defs>
                <circle id="rim" cx="0" cy="0" r="7"/>
                <circle id="rim2" cx="0" cy="0" r="3.5"/>
                <g id="zoomPlus">
                        <use xlink:href="#rim" fill="#404040">
                                <set attributeName="fill" to="#808080" begin="zoomplus.mouseover" end="zoomplus.mouseout"/>
                        </use>
                        <path d="M-4,0h8M0,-4v8" fill="none" stroke="white" stroke-width="1.5" pointer-events="none"/>
                </g>
                <g id="zoomMin">
                        <use xlink:href="#rim" fill="#404040">
                                <set attributeName="fill" to="#808080" begin="zoomminus.mouseover" end="zoomminus.mouseout"/>
                        </use>
                        <path d="M-4,0h8" fill="none" stroke="white" stroke-width="1.5" pointer-events="none"/>
                </g>
                <g id="dirArrow">
                        <path fill="none" stroke="white" stroke-width="1.5" d="M0,-3.0v7 M-2.5,-0.5L0,-3.0L2.5,-0.5"/>
                </g>
               <g id="resetDef">
                       <use xlink:href="#rim2" fill="#404040">
                               <set attributeName="fill" to="#808080" begin="reset.mouseover" end="reset.mouseout"/>
                       </use>
               </g>
        </defs>

<script type="text/javascript">
var viewWidth = 798;
var viewHeight = 588;
var sectionId = 'dynsection-1';
</script>
<script xlink:href="../../svgpan.js"/>
<svg id="graph" class="graph">
<g id="viewport">
<title>event.h</title>
<polygon fill="white" stroke="transparent" points="-4,4 -4,-584 793.5,-584 793.5,4 -4,4"/>
<!-- Node1 -->
<g id="node1" class="node">
<title>Node1</title>
<g id="a_node1"><a xlink:title=" ">
<polygon fill="#bfbfbf" stroke="black" points="362,-560.5 362,-579.5 410,-579.5 410,-560.5 362,-560.5"/>
<text text-anchor="middle" x="386" y="-567.5" font-family="Helvetica,sans-Serif" font-size="10.00">event.h</text>
</a>
</g>
</g>
<!-- Node2 -->
<g id="node2" class="node">
<title>Node2</title>
<g id="a_node2"><a xlink:href="../../d2/d2f/belief__base_8h.html" target="_top" xlink:title=" ">
<polygon fill="white" stroke="black" points="284,-448.5 284,-467.5 358,-467.5 358,-448.5 284,-448.5"/>
<text text-anchor="middle" x="321" y="-455.5" font-family="Helvetica,sans-Serif" font-size="10.00">belief_base.h</text>
</a>
</g>
</g>
<!-- Node1&#45;&gt;Node2 -->
<g id="edge1" class="edge">
<title>Node1&#45;&gt;Node2</title>
<path fill="none" stroke="midnightblue" d="M366.2,-553.7C357.07,-545.73 346.78,-535.3 340,-524 328.99,-505.65 324.03,-480.54 322.09,-467.55"/>
<polygon fill="midnightblue" stroke="midnightblue" points="364.2,-556.59 374.13,-560.29 368.67,-551.21 364.2,-556.59"/>
</g>
<!-- Node17 -->
<g id="node17" class="node">
<title>Node17</title>
<g id="a_node17"><a xlink:href="../../de/d75/plan__base_8h.html" target="_top" xlink:title=" ">
<polygon fill="white" stroke="black" points="120,-224.5 120,-243.5 188,-243.5 188,-224.5 120,-224.5"/>
<text text-anchor="middle" x="154" y="-231.5" font-family="Helvetica,sans-Serif" font-size="10.00">plan_base.h</text>
</a>
</g>
</g>
<!-- Node1&#45;&gt;Node17 -->
<g id="edge43" class="edge">
<title>Node1&#45;&gt;Node17</title>
<path fill="none" stroke="midnightblue" d="M351.67,-566.6C257.15,-559.04 0,-531.8 0,-459 0,-459 0,-459 0,-345 0,-286.52 74.45,-256.18 119.82,-243.12"/>
<polygon fill="midnightblue" stroke="midnightblue" points="351.61,-570.1 361.85,-567.38 352.15,-563.12 351.61,-570.1"/>
</g>
<!-- Node23 -->
<g id="node23" class="node">
<title>Node23</title>
<g id="a_node23"><a xlink:href="../../d9/ded/body__return_8h.html" target="_top" xlink:title=" ">
<polygon fill="white" stroke="black" points="349,-504.5 349,-523.5 423,-523.5 423,-504.5 349,-504.5"/>
<text text-anchor="middle" x="386" y="-511.5" font-family="Helvetica,sans-Serif" font-size="10.00">body_return.h</text>
</a>
</g>
</g>
<!-- Node1&#45;&gt;Node23 -->
<g id="edge31" class="edge">
<title>Node1&#45;&gt;Node23</title>
<path fill="none" stroke="midnightblue" d="M386,-549.8C386,-540.91 386,-530.78 386,-523.75"/>
<polygon fill="midnightblue" stroke="midnightblue" points="382.5,-550.08 386,-560.08 389.5,-550.08 382.5,-550.08"/>
</g>
<!-- Node25 -->
<g id="node25" class="node">
<title>Node25</title>
<g id="a_node25"><a xlink:href="../../df/d1b/event_8cpp.html" target="_top" xlink:title=" ">
<polygon fill="white" stroke="black" points="441.5,-504.5 441.5,-523.5 500.5,-523.5 500.5,-504.5 441.5,-504.5"/>
<text text-anchor="middle" x="471" y="-511.5" font-family="Helvetica,sans-Serif" font-size="10.00">event.cpp</text>
</a>
</g>
</g>
<!-- Node1&#45;&gt;Node25 -->
<g id="edge34" class="edge">
<title>Node1&#45;&gt;Node25</title>
<path fill="none" stroke="midnightblue" d="M408.19,-554.9C423.78,-545 444.13,-532.07 457.38,-523.65"/>
<polygon fill="midnightblue" stroke="midnightblue" points="406.22,-552.01 399.66,-560.32 409.97,-557.92 406.22,-552.01"/>
</g>
<!-- Node26 -->
<g id="node26" class="node">
<title>Node26</title>
<g id="a_node26"><a xlink:href="../../d7/dc4/event__base_8h.html" target="_top" xlink:title=" ">
<polygon fill="white" stroke="black" points="544,-504.5 544,-523.5 618,-523.5 618,-504.5 544,-504.5"/>
<text text-anchor="middle" x="581" y="-511.5" font-family="Helvetica,sans-Serif" font-size="10.00">event_base.h</text>
</a>
</g>
</g>
<!-- Node1&#45;&gt;Node26 -->
<g id="edge35" class="edge">
<title>Node1&#45;&gt;Node26</title>
<path fill="none" stroke="midnightblue" d="M420.07,-559.56C456.84,-549.38 514.87,-533.31 550.28,-523.51"/>
<polygon fill="midnightblue" stroke="midnightblue" points="419.01,-556.23 410.3,-562.27 420.87,-562.97 419.01,-556.23"/>
</g>
<!-- Node3 -->
<g id="node3" class="node">
<title>Node3</title>
<g id="a_node3"><a xlink:href="../../de/d9e/agent_8h.html" target="_top" xlink:title=" ">
<polygon fill="white" stroke="black" points="249,-56.5 249,-75.5 297,-75.5 297,-56.5 249,-56.5"/>
<text text-anchor="middle" x="273" y="-63.5" font-family="Helvetica,sans-Serif" font-size="10.00">agent.h</text>
</a>
</g>
</g>
<!-- Node2&#45;&gt;Node3 -->
<g id="edge2" class="edge">
<title>Node2&#45;&gt;Node3</title>
<path fill="none" stroke="midnightblue" d="M273.67,-448.22C211.7,-439.84 91.57,-442.66 57,-412 34.48,-392.03 38,-377.1 38,-347 38,-347 38,-347 38,-177 38,-84.65 188.69,-69.67 248.74,-67.36"/>
<polygon fill="midnightblue" stroke="midnightblue" points="273.4,-451.72 283.82,-449.79 274.47,-444.8 273.4,-451.72"/>
</g>
<!-- Node6 -->
<g id="node6" class="node">
<title>Node6</title>
<g id="a_node6"><a xlink:href="../../de/d9b/belief__base_8cpp.html" target="_top" xlink:title=" ">
<polygon fill="white" stroke="black" points="66,-392.5 66,-411.5 150,-411.5 150,-392.5 66,-392.5"/>
<text text-anchor="middle" x="108" y="-399.5" font-family="Helvetica,sans-Serif" font-size="10.00">belief_base.cpp</text>
</a>
</g>
</g>
<!-- Node2&#45;&gt;Node6 -->
<g id="edge5" class="edge">
<title>Node2&#45;&gt;Node6</title>
<path fill="none" stroke="midnightblue" d="M277.45,-445.96C237.22,-435.76 178.3,-420.82 141.59,-411.52"/>
<polygon fill="midnightblue" stroke="midnightblue" points="276.7,-449.38 287.25,-448.44 278.42,-442.59 276.7,-449.38"/>
</g>
<!-- Node7 -->
<g id="node7" class="node">
<title>Node7</title>
<g id="a_node7"><a xlink:href="../../d0/d77/body_8h.html" target="_top" xlink:title=" ">
<polygon fill="white" stroke="black" points="366,-336.5 366,-355.5 410,-355.5 410,-336.5 366,-336.5"/>
<text text-anchor="middle" x="388" y="-343.5" font-family="Helvetica,sans-Serif" font-size="10.00">body.h</text>
</a>
</g>
</g>
<!-- Node2&#45;&gt;Node7 -->
<g id="edge6" class="edge">
<title>Node2&#45;&gt;Node7</title>
<path fill="none" stroke="midnightblue" d="M333.74,-440.14C339.83,-431.83 347.05,-421.57 353,-412 365.18,-392.41 377.53,-368.23 383.8,-355.6"/>
<polygon fill="midnightblue" stroke="midnightblue" points="330.87,-438.14 327.71,-448.26 336.48,-442.32 330.87,-438.14"/>
</g>
<!-- Node12 -->
<g id="node12" class="node">
<title>Node12</title>
<g id="a_node12"><a xlink:href="../../df/d3f/intention_8h.html" target="_top" xlink:title=" ">
<polygon fill="white" stroke="black" points="225.5,-168.5 225.5,-187.5 286.5,-187.5 286.5,-168.5 225.5,-168.5"/>
<text text-anchor="middle" x="256" y="-175.5" font-family="Helvetica,sans-Serif" font-size="10.00">intention.h</text>
</a>
</g>
</g>
<!-- Node2&#45;&gt;Node12 -->
<g id="edge28" class="edge">
<title>Node2&#45;&gt;Node12</title>
<path fill="none" stroke="midnightblue" d="M293.62,-443.41C262.51,-425.81 216,-391.98 216,-347 216,-347 216,-347 216,-289 216,-249.17 239.45,-205.85 250.44,-187.73"/>
<polygon fill="midnightblue" stroke="midnightblue" points="292.25,-446.65 302.71,-448.35 295.59,-440.5 292.25,-446.65"/>
</g>
<!-- Node14 -->
<g id="node14" class="node">
<title>Node14</title>
<g id="a_node14"><a xlink:href="../../d8/d83/intention__base_8h.html" target="_top" xlink:title=" ">
<polygon fill="white" stroke="black" points="397.5,-112.5 397.5,-131.5 484.5,-131.5 484.5,-112.5 397.5,-112.5"/>
<text text-anchor="middle" x="441" y="-119.5" font-family="Helvetica,sans-Serif" font-size="10.00">intention_base.h</text>
</a>
</g>
</g>
<!-- Node2&#45;&gt;Node14 -->
<g id="edge29" class="edge">
<title>Node2&#45;&gt;Node14</title>
<path fill="none" stroke="midnightblue" d="M340.28,-442.03C370.87,-416.78 428.81,-362.32 446,-300 461.65,-243.28 465.42,-226.08 456,-168 453.89,-154.99 448.56,-140.67 444.86,-131.75"/>
<polygon fill="midnightblue" stroke="midnightblue" points="338.02,-439.36 332.44,-448.37 342.42,-444.81 338.02,-439.36"/>
</g>
<!-- Node2&#45;&gt;Node17 -->
<g id="edge30" class="edge">
<title>Node2&#45;&gt;Node17</title>
<path fill="none" stroke="midnightblue" d="M279.14,-445.58C249.33,-436.66 212.74,-423.83 202,-412 156.21,-361.55 153.43,-271.76 153.75,-243.66"/>
<polygon fill="midnightblue" stroke="midnightblue" points="278.36,-449 288.94,-448.45 280.32,-442.28 278.36,-449"/>
</g>
<!-- Node19 -->
<g id="node19" class="node">
<title>Node19</title>
<g id="a_node19"><a xlink:href="../../d8/d67/body__instruction_8h.html" target="_top" xlink:title=" ">
<polygon fill="white" stroke="black" points="438.5,-392.5 438.5,-411.5 533.5,-411.5 533.5,-392.5 438.5,-392.5"/>
<text text-anchor="middle" x="486" y="-399.5" font-family="Helvetica,sans-Serif" font-size="10.00">body_instruction.h</text>
</a>
</g>
</g>
<!-- Node2&#45;&gt;Node19 -->
<g id="edge22" class="edge">
<title>Node2&#45;&gt;Node19</title>
<path fill="none" stroke="midnightblue" d="M356.74,-445.3C387.83,-435.13 432.15,-420.62 459.98,-411.52"/>
<polygon fill="midnightblue" stroke="midnightblue" points="355.56,-442.01 347.14,-448.44 357.74,-448.66 355.56,-442.01"/>
</g>
<!-- Node21 -->
<g id="node21" class="node">
<title>Node21</title>
<g id="a_node21"><a xlink:href="../../dc/d1e/context_8h.html" target="_top" xlink:title=" ">
<polygon fill="white" stroke="black" points="288,-392.5 288,-411.5 344,-411.5 344,-392.5 288,-392.5"/>
<text text-anchor="middle" x="316" y="-399.5" font-family="Helvetica,sans-Serif" font-size="10.00">context.h</text>
</a>
</g>
</g>
<!-- Node2&#45;&gt;Node21 -->
<g id="edge25" class="edge">
<title>Node2&#45;&gt;Node21</title>
<path fill="none" stroke="midnightblue" d="M319.25,-438.1C318.42,-429.14 317.47,-418.86 316.81,-411.75"/>
<polygon fill="midnightblue" stroke="midnightblue" points="315.77,-438.45 320.17,-448.08 322.74,-437.8 315.77,-438.45"/>
</g>
<!-- Node4 -->
<g id="node4" class="node">
<title>Node4</title>
<g id="a_node4"><a xlink:href="../../dd/d3d/agent_8cpp.html" target="_top" xlink:title=" ">
<polygon fill="white" stroke="black" points="199.5,-0.5 199.5,-19.5 258.5,-19.5 258.5,-0.5 199.5,-0.5"/>
<text text-anchor="middle" x="229" y="-7.5" font-family="Helvetica,sans-Serif" font-size="10.00">agent.cpp</text>
</a>
</g>
</g>
<!-- Node3&#45;&gt;Node4 -->
<g id="edge3" class="edge">
<title>Node3&#45;&gt;Node4</title>
<path fill="none" stroke="midnightblue" d="M259.27,-48.14C251.6,-38.74 242.37,-27.4 236.13,-19.75"/>
<polygon fill="midnightblue" stroke="midnightblue" points="256.7,-50.54 265.73,-56.08 262.13,-46.12 256.7,-50.54"/>
</g>
<!-- Node5 -->
<g id="node5" class="node">
<title>Node5</title>
<g id="a_node5"><a xlink:href="../../d4/d91/agent__loop_8cpp.html" target="_top" xlink:title=" ">
<polygon fill="white" stroke="black" points="277,-0.5 277,-19.5 359,-19.5 359,-0.5 277,-0.5"/>
<text text-anchor="middle" x="318" y="-7.5" font-family="Helvetica,sans-Serif" font-size="10.00">agent_loop.cpp</text>
</a>
</g>
</g>
<!-- Node3&#45;&gt;Node5 -->
<g id="edge4" class="edge">
<title>Node3&#45;&gt;Node5</title>
<path fill="none" stroke="midnightblue" d="M287.05,-48.14C294.89,-38.74 304.33,-27.4 310.71,-19.75"/>
<polygon fill="midnightblue" stroke="midnightblue" points="284.14,-46.16 280.43,-56.08 289.52,-50.64 284.14,-46.16"/>
</g>
<!-- Node8 -->
<g id="node8" class="node">
<title>Node8</title>
<g id="a_node8"><a xlink:href="../../d1/d5f/body_8cpp.html" target="_top" xlink:title=" ">
<polygon fill="white" stroke="black" points="381.5,-280.5 381.5,-299.5 436.5,-299.5 436.5,-280.5 381.5,-280.5"/>
<text text-anchor="middle" x="409" y="-287.5" font-family="Helvetica,sans-Serif" font-size="10.00">body.cpp</text>
</a>
</g>
</g>
<!-- Node7&#45;&gt;Node8 -->
<g id="edge7" class="edge">
<title>Node7&#45;&gt;Node8</title>
<path fill="none" stroke="midnightblue" d="M395.12,-326.69C398.66,-317.59 402.77,-307.01 405.6,-299.75"/>
<polygon fill="midnightblue" stroke="midnightblue" points="391.83,-325.49 391.47,-336.08 398.35,-328.03 391.83,-325.49"/>
</g>
<!-- Node9 -->
<g id="node9" class="node">
<title>Node9</title>
<g id="a_node9"><a xlink:href="../../d9/d4e/plan_8h.html" target="_top" xlink:title=" ">
<polygon fill="white" stroke="black" points="321,-280.5 321,-299.5 363,-299.5 363,-280.5 321,-280.5"/>
<text text-anchor="middle" x="342" y="-287.5" font-family="Helvetica,sans-Serif" font-size="10.00">plan.h</text>
</a>
</g>
</g>
<!-- Node7&#45;&gt;Node9 -->
<g id="edge8" class="edge">
<title>Node7&#45;&gt;Node9</title>
<path fill="none" stroke="midnightblue" d="M373.89,-328.43C365.82,-318.97 356.04,-307.48 349.45,-299.75"/>
<polygon fill="midnightblue" stroke="midnightblue" points="371.25,-330.74 380.4,-336.08 376.58,-326.2 371.25,-330.74"/>
</g>
<!-- Node10 -->
<g id="node10" class="node">
<title>Node10</title>
<g id="a_node10"><a xlink:href="../../de/d3c/instantiated__plan_8h.html" target="_top" xlink:title=" ">
<polygon fill="white" stroke="black" points="315,-224.5 315,-243.5 413,-243.5 413,-224.5 315,-224.5"/>
<text text-anchor="middle" x="364" y="-231.5" font-family="Helvetica,sans-Serif" font-size="10.00">instantiated_plan.h</text>
</a>
</g>
</g>
<!-- Node9&#45;&gt;Node10 -->
<g id="edge9" class="edge">
<title>Node9&#45;&gt;Node10</title>
<path fill="none" stroke="midnightblue" d="M349.46,-270.69C353.17,-261.59 357.48,-251.01 360.43,-243.75"/>
<polygon fill="midnightblue" stroke="midnightblue" points="346.16,-269.5 345.63,-280.08 352.65,-272.14 346.16,-269.5"/>
</g>
<!-- Node9&#45;&gt;Node14 -->
<g id="edge16" class="edge">
<title>Node9&#45;&gt;Node14</title>
<path fill="none" stroke="midnightblue" d="M372.98,-279.19C390.13,-272.13 410.3,-260.85 422,-244 446.75,-208.37 444.12,-152.69 442.03,-131.54"/>
<polygon fill="midnightblue" stroke="midnightblue" points="371.42,-276.04 363.31,-282.86 373.9,-282.58 371.42,-276.04"/>
</g>
<!-- Node16 -->
<g id="node16" class="node">
<title>Node16</title>
<g id="a_node16"><a xlink:href="../../d7/df1/plan_8cpp.html" target="_top" xlink:title=" ">
<polygon fill="white" stroke="black" points="244.5,-224.5 244.5,-243.5 297.5,-243.5 297.5,-224.5 244.5,-224.5"/>
<text text-anchor="middle" x="271" y="-231.5" font-family="Helvetica,sans-Serif" font-size="10.00">plan.cpp</text>
</a>
</g>
</g>
<!-- Node9&#45;&gt;Node16 -->
<g id="edge17" class="edge">
<title>Node9&#45;&gt;Node16</title>
<path fill="none" stroke="midnightblue" d="M322.41,-274.1C309.63,-264.38 293.39,-252.03 282.61,-243.83"/>
<polygon fill="midnightblue" stroke="midnightblue" points="320.51,-277.06 330.59,-280.32 324.75,-271.48 320.51,-277.06"/>
</g>
<!-- Node9&#45;&gt;Node17 -->
<g id="edge18" class="edge">
<title>Node9&#45;&gt;Node17</title>
<path fill="none" stroke="midnightblue" d="M311.04,-280.11C275.77,-269.98 218.53,-253.53 183.76,-243.55"/>
<polygon fill="midnightblue" stroke="midnightblue" points="310.22,-283.51 320.8,-282.91 312.15,-276.79 310.22,-283.51"/>
</g>
<!-- Node11 -->
<g id="node11" class="node">
<title>Node11</title>
<g id="a_node11"><a xlink:href="../../df/dbd/instantiated__plan_8cpp.html" target="_top" xlink:title=" ">
<polygon fill="white" stroke="black" points="305,-168.5 305,-187.5 413,-187.5 413,-168.5 305,-168.5"/>
<text text-anchor="middle" x="359" y="-175.5" font-family="Helvetica,sans-Serif" font-size="10.00">instantiated_plan.cpp</text>
</a>
</g>
</g>
<!-- Node10&#45;&gt;Node11 -->
<g id="edge10" class="edge">
<title>Node10&#45;&gt;Node11</title>
<path fill="none" stroke="midnightblue" d="M362.25,-214.1C361.42,-205.14 360.47,-194.86 359.81,-187.75"/>
<polygon fill="midnightblue" stroke="midnightblue" points="358.77,-214.45 363.17,-224.08 365.74,-213.8 358.77,-214.45"/>
</g>
<!-- Node10&#45;&gt;Node12 -->
<g id="edge11" class="edge">
<title>Node10&#45;&gt;Node12</title>
<path fill="none" stroke="midnightblue" d="M337.45,-219.73C317.45,-209.73 290.61,-196.31 273.31,-187.65"/>
<polygon fill="midnightblue" stroke="midnightblue" points="336.14,-222.98 346.65,-224.32 339.27,-216.72 336.14,-222.98"/>
</g>
<!-- Node13 -->
<g id="node13" class="node">
<title>Node13</title>
<g id="a_node13"><a xlink:href="../../d4/db4/intention_8cpp.html" target="_top" xlink:title=" ">
<polygon fill="white" stroke="black" points="223.5,-112.5 223.5,-131.5 294.5,-131.5 294.5,-112.5 223.5,-112.5"/>
<text text-anchor="middle" x="259" y="-119.5" font-family="Helvetica,sans-Serif" font-size="10.00">intention.cpp</text>
</a>
</g>
</g>
<!-- Node12&#45;&gt;Node13 -->
<g id="edge12" class="edge">
<title>Node12&#45;&gt;Node13</title>
<path fill="none" stroke="midnightblue" d="M257.07,-157.8C257.56,-148.91 258.12,-138.78 258.51,-131.75"/>
<polygon fill="midnightblue" stroke="midnightblue" points="253.56,-157.9 256.5,-168.08 260.54,-158.29 253.56,-157.9"/>
</g>
<!-- Node12&#45;&gt;Node14 -->
<g id="edge13" class="edge">
<title>Node12&#45;&gt;Node14</title>
<path fill="none" stroke="midnightblue" d="M295.17,-165.57C330.07,-155.38 380.35,-140.7 411.82,-131.52"/>
<polygon fill="midnightblue" stroke="midnightblue" points="293.93,-162.28 285.31,-168.44 295.89,-169 293.93,-162.28"/>
</g>
<!-- Node14&#45;&gt;Node3 -->
<g id="edge14" class="edge">
<title>Node14&#45;&gt;Node3</title>
<path fill="none" stroke="midnightblue" d="M404.76,-109.35C372.17,-98.88 325.22,-83.78 297.05,-74.73"/>
<polygon fill="midnightblue" stroke="midnightblue" points="403.79,-112.72 414.38,-112.44 405.93,-106.05 403.79,-112.72"/>
</g>
<!-- Node15 -->
<g id="node15" class="node">
<title>Node15</title>
<g id="a_node15"><a xlink:href="../../d2/dd9/intention__base_8cpp.html" target="_top" xlink:title=" ">
<polygon fill="white" stroke="black" points="392,-56.5 392,-75.5 490,-75.5 490,-56.5 392,-56.5"/>
<text text-anchor="middle" x="441" y="-63.5" font-family="Helvetica,sans-Serif" font-size="10.00">intention_base.cpp</text>
</a>
</g>
</g>
<!-- Node14&#45;&gt;Node15 -->
<g id="edge15" class="edge">
<title>Node14&#45;&gt;Node15</title>
<path fill="none" stroke="midnightblue" d="M441,-101.8C441,-92.91 441,-82.78 441,-75.75"/>
<polygon fill="midnightblue" stroke="midnightblue" points="437.5,-102.08 441,-112.08 444.5,-102.08 437.5,-102.08"/>
</g>
<!-- Node17&#45;&gt;Node3 -->
<g id="edge19" class="edge">
<title>Node17&#45;&gt;Node3</title>
<path fill="none" stroke="midnightblue" d="M162.39,-214.97C177.15,-183.39 206.89,-120.61 214,-112 226.54,-96.8 245.17,-83.69 258.12,-75.61"/>
<polygon fill="midnightblue" stroke="midnightblue" points="159.06,-213.81 158.01,-224.35 165.41,-216.77 159.06,-213.81"/>
</g>
<!-- Node17&#45;&gt;Node12 -->
<g id="edge20" class="edge">
<title>Node17&#45;&gt;Node12</title>
<path fill="none" stroke="midnightblue" d="M179.33,-219.59C198.19,-209.61 223.38,-196.27 239.65,-187.65"/>
<polygon fill="midnightblue" stroke="midnightblue" points="177.59,-216.55 170.39,-224.32 180.86,-222.74 177.59,-216.55"/>
</g>
<!-- Node18 -->
<g id="node18" class="node">
<title>Node18</title>
<g id="a_node18"><a xlink:href="../../d4/d51/plan__base_8cpp.html" target="_top" xlink:title=" ">
<polygon fill="white" stroke="black" points="87.5,-168.5 87.5,-187.5 166.5,-187.5 166.5,-168.5 87.5,-168.5"/>
<text text-anchor="middle" x="127" y="-175.5" font-family="Helvetica,sans-Serif" font-size="10.00">plan_base.cpp</text>
</a>
</g>
</g>
<!-- Node17&#45;&gt;Node18 -->
<g id="edge21" class="edge">
<title>Node17&#45;&gt;Node18</title>
<path fill="none" stroke="midnightblue" d="M144.99,-214.98C140.41,-205.82 135.05,-195.09 131.38,-187.75"/>
<polygon fill="midnightblue" stroke="midnightblue" points="141.94,-216.7 149.54,-224.08 148.2,-213.57 141.94,-216.7"/>
</g>
<!-- Node19&#45;&gt;Node7 -->
<g id="edge23" class="edge">
<title>Node19&#45;&gt;Node7</title>
<path fill="none" stroke="midnightblue" d="M461.41,-387.45C443.32,-377.48 419.27,-364.23 403.71,-355.65"/>
<polygon fill="midnightblue" stroke="midnightblue" points="459.81,-390.56 470.25,-392.32 463.19,-384.43 459.81,-390.56"/>
</g>
<!-- Node20 -->
<g id="node20" class="node">
<title>Node20</title>
<g id="a_node20"><a xlink:href="../../d4/d8b/body__instruction_8cpp.html" target="_top" xlink:title=" ">
<polygon fill="white" stroke="black" points="466.5,-336.5 466.5,-355.5 571.5,-355.5 571.5,-336.5 466.5,-336.5"/>
<text text-anchor="middle" x="519" y="-343.5" font-family="Helvetica,sans-Serif" font-size="10.00">body_instruction.cpp</text>
</a>
</g>
</g>
<!-- Node19&#45;&gt;Node20 -->
<g id="edge24" class="edge">
<title>Node19&#45;&gt;Node20</title>
<path fill="none" stroke="midnightblue" d="M496.83,-383.27C502.47,-374.05 509.12,-363.17 513.65,-355.75"/>
<polygon fill="midnightblue" stroke="midnightblue" points="493.68,-381.73 491.45,-392.08 499.65,-385.38 493.68,-381.73"/>
</g>
<!-- Node21&#45;&gt;Node9 -->
<g id="edge27" class="edge">
<title>Node21&#45;&gt;Node9</title>
<path fill="none" stroke="midnightblue" d="M320.41,-382.35C326.1,-358.25 335.78,-317.31 339.97,-299.59"/>
<polygon fill="midnightblue" stroke="midnightblue" points="316.93,-381.83 318.04,-392.37 323.75,-383.44 316.93,-381.83"/>
</g>
<!-- Node22 -->
<g id="node22" class="node">
<title>Node22</title>
<g id="a_node22"><a xlink:href="../../db/d12/context_8cpp.html" target="_top" xlink:title=" ">
<polygon fill="white" stroke="black" points="244,-336.5 244,-355.5 310,-355.5 310,-336.5 244,-336.5"/>
<text text-anchor="middle" x="277" y="-343.5" font-family="Helvetica,sans-Serif" font-size="10.00">context.cpp</text>
</a>
</g>
</g>
<!-- Node21&#45;&gt;Node22 -->
<g id="edge26" class="edge">
<title>Node21&#45;&gt;Node22</title>
<path fill="none" stroke="midnightblue" d="M303.62,-383.86C296.86,-374.5 288.79,-363.33 283.32,-355.75"/>
<polygon fill="midnightblue" stroke="midnightblue" points="300.87,-386.03 309.56,-392.08 306.54,-381.93 300.87,-386.03"/>
</g>
<!-- Node23&#45;&gt;Node19 -->
<g id="edge32" class="edge">
<title>Node23&#45;&gt;Node19</title>
<path fill="none" stroke="midnightblue" d="M400.64,-496.9C422.14,-473.25 461.5,-429.95 478.19,-411.59"/>
<polygon fill="midnightblue" stroke="midnightblue" points="397.98,-494.61 393.85,-504.37 403.16,-499.32 397.98,-494.61"/>
</g>
<!-- Node24 -->
<g id="node24" class="node">
<title>Node24</title>
<g id="a_node24"><a xlink:href="../../de/dc0/body__return_8cpp.html" target="_top" xlink:title=" ">
<polygon fill="white" stroke="black" points="180.5,-448.5 180.5,-467.5 265.5,-467.5 265.5,-448.5 180.5,-448.5"/>
<text text-anchor="middle" x="223" y="-455.5" font-family="Helvetica,sans-Serif" font-size="10.00">body_return.cpp</text>
</a>
</g>
</g>
<!-- Node23&#45;&gt;Node24 -->
<g id="edge33" class="edge">
<title>Node23&#45;&gt;Node24</title>
<path fill="none" stroke="midnightblue" d="M350.3,-501.17C319.6,-491 276.08,-476.59 248.71,-467.52"/>
<polygon fill="midnightblue" stroke="midnightblue" points="349.58,-504.62 360.17,-504.44 351.78,-497.98 349.58,-504.62"/>
</g>
<!-- Node26&#45;&gt;Node2 -->
<g id="edge37" class="edge">
<title>Node26&#45;&gt;Node2</title>
<path fill="none" stroke="midnightblue" d="M533.75,-503.19C483.3,-492.71 404.39,-476.32 358.18,-466.72"/>
<polygon fill="midnightblue" stroke="midnightblue" points="533.25,-506.66 543.75,-505.26 534.67,-499.8 533.25,-506.66"/>
</g>
<!-- Node26&#45;&gt;Node3 -->
<g id="edge36" class="edge">
<title>Node26&#45;&gt;Node3</title>
<path fill="none" stroke="midnightblue" d="M594.03,-495.92C620.06,-460.04 676,-373.35 676,-291 676,-291 676,-291 676,-177 676,-137.47 383.76,-85.5 297,-70.94"/>
<polygon fill="midnightblue" stroke="midnightblue" points="590.98,-494.16 587.83,-504.28 596.6,-498.33 590.98,-494.16"/>
</g>
<!-- Node26&#45;&gt;Node7 -->
<g id="edge38" class="edge">
<title>Node26&#45;&gt;Node7</title>
<path fill="none" stroke="midnightblue" d="M580.39,-494.04C578.49,-467.51 571.1,-419.5 543,-392 524.02,-373.43 448.21,-357.7 410.1,-350.77"/>
<polygon fill="midnightblue" stroke="midnightblue" points="576.9,-494.46 580.92,-504.27 583.89,-494.1 576.9,-494.46"/>
</g>
<!-- Node26&#45;&gt;Node9 -->
<g id="edge42" class="edge">
<title>Node26&#45;&gt;Node9</title>
<path fill="none" stroke="midnightblue" d="M587.94,-494.72C600.1,-459.27 620.39,-380.72 581,-336 550,-300.8 418.71,-310.56 373,-300 369.83,-299.27 366.51,-298.41 363.26,-297.51"/>
<polygon fill="midnightblue" stroke="midnightblue" points="584.61,-493.66 584.51,-504.26 591.19,-496.03 584.61,-493.66"/>
</g>
<!-- Node26&#45;&gt;Node14 -->
<g id="edge41" class="edge">
<title>Node26&#45;&gt;Node14</title>
<path fill="none" stroke="midnightblue" d="M595.06,-496.54C601.23,-488.45 607.97,-478.24 612,-468 641.09,-394 638,-370.51 638,-291 638,-291 638,-291 638,-233 638,-163.27 542.76,-137.33 484.72,-127.99"/>
<polygon fill="midnightblue" stroke="midnightblue" points="592.28,-494.41 588.74,-504.4 597.73,-498.8 592.28,-494.41"/>
</g>
<!-- Node26&#45;&gt;Node19 -->
<g id="edge39" class="edge">
<title>Node26&#45;&gt;Node19</title>
<path fill="none" stroke="midnightblue" d="M566.82,-496.59C546.34,-472.87 509.21,-429.87 493.42,-411.59"/>
<polygon fill="midnightblue" stroke="midnightblue" points="564.36,-499.09 573.55,-504.37 569.66,-494.51 564.36,-499.09"/>
</g>
<!-- Node27 -->
<g id="node27" class="node">
<title>Node27</title>
<g id="a_node27"><a xlink:href="../../d8/ddf/event__base_8cpp.html" target="_top" xlink:title=" ">
<polygon fill="white" stroke="black" points="704.5,-448.5 704.5,-467.5 789.5,-467.5 789.5,-448.5 704.5,-448.5"/>
<text text-anchor="middle" x="747" y="-455.5" font-family="Helvetica,sans-Serif" font-size="10.00">event_base.cpp</text>
</a>
</g>
</g>
<!-- Node26&#45;&gt;Node27 -->
<g id="edge40" class="edge">
<title>Node26&#45;&gt;Node27</title>
<path fill="none" stroke="midnightblue" d="M616.95,-501.3C648.23,-491.13 692.82,-476.62 720.82,-467.52"/>
<polygon fill="midnightblue" stroke="midnightblue" points="615.73,-498.02 607.3,-504.44 617.9,-504.68 615.73,-498.02"/>
</g>
</g>
</svg>
        <g id="navigator" transform="translate(0 0)" fill="#404254">
                <rect fill="#f2f5e9" fill-opacity="0.5" stroke="#606060" stroke-width=".5" x="0" y="0" width="60" height="60"/>
                <use id="zoomplus" xlink:href="#zoomPlus" x="17" y="9" onmousedown="handleZoom(evt,'in')"/>
                <use id="zoomminus" xlink:href="#zoomMin" x="42" y="9" onmousedown="handleZoom(evt,'out')"/>
                <use id="reset" xlink:href="#resetDef" x="30" y="36" onmousedown="handleReset()"/>
                <g id="arrowUp" xlink:href="#dirArrow" transform="translate(30 24)" onmousedown="handlePan(0,-1)">
                  <use xlink:href="#rim" fill="#404040">
                        <set attributeName="fill" to="#808080" begin="arrowUp.mouseover" end="arrowUp.mouseout"/>
                  </use>
                  <path fill="none" stroke="white" stroke-width="1.5" d="M0,-3.0v7 M-2.5,-0.5L0,-3.0L2.5,-0.5"/>
                </g>
                <g id="arrowRight" xlink:href="#dirArrow" transform="rotate(90) translate(36 -43)" onmousedown="handlePan(1,0)">
                  <use xlink:href="#rim" fill="#404040">
                        <set attributeName="fill" to="#808080" begin="arrowRight.mouseover" end="arrowRight.mouseout"/>
                  </use>
                  <path fill="none" stroke="white" stroke-width="1.5" d="M0,-3.0v7 M-2.5,-0.5L0,-3.0L2.5,-0.5"/>
                </g>
                <g id="arrowDown" xlink:href="#dirArrow" transform="rotate(180) translate(-30 -48)" onmousedown="handlePan(0,1)">
                  <use xlink:href="#rim" fill="#404040">
                        <set attributeName="fill" to="#808080" begin="arrowDown.mouseover" end="arrowDown.mouseout"/>
                  </use>
                  <path fill="none" stroke="white" stroke-width="1.5" d="M0,-3.0v7 M-2.5,-0.5L0,-3.0L2.5,-0.5"/>
                </g>
                <g id="arrowLeft" xlink:href="#dirArrow" transform="rotate(270) translate(-36 17)" onmousedown="handlePan(-1,0)">
                  <use xlink:href="#rim" fill="#404040">
                        <set attributeName="fill" to="#808080" begin="arrowLeft.mouseover" end="arrowLeft.mouseout"/>
                  </use>
                  <path fill="none" stroke="white" stroke-width="1.5" d="M0,-3.0v7 M-2.5,-0.5L0,-3.0L2.5,-0.5"/>
                </g>
        </g>
        <svg viewBox="0 0 15 15" width="100%" height="30px" preserveAspectRatio="xMaxYMin meet">
         <g id="arrow_out" transform="scale(0.3 0.3)">
          <a xlink:href="event_8h__dep__incl_org.svg" target="_base">
           <rect id="button" ry="5" rx="5" y="6" x="6" height="38" width="38"
                fill="#f2f5e9" fill-opacity="0.5" stroke="#606060" stroke-width="1.0"/>
           <path id="arrow"
             d="M 11.500037,31.436501 C 11.940474,20.09759 22.043105,11.32322 32.158766,21.979434 L 37.068811,17.246167 C 37.068811,17.246167 37.088388,32 37.088388,32 L 22.160133,31.978069 C 22.160133,31.978069 26.997745,27.140456 26.997745,27.140456 C 18.528582,18.264221 13.291696,25.230495 11.500037,31.436501 z"
             style="fill:#404040;"/>
          </a>
         </g>
        </svg>
</svg>
