<?xml version="1.0" encoding="UTF-8" standalone="no"?>
<!DOCTYPE svg PUBLIC "-//W3C//DTD SVG 1.1//EN"
 "http://www.w3.org/Graphics/SVG/1.1/DTD/svg11.dtd">
<!-- Generated by graphviz version 2.47.1 (20210421.1823)
 -->
<!-- Title: belief.h Pages: 1 -->
<svg width="128pt" height="140pt"
 viewBox="0.00 0.00 128.27 140.00" xmlns="http://www.w3.org/2000/svg" xmlns:xlink="http://www.w3.org/1999/xlink">
<g id="graph0" class="graph" transform="scale(1 1) rotate(0) translate(4 136)">
<title>belief.h</title>
<polygon fill="white" stroke="transparent" points="-4,4 -4,-136 124.27,-136 124.27,4 -4,4"/>
<!-- Node1 -->
<g id="node1" class="node">
<title>Node1</title>
<g id="a_node1"><a xlink:title=" ">
<polygon fill="#bfbfbf" stroke="black" points="72.5,-112.5 72.5,-131.5 119.5,-131.5 119.5,-112.5 72.5,-112.5"/>
<text text-anchor="middle" x="96" y="-119.5" font-family="Helvetica,sans-Serif" font-size="10.00">belief.h</text>
</a>
</g>
</g>
<!-- Node2 -->
<g id="node2" class="node">
<title>Node2</title>
<g id="a_node2"><a xlink:href="../../d5/d6b/proposition_8h.html" target="_top" xlink:title=" ">
<polygon fill="white" stroke="black" points="0,-56.5 0,-75.5 110,-75.5 110,-56.5 0,-56.5"/>
<text text-anchor="middle" x="55" y="-63.5" font-family="Helvetica,sans-Serif" font-size="10.00">../syntax/proposition.h</text>
</a>
</g>
</g>
<!-- Node1&#45;&gt;Node2 -->
<g id="edge1" class="edge">
<title>Node1&#45;&gt;Node2</title>
<path fill="none" stroke="midnightblue" d="M89.23,-112.08C83.44,-104.46 74.94,-93.26 67.86,-83.94"/>
<polygon fill="midnightblue" stroke="midnightblue" points="70.48,-81.6 61.64,-75.75 64.9,-85.83 70.48,-81.6"/>
</g>
<!-- Node3 -->
<g id="node3" class="node">
<title>Node3</title>
<g id="a_node3"><a xlink:title=" ">
<polygon fill="white" stroke="#bfbfbf" points="73,-0.5 73,-19.5 119,-19.5 119,-0.5 73,-0.5"/>
<text text-anchor="middle" x="96" y="-7.5" font-family="Helvetica,sans-Serif" font-size="10.00">cstdint</text>
</a>
</g>
</g>
<!-- Node1&#45;&gt;Node3 -->
<g id="edge3" class="edge">
<title>Node1&#45;&gt;Node3</title>
<path fill="none" stroke="midnightblue" d="M102.1,-112.19C107.75,-103.46 115.76,-89.48 119,-76 122.97,-59.49 115.48,-41.32 108.01,-28.4"/>
<polygon fill="midnightblue" stroke="midnightblue" points="110.79,-26.24 102.49,-19.66 104.87,-29.98 110.79,-26.24"/>
</g>
<!-- Node2&#45;&gt;Node3 -->
<g id="edge2" class="edge">
<title>Node2&#45;&gt;Node3</title>
<path fill="none" stroke="midnightblue" d="M61.77,-56.08C67.56,-48.46 76.06,-37.26 83.14,-27.94"/>
<polygon fill="midnightblue" stroke="midnightblue" points="86.1,-29.83 89.36,-19.75 80.52,-25.6 86.1,-29.83"/>
</g>
</g>
</svg>
