<?xml version="1.0" encoding="UTF-8" standalone="no"?>
<!DOCTYPE svg PUBLIC "-//W3C//DTD SVG 1.1//EN"
 "http://www.w3.org/Graphics/SVG/1.1/DTD/svg11.dtd">
<!-- Generated by graphviz version 5.0.0 (20220708.1001)
 -->
<!-- Title: event.h Pages: 1 -->
<svg width="401pt" height="140pt"
 viewBox="0.00 0.00 400.50 140.00" xmlns="http://www.w3.org/2000/svg" xmlns:xlink="http://www.w3.org/1999/xlink">
<g id="graph0" class="graph" transform="scale(1 1) rotate(0) translate(4 136)">
<title>event.h</title>
<polygon fill="white" stroke="transparent" points="-4,4 -4,-136 396.5,-136 396.5,4 -4,4"/>
<!-- Node1 -->
<g id="node1" class="node">
<title>Node1</title>
<g id="a_node1"><a xlink:title=" ">
<polygon fill="#bfbfbf" stroke="black" points="160,-112.5 160,-131.5 208,-131.5 208,-112.5 160,-112.5"/>
<text text-anchor="middle" x="184" y="-119.5" font-family="Helvetica,sans-Serif" font-size="10.00">event.h</text>
</a>
</g>
</g>
<!-- Node2 -->
<g id="node2" class="node">
<title>Node2</title>
<g id="a_node2"><a xlink:href="../../d5/d6b/proposition_8h.html" target="_top" xlink:title=" ">
<polygon fill="white" stroke="black" points="0,-56.5 0,-75.5 110,-75.5 110,-56.5 0,-56.5"/>
<text text-anchor="middle" x="55" y="-63.5" font-family="Helvetica,sans-Serif" font-size="10.00">../syntax/proposition.h</text>
</a>
</g>
</g>
<!-- Node1&#45;&gt;Node2 -->
<g id="edge1" class="edge">
<title>Node1&#45;&gt;Node2</title>
<path fill="none" stroke="midnightblue" d="M163.56,-112.44C142.33,-103.56 108.9,-89.56 84.75,-79.45"/>
<polygon fill="midnightblue" stroke="midnightblue" points="85.92,-76.15 75.34,-75.52 83.22,-82.61 85.92,-76.15"/>
</g>
<!-- Node3 -->
<g id="node3" class="node">
<title>Node3</title>
<g id="a_node3"><a xlink:title=" ">
<polygon fill="white" stroke="#bfbfbf" points="115,-0.5 115,-19.5 161,-19.5 161,-0.5 115,-0.5"/>
<text text-anchor="middle" x="138" y="-7.5" font-family="Helvetica,sans-Serif" font-size="10.00">cstdint</text>
</a>
</g>
</g>
<!-- Node1&#45;&gt;Node3 -->
<g id="edge6" class="edge">
<title>Node1&#45;&gt;Node3</title>
<path fill="none" stroke="midnightblue" d="M178.21,-112.34C172.48,-103.5 163.77,-89.23 158,-76 151.36,-60.78 145.98,-42.67 142.48,-29.43"/>
<polygon fill="midnightblue" stroke="midnightblue" points="145.85,-28.47 140,-19.63 139.06,-30.19 145.85,-28.47"/>
</g>
<!-- Node4 -->
<g id="node4" class="node">
<title>Node4</title>
<g id="a_node4"><a xlink:href="../../db/d50/event__operator_8h.html" target="_top" xlink:title=" ">
<polygon fill="white" stroke="black" points="166.5,-56.5 166.5,-75.5 293.5,-75.5 293.5,-56.5 166.5,-56.5"/>
<text text-anchor="middle" x="230" y="-63.5" font-family="Helvetica,sans-Serif" font-size="10.00">../syntax/event_operator.h</text>
</a>
</g>
</g>
<!-- Node1&#45;&gt;Node4 -->
<g id="edge3" class="edge">
<title>Node1&#45;&gt;Node4</title>
<path fill="none" stroke="midnightblue" d="M191.6,-112.08C198.23,-104.3 208.02,-92.8 216.06,-83.37"/>
<polygon fill="midnightblue" stroke="midnightblue" points="218.73,-85.63 222.55,-75.75 213.4,-81.09 218.73,-85.63"/>
</g>
<!-- Node5 -->
<g id="node5" class="node">
<title>Node5</title>
<g id="a_node5"><a xlink:href="../../df/dc3/event__id_8h.html" target="_top" xlink:title=" ">
<polygon fill="white" stroke="black" points="311.5,-56.5 311.5,-75.5 392.5,-75.5 392.5,-56.5 311.5,-56.5"/>
<text text-anchor="middle" x="352" y="-63.5" font-family="Helvetica,sans-Serif" font-size="10.00">../lib/event_id.h</text>
</a>
</g>
</g>
<!-- Node1&#45;&gt;Node5 -->
<g id="edge4" class="edge">
<title>Node1&#45;&gt;Node5</title>
<path fill="none" stroke="midnightblue" d="M208.07,-113.26C236.27,-104.2 283.28,-89.09 315.87,-78.61"/>
<polygon fill="midnightblue" stroke="midnightblue" points="317.03,-81.92 325.48,-75.52 314.89,-75.25 317.03,-81.92"/>
</g>
<!-- Node2&#45;&gt;Node3 -->
<g id="edge2" class="edge">
<title>Node2&#45;&gt;Node3</title>
<path fill="none" stroke="midnightblue" d="M68.34,-56.32C81.16,-47.98 100.78,-35.21 115.94,-25.35"/>
<polygon fill="midnightblue" stroke="midnightblue" points="118.22,-28.04 124.7,-19.65 114.41,-22.17 118.22,-28.04"/>
</g>
<!-- Node5&#45;&gt;Node3 -->
<g id="edge5" class="edge">
<title>Node5&#45;&gt;Node3</title>
<path fill="none" stroke="midnightblue" d="M318.09,-56.44C277.76,-46.27 210.89,-29.39 170.97,-19.32"/>
<polygon fill="midnightblue" stroke="midnightblue" points="171.75,-15.91 161.2,-16.85 170.04,-22.69 171.75,-15.91"/>
</g>
</g>
</svg>
