<?xml version="1.0" encoding="UTF-8" standalone="no"?>
<!DOCTYPE svg PUBLIC "-//W3C//DTD SVG 1.1//EN"
 "http://www.w3.org/Graphics/SVG/1.1/DTD/svg11.dtd">
<!-- Generated by graphviz version 2.48.0 (20210719.0153)
 -->
<!-- Title: plan.cpp Pages: 1 -->
<!--zoomable 476 -->
<svg id="main" version="1.1" xmlns="http://www.w3.org/2000/svg" xmlns:xlink="http://www.w3.org/1999/xlink" xml:space="preserve" onload="init(evt)">
<style type="text/css"><![CDATA[
.edge:hover path { stroke: red; }
.edge:hover polygon { stroke: red; fill: red; }
]]></style>
<script type="text/javascript"><![CDATA[
var edges = document.getElementsByTagName('g');
if (edges && edges.length) {
  for (var i=0;i<edges.length;i++) {
    if (edges[i].id.substr(0,4)=='edge') {
      edges[i].setAttribute('class','edge');
    }
  }
}
]]></script>
        <defs>
                <circle id="rim" cx="0" cy="0" r="7"/>
                <circle id="rim2" cx="0" cy="0" r="3.5"/>
                <g id="zoomPlus">
                        <use xlink:href="#rim" fill="#404040">
                                <set attributeName="fill" to="#808080" begin="zoomplus.mouseover" end="zoomplus.mouseout"/>
                        </use>
                        <path d="M-4,0h8M0,-4v8" fill="none" stroke="white" stroke-width="1.5" pointer-events="none"/>
                </g>
                <g id="zoomMin">
                        <use xlink:href="#rim" fill="#404040">
                                <set attributeName="fill" to="#808080" begin="zoomminus.mouseover" end="zoomminus.mouseout"/>
                        </use>
                        <path d="M-4,0h8" fill="none" stroke="white" stroke-width="1.5" pointer-events="none"/>
                </g>
                <g id="dirArrow">
                        <path fill="none" stroke="white" stroke-width="1.5" d="M0,-3.0v7 M-2.5,-0.5L0,-3.0L2.5,-0.5"/>
                </g>
               <g id="resetDef">
                       <use xlink:href="#rim2" fill="#404040">
                               <set attributeName="fill" to="#808080" begin="reset.mouseover" end="reset.mouseout"/>
                       </use>
               </g>
        </defs>

<script type="text/javascript">
var viewWidth = 824;
var viewHeight = 476;
var sectionId = 'dynsection-0';
</script>
<script xlink:href="../../svgpan.js"/>
<svg id="graph" class="graph">
<g id="viewport">
<title>plan.cpp</title>
<polygon fill="white" stroke="transparent" points="-4,4 -4,-472 820,-472 820,4 -4,4"/>
<!-- Node1 -->
<g id="node1" class="node">
<title>Node1</title>
<g id="a_node1"><a xlink:title=" ">
<polygon fill="#bfbfbf" stroke="black" points="536.5,-448.5 536.5,-467.5 589.5,-467.5 589.5,-448.5 536.5,-448.5"/>
<text text-anchor="middle" x="563" y="-455.5" font-family="Helvetica,sans-Serif" font-size="10.00">plan.cpp</text>
</a>
</g>
</g>
<!-- Node2 -->
<g id="node2" class="node">
<title>Node2</title>
<g id="a_node2"><a xlink:href="../../d9/d4e/plan_8h.html" target="_top" xlink:title=" ">
<polygon fill="white" stroke="black" points="542,-392.5 542,-411.5 584,-411.5 584,-392.5 542,-392.5"/>
<text text-anchor="middle" x="563" y="-399.5" font-family="Helvetica,sans-Serif" font-size="10.00">plan.h</text>
</a>
</g>
</g>
<!-- Node1&#45;&gt;Node2 -->
<g id="edge1" class="edge">
<title>Node1&#45;&gt;Node2</title>
<path fill="none" stroke="midnightblue" d="M563,-448.08C563,-441.01 563,-430.86 563,-421.99"/>
<polygon fill="midnightblue" stroke="midnightblue" points="566.5,-421.75 563,-411.75 559.5,-421.75 566.5,-421.75"/>
</g>
<!-- Node3 -->
<g id="node3" class="node">
<title>Node3</title>
<g id="a_node3"><a xlink:href="../../d7/dc4/event__base_8h.html" target="_top" xlink:title=" ">
<polygon fill="white" stroke="black" points="268,-168.5 268,-187.5 366,-187.5 366,-168.5 268,-168.5"/>
<text text-anchor="middle" x="317" y="-175.5" font-family="Helvetica,sans-Serif" font-size="10.00">../bdi/event_base.h</text>
</a>
</g>
</g>
<!-- Node2&#45;&gt;Node3 -->
<g id="edge2" class="edge">
<title>Node2&#45;&gt;Node3</title>
<path fill="none" stroke="midnightblue" d="M541.79,-401.53C484.76,-401.66 327.91,-393.18 261,-300 236.27,-265.56 275.6,-218.45 299.98,-194.44"/>
<polygon fill="midnightblue" stroke="midnightblue" points="302.44,-196.93 307.27,-187.5 297.61,-191.86 302.44,-196.93"/>
</g>
<!-- Node6 -->
<g id="node6" class="node">
<title>Node6</title>
<g id="a_node6"><a xlink:title=" ">
<polygon fill="white" stroke="#bfbfbf" points="475,-0.5 475,-19.5 521,-19.5 521,-0.5 475,-0.5"/>
<text text-anchor="middle" x="498" y="-7.5" font-family="Helvetica,sans-Serif" font-size="10.00">cstdint</text>
</a>
</g>
</g>
<!-- Node2&#45;&gt;Node6 -->
<g id="edge42" class="edge">
<title>Node2&#45;&gt;Node6</title>
<path fill="none" stroke="midnightblue" d="M584.14,-401.37C644.94,-401.21 816,-391.82 816,-291 816,-291 816,-291 816,-121 816,-82.58 792.52,-74.78 759,-56 720.5,-34.42 592.97,-19.9 531.59,-13.99"/>
<polygon fill="midnightblue" stroke="midnightblue" points="531.56,-10.47 521.28,-13.02 530.91,-17.44 531.56,-10.47"/>
</g>
<!-- Node11 -->
<g id="node11" class="node">
<title>Node11</title>
<g id="a_node11"><a xlink:href="../../d0/d77/body_8h.html" target="_top" xlink:title=" ">
<polygon fill="white" stroke="black" points="436,-336.5 436,-355.5 480,-355.5 480,-336.5 436,-336.5"/>
<text text-anchor="middle" x="458" y="-343.5" font-family="Helvetica,sans-Serif" font-size="10.00">body.h</text>
</a>
</g>
</g>
<!-- Node2&#45;&gt;Node11 -->
<g id="edge14" class="edge">
<title>Node2&#45;&gt;Node11</title>
<path fill="none" stroke="midnightblue" d="M546.13,-392.32C529.29,-383.66 503.19,-370.24 483.76,-360.25"/>
<polygon fill="midnightblue" stroke="midnightblue" points="485.32,-357.12 474.83,-355.65 482.12,-363.34 485.32,-357.12"/>
</g>
<!-- Node17 -->
<g id="node17" class="node">
<title>Node17</title>
<g id="a_node17"><a xlink:href="../../dc/d1e/context_8h.html" target="_top" xlink:title=" ">
<polygon fill="white" stroke="black" points="614,-280.5 614,-299.5 670,-299.5 670,-280.5 614,-280.5"/>
<text text-anchor="middle" x="642" y="-287.5" font-family="Helvetica,sans-Serif" font-size="10.00">context.h</text>
</a>
</g>
</g>
<!-- Node2&#45;&gt;Node17 -->
<g id="edge35" class="edge">
<title>Node2&#45;&gt;Node17</title>
<path fill="none" stroke="midnightblue" d="M569.2,-392.37C582.24,-374.22 612.7,-331.8 629.8,-307.99"/>
<polygon fill="midnightblue" stroke="midnightblue" points="632.84,-309.76 635.83,-299.59 627.15,-305.67 632.84,-309.76"/>
</g>
<!-- Node4 -->
<g id="node4" class="node">
<title>Node4</title>
<g id="a_node4"><a xlink:href="../../dd/d20/event_8h.html" target="_top" xlink:title=" ">
<polygon fill="white" stroke="black" points="244,-112.5 244,-131.5 292,-131.5 292,-112.5 244,-112.5"/>
<text text-anchor="middle" x="268" y="-119.5" font-family="Helvetica,sans-Serif" font-size="10.00">event.h</text>
</a>
</g>
</g>
<!-- Node3&#45;&gt;Node4 -->
<g id="edge3" class="edge">
<title>Node3&#45;&gt;Node4</title>
<path fill="none" stroke="midnightblue" d="M308.91,-168.08C301.84,-160.3 291.41,-148.8 282.85,-139.37"/>
<polygon fill="midnightblue" stroke="midnightblue" points="285.25,-136.8 275.94,-131.75 280.07,-141.51 285.25,-136.8"/>
</g>
<!-- Node3&#45;&gt;Node6 -->
<g id="edge13" class="edge">
<title>Node3&#45;&gt;Node6</title>
<path fill="none" stroke="midnightblue" d="M321.73,-168.32C333.77,-146.83 367.63,-90.45 409,-56 425.73,-42.07 447.49,-30.97 465.31,-23.28"/>
<polygon fill="midnightblue" stroke="midnightblue" points="466.85,-26.43 474.74,-19.36 464.16,-19.96 466.85,-26.43"/>
</g>
<!-- Node9 -->
<g id="node9" class="node">
<title>Node9</title>
<g id="a_node9"><a xlink:href="../../d0/d81/vector__queue_8h.html" target="_top" xlink:title=" ">
<polygon fill="white" stroke="black" points="376.5,-112.5 376.5,-131.5 479.5,-131.5 479.5,-112.5 376.5,-112.5"/>
<text text-anchor="middle" x="428" y="-119.5" font-family="Helvetica,sans-Serif" font-size="10.00">../lib/vector_queue.h</text>
</a>
</g>
</g>
<!-- Node3&#45;&gt;Node9 -->
<g id="edge10" class="edge">
<title>Node3&#45;&gt;Node9</title>
<path fill="none" stroke="midnightblue" d="M334.83,-168.32C352.72,-159.62 380.48,-146.12 401.05,-136.11"/>
<polygon fill="midnightblue" stroke="midnightblue" points="402.75,-139.18 410.21,-131.65 399.69,-132.88 402.75,-139.18"/>
</g>
<!-- Node5 -->
<g id="node5" class="node">
<title>Node5</title>
<g id="a_node5"><a xlink:href="../../d5/d6b/proposition_8h.html" target="_top" xlink:title=" ">
<polygon fill="white" stroke="black" points="564,-56.5 564,-75.5 674,-75.5 674,-56.5 564,-56.5"/>
<text text-anchor="middle" x="619" y="-63.5" font-family="Helvetica,sans-Serif" font-size="10.00">../syntax/proposition.h</text>
</a>
</g>
</g>
<!-- Node4&#45;&gt;Node5 -->
<g id="edge4" class="edge">
<title>Node4&#45;&gt;Node5</title>
<path fill="none" stroke="midnightblue" d="M292.13,-117.29C345.34,-109.1 474.33,-89.26 553.43,-77.09"/>
<polygon fill="midnightblue" stroke="midnightblue" points="554.42,-80.48 563.77,-75.5 553.36,-73.56 554.42,-80.48"/>
</g>
<!-- Node4&#45;&gt;Node6 -->
<g id="edge9" class="edge">
<title>Node4&#45;&gt;Node6</title>
<path fill="none" stroke="midnightblue" d="M244.87,-112.35C216.84,-100.61 175.6,-78.49 195,-56 229.52,-15.97 393.14,-10.97 464.54,-10.74"/>
<polygon fill="midnightblue" stroke="midnightblue" points="464.78,-14.24 474.78,-10.74 464.78,-7.24 464.78,-14.24"/>
</g>
<!-- Node7 -->
<g id="node7" class="node">
<title>Node7</title>
<g id="a_node7"><a xlink:href="../../db/d50/event__operator_8h.html" target="_top" xlink:title=" ">
<polygon fill="white" stroke="black" points="204.5,-56.5 204.5,-75.5 331.5,-75.5 331.5,-56.5 204.5,-56.5"/>
<text text-anchor="middle" x="268" y="-63.5" font-family="Helvetica,sans-Serif" font-size="10.00">../syntax/event_operator.h</text>
</a>
</g>
</g>
<!-- Node4&#45;&gt;Node7 -->
<g id="edge6" class="edge">
<title>Node4&#45;&gt;Node7</title>
<path fill="none" stroke="midnightblue" d="M268,-112.08C268,-105.01 268,-94.86 268,-85.99"/>
<polygon fill="midnightblue" stroke="midnightblue" points="271.5,-85.75 268,-75.75 264.5,-85.75 271.5,-85.75"/>
</g>
<!-- Node8 -->
<g id="node8" class="node">
<title>Node8</title>
<g id="a_node8"><a xlink:href="../../df/dc3/event__id_8h.html" target="_top" xlink:title=" ">
<polygon fill="white" stroke="black" points="66.5,-56.5 66.5,-75.5 147.5,-75.5 147.5,-56.5 66.5,-56.5"/>
<text text-anchor="middle" x="107" y="-63.5" font-family="Helvetica,sans-Serif" font-size="10.00">../lib/event_id.h</text>
</a>
</g>
</g>
<!-- Node4&#45;&gt;Node8 -->
<g id="edge7" class="edge">
<title>Node4&#45;&gt;Node8</title>
<path fill="none" stroke="midnightblue" d="M243.9,-112.92C216.9,-103.86 172.91,-89.11 142.1,-78.77"/>
<polygon fill="midnightblue" stroke="midnightblue" points="143.19,-75.45 132.6,-75.59 140.97,-82.08 143.19,-75.45"/>
</g>
<!-- Node5&#45;&gt;Node6 -->
<g id="edge5" class="edge">
<title>Node5&#45;&gt;Node6</title>
<path fill="none" stroke="midnightblue" d="M599.83,-56.44C580.09,-47.64 549.11,-33.81 526.51,-23.72"/>
<polygon fill="midnightblue" stroke="midnightblue" points="527.64,-20.4 517.08,-19.52 524.79,-26.79 527.64,-20.4"/>
</g>
<!-- Node8&#45;&gt;Node6 -->
<g id="edge8" class="edge">
<title>Node8&#45;&gt;Node6</title>
<path fill="none" stroke="midnightblue" d="M147.53,-58.23C152.4,-57.46 157.31,-56.7 162,-56 272.66,-39.54 404.23,-22.71 464.65,-15.14"/>
<polygon fill="midnightblue" stroke="midnightblue" points="465.26,-18.59 474.75,-13.88 464.39,-11.65 465.26,-18.59"/>
</g>
<!-- Node9&#45;&gt;Node6 -->
<g id="edge12" class="edge">
<title>Node9&#45;&gt;Node6</title>
<path fill="none" stroke="midnightblue" d="M423.13,-112.35C416.45,-99.23 406.44,-73.95 417,-56 427.46,-38.22 447.77,-26.96 465.44,-20.15"/>
<polygon fill="midnightblue" stroke="midnightblue" points="466.63,-23.44 474.9,-16.81 464.3,-16.84 466.63,-23.44"/>
</g>
<!-- Node10 -->
<g id="node10" class="node">
<title>Node10</title>
<g id="a_node10"><a xlink:title=" ">
<polygon fill="white" stroke="#bfbfbf" points="426,-56.5 426,-75.5 470,-75.5 470,-56.5 426,-56.5"/>
<text text-anchor="middle" x="448" y="-63.5" font-family="Helvetica,sans-Serif" font-size="10.00">vector</text>
</a>
</g>
</g>
<!-- Node9&#45;&gt;Node10 -->
<g id="edge11" class="edge">
<title>Node9&#45;&gt;Node10</title>
<path fill="none" stroke="midnightblue" d="M431.3,-112.08C433.98,-104.85 437.85,-94.41 441.19,-85.4"/>
<polygon fill="midnightblue" stroke="midnightblue" points="444.57,-86.34 444.76,-75.75 438,-83.91 444.57,-86.34"/>
</g>
<!-- Node11&#45;&gt;Node3 -->
<g id="edge32" class="edge">
<title>Node11&#45;&gt;Node3</title>
<path fill="none" stroke="midnightblue" d="M450.25,-336.44C442.13,-327.44 429.05,-312.83 418,-300 386.17,-263.05 349.7,-218.9 330.49,-195.49"/>
<polygon fill="midnightblue" stroke="midnightblue" points="333.06,-193.1 324.01,-187.59 327.64,-197.54 333.06,-193.1"/>
</g>
<!-- Node11&#45;&gt;Node6 -->
<g id="edge34" class="edge">
<title>Node11&#45;&gt;Node6</title>
<path fill="none" stroke="midnightblue" d="M469.62,-336.26C490.84,-319.88 536.51,-282.71 567,-244 608.62,-191.17 598.37,-164.02 641,-112 656.58,-92.98 672.73,-98.34 683,-76 710.38,-16.48 592.05,-9.71 531.61,-10.02"/>
<polygon fill="midnightblue" stroke="midnightblue" points="531.35,-6.53 521.39,-10.15 531.43,-13.53 531.35,-6.53"/>
</g>
<!-- Node11&#45;&gt;Node9 -->
<g id="edge33" class="edge">
<title>Node11&#45;&gt;Node9</title>
<path fill="none" stroke="midnightblue" d="M456.82,-336.3C452.41,-303.63 436.77,-187.87 430.56,-141.96"/>
<polygon fill="midnightblue" stroke="midnightblue" points="434.01,-141.32 429.2,-131.88 427.07,-142.26 434.01,-141.32"/>
</g>
<!-- Node12 -->
<g id="node12" class="node">
<title>Node12</title>
<g id="a_node12"><a xlink:href="../../d8/d67/body__instruction_8h.html" target="_top" xlink:title=" ">
<polygon fill="white" stroke="black" points="270.5,-280.5 270.5,-299.5 365.5,-299.5 365.5,-280.5 270.5,-280.5"/>
<text text-anchor="middle" x="318" y="-287.5" font-family="Helvetica,sans-Serif" font-size="10.00">body_instruction.h</text>
</a>
</g>
</g>
<!-- Node11&#45;&gt;Node12 -->
<g id="edge15" class="edge">
<title>Node11&#45;&gt;Node12</title>
<path fill="none" stroke="midnightblue" d="M435.82,-336.44C412.57,-327.48 375.85,-313.31 349.58,-303.18"/>
<polygon fill="midnightblue" stroke="midnightblue" points="350.67,-299.85 340.08,-299.52 348.15,-306.38 350.67,-299.85"/>
</g>
<!-- Node15 -->
<g id="node15" class="node">
<title>Node15</title>
<g id="a_node15"><a xlink:href="../../d2/d2f/belief__base_8h.html" target="_top" xlink:title=" ">
<polygon fill="white" stroke="black" points="460.5,-224.5 460.5,-243.5 557.5,-243.5 557.5,-224.5 460.5,-224.5"/>
<text text-anchor="middle" x="509" y="-231.5" font-family="Helvetica,sans-Serif" font-size="10.00">../bdi/belief_base.h</text>
</a>
</g>
</g>
<!-- Node11&#45;&gt;Node15 -->
<g id="edge31" class="edge">
<title>Node11&#45;&gt;Node15</title>
<path fill="none" stroke="midnightblue" d="M462,-336.37C470.31,-318.46 489.56,-276.92 500.68,-252.95"/>
<polygon fill="midnightblue" stroke="midnightblue" points="503.99,-254.14 505.02,-243.59 497.64,-251.19 503.99,-254.14"/>
</g>
<!-- Node12&#45;&gt;Node3 -->
<g id="edge29" class="edge">
<title>Node12&#45;&gt;Node3</title>
<path fill="none" stroke="midnightblue" d="M317.92,-280.37C317.76,-262.62 317.39,-221.67 317.17,-197.6"/>
<polygon fill="midnightblue" stroke="midnightblue" points="320.67,-197.56 317.08,-187.59 313.67,-197.62 320.67,-197.56"/>
</g>
<!-- Node12&#45;&gt;Node6 -->
<g id="edge30" class="edge">
<title>Node12&#45;&gt;Node6</title>
<path fill="none" stroke="midnightblue" d="M270.39,-282.64C181.68,-269.44 0,-235.52 0,-179 0,-179 0,-179 0,-121 0,-86.61 12.64,-73.91 42,-56 112.96,-12.71 371.93,-10.11 464.68,-10.62"/>
<polygon fill="midnightblue" stroke="midnightblue" points="464.87,-14.12 474.89,-10.69 464.91,-7.12 464.87,-14.12"/>
</g>
<!-- Node13 -->
<g id="node13" class="node">
<title>Node13</title>
<g id="a_node13"><a xlink:href="../../d0/d96/body__type_8h.html" target="_top" xlink:title=" ">
<polygon fill="white" stroke="black" points="169,-168.5 169,-187.5 237,-187.5 237,-168.5 169,-168.5"/>
<text text-anchor="middle" x="203" y="-175.5" font-family="Helvetica,sans-Serif" font-size="10.00">body_type.h</text>
</a>
</g>
</g>
<!-- Node12&#45;&gt;Node13 -->
<g id="edge16" class="edge">
<title>Node12&#45;&gt;Node13</title>
<path fill="none" stroke="midnightblue" d="M308.98,-280.37C289.66,-261.89 244.08,-218.29 219.46,-194.74"/>
<polygon fill="midnightblue" stroke="midnightblue" points="221.63,-191.97 211.98,-187.59 216.79,-197.03 221.63,-191.97"/>
</g>
<!-- Node14 -->
<g id="node14" class="node">
<title>Node14</title>
<g id="a_node14"><a xlink:href="../../d9/ded/body__return_8h.html" target="_top" xlink:title=" ">
<polygon fill="white" stroke="black" points="102,-224.5 102,-243.5 176,-243.5 176,-224.5 102,-224.5"/>
<text text-anchor="middle" x="139" y="-231.5" font-family="Helvetica,sans-Serif" font-size="10.00">body_return.h</text>
</a>
</g>
</g>
<!-- Node12&#45;&gt;Node14 -->
<g id="edge17" class="edge">
<title>Node12&#45;&gt;Node14</title>
<path fill="none" stroke="midnightblue" d="M289.64,-280.44C259.26,-271.28 210.89,-256.69 177.18,-246.52"/>
<polygon fill="midnightblue" stroke="midnightblue" points="177.82,-243.05 167.23,-243.52 175.79,-249.76 177.82,-243.05"/>
</g>
<!-- Node12&#45;&gt;Node15 -->
<g id="edge21" class="edge">
<title>Node12&#45;&gt;Node15</title>
<path fill="none" stroke="midnightblue" d="M348.26,-280.44C380.96,-271.2 433.18,-256.44 469.18,-246.26"/>
<polygon fill="midnightblue" stroke="midnightblue" points="470.21,-249.61 478.88,-243.52 468.3,-242.87 470.21,-249.61"/>
</g>
<!-- Node14&#45;&gt;Node4 -->
<g id="edge19" class="edge">
<title>Node14&#45;&gt;Node4</title>
<path fill="none" stroke="midnightblue" d="M139.54,-224.28C140.84,-210.61 145.22,-184.05 160,-168 179.3,-147.04 209.87,-135.54 233.56,-129.43"/>
<polygon fill="midnightblue" stroke="midnightblue" points="234.65,-132.77 243.57,-127.05 233.03,-125.96 234.65,-132.77"/>
</g>
<!-- Node14&#45;&gt;Node6 -->
<g id="edge20" class="edge">
<title>Node14&#45;&gt;Node6</title>
<path fill="none" stroke="midnightblue" d="M128.74,-224.23C97.52,-196.52 8.65,-109.53 57,-56 84.22,-25.86 366.39,-14.83 464.55,-11.89"/>
<polygon fill="midnightblue" stroke="midnightblue" points="464.9,-15.38 474.8,-11.59 464.7,-8.38 464.9,-15.38"/>
</g>
<!-- Node14&#45;&gt;Node13 -->
<g id="edge18" class="edge">
<title>Node14&#45;&gt;Node13</title>
<path fill="none" stroke="midnightblue" d="M149.28,-224.32C158.84,-216.26 173.28,-204.08 184.78,-194.37"/>
<polygon fill="midnightblue" stroke="midnightblue" points="187.14,-196.96 192.53,-187.83 182.63,-191.61 187.14,-196.96"/>
</g>
<!-- Node15&#45;&gt;Node3 -->
<g id="edge26" class="edge">
<title>Node15&#45;&gt;Node3</title>
<path fill="none" stroke="midnightblue" d="M478.58,-224.44C445.72,-215.2 393.22,-200.44 357.03,-190.26"/>
<polygon fill="midnightblue" stroke="midnightblue" points="357.85,-186.85 347.28,-187.52 355.96,-193.59 357.85,-186.85"/>
</g>
<!-- Node15&#45;&gt;Node4 -->
<g id="edge25" class="edge">
<title>Node15&#45;&gt;Node4</title>
<path fill="none" stroke="midnightblue" d="M492.21,-224.5C466.97,-211.8 417.64,-187.29 375,-168 349.52,-156.47 320.23,-144.22 298.74,-135.42"/>
<polygon fill="midnightblue" stroke="midnightblue" points="300.04,-132.17 289.46,-131.63 297.4,-138.65 300.04,-132.17"/>
</g>
<!-- Node15&#45;&gt;Node6 -->
<g id="edge28" class="edge">
<title>Node15&#45;&gt;Node6</title>
<path fill="none" stroke="midnightblue" d="M508.57,-224.3C506.95,-191.63 501.21,-75.87 498.94,-29.96"/>
<polygon fill="midnightblue" stroke="midnightblue" points="502.43,-29.7 498.44,-19.88 495.44,-30.04 502.43,-29.7"/>
</g>
<!-- Node15&#45;&gt;Node9 -->
<g id="edge27" class="edge">
<title>Node15&#45;&gt;Node9</title>
<path fill="none" stroke="midnightblue" d="M502.64,-224.37C489.22,-206.14 457.77,-163.43 440.28,-139.68"/>
<polygon fill="midnightblue" stroke="midnightblue" points="443.07,-137.57 434.33,-131.59 437.44,-141.72 443.07,-137.57"/>
</g>
<!-- Node16 -->
<g id="node16" class="node">
<title>Node16</title>
<g id="a_node16"><a xlink:href="../../da/db8/belief_8h.html" target="_top" xlink:title=" ">
<polygon fill="white" stroke="black" points="536.5,-112.5 536.5,-131.5 583.5,-131.5 583.5,-112.5 536.5,-112.5"/>
<text text-anchor="middle" x="560" y="-119.5" font-family="Helvetica,sans-Serif" font-size="10.00">belief.h</text>
</a>
</g>
</g>
<!-- Node15&#45;&gt;Node16 -->
<g id="edge22" class="edge">
<title>Node15&#45;&gt;Node16</title>
<path fill="none" stroke="midnightblue" d="M513,-224.37C521.31,-206.46 540.56,-164.92 551.68,-140.95"/>
<polygon fill="midnightblue" stroke="midnightblue" points="554.99,-142.14 556.02,-131.59 548.64,-139.19 554.99,-142.14"/>
</g>
<!-- Node16&#45;&gt;Node5 -->
<g id="edge23" class="edge">
<title>Node16&#45;&gt;Node5</title>
<path fill="none" stroke="midnightblue" d="M569.48,-112.32C578.2,-104.34 591.34,-92.31 601.9,-82.65"/>
<polygon fill="midnightblue" stroke="midnightblue" points="604.33,-85.17 609.35,-75.83 599.61,-80 604.33,-85.17"/>
</g>
<!-- Node16&#45;&gt;Node6 -->
<g id="edge24" class="edge">
<title>Node16&#45;&gt;Node6</title>
<path fill="none" stroke="midnightblue" d="M555.13,-112.37C544.95,-94.3 521.21,-52.18 507.76,-28.31"/>
<polygon fill="midnightblue" stroke="midnightblue" points="510.8,-26.58 502.84,-19.59 504.7,-30.02 510.8,-26.58"/>
</g>
<!-- Node17&#45;&gt;Node6 -->
<g id="edge41" class="edge">
<title>Node17&#45;&gt;Node6</title>
<path fill="none" stroke="midnightblue" d="M669.85,-280.48C709.64,-266.37 778,-234.12 778,-179 778,-179 778,-179 778,-121 778,-85.61 761.75,-75.17 732,-56 699.25,-34.89 588.01,-20.49 531.52,-14.34"/>
<polygon fill="midnightblue" stroke="midnightblue" points="531.62,-10.84 521.31,-13.26 530.88,-17.8 531.62,-10.84"/>
</g>
<!-- Node17&#45;&gt;Node9 -->
<g id="edge40" class="edge">
<title>Node17&#45;&gt;Node9</title>
<path fill="none" stroke="midnightblue" d="M632.52,-280.32C618.5,-267.59 591.29,-243.29 567,-224 526.29,-191.66 476.58,-156.54 449,-137.42"/>
<polygon fill="midnightblue" stroke="midnightblue" points="450.75,-134.37 440.54,-131.57 446.77,-140.13 450.75,-134.37"/>
</g>
<!-- Node17&#45;&gt;Node15 -->
<g id="edge39" class="edge">
<title>Node17&#45;&gt;Node15</title>
<path fill="none" stroke="midnightblue" d="M620.93,-280.44C598.94,-271.52 564.27,-257.44 539.34,-247.32"/>
<polygon fill="midnightblue" stroke="midnightblue" points="540.56,-244.04 529.98,-243.52 537.92,-250.52 540.56,-244.04"/>
</g>
<!-- Node18 -->
<g id="node18" class="node">
<title>Node18</title>
<g id="a_node18"><a xlink:href="../../d7/d7d/context__condition_8h.html" target="_top" xlink:title=" ">
<polygon fill="white" stroke="black" points="650,-112.5 650,-131.5 750,-131.5 750,-112.5 650,-112.5"/>
<text text-anchor="middle" x="700" y="-119.5" font-family="Helvetica,sans-Serif" font-size="10.00">context_condition.h</text>
</a>
</g>
</g>
<!-- Node17&#45;&gt;Node18 -->
<g id="edge36" class="edge">
<title>Node17&#45;&gt;Node18</title>
<path fill="none" stroke="midnightblue" d="M645.12,-280.08C654.29,-253.83 681.29,-176.55 693.67,-141.12"/>
<polygon fill="midnightblue" stroke="midnightblue" points="697.01,-142.16 697.01,-131.57 690.4,-139.85 697.01,-142.16"/>
</g>
<!-- Node18&#45;&gt;Node5 -->
<g id="edge37" class="edge">
<title>Node18&#45;&gt;Node5</title>
<path fill="none" stroke="midnightblue" d="M686.99,-112.32C674.47,-103.98 655.32,-91.21 640.53,-81.35"/>
<polygon fill="midnightblue" stroke="midnightblue" points="642.24,-78.29 631.98,-75.65 638.36,-84.11 642.24,-78.29"/>
</g>
<!-- Node18&#45;&gt;Node6 -->
<g id="edge38" class="edge">
<title>Node18&#45;&gt;Node6</title>
<path fill="none" stroke="midnightblue" d="M706.29,-112.4C715.33,-98.9 729.51,-72.58 716,-56 693.07,-27.85 586.37,-16.78 531.21,-12.88"/>
<polygon fill="midnightblue" stroke="midnightblue" points="531.44,-9.39 521.23,-12.22 530.97,-16.38 531.44,-9.39"/>
</g>
</g>
</svg>
        <g id="navigator" transform="translate(0 0)" fill="#404254">
                <rect fill="#f2f5e9" fill-opacity="0.5" stroke="#606060" stroke-width=".5" x="0" y="0" width="60" height="60"/>
                <use id="zoomplus" xlink:href="#zoomPlus" x="17" y="9" onmousedown="handleZoom(evt,'in')"/>
                <use id="zoomminus" xlink:href="#zoomMin" x="42" y="9" onmousedown="handleZoom(evt,'out')"/>
                <use id="reset" xlink:href="#resetDef" x="30" y="36" onmousedown="handleReset()"/>
                <g id="arrowUp" xlink:href="#dirArrow" transform="translate(30 24)" onmousedown="handlePan(0,-1)">
                  <use xlink:href="#rim" fill="#404040">
                        <set attributeName="fill" to="#808080" begin="arrowUp.mouseover" end="arrowUp.mouseout"/>
                  </use>
                  <path fill="none" stroke="white" stroke-width="1.5" d="M0,-3.0v7 M-2.5,-0.5L0,-3.0L2.5,-0.5"/>
                </g>
                <g id="arrowRight" xlink:href="#dirArrow" transform="rotate(90) translate(36 -43)" onmousedown="handlePan(1,0)">
                  <use xlink:href="#rim" fill="#404040">
                        <set attributeName="fill" to="#808080" begin="arrowRight.mouseover" end="arrowRight.mouseout"/>
                  </use>
                  <path fill="none" stroke="white" stroke-width="1.5" d="M0,-3.0v7 M-2.5,-0.5L0,-3.0L2.5,-0.5"/>
                </g>
                <g id="arrowDown" xlink:href="#dirArrow" transform="rotate(180) translate(-30 -48)" onmousedown="handlePan(0,1)">
                  <use xlink:href="#rim" fill="#404040">
                        <set attributeName="fill" to="#808080" begin="arrowDown.mouseover" end="arrowDown.mouseout"/>
                  </use>
                  <path fill="none" stroke="white" stroke-width="1.5" d="M0,-3.0v7 M-2.5,-0.5L0,-3.0L2.5,-0.5"/>
                </g>
                <g id="arrowLeft" xlink:href="#dirArrow" transform="rotate(270) translate(-36 17)" onmousedown="handlePan(-1,0)">
                  <use xlink:href="#rim" fill="#404040">
                        <set attributeName="fill" to="#808080" begin="arrowLeft.mouseover" end="arrowLeft.mouseout"/>
                  </use>
                  <path fill="none" stroke="white" stroke-width="1.5" d="M0,-3.0v7 M-2.5,-0.5L0,-3.0L2.5,-0.5"/>
                </g>
        </g>
        <svg viewBox="0 0 15 15" width="100%" height="30px" preserveAspectRatio="xMaxYMin meet">
         <g id="arrow_out" transform="scale(0.3 0.3)">
          <a xlink:href="plan_8cpp__incl_org.svg" target="_base">
           <rect id="button" ry="5" rx="5" y="6" x="6" height="38" width="38"
                fill="#f2f5e9" fill-opacity="0.5" stroke="#606060" stroke-width="1.0"/>
           <path id="arrow"
             d="M 11.500037,31.436501 C 11.940474,20.09759 22.043105,11.32322 32.158766,21.979434 L 37.068811,17.246167 C 37.068811,17.246167 37.088388,32 37.088388,32 L 22.160133,31.978069 C 22.160133,31.978069 26.997745,27.140456 26.997745,27.140456 C 18.528582,18.264221 13.291696,25.230495 11.500037,31.436501 z"
             style="fill:#404040;"/>
          </a>
         </g>
        </svg>
</svg>
