<?xml version="1.0" encoding="UTF-8" standalone="no"?>
<!DOCTYPE svg PUBLIC "-//W3C//DTD SVG 1.1//EN"
 "http://www.w3.org/Graphics/SVG/1.1/DTD/svg11.dtd">
<!-- Generated by graphviz version 2.46.1 (20210215.1649)
 -->
<!-- Title: plan.cpp Pages: 1 -->
<svg width="820pt" height="476pt"
 viewBox="0.00 0.00 820.00 476.00" xmlns="http://www.w3.org/2000/svg" xmlns:xlink="http://www.w3.org/1999/xlink">
<g id="graph0" class="graph" transform="scale(1 1) rotate(0) translate(4 472)">
<title>plan.cpp</title>
<polygon fill="white" stroke="transparent" points="-4,4 -4,-472 816,-472 816,4 -4,4"/>
<!-- Node1 -->
<g id="node1" class="node">
<title>Node1</title>
<g id="a_node1"><a xlink:title=" ">
<polygon fill="#bfbfbf" stroke="black" points="532.5,-448.5 532.5,-467.5 585.5,-467.5 585.5,-448.5 532.5,-448.5"/>
<text text-anchor="middle" x="559" y="-455.5" font-family="Helvetica,sans-Serif" font-size="10.00">plan.cpp</text>
</a>
</g>
</g>
<!-- Node2 -->
<g id="node2" class="node">
<title>Node2</title>
<g id="a_node2"><a xlink:href="../../d9/d4e/plan_8h.html" target="_top" xlink:title=" ">
<polygon fill="white" stroke="black" points="538,-392.5 538,-411.5 580,-411.5 580,-392.5 538,-392.5"/>
<text text-anchor="middle" x="559" y="-399.5" font-family="Helvetica,sans-Serif" font-size="10.00">plan.h</text>
</a>
</g>
</g>
<!-- Node1&#45;&gt;Node2 -->
<g id="edge1" class="edge">
<title>Node1&#45;&gt;Node2</title>
<path fill="none" stroke="midnightblue" d="M559,-448.08C559,-441.01 559,-430.86 559,-421.99"/>
<polygon fill="midnightblue" stroke="midnightblue" points="562.5,-421.75 559,-411.75 555.5,-421.75 562.5,-421.75"/>
</g>
<!-- Node3 -->
<g id="node3" class="node">
<title>Node3</title>
<g id="a_node3"><a xlink:href="../../d7/dc4/event__base_8h.html" target="_top" xlink:title=" ">
<polygon fill="white" stroke="black" points="264,-168.5 264,-187.5 362,-187.5 362,-168.5 264,-168.5"/>
<text text-anchor="middle" x="313" y="-175.5" font-family="Helvetica,sans-Serif" font-size="10.00">../bdi/event_base.h</text>
</a>
</g>
</g>
<!-- Node2&#45;&gt;Node3 -->
<g id="edge2" class="edge">
<title>Node2&#45;&gt;Node3</title>
<path fill="none" stroke="midnightblue" d="M537.79,-401.53C480.76,-401.66 323.91,-393.18 257,-300 232.27,-265.56 271.6,-218.45 295.98,-194.44"/>
<polygon fill="midnightblue" stroke="midnightblue" points="298.44,-196.93 303.27,-187.5 293.61,-191.86 298.44,-196.93"/>
</g>
<!-- Node6 -->
<g id="node6" class="node">
<title>Node6</title>
<g id="a_node6"><a xlink:title=" ">
<polygon fill="white" stroke="#bfbfbf" points="475,-0.5 475,-19.5 521,-19.5 521,-0.5 475,-0.5"/>
<text text-anchor="middle" x="498" y="-7.5" font-family="Helvetica,sans-Serif" font-size="10.00">cstdint</text>
</a>
</g>
</g>
<!-- Node2&#45;&gt;Node6 -->
<g id="edge42" class="edge">
<title>Node2&#45;&gt;Node6</title>
<path fill="none" stroke="midnightblue" d="M580.14,-401.37C640.94,-401.21 812,-391.82 812,-291 812,-291 812,-291 812,-121 812,-82.58 788.49,-74.83 755,-56 717.19,-34.75 592.14,-20.11 531.52,-14.08"/>
<polygon fill="midnightblue" stroke="midnightblue" points="531.62,-10.58 521.33,-13.09 530.95,-17.54 531.62,-10.58"/>
</g>
<!-- Node11 -->
<g id="node11" class="node">
<title>Node11</title>
<g id="a_node11"><a xlink:href="../../d0/d77/body_8h.html" target="_top" xlink:title=" ">
<polygon fill="white" stroke="black" points="432,-336.5 432,-355.5 476,-355.5 476,-336.5 432,-336.5"/>
<text text-anchor="middle" x="454" y="-343.5" font-family="Helvetica,sans-Serif" font-size="10.00">body.h</text>
</a>
</g>
</g>
<!-- Node2&#45;&gt;Node11 -->
<g id="edge14" class="edge">
<title>Node2&#45;&gt;Node11</title>
<path fill="none" stroke="midnightblue" d="M542.13,-392.32C525.29,-383.66 499.19,-370.24 479.76,-360.25"/>
<polygon fill="midnightblue" stroke="midnightblue" points="481.32,-357.12 470.83,-355.65 478.12,-363.34 481.32,-357.12"/>
</g>
<!-- Node17 -->
<g id="node17" class="node">
<title>Node17</title>
<g id="a_node17"><a xlink:href="../../dc/d1e/context_8h.html" target="_top" xlink:title=" ">
<polygon fill="white" stroke="black" points="610,-280.5 610,-299.5 666,-299.5 666,-280.5 610,-280.5"/>
<text text-anchor="middle" x="638" y="-287.5" font-family="Helvetica,sans-Serif" font-size="10.00">context.h</text>
</a>
</g>
</g>
<!-- Node2&#45;&gt;Node17 -->
<g id="edge35" class="edge">
<title>Node2&#45;&gt;Node17</title>
<path fill="none" stroke="midnightblue" d="M565.2,-392.37C578.24,-374.22 608.7,-331.8 625.8,-307.99"/>
<polygon fill="midnightblue" stroke="midnightblue" points="628.84,-309.76 631.83,-299.59 623.15,-305.67 628.84,-309.76"/>
</g>
<!-- Node4 -->
<g id="node4" class="node">
<title>Node4</title>
<g id="a_node4"><a xlink:href="../../dd/d20/event_8h.html" target="_top" xlink:title=" ">
<polygon fill="white" stroke="black" points="244,-112.5 244,-131.5 292,-131.5 292,-112.5 244,-112.5"/>
<text text-anchor="middle" x="268" y="-119.5" font-family="Helvetica,sans-Serif" font-size="10.00">event.h</text>
</a>
</g>
</g>
<!-- Node3&#45;&gt;Node4 -->
<g id="edge3" class="edge">
<title>Node3&#45;&gt;Node4</title>
<path fill="none" stroke="midnightblue" d="M305.57,-168.08C299.15,-160.38 289.69,-149.03 281.88,-139.65"/>
<polygon fill="midnightblue" stroke="midnightblue" points="284.38,-137.19 275.29,-131.75 279.01,-141.67 284.38,-137.19"/>
</g>
<!-- Node3&#45;&gt;Node6 -->
<g id="edge13" class="edge">
<title>Node3&#45;&gt;Node6</title>
<path fill="none" stroke="midnightblue" d="M317.92,-168.28C330.45,-146.73 365.59,-90.21 408,-56 425.21,-42.12 447.4,-30.96 465.44,-23.23"/>
<polygon fill="midnightblue" stroke="midnightblue" points="467.07,-26.35 474.98,-19.29 464.4,-19.88 467.07,-26.35"/>
</g>
<!-- Node9 -->
<g id="node9" class="node">
<title>Node9</title>
<g id="a_node9"><a xlink:href="../../d0/d81/vector__queue_8h.html" target="_top" xlink:title=" ">
<polygon fill="white" stroke="black" points="372.5,-112.5 372.5,-131.5 475.5,-131.5 475.5,-112.5 372.5,-112.5"/>
<text text-anchor="middle" x="424" y="-119.5" font-family="Helvetica,sans-Serif" font-size="10.00">../lib/vector_queue.h</text>
</a>
</g>
</g>
<!-- Node3&#45;&gt;Node9 -->
<g id="edge10" class="edge">
<title>Node3&#45;&gt;Node9</title>
<path fill="none" stroke="midnightblue" d="M330.83,-168.32C348.72,-159.62 376.48,-146.12 397.05,-136.11"/>
<polygon fill="midnightblue" stroke="midnightblue" points="398.75,-139.18 406.21,-131.65 395.69,-132.88 398.75,-139.18"/>
</g>
<!-- Node5 -->
<g id="node5" class="node">
<title>Node5</title>
<g id="a_node5"><a xlink:href="../../de/d93/statement_8h.html" target="_top" xlink:title=" ">
<polygon fill="white" stroke="black" points="564,-56.5 564,-75.5 670,-75.5 670,-56.5 564,-56.5"/>
<text text-anchor="middle" x="617" y="-63.5" font-family="Helvetica,sans-Serif" font-size="10.00">../syntax/statement.h</text>
</a>
</g>
</g>
<!-- Node4&#45;&gt;Node5 -->
<g id="edge4" class="edge">
<title>Node4&#45;&gt;Node5</title>
<path fill="none" stroke="midnightblue" d="M292.26,-117.25C345.74,-108.97 475.22,-88.94 553.57,-76.81"/>
<polygon fill="midnightblue" stroke="midnightblue" points="554.46,-80.22 563.8,-75.23 553.39,-73.3 554.46,-80.22"/>
</g>
<!-- Node4&#45;&gt;Node6 -->
<g id="edge9" class="edge">
<title>Node4&#45;&gt;Node6</title>
<path fill="none" stroke="midnightblue" d="M244.87,-112.35C216.84,-100.61 175.6,-78.49 195,-56 229.52,-15.97 393.14,-10.97 464.54,-10.74"/>
<polygon fill="midnightblue" stroke="midnightblue" points="464.78,-14.24 474.78,-10.74 464.78,-7.24 464.78,-14.24"/>
</g>
<!-- Node7 -->
<g id="node7" class="node">
<title>Node7</title>
<g id="a_node7"><a xlink:href="../../db/d50/event__operator_8h.html" target="_top" xlink:title=" ">
<polygon fill="white" stroke="black" points="204.5,-56.5 204.5,-75.5 331.5,-75.5 331.5,-56.5 204.5,-56.5"/>
<text text-anchor="middle" x="268" y="-63.5" font-family="Helvetica,sans-Serif" font-size="10.00">../syntax/event_operator.h</text>
</a>
</g>
</g>
<!-- Node4&#45;&gt;Node7 -->
<g id="edge6" class="edge">
<title>Node4&#45;&gt;Node7</title>
<path fill="none" stroke="midnightblue" d="M268,-112.08C268,-105.01 268,-94.86 268,-85.99"/>
<polygon fill="midnightblue" stroke="midnightblue" points="271.5,-85.75 268,-75.75 264.5,-85.75 271.5,-85.75"/>
</g>
<!-- Node8 -->
<g id="node8" class="node">
<title>Node8</title>
<g id="a_node8"><a xlink:href="../../df/dc3/event__id_8h.html" target="_top" xlink:title=" ">
<polygon fill="white" stroke="black" points="66.5,-56.5 66.5,-75.5 147.5,-75.5 147.5,-56.5 66.5,-56.5"/>
<text text-anchor="middle" x="107" y="-63.5" font-family="Helvetica,sans-Serif" font-size="10.00">../lib/event_id.h</text>
</a>
</g>
</g>
<!-- Node4&#45;&gt;Node8 -->
<g id="edge7" class="edge">
<title>Node4&#45;&gt;Node8</title>
<path fill="none" stroke="midnightblue" d="M243.9,-112.92C216.9,-103.86 172.91,-89.11 142.1,-78.77"/>
<polygon fill="midnightblue" stroke="midnightblue" points="143.19,-75.45 132.6,-75.59 140.97,-82.08 143.19,-75.45"/>
</g>
<!-- Node5&#45;&gt;Node6 -->
<g id="edge5" class="edge">
<title>Node5&#45;&gt;Node6</title>
<path fill="none" stroke="midnightblue" d="M598.14,-56.44C578.73,-47.64 548.27,-33.81 526.04,-23.72"/>
<polygon fill="midnightblue" stroke="midnightblue" points="527.32,-20.46 516.77,-19.52 524.43,-26.84 527.32,-20.46"/>
</g>
<!-- Node8&#45;&gt;Node6 -->
<g id="edge8" class="edge">
<title>Node8&#45;&gt;Node6</title>
<path fill="none" stroke="midnightblue" d="M147.53,-58.23C152.4,-57.46 157.31,-56.7 162,-56 272.66,-39.54 404.23,-22.71 464.65,-15.14"/>
<polygon fill="midnightblue" stroke="midnightblue" points="465.26,-18.59 474.75,-13.88 464.39,-11.65 465.26,-18.59"/>
</g>
<!-- Node9&#45;&gt;Node6 -->
<g id="edge12" class="edge">
<title>Node9&#45;&gt;Node6</title>
<path fill="none" stroke="midnightblue" d="M419.96,-112.31C414.48,-99.15 406.52,-73.8 417,-56 427.46,-38.22 447.77,-26.96 465.44,-20.15"/>
<polygon fill="midnightblue" stroke="midnightblue" points="466.63,-23.44 474.9,-16.81 464.3,-16.84 466.63,-23.44"/>
</g>
<!-- Node10 -->
<g id="node10" class="node">
<title>Node10</title>
<g id="a_node10"><a xlink:title=" ">
<polygon fill="white" stroke="#bfbfbf" points="426,-56.5 426,-75.5 470,-75.5 470,-56.5 426,-56.5"/>
<text text-anchor="middle" x="448" y="-63.5" font-family="Helvetica,sans-Serif" font-size="10.00">vector</text>
</a>
</g>
</g>
<!-- Node9&#45;&gt;Node10 -->
<g id="edge11" class="edge">
<title>Node9&#45;&gt;Node10</title>
<path fill="none" stroke="midnightblue" d="M427.96,-112.08C431.21,-104.77 435.92,-94.18 439.95,-85.1"/>
<polygon fill="midnightblue" stroke="midnightblue" points="443.25,-86.31 444.11,-75.75 436.85,-83.47 443.25,-86.31"/>
</g>
<!-- Node11&#45;&gt;Node3 -->
<g id="edge32" class="edge">
<title>Node11&#45;&gt;Node3</title>
<path fill="none" stroke="midnightblue" d="M446.25,-336.44C438.13,-327.44 425.05,-312.83 414,-300 382.17,-263.05 345.7,-218.9 326.49,-195.49"/>
<polygon fill="midnightblue" stroke="midnightblue" points="329.06,-193.1 320.01,-187.59 323.64,-197.54 329.06,-193.1"/>
</g>
<!-- Node11&#45;&gt;Node6 -->
<g id="edge34" class="edge">
<title>Node11&#45;&gt;Node6</title>
<path fill="none" stroke="midnightblue" d="M465.62,-336.26C486.84,-319.88 532.51,-282.71 563,-244 604.62,-191.17 594.37,-164.02 637,-112 652.58,-92.98 668.73,-98.34 679,-76 705.78,-17.77 590.61,-10.32 531.33,-10.24"/>
<polygon fill="midnightblue" stroke="midnightblue" points="531.28,-6.74 521.3,-10.29 531.32,-13.74 531.28,-6.74"/>
</g>
<!-- Node11&#45;&gt;Node9 -->
<g id="edge33" class="edge">
<title>Node11&#45;&gt;Node9</title>
<path fill="none" stroke="midnightblue" d="M452.82,-336.3C448.41,-303.63 432.77,-187.87 426.56,-141.96"/>
<polygon fill="midnightblue" stroke="midnightblue" points="430.01,-141.32 425.2,-131.88 423.07,-142.26 430.01,-141.32"/>
</g>
<!-- Node12 -->
<g id="node12" class="node">
<title>Node12</title>
<g id="a_node12"><a xlink:href="../../d8/d67/body__instruction_8h.html" target="_top" xlink:title=" ">
<polygon fill="white" stroke="black" points="266.5,-280.5 266.5,-299.5 361.5,-299.5 361.5,-280.5 266.5,-280.5"/>
<text text-anchor="middle" x="314" y="-287.5" font-family="Helvetica,sans-Serif" font-size="10.00">body_instruction.h</text>
</a>
</g>
</g>
<!-- Node11&#45;&gt;Node12 -->
<g id="edge15" class="edge">
<title>Node11&#45;&gt;Node12</title>
<path fill="none" stroke="midnightblue" d="M431.82,-336.44C408.57,-327.48 371.85,-313.31 345.58,-303.18"/>
<polygon fill="midnightblue" stroke="midnightblue" points="346.67,-299.85 336.08,-299.52 344.15,-306.38 346.67,-299.85"/>
</g>
<!-- Node15 -->
<g id="node15" class="node">
<title>Node15</title>
<g id="a_node15"><a xlink:href="../../d2/d2f/belief__base_8h.html" target="_top" xlink:title=" ">
<polygon fill="white" stroke="black" points="456.5,-224.5 456.5,-243.5 553.5,-243.5 553.5,-224.5 456.5,-224.5"/>
<text text-anchor="middle" x="505" y="-231.5" font-family="Helvetica,sans-Serif" font-size="10.00">../bdi/belief_base.h</text>
</a>
</g>
</g>
<!-- Node11&#45;&gt;Node15 -->
<g id="edge31" class="edge">
<title>Node11&#45;&gt;Node15</title>
<path fill="none" stroke="midnightblue" d="M458,-336.37C466.31,-318.46 485.56,-276.92 496.68,-252.95"/>
<polygon fill="midnightblue" stroke="midnightblue" points="499.99,-254.14 501.02,-243.59 493.64,-251.19 499.99,-254.14"/>
</g>
<!-- Node12&#45;&gt;Node3 -->
<g id="edge29" class="edge">
<title>Node12&#45;&gt;Node3</title>
<path fill="none" stroke="midnightblue" d="M313.92,-280.37C313.76,-262.62 313.39,-221.67 313.17,-197.6"/>
<polygon fill="midnightblue" stroke="midnightblue" points="316.67,-197.56 313.08,-187.59 309.67,-197.62 316.67,-197.56"/>
</g>
<!-- Node12&#45;&gt;Node6 -->
<g id="edge30" class="edge">
<title>Node12&#45;&gt;Node6</title>
<path fill="none" stroke="midnightblue" d="M266.1,-285.45C219.28,-280.6 146.8,-269.41 89,-244 44.16,-224.29 0,-227.98 0,-179 0,-179 0,-179 0,-121 0,-86.61 12.64,-73.91 42,-56 112.96,-12.71 371.93,-10.11 464.68,-10.62"/>
<polygon fill="midnightblue" stroke="midnightblue" points="464.87,-14.12 474.89,-10.69 464.91,-7.12 464.87,-14.12"/>
</g>
<!-- Node13 -->
<g id="node13" class="node">
<title>Node13</title>
<g id="a_node13"><a xlink:href="../../d0/d96/body__type_8h.html" target="_top" xlink:title=" ">
<polygon fill="white" stroke="black" points="165,-168.5 165,-187.5 233,-187.5 233,-168.5 165,-168.5"/>
<text text-anchor="middle" x="199" y="-175.5" font-family="Helvetica,sans-Serif" font-size="10.00">body_type.h</text>
</a>
</g>
</g>
<!-- Node12&#45;&gt;Node13 -->
<g id="edge16" class="edge">
<title>Node12&#45;&gt;Node13</title>
<path fill="none" stroke="midnightblue" d="M304.98,-280.37C285.66,-261.89 240.08,-218.29 215.46,-194.74"/>
<polygon fill="midnightblue" stroke="midnightblue" points="217.63,-191.97 207.98,-187.59 212.79,-197.03 217.63,-191.97"/>
</g>
<!-- Node14 -->
<g id="node14" class="node">
<title>Node14</title>
<g id="a_node14"><a xlink:href="../../d9/ded/body__return_8h.html" target="_top" xlink:title=" ">
<polygon fill="white" stroke="black" points="98,-224.5 98,-243.5 172,-243.5 172,-224.5 98,-224.5"/>
<text text-anchor="middle" x="135" y="-231.5" font-family="Helvetica,sans-Serif" font-size="10.00">body_return.h</text>
</a>
</g>
</g>
<!-- Node12&#45;&gt;Node14 -->
<g id="edge17" class="edge">
<title>Node12&#45;&gt;Node14</title>
<path fill="none" stroke="midnightblue" d="M285.64,-280.44C255.26,-271.28 206.89,-256.69 173.18,-246.52"/>
<polygon fill="midnightblue" stroke="midnightblue" points="173.82,-243.05 163.23,-243.52 171.79,-249.76 173.82,-243.05"/>
</g>
<!-- Node12&#45;&gt;Node15 -->
<g id="edge21" class="edge">
<title>Node12&#45;&gt;Node15</title>
<path fill="none" stroke="midnightblue" d="M344.26,-280.44C376.96,-271.2 429.18,-256.44 465.18,-246.26"/>
<polygon fill="midnightblue" stroke="midnightblue" points="466.21,-249.61 474.88,-243.52 464.3,-242.87 466.21,-249.61"/>
</g>
<!-- Node14&#45;&gt;Node4 -->
<g id="edge19" class="edge">
<title>Node14&#45;&gt;Node4</title>
<path fill="none" stroke="midnightblue" d="M135.52,-224.25C136.78,-210.55 141.12,-183.96 156,-168 176.39,-146.14 208.82,-134.67 233.55,-128.8"/>
<polygon fill="midnightblue" stroke="midnightblue" points="234.59,-132.16 243.62,-126.61 233.11,-125.32 234.59,-132.16"/>
</g>
<!-- Node14&#45;&gt;Node6 -->
<g id="edge20" class="edge">
<title>Node14&#45;&gt;Node6</title>
<path fill="none" stroke="midnightblue" d="M125.08,-224.19C94.89,-196.37 9.06,-109.08 57,-56 84.22,-25.86 366.39,-14.83 464.55,-11.89"/>
<polygon fill="midnightblue" stroke="midnightblue" points="464.9,-15.38 474.8,-11.59 464.7,-8.38 464.9,-15.38"/>
</g>
<!-- Node14&#45;&gt;Node13 -->
<g id="edge18" class="edge">
<title>Node14&#45;&gt;Node13</title>
<path fill="none" stroke="midnightblue" d="M145.28,-224.32C154.84,-216.26 169.28,-204.08 180.78,-194.37"/>
<polygon fill="midnightblue" stroke="midnightblue" points="183.14,-196.96 188.53,-187.83 178.63,-191.61 183.14,-196.96"/>
</g>
<!-- Node15&#45;&gt;Node3 -->
<g id="edge26" class="edge">
<title>Node15&#45;&gt;Node3</title>
<path fill="none" stroke="midnightblue" d="M474.58,-224.44C441.72,-215.2 389.22,-200.44 353.03,-190.26"/>
<polygon fill="midnightblue" stroke="midnightblue" points="353.85,-186.85 343.28,-187.52 351.96,-193.59 353.85,-186.85"/>
</g>
<!-- Node15&#45;&gt;Node4 -->
<g id="edge25" class="edge">
<title>Node15&#45;&gt;Node4</title>
<path fill="none" stroke="midnightblue" d="M487.76,-224.36C462.35,-211.7 413.27,-187.48 371,-168 346.37,-156.65 318.12,-144.36 297.45,-135.5"/>
<polygon fill="midnightblue" stroke="midnightblue" points="298.81,-132.27 288.24,-131.56 296.06,-138.71 298.81,-132.27"/>
</g>
<!-- Node15&#45;&gt;Node6 -->
<g id="edge28" class="edge">
<title>Node15&#45;&gt;Node6</title>
<path fill="none" stroke="midnightblue" d="M504.73,-224.3C503.7,-191.63 500.05,-75.87 498.6,-29.96"/>
<polygon fill="midnightblue" stroke="midnightblue" points="502.09,-29.77 498.28,-19.88 495.1,-29.99 502.09,-29.77"/>
</g>
<!-- Node15&#45;&gt;Node9 -->
<g id="edge27" class="edge">
<title>Node15&#45;&gt;Node9</title>
<path fill="none" stroke="midnightblue" d="M498.64,-224.37C485.22,-206.14 453.77,-163.43 436.28,-139.68"/>
<polygon fill="midnightblue" stroke="midnightblue" points="439.07,-137.57 430.33,-131.59 433.44,-141.72 439.07,-137.57"/>
</g>
<!-- Node16 -->
<g id="node16" class="node">
<title>Node16</title>
<g id="a_node16"><a xlink:href="../../da/db8/belief_8h.html" target="_top" xlink:title=" ">
<polygon fill="white" stroke="black" points="532.5,-112.5 532.5,-131.5 579.5,-131.5 579.5,-112.5 532.5,-112.5"/>
<text text-anchor="middle" x="556" y="-119.5" font-family="Helvetica,sans-Serif" font-size="10.00">belief.h</text>
</a>
</g>
</g>
<!-- Node15&#45;&gt;Node16 -->
<g id="edge22" class="edge">
<title>Node15&#45;&gt;Node16</title>
<path fill="none" stroke="midnightblue" d="M509,-224.37C517.31,-206.46 536.56,-164.92 547.68,-140.95"/>
<polygon fill="midnightblue" stroke="midnightblue" points="550.99,-142.14 552.02,-131.59 544.64,-139.19 550.99,-142.14"/>
</g>
<!-- Node16&#45;&gt;Node5 -->
<g id="edge23" class="edge">
<title>Node16&#45;&gt;Node5</title>
<path fill="none" stroke="midnightblue" d="M565.8,-112.32C574.82,-104.34 588.41,-92.31 599.32,-82.65"/>
<polygon fill="midnightblue" stroke="midnightblue" points="601.85,-85.08 607.02,-75.83 597.21,-79.84 601.85,-85.08"/>
</g>
<!-- Node16&#45;&gt;Node6 -->
<g id="edge24" class="edge">
<title>Node16&#45;&gt;Node6</title>
<path fill="none" stroke="midnightblue" d="M551.45,-112.37C541.96,-94.38 519.91,-52.55 507.29,-28.63"/>
<polygon fill="midnightblue" stroke="midnightblue" points="510.29,-26.8 502.53,-19.59 504.1,-30.07 510.29,-26.8"/>
</g>
<!-- Node17&#45;&gt;Node6 -->
<g id="edge41" class="edge">
<title>Node17&#45;&gt;Node6</title>
<path fill="none" stroke="midnightblue" d="M665.85,-280.48C705.64,-266.37 774,-234.12 774,-179 774,-179 774,-179 774,-121 774,-85.61 757.72,-75.22 728,-56 666.86,-16.46 578.8,-10.21 531.34,-10.03"/>
<polygon fill="midnightblue" stroke="midnightblue" points="531.28,-6.53 521.29,-10.08 531.31,-13.53 531.28,-6.53"/>
</g>
<!-- Node17&#45;&gt;Node9 -->
<g id="edge40" class="edge">
<title>Node17&#45;&gt;Node9</title>
<path fill="none" stroke="midnightblue" d="M628.52,-280.32C614.5,-267.59 587.29,-243.29 563,-224 522.29,-191.66 472.58,-156.54 445,-137.42"/>
<polygon fill="midnightblue" stroke="midnightblue" points="446.75,-134.37 436.54,-131.57 442.77,-140.13 446.75,-134.37"/>
</g>
<!-- Node17&#45;&gt;Node15 -->
<g id="edge39" class="edge">
<title>Node17&#45;&gt;Node15</title>
<path fill="none" stroke="midnightblue" d="M616.93,-280.44C594.94,-271.52 560.27,-257.44 535.34,-247.32"/>
<polygon fill="midnightblue" stroke="midnightblue" points="536.56,-244.04 525.98,-243.52 533.92,-250.52 536.56,-244.04"/>
</g>
<!-- Node18 -->
<g id="node18" class="node">
<title>Node18</title>
<g id="a_node18"><a xlink:href="../../d7/d7d/context__condition_8h.html" target="_top" xlink:title=" ">
<polygon fill="white" stroke="black" points="646,-112.5 646,-131.5 746,-131.5 746,-112.5 646,-112.5"/>
<text text-anchor="middle" x="696" y="-119.5" font-family="Helvetica,sans-Serif" font-size="10.00">context_condition.h</text>
</a>
</g>
</g>
<!-- Node17&#45;&gt;Node18 -->
<g id="edge36" class="edge">
<title>Node17&#45;&gt;Node18</title>
<path fill="none" stroke="midnightblue" d="M641.12,-280.08C650.29,-253.83 677.29,-176.55 689.67,-141.12"/>
<polygon fill="midnightblue" stroke="midnightblue" points="693.01,-142.16 693.01,-131.57 686.4,-139.85 693.01,-142.16"/>
</g>
<!-- Node18&#45;&gt;Node5 -->
<g id="edge37" class="edge">
<title>Node18&#45;&gt;Node5</title>
<path fill="none" stroke="midnightblue" d="M683.31,-112.32C671.1,-103.98 652.42,-91.21 638,-81.35"/>
<polygon fill="midnightblue" stroke="midnightblue" points="639.89,-78.41 629.66,-75.65 635.94,-84.19 639.89,-78.41"/>
</g>
<!-- Node18&#45;&gt;Node6 -->
<g id="edge38" class="edge">
<title>Node18&#45;&gt;Node6</title>
<path fill="none" stroke="midnightblue" d="M702.28,-112.41C711.31,-98.92 725.48,-72.6 712,-56 689.63,-28.43 585.72,-17.13 531.36,-13.04"/>
<polygon fill="midnightblue" stroke="midnightblue" points="531.41,-9.53 521.18,-12.31 530.91,-16.51 531.41,-9.53"/>
</g>
</g>
</svg>
