<?xml version="1.0" encoding="UTF-8" standalone="no"?>
<!DOCTYPE svg PUBLIC "-//W3C//DTD SVG 1.1//EN"
 "http://www.w3.org/Graphics/SVG/1.1/DTD/svg11.dtd">
<!-- Generated by graphviz version 2.46.1 (20210215.1649)
 -->
<!-- Title: context.h Pages: 1 -->
<!--zoomable 308 -->
<svg id="main" version="1.1" xmlns="http://www.w3.org/2000/svg" xmlns:xlink="http://www.w3.org/1999/xlink" xml:space="preserve" onload="init(evt)">
<style type="text/css"><![CDATA[
.edge:hover path { stroke: red; }
.edge:hover polygon { stroke: red; fill: red; }
]]></style>
<script type="text/javascript"><![CDATA[
var edges = document.getElementsByTagName('g');
if (edges && edges.length) {
  for (var i=0;i<edges.length;i++) {
    if (edges[i].id.substr(0,4)=='edge') {
      edges[i].setAttribute('class','edge');
    }
  }
}
]]></script>
        <defs>
                <circle id="rim" cx="0" cy="0" r="7"/>
                <circle id="rim2" cx="0" cy="0" r="3.5"/>
                <g id="zoomPlus">
                        <use xlink:href="#rim" fill="#404040">
                                <set attributeName="fill" to="#808080" begin="zoomplus.mouseover" end="zoomplus.mouseout"/>
                        </use>
                        <path d="M-4,0h8M0,-4v8" fill="none" stroke="white" stroke-width="1.5" pointer-events="none"/>
                </g>
                <g id="zoomMin">
                        <use xlink:href="#rim" fill="#404040">
                                <set attributeName="fill" to="#808080" begin="zoomminus.mouseover" end="zoomminus.mouseout"/>
                        </use>
                        <path d="M-4,0h8" fill="none" stroke="white" stroke-width="1.5" pointer-events="none"/>
                </g>
                <g id="dirArrow">
                        <path fill="none" stroke="white" stroke-width="1.5" d="M0,-3.0v7 M-2.5,-0.5L0,-3.0L2.5,-0.5"/>
                </g>
               <g id="resetDef">
                       <use xlink:href="#rim2" fill="#404040">
                               <set attributeName="fill" to="#808080" begin="reset.mouseover" end="reset.mouseout"/>
                       </use>
               </g>
        </defs>

<script type="text/javascript">
var viewWidth = 682;
var viewHeight = 308;
var sectionId = 'dynsection-0';
</script>
<script xlink:href="../../svgpan.js"/>
<svg id="graph" class="graph">
<g id="viewport">
<title>context.h</title>
<polygon fill="white" stroke="transparent" points="-4,4 -4,-304 677.5,-304 677.5,4 -4,4"/>
<!-- Node1 -->
<g id="node1" class="node">
<title>Node1</title>
<g id="a_node1"><a xlink:title=" ">
<polygon fill="#bfbfbf" stroke="black" points="508.5,-280.5 508.5,-299.5 564.5,-299.5 564.5,-280.5 508.5,-280.5"/>
<text text-anchor="middle" x="536.5" y="-287.5" font-family="Helvetica,sans-Serif" font-size="10.00">context.h</text>
</a>
</g>
</g>
<!-- Node2 -->
<g id="node2" class="node">
<title>Node2</title>
<g id="a_node2"><a xlink:href="../../d7/d7d/context__condition_8h.html" target="_top" xlink:title=" ">
<polygon fill="white" stroke="black" points="545.5,-112.5 545.5,-131.5 645.5,-131.5 645.5,-112.5 545.5,-112.5"/>
<text text-anchor="middle" x="595.5" y="-119.5" font-family="Helvetica,sans-Serif" font-size="10.00">context_condition.h</text>
</a>
</g>
</g>
<!-- Node1&#45;&gt;Node2 -->
<g id="edge1" class="edge">
<title>Node1&#45;&gt;Node2</title>
<path fill="none" stroke="midnightblue" d="M539.67,-280.08C549,-253.83 576.47,-176.55 589.06,-141.12"/>
<polygon fill="midnightblue" stroke="midnightblue" points="592.4,-142.16 592.45,-131.57 585.81,-139.82 592.4,-142.16"/>
</g>
<!-- Node4 -->
<g id="node4" class="node">
<title>Node4</title>
<g id="a_node4"><a xlink:title=" ">
<polygon fill="white" stroke="#bfbfbf" points="438.5,-0.5 438.5,-19.5 484.5,-19.5 484.5,-0.5 438.5,-0.5"/>
<text text-anchor="middle" x="461.5" y="-7.5" font-family="Helvetica,sans-Serif" font-size="10.00">cstdint</text>
</a>
</g>
</g>
<!-- Node1&#45;&gt;Node4 -->
<g id="edge24" class="edge">
<title>Node1&#45;&gt;Node4</title>
<path fill="none" stroke="midnightblue" d="M564.55,-280.54C604.64,-266.52 673.5,-234.36 673.5,-179 673.5,-179 673.5,-179 673.5,-121 673.5,-41.4 554.28,-19.32 494.65,-13.26"/>
<polygon fill="midnightblue" stroke="midnightblue" points="494.87,-9.77 484.59,-12.33 494.23,-16.74 494.87,-9.77"/>
</g>
<!-- Node5 -->
<g id="node5" class="node">
<title>Node5</title>
<g id="a_node5"><a xlink:href="../../d2/d2f/belief__base_8h.html" target="_top" xlink:title=" ">
<polygon fill="white" stroke="black" points="383,-224.5 383,-243.5 480,-243.5 480,-224.5 383,-224.5"/>
<text text-anchor="middle" x="431.5" y="-231.5" font-family="Helvetica,sans-Serif" font-size="10.00">../bdi/belief_base.h</text>
</a>
</g>
</g>
<!-- Node1&#45;&gt;Node5 -->
<g id="edge5" class="edge">
<title>Node1&#45;&gt;Node5</title>
<path fill="none" stroke="midnightblue" d="M519.63,-280.32C502.79,-271.66 476.69,-258.24 457.26,-248.25"/>
<polygon fill="midnightblue" stroke="midnightblue" points="458.82,-245.12 448.33,-243.65 455.62,-251.34 458.82,-245.12"/>
</g>
<!-- Node11 -->
<g id="node11" class="node">
<title>Node11</title>
<g id="a_node11"><a xlink:href="../../d0/d81/vector__queue_8h.html" target="_top" xlink:title=" ">
<polygon fill="white" stroke="black" points="0,-112.5 0,-131.5 103,-131.5 103,-112.5 0,-112.5"/>
<text text-anchor="middle" x="51.5" y="-119.5" font-family="Helvetica,sans-Serif" font-size="10.00">../lib/vector_queue.h</text>
</a>
</g>
</g>
<!-- Node1&#45;&gt;Node11 -->
<g id="edge23" class="edge">
<title>Node1&#45;&gt;Node11</title>
<path fill="none" stroke="midnightblue" d="M508.41,-283.44C446.38,-270.68 293.61,-236.63 172.5,-188 136.55,-173.57 97.51,-151.28 73.77,-136.92"/>
<polygon fill="midnightblue" stroke="midnightblue" points="75.52,-133.89 65.17,-131.65 71.87,-139.86 75.52,-133.89"/>
</g>
<!-- Node3 -->
<g id="node3" class="node">
<title>Node3</title>
<g id="a_node3"><a xlink:href="../../de/d93/statement_8h.html" target="_top" xlink:title=" ">
<polygon fill="white" stroke="black" points="427.5,-56.5 427.5,-75.5 495.5,-75.5 495.5,-56.5 427.5,-56.5"/>
<text text-anchor="middle" x="461.5" y="-63.5" font-family="Helvetica,sans-Serif" font-size="10.00">statement.h</text>
</a>
</g>
</g>
<!-- Node2&#45;&gt;Node3 -->
<g id="edge2" class="edge">
<title>Node2&#45;&gt;Node3</title>
<path fill="none" stroke="midnightblue" d="M574.27,-112.44C552.12,-103.52 517.18,-89.44 492.06,-79.32"/>
<polygon fill="midnightblue" stroke="midnightblue" points="493.22,-76.01 482.63,-75.52 490.6,-82.5 493.22,-76.01"/>
</g>
<!-- Node2&#45;&gt;Node4 -->
<g id="edge4" class="edge">
<title>Node2&#45;&gt;Node4</title>
<path fill="none" stroke="midnightblue" d="M595.15,-112.25C594.13,-98.55 590.26,-71.94 575.5,-56 554.29,-33.08 519.92,-21.65 494.46,-16.07"/>
<polygon fill="midnightblue" stroke="midnightblue" points="495,-12.6 484.5,-14.08 493.63,-19.47 495,-12.6"/>
</g>
<!-- Node3&#45;&gt;Node4 -->
<g id="edge3" class="edge">
<title>Node3&#45;&gt;Node4</title>
<path fill="none" stroke="midnightblue" d="M461.5,-56.08C461.5,-49.01 461.5,-38.86 461.5,-29.99"/>
<polygon fill="midnightblue" stroke="midnightblue" points="465,-29.75 461.5,-19.75 458,-29.75 465,-29.75"/>
</g>
<!-- Node5&#45;&gt;Node4 -->
<g id="edge22" class="edge">
<title>Node5&#45;&gt;Node4</title>
<path fill="none" stroke="midnightblue" d="M438.95,-224.24C457.59,-201.61 505.66,-138.58 518.5,-76 520.29,-67.29 522.38,-64 518.5,-56 512.1,-42.8 499.75,-32.3 488.17,-24.78"/>
<polygon fill="midnightblue" stroke="midnightblue" points="489.95,-21.77 479.58,-19.61 486.34,-27.77 489.95,-21.77"/>
</g>
<!-- Node6 -->
<g id="node6" class="node">
<title>Node6</title>
<g id="a_node6"><a xlink:href="../../da/db8/belief_8h.html" target="_top" xlink:title=" ">
<polygon fill="white" stroke="black" points="438,-112.5 438,-131.5 485,-131.5 485,-112.5 438,-112.5"/>
<text text-anchor="middle" x="461.5" y="-119.5" font-family="Helvetica,sans-Serif" font-size="10.00">belief.h</text>
</a>
</g>
</g>
<!-- Node5&#45;&gt;Node6 -->
<g id="edge6" class="edge">
<title>Node5&#45;&gt;Node6</title>
<path fill="none" stroke="midnightblue" d="M433.85,-224.37C438.72,-206.54 449.96,-165.3 456.52,-141.27"/>
<polygon fill="midnightblue" stroke="midnightblue" points="459.9,-142.16 459.16,-131.59 453.15,-140.32 459.9,-142.16"/>
</g>
<!-- Node7 -->
<g id="node7" class="node">
<title>Node7</title>
<g id="a_node7"><a xlink:href="../../dd/d20/event_8h.html" target="_top" xlink:title=" ">
<polygon fill="white" stroke="black" points="293.5,-112.5 293.5,-131.5 341.5,-131.5 341.5,-112.5 293.5,-112.5"/>
<text text-anchor="middle" x="317.5" y="-119.5" font-family="Helvetica,sans-Serif" font-size="10.00">event.h</text>
</a>
</g>
</g>
<!-- Node5&#45;&gt;Node7 -->
<g id="edge9" class="edge">
<title>Node5&#45;&gt;Node7</title>
<path fill="none" stroke="midnightblue" d="M422.55,-224.37C403.41,-205.89 358.22,-162.29 333.82,-138.74"/>
<polygon fill="midnightblue" stroke="midnightblue" points="336.03,-136.02 326.4,-131.59 331.17,-141.05 336.03,-136.02"/>
</g>
<!-- Node10 -->
<g id="node10" class="node">
<title>Node10</title>
<g id="a_node10"><a xlink:href="../../d7/dc4/event__base_8h.html" target="_top" xlink:title=" ">
<polygon fill="white" stroke="black" points="248.5,-168.5 248.5,-187.5 322.5,-187.5 322.5,-168.5 248.5,-168.5"/>
<text text-anchor="middle" x="285.5" y="-175.5" font-family="Helvetica,sans-Serif" font-size="10.00">event_base.h</text>
</a>
</g>
</g>
<!-- Node5&#45;&gt;Node10 -->
<g id="edge15" class="edge">
<title>Node5&#45;&gt;Node10</title>
<path fill="none" stroke="midnightblue" d="M408.37,-224.44C384.02,-215.44 345.49,-201.19 318.08,-191.05"/>
<polygon fill="midnightblue" stroke="midnightblue" points="319.12,-187.7 308.53,-187.52 316.69,-194.27 319.12,-187.7"/>
</g>
<!-- Node5&#45;&gt;Node11 -->
<g id="edge21" class="edge">
<title>Node5&#45;&gt;Node11</title>
<path fill="none" stroke="midnightblue" d="M389.61,-224.48C350.49,-216.22 290.64,-202.79 239.5,-188 184.01,-171.95 120.77,-149.12 83.6,-135.23"/>
<polygon fill="midnightblue" stroke="midnightblue" points="84.43,-131.8 73.83,-131.56 81.96,-138.35 84.43,-131.8"/>
</g>
<!-- Node6&#45;&gt;Node3 -->
<g id="edge7" class="edge">
<title>Node6&#45;&gt;Node3</title>
<path fill="none" stroke="midnightblue" d="M461.5,-112.08C461.5,-105.01 461.5,-94.86 461.5,-85.99"/>
<polygon fill="midnightblue" stroke="midnightblue" points="465,-85.75 461.5,-75.75 458,-85.75 465,-85.75"/>
</g>
<!-- Node6&#45;&gt;Node4 -->
<g id="edge8" class="edge">
<title>Node6&#45;&gt;Node4</title>
<path fill="none" stroke="midnightblue" d="M474.07,-112.4C489.71,-100.54 513.36,-78.1 504.5,-56 499.82,-44.33 490.51,-33.97 481.74,-26.14"/>
<polygon fill="midnightblue" stroke="midnightblue" points="483.92,-23.4 474,-19.7 479.45,-28.78 483.92,-23.4"/>
</g>
<!-- Node7&#45;&gt;Node3 -->
<g id="edge10" class="edge">
<title>Node7&#45;&gt;Node3</title>
<path fill="none" stroke="midnightblue" d="M340.32,-112.44C364.33,-103.44 402.33,-89.19 429.37,-79.05"/>
<polygon fill="midnightblue" stroke="midnightblue" points="430.66,-82.3 438.79,-75.52 428.2,-75.75 430.66,-82.3"/>
</g>
<!-- Node7&#45;&gt;Node4 -->
<g id="edge14" class="edge">
<title>Node7&#45;&gt;Node4</title>
<path fill="none" stroke="midnightblue" d="M330.2,-112.24C343.03,-103.32 363.36,-88.98 380.5,-76 402.33,-59.47 426.77,-39.67 443.03,-26.31"/>
<polygon fill="midnightblue" stroke="midnightblue" points="445.67,-28.67 451.16,-19.6 441.22,-23.27 445.67,-28.67"/>
</g>
<!-- Node8 -->
<g id="node8" class="node">
<title>Node8</title>
<g id="a_node8"><a xlink:href="../../db/d50/event__operator_8h.html" target="_top" xlink:title=" ">
<polygon fill="white" stroke="black" points="244,-56.5 244,-75.5 371,-75.5 371,-56.5 244,-56.5"/>
<text text-anchor="middle" x="307.5" y="-63.5" font-family="Helvetica,sans-Serif" font-size="10.00">../syntax/event_operator.h</text>
</a>
</g>
</g>
<!-- Node7&#45;&gt;Node8 -->
<g id="edge11" class="edge">
<title>Node7&#45;&gt;Node8</title>
<path fill="none" stroke="midnightblue" d="M315.85,-112.08C314.52,-104.93 312.62,-94.64 310.96,-85.69"/>
<polygon fill="midnightblue" stroke="midnightblue" points="314.38,-84.95 309.12,-75.75 307.5,-86.22 314.38,-84.95"/>
</g>
<!-- Node9 -->
<g id="node9" class="node">
<title>Node9</title>
<g id="a_node9"><a xlink:href="../../df/dc3/event__id_8h.html" target="_top" xlink:title=" ">
<polygon fill="white" stroke="black" points="145,-56.5 145,-75.5 226,-75.5 226,-56.5 145,-56.5"/>
<text text-anchor="middle" x="185.5" y="-63.5" font-family="Helvetica,sans-Serif" font-size="10.00">../lib/event_id.h</text>
</a>
</g>
</g>
<!-- Node7&#45;&gt;Node9 -->
<g id="edge12" class="edge">
<title>Node7&#45;&gt;Node9</title>
<path fill="none" stroke="midnightblue" d="M296.58,-112.44C274.76,-103.52 240.35,-89.44 215.61,-79.32"/>
<polygon fill="midnightblue" stroke="midnightblue" points="216.9,-76.06 206.32,-75.52 214.25,-82.54 216.9,-76.06"/>
</g>
<!-- Node9&#45;&gt;Node4 -->
<g id="edge13" class="edge">
<title>Node9&#45;&gt;Node4</title>
<path fill="none" stroke="midnightblue" d="M226.22,-57.03C281.1,-46.3 377.73,-27.39 428.39,-17.48"/>
<polygon fill="midnightblue" stroke="midnightblue" points="429.33,-20.86 438.47,-15.51 427.99,-13.99 429.33,-20.86"/>
</g>
<!-- Node10&#45;&gt;Node4 -->
<g id="edge20" class="edge">
<title>Node10&#45;&gt;Node4</title>
<path fill="none" stroke="midnightblue" d="M258.12,-168.43C204.29,-150.24 93.49,-105.37 136.5,-56 174.03,-12.91 352.36,-9.72 427.74,-10.36"/>
<polygon fill="midnightblue" stroke="midnightblue" points="428.04,-13.86 438.08,-10.48 428.12,-6.86 428.04,-13.86"/>
</g>
<!-- Node10&#45;&gt;Node7 -->
<g id="edge16" class="edge">
<title>Node10&#45;&gt;Node7</title>
<path fill="none" stroke="midnightblue" d="M290.78,-168.08C295.21,-160.61 301.66,-149.72 307.12,-140.52"/>
<polygon fill="midnightblue" stroke="midnightblue" points="310.23,-142.14 312.31,-131.75 304.21,-138.57 310.23,-142.14"/>
</g>
<!-- Node10&#45;&gt;Node11 -->
<g id="edge17" class="edge">
<title>Node10&#45;&gt;Node11</title>
<path fill="none" stroke="midnightblue" d="M248.42,-168.44C207.77,-159.06 142.47,-143.99 98.32,-133.8"/>
<polygon fill="midnightblue" stroke="midnightblue" points="98.94,-130.35 88.4,-131.52 97.36,-137.18 98.94,-130.35"/>
</g>
<!-- Node11&#45;&gt;Node4 -->
<g id="edge19" class="edge">
<title>Node11&#45;&gt;Node4</title>
<path fill="none" stroke="midnightblue" d="M45.02,-112.24C35.72,-98.52 21.2,-71.89 35.5,-56 61.66,-26.93 332.48,-15.25 428.21,-12.01"/>
<polygon fill="midnightblue" stroke="midnightblue" points="428.33,-15.51 438.21,-11.68 428.1,-8.51 428.33,-15.51"/>
</g>
<!-- Node12 -->
<g id="node12" class="node">
<title>Node12</title>
<g id="a_node12"><a xlink:title=" ">
<polygon fill="white" stroke="#bfbfbf" points="44.5,-56.5 44.5,-75.5 88.5,-75.5 88.5,-56.5 44.5,-56.5"/>
<text text-anchor="middle" x="66.5" y="-63.5" font-family="Helvetica,sans-Serif" font-size="10.00">vector</text>
</a>
</g>
</g>
<!-- Node11&#45;&gt;Node12 -->
<g id="edge18" class="edge">
<title>Node11&#45;&gt;Node12</title>
<path fill="none" stroke="midnightblue" d="M53.98,-112.08C55.99,-104.85 58.89,-94.41 61.39,-85.4"/>
<polygon fill="midnightblue" stroke="midnightblue" points="64.76,-86.32 64.07,-75.75 58.02,-84.45 64.76,-86.32"/>
</g>
</g>
</svg>
        <g id="navigator" transform="translate(0 0)" fill="#404254">
                <rect fill="#f2f5e9" fill-opacity="0.5" stroke="#606060" stroke-width=".5" x="0" y="0" width="60" height="60"/>
                <use id="zoomplus" xlink:href="#zoomPlus" x="17" y="9" onmousedown="handleZoom(evt,'in')"/>
                <use id="zoomminus" xlink:href="#zoomMin" x="42" y="9" onmousedown="handleZoom(evt,'out')"/>
                <use id="reset" xlink:href="#resetDef" x="30" y="36" onmousedown="handleReset()"/>
                <g id="arrowUp" xlink:href="#dirArrow" transform="translate(30 24)" onmousedown="handlePan(0,-1)">
                  <use xlink:href="#rim" fill="#404040">
                        <set attributeName="fill" to="#808080" begin="arrowUp.mouseover" end="arrowUp.mouseout"/>
                  </use>
                  <path fill="none" stroke="white" stroke-width="1.5" d="M0,-3.0v7 M-2.5,-0.5L0,-3.0L2.5,-0.5"/>
                </g>
                <g id="arrowRight" xlink:href="#dirArrow" transform="rotate(90) translate(36 -43)" onmousedown="handlePan(1,0)">
                  <use xlink:href="#rim" fill="#404040">
                        <set attributeName="fill" to="#808080" begin="arrowRight.mouseover" end="arrowRight.mouseout"/>
                  </use>
                  <path fill="none" stroke="white" stroke-width="1.5" d="M0,-3.0v7 M-2.5,-0.5L0,-3.0L2.5,-0.5"/>
                </g>
                <g id="arrowDown" xlink:href="#dirArrow" transform="rotate(180) translate(-30 -48)" onmousedown="handlePan(0,1)">
                  <use xlink:href="#rim" fill="#404040">
                        <set attributeName="fill" to="#808080" begin="arrowDown.mouseover" end="arrowDown.mouseout"/>
                  </use>
                  <path fill="none" stroke="white" stroke-width="1.5" d="M0,-3.0v7 M-2.5,-0.5L0,-3.0L2.5,-0.5"/>
                </g>
                <g id="arrowLeft" xlink:href="#dirArrow" transform="rotate(270) translate(-36 17)" onmousedown="handlePan(-1,0)">
                  <use xlink:href="#rim" fill="#404040">
                        <set attributeName="fill" to="#808080" begin="arrowLeft.mouseover" end="arrowLeft.mouseout"/>
                  </use>
                  <path fill="none" stroke="white" stroke-width="1.5" d="M0,-3.0v7 M-2.5,-0.5L0,-3.0L2.5,-0.5"/>
                </g>
        </g>
        <svg viewBox="0 0 15 15" width="100%" height="30px" preserveAspectRatio="xMaxYMin meet">
         <g id="arrow_out" transform="scale(0.3 0.3)">
          <a xlink:href="context_8h__incl_org.svg" target="_base">
           <rect id="button" ry="5" rx="5" y="6" x="6" height="38" width="38"
                fill="#f2f5e9" fill-opacity="0.5" stroke="#606060" stroke-width="1.0"/>
           <path id="arrow"
             d="M 11.500037,31.436501 C 11.940474,20.09759 22.043105,11.32322 32.158766,21.979434 L 37.068811,17.246167 C 37.068811,17.246167 37.088388,32 37.088388,32 L 22.160133,31.978069 C 22.160133,31.978069 26.997745,27.140456 26.997745,27.140456 C 18.528582,18.264221 13.291696,25.230495 11.500037,31.436501 z"
             style="fill:#404040;"/>
          </a>
         </g>
        </svg>
</svg>
