<?xml version="1.0" encoding="UTF-8" standalone="no"?>
<!DOCTYPE svg PUBLIC "-//W3C//DTD SVG 1.1//EN"
 "http://www.w3.org/Graphics/SVG/1.1/DTD/svg11.dtd">
<!-- Generated by graphviz version 2.47.3 (20210711.2253)
 -->
<!-- Title: VectorQueue&lt; X &gt; Pages: 1 -->
<!--zoomable 446 -->
<svg id="main" version="1.1" xmlns="http://www.w3.org/2000/svg" xmlns:xlink="http://www.w3.org/1999/xlink" xml:space="preserve" onload="init(evt)">
<style type="text/css"><![CDATA[
.edge:hover path { stroke: red; }
.edge:hover polygon { stroke: red; fill: red; }
]]></style>
<script type="text/javascript"><![CDATA[
var edges = document.getElementsByTagName('g');
if (edges && edges.length) {
  for (var i=0;i<edges.length;i++) {
    if (edges[i].id.substr(0,4)=='edge') {
      edges[i].setAttribute('class','edge');
    }
  }
}
]]></script>
        <defs>
                <circle id="rim" cx="0" cy="0" r="7"/>
                <circle id="rim2" cx="0" cy="0" r="3.5"/>
                <g id="zoomPlus">
                        <use xlink:href="#rim" fill="#404040">
                                <set attributeName="fill" to="#808080" begin="zoomplus.mouseover" end="zoomplus.mouseout"/>
                        </use>
                        <path d="M-4,0h8M0,-4v8" fill="none" stroke="white" stroke-width="1.5" pointer-events="none"/>
                </g>
                <g id="zoomMin">
                        <use xlink:href="#rim" fill="#404040">
                                <set attributeName="fill" to="#808080" begin="zoomminus.mouseover" end="zoomminus.mouseout"/>
                        </use>
                        <path d="M-4,0h8" fill="none" stroke="white" stroke-width="1.5" pointer-events="none"/>
                </g>
                <g id="dirArrow">
                        <path fill="none" stroke="white" stroke-width="1.5" d="M0,-3.0v7 M-2.5,-0.5L0,-3.0L2.5,-0.5"/>
                </g>
               <g id="resetDef">
                       <use xlink:href="#rim2" fill="#404040">
                               <set attributeName="fill" to="#808080" begin="reset.mouseover" end="reset.mouseout"/>
                       </use>
               </g>
        </defs>

<script type="text/javascript">
var viewWidth = 1041;
var viewHeight = 446;
var sectionId = 'dynsection-0';
</script>
<script xlink:href="../../svgpan.js"/>
<svg id="graph" class="graph">
<g id="viewport">
<title>VectorQueue&lt; X &gt;</title>
<polygon fill="white" stroke="transparent" points="-4,4 -4,-442 1037,-442 1037,4 -4,4"/>
<!-- Node1 -->
<g id="node1" class="node">
<title>Node1</title>
<g id="a_node1"><a xlink:title=" ">
<polygon fill="#bfbfbf" stroke="black" points="462,-248.5 462,-437.5 559,-437.5 559,-248.5 462,-248.5"/>
<text text-anchor="middle" x="510.5" y="-425.5" font-family="Helvetica,sans-Serif" font-size="10.00">VectorQueue&lt; X &gt;</text>
<polyline fill="none" stroke="black" points="462,-418.5 559,-418.5 "/>
<text text-anchor="start" x="470" y="-406.5" font-family="Helvetica,sans-Serif" font-size="10.00">&#45; _queue</text>
<text text-anchor="start" x="470" y="-395.5" font-family="Helvetica,sans-Serif" font-size="10.00">&#45; _capacity</text>
<polyline fill="none" stroke="black" points="462,-388.5 559,-388.5 "/>
<text text-anchor="start" x="470" y="-376.5" font-family="Helvetica,sans-Serif" font-size="10.00">+ init()</text>
<text text-anchor="start" x="470" y="-365.5" font-family="Helvetica,sans-Serif" font-size="10.00">+ push_front()</text>
<text text-anchor="start" x="470" y="-354.5" font-family="Helvetica,sans-Serif" font-size="10.00">+ push_back()</text>
<text text-anchor="start" x="470" y="-343.5" font-family="Helvetica,sans-Serif" font-size="10.00">+ pop_back()</text>
<text text-anchor="start" x="470" y="-332.5" font-family="Helvetica,sans-Serif" font-size="10.00">+ front()</text>
<text text-anchor="start" x="470" y="-321.5" font-family="Helvetica,sans-Serif" font-size="10.00">+ back()</text>
<text text-anchor="start" x="470" y="-310.5" font-family="Helvetica,sans-Serif" font-size="10.00">+ item_at()</text>
<text text-anchor="start" x="470" y="-299.5" font-family="Helvetica,sans-Serif" font-size="10.00">+ erase()</text>
<text text-anchor="start" x="470" y="-288.5" font-family="Helvetica,sans-Serif" font-size="10.00">+ rotate()</text>
<text text-anchor="start" x="470" y="-277.5" font-family="Helvetica,sans-Serif" font-size="10.00">+ size()</text>
<text text-anchor="start" x="470" y="-266.5" font-family="Helvetica,sans-Serif" font-size="10.00">+ is_empty()</text>
<text text-anchor="start" x="470" y="-255.5" font-family="Helvetica,sans-Serif" font-size="10.00">+ is_full()</text>
</a>
</g>
</g>
<!-- Node2 -->
<g id="node2" class="node">
<title>Node2</title>
<g id="a_node2"><a xlink:href="../../df/d28/class_vector_queue.html" target="_top" xlink:title=" ">
<polygon fill="white" stroke="black" points="0,-6 0,-195 115,-195 115,-6 0,-6"/>
<text text-anchor="middle" x="57.5" y="-183" font-family="Helvetica,sans-Serif" font-size="10.00">VectorQueue&lt; Event &gt;</text>
<polyline fill="none" stroke="black" points="0,-176 115,-176 "/>
<text text-anchor="start" x="8" y="-164" font-family="Helvetica,sans-Serif" font-size="10.00">&#45; _queue</text>
<text text-anchor="start" x="8" y="-153" font-family="Helvetica,sans-Serif" font-size="10.00">&#45; _capacity</text>
<polyline fill="none" stroke="black" points="0,-146 115,-146 "/>
<text text-anchor="start" x="8" y="-134" font-family="Helvetica,sans-Serif" font-size="10.00">+ init()</text>
<text text-anchor="start" x="8" y="-123" font-family="Helvetica,sans-Serif" font-size="10.00">+ push_front()</text>
<text text-anchor="start" x="8" y="-112" font-family="Helvetica,sans-Serif" font-size="10.00">+ push_back()</text>
<text text-anchor="start" x="8" y="-101" font-family="Helvetica,sans-Serif" font-size="10.00">+ pop_back()</text>
<text text-anchor="start" x="8" y="-90" font-family="Helvetica,sans-Serif" font-size="10.00">+ front()</text>
<text text-anchor="start" x="8" y="-79" font-family="Helvetica,sans-Serif" font-size="10.00">+ back()</text>
<text text-anchor="start" x="8" y="-68" font-family="Helvetica,sans-Serif" font-size="10.00">+ item_at()</text>
<text text-anchor="start" x="8" y="-57" font-family="Helvetica,sans-Serif" font-size="10.00">+ erase()</text>
<text text-anchor="start" x="8" y="-46" font-family="Helvetica,sans-Serif" font-size="10.00">+ rotate()</text>
<text text-anchor="start" x="8" y="-35" font-family="Helvetica,sans-Serif" font-size="10.00">+ size()</text>
<text text-anchor="start" x="8" y="-24" font-family="Helvetica,sans-Serif" font-size="10.00">+ is_empty()</text>
<text text-anchor="start" x="8" y="-13" font-family="Helvetica,sans-Serif" font-size="10.00">+ is_full()</text>
</a>
</g>
</g>
<!-- Node1&#45;&gt;Node2 -->
<g id="edge1" class="edge">
<title>Node1&#45;&gt;Node2</title>
<path fill="none" stroke="orange" d="M451.88,-332.35C371.08,-316.62 224.17,-279.02 124.5,-201 121.38,-198.56 118.36,-195.94 115.44,-193.17"/>
<polygon fill="orange" stroke="orange" points="451.4,-335.82 461.88,-334.25 452.71,-328.95 451.4,-335.82"/>
<text text-anchor="middle" x="183.5" y="-222" font-family="Helvetica,sans-Serif" font-size="10.00"> &lt; Event &gt;</text>
</g>
<!-- Node3 -->
<g id="node3" class="node">
<title>Node3</title>
<g id="a_node3"><a xlink:href="../../df/d28/class_vector_queue.html" target="_top" xlink:title=" ">
<polygon fill="white" stroke="black" points="133.5,-6 133.5,-195 261.5,-195 261.5,-6 133.5,-6"/>
<text text-anchor="middle" x="197.5" y="-183" font-family="Helvetica,sans-Serif" font-size="10.00">VectorQueue&lt; Intention &gt;</text>
<polyline fill="none" stroke="black" points="133.5,-176 261.5,-176 "/>
<text text-anchor="start" x="141.5" y="-164" font-family="Helvetica,sans-Serif" font-size="10.00">&#45; _queue</text>
<text text-anchor="start" x="141.5" y="-153" font-family="Helvetica,sans-Serif" font-size="10.00">&#45; _capacity</text>
<polyline fill="none" stroke="black" points="133.5,-146 261.5,-146 "/>
<text text-anchor="start" x="141.5" y="-134" font-family="Helvetica,sans-Serif" font-size="10.00">+ init()</text>
<text text-anchor="start" x="141.5" y="-123" font-family="Helvetica,sans-Serif" font-size="10.00">+ push_front()</text>
<text text-anchor="start" x="141.5" y="-112" font-family="Helvetica,sans-Serif" font-size="10.00">+ push_back()</text>
<text text-anchor="start" x="141.5" y="-101" font-family="Helvetica,sans-Serif" font-size="10.00">+ pop_back()</text>
<text text-anchor="start" x="141.5" y="-90" font-family="Helvetica,sans-Serif" font-size="10.00">+ front()</text>
<text text-anchor="start" x="141.5" y="-79" font-family="Helvetica,sans-Serif" font-size="10.00">+ back()</text>
<text text-anchor="start" x="141.5" y="-68" font-family="Helvetica,sans-Serif" font-size="10.00">+ item_at()</text>
<text text-anchor="start" x="141.5" y="-57" font-family="Helvetica,sans-Serif" font-size="10.00">+ erase()</text>
<text text-anchor="start" x="141.5" y="-46" font-family="Helvetica,sans-Serif" font-size="10.00">+ rotate()</text>
<text text-anchor="start" x="141.5" y="-35" font-family="Helvetica,sans-Serif" font-size="10.00">+ size()</text>
<text text-anchor="start" x="141.5" y="-24" font-family="Helvetica,sans-Serif" font-size="10.00">+ is_empty()</text>
<text text-anchor="start" x="141.5" y="-13" font-family="Helvetica,sans-Serif" font-size="10.00">+ is_full()</text>
</a>
</g>
</g>
<!-- Node1&#45;&gt;Node3 -->
<g id="edge2" class="edge">
<title>Node1&#45;&gt;Node3</title>
<path fill="none" stroke="orange" d="M452.31,-316.17C400.82,-291.48 325.54,-250.7 270.5,-201 267.48,-198.27 264.5,-195.4 261.59,-192.42"/>
<polygon fill="orange" stroke="orange" points="451.1,-319.48 461.64,-320.6 454.1,-313.15 451.1,-319.48"/>
<text text-anchor="middle" x="335" y="-222" font-family="Helvetica,sans-Serif" font-size="10.00"> &lt; Intention &gt;</text>
</g>
<!-- Node4 -->
<g id="node4" class="node">
<title>Node4</title>
<g id="a_node4"><a xlink:href="../../df/d28/class_vector_queue.html" target="_top" xlink:title=" ">
<polygon fill="white" stroke="black" points="279.5,-6 279.5,-195 437.5,-195 437.5,-6 279.5,-6"/>
<text text-anchor="middle" x="358.5" y="-183" font-family="Helvetica,sans-Serif" font-size="10.00">VectorQueue&lt; BodyInstruction &gt;</text>
<polyline fill="none" stroke="black" points="279.5,-176 437.5,-176 "/>
<text text-anchor="start" x="287.5" y="-164" font-family="Helvetica,sans-Serif" font-size="10.00">&#45; _queue</text>
<text text-anchor="start" x="287.5" y="-153" font-family="Helvetica,sans-Serif" font-size="10.00">&#45; _capacity</text>
<polyline fill="none" stroke="black" points="279.5,-146 437.5,-146 "/>
<text text-anchor="start" x="287.5" y="-134" font-family="Helvetica,sans-Serif" font-size="10.00">+ init()</text>
<text text-anchor="start" x="287.5" y="-123" font-family="Helvetica,sans-Serif" font-size="10.00">+ push_front()</text>
<text text-anchor="start" x="287.5" y="-112" font-family="Helvetica,sans-Serif" font-size="10.00">+ push_back()</text>
<text text-anchor="start" x="287.5" y="-101" font-family="Helvetica,sans-Serif" font-size="10.00">+ pop_back()</text>
<text text-anchor="start" x="287.5" y="-90" font-family="Helvetica,sans-Serif" font-size="10.00">+ front()</text>
<text text-anchor="start" x="287.5" y="-79" font-family="Helvetica,sans-Serif" font-size="10.00">+ back()</text>
<text text-anchor="start" x="287.5" y="-68" font-family="Helvetica,sans-Serif" font-size="10.00">+ item_at()</text>
<text text-anchor="start" x="287.5" y="-57" font-family="Helvetica,sans-Serif" font-size="10.00">+ erase()</text>
<text text-anchor="start" x="287.5" y="-46" font-family="Helvetica,sans-Serif" font-size="10.00">+ rotate()</text>
<text text-anchor="start" x="287.5" y="-35" font-family="Helvetica,sans-Serif" font-size="10.00">+ size()</text>
<text text-anchor="start" x="287.5" y="-24" font-family="Helvetica,sans-Serif" font-size="10.00">+ is_empty()</text>
<text text-anchor="start" x="287.5" y="-13" font-family="Helvetica,sans-Serif" font-size="10.00">+ is_full()</text>
</a>
</g>
</g>
<!-- Node1&#45;&gt;Node4 -->
<g id="edge3" class="edge">
<title>Node1&#45;&gt;Node4</title>
<path fill="none" stroke="orange" d="M455.39,-279.54C442.83,-263.9 430.09,-246.78 419.5,-230 412.58,-219.03 405.94,-207.16 399.74,-195.22"/>
<polygon fill="orange" stroke="orange" points="452.9,-282.02 461.92,-287.57 458.33,-277.61 452.9,-282.02"/>
<text text-anchor="middle" x="463" y="-222" font-family="Helvetica,sans-Serif" font-size="10.00"> &lt; BodyInstruction &gt;</text>
</g>
<!-- Node5 -->
<g id="node5" class="node">
<title>Node5</title>
<g id="a_node5"><a xlink:href="../../df/d28/class_vector_queue.html" target="_top" xlink:title=" ">
<polygon fill="white" stroke="black" points="455.5,-6 455.5,-195 565.5,-195 565.5,-6 455.5,-6"/>
<text text-anchor="middle" x="510.5" y="-183" font-family="Helvetica,sans-Serif" font-size="10.00">VectorQueue&lt; Plan &gt;</text>
<polyline fill="none" stroke="black" points="455.5,-176 565.5,-176 "/>
<text text-anchor="start" x="463.5" y="-164" font-family="Helvetica,sans-Serif" font-size="10.00">&#45; _queue</text>
<text text-anchor="start" x="463.5" y="-153" font-family="Helvetica,sans-Serif" font-size="10.00">&#45; _capacity</text>
<polyline fill="none" stroke="black" points="455.5,-146 565.5,-146 "/>
<text text-anchor="start" x="463.5" y="-134" font-family="Helvetica,sans-Serif" font-size="10.00">+ init()</text>
<text text-anchor="start" x="463.5" y="-123" font-family="Helvetica,sans-Serif" font-size="10.00">+ push_front()</text>
<text text-anchor="start" x="463.5" y="-112" font-family="Helvetica,sans-Serif" font-size="10.00">+ push_back()</text>
<text text-anchor="start" x="463.5" y="-101" font-family="Helvetica,sans-Serif" font-size="10.00">+ pop_back()</text>
<text text-anchor="start" x="463.5" y="-90" font-family="Helvetica,sans-Serif" font-size="10.00">+ front()</text>
<text text-anchor="start" x="463.5" y="-79" font-family="Helvetica,sans-Serif" font-size="10.00">+ back()</text>
<text text-anchor="start" x="463.5" y="-68" font-family="Helvetica,sans-Serif" font-size="10.00">+ item_at()</text>
<text text-anchor="start" x="463.5" y="-57" font-family="Helvetica,sans-Serif" font-size="10.00">+ erase()</text>
<text text-anchor="start" x="463.5" y="-46" font-family="Helvetica,sans-Serif" font-size="10.00">+ rotate()</text>
<text text-anchor="start" x="463.5" y="-35" font-family="Helvetica,sans-Serif" font-size="10.00">+ size()</text>
<text text-anchor="start" x="463.5" y="-24" font-family="Helvetica,sans-Serif" font-size="10.00">+ is_empty()</text>
<text text-anchor="start" x="463.5" y="-13" font-family="Helvetica,sans-Serif" font-size="10.00">+ is_full()</text>
</a>
</g>
</g>
<!-- Node1&#45;&gt;Node5 -->
<g id="edge4" class="edge">
<title>Node1&#45;&gt;Node5</title>
<path fill="none" stroke="orange" d="M510.5,-238.05C510.5,-223.84 510.5,-209.32 510.5,-195.31"/>
<polygon fill="orange" stroke="orange" points="507,-238.33 510.5,-248.33 514,-238.33 507,-238.33"/>
<text text-anchor="middle" x="530" y="-222" font-family="Helvetica,sans-Serif" font-size="10.00"> &lt; Plan &gt;</text>
</g>
<!-- Node6 -->
<g id="node6" class="node">
<title>Node6</title>
<g id="a_node6"><a xlink:href="../../df/d28/class_vector_queue.html" target="_top" xlink:title=" ">
<polygon fill="white" stroke="black" points="584,-0.5 584,-200.5 717,-200.5 717,-0.5 584,-0.5"/>
<text text-anchor="start" x="592" y="-188.5" font-family="Helvetica,sans-Serif" font-size="10.00">VectorQueue&lt; Instantiated</text>
<text text-anchor="middle" x="650.5" y="-177.5" font-family="Helvetica,sans-Serif" font-size="10.00">Plan &gt;</text>
<polyline fill="none" stroke="black" points="584,-170.5 717,-170.5 "/>
<text text-anchor="start" x="592" y="-158.5" font-family="Helvetica,sans-Serif" font-size="10.00">&#45; _queue</text>
<text text-anchor="start" x="592" y="-147.5" font-family="Helvetica,sans-Serif" font-size="10.00">&#45; _capacity</text>
<polyline fill="none" stroke="black" points="584,-140.5 717,-140.5 "/>
<text text-anchor="start" x="592" y="-128.5" font-family="Helvetica,sans-Serif" font-size="10.00">+ init()</text>
<text text-anchor="start" x="592" y="-117.5" font-family="Helvetica,sans-Serif" font-size="10.00">+ push_front()</text>
<text text-anchor="start" x="592" y="-106.5" font-family="Helvetica,sans-Serif" font-size="10.00">+ push_back()</text>
<text text-anchor="start" x="592" y="-95.5" font-family="Helvetica,sans-Serif" font-size="10.00">+ pop_back()</text>
<text text-anchor="start" x="592" y="-84.5" font-family="Helvetica,sans-Serif" font-size="10.00">+ front()</text>
<text text-anchor="start" x="592" y="-73.5" font-family="Helvetica,sans-Serif" font-size="10.00">+ back()</text>
<text text-anchor="start" x="592" y="-62.5" font-family="Helvetica,sans-Serif" font-size="10.00">+ item_at()</text>
<text text-anchor="start" x="592" y="-51.5" font-family="Helvetica,sans-Serif" font-size="10.00">+ erase()</text>
<text text-anchor="start" x="592" y="-40.5" font-family="Helvetica,sans-Serif" font-size="10.00">+ rotate()</text>
<text text-anchor="start" x="592" y="-29.5" font-family="Helvetica,sans-Serif" font-size="10.00">+ size()</text>
<text text-anchor="start" x="592" y="-18.5" font-family="Helvetica,sans-Serif" font-size="10.00">+ is_empty()</text>
<text text-anchor="start" x="592" y="-7.5" font-family="Helvetica,sans-Serif" font-size="10.00">+ is_full()</text>
</a>
</g>
</g>
<!-- Node1&#45;&gt;Node6 -->
<g id="edge5" class="edge">
<title>Node1&#45;&gt;Node6</title>
<path fill="none" stroke="orange" d="M564.23,-249.7C573.61,-233.59 583.39,-216.78 592.86,-200.51"/>
<polygon fill="orange" stroke="orange" points="561.08,-248.16 559.07,-258.56 567.13,-251.68 561.08,-248.16"/>
<text text-anchor="middle" x="625.5" y="-222" font-family="Helvetica,sans-Serif" font-size="10.00"> &lt; InstantiatedPlan &gt;</text>
</g>
<!-- Node7 -->
<g id="node7" class="node">
<title>Node7</title>
<g id="a_node7"><a xlink:href="../../df/d28/class_vector_queue.html" target="_top" xlink:title=" ">
<polygon fill="white" stroke="black" points="735.5,-6 735.5,-195 899.5,-195 899.5,-6 735.5,-6"/>
<text text-anchor="middle" x="817.5" y="-183" font-family="Helvetica,sans-Serif" font-size="10.00">VectorQueue&lt; ContextCondition &gt;</text>
<polyline fill="none" stroke="black" points="735.5,-176 899.5,-176 "/>
<text text-anchor="start" x="743.5" y="-164" font-family="Helvetica,sans-Serif" font-size="10.00">&#45; _queue</text>
<text text-anchor="start" x="743.5" y="-153" font-family="Helvetica,sans-Serif" font-size="10.00">&#45; _capacity</text>
<polyline fill="none" stroke="black" points="735.5,-146 899.5,-146 "/>
<text text-anchor="start" x="743.5" y="-134" font-family="Helvetica,sans-Serif" font-size="10.00">+ init()</text>
<text text-anchor="start" x="743.5" y="-123" font-family="Helvetica,sans-Serif" font-size="10.00">+ push_front()</text>
<text text-anchor="start" x="743.5" y="-112" font-family="Helvetica,sans-Serif" font-size="10.00">+ push_back()</text>
<text text-anchor="start" x="743.5" y="-101" font-family="Helvetica,sans-Serif" font-size="10.00">+ pop_back()</text>
<text text-anchor="start" x="743.5" y="-90" font-family="Helvetica,sans-Serif" font-size="10.00">+ front()</text>
<text text-anchor="start" x="743.5" y="-79" font-family="Helvetica,sans-Serif" font-size="10.00">+ back()</text>
<text text-anchor="start" x="743.5" y="-68" font-family="Helvetica,sans-Serif" font-size="10.00">+ item_at()</text>
<text text-anchor="start" x="743.5" y="-57" font-family="Helvetica,sans-Serif" font-size="10.00">+ erase()</text>
<text text-anchor="start" x="743.5" y="-46" font-family="Helvetica,sans-Serif" font-size="10.00">+ rotate()</text>
<text text-anchor="start" x="743.5" y="-35" font-family="Helvetica,sans-Serif" font-size="10.00">+ size()</text>
<text text-anchor="start" x="743.5" y="-24" font-family="Helvetica,sans-Serif" font-size="10.00">+ is_empty()</text>
<text text-anchor="start" x="743.5" y="-13" font-family="Helvetica,sans-Serif" font-size="10.00">+ is_full()</text>
</a>
</g>
</g>
<!-- Node1&#45;&gt;Node7 -->
<g id="edge6" class="edge">
<title>Node1&#45;&gt;Node7</title>
<path fill="none" stroke="orange" d="M568.12,-309.48C613.01,-282.93 675.83,-243.05 725.5,-201 728.82,-198.19 732.14,-195.26 735.45,-192.25"/>
<polygon fill="orange" stroke="orange" points="566.24,-306.52 559.4,-314.61 569.79,-312.56 566.24,-306.52"/>
<text text-anchor="middle" x="745" y="-222" font-family="Helvetica,sans-Serif" font-size="10.00"> &lt; ContextCondition &gt;</text>
</g>
<!-- Node8 -->
<g id="node8" class="node">
<title>Node8</title>
<g id="a_node8"><a xlink:href="../../df/d28/class_vector_queue.html" target="_top" xlink:title=" ">
<polygon fill="white" stroke="black" points="918,-6 918,-195 1033,-195 1033,-6 918,-6"/>
<text text-anchor="middle" x="975.5" y="-183" font-family="Helvetica,sans-Serif" font-size="10.00">VectorQueue&lt; Belief &gt;</text>
<polyline fill="none" stroke="black" points="918,-176 1033,-176 "/>
<text text-anchor="start" x="926" y="-164" font-family="Helvetica,sans-Serif" font-size="10.00">&#45; _queue</text>
<text text-anchor="start" x="926" y="-153" font-family="Helvetica,sans-Serif" font-size="10.00">&#45; _capacity</text>
<polyline fill="none" stroke="black" points="918,-146 1033,-146 "/>
<text text-anchor="start" x="926" y="-134" font-family="Helvetica,sans-Serif" font-size="10.00">+ init()</text>
<text text-anchor="start" x="926" y="-123" font-family="Helvetica,sans-Serif" font-size="10.00">+ push_front()</text>
<text text-anchor="start" x="926" y="-112" font-family="Helvetica,sans-Serif" font-size="10.00">+ push_back()</text>
<text text-anchor="start" x="926" y="-101" font-family="Helvetica,sans-Serif" font-size="10.00">+ pop_back()</text>
<text text-anchor="start" x="926" y="-90" font-family="Helvetica,sans-Serif" font-size="10.00">+ front()</text>
<text text-anchor="start" x="926" y="-79" font-family="Helvetica,sans-Serif" font-size="10.00">+ back()</text>
<text text-anchor="start" x="926" y="-68" font-family="Helvetica,sans-Serif" font-size="10.00">+ item_at()</text>
<text text-anchor="start" x="926" y="-57" font-family="Helvetica,sans-Serif" font-size="10.00">+ erase()</text>
<text text-anchor="start" x="926" y="-46" font-family="Helvetica,sans-Serif" font-size="10.00">+ rotate()</text>
<text text-anchor="start" x="926" y="-35" font-family="Helvetica,sans-Serif" font-size="10.00">+ size()</text>
<text text-anchor="start" x="926" y="-24" font-family="Helvetica,sans-Serif" font-size="10.00">+ is_empty()</text>
<text text-anchor="start" x="926" y="-13" font-family="Helvetica,sans-Serif" font-size="10.00">+ is_full()</text>
</a>
</g>
</g>
<!-- Node1&#45;&gt;Node8 -->
<g id="edge7" class="edge">
<title>Node1&#45;&gt;Node8</title>
<path fill="none" stroke="orange" d="M569,-333.17C651.88,-318.2 804.91,-281.29 908.5,-201 911.63,-198.58 914.66,-195.96 917.59,-193.2"/>
<polygon fill="orange" stroke="orange" points="568.25,-329.75 559,-334.93 569.46,-336.64 568.25,-329.75"/>
<text text-anchor="middle" x="902.5" y="-222" font-family="Helvetica,sans-Serif" font-size="10.00"> &lt; Belief &gt;</text>
</g>
</g>
</svg>
        <g id="navigator" transform="translate(0 0)" fill="#404254">
                <rect fill="#f2f5e9" fill-opacity="0.5" stroke="#606060" stroke-width=".5" x="0" y="0" width="60" height="60"/>
                <use id="zoomplus" xlink:href="#zoomPlus" x="17" y="9" onmousedown="handleZoom(evt,'in')"/>
                <use id="zoomminus" xlink:href="#zoomMin" x="42" y="9" onmousedown="handleZoom(evt,'out')"/>
                <use id="reset" xlink:href="#resetDef" x="30" y="36" onmousedown="handleReset()"/>
                <g id="arrowUp" xlink:href="#dirArrow" transform="translate(30 24)" onmousedown="handlePan(0,-1)">
                  <use xlink:href="#rim" fill="#404040">
                        <set attributeName="fill" to="#808080" begin="arrowUp.mouseover" end="arrowUp.mouseout"/>
                  </use>
                  <path fill="none" stroke="white" stroke-width="1.5" d="M0,-3.0v7 M-2.5,-0.5L0,-3.0L2.5,-0.5"/>
                </g>
                <g id="arrowRight" xlink:href="#dirArrow" transform="rotate(90) translate(36 -43)" onmousedown="handlePan(1,0)">
                  <use xlink:href="#rim" fill="#404040">
                        <set attributeName="fill" to="#808080" begin="arrowRight.mouseover" end="arrowRight.mouseout"/>
                  </use>
                  <path fill="none" stroke="white" stroke-width="1.5" d="M0,-3.0v7 M-2.5,-0.5L0,-3.0L2.5,-0.5"/>
                </g>
                <g id="arrowDown" xlink:href="#dirArrow" transform="rotate(180) translate(-30 -48)" onmousedown="handlePan(0,1)">
                  <use xlink:href="#rim" fill="#404040">
                        <set attributeName="fill" to="#808080" begin="arrowDown.mouseover" end="arrowDown.mouseout"/>
                  </use>
                  <path fill="none" stroke="white" stroke-width="1.5" d="M0,-3.0v7 M-2.5,-0.5L0,-3.0L2.5,-0.5"/>
                </g>
                <g id="arrowLeft" xlink:href="#dirArrow" transform="rotate(270) translate(-36 17)" onmousedown="handlePan(-1,0)">
                  <use xlink:href="#rim" fill="#404040">
                        <set attributeName="fill" to="#808080" begin="arrowLeft.mouseover" end="arrowLeft.mouseout"/>
                  </use>
                  <path fill="none" stroke="white" stroke-width="1.5" d="M0,-3.0v7 M-2.5,-0.5L0,-3.0L2.5,-0.5"/>
                </g>
        </g>
        <svg viewBox="0 0 15 15" width="100%" height="30px" preserveAspectRatio="xMaxYMin meet">
         <g id="arrow_out" transform="scale(0.3 0.3)">
          <a xlink:href="class_vector_queue__inherit__graph_org.svg" target="_base">
           <rect id="button" ry="5" rx="5" y="6" x="6" height="38" width="38"
                fill="#f2f5e9" fill-opacity="0.5" stroke="#606060" stroke-width="1.0"/>
           <path id="arrow"
             d="M 11.500037,31.436501 C 11.940474,20.09759 22.043105,11.32322 32.158766,21.979434 L 37.068811,17.246167 C 37.068811,17.246167 37.088388,32 37.088388,32 L 22.160133,31.978069 C 22.160133,31.978069 26.997745,27.140456 26.997745,27.140456 C 18.528582,18.264221 13.291696,25.230495 11.500037,31.436501 z"
             style="fill:#404040;"/>
          </a>
         </g>
        </svg>
</svg>
