<?xml version="1.0" encoding="UTF-8" standalone="no"?>
<!DOCTYPE svg PUBLIC "-//W3C//DTD SVG 1.1//EN"
 "http://www.w3.org/Graphics/SVG/1.1/DTD/svg11.dtd">
<!-- Generated by graphviz version 5.0.0 (20220708.1001)
 -->
<!-- Title: belief_base.cpp Pages: 1 -->
<svg width="580pt" height="308pt"
 viewBox="0.00 0.00 579.91 308.00" xmlns="http://www.w3.org/2000/svg" xmlns:xlink="http://www.w3.org/1999/xlink">
<g id="graph0" class="graph" transform="scale(1 1) rotate(0) translate(4 304)">
<title>belief_base.cpp</title>
<polygon fill="white" stroke="transparent" points="-4,4 -4,-304 575.91,-304 575.91,4 -4,4"/>
<!-- Node1 -->
<g id="node1" class="node">
<title>Node1</title>
<g id="a_node1"><a xlink:title=" ">
<polygon fill="#bfbfbf" stroke="black" points="184.41,-280.5 184.41,-299.5 268.41,-299.5 268.41,-280.5 184.41,-280.5"/>
<text text-anchor="middle" x="226.41" y="-287.5" font-family="Helvetica,sans-Serif" font-size="10.00">belief_base.cpp</text>
</a>
</g>
</g>
<!-- Node2 -->
<g id="node2" class="node">
<title>Node2</title>
<g id="a_node2"><a xlink:href="../../d2/d2f/belief__base_8h.html" target="_top" xlink:title=" ">
<polygon fill="white" stroke="black" points="189.41,-224.5 189.41,-243.5 263.41,-243.5 263.41,-224.5 189.41,-224.5"/>
<text text-anchor="middle" x="226.41" y="-231.5" font-family="Helvetica,sans-Serif" font-size="10.00">belief_base.h</text>
</a>
</g>
</g>
<!-- Node1&#45;&gt;Node2 -->
<g id="edge1" class="edge">
<title>Node1&#45;&gt;Node2</title>
<path fill="none" stroke="midnightblue" d="M226.41,-280.08C226.41,-273.01 226.41,-262.86 226.41,-253.99"/>
<polygon fill="midnightblue" stroke="midnightblue" points="229.91,-253.75 226.41,-243.75 222.91,-253.75 229.91,-253.75"/>
</g>
<!-- Node3 -->
<g id="node3" class="node">
<title>Node3</title>
<g id="a_node3"><a xlink:href="../../da/db8/belief_8h.html" target="_top" xlink:title=" ">
<polygon fill="white" stroke="black" points="50.91,-112.5 50.91,-131.5 97.91,-131.5 97.91,-112.5 50.91,-112.5"/>
<text text-anchor="middle" x="74.41" y="-119.5" font-family="Helvetica,sans-Serif" font-size="10.00">belief.h</text>
</a>
</g>
</g>
<!-- Node2&#45;&gt;Node3 -->
<g id="edge2" class="edge">
<title>Node2&#45;&gt;Node3</title>
<path fill="none" stroke="midnightblue" d="M214.48,-224.37C188.51,-205.57 126.6,-160.77 94.49,-137.53"/>
<polygon fill="midnightblue" stroke="midnightblue" points="96.43,-134.62 86.28,-131.59 92.33,-140.29 96.43,-134.62"/>
</g>
<!-- Node5 -->
<g id="node5" class="node">
<title>Node5</title>
<g id="a_node5"><a xlink:title=" ">
<polygon fill="white" stroke="#bfbfbf" points="134.41,-0.5 134.41,-19.5 180.41,-19.5 180.41,-0.5 134.41,-0.5"/>
<text text-anchor="middle" x="157.41" y="-7.5" font-family="Helvetica,sans-Serif" font-size="10.00">cstdint</text>
</a>
</g>
</g>
<!-- Node2&#45;&gt;Node5 -->
<g id="edge19" class="edge">
<title>Node2&#45;&gt;Node5</title>
<path fill="none" stroke="midnightblue" d="M195.24,-224.38C140.31,-207.11 29.5,-162.32 2.41,-76 -13.7,-24.67 73.8,-13.56 124.02,-11.36"/>
<polygon fill="midnightblue" stroke="midnightblue" points="124.25,-14.86 134.12,-11.02 124.01,-7.86 124.25,-14.86"/>
</g>
<!-- Node6 -->
<g id="node6" class="node">
<title>Node6</title>
<g id="a_node6"><a xlink:href="../../dd/d20/event_8h.html" target="_top" xlink:title=" ">
<polygon fill="white" stroke="black" points="202.41,-112.5 202.41,-131.5 250.41,-131.5 250.41,-112.5 202.41,-112.5"/>
<text text-anchor="middle" x="226.41" y="-119.5" font-family="Helvetica,sans-Serif" font-size="10.00">event.h</text>
</a>
</g>
</g>
<!-- Node2&#45;&gt;Node6 -->
<g id="edge6" class="edge">
<title>Node2&#45;&gt;Node6</title>
<path fill="none" stroke="midnightblue" d="M226.41,-224.37C226.41,-206.62 226.41,-165.67 226.41,-141.6"/>
<polygon fill="midnightblue" stroke="midnightblue" points="229.91,-141.59 226.41,-131.59 222.91,-141.59 229.91,-141.59"/>
</g>
<!-- Node9 -->
<g id="node9" class="node">
<title>Node9</title>
<g id="a_node9"><a xlink:href="../../d7/dc4/event__base_8h.html" target="_top" xlink:title=" ">
<polygon fill="white" stroke="black" points="328.41,-168.5 328.41,-187.5 402.41,-187.5 402.41,-168.5 328.41,-168.5"/>
<text text-anchor="middle" x="365.41" y="-175.5" font-family="Helvetica,sans-Serif" font-size="10.00">event_base.h</text>
</a>
</g>
</g>
<!-- Node2&#45;&gt;Node9 -->
<g id="edge12" class="edge">
<title>Node2&#45;&gt;Node9</title>
<path fill="none" stroke="midnightblue" d="M248.43,-224.44C271.51,-215.48 307.97,-201.31 334.05,-191.18"/>
<polygon fill="midnightblue" stroke="midnightblue" points="335.43,-194.4 343.49,-187.52 332.9,-187.88 335.43,-194.4"/>
</g>
<!-- Node10 -->
<g id="node10" class="node">
<title>Node10</title>
<g id="a_node10"><a xlink:href="../../d0/d81/vector__queue_8h.html" target="_top" xlink:title=" ">
<polygon fill="white" stroke="black" points="468.91,-112.5 468.91,-131.5 571.91,-131.5 571.91,-112.5 468.91,-112.5"/>
<text text-anchor="middle" x="520.41" y="-119.5" font-family="Helvetica,sans-Serif" font-size="10.00">../lib/vector_queue.h</text>
</a>
</g>
</g>
<!-- Node2&#45;&gt;Node10 -->
<g id="edge18" class="edge">
<title>Node2&#45;&gt;Node10</title>
<path fill="none" stroke="midnightblue" d="M263.58,-227.33C301.68,-220.75 362.15,-208.14 411.41,-188 444.42,-174.5 479.27,-152.08 500.43,-137.42"/>
<polygon fill="midnightblue" stroke="midnightblue" points="502.45,-140.28 508.61,-131.67 498.42,-134.56 502.45,-140.28"/>
</g>
<!-- Node4 -->
<g id="node4" class="node">
<title>Node4</title>
<g id="a_node4"><a xlink:href="../../d5/d6b/proposition_8h.html" target="_top" xlink:title=" ">
<polygon fill="white" stroke="black" points="19.41,-56.5 19.41,-75.5 129.41,-75.5 129.41,-56.5 19.41,-56.5"/>
<text text-anchor="middle" x="74.41" y="-63.5" font-family="Helvetica,sans-Serif" font-size="10.00">../syntax/proposition.h</text>
</a>
</g>
</g>
<!-- Node3&#45;&gt;Node4 -->
<g id="edge3" class="edge">
<title>Node3&#45;&gt;Node4</title>
<path fill="none" stroke="midnightblue" d="M74.41,-112.08C74.41,-105.01 74.41,-94.86 74.41,-85.99"/>
<polygon fill="midnightblue" stroke="midnightblue" points="77.91,-85.75 74.41,-75.75 70.91,-85.75 77.91,-85.75"/>
</g>
<!-- Node3&#45;&gt;Node5 -->
<g id="edge5" class="edge">
<title>Node3&#45;&gt;Node5</title>
<path fill="none" stroke="midnightblue" d="M54.71,-112.49C30.3,-100.73 -6.17,-78.41 10.41,-56 36.44,-20.8 89.47,-12.24 124.2,-10.62"/>
<polygon fill="midnightblue" stroke="midnightblue" points="124.46,-14.12 134.35,-10.32 124.25,-7.12 124.46,-14.12"/>
</g>
<!-- Node4&#45;&gt;Node5 -->
<g id="edge4" class="edge">
<title>Node4&#45;&gt;Node5</title>
<path fill="none" stroke="midnightblue" d="M87.74,-56.32C100.57,-47.98 120.19,-35.21 135.35,-25.35"/>
<polygon fill="midnightblue" stroke="midnightblue" points="137.63,-28.04 144.11,-19.65 133.82,-22.17 137.63,-28.04"/>
</g>
<!-- Node6&#45;&gt;Node4 -->
<g id="edge7" class="edge">
<title>Node6&#45;&gt;Node4</title>
<path fill="none" stroke="midnightblue" d="M202.32,-112.44C176.86,-103.4 136.52,-89.06 107.95,-78.92"/>
<polygon fill="midnightblue" stroke="midnightblue" points="108.98,-75.57 98.38,-75.52 106.63,-82.16 108.98,-75.57"/>
</g>
<!-- Node6&#45;&gt;Node5 -->
<g id="edge11" class="edge">
<title>Node6&#45;&gt;Node5</title>
<path fill="none" stroke="midnightblue" d="M213.04,-112.19C201.71,-104.08 185.86,-91.03 176.41,-76 167.51,-61.85 162.64,-43.36 160.06,-29.73"/>
<polygon fill="midnightblue" stroke="midnightblue" points="163.47,-28.91 158.4,-19.61 156.57,-30.05 163.47,-28.91"/>
</g>
<!-- Node7 -->
<g id="node7" class="node">
<title>Node7</title>
<g id="a_node7"><a xlink:href="../../db/d50/event__operator_8h.html" target="_top" xlink:title=" ">
<polygon fill="white" stroke="black" points="284.91,-56.5 284.91,-75.5 411.91,-75.5 411.91,-56.5 284.91,-56.5"/>
<text text-anchor="middle" x="348.41" y="-63.5" font-family="Helvetica,sans-Serif" font-size="10.00">../syntax/event_operator.h</text>
</a>
</g>
</g>
<!-- Node6&#45;&gt;Node7 -->
<g id="edge8" class="edge">
<title>Node6&#45;&gt;Node7</title>
<path fill="none" stroke="midnightblue" d="M245.74,-112.44C265.73,-103.6 297.15,-89.69 319.97,-79.59"/>
<polygon fill="midnightblue" stroke="midnightblue" points="321.44,-82.76 329.17,-75.52 318.61,-76.36 321.44,-82.76"/>
</g>
<!-- Node8 -->
<g id="node8" class="node">
<title>Node8</title>
<g id="a_node8"><a xlink:href="../../df/dc3/event__id_8h.html" target="_top" xlink:title=" ">
<polygon fill="white" stroke="black" points="185.91,-56.5 185.91,-75.5 266.91,-75.5 266.91,-56.5 185.91,-56.5"/>
<text text-anchor="middle" x="226.41" y="-63.5" font-family="Helvetica,sans-Serif" font-size="10.00">../lib/event_id.h</text>
</a>
</g>
</g>
<!-- Node6&#45;&gt;Node8 -->
<g id="edge9" class="edge">
<title>Node6&#45;&gt;Node8</title>
<path fill="none" stroke="midnightblue" d="M226.41,-112.08C226.41,-105.01 226.41,-94.86 226.41,-85.99"/>
<polygon fill="midnightblue" stroke="midnightblue" points="229.91,-85.75 226.41,-75.75 222.91,-85.75 229.91,-85.75"/>
</g>
<!-- Node8&#45;&gt;Node5 -->
<g id="edge10" class="edge">
<title>Node8&#45;&gt;Node5</title>
<path fill="none" stroke="midnightblue" d="M215.32,-56.32C204.92,-48.18 189.15,-35.84 176.69,-26.09"/>
<polygon fill="midnightblue" stroke="midnightblue" points="178.73,-23.24 168.7,-19.83 174.42,-28.75 178.73,-23.24"/>
</g>
<!-- Node9&#45;&gt;Node5 -->
<g id="edge17" class="edge">
<title>Node9&#45;&gt;Node5</title>
<path fill="none" stroke="midnightblue" d="M375.51,-168.21C398.75,-146.95 451.72,-91.91 421.41,-56 392.22,-21.42 254.78,-13.41 190.59,-11.56"/>
<polygon fill="midnightblue" stroke="midnightblue" points="190.67,-8.06 180.58,-11.3 190.49,-15.05 190.67,-8.06"/>
</g>
<!-- Node9&#45;&gt;Node6 -->
<g id="edge13" class="edge">
<title>Node9&#45;&gt;Node6</title>
<path fill="none" stroke="midnightblue" d="M343.38,-168.44C320.31,-159.48 283.85,-145.31 257.77,-135.18"/>
<polygon fill="midnightblue" stroke="midnightblue" points="258.92,-131.88 248.33,-131.52 256.39,-138.4 258.92,-131.88"/>
</g>
<!-- Node9&#45;&gt;Node10 -->
<g id="edge14" class="edge">
<title>Node9&#45;&gt;Node10</title>
<path fill="none" stroke="midnightblue" d="M389.97,-168.44C415.93,-159.4 457.08,-145.06 486.21,-134.92"/>
<polygon fill="midnightblue" stroke="midnightblue" points="487.67,-138.11 495.96,-131.52 485.37,-131.5 487.67,-138.11"/>
</g>
<!-- Node10&#45;&gt;Node5 -->
<g id="edge16" class="edge">
<title>Node10&#45;&gt;Node5</title>
<path fill="none" stroke="midnightblue" d="M514.3,-112.08C503.88,-97.64 481.16,-69.39 454.41,-56 408.59,-33.07 258.14,-18.83 190.67,-13.45"/>
<polygon fill="midnightblue" stroke="midnightblue" points="190.82,-9.95 180.58,-12.66 190.28,-16.93 190.82,-9.95"/>
</g>
<!-- Node11 -->
<g id="node11" class="node">
<title>Node11</title>
<g id="a_node11"><a xlink:title=" ">
<polygon fill="white" stroke="#bfbfbf" points="506.41,-56.5 506.41,-75.5 550.41,-75.5 550.41,-56.5 506.41,-56.5"/>
<text text-anchor="middle" x="528.41" y="-63.5" font-family="Helvetica,sans-Serif" font-size="10.00">vector</text>
</a>
</g>
</g>
<!-- Node10&#45;&gt;Node11 -->
<g id="edge15" class="edge">
<title>Node10&#45;&gt;Node11</title>
<path fill="none" stroke="midnightblue" d="M521.73,-112.08C522.79,-104.93 524.32,-94.64 525.64,-85.69"/>
<polygon fill="midnightblue" stroke="midnightblue" points="529.11,-86.16 527.11,-75.75 522.19,-85.13 529.11,-86.16"/>
</g>
</g>
</svg>
