<?xml version="1.0" encoding="UTF-8" standalone="no"?>
<!DOCTYPE svg PUBLIC "-//W3C//DTD SVG 1.1//EN"
 "http://www.w3.org/Graphics/SVG/1.1/DTD/svg11.dtd">
<!-- Generated by graphviz version 2.47.1 (20210421.1823)
 -->
<!-- Title: intention_base.h Pages: 1 -->
<svg width="1008pt" height="588pt"
 viewBox="0.00 0.00 1007.50 588.00" xmlns="http://www.w3.org/2000/svg" xmlns:xlink="http://www.w3.org/1999/xlink">
<g id="graph0" class="graph" transform="scale(1 1) rotate(0) translate(4 584)">
<title>intention_base.h</title>
<polygon fill="white" stroke="transparent" points="-4,4 -4,-584 1003.5,-584 1003.5,4 -4,4"/>
<!-- Node1 -->
<g id="node1" class="node">
<title>Node1</title>
<g id="a_node1"><a xlink:title=" ">
<polygon fill="#bfbfbf" stroke="black" points="249,-560.5 249,-579.5 336,-579.5 336,-560.5 249,-560.5"/>
<text text-anchor="middle" x="292.5" y="-567.5" font-family="Helvetica,sans-Serif" font-size="10.00">intention_base.h</text>
</a>
</g>
</g>
<!-- Node2 -->
<g id="node2" class="node">
<title>Node2</title>
<g id="a_node2"><a xlink:href="../../d2/d2f/belief__base_8h.html" target="_top" xlink:title=" ">
<polygon fill="white" stroke="black" points="369.5,-224.5 369.5,-243.5 443.5,-243.5 443.5,-224.5 369.5,-224.5"/>
<text text-anchor="middle" x="406.5" y="-231.5" font-family="Helvetica,sans-Serif" font-size="10.00">belief_base.h</text>
</a>
</g>
</g>
<!-- Node1&#45;&gt;Node2 -->
<g id="edge1" class="edge">
<title>Node1&#45;&gt;Node2</title>
<path fill="none" stroke="midnightblue" d="M291.29,-560.31C288.79,-540.18 284.07,-488.92 294.5,-448 314.59,-369.18 368.9,-287.05 393.76,-252.23"/>
<polygon fill="midnightblue" stroke="midnightblue" points="396.91,-253.86 399.94,-243.71 391.24,-249.75 396.91,-253.86"/>
</g>
<!-- Node5 -->
<g id="node5" class="node">
<title>Node5</title>
<g id="a_node5"><a xlink:title=" ">
<polygon fill="white" stroke="#bfbfbf" points="637.5,-0.5 637.5,-19.5 683.5,-19.5 683.5,-0.5 637.5,-0.5"/>
<text text-anchor="middle" x="660.5" y="-7.5" font-family="Helvetica,sans-Serif" font-size="10.00">cstdint</text>
</a>
</g>
</g>
<!-- Node1&#45;&gt;Node5 -->
<g id="edge59" class="edge">
<title>Node1&#45;&gt;Node5</title>
<path fill="none" stroke="midnightblue" d="M336.19,-566.84C490.33,-558.64 999.5,-526.47 999.5,-459 999.5,-459 999.5,-459 999.5,-121 999.5,-84 979.5,-74.57 947.5,-56 904.94,-31.3 760.51,-18.11 694.24,-13.23"/>
<polygon fill="midnightblue" stroke="midnightblue" points="694.15,-9.72 683.93,-12.5 693.65,-16.7 694.15,-9.72"/>
</g>
<!-- Node9 -->
<g id="node9" class="node">
<title>Node9</title>
<g id="a_node9"><a xlink:href="../../d7/dc4/event__base_8h.html" target="_top" xlink:title=" ">
<polygon fill="white" stroke="black" points="163.5,-168.5 163.5,-187.5 237.5,-187.5 237.5,-168.5 163.5,-168.5"/>
<text text-anchor="middle" x="200.5" y="-175.5" font-family="Helvetica,sans-Serif" font-size="10.00">event_base.h</text>
</a>
</g>
</g>
<!-- Node1&#45;&gt;Node9 -->
<g id="edge20" class="edge">
<title>Node1&#45;&gt;Node9</title>
<path fill="none" stroke="midnightblue" d="M248.91,-563.23C192.82,-553.07 102.5,-526.27 102.5,-459 102.5,-459 102.5,-459 102.5,-345 102.5,-282.25 155.07,-222.37 183.2,-194.82"/>
<polygon fill="midnightblue" stroke="midnightblue" points="185.92,-197.07 190.75,-187.63 181.09,-192 185.92,-197.07"/>
</g>
<!-- Node10 -->
<g id="node10" class="node">
<title>Node10</title>
<g id="a_node10"><a xlink:href="../../d0/d81/vector__queue_8h.html" target="_top" xlink:title=" ">
<polygon fill="white" stroke="black" points="0,-112.5 0,-131.5 103,-131.5 103,-112.5 0,-112.5"/>
<text text-anchor="middle" x="51.5" y="-119.5" font-family="Helvetica,sans-Serif" font-size="10.00">../lib/vector_queue.h</text>
</a>
</g>
</g>
<!-- Node1&#45;&gt;Node10 -->
<g id="edge58" class="edge">
<title>Node1&#45;&gt;Node10</title>
<path fill="none" stroke="midnightblue" d="M248.96,-560.71C172.35,-544.86 21.5,-507.49 21.5,-459 21.5,-459 21.5,-459 21.5,-233 21.5,-199.64 34.5,-162.53 43.39,-141.07"/>
<polygon fill="midnightblue" stroke="midnightblue" points="46.71,-142.19 47.45,-131.62 40.28,-139.42 46.71,-142.19"/>
</g>
<!-- Node12 -->
<g id="node12" class="node">
<title>Node12</title>
<g id="a_node12"><a xlink:href="../../df/d3f/intention_8h.html" target="_top" xlink:title=" ">
<polygon fill="white" stroke="black" points="342,-504.5 342,-523.5 403,-523.5 403,-504.5 342,-504.5"/>
<text text-anchor="middle" x="372.5" y="-511.5" font-family="Helvetica,sans-Serif" font-size="10.00">intention.h</text>
</a>
</g>
</g>
<!-- Node1&#45;&gt;Node12 -->
<g id="edge21" class="edge">
<title>Node1&#45;&gt;Node12</title>
<path fill="none" stroke="midnightblue" d="M305.35,-560.32C317.72,-551.98 336.63,-539.21 351.24,-529.35"/>
<polygon fill="midnightblue" stroke="midnightblue" points="353.35,-532.15 359.68,-523.65 349.43,-526.35 353.35,-532.15"/>
</g>
<!-- Node14 -->
<g id="node14" class="node">
<title>Node14</title>
<g id="a_node14"><a xlink:href="../../d9/d4e/plan_8h.html" target="_top" xlink:title=" ">
<polygon fill="white" stroke="black" points="484.5,-392.5 484.5,-411.5 564.5,-411.5 564.5,-392.5 484.5,-392.5"/>
<text text-anchor="middle" x="524.5" y="-399.5" font-family="Helvetica,sans-Serif" font-size="10.00">../syntax/plan.h</text>
</a>
</g>
</g>
<!-- Node1&#45;&gt;Node14 -->
<g id="edge57" class="edge">
<title>Node1&#45;&gt;Node14</title>
<path fill="none" stroke="midnightblue" d="M336.01,-568.45C402.08,-564.97 525.98,-547.53 582.5,-468 596.07,-448.91 571.99,-429.13 550.85,-416.48"/>
<polygon fill="midnightblue" stroke="midnightblue" points="552.52,-413.4 542.09,-411.52 549.07,-419.49 552.52,-413.4"/>
</g>
<!-- Node3 -->
<g id="node3" class="node">
<title>Node3</title>
<g id="a_node3"><a xlink:href="../../da/db8/belief_8h.html" target="_top" xlink:title=" ">
<polygon fill="white" stroke="black" points="433,-112.5 433,-131.5 480,-131.5 480,-112.5 433,-112.5"/>
<text text-anchor="middle" x="456.5" y="-119.5" font-family="Helvetica,sans-Serif" font-size="10.00">belief.h</text>
</a>
</g>
</g>
<!-- Node2&#45;&gt;Node3 -->
<g id="edge2" class="edge">
<title>Node2&#45;&gt;Node3</title>
<path fill="none" stroke="midnightblue" d="M410.42,-224.37C418.57,-206.46 437.44,-164.92 448.34,-140.95"/>
<polygon fill="midnightblue" stroke="midnightblue" points="451.64,-142.14 452.59,-131.59 445.27,-139.25 451.64,-142.14"/>
</g>
<!-- Node2&#45;&gt;Node5 -->
<g id="edge19" class="edge">
<title>Node2&#45;&gt;Node5</title>
<path fill="none" stroke="midnightblue" d="M405.79,-224.34C403.91,-194.61 402.28,-96.32 458.5,-56 509.24,-19.61 584.17,-11.89 627.07,-10.68"/>
<polygon fill="midnightblue" stroke="midnightblue" points="627.32,-14.18 637.25,-10.5 627.19,-7.18 627.32,-14.18"/>
</g>
<!-- Node6 -->
<g id="node6" class="node">
<title>Node6</title>
<g id="a_node6"><a xlink:href="../../dd/d20/event_8h.html" target="_top" xlink:title=" ">
<polygon fill="white" stroke="black" points="271.5,-112.5 271.5,-131.5 319.5,-131.5 319.5,-112.5 271.5,-112.5"/>
<text text-anchor="middle" x="295.5" y="-119.5" font-family="Helvetica,sans-Serif" font-size="10.00">event.h</text>
</a>
</g>
</g>
<!-- Node2&#45;&gt;Node6 -->
<g id="edge6" class="edge">
<title>Node2&#45;&gt;Node6</title>
<path fill="none" stroke="midnightblue" d="M397.79,-224.37C379.15,-205.89 335.15,-162.29 311.39,-138.74"/>
<polygon fill="midnightblue" stroke="midnightblue" points="313.74,-136.14 304.17,-131.59 308.81,-141.12 313.74,-136.14"/>
</g>
<!-- Node2&#45;&gt;Node9 -->
<g id="edge12" class="edge">
<title>Node2&#45;&gt;Node9</title>
<path fill="none" stroke="midnightblue" d="M373.86,-224.44C338.45,-215.16 281.79,-200.31 242.95,-190.13"/>
<polygon fill="midnightblue" stroke="midnightblue" points="243.55,-186.67 232.99,-187.52 241.77,-193.44 243.55,-186.67"/>
</g>
<!-- Node2&#45;&gt;Node10 -->
<g id="edge18" class="edge">
<title>Node2&#45;&gt;Node10</title>
<path fill="none" stroke="midnightblue" d="M388.13,-224.42C358.74,-210.94 299.1,-184.64 246.5,-168 200.48,-153.45 146.99,-141.44 107.69,-133.5"/>
<polygon fill="midnightblue" stroke="midnightblue" points="108.25,-130.04 97.76,-131.52 106.88,-136.9 108.25,-130.04"/>
</g>
<!-- Node4 -->
<g id="node4" class="node">
<title>Node4</title>
<g id="a_node4"><a xlink:href="../../d5/d6b/proposition_8h.html" target="_top" xlink:title=" ">
<polygon fill="white" stroke="black" points="484.5,-56.5 484.5,-75.5 594.5,-75.5 594.5,-56.5 484.5,-56.5"/>
<text text-anchor="middle" x="539.5" y="-63.5" font-family="Helvetica,sans-Serif" font-size="10.00">../syntax/proposition.h</text>
</a>
</g>
</g>
<!-- Node3&#45;&gt;Node4 -->
<g id="edge3" class="edge">
<title>Node3&#45;&gt;Node4</title>
<path fill="none" stroke="midnightblue" d="M469.84,-112.32C482.66,-103.98 502.28,-91.21 517.44,-81.35"/>
<polygon fill="midnightblue" stroke="midnightblue" points="519.72,-84.04 526.2,-75.65 515.91,-78.17 519.72,-84.04"/>
</g>
<!-- Node3&#45;&gt;Node5 -->
<g id="edge5" class="edge">
<title>Node3&#45;&gt;Node5</title>
<path fill="none" stroke="midnightblue" d="M456.44,-112.47C456.82,-98.57 459.69,-71.11 475.5,-56 497.05,-35.41 580.06,-21.5 627.24,-15.07"/>
<polygon fill="midnightblue" stroke="midnightblue" points="627.83,-18.52 637.28,-13.74 626.91,-11.58 627.83,-18.52"/>
</g>
<!-- Node4&#45;&gt;Node5 -->
<g id="edge4" class="edge">
<title>Node4&#45;&gt;Node5</title>
<path fill="none" stroke="midnightblue" d="M558.67,-56.44C578.41,-47.64 609.39,-33.81 631.99,-23.72"/>
<polygon fill="midnightblue" stroke="midnightblue" points="633.71,-26.79 641.42,-19.52 630.86,-20.4 633.71,-26.79"/>
</g>
<!-- Node6&#45;&gt;Node4 -->
<g id="edge7" class="edge">
<title>Node6&#45;&gt;Node4</title>
<path fill="none" stroke="midnightblue" d="M319.79,-115.62C359.57,-106.82 439.34,-89.17 491.03,-77.73"/>
<polygon fill="midnightblue" stroke="midnightblue" points="491.96,-81.1 500.97,-75.53 490.45,-74.27 491.96,-81.1"/>
</g>
<!-- Node6&#45;&gt;Node5 -->
<g id="edge11" class="edge">
<title>Node6&#45;&gt;Node5</title>
<path fill="none" stroke="midnightblue" d="M271.31,-118.49C222.5,-112.53 119.78,-95.05 155.5,-56 187.31,-21.23 519.27,-13.14 626.97,-11.43"/>
<polygon fill="midnightblue" stroke="midnightblue" points="627.3,-14.92 637.25,-11.27 627.2,-7.92 627.3,-14.92"/>
</g>
<!-- Node7 -->
<g id="node7" class="node">
<title>Node7</title>
<g id="a_node7"><a xlink:href="../../db/d50/event__operator_8h.html" target="_top" xlink:title=" ">
<polygon fill="white" stroke="black" points="263,-56.5 263,-75.5 390,-75.5 390,-56.5 263,-56.5"/>
<text text-anchor="middle" x="326.5" y="-63.5" font-family="Helvetica,sans-Serif" font-size="10.00">../syntax/event_operator.h</text>
</a>
</g>
</g>
<!-- Node6&#45;&gt;Node7 -->
<g id="edge8" class="edge">
<title>Node6&#45;&gt;Node7</title>
<path fill="none" stroke="midnightblue" d="M300.62,-112.08C304.91,-104.61 311.16,-93.72 316.44,-84.52"/>
<polygon fill="midnightblue" stroke="midnightblue" points="319.53,-86.17 321.48,-75.75 313.46,-82.68 319.53,-86.17"/>
</g>
<!-- Node8 -->
<g id="node8" class="node">
<title>Node8</title>
<g id="a_node8"><a xlink:href="../../df/dc3/event__id_8h.html" target="_top" xlink:title=" ">
<polygon fill="white" stroke="black" points="164,-56.5 164,-75.5 245,-75.5 245,-56.5 164,-56.5"/>
<text text-anchor="middle" x="204.5" y="-63.5" font-family="Helvetica,sans-Serif" font-size="10.00">../lib/event_id.h</text>
</a>
</g>
</g>
<!-- Node6&#45;&gt;Node8 -->
<g id="edge9" class="edge">
<title>Node6&#45;&gt;Node8</title>
<path fill="none" stroke="midnightblue" d="M280.88,-112.32C266.55,-103.82 244.49,-90.73 227.75,-80.8"/>
<polygon fill="midnightblue" stroke="midnightblue" points="229.47,-77.75 219.08,-75.65 225.9,-83.77 229.47,-77.75"/>
</g>
<!-- Node8&#45;&gt;Node5 -->
<g id="edge10" class="edge">
<title>Node8&#45;&gt;Node5</title>
<path fill="none" stroke="midnightblue" d="M245.12,-57.45C248.29,-56.93 251.45,-56.44 254.5,-56 392.06,-36.02 556.99,-20.25 626.73,-13.96"/>
<polygon fill="midnightblue" stroke="midnightblue" points="627.44,-17.41 637.09,-13.04 626.81,-10.44 627.44,-17.41"/>
</g>
<!-- Node9&#45;&gt;Node5 -->
<g id="edge17" class="edge">
<title>Node9&#45;&gt;Node5</title>
<path fill="none" stroke="midnightblue" d="M190.44,-168.37C166.69,-147.02 111.49,-90.92 143.5,-56 176.2,-20.33 518.15,-12.84 627.25,-11.35"/>
<polygon fill="midnightblue" stroke="midnightblue" points="627.4,-14.85 637.35,-11.22 627.31,-7.85 627.4,-14.85"/>
</g>
<!-- Node9&#45;&gt;Node6 -->
<g id="edge13" class="edge">
<title>Node9&#45;&gt;Node6</title>
<path fill="none" stroke="midnightblue" d="M215.76,-168.32C230.72,-159.82 253.75,-146.73 271.23,-136.8"/>
<polygon fill="midnightblue" stroke="midnightblue" points="273.31,-139.64 280.27,-131.65 269.85,-133.55 273.31,-139.64"/>
</g>
<!-- Node9&#45;&gt;Node10 -->
<g id="edge14" class="edge">
<title>Node9&#45;&gt;Node10</title>
<path fill="none" stroke="midnightblue" d="M176.89,-168.44C152.04,-159.44 112.73,-145.19 84.75,-135.05"/>
<polygon fill="midnightblue" stroke="midnightblue" points="85.59,-131.63 75,-131.52 83.21,-138.21 85.59,-131.63"/>
</g>
<!-- Node10&#45;&gt;Node5 -->
<g id="edge16" class="edge">
<title>Node10&#45;&gt;Node5</title>
<path fill="none" stroke="midnightblue" d="M40.68,-112.34C25.26,-99 0.5,-73.15 16.5,-56 58.42,-11.05 501.33,-10.09 627.27,-10.74"/>
<polygon fill="midnightblue" stroke="midnightblue" points="627.44,-14.24 637.46,-10.8 627.48,-7.24 627.44,-14.24"/>
</g>
<!-- Node11 -->
<g id="node11" class="node">
<title>Node11</title>
<g id="a_node11"><a xlink:title=" ">
<polygon fill="white" stroke="#bfbfbf" points="25.5,-56.5 25.5,-75.5 69.5,-75.5 69.5,-56.5 25.5,-56.5"/>
<text text-anchor="middle" x="47.5" y="-63.5" font-family="Helvetica,sans-Serif" font-size="10.00">vector</text>
</a>
</g>
</g>
<!-- Node10&#45;&gt;Node11 -->
<g id="edge15" class="edge">
<title>Node10&#45;&gt;Node11</title>
<path fill="none" stroke="midnightblue" d="M50.84,-112.08C50.32,-105.01 49.56,-94.86 48.91,-85.99"/>
<polygon fill="midnightblue" stroke="midnightblue" points="52.38,-85.47 48.15,-75.75 45.4,-85.98 52.38,-85.47"/>
</g>
<!-- Node12&#45;&gt;Node2 -->
<g id="edge51" class="edge">
<title>Node12&#45;&gt;Node2</title>
<path fill="none" stroke="midnightblue" d="M377.09,-504.44C386.37,-486.29 406.5,-442.38 406.5,-403 406.5,-403 406.5,-403 406.5,-345 406.5,-312.95 406.5,-275.64 406.5,-253.75"/>
<polygon fill="midnightblue" stroke="midnightblue" points="410,-253.56 406.5,-243.56 403,-253.56 410,-253.56"/>
</g>
<!-- Node12&#45;&gt;Node5 -->
<g id="edge56" class="edge">
<title>Node12&#45;&gt;Node5</title>
<path fill="none" stroke="midnightblue" d="M403.26,-510.62C505.97,-502.17 835.45,-470.94 921.5,-412 949.49,-392.83 961.5,-380.92 961.5,-347 961.5,-347 961.5,-347 961.5,-121 961.5,-87.08 949.59,-75.01 921.5,-56 884.78,-31.15 755.28,-18.2 693.61,-13.33"/>
<polygon fill="midnightblue" stroke="midnightblue" points="693.86,-9.84 683.62,-12.56 693.33,-16.82 693.86,-9.84"/>
</g>
<!-- Node12&#45;&gt;Node10 -->
<g id="edge55" class="edge">
<title>Node12&#45;&gt;Node10</title>
<path fill="none" stroke="midnightblue" d="M352.36,-504.38C335.62,-496.55 311.81,-483.82 294.5,-468 235.58,-414.18 100.97,-202.13 62.16,-140.12"/>
<polygon fill="midnightblue" stroke="midnightblue" points="65.04,-138.13 56.78,-131.5 59.11,-141.84 65.04,-138.13"/>
</g>
<!-- Node13 -->
<g id="node13" class="node">
<title>Node13</title>
<g id="a_node13"><a xlink:href="../../de/d75/plan__base_8h.html" target="_top" xlink:title=" ">
<polygon fill="white" stroke="black" points="303.5,-448.5 303.5,-467.5 371.5,-467.5 371.5,-448.5 303.5,-448.5"/>
<text text-anchor="middle" x="337.5" y="-455.5" font-family="Helvetica,sans-Serif" font-size="10.00">plan_base.h</text>
</a>
</g>
</g>
<!-- Node12&#45;&gt;Node13 -->
<g id="edge22" class="edge">
<title>Node12&#45;&gt;Node13</title>
<path fill="none" stroke="midnightblue" d="M366.72,-504.08C361.83,-496.53 354.67,-485.49 348.67,-476.23"/>
<polygon fill="midnightblue" stroke="midnightblue" points="351.55,-474.24 343.17,-467.75 345.67,-478.05 351.55,-474.24"/>
</g>
<!-- Node21 -->
<g id="node21" class="node">
<title>Node21</title>
<g id="a_node21"><a xlink:href="../../de/d3c/instantiated__plan_8h.html" target="_top" xlink:title=" ">
<polygon fill="white" stroke="black" points="475.5,-448.5 475.5,-467.5 573.5,-467.5 573.5,-448.5 475.5,-448.5"/>
<text text-anchor="middle" x="524.5" y="-455.5" font-family="Helvetica,sans-Serif" font-size="10.00">instantiated_plan.h</text>
</a>
</g>
</g>
<!-- Node12&#45;&gt;Node21 -->
<g id="edge52" class="edge">
<title>Node12&#45;&gt;Node21</title>
<path fill="none" stroke="midnightblue" d="M396.58,-504.44C422.04,-495.4 462.39,-481.06 490.96,-470.92"/>
<polygon fill="midnightblue" stroke="midnightblue" points="492.28,-474.16 500.53,-467.52 489.93,-467.57 492.28,-474.16"/>
</g>
<!-- Node13&#45;&gt;Node2 -->
<g id="edge23" class="edge">
<title>Node13&#45;&gt;Node2</title>
<path fill="none" stroke="midnightblue" d="M340.25,-448.16C348.28,-422.3 372.44,-344.53 392.5,-280 395.24,-271.2 398.28,-261.43 400.82,-253.25"/>
<polygon fill="midnightblue" stroke="midnightblue" points="404.19,-254.21 403.82,-243.63 397.5,-252.13 404.19,-254.21"/>
</g>
<!-- Node13&#45;&gt;Node5 -->
<g id="edge50" class="edge">
<title>Node13&#45;&gt;Node5</title>
<path fill="none" stroke="midnightblue" d="M371.78,-453.78C491.75,-442.08 885.5,-399.64 885.5,-347 885.5,-347 885.5,-347 885.5,-121 885.5,-36.74 756.57,-17.01 693.9,-12.4"/>
<polygon fill="midnightblue" stroke="midnightblue" points="693.94,-8.9 683.73,-11.74 693.48,-15.88 693.94,-8.9"/>
</g>
<!-- Node13&#45;&gt;Node6 -->
<g id="edge24" class="edge">
<title>Node13&#45;&gt;Node6</title>
<path fill="none" stroke="midnightblue" d="M336.42,-448.41C330.88,-404.38 305.65,-203.74 297.82,-141.48"/>
<polygon fill="midnightblue" stroke="midnightblue" points="301.29,-141.02 296.57,-131.54 294.35,-141.89 301.29,-141.02"/>
</g>
<!-- Node13&#45;&gt;Node10 -->
<g id="edge49" class="edge">
<title>Node13&#45;&gt;Node10</title>
<path fill="none" stroke="midnightblue" d="M318.92,-448.33C269.68,-424.19 136.03,-350.92 83.5,-244 66.79,-209.99 58,-166.17 54.09,-141.68"/>
<polygon fill="midnightblue" stroke="midnightblue" points="57.52,-141 52.59,-131.62 50.6,-142.03 57.52,-141"/>
</g>
<!-- Node13&#45;&gt;Node14 -->
<g id="edge25" class="edge">
<title>Node13&#45;&gt;Node14</title>
<path fill="none" stroke="midnightblue" d="M367.13,-448.44C399,-439.24 449.83,-424.56 485.06,-414.39"/>
<polygon fill="midnightblue" stroke="midnightblue" points="486.37,-417.65 495.01,-411.52 484.43,-410.93 486.37,-417.65"/>
</g>
<!-- Node14&#45;&gt;Node5 -->
<g id="edge48" class="edge">
<title>Node14&#45;&gt;Node5</title>
<path fill="none" stroke="midnightblue" d="M564.76,-395.93C651.34,-383.89 847.5,-350.09 847.5,-291 847.5,-291 847.5,-291 847.5,-121 847.5,-50.55 747.69,-24.33 693.9,-15.31"/>
<polygon fill="midnightblue" stroke="midnightblue" points="694.23,-11.82 683.81,-13.73 693.14,-18.73 694.23,-11.82"/>
</g>
<!-- Node14&#45;&gt;Node9 -->
<g id="edge26" class="edge">
<title>Node14&#45;&gt;Node9</title>
<path fill="none" stroke="midnightblue" d="M509.01,-392.43C468.91,-370.01 358.93,-306.96 274.5,-244 253.68,-228.48 231.52,-208.49 216.94,-194.81"/>
<polygon fill="midnightblue" stroke="midnightblue" points="219.33,-192.26 209.67,-187.92 214.52,-197.34 219.33,-192.26"/>
</g>
<!-- Node15 -->
<g id="node15" class="node">
<title>Node15</title>
<g id="a_node15"><a xlink:href="../../d0/d77/body_8h.html" target="_top" xlink:title=" ">
<polygon fill="white" stroke="black" points="466.5,-336.5 466.5,-355.5 510.5,-355.5 510.5,-336.5 466.5,-336.5"/>
<text text-anchor="middle" x="488.5" y="-343.5" font-family="Helvetica,sans-Serif" font-size="10.00">body.h</text>
</a>
</g>
</g>
<!-- Node14&#45;&gt;Node15 -->
<g id="edge27" class="edge">
<title>Node14&#45;&gt;Node15</title>
<path fill="none" stroke="midnightblue" d="M518.56,-392.08C513.52,-384.53 506.16,-373.49 499.99,-364.23"/>
<polygon fill="midnightblue" stroke="midnightblue" points="502.79,-362.13 494.33,-355.75 496.97,-366.01 502.79,-362.13"/>
</g>
<!-- Node19 -->
<g id="node19" class="node">
<title>Node19</title>
<g id="a_node19"><a xlink:href="../../dc/d1e/context_8h.html" target="_top" xlink:title=" ">
<polygon fill="white" stroke="black" points="586.5,-280.5 586.5,-299.5 642.5,-299.5 642.5,-280.5 586.5,-280.5"/>
<text text-anchor="middle" x="614.5" y="-287.5" font-family="Helvetica,sans-Serif" font-size="10.00">context.h</text>
</a>
</g>
</g>
<!-- Node14&#45;&gt;Node19 -->
<g id="edge41" class="edge">
<title>Node14&#45;&gt;Node19</title>
<path fill="none" stroke="midnightblue" d="M531.56,-392.37C546.55,-374.05 581.73,-331.05 601.11,-307.36"/>
<polygon fill="midnightblue" stroke="midnightblue" points="603.85,-309.55 607.47,-299.59 598.43,-305.11 603.85,-309.55"/>
</g>
<!-- Node15&#45;&gt;Node2 -->
<g id="edge37" class="edge">
<title>Node15&#45;&gt;Node2</title>
<path fill="none" stroke="midnightblue" d="M482.07,-336.37C468.47,-318.14 436.64,-275.43 418.93,-251.68"/>
<polygon fill="midnightblue" stroke="midnightblue" points="421.69,-249.52 412.9,-243.59 416.08,-253.7 421.69,-249.52"/>
</g>
<!-- Node15&#45;&gt;Node5 -->
<g id="edge40" class="edge">
<title>Node15&#45;&gt;Node5</title>
<path fill="none" stroke="midnightblue" d="M510.56,-342.31C583.09,-332.87 809.5,-298.33 809.5,-235 809.5,-235 809.5,-235 809.5,-121 809.5,-63.73 737.36,-32.9 693.48,-19.44"/>
<polygon fill="midnightblue" stroke="midnightblue" points="694.36,-16.06 683.78,-16.61 692.4,-22.78 694.36,-16.06"/>
</g>
<!-- Node15&#45;&gt;Node9 -->
<g id="edge38" class="edge">
<title>Node15&#45;&gt;Node9</title>
<path fill="none" stroke="midnightblue" d="M473.42,-336.31C426.28,-309.14 281.41,-225.64 224.15,-192.63"/>
<polygon fill="midnightblue" stroke="midnightblue" points="225.84,-189.57 215.43,-187.61 222.35,-195.63 225.84,-189.57"/>
</g>
<!-- Node15&#45;&gt;Node10 -->
<g id="edge39" class="edge">
<title>Node15&#45;&gt;Node10</title>
<path fill="none" stroke="midnightblue" d="M466.38,-336.75C443.61,-328.11 407.24,-313.9 376.5,-300 275.8,-254.47 250.67,-242.44 154.5,-188 125.62,-171.65 93.43,-150.91 72.85,-137.32"/>
<polygon fill="midnightblue" stroke="midnightblue" points="74.53,-134.23 64.27,-131.61 70.66,-140.06 74.53,-134.23"/>
</g>
<!-- Node16 -->
<g id="node16" class="node">
<title>Node16</title>
<g id="a_node16"><a xlink:href="../../d8/d67/body__instruction_8h.html" target="_top" xlink:title=" ">
<polygon fill="white" stroke="black" points="473,-280.5 473,-299.5 568,-299.5 568,-280.5 473,-280.5"/>
<text text-anchor="middle" x="520.5" y="-287.5" font-family="Helvetica,sans-Serif" font-size="10.00">body_instruction.h</text>
</a>
</g>
</g>
<!-- Node15&#45;&gt;Node16 -->
<g id="edge28" class="edge">
<title>Node15&#45;&gt;Node16</title>
<path fill="none" stroke="midnightblue" d="M493.78,-336.08C498.21,-328.61 504.66,-317.72 510.12,-308.52"/>
<polygon fill="midnightblue" stroke="midnightblue" points="513.23,-310.14 515.31,-299.75 507.21,-306.57 513.23,-310.14"/>
</g>
<!-- Node16&#45;&gt;Node2 -->
<g id="edge34" class="edge">
<title>Node16&#45;&gt;Node2</title>
<path fill="none" stroke="midnightblue" d="M502.44,-280.44C483.93,-271.68 454.92,-257.94 433.64,-247.86"/>
<polygon fill="midnightblue" stroke="midnightblue" points="435.01,-244.63 424.48,-243.52 432.02,-250.96 435.01,-244.63"/>
</g>
<!-- Node16&#45;&gt;Node5 -->
<g id="edge36" class="edge">
<title>Node16&#45;&gt;Node5</title>
<path fill="none" stroke="midnightblue" d="M537.46,-280.47C551.34,-272.7 570.58,-260 582.5,-244 608.86,-208.62 643.56,-78.25 655.9,-29.53"/>
<polygon fill="midnightblue" stroke="midnightblue" points="659.32,-30.27 658.36,-19.72 652.53,-28.56 659.32,-30.27"/>
</g>
<!-- Node16&#45;&gt;Node9 -->
<g id="edge35" class="edge">
<title>Node16&#45;&gt;Node9</title>
<path fill="none" stroke="midnightblue" d="M483.74,-280.46C450.96,-272.41 401.9,-259.34 360.5,-244 340.74,-236.68 336.9,-232.23 317.5,-224 289.45,-212.1 257.09,-199.76 233.52,-191.01"/>
<polygon fill="midnightblue" stroke="midnightblue" points="234.59,-187.68 224,-187.5 232.17,-194.25 234.59,-187.68"/>
</g>
<!-- Node17 -->
<g id="node17" class="node">
<title>Node17</title>
<g id="a_node17"><a xlink:href="../../d0/d96/body__type_8h.html" target="_top" xlink:title=" ">
<polygon fill="white" stroke="black" points="445.5,-168.5 445.5,-187.5 513.5,-187.5 513.5,-168.5 445.5,-168.5"/>
<text text-anchor="middle" x="479.5" y="-175.5" font-family="Helvetica,sans-Serif" font-size="10.00">body_type.h</text>
</a>
</g>
</g>
<!-- Node16&#45;&gt;Node17 -->
<g id="edge29" class="edge">
<title>Node16&#45;&gt;Node17</title>
<path fill="none" stroke="midnightblue" d="M513.08,-280.33C506.12,-271.7 495.97,-257.79 490.5,-244 484.62,-229.19 481.88,-211.26 480.61,-197.99"/>
<polygon fill="midnightblue" stroke="midnightblue" points="484.08,-197.43 479.82,-187.72 477.1,-197.96 484.08,-197.43"/>
</g>
<!-- Node18 -->
<g id="node18" class="node">
<title>Node18</title>
<g id="a_node18"><a xlink:href="../../d9/ded/body__return_8h.html" target="_top" xlink:title=" ">
<polygon fill="white" stroke="black" points="499.5,-224.5 499.5,-243.5 573.5,-243.5 573.5,-224.5 499.5,-224.5"/>
<text text-anchor="middle" x="536.5" y="-231.5" font-family="Helvetica,sans-Serif" font-size="10.00">body_return.h</text>
</a>
</g>
</g>
<!-- Node16&#45;&gt;Node18 -->
<g id="edge30" class="edge">
<title>Node16&#45;&gt;Node18</title>
<path fill="none" stroke="midnightblue" d="M523.14,-280.08C525.29,-272.85 528.38,-262.41 531.05,-253.4"/>
<polygon fill="midnightblue" stroke="midnightblue" points="534.42,-254.33 533.91,-243.75 527.71,-252.34 534.42,-254.33"/>
</g>
<!-- Node18&#45;&gt;Node5 -->
<g id="edge33" class="edge">
<title>Node18&#45;&gt;Node5</title>
<path fill="none" stroke="midnightblue" d="M540.97,-224.43C551.36,-204.56 578.07,-153.81 601.5,-112 618.14,-82.31 638.27,-48.21 650.2,-28.2"/>
<polygon fill="midnightblue" stroke="midnightblue" points="653.22,-29.97 655.34,-19.59 647.21,-26.38 653.22,-29.97"/>
</g>
<!-- Node18&#45;&gt;Node6 -->
<g id="edge32" class="edge">
<title>Node18&#45;&gt;Node6</title>
<path fill="none" stroke="midnightblue" d="M537.37,-224.46C538.26,-210.55 537.81,-183.06 522.5,-168 495.66,-141.6 386.45,-129.73 329.86,-125.27"/>
<polygon fill="midnightblue" stroke="midnightblue" points="329.85,-121.76 319.62,-124.5 329.32,-128.74 329.85,-121.76"/>
</g>
<!-- Node18&#45;&gt;Node17 -->
<g id="edge31" class="edge">
<title>Node18&#45;&gt;Node17</title>
<path fill="none" stroke="midnightblue" d="M527.34,-224.32C519,-216.42 506.47,-204.55 496.32,-194.94"/>
<polygon fill="midnightblue" stroke="midnightblue" points="498.49,-192.17 488.82,-187.83 493.68,-197.25 498.49,-192.17"/>
</g>
<!-- Node19&#45;&gt;Node2 -->
<g id="edge45" class="edge">
<title>Node19&#45;&gt;Node2</title>
<path fill="none" stroke="midnightblue" d="M586.45,-281.72C551.21,-272.57 490.39,-256.78 449.32,-246.12"/>
<polygon fill="midnightblue" stroke="midnightblue" points="450.15,-242.72 439.59,-243.59 448.39,-249.49 450.15,-242.72"/>
</g>
<!-- Node19&#45;&gt;Node5 -->
<g id="edge47" class="edge">
<title>Node19&#45;&gt;Node5</title>
<path fill="none" stroke="midnightblue" d="M642.57,-282.9C687.73,-271.24 771.5,-241.24 771.5,-179 771.5,-179 771.5,-179 771.5,-121 771.5,-74.82 722.44,-41.43 689.55,-24.23"/>
<polygon fill="midnightblue" stroke="midnightblue" points="690.85,-20.96 680.34,-19.61 687.71,-27.22 690.85,-20.96"/>
</g>
<!-- Node19&#45;&gt;Node10 -->
<g id="edge46" class="edge">
<title>Node19&#45;&gt;Node10</title>
<path fill="none" stroke="midnightblue" d="M611.45,-280.45C606.56,-267.48 596.15,-242.38 582.5,-224 560.76,-194.71 555.76,-182.98 522.5,-168 486.02,-151.57 232.28,-134.09 113.09,-126.67"/>
<polygon fill="midnightblue" stroke="midnightblue" points="113.22,-123.17 103.02,-126.04 112.78,-130.16 113.22,-123.17"/>
</g>
<!-- Node20 -->
<g id="node20" class="node">
<title>Node20</title>
<g id="a_node20"><a xlink:href="../../d7/d7d/context__condition_8h.html" target="_top" xlink:title=" ">
<polygon fill="white" stroke="black" points="643.5,-112.5 643.5,-131.5 743.5,-131.5 743.5,-112.5 643.5,-112.5"/>
<text text-anchor="middle" x="693.5" y="-119.5" font-family="Helvetica,sans-Serif" font-size="10.00">context_condition.h</text>
</a>
</g>
</g>
<!-- Node19&#45;&gt;Node20 -->
<g id="edge42" class="edge">
<title>Node19&#45;&gt;Node20</title>
<path fill="none" stroke="midnightblue" d="M630.08,-280.41C642.73,-272.59 659.98,-259.87 669.5,-244 688.81,-211.82 692.93,-166.99 693.61,-141.92"/>
<polygon fill="midnightblue" stroke="midnightblue" points="697.11,-141.65 693.72,-131.62 690.11,-141.58 697.11,-141.65"/>
</g>
<!-- Node20&#45;&gt;Node4 -->
<g id="edge43" class="edge">
<title>Node20&#45;&gt;Node4</title>
<path fill="none" stroke="midnightblue" d="M669.1,-112.44C643.3,-103.4 602.42,-89.06 573.48,-78.92"/>
<polygon fill="midnightblue" stroke="midnightblue" points="574.38,-75.52 563.79,-75.52 572.07,-82.13 574.38,-75.52"/>
</g>
<!-- Node20&#45;&gt;Node5 -->
<g id="edge44" class="edge">
<title>Node20&#45;&gt;Node5</title>
<path fill="none" stroke="midnightblue" d="M690.97,-112.15C687.37,-99.63 680.54,-76.04 674.5,-56 671.84,-47.18 668.81,-37.41 666.25,-29.23"/>
<polygon fill="midnightblue" stroke="midnightblue" points="669.56,-28.1 663.23,-19.61 662.89,-30.2 669.56,-28.1"/>
</g>
<!-- Node21&#45;&gt;Node5 -->
<g id="edge54" class="edge">
<title>Node21&#45;&gt;Node5</title>
<path fill="none" stroke="midnightblue" d="M573.83,-457.28C663.86,-456.81 850.09,-451 899.5,-412 923.67,-392.92 923.5,-377.8 923.5,-347 923.5,-347 923.5,-347 923.5,-121 923.5,-90.2 923.02,-75.88 899.5,-56 868.84,-30.09 751.85,-17.84 693.71,-13.26"/>
<polygon fill="midnightblue" stroke="midnightblue" points="693.8,-9.75 683.57,-12.49 693.28,-16.73 693.8,-9.75"/>
</g>
<!-- Node21&#45;&gt;Node14 -->
<g id="edge53" class="edge">
<title>Node21&#45;&gt;Node14</title>
<path fill="none" stroke="midnightblue" d="M524.5,-448.08C524.5,-441.01 524.5,-430.86 524.5,-421.99"/>
<polygon fill="midnightblue" stroke="midnightblue" points="528,-421.75 524.5,-411.75 521,-421.75 528,-421.75"/>
</g>
</g>
</svg>
