<?xml version="1.0" encoding="UTF-8" standalone="no"?>
<!DOCTYPE svg PUBLIC "-//W3C//DTD SVG 1.1//EN"
 "http://www.w3.org/Graphics/SVG/1.1/DTD/svg11.dtd">
<!-- Generated by graphviz version 2.47.1 (20210421.1823)
 -->
<!-- Title: intention_base.h Pages: 1 -->
<!--zoomable 588 -->
<svg id="main" version="1.1" xmlns="http://www.w3.org/2000/svg" xmlns:xlink="http://www.w3.org/1999/xlink" xml:space="preserve" onload="init(evt)">
<style type="text/css"><![CDATA[
.edge:hover path { stroke: red; }
.edge:hover polygon { stroke: red; fill: red; }
]]></style>
<script type="text/javascript"><![CDATA[
var edges = document.getElementsByTagName('g');
if (edges && edges.length) {
  for (var i=0;i<edges.length;i++) {
    if (edges[i].id.substr(0,4)=='edge') {
      edges[i].setAttribute('class','edge');
    }
  }
}
]]></script>
        <defs>
                <circle id="rim" cx="0" cy="0" r="7"/>
                <circle id="rim2" cx="0" cy="0" r="3.5"/>
                <g id="zoomPlus">
                        <use xlink:href="#rim" fill="#404040">
                                <set attributeName="fill" to="#808080" begin="zoomplus.mouseover" end="zoomplus.mouseout"/>
                        </use>
                        <path d="M-4,0h8M0,-4v8" fill="none" stroke="white" stroke-width="1.5" pointer-events="none"/>
                </g>
                <g id="zoomMin">
                        <use xlink:href="#rim" fill="#404040">
                                <set attributeName="fill" to="#808080" begin="zoomminus.mouseover" end="zoomminus.mouseout"/>
                        </use>
                        <path d="M-4,0h8" fill="none" stroke="white" stroke-width="1.5" pointer-events="none"/>
                </g>
                <g id="dirArrow">
                        <path fill="none" stroke="white" stroke-width="1.5" d="M0,-3.0v7 M-2.5,-0.5L0,-3.0L2.5,-0.5"/>
                </g>
               <g id="resetDef">
                       <use xlink:href="#rim2" fill="#404040">
                               <set attributeName="fill" to="#808080" begin="reset.mouseover" end="reset.mouseout"/>
                       </use>
               </g>
        </defs>

<script type="text/javascript">
var viewWidth = 1006;
var viewHeight = 588;
var sectionId = 'dynsection-0';
</script>
<script xlink:href="../../svgpan.js"/>
<svg id="graph" class="graph">
<g id="viewport">
<title>intention_base.h</title>
<polygon fill="white" stroke="transparent" points="-4,4 -4,-584 1001.5,-584 1001.5,4 -4,4"/>
<!-- Node1 -->
<g id="node1" class="node">
<title>Node1</title>
<g id="a_node1"><a xlink:title=" ">
<polygon fill="#bfbfbf" stroke="black" points="247,-560.5 247,-579.5 334,-579.5 334,-560.5 247,-560.5"/>
<text text-anchor="middle" x="290.5" y="-567.5" font-family="Helvetica,sans-Serif" font-size="10.00">intention_base.h</text>
</a>
</g>
</g>
<!-- Node2 -->
<g id="node2" class="node">
<title>Node2</title>
<g id="a_node2"><a xlink:href="../../d2/d2f/belief__base_8h.html" target="_top" xlink:title=" ">
<polygon fill="white" stroke="black" points="367.5,-224.5 367.5,-243.5 441.5,-243.5 441.5,-224.5 367.5,-224.5"/>
<text text-anchor="middle" x="404.5" y="-231.5" font-family="Helvetica,sans-Serif" font-size="10.00">belief_base.h</text>
</a>
</g>
</g>
<!-- Node1&#45;&gt;Node2 -->
<g id="edge1" class="edge">
<title>Node1&#45;&gt;Node2</title>
<path fill="none" stroke="midnightblue" d="M289.29,-560.31C286.79,-540.18 282.07,-488.92 292.5,-448 312.59,-369.18 366.9,-287.05 391.76,-252.23"/>
<polygon fill="midnightblue" stroke="midnightblue" points="394.91,-253.86 397.94,-243.71 389.24,-249.75 394.91,-253.86"/>
</g>
<!-- Node5 -->
<g id="node5" class="node">
<title>Node5</title>
<g id="a_node5"><a xlink:title=" ">
<polygon fill="white" stroke="#bfbfbf" points="634.5,-0.5 634.5,-19.5 680.5,-19.5 680.5,-0.5 634.5,-0.5"/>
<text text-anchor="middle" x="657.5" y="-7.5" font-family="Helvetica,sans-Serif" font-size="10.00">cstdint</text>
</a>
</g>
</g>
<!-- Node1&#45;&gt;Node5 -->
<g id="edge59" class="edge">
<title>Node1&#45;&gt;Node5</title>
<path fill="none" stroke="midnightblue" d="M334.19,-566.84C488.33,-558.64 997.5,-526.47 997.5,-459 997.5,-459 997.5,-459 997.5,-121 997.5,-84 977.5,-74.56 945.5,-56 902.68,-31.17 757.15,-18.01 690.87,-13.19"/>
<polygon fill="midnightblue" stroke="midnightblue" points="690.79,-9.67 680.57,-12.46 690.3,-16.65 690.79,-9.67"/>
</g>
<!-- Node9 -->
<g id="node9" class="node">
<title>Node9</title>
<g id="a_node9"><a xlink:href="../../d7/dc4/event__base_8h.html" target="_top" xlink:title=" ">
<polygon fill="white" stroke="black" points="161.5,-168.5 161.5,-187.5 235.5,-187.5 235.5,-168.5 161.5,-168.5"/>
<text text-anchor="middle" x="198.5" y="-175.5" font-family="Helvetica,sans-Serif" font-size="10.00">event_base.h</text>
</a>
</g>
</g>
<!-- Node1&#45;&gt;Node9 -->
<g id="edge20" class="edge">
<title>Node1&#45;&gt;Node9</title>
<path fill="none" stroke="midnightblue" d="M246.91,-563.23C190.82,-553.07 100.5,-526.27 100.5,-459 100.5,-459 100.5,-459 100.5,-345 100.5,-282.25 153.07,-222.37 181.2,-194.82"/>
<polygon fill="midnightblue" stroke="midnightblue" points="183.92,-197.07 188.75,-187.63 179.09,-192 183.92,-197.07"/>
</g>
<!-- Node10 -->
<g id="node10" class="node">
<title>Node10</title>
<g id="a_node10"><a xlink:href="../../d0/d81/vector__queue_8h.html" target="_top" xlink:title=" ">
<polygon fill="white" stroke="black" points="0,-112.5 0,-131.5 103,-131.5 103,-112.5 0,-112.5"/>
<text text-anchor="middle" x="51.5" y="-119.5" font-family="Helvetica,sans-Serif" font-size="10.00">../lib/vector_queue.h</text>
</a>
</g>
</g>
<!-- Node1&#45;&gt;Node10 -->
<g id="edge58" class="edge">
<title>Node1&#45;&gt;Node10</title>
<path fill="none" stroke="midnightblue" d="M246.96,-560.71C170.35,-544.86 19.5,-507.49 19.5,-459 19.5,-459 19.5,-459 19.5,-233 19.5,-199.33 33.49,-162.08 42.97,-140.72"/>
<polygon fill="midnightblue" stroke="midnightblue" points="46.17,-142.14 47.18,-131.59 39.82,-139.21 46.17,-142.14"/>
</g>
<!-- Node12 -->
<g id="node12" class="node">
<title>Node12</title>
<g id="a_node12"><a xlink:href="../../df/d3f/intention_8h.html" target="_top" xlink:title=" ">
<polygon fill="white" stroke="black" points="340,-504.5 340,-523.5 401,-523.5 401,-504.5 340,-504.5"/>
<text text-anchor="middle" x="370.5" y="-511.5" font-family="Helvetica,sans-Serif" font-size="10.00">intention.h</text>
</a>
</g>
</g>
<!-- Node1&#45;&gt;Node12 -->
<g id="edge21" class="edge">
<title>Node1&#45;&gt;Node12</title>
<path fill="none" stroke="midnightblue" d="M303.35,-560.32C315.72,-551.98 334.63,-539.21 349.24,-529.35"/>
<polygon fill="midnightblue" stroke="midnightblue" points="351.35,-532.15 357.68,-523.65 347.43,-526.35 351.35,-532.15"/>
</g>
<!-- Node14 -->
<g id="node14" class="node">
<title>Node14</title>
<g id="a_node14"><a xlink:href="../../d9/d4e/plan_8h.html" target="_top" xlink:title=" ">
<polygon fill="white" stroke="black" points="482.5,-392.5 482.5,-411.5 562.5,-411.5 562.5,-392.5 482.5,-392.5"/>
<text text-anchor="middle" x="522.5" y="-399.5" font-family="Helvetica,sans-Serif" font-size="10.00">../syntax/plan.h</text>
</a>
</g>
</g>
<!-- Node1&#45;&gt;Node14 -->
<g id="edge57" class="edge">
<title>Node1&#45;&gt;Node14</title>
<path fill="none" stroke="midnightblue" d="M334.01,-568.45C400.08,-564.97 523.98,-547.53 580.5,-468 594.07,-448.91 569.99,-429.13 548.85,-416.48"/>
<polygon fill="midnightblue" stroke="midnightblue" points="550.52,-413.4 540.09,-411.52 547.07,-419.49 550.52,-413.4"/>
</g>
<!-- Node3 -->
<g id="node3" class="node">
<title>Node3</title>
<g id="a_node3"><a xlink:href="../../da/db8/belief_8h.html" target="_top" xlink:title=" ">
<polygon fill="white" stroke="black" points="434,-112.5 434,-131.5 481,-131.5 481,-112.5 434,-112.5"/>
<text text-anchor="middle" x="457.5" y="-119.5" font-family="Helvetica,sans-Serif" font-size="10.00">belief.h</text>
</a>
</g>
</g>
<!-- Node2&#45;&gt;Node3 -->
<g id="edge2" class="edge">
<title>Node2&#45;&gt;Node3</title>
<path fill="none" stroke="midnightblue" d="M408.46,-224.12C414.1,-211.55 424.83,-187.9 434.5,-168 438.92,-158.91 444.02,-148.89 448.29,-140.62"/>
<polygon fill="midnightblue" stroke="midnightblue" points="451.48,-142.06 452.99,-131.58 445.27,-138.84 451.48,-142.06"/>
</g>
<!-- Node2&#45;&gt;Node5 -->
<g id="edge19" class="edge">
<title>Node2&#45;&gt;Node5</title>
<path fill="none" stroke="midnightblue" d="M403.98,-224.36C402.72,-194.71 403.11,-96.63 459.5,-56 509.07,-20.29 582.27,-12.3 624.39,-10.87"/>
<polygon fill="midnightblue" stroke="midnightblue" points="624.48,-14.37 634.39,-10.64 624.31,-7.37 624.48,-14.37"/>
</g>
<!-- Node6 -->
<g id="node6" class="node">
<title>Node6</title>
<g id="a_node6"><a xlink:href="../../dd/d20/event_8h.html" target="_top" xlink:title=" ">
<polygon fill="white" stroke="black" points="271.5,-112.5 271.5,-131.5 319.5,-131.5 319.5,-112.5 271.5,-112.5"/>
<text text-anchor="middle" x="295.5" y="-119.5" font-family="Helvetica,sans-Serif" font-size="10.00">event.h</text>
</a>
</g>
</g>
<!-- Node2&#45;&gt;Node6 -->
<g id="edge6" class="edge">
<title>Node2&#45;&gt;Node6</title>
<path fill="none" stroke="midnightblue" d="M395.95,-224.37C377.64,-205.89 334.44,-162.29 311.1,-138.74"/>
<polygon fill="midnightblue" stroke="midnightblue" points="313.54,-136.23 304.01,-131.59 308.57,-141.16 313.54,-136.23"/>
</g>
<!-- Node2&#45;&gt;Node9 -->
<g id="edge12" class="edge">
<title>Node2&#45;&gt;Node9</title>
<path fill="none" stroke="midnightblue" d="M371.86,-224.44C336.45,-215.16 279.79,-200.31 240.95,-190.13"/>
<polygon fill="midnightblue" stroke="midnightblue" points="241.55,-186.67 230.99,-187.52 239.77,-193.44 241.55,-186.67"/>
</g>
<!-- Node2&#45;&gt;Node10 -->
<g id="edge18" class="edge">
<title>Node2&#45;&gt;Node10</title>
<path fill="none" stroke="midnightblue" d="M386.13,-224.43C356.73,-210.97 297.08,-184.7 244.5,-168 199.05,-153.57 146.23,-141.57 107.35,-133.6"/>
<polygon fill="midnightblue" stroke="midnightblue" points="107.78,-130.12 97.28,-131.57 106.39,-136.98 107.78,-130.12"/>
</g>
<!-- Node4 -->
<g id="node4" class="node">
<title>Node4</title>
<g id="a_node4"><a xlink:href="../../de/d93/statement_8h.html" target="_top" xlink:title=" ">
<polygon fill="white" stroke="black" points="485.5,-56.5 485.5,-75.5 591.5,-75.5 591.5,-56.5 485.5,-56.5"/>
<text text-anchor="middle" x="538.5" y="-63.5" font-family="Helvetica,sans-Serif" font-size="10.00">../syntax/statement.h</text>
</a>
</g>
</g>
<!-- Node3&#45;&gt;Node4 -->
<g id="edge3" class="edge">
<title>Node3&#45;&gt;Node4</title>
<path fill="none" stroke="midnightblue" d="M470.51,-112.32C483.03,-103.98 502.18,-91.21 516.97,-81.35"/>
<polygon fill="midnightblue" stroke="midnightblue" points="519.14,-84.11 525.52,-75.65 515.26,-78.29 519.14,-84.11"/>
</g>
<!-- Node3&#45;&gt;Node5 -->
<g id="edge5" class="edge">
<title>Node3&#45;&gt;Node5</title>
<path fill="none" stroke="midnightblue" d="M457.45,-112.48C457.84,-98.6 460.73,-71.15 476.5,-56 497.47,-35.87 578.03,-21.84 624.3,-15.26"/>
<polygon fill="midnightblue" stroke="midnightblue" points="625.02,-18.69 634.44,-13.86 624.06,-11.76 625.02,-18.69"/>
</g>
<!-- Node4&#45;&gt;Node5 -->
<g id="edge4" class="edge">
<title>Node4&#45;&gt;Node5</title>
<path fill="none" stroke="midnightblue" d="M557.36,-56.44C576.77,-47.64 607.23,-33.81 629.46,-23.72"/>
<polygon fill="midnightblue" stroke="midnightblue" points="631.07,-26.84 638.73,-19.52 628.18,-20.46 631.07,-26.84"/>
</g>
<!-- Node6&#45;&gt;Node4 -->
<g id="edge7" class="edge">
<title>Node6&#45;&gt;Node4</title>
<path fill="none" stroke="midnightblue" d="M319.69,-115.62C359.3,-106.82 438.75,-89.17 490.23,-77.73"/>
<polygon fill="midnightblue" stroke="midnightblue" points="491.13,-81.11 500.13,-75.53 489.61,-74.28 491.13,-81.11"/>
</g>
<!-- Node6&#45;&gt;Node5 -->
<g id="edge11" class="edge">
<title>Node6&#45;&gt;Node5</title>
<path fill="none" stroke="midnightblue" d="M271.48,-118.45C223.01,-112.43 121,-94.83 156.5,-56 188.05,-21.49 517.39,-13.23 624.23,-11.45"/>
<polygon fill="midnightblue" stroke="midnightblue" points="624.49,-14.94 634.43,-11.29 624.38,-7.95 624.49,-14.94"/>
</g>
<!-- Node7 -->
<g id="node7" class="node">
<title>Node7</title>
<g id="a_node7"><a xlink:href="../../db/d50/event__operator_8h.html" target="_top" xlink:title=" ">
<polygon fill="white" stroke="black" points="264,-56.5 264,-75.5 391,-75.5 391,-56.5 264,-56.5"/>
<text text-anchor="middle" x="327.5" y="-63.5" font-family="Helvetica,sans-Serif" font-size="10.00">../syntax/event_operator.h</text>
</a>
</g>
</g>
<!-- Node6&#45;&gt;Node7 -->
<g id="edge8" class="edge">
<title>Node6&#45;&gt;Node7</title>
<path fill="none" stroke="midnightblue" d="M300.78,-112.08C305.21,-104.61 311.66,-93.72 317.12,-84.52"/>
<polygon fill="midnightblue" stroke="midnightblue" points="320.23,-86.14 322.31,-75.75 314.21,-82.57 320.23,-86.14"/>
</g>
<!-- Node8 -->
<g id="node8" class="node">
<title>Node8</title>
<g id="a_node8"><a xlink:href="../../df/dc3/event__id_8h.html" target="_top" xlink:title=" ">
<polygon fill="white" stroke="black" points="165,-56.5 165,-75.5 246,-75.5 246,-56.5 165,-56.5"/>
<text text-anchor="middle" x="205.5" y="-63.5" font-family="Helvetica,sans-Serif" font-size="10.00">../lib/event_id.h</text>
</a>
</g>
</g>
<!-- Node6&#45;&gt;Node8 -->
<g id="edge9" class="edge">
<title>Node6&#45;&gt;Node8</title>
<path fill="none" stroke="midnightblue" d="M281.04,-112.32C267,-103.9 245.45,-90.97 228.96,-81.07"/>
<polygon fill="midnightblue" stroke="midnightblue" points="230.3,-77.8 219.92,-75.65 226.7,-83.8 230.3,-77.8"/>
</g>
<!-- Node8&#45;&gt;Node5 -->
<g id="edge10" class="edge">
<title>Node8&#45;&gt;Node5</title>
<path fill="none" stroke="midnightblue" d="M246.12,-57.45C249.29,-56.94 252.45,-56.45 255.5,-56 391.72,-36.14 555.01,-20.31 624.06,-13.98"/>
<polygon fill="midnightblue" stroke="midnightblue" points="624.68,-17.44 634.32,-13.05 624.04,-10.47 624.68,-17.44"/>
</g>
<!-- Node9&#45;&gt;Node5 -->
<g id="edge17" class="edge">
<title>Node9&#45;&gt;Node5</title>
<path fill="none" stroke="midnightblue" d="M188.8,-168.33C165.91,-146.89 112.8,-90.6 144.5,-56 176.9,-20.63 515.48,-12.94 624.14,-11.38"/>
<polygon fill="midnightblue" stroke="midnightblue" points="624.26,-14.87 634.21,-11.24 624.16,-7.87 624.26,-14.87"/>
</g>
<!-- Node9&#45;&gt;Node6 -->
<g id="edge13" class="edge">
<title>Node9&#45;&gt;Node6</title>
<path fill="none" stroke="midnightblue" d="M214.08,-168.32C229.5,-159.74 253.31,-146.49 271.21,-136.52"/>
<polygon fill="midnightblue" stroke="midnightblue" points="272.92,-139.58 279.95,-131.65 269.51,-133.46 272.92,-139.58"/>
</g>
<!-- Node9&#45;&gt;Node10 -->
<g id="edge14" class="edge">
<title>Node9&#45;&gt;Node10</title>
<path fill="none" stroke="midnightblue" d="M175.21,-168.44C150.69,-159.44 111.9,-145.19 84.3,-135.05"/>
<polygon fill="midnightblue" stroke="midnightblue" points="85.28,-131.68 74.68,-131.52 82.86,-138.25 85.28,-131.68"/>
</g>
<!-- Node10&#45;&gt;Node5 -->
<g id="edge16" class="edge">
<title>Node10&#45;&gt;Node5</title>
<path fill="none" stroke="midnightblue" d="M40.91,-112.32C25.81,-98.94 1.61,-73.05 17.5,-56 59.1,-11.37 498.34,-10.17 624.06,-10.75"/>
<polygon fill="midnightblue" stroke="midnightblue" points="624.22,-14.25 634.23,-10.81 624.25,-7.25 624.22,-14.25"/>
</g>
<!-- Node11 -->
<g id="node11" class="node">
<title>Node11</title>
<g id="a_node11"><a xlink:title=" ">
<polygon fill="white" stroke="#bfbfbf" points="26.5,-56.5 26.5,-75.5 70.5,-75.5 70.5,-56.5 26.5,-56.5"/>
<text text-anchor="middle" x="48.5" y="-63.5" font-family="Helvetica,sans-Serif" font-size="10.00">vector</text>
</a>
</g>
</g>
<!-- Node10&#45;&gt;Node11 -->
<g id="edge15" class="edge">
<title>Node10&#45;&gt;Node11</title>
<path fill="none" stroke="midnightblue" d="M51,-112.08C50.61,-105.01 50.05,-94.86 49.55,-85.99"/>
<polygon fill="midnightblue" stroke="midnightblue" points="53.04,-85.54 48.99,-75.75 46.05,-85.93 53.04,-85.54"/>
</g>
<!-- Node12&#45;&gt;Node2 -->
<g id="edge51" class="edge">
<title>Node12&#45;&gt;Node2</title>
<path fill="none" stroke="midnightblue" d="M375.09,-504.44C384.37,-486.29 404.5,-442.38 404.5,-403 404.5,-403 404.5,-403 404.5,-345 404.5,-312.95 404.5,-275.64 404.5,-253.75"/>
<polygon fill="midnightblue" stroke="midnightblue" points="408,-253.56 404.5,-243.56 401,-253.56 408,-253.56"/>
</g>
<!-- Node12&#45;&gt;Node5 -->
<g id="edge56" class="edge">
<title>Node12&#45;&gt;Node5</title>
<path fill="none" stroke="midnightblue" d="M401.26,-510.62C503.97,-502.17 833.45,-470.94 919.5,-412 947.49,-392.83 959.5,-380.92 959.5,-347 959.5,-347 959.5,-347 959.5,-121 959.5,-87.08 947.6,-75 919.5,-56 882.64,-31.07 752.64,-18.16 690.74,-13.31"/>
<polygon fill="midnightblue" stroke="midnightblue" points="690.95,-9.82 680.71,-12.55 690.42,-16.8 690.95,-9.82"/>
</g>
<!-- Node12&#45;&gt;Node10 -->
<g id="edge55" class="edge">
<title>Node12&#45;&gt;Node10</title>
<path fill="none" stroke="midnightblue" d="M350.35,-504.4C333.59,-496.58 309.78,-483.85 292.5,-468 233.85,-414.21 100.5,-202.14 62.06,-140.12"/>
<polygon fill="midnightblue" stroke="midnightblue" points="64.96,-138.17 56.73,-131.5 59.01,-141.85 64.96,-138.17"/>
</g>
<!-- Node13 -->
<g id="node13" class="node">
<title>Node13</title>
<g id="a_node13"><a xlink:href="../../de/d75/plan__base_8h.html" target="_top" xlink:title=" ">
<polygon fill="white" stroke="black" points="301.5,-448.5 301.5,-467.5 369.5,-467.5 369.5,-448.5 301.5,-448.5"/>
<text text-anchor="middle" x="335.5" y="-455.5" font-family="Helvetica,sans-Serif" font-size="10.00">plan_base.h</text>
</a>
</g>
</g>
<!-- Node12&#45;&gt;Node13 -->
<g id="edge22" class="edge">
<title>Node12&#45;&gt;Node13</title>
<path fill="none" stroke="midnightblue" d="M364.72,-504.08C359.83,-496.53 352.67,-485.49 346.67,-476.23"/>
<polygon fill="midnightblue" stroke="midnightblue" points="349.55,-474.24 341.17,-467.75 343.67,-478.05 349.55,-474.24"/>
</g>
<!-- Node21 -->
<g id="node21" class="node">
<title>Node21</title>
<g id="a_node21"><a xlink:href="../../de/d3c/instantiated__plan_8h.html" target="_top" xlink:title=" ">
<polygon fill="white" stroke="black" points="473.5,-448.5 473.5,-467.5 571.5,-467.5 571.5,-448.5 473.5,-448.5"/>
<text text-anchor="middle" x="522.5" y="-455.5" font-family="Helvetica,sans-Serif" font-size="10.00">instantiated_plan.h</text>
</a>
</g>
</g>
<!-- Node12&#45;&gt;Node21 -->
<g id="edge52" class="edge">
<title>Node12&#45;&gt;Node21</title>
<path fill="none" stroke="midnightblue" d="M394.58,-504.44C420.04,-495.4 460.39,-481.06 488.96,-470.92"/>
<polygon fill="midnightblue" stroke="midnightblue" points="490.28,-474.16 498.53,-467.52 487.93,-467.57 490.28,-474.16"/>
</g>
<!-- Node13&#45;&gt;Node2 -->
<g id="edge23" class="edge">
<title>Node13&#45;&gt;Node2</title>
<path fill="none" stroke="midnightblue" d="M338.25,-448.16C346.28,-422.3 370.44,-344.53 390.5,-280 393.24,-271.2 396.28,-261.43 398.82,-253.25"/>
<polygon fill="midnightblue" stroke="midnightblue" points="402.19,-254.21 401.82,-243.63 395.5,-252.13 402.19,-254.21"/>
</g>
<!-- Node13&#45;&gt;Node5 -->
<g id="edge50" class="edge">
<title>Node13&#45;&gt;Node5</title>
<path fill="none" stroke="midnightblue" d="M369.78,-453.78C489.75,-442.08 883.5,-399.64 883.5,-347 883.5,-347 883.5,-347 883.5,-121 883.5,-36.44 753.99,-16.87 691.05,-12.35"/>
<polygon fill="midnightblue" stroke="midnightblue" points="691.03,-8.84 680.83,-11.71 690.6,-15.83 691.03,-8.84"/>
</g>
<!-- Node13&#45;&gt;Node6 -->
<g id="edge24" class="edge">
<title>Node13&#45;&gt;Node6</title>
<path fill="none" stroke="midnightblue" d="M334.47,-448.41C329.2,-404.38 305.17,-203.74 297.71,-141.48"/>
<polygon fill="midnightblue" stroke="midnightblue" points="301.19,-141.05 296.52,-131.54 294.24,-141.88 301.19,-141.05"/>
</g>
<!-- Node13&#45;&gt;Node10 -->
<g id="edge49" class="edge">
<title>Node13&#45;&gt;Node10</title>
<path fill="none" stroke="midnightblue" d="M316.83,-448.37C267.36,-424.35 133.2,-351.32 81.5,-244 65.12,-210 57.14,-166.17 53.71,-141.69"/>
<polygon fill="midnightblue" stroke="midnightblue" points="57.16,-141.09 52.41,-131.62 50.22,-141.99 57.16,-141.09"/>
</g>
<!-- Node13&#45;&gt;Node14 -->
<g id="edge25" class="edge">
<title>Node13&#45;&gt;Node14</title>
<path fill="none" stroke="midnightblue" d="M365.13,-448.44C397,-439.24 447.83,-424.56 483.06,-414.39"/>
<polygon fill="midnightblue" stroke="midnightblue" points="484.37,-417.65 493.01,-411.52 482.43,-410.93 484.37,-417.65"/>
</g>
<!-- Node14&#45;&gt;Node5 -->
<g id="edge48" class="edge">
<title>Node14&#45;&gt;Node5</title>
<path fill="none" stroke="midnightblue" d="M562.76,-395.93C649.34,-383.89 845.5,-350.09 845.5,-291 845.5,-291 845.5,-291 845.5,-121 845.5,-50.1 744.65,-24.05 690.68,-15.18"/>
<polygon fill="midnightblue" stroke="midnightblue" points="690.97,-11.69 680.55,-13.63 689.91,-18.61 690.97,-11.69"/>
</g>
<!-- Node14&#45;&gt;Node9 -->
<g id="edge26" class="edge">
<title>Node14&#45;&gt;Node9</title>
<path fill="none" stroke="midnightblue" d="M507.01,-392.43C466.91,-370.01 356.93,-306.96 272.5,-244 251.68,-228.48 229.52,-208.49 214.94,-194.81"/>
<polygon fill="midnightblue" stroke="midnightblue" points="217.33,-192.26 207.67,-187.92 212.52,-197.34 217.33,-192.26"/>
</g>
<!-- Node15 -->
<g id="node15" class="node">
<title>Node15</title>
<g id="a_node15"><a xlink:href="../../d0/d77/body_8h.html" target="_top" xlink:title=" ">
<polygon fill="white" stroke="black" points="464.5,-336.5 464.5,-355.5 508.5,-355.5 508.5,-336.5 464.5,-336.5"/>
<text text-anchor="middle" x="486.5" y="-343.5" font-family="Helvetica,sans-Serif" font-size="10.00">body.h</text>
</a>
</g>
</g>
<!-- Node14&#45;&gt;Node15 -->
<g id="edge27" class="edge">
<title>Node14&#45;&gt;Node15</title>
<path fill="none" stroke="midnightblue" d="M516.56,-392.08C511.52,-384.53 504.16,-373.49 497.99,-364.23"/>
<polygon fill="midnightblue" stroke="midnightblue" points="500.79,-362.13 492.33,-355.75 494.97,-366.01 500.79,-362.13"/>
</g>
<!-- Node19 -->
<g id="node19" class="node">
<title>Node19</title>
<g id="a_node19"><a xlink:href="../../dc/d1e/context_8h.html" target="_top" xlink:title=" ">
<polygon fill="white" stroke="black" points="584.5,-280.5 584.5,-299.5 640.5,-299.5 640.5,-280.5 584.5,-280.5"/>
<text text-anchor="middle" x="612.5" y="-287.5" font-family="Helvetica,sans-Serif" font-size="10.00">context.h</text>
</a>
</g>
</g>
<!-- Node14&#45;&gt;Node19 -->
<g id="edge41" class="edge">
<title>Node14&#45;&gt;Node19</title>
<path fill="none" stroke="midnightblue" d="M529.56,-392.37C544.55,-374.05 579.73,-331.05 599.11,-307.36"/>
<polygon fill="midnightblue" stroke="midnightblue" points="601.85,-309.55 605.47,-299.59 596.43,-305.11 601.85,-309.55"/>
</g>
<!-- Node15&#45;&gt;Node2 -->
<g id="edge37" class="edge">
<title>Node15&#45;&gt;Node2</title>
<path fill="none" stroke="midnightblue" d="M480.07,-336.37C466.47,-318.14 434.64,-275.43 416.93,-251.68"/>
<polygon fill="midnightblue" stroke="midnightblue" points="419.69,-249.52 410.9,-243.59 414.08,-253.7 419.69,-249.52"/>
</g>
<!-- Node15&#45;&gt;Node5 -->
<g id="edge40" class="edge">
<title>Node15&#45;&gt;Node5</title>
<path fill="none" stroke="midnightblue" d="M508.56,-342.31C581.09,-332.87 807.5,-298.33 807.5,-235 807.5,-235 807.5,-235 807.5,-121 807.5,-63.33 734.5,-32.59 690.35,-19.27"/>
<polygon fill="midnightblue" stroke="midnightblue" points="691.19,-15.87 680.61,-16.47 689.25,-22.6 691.19,-15.87"/>
</g>
<!-- Node15&#45;&gt;Node9 -->
<g id="edge38" class="edge">
<title>Node15&#45;&gt;Node9</title>
<path fill="none" stroke="midnightblue" d="M471.42,-336.31C424.28,-309.14 279.41,-225.64 222.15,-192.63"/>
<polygon fill="midnightblue" stroke="midnightblue" points="223.84,-189.57 213.43,-187.61 220.35,-195.63 223.84,-189.57"/>
</g>
<!-- Node15&#45;&gt;Node10 -->
<g id="edge39" class="edge">
<title>Node15&#45;&gt;Node10</title>
<path fill="none" stroke="midnightblue" d="M464.38,-336.75C441.61,-328.11 405.24,-313.9 374.5,-300 273.8,-254.47 248.43,-242.87 152.5,-188 124.09,-171.75 92.55,-150.99 72.4,-137.36"/>
<polygon fill="midnightblue" stroke="midnightblue" points="74.23,-134.37 63.99,-131.64 70.29,-140.16 74.23,-134.37"/>
</g>
<!-- Node16 -->
<g id="node16" class="node">
<title>Node16</title>
<g id="a_node16"><a xlink:href="../../d8/d67/body__instruction_8h.html" target="_top" xlink:title=" ">
<polygon fill="white" stroke="black" points="471,-280.5 471,-299.5 566,-299.5 566,-280.5 471,-280.5"/>
<text text-anchor="middle" x="518.5" y="-287.5" font-family="Helvetica,sans-Serif" font-size="10.00">body_instruction.h</text>
</a>
</g>
</g>
<!-- Node15&#45;&gt;Node16 -->
<g id="edge28" class="edge">
<title>Node15&#45;&gt;Node16</title>
<path fill="none" stroke="midnightblue" d="M491.78,-336.08C496.21,-328.61 502.66,-317.72 508.12,-308.52"/>
<polygon fill="midnightblue" stroke="midnightblue" points="511.23,-310.14 513.31,-299.75 505.21,-306.57 511.23,-310.14"/>
</g>
<!-- Node16&#45;&gt;Node2 -->
<g id="edge34" class="edge">
<title>Node16&#45;&gt;Node2</title>
<path fill="none" stroke="midnightblue" d="M500.44,-280.44C481.93,-271.68 452.92,-257.94 431.64,-247.86"/>
<polygon fill="midnightblue" stroke="midnightblue" points="433.01,-244.63 422.48,-243.52 430.02,-250.96 433.01,-244.63"/>
</g>
<!-- Node16&#45;&gt;Node5 -->
<g id="edge36" class="edge">
<title>Node16&#45;&gt;Node5</title>
<path fill="none" stroke="midnightblue" d="M535.46,-280.47C549.34,-272.7 568.58,-260 580.5,-244 606.83,-208.66 640.89,-78.27 652.99,-29.54"/>
<polygon fill="midnightblue" stroke="midnightblue" points="656.42,-30.26 655.41,-19.72 649.62,-28.59 656.42,-30.26"/>
</g>
<!-- Node16&#45;&gt;Node9 -->
<g id="edge35" class="edge">
<title>Node16&#45;&gt;Node9</title>
<path fill="none" stroke="midnightblue" d="M481.74,-280.46C448.96,-272.41 399.9,-259.34 358.5,-244 338.74,-236.68 334.9,-232.23 315.5,-224 287.45,-212.1 255.09,-199.76 231.52,-191.01"/>
<polygon fill="midnightblue" stroke="midnightblue" points="232.59,-187.68 222,-187.5 230.17,-194.25 232.59,-187.68"/>
</g>
<!-- Node17 -->
<g id="node17" class="node">
<title>Node17</title>
<g id="a_node17"><a xlink:href="../../d0/d96/body__type_8h.html" target="_top" xlink:title=" ">
<polygon fill="white" stroke="black" points="443.5,-168.5 443.5,-187.5 511.5,-187.5 511.5,-168.5 443.5,-168.5"/>
<text text-anchor="middle" x="477.5" y="-175.5" font-family="Helvetica,sans-Serif" font-size="10.00">body_type.h</text>
</a>
</g>
</g>
<!-- Node16&#45;&gt;Node17 -->
<g id="edge29" class="edge">
<title>Node16&#45;&gt;Node17</title>
<path fill="none" stroke="midnightblue" d="M511.08,-280.33C504.12,-271.7 493.97,-257.79 488.5,-244 482.62,-229.19 479.88,-211.26 478.61,-197.99"/>
<polygon fill="midnightblue" stroke="midnightblue" points="482.08,-197.43 477.82,-187.72 475.1,-197.96 482.08,-197.43"/>
</g>
<!-- Node18 -->
<g id="node18" class="node">
<title>Node18</title>
<g id="a_node18"><a xlink:href="../../d9/ded/body__return_8h.html" target="_top" xlink:title=" ">
<polygon fill="white" stroke="black" points="497.5,-224.5 497.5,-243.5 571.5,-243.5 571.5,-224.5 497.5,-224.5"/>
<text text-anchor="middle" x="534.5" y="-231.5" font-family="Helvetica,sans-Serif" font-size="10.00">body_return.h</text>
</a>
</g>
</g>
<!-- Node16&#45;&gt;Node18 -->
<g id="edge30" class="edge">
<title>Node16&#45;&gt;Node18</title>
<path fill="none" stroke="midnightblue" d="M521.14,-280.08C523.29,-272.85 526.38,-262.41 529.05,-253.4"/>
<polygon fill="midnightblue" stroke="midnightblue" points="532.42,-254.33 531.91,-243.75 525.71,-252.34 532.42,-254.33"/>
</g>
<!-- Node18&#45;&gt;Node5 -->
<g id="edge33" class="edge">
<title>Node18&#45;&gt;Node5</title>
<path fill="none" stroke="midnightblue" d="M538.99,-224.45C549.43,-204.6 576.22,-153.9 599.5,-112 615.88,-82.51 635.54,-48.57 647.25,-28.5"/>
<polygon fill="midnightblue" stroke="midnightblue" points="650.43,-30 652.45,-19.6 644.38,-26.47 650.43,-30"/>
</g>
<!-- Node18&#45;&gt;Node6 -->
<g id="edge32" class="edge">
<title>Node18&#45;&gt;Node6</title>
<path fill="none" stroke="midnightblue" d="M535.36,-224.46C536.25,-210.55 535.79,-183.07 520.5,-168 493.98,-141.86 386.2,-129.9 329.99,-125.35"/>
<polygon fill="midnightblue" stroke="midnightblue" points="330.04,-121.84 319.8,-124.56 329.5,-128.82 330.04,-121.84"/>
</g>
<!-- Node18&#45;&gt;Node17 -->
<g id="edge31" class="edge">
<title>Node18&#45;&gt;Node17</title>
<path fill="none" stroke="midnightblue" d="M525.34,-224.32C517,-216.42 504.47,-204.55 494.32,-194.94"/>
<polygon fill="midnightblue" stroke="midnightblue" points="496.49,-192.17 486.82,-187.83 491.68,-197.25 496.49,-192.17"/>
</g>
<!-- Node19&#45;&gt;Node2 -->
<g id="edge45" class="edge">
<title>Node19&#45;&gt;Node2</title>
<path fill="none" stroke="midnightblue" d="M584.45,-281.72C549.21,-272.57 488.39,-256.78 447.32,-246.12"/>
<polygon fill="midnightblue" stroke="midnightblue" points="448.15,-242.72 437.59,-243.59 446.39,-249.49 448.15,-242.72"/>
</g>
<!-- Node19&#45;&gt;Node5 -->
<g id="edge47" class="edge">
<title>Node19&#45;&gt;Node5</title>
<path fill="none" stroke="midnightblue" d="M640.57,-282.9C685.73,-271.24 769.5,-241.24 769.5,-179 769.5,-179 769.5,-179 769.5,-121 769.5,-74.61 719.99,-41.28 686.81,-24.15"/>
<polygon fill="midnightblue" stroke="midnightblue" points="688.04,-20.86 677.52,-19.56 684.93,-27.13 688.04,-20.86"/>
</g>
<!-- Node19&#45;&gt;Node10 -->
<g id="edge46" class="edge">
<title>Node19&#45;&gt;Node10</title>
<path fill="none" stroke="midnightblue" d="M609.45,-280.45C604.56,-267.48 594.15,-242.38 580.5,-224 558.76,-194.71 553.76,-182.98 520.5,-168 484.22,-151.66 232.14,-134.16 113.27,-126.71"/>
<polygon fill="midnightblue" stroke="midnightblue" points="113.43,-123.21 103.23,-126.08 112.99,-130.19 113.43,-123.21"/>
</g>
<!-- Node20 -->
<g id="node20" class="node">
<title>Node20</title>
<g id="a_node20"><a xlink:href="../../d7/d7d/context__condition_8h.html" target="_top" xlink:title=" ">
<polygon fill="white" stroke="black" points="641.5,-112.5 641.5,-131.5 741.5,-131.5 741.5,-112.5 641.5,-112.5"/>
<text text-anchor="middle" x="691.5" y="-119.5" font-family="Helvetica,sans-Serif" font-size="10.00">context_condition.h</text>
</a>
</g>
</g>
<!-- Node19&#45;&gt;Node20 -->
<g id="edge42" class="edge">
<title>Node19&#45;&gt;Node20</title>
<path fill="none" stroke="midnightblue" d="M628.08,-280.41C640.73,-272.59 657.98,-259.87 667.5,-244 686.81,-211.82 690.93,-166.99 691.61,-141.92"/>
<polygon fill="midnightblue" stroke="midnightblue" points="695.11,-141.65 691.72,-131.62 688.11,-141.58 695.11,-141.65"/>
</g>
<!-- Node20&#45;&gt;Node4 -->
<g id="edge43" class="edge">
<title>Node20&#45;&gt;Node4</title>
<path fill="none" stroke="midnightblue" d="M667.26,-112.44C641.63,-103.4 601.01,-89.06 572.26,-78.92"/>
<polygon fill="midnightblue" stroke="midnightblue" points="573.22,-75.54 562.63,-75.52 570.89,-82.15 573.22,-75.54"/>
</g>
<!-- Node20&#45;&gt;Node5 -->
<g id="edge44" class="edge">
<title>Node20&#45;&gt;Node5</title>
<path fill="none" stroke="midnightblue" d="M688.79,-112.17C684.95,-99.66 677.71,-76.08 671.5,-56 668.78,-47.2 665.74,-37.43 663.19,-29.25"/>
<polygon fill="midnightblue" stroke="midnightblue" points="666.51,-28.13 660.19,-19.62 659.83,-30.21 666.51,-28.13"/>
</g>
<!-- Node21&#45;&gt;Node5 -->
<g id="edge54" class="edge">
<title>Node21&#45;&gt;Node5</title>
<path fill="none" stroke="midnightblue" d="M571.83,-457.28C661.86,-456.81 848.09,-451 897.5,-412 921.67,-392.92 921.5,-377.8 921.5,-347 921.5,-347 921.5,-347 921.5,-121 921.5,-90.2 921.03,-75.87 897.5,-56 866.7,-30 749.23,-17.79 690.84,-13.24"/>
<polygon fill="midnightblue" stroke="midnightblue" points="690.9,-9.73 680.66,-12.47 690.37,-16.71 690.9,-9.73"/>
</g>
<!-- Node21&#45;&gt;Node14 -->
<g id="edge53" class="edge">
<title>Node21&#45;&gt;Node14</title>
<path fill="none" stroke="midnightblue" d="M522.5,-448.08C522.5,-441.01 522.5,-430.86 522.5,-421.99"/>
<polygon fill="midnightblue" stroke="midnightblue" points="526,-421.75 522.5,-411.75 519,-421.75 526,-421.75"/>
</g>
</g>
</svg>
        <g id="navigator" transform="translate(0 0)" fill="#404254">
                <rect fill="#f2f5e9" fill-opacity="0.5" stroke="#606060" stroke-width=".5" x="0" y="0" width="60" height="60"/>
                <use id="zoomplus" xlink:href="#zoomPlus" x="17" y="9" onmousedown="handleZoom(evt,'in')"/>
                <use id="zoomminus" xlink:href="#zoomMin" x="42" y="9" onmousedown="handleZoom(evt,'out')"/>
                <use id="reset" xlink:href="#resetDef" x="30" y="36" onmousedown="handleReset()"/>
                <g id="arrowUp" xlink:href="#dirArrow" transform="translate(30 24)" onmousedown="handlePan(0,-1)">
                  <use xlink:href="#rim" fill="#404040">
                        <set attributeName="fill" to="#808080" begin="arrowUp.mouseover" end="arrowUp.mouseout"/>
                  </use>
                  <path fill="none" stroke="white" stroke-width="1.5" d="M0,-3.0v7 M-2.5,-0.5L0,-3.0L2.5,-0.5"/>
                </g>
                <g id="arrowRight" xlink:href="#dirArrow" transform="rotate(90) translate(36 -43)" onmousedown="handlePan(1,0)">
                  <use xlink:href="#rim" fill="#404040">
                        <set attributeName="fill" to="#808080" begin="arrowRight.mouseover" end="arrowRight.mouseout"/>
                  </use>
                  <path fill="none" stroke="white" stroke-width="1.5" d="M0,-3.0v7 M-2.5,-0.5L0,-3.0L2.5,-0.5"/>
                </g>
                <g id="arrowDown" xlink:href="#dirArrow" transform="rotate(180) translate(-30 -48)" onmousedown="handlePan(0,1)">
                  <use xlink:href="#rim" fill="#404040">
                        <set attributeName="fill" to="#808080" begin="arrowDown.mouseover" end="arrowDown.mouseout"/>
                  </use>
                  <path fill="none" stroke="white" stroke-width="1.5" d="M0,-3.0v7 M-2.5,-0.5L0,-3.0L2.5,-0.5"/>
                </g>
                <g id="arrowLeft" xlink:href="#dirArrow" transform="rotate(270) translate(-36 17)" onmousedown="handlePan(-1,0)">
                  <use xlink:href="#rim" fill="#404040">
                        <set attributeName="fill" to="#808080" begin="arrowLeft.mouseover" end="arrowLeft.mouseout"/>
                  </use>
                  <path fill="none" stroke="white" stroke-width="1.5" d="M0,-3.0v7 M-2.5,-0.5L0,-3.0L2.5,-0.5"/>
                </g>
        </g>
        <svg viewBox="0 0 15 15" width="100%" height="30px" preserveAspectRatio="xMaxYMin meet">
         <g id="arrow_out" transform="scale(0.3 0.3)">
          <a xlink:href="intention__base_8h__incl_org.svg" target="_base">
           <rect id="button" ry="5" rx="5" y="6" x="6" height="38" width="38"
                fill="#f2f5e9" fill-opacity="0.5" stroke="#606060" stroke-width="1.0"/>
           <path id="arrow"
             d="M 11.500037,31.436501 C 11.940474,20.09759 22.043105,11.32322 32.158766,21.979434 L 37.068811,17.246167 C 37.068811,17.246167 37.088388,32 37.088388,32 L 22.160133,31.978069 C 22.160133,31.978069 26.997745,27.140456 26.997745,27.140456 C 18.528582,18.264221 13.291696,25.230495 11.500037,31.436501 z"
             style="fill:#404040;"/>
          </a>
         </g>
        </svg>
</svg>
