<?xml version="1.0" encoding="UTF-8" standalone="no"?>
<!DOCTYPE svg PUBLIC "-//W3C//DTD SVG 1.1//EN"
 "http://www.w3.org/Graphics/SVG/1.1/DTD/svg11.dtd">
<!-- Generated by graphviz version 2.47.1 (20210421.1823)
 -->
<!-- Title: plan_base.cpp Pages: 1 -->
<svg width="862pt" height="532pt"
 viewBox="0.00 0.00 862.00 532.00" xmlns="http://www.w3.org/2000/svg" xmlns:xlink="http://www.w3.org/1999/xlink">
<g id="graph0" class="graph" transform="scale(1 1) rotate(0) translate(4 528)">
<title>plan_base.cpp</title>
<polygon fill="white" stroke="transparent" points="-4,4 -4,-528 858,-528 858,4 -4,4"/>
<!-- Node1 -->
<g id="node1" class="node">
<title>Node1</title>
<g id="a_node1"><a xlink:title=" ">
<polygon fill="#bfbfbf" stroke="black" points="481.5,-504.5 481.5,-523.5 560.5,-523.5 560.5,-504.5 481.5,-504.5"/>
<text text-anchor="middle" x="521" y="-511.5" font-family="Helvetica,sans-Serif" font-size="10.00">plan_base.cpp</text>
</a>
</g>
</g>
<!-- Node2 -->
<g id="node2" class="node">
<title>Node2</title>
<g id="a_node2"><a xlink:href="../../de/d75/plan__base_8h.html" target="_top" xlink:title=" ">
<polygon fill="white" stroke="black" points="487,-448.5 487,-467.5 555,-467.5 555,-448.5 487,-448.5"/>
<text text-anchor="middle" x="521" y="-455.5" font-family="Helvetica,sans-Serif" font-size="10.00">plan_base.h</text>
</a>
</g>
</g>
<!-- Node1&#45;&gt;Node2 -->
<g id="edge1" class="edge">
<title>Node1&#45;&gt;Node2</title>
<path fill="none" stroke="midnightblue" d="M521,-504.08C521,-497.01 521,-486.86 521,-477.99"/>
<polygon fill="midnightblue" stroke="midnightblue" points="524.5,-477.75 521,-467.75 517.5,-477.75 524.5,-477.75"/>
</g>
<!-- Node3 -->
<g id="node3" class="node">
<title>Node3</title>
<g id="a_node3"><a xlink:href="../../d2/d2f/belief__base_8h.html" target="_top" xlink:title=" ">
<polygon fill="white" stroke="black" points="267,-224.5 267,-243.5 341,-243.5 341,-224.5 267,-224.5"/>
<text text-anchor="middle" x="304" y="-231.5" font-family="Helvetica,sans-Serif" font-size="10.00">belief_base.h</text>
</a>
</g>
</g>
<!-- Node2&#45;&gt;Node3 -->
<g id="edge2" class="edge">
<title>Node2&#45;&gt;Node3</title>
<path fill="none" stroke="midnightblue" d="M507.14,-448.41C481.75,-432.28 426.81,-395.5 388,-356 366.38,-334 364.63,-325.31 347,-300 335.8,-283.92 323.51,-265.22 314.95,-252.03"/>
<polygon fill="midnightblue" stroke="midnightblue" points="317.81,-250 309.44,-243.5 311.93,-253.8 317.81,-250"/>
</g>
<!-- Node6 -->
<g id="node6" class="node">
<title>Node6</title>
<g id="a_node6"><a xlink:title=" ">
<polygon fill="white" stroke="#bfbfbf" points="291,-0.5 291,-19.5 337,-19.5 337,-0.5 291,-0.5"/>
<text text-anchor="middle" x="314" y="-7.5" font-family="Helvetica,sans-Serif" font-size="10.00">cstdint</text>
</a>
</g>
</g>
<!-- Node2&#45;&gt;Node6 -->
<g id="edge47" class="edge">
<title>Node2&#45;&gt;Node6</title>
<path fill="none" stroke="midnightblue" d="M555.04,-455.67C603.88,-452.69 695.76,-443.07 767,-412 811.24,-392.7 854,-395.27 854,-347 854,-347 854,-347 854,-121 854,-83.16 832.56,-73.49 799,-56 720.13,-14.89 443.38,-10.96 347.22,-10.86"/>
<polygon fill="midnightblue" stroke="midnightblue" points="347.19,-7.36 337.19,-10.86 347.19,-14.36 347.19,-7.36"/>
</g>
<!-- Node7 -->
<g id="node7" class="node">
<title>Node7</title>
<g id="a_node7"><a xlink:href="../../dd/d20/event_8h.html" target="_top" xlink:title=" ">
<polygon fill="white" stroke="black" points="538,-112.5 538,-131.5 586,-131.5 586,-112.5 538,-112.5"/>
<text text-anchor="middle" x="562" y="-119.5" font-family="Helvetica,sans-Serif" font-size="10.00">event.h</text>
</a>
</g>
</g>
<!-- Node2&#45;&gt;Node7 -->
<g id="edge21" class="edge">
<title>Node2&#45;&gt;Node7</title>
<path fill="none" stroke="midnightblue" d="M555.13,-457.41C625.04,-456.28 778,-442.85 778,-347 778,-347 778,-347 778,-233 778,-152.61 657.72,-130.94 596.68,-125.13"/>
<polygon fill="midnightblue" stroke="midnightblue" points="596.62,-121.61 586.36,-124.24 596.02,-128.58 596.62,-121.61"/>
</g>
<!-- Node11 -->
<g id="node11" class="node">
<title>Node11</title>
<g id="a_node11"><a xlink:href="../../d0/d81/vector__queue_8h.html" target="_top" xlink:title=" ">
<polygon fill="white" stroke="black" points="384.5,-112.5 384.5,-131.5 487.5,-131.5 487.5,-112.5 384.5,-112.5"/>
<text text-anchor="middle" x="436" y="-119.5" font-family="Helvetica,sans-Serif" font-size="10.00">../lib/vector_queue.h</text>
</a>
</g>
</g>
<!-- Node2&#45;&gt;Node11 -->
<g id="edge46" class="edge">
<title>Node2&#45;&gt;Node11</title>
<path fill="none" stroke="midnightblue" d="M521,-448.44C521,-429.94 521,-384.81 521,-347 521,-347 521,-347 521,-233 521,-191.76 483.14,-156.57 457.95,-137.73"/>
<polygon fill="midnightblue" stroke="midnightblue" points="459.82,-134.76 449.66,-131.76 455.73,-140.44 459.82,-134.76"/>
</g>
<!-- Node13 -->
<g id="node13" class="node">
<title>Node13</title>
<g id="a_node13"><a xlink:href="../../d9/d4e/plan_8h.html" target="_top" xlink:title=" ">
<polygon fill="white" stroke="black" points="185,-392.5 185,-411.5 265,-411.5 265,-392.5 185,-392.5"/>
<text text-anchor="middle" x="225" y="-399.5" font-family="Helvetica,sans-Serif" font-size="10.00">../syntax/plan.h</text>
</a>
</g>
</g>
<!-- Node2&#45;&gt;Node13 -->
<g id="edge22" class="edge">
<title>Node2&#45;&gt;Node13</title>
<path fill="none" stroke="midnightblue" d="M486.76,-450.75C434.68,-441.25 335.29,-423.12 275.09,-412.14"/>
<polygon fill="midnightblue" stroke="midnightblue" points="275.52,-408.66 265.05,-410.31 274.26,-415.54 275.52,-408.66"/>
</g>
<!-- Node4 -->
<g id="node4" class="node">
<title>Node4</title>
<g id="a_node4"><a xlink:href="../../da/db8/belief_8h.html" target="_top" xlink:title=" ">
<polygon fill="white" stroke="black" points="260.5,-112.5 260.5,-131.5 307.5,-131.5 307.5,-112.5 260.5,-112.5"/>
<text text-anchor="middle" x="284" y="-119.5" font-family="Helvetica,sans-Serif" font-size="10.00">belief.h</text>
</a>
</g>
</g>
<!-- Node3&#45;&gt;Node4 -->
<g id="edge3" class="edge">
<title>Node3&#45;&gt;Node4</title>
<path fill="none" stroke="midnightblue" d="M302.43,-224.37C299.2,-206.62 291.76,-165.67 287.38,-141.6"/>
<polygon fill="midnightblue" stroke="midnightblue" points="290.79,-140.8 285.56,-131.59 283.91,-142.06 290.79,-140.8"/>
</g>
<!-- Node3&#45;&gt;Node6 -->
<g id="edge20" class="edge">
<title>Node3&#45;&gt;Node6</title>
<path fill="none" stroke="midnightblue" d="M296.12,-224.15C268.72,-192.89 180.45,-87.88 202,-56 219.51,-30.1 254.65,-19.1 280.92,-14.44"/>
<polygon fill="midnightblue" stroke="midnightblue" points="281.51,-17.89 290.86,-12.89 280.44,-10.97 281.51,-17.89"/>
</g>
<!-- Node3&#45;&gt;Node7 -->
<g id="edge7" class="edge">
<title>Node3&#45;&gt;Node7</title>
<path fill="none" stroke="midnightblue" d="M310.49,-224.33C321.51,-210.24 345.31,-182.5 372,-168 398.58,-153.56 480.47,-137.38 527.61,-128.9"/>
<polygon fill="midnightblue" stroke="midnightblue" points="528.44,-132.31 537.67,-127.12 527.22,-125.42 528.44,-132.31"/>
</g>
<!-- Node10 -->
<g id="node10" class="node">
<title>Node10</title>
<g id="a_node10"><a xlink:href="../../d7/dc4/event__base_8h.html" target="_top" xlink:title=" ">
<polygon fill="white" stroke="black" points="381,-168.5 381,-187.5 455,-187.5 455,-168.5 381,-168.5"/>
<text text-anchor="middle" x="418" y="-175.5" font-family="Helvetica,sans-Serif" font-size="10.00">event_base.h</text>
</a>
</g>
</g>
<!-- Node3&#45;&gt;Node10 -->
<g id="edge13" class="edge">
<title>Node3&#45;&gt;Node10</title>
<path fill="none" stroke="midnightblue" d="M322.06,-224.44C340.57,-215.68 369.58,-201.94 390.86,-191.86"/>
<polygon fill="midnightblue" stroke="midnightblue" points="392.48,-194.96 400.02,-187.52 389.49,-188.63 392.48,-194.96"/>
</g>
<!-- Node3&#45;&gt;Node11 -->
<g id="edge19" class="edge">
<title>Node3&#45;&gt;Node11</title>
<path fill="none" stroke="midnightblue" d="M306.68,-224.3C311.26,-210.68 321.84,-184.17 339,-168 354.99,-152.93 376.93,-142.18 395.9,-134.97"/>
<polygon fill="midnightblue" stroke="midnightblue" points="397.28,-138.19 405.51,-131.52 394.91,-131.61 397.28,-138.19"/>
</g>
<!-- Node5 -->
<g id="node5" class="node">
<title>Node5</title>
<g id="a_node5"><a xlink:href="../../d5/d6b/proposition_8h.html" target="_top" xlink:title=" ">
<polygon fill="white" stroke="black" points="218,-56.5 218,-75.5 328,-75.5 328,-56.5 218,-56.5"/>
<text text-anchor="middle" x="273" y="-63.5" font-family="Helvetica,sans-Serif" font-size="10.00">../syntax/proposition.h</text>
</a>
</g>
</g>
<!-- Node4&#45;&gt;Node5 -->
<g id="edge4" class="edge">
<title>Node4&#45;&gt;Node5</title>
<path fill="none" stroke="midnightblue" d="M282.18,-112.08C280.73,-104.93 278.63,-94.64 276.81,-85.69"/>
<polygon fill="midnightblue" stroke="midnightblue" points="280.21,-84.85 274.78,-75.75 273.35,-86.25 280.21,-84.85"/>
</g>
<!-- Node4&#45;&gt;Node6 -->
<g id="edge6" class="edge">
<title>Node4&#45;&gt;Node6</title>
<path fill="none" stroke="midnightblue" d="M260.29,-112.78C232.61,-101.82 192.59,-80.89 209,-56 224.86,-31.95 256.52,-20.71 280.95,-15.48"/>
<polygon fill="midnightblue" stroke="midnightblue" points="281.74,-18.89 290.91,-13.58 280.43,-12.01 281.74,-18.89"/>
</g>
<!-- Node5&#45;&gt;Node6 -->
<g id="edge5" class="edge">
<title>Node5&#45;&gt;Node6</title>
<path fill="none" stroke="midnightblue" d="M279.77,-56.08C285.56,-48.46 294.06,-37.26 301.14,-27.94"/>
<polygon fill="midnightblue" stroke="midnightblue" points="304.1,-29.83 307.36,-19.75 298.52,-25.6 304.1,-29.83"/>
</g>
<!-- Node7&#45;&gt;Node5 -->
<g id="edge8" class="edge">
<title>Node7&#45;&gt;Node5</title>
<path fill="none" stroke="midnightblue" d="M537.86,-116.49C492.17,-107.95 392.01,-89.24 328.79,-77.42"/>
<polygon fill="midnightblue" stroke="midnightblue" points="329.06,-73.92 318.59,-75.52 327.78,-80.8 329.06,-73.92"/>
</g>
<!-- Node7&#45;&gt;Node6 -->
<g id="edge12" class="edge">
<title>Node7&#45;&gt;Node6</title>
<path fill="none" stroke="midnightblue" d="M567.74,-112.31C575.96,-98.69 588.64,-72.2 575,-56 546.3,-21.92 411.49,-13.65 347.66,-11.64"/>
<polygon fill="midnightblue" stroke="midnightblue" points="347.43,-8.14 337.33,-11.35 347.23,-15.13 347.43,-8.14"/>
</g>
<!-- Node8 -->
<g id="node8" class="node">
<title>Node8</title>
<g id="a_node8"><a xlink:href="../../db/d50/event__operator_8h.html" target="_top" xlink:title=" ">
<polygon fill="white" stroke="black" points="622.5,-56.5 622.5,-75.5 749.5,-75.5 749.5,-56.5 622.5,-56.5"/>
<text text-anchor="middle" x="686" y="-63.5" font-family="Helvetica,sans-Serif" font-size="10.00">../syntax/event_operator.h</text>
</a>
</g>
</g>
<!-- Node7&#45;&gt;Node8 -->
<g id="edge9" class="edge">
<title>Node7&#45;&gt;Node8</title>
<path fill="none" stroke="midnightblue" d="M581.65,-112.44C601.96,-103.6 633.9,-89.69 657.1,-79.59"/>
<polygon fill="midnightblue" stroke="midnightblue" points="658.67,-82.72 666.44,-75.52 655.88,-76.3 658.67,-82.72"/>
</g>
<!-- Node9 -->
<g id="node9" class="node">
<title>Node9</title>
<g id="a_node9"><a xlink:href="../../df/dc3/event__id_8h.html" target="_top" xlink:title=" ">
<polygon fill="white" stroke="black" points="484.5,-56.5 484.5,-75.5 565.5,-75.5 565.5,-56.5 484.5,-56.5"/>
<text text-anchor="middle" x="525" y="-63.5" font-family="Helvetica,sans-Serif" font-size="10.00">../lib/event_id.h</text>
</a>
</g>
</g>
<!-- Node7&#45;&gt;Node9 -->
<g id="edge10" class="edge">
<title>Node7&#45;&gt;Node9</title>
<path fill="none" stroke="midnightblue" d="M555.89,-112.08C550.72,-104.53 543.15,-93.49 536.81,-84.23"/>
<polygon fill="midnightblue" stroke="midnightblue" points="539.54,-82.02 531,-75.75 533.76,-85.98 539.54,-82.02"/>
</g>
<!-- Node9&#45;&gt;Node6 -->
<g id="edge11" class="edge">
<title>Node9&#45;&gt;Node6</title>
<path fill="none" stroke="midnightblue" d="M491.57,-56.44C451.99,-46.32 386.5,-29.55 347.08,-19.47"/>
<polygon fill="midnightblue" stroke="midnightblue" points="347.73,-16.02 337.17,-16.93 345.99,-22.8 347.73,-16.02"/>
</g>
<!-- Node10&#45;&gt;Node6 -->
<g id="edge18" class="edge">
<title>Node10&#45;&gt;Node6</title>
<path fill="none" stroke="midnightblue" d="M408.51,-168.34C399.43,-159.72 385.7,-145.82 376,-132 375.59,-131.41 340.22,-62.27 323.09,-28.78"/>
<polygon fill="midnightblue" stroke="midnightblue" points="326.09,-26.96 318.42,-19.65 319.86,-30.15 326.09,-26.96"/>
</g>
<!-- Node10&#45;&gt;Node7 -->
<g id="edge14" class="edge">
<title>Node10&#45;&gt;Node7</title>
<path fill="none" stroke="midnightblue" d="M440.82,-168.44C464.83,-159.44 502.83,-145.19 529.87,-135.05"/>
<polygon fill="midnightblue" stroke="midnightblue" points="531.16,-138.3 539.29,-131.52 528.7,-131.75 531.16,-138.3"/>
</g>
<!-- Node10&#45;&gt;Node11 -->
<g id="edge15" class="edge">
<title>Node10&#45;&gt;Node11</title>
<path fill="none" stroke="midnightblue" d="M420.97,-168.08C423.38,-160.85 426.86,-150.41 429.87,-141.4"/>
<polygon fill="midnightblue" stroke="midnightblue" points="433.24,-142.34 433.08,-131.75 426.6,-140.13 433.24,-142.34"/>
</g>
<!-- Node11&#45;&gt;Node6 -->
<g id="edge17" class="edge">
<title>Node11&#45;&gt;Node6</title>
<path fill="none" stroke="midnightblue" d="M427.72,-112.3C415.47,-99.56 391.62,-75.25 370,-56 358.24,-45.53 344.46,-34.44 333.51,-25.89"/>
<polygon fill="midnightblue" stroke="midnightblue" points="335.48,-22.99 325.43,-19.64 331.2,-28.53 335.48,-22.99"/>
</g>
<!-- Node12 -->
<g id="node12" class="node">
<title>Node12</title>
<g id="a_node12"><a xlink:title=" ">
<polygon fill="white" stroke="#bfbfbf" points="422,-56.5 422,-75.5 466,-75.5 466,-56.5 422,-56.5"/>
<text text-anchor="middle" x="444" y="-63.5" font-family="Helvetica,sans-Serif" font-size="10.00">vector</text>
</a>
</g>
</g>
<!-- Node11&#45;&gt;Node12 -->
<g id="edge16" class="edge">
<title>Node11&#45;&gt;Node12</title>
<path fill="none" stroke="midnightblue" d="M437.32,-112.08C438.38,-104.93 439.91,-94.64 441.23,-85.69"/>
<polygon fill="midnightblue" stroke="midnightblue" points="444.7,-86.16 442.7,-75.75 437.78,-85.13 444.7,-86.16"/>
</g>
<!-- Node13&#45;&gt;Node6 -->
<g id="edge45" class="edge">
<title>Node13&#45;&gt;Node6</title>
<path fill="none" stroke="midnightblue" d="M184.77,-399.05C120.06,-393.53 0,-372.31 0,-291 0,-291 0,-291 0,-121 0,-61.99 200.03,-27.1 280.78,-15.42"/>
<polygon fill="midnightblue" stroke="midnightblue" points="281.5,-18.86 290.91,-13.99 280.52,-11.93 281.5,-18.86"/>
</g>
<!-- Node13&#45;&gt;Node10 -->
<g id="edge23" class="edge">
<title>Node13&#45;&gt;Node10</title>
<path fill="none" stroke="midnightblue" d="M232.57,-392.3C261.44,-359.08 365.04,-239.92 403.5,-195.68"/>
<polygon fill="midnightblue" stroke="midnightblue" points="406.36,-197.73 410.28,-187.88 401.07,-193.13 406.36,-197.73"/>
</g>
<!-- Node14 -->
<g id="node14" class="node">
<title>Node14</title>
<g id="a_node14"><a xlink:href="../../d0/d77/body_8h.html" target="_top" xlink:title=" ">
<polygon fill="white" stroke="black" points="397,-336.5 397,-355.5 441,-355.5 441,-336.5 397,-336.5"/>
<text text-anchor="middle" x="419" y="-343.5" font-family="Helvetica,sans-Serif" font-size="10.00">body.h</text>
</a>
</g>
</g>
<!-- Node13&#45;&gt;Node14 -->
<g id="edge24" class="edge">
<title>Node13&#45;&gt;Node14</title>
<path fill="none" stroke="midnightblue" d="M255.74,-392.44C291.53,-382.48 350.36,-366.11 386.77,-355.97"/>
<polygon fill="midnightblue" stroke="midnightblue" points="388.16,-359.22 396.85,-353.16 386.28,-352.47 388.16,-359.22"/>
</g>
<!-- Node18 -->
<g id="node18" class="node">
<title>Node18</title>
<g id="a_node18"><a xlink:href="../../dc/d1e/context_8h.html" target="_top" xlink:title=" ">
<polygon fill="white" stroke="black" points="166,-280.5 166,-299.5 222,-299.5 222,-280.5 166,-280.5"/>
<text text-anchor="middle" x="194" y="-287.5" font-family="Helvetica,sans-Serif" font-size="10.00">context.h</text>
</a>
</g>
</g>
<!-- Node13&#45;&gt;Node18 -->
<g id="edge38" class="edge">
<title>Node13&#45;&gt;Node18</title>
<path fill="none" stroke="midnightblue" d="M222.57,-392.37C217.54,-374.54 205.92,-333.3 199.15,-309.27"/>
<polygon fill="midnightblue" stroke="midnightblue" points="202.5,-308.27 196.42,-299.59 195.77,-310.17 202.5,-308.27"/>
</g>
<!-- Node14&#45;&gt;Node3 -->
<g id="edge34" class="edge">
<title>Node14&#45;&gt;Node3</title>
<path fill="none" stroke="midnightblue" d="M409.98,-336.37C390.66,-317.89 345.08,-274.29 320.46,-250.74"/>
<polygon fill="midnightblue" stroke="midnightblue" points="322.63,-247.97 312.98,-243.59 317.79,-253.03 322.63,-247.97"/>
</g>
<!-- Node14&#45;&gt;Node6 -->
<g id="edge37" class="edge">
<title>Node14&#45;&gt;Node6</title>
<path fill="none" stroke="midnightblue" d="M396.88,-344.88C350.36,-343.86 239.9,-337.34 157,-300 114.91,-281.05 76,-281.16 76,-235 76,-235 76,-235 76,-121 76,-31.96 214.96,-14.77 280.52,-11.61"/>
<polygon fill="midnightblue" stroke="midnightblue" points="280.89,-15.1 290.75,-11.2 280.62,-8.1 280.89,-15.1"/>
</g>
<!-- Node14&#45;&gt;Node10 -->
<g id="edge35" class="edge">
<title>Node14&#45;&gt;Node10</title>
<path fill="none" stroke="midnightblue" d="M418.95,-336.08C418.79,-309.95 418.33,-233.21 418.11,-197.58"/>
<polygon fill="midnightblue" stroke="midnightblue" points="421.61,-197.55 418.05,-187.57 414.61,-197.59 421.61,-197.55"/>
</g>
<!-- Node14&#45;&gt;Node11 -->
<g id="edge36" class="edge">
<title>Node14&#45;&gt;Node11</title>
<path fill="none" stroke="midnightblue" d="M422.42,-336.33C431.46,-312.9 455.86,-246.13 464,-188 465.23,-179.2 466.44,-176.55 464,-168 461.1,-157.84 455.17,-147.75 449.51,-139.7"/>
<polygon fill="midnightblue" stroke="midnightblue" points="452.22,-137.48 443.41,-131.59 446.62,-141.69 452.22,-137.48"/>
</g>
<!-- Node15 -->
<g id="node15" class="node">
<title>Node15</title>
<g id="a_node15"><a xlink:href="../../d8/d67/body__instruction_8h.html" target="_top" xlink:title=" ">
<polygon fill="white" stroke="black" points="549.5,-280.5 549.5,-299.5 644.5,-299.5 644.5,-280.5 549.5,-280.5"/>
<text text-anchor="middle" x="597" y="-287.5" font-family="Helvetica,sans-Serif" font-size="10.00">body_instruction.h</text>
</a>
</g>
</g>
<!-- Node14&#45;&gt;Node15 -->
<g id="edge25" class="edge">
<title>Node14&#45;&gt;Node15</title>
<path fill="none" stroke="midnightblue" d="M441.18,-338.27C470.74,-329.3 523.48,-313.3 559.33,-302.43"/>
<polygon fill="midnightblue" stroke="midnightblue" points="560.41,-305.76 568.96,-299.51 558.37,-299.06 560.41,-305.76"/>
</g>
<!-- Node15&#45;&gt;Node3 -->
<g id="edge31" class="edge">
<title>Node15&#45;&gt;Node3</title>
<path fill="none" stroke="midnightblue" d="M550.57,-280.44C496.15,-270.41 406.44,-253.88 351.54,-243.76"/>
<polygon fill="midnightblue" stroke="midnightblue" points="351.85,-240.26 341.38,-241.89 350.58,-247.14 351.85,-240.26"/>
</g>
<!-- Node15&#45;&gt;Node6 -->
<g id="edge33" class="edge">
<title>Node15&#45;&gt;Node6</title>
<path fill="none" stroke="midnightblue" d="M627.8,-280.48C649.64,-273.33 678.73,-261.45 700,-244 769.93,-186.61 838.8,-122.98 778,-56 749.13,-24.2 449.13,-14.2 347.47,-11.71"/>
<polygon fill="midnightblue" stroke="midnightblue" points="347.25,-8.2 337.17,-11.46 347.09,-15.2 347.25,-8.2"/>
</g>
<!-- Node15&#45;&gt;Node10 -->
<g id="edge32" class="edge">
<title>Node15&#45;&gt;Node10</title>
<path fill="none" stroke="midnightblue" d="M582.95,-280.37C552.11,-261.41 478.21,-216 440.69,-192.94"/>
<polygon fill="midnightblue" stroke="midnightblue" points="442.33,-189.85 431.98,-187.59 438.67,-195.81 442.33,-189.85"/>
</g>
<!-- Node16 -->
<g id="node16" class="node">
<title>Node16</title>
<g id="a_node16"><a xlink:href="../../d0/d96/body__type_8h.html" target="_top" xlink:title=" ">
<polygon fill="white" stroke="black" points="556,-168.5 556,-187.5 624,-187.5 624,-168.5 556,-168.5"/>
<text text-anchor="middle" x="590" y="-175.5" font-family="Helvetica,sans-Serif" font-size="10.00">body_type.h</text>
</a>
</g>
</g>
<!-- Node15&#45;&gt;Node16 -->
<g id="edge26" class="edge">
<title>Node15&#45;&gt;Node16</title>
<path fill="none" stroke="midnightblue" d="M596.45,-280.37C595.32,-262.62 592.72,-221.67 591.18,-197.6"/>
<polygon fill="midnightblue" stroke="midnightblue" points="594.67,-197.35 590.55,-187.59 587.69,-197.79 594.67,-197.35"/>
</g>
<!-- Node17 -->
<g id="node17" class="node">
<title>Node17</title>
<g id="a_node17"><a xlink:href="../../d9/ded/body__return_8h.html" target="_top" xlink:title=" ">
<polygon fill="white" stroke="black" points="617,-224.5 617,-243.5 691,-243.5 691,-224.5 617,-224.5"/>
<text text-anchor="middle" x="654" y="-231.5" font-family="Helvetica,sans-Serif" font-size="10.00">body_return.h</text>
</a>
</g>
</g>
<!-- Node15&#45;&gt;Node17 -->
<g id="edge27" class="edge">
<title>Node15&#45;&gt;Node17</title>
<path fill="none" stroke="midnightblue" d="M606.16,-280.32C614.5,-272.42 627.03,-260.55 637.18,-250.94"/>
<polygon fill="midnightblue" stroke="midnightblue" points="639.82,-253.25 644.68,-243.83 635.01,-248.17 639.82,-253.25"/>
</g>
<!-- Node17&#45;&gt;Node6 -->
<g id="edge30" class="edge">
<title>Node17&#45;&gt;Node6</title>
<path fill="none" stroke="midnightblue" d="M666.21,-224.47C703.46,-197.5 810.03,-112.46 759,-56 731.49,-25.57 446.15,-14.71 347.41,-11.85"/>
<polygon fill="midnightblue" stroke="midnightblue" points="347.21,-8.35 337.11,-11.56 347.01,-15.34 347.21,-8.35"/>
</g>
<!-- Node17&#45;&gt;Node7 -->
<g id="edge29" class="edge">
<title>Node17&#45;&gt;Node7</title>
<path fill="none" stroke="midnightblue" d="M653.06,-224.12C651.26,-210.72 646.22,-185.06 633,-168 622.37,-154.28 606.29,-143.59 592.12,-136.08"/>
<polygon fill="midnightblue" stroke="midnightblue" points="593.67,-132.95 583.16,-131.61 590.54,-139.21 593.67,-132.95"/>
</g>
<!-- Node17&#45;&gt;Node16 -->
<g id="edge28" class="edge">
<title>Node17&#45;&gt;Node16</title>
<path fill="none" stroke="midnightblue" d="M643.72,-224.32C634.16,-216.26 619.72,-204.08 608.22,-194.37"/>
<polygon fill="midnightblue" stroke="midnightblue" points="610.37,-191.61 600.47,-187.83 605.86,-196.96 610.37,-191.61"/>
</g>
<!-- Node18&#45;&gt;Node3 -->
<g id="edge42" class="edge">
<title>Node18&#45;&gt;Node3</title>
<path fill="none" stroke="midnightblue" d="M211.67,-280.32C229.39,-271.62 256.9,-258.12 277.29,-248.11"/>
<polygon fill="midnightblue" stroke="midnightblue" points="278.94,-251.2 286.37,-243.65 275.85,-244.92 278.94,-251.2"/>
</g>
<!-- Node18&#45;&gt;Node6 -->
<g id="edge44" class="edge">
<title>Node18&#45;&gt;Node6</title>
<path fill="none" stroke="midnightblue" d="M183.21,-280.46C153.7,-255.99 75.17,-182.87 95,-112 102.85,-83.96 105.5,-73.2 129,-56 174.32,-22.82 240.98,-13.86 280.69,-11.59"/>
<polygon fill="midnightblue" stroke="midnightblue" points="281.07,-15.08 290.89,-11.12 280.74,-8.08 281.07,-15.08"/>
</g>
<!-- Node18&#45;&gt;Node11 -->
<g id="edge43" class="edge">
<title>Node18&#45;&gt;Node11</title>
<path fill="none" stroke="midnightblue" d="M200.64,-280.39C217.88,-258.59 266.37,-200.62 319,-168 342.63,-153.35 371.81,-142.12 395.12,-134.54"/>
<polygon fill="midnightblue" stroke="midnightblue" points="396.23,-137.86 404.72,-131.51 394.13,-131.18 396.23,-137.86"/>
</g>
<!-- Node19 -->
<g id="node19" class="node">
<title>Node19</title>
<g id="a_node19"><a xlink:href="../../d7/d7d/context__condition_8h.html" target="_top" xlink:title=" ">
<polygon fill="white" stroke="black" points="104,-112.5 104,-131.5 204,-131.5 204,-112.5 104,-112.5"/>
<text text-anchor="middle" x="154" y="-119.5" font-family="Helvetica,sans-Serif" font-size="10.00">context_condition.h</text>
</a>
</g>
</g>
<!-- Node18&#45;&gt;Node19 -->
<g id="edge39" class="edge">
<title>Node18&#45;&gt;Node19</title>
<path fill="none" stroke="midnightblue" d="M191.08,-280.44C188.08,-271.44 183.36,-256.82 180,-244 170.58,-208.1 162.03,-165.56 157.47,-141.68"/>
<polygon fill="midnightblue" stroke="midnightblue" points="160.86,-140.75 155.57,-131.57 153.98,-142.05 160.86,-140.75"/>
</g>
<!-- Node19&#45;&gt;Node5 -->
<g id="edge40" class="edge">
<title>Node19&#45;&gt;Node5</title>
<path fill="none" stroke="midnightblue" d="M172.86,-112.44C192.27,-103.64 222.73,-89.81 244.96,-79.72"/>
<polygon fill="midnightblue" stroke="midnightblue" points="246.57,-82.84 254.23,-75.52 243.68,-76.46 246.57,-82.84"/>
</g>
<!-- Node19&#45;&gt;Node6 -->
<g id="edge41" class="edge">
<title>Node19&#45;&gt;Node6</title>
<path fill="none" stroke="midnightblue" d="M147.8,-112.48C138.89,-99.08 124.89,-72.89 138,-56 155.36,-33.64 234.92,-20.51 280.91,-14.66"/>
<polygon fill="midnightblue" stroke="midnightblue" points="281.5,-18.12 291,-13.43 280.65,-11.17 281.5,-18.12"/>
</g>
</g>
</svg>
