<?xml version="1.0" encoding="UTF-8" standalone="no"?>
<!DOCTYPE svg PUBLIC "-//W3C//DTD SVG 1.1//EN"
 "http://www.w3.org/Graphics/SVG/1.1/DTD/svg11.dtd">
<!-- Generated by graphviz version 2.46.1 (20210215.1649)
 -->
<!-- Title: plan_base.cpp Pages: 1 -->
<svg width="858pt" height="532pt"
 viewBox="0.00 0.00 858.00 532.00" xmlns="http://www.w3.org/2000/svg" xmlns:xlink="http://www.w3.org/1999/xlink">
<g id="graph0" class="graph" transform="scale(1 1) rotate(0) translate(4 528)">
<title>plan_base.cpp</title>
<polygon fill="white" stroke="transparent" points="-4,4 -4,-528 854,-528 854,4 -4,4"/>
<!-- Node1 -->
<g id="node1" class="node">
<title>Node1</title>
<g id="a_node1"><a xlink:title=" ">
<polygon fill="#bfbfbf" stroke="black" points="481.5,-504.5 481.5,-523.5 560.5,-523.5 560.5,-504.5 481.5,-504.5"/>
<text text-anchor="middle" x="521" y="-511.5" font-family="Helvetica,sans-Serif" font-size="10.00">plan_base.cpp</text>
</a>
</g>
</g>
<!-- Node2 -->
<g id="node2" class="node">
<title>Node2</title>
<g id="a_node2"><a xlink:href="../../de/d75/plan__base_8h.html" target="_top" xlink:title=" ">
<polygon fill="white" stroke="black" points="487,-448.5 487,-467.5 555,-467.5 555,-448.5 487,-448.5"/>
<text text-anchor="middle" x="521" y="-455.5" font-family="Helvetica,sans-Serif" font-size="10.00">plan_base.h</text>
</a>
</g>
</g>
<!-- Node1&#45;&gt;Node2 -->
<g id="edge1" class="edge">
<title>Node1&#45;&gt;Node2</title>
<path fill="none" stroke="midnightblue" d="M521,-504.08C521,-497.01 521,-486.86 521,-477.99"/>
<polygon fill="midnightblue" stroke="midnightblue" points="524.5,-477.75 521,-467.75 517.5,-477.75 524.5,-477.75"/>
</g>
<!-- Node3 -->
<g id="node3" class="node">
<title>Node3</title>
<g id="a_node3"><a xlink:href="../../d2/d2f/belief__base_8h.html" target="_top" xlink:title=" ">
<polygon fill="white" stroke="black" points="267,-224.5 267,-243.5 341,-243.5 341,-224.5 267,-224.5"/>
<text text-anchor="middle" x="304" y="-231.5" font-family="Helvetica,sans-Serif" font-size="10.00">belief_base.h</text>
</a>
</g>
</g>
<!-- Node2&#45;&gt;Node3 -->
<g id="edge2" class="edge">
<title>Node2&#45;&gt;Node3</title>
<path fill="none" stroke="midnightblue" d="M507.14,-448.41C481.75,-432.28 426.81,-395.5 388,-356 366.38,-334 364.63,-325.31 347,-300 335.8,-283.92 323.51,-265.22 314.95,-252.03"/>
<polygon fill="midnightblue" stroke="midnightblue" points="317.81,-250 309.44,-243.5 311.93,-253.8 317.81,-250"/>
</g>
<!-- Node6 -->
<g id="node6" class="node">
<title>Node6</title>
<g id="a_node6"><a xlink:title=" ">
<polygon fill="white" stroke="#bfbfbf" points="288,-0.5 288,-19.5 334,-19.5 334,-0.5 288,-0.5"/>
<text text-anchor="middle" x="311" y="-7.5" font-family="Helvetica,sans-Serif" font-size="10.00">cstdint</text>
</a>
</g>
</g>
<!-- Node2&#45;&gt;Node6 -->
<g id="edge47" class="edge">
<title>Node2&#45;&gt;Node6</title>
<path fill="none" stroke="midnightblue" d="M555.3,-455.51C603.54,-452.35 693.32,-442.51 763,-412 807.21,-392.64 850,-395.27 850,-347 850,-347 850,-347 850,-121 850,-83.16 828.56,-73.5 795,-56 716.29,-14.96 440.12,-10.98 344.16,-10.87"/>
<polygon fill="midnightblue" stroke="midnightblue" points="344.14,-7.37 334.14,-10.87 344.14,-14.37 344.14,-7.37"/>
</g>
<!-- Node7 -->
<g id="node7" class="node">
<title>Node7</title>
<g id="a_node7"><a xlink:href="../../dd/d20/event_8h.html" target="_top" xlink:title=" ">
<polygon fill="white" stroke="black" points="534,-112.5 534,-131.5 582,-131.5 582,-112.5 534,-112.5"/>
<text text-anchor="middle" x="558" y="-119.5" font-family="Helvetica,sans-Serif" font-size="10.00">event.h</text>
</a>
</g>
</g>
<!-- Node2&#45;&gt;Node7 -->
<g id="edge21" class="edge">
<title>Node2&#45;&gt;Node7</title>
<path fill="none" stroke="midnightblue" d="M555.12,-457.2C624.18,-455.63 774,-441.35 774,-347 774,-347 774,-347 774,-233 774,-152.61 653.72,-130.94 592.68,-125.13"/>
<polygon fill="midnightblue" stroke="midnightblue" points="592.62,-121.61 582.36,-124.24 592.02,-128.58 592.62,-121.61"/>
</g>
<!-- Node11 -->
<g id="node11" class="node">
<title>Node11</title>
<g id="a_node11"><a xlink:href="../../d0/d81/vector__queue_8h.html" target="_top" xlink:title=" ">
<polygon fill="white" stroke="black" points="380.5,-112.5 380.5,-131.5 483.5,-131.5 483.5,-112.5 380.5,-112.5"/>
<text text-anchor="middle" x="432" y="-119.5" font-family="Helvetica,sans-Serif" font-size="10.00">../lib/vector_queue.h</text>
</a>
</g>
</g>
<!-- Node2&#45;&gt;Node11 -->
<g id="edge46" class="edge">
<title>Node2&#45;&gt;Node11</title>
<path fill="none" stroke="midnightblue" d="M521,-448.44C521,-429.94 521,-384.81 521,-347 521,-347 521,-347 521,-233 521,-190.85 481.01,-155.78 454.64,-137.24"/>
<polygon fill="midnightblue" stroke="midnightblue" points="456.54,-134.3 446.3,-131.6 452.62,-140.1 456.54,-134.3"/>
</g>
<!-- Node13 -->
<g id="node13" class="node">
<title>Node13</title>
<g id="a_node13"><a xlink:href="../../d9/d4e/plan_8h.html" target="_top" xlink:title=" ">
<polygon fill="white" stroke="black" points="185,-392.5 185,-411.5 265,-411.5 265,-392.5 185,-392.5"/>
<text text-anchor="middle" x="225" y="-399.5" font-family="Helvetica,sans-Serif" font-size="10.00">../syntax/plan.h</text>
</a>
</g>
</g>
<!-- Node2&#45;&gt;Node13 -->
<g id="edge22" class="edge">
<title>Node2&#45;&gt;Node13</title>
<path fill="none" stroke="midnightblue" d="M486.76,-450.75C434.68,-441.25 335.29,-423.12 275.09,-412.14"/>
<polygon fill="midnightblue" stroke="midnightblue" points="275.52,-408.66 265.05,-410.31 274.26,-415.54 275.52,-408.66"/>
</g>
<!-- Node4 -->
<g id="node4" class="node">
<title>Node4</title>
<g id="a_node4"><a xlink:href="../../da/db8/belief_8h.html" target="_top" xlink:title=" ">
<polygon fill="white" stroke="black" points="260.5,-112.5 260.5,-131.5 307.5,-131.5 307.5,-112.5 260.5,-112.5"/>
<text text-anchor="middle" x="284" y="-119.5" font-family="Helvetica,sans-Serif" font-size="10.00">belief.h</text>
</a>
</g>
</g>
<!-- Node3&#45;&gt;Node4 -->
<g id="edge3" class="edge">
<title>Node3&#45;&gt;Node4</title>
<path fill="none" stroke="midnightblue" d="M302.43,-224.37C299.2,-206.62 291.76,-165.67 287.38,-141.6"/>
<polygon fill="midnightblue" stroke="midnightblue" points="290.79,-140.8 285.56,-131.59 283.91,-142.06 290.79,-140.8"/>
</g>
<!-- Node3&#45;&gt;Node6 -->
<g id="edge20" class="edge">
<title>Node3&#45;&gt;Node6</title>
<path fill="none" stroke="midnightblue" d="M296.13,-224.15C268.77,-192.92 180.6,-87.98 202,-56 218.81,-30.87 252.49,-19.76 277.99,-14.86"/>
<polygon fill="midnightblue" stroke="midnightblue" points="278.72,-18.28 288,-13.16 277.55,-11.38 278.72,-18.28"/>
</g>
<!-- Node3&#45;&gt;Node7 -->
<g id="edge7" class="edge">
<title>Node3&#45;&gt;Node7</title>
<path fill="none" stroke="midnightblue" d="M310.49,-224.35C321.53,-210.28 345.34,-182.57 372,-168 397.95,-153.82 477.77,-137.6 523.97,-129.03"/>
<polygon fill="midnightblue" stroke="midnightblue" points="524.64,-132.47 533.84,-127.23 523.38,-125.58 524.64,-132.47"/>
</g>
<!-- Node10 -->
<g id="node10" class="node">
<title>Node10</title>
<g id="a_node10"><a xlink:href="../../d7/dc4/event__base_8h.html" target="_top" xlink:title=" ">
<polygon fill="white" stroke="black" points="381,-168.5 381,-187.5 455,-187.5 455,-168.5 381,-168.5"/>
<text text-anchor="middle" x="418" y="-175.5" font-family="Helvetica,sans-Serif" font-size="10.00">event_base.h</text>
</a>
</g>
</g>
<!-- Node3&#45;&gt;Node10 -->
<g id="edge13" class="edge">
<title>Node3&#45;&gt;Node10</title>
<path fill="none" stroke="midnightblue" d="M322.06,-224.44C340.57,-215.68 369.58,-201.94 390.86,-191.86"/>
<polygon fill="midnightblue" stroke="midnightblue" points="392.48,-194.96 400.02,-187.52 389.49,-188.63 392.48,-194.96"/>
</g>
<!-- Node3&#45;&gt;Node11 -->
<g id="edge19" class="edge">
<title>Node3&#45;&gt;Node11</title>
<path fill="none" stroke="midnightblue" d="M306.71,-224.34C311.34,-210.75 321.97,-184.31 339,-168 354.37,-153.28 375.48,-142.53 393.7,-135.25"/>
<polygon fill="midnightblue" stroke="midnightblue" points="395.08,-138.46 403.19,-131.65 392.6,-131.92 395.08,-138.46"/>
</g>
<!-- Node5 -->
<g id="node5" class="node">
<title>Node5</title>
<g id="a_node5"><a xlink:href="../../de/d93/statement_8h.html" target="_top" xlink:title=" ">
<polygon fill="white" stroke="black" points="218,-56.5 218,-75.5 324,-75.5 324,-56.5 218,-56.5"/>
<text text-anchor="middle" x="271" y="-63.5" font-family="Helvetica,sans-Serif" font-size="10.00">../syntax/statement.h</text>
</a>
</g>
</g>
<!-- Node4&#45;&gt;Node5 -->
<g id="edge4" class="edge">
<title>Node4&#45;&gt;Node5</title>
<path fill="none" stroke="midnightblue" d="M281.85,-112.08C280.13,-104.93 277.65,-94.64 275.5,-85.69"/>
<polygon fill="midnightblue" stroke="midnightblue" points="278.85,-84.65 273.11,-75.75 272.04,-86.29 278.85,-84.65"/>
</g>
<!-- Node4&#45;&gt;Node6 -->
<g id="edge6" class="edge">
<title>Node4&#45;&gt;Node6</title>
<path fill="none" stroke="midnightblue" d="M260.33,-112.81C232.7,-101.88 192.72,-80.97 209,-56 224.1,-32.84 254.11,-21.51 277.69,-16.03"/>
<polygon fill="midnightblue" stroke="midnightblue" points="278.58,-19.41 287.66,-13.95 277.16,-12.56 278.58,-19.41"/>
</g>
<!-- Node5&#45;&gt;Node6 -->
<g id="edge5" class="edge">
<title>Node5&#45;&gt;Node6</title>
<path fill="none" stroke="midnightblue" d="M277.61,-56.08C283.26,-48.46 291.54,-37.26 298.45,-27.94"/>
<polygon fill="midnightblue" stroke="midnightblue" points="301.38,-29.87 304.52,-19.75 295.75,-25.7 301.38,-29.87"/>
</g>
<!-- Node7&#45;&gt;Node5 -->
<g id="edge8" class="edge">
<title>Node7&#45;&gt;Node5</title>
<path fill="none" stroke="midnightblue" d="M533.53,-116.4C487.95,-107.82 388.99,-89.2 326.44,-77.43"/>
<polygon fill="midnightblue" stroke="midnightblue" points="326.82,-73.94 316.34,-75.53 325.52,-80.82 326.82,-73.94"/>
</g>
<!-- Node7&#45;&gt;Node6 -->
<g id="edge12" class="edge">
<title>Node7&#45;&gt;Node6</title>
<path fill="none" stroke="midnightblue" d="M563.74,-112.31C571.95,-98.69 584.64,-72.2 571,-56 542.41,-22.04 408.12,-13.71 344.54,-11.66"/>
<polygon fill="midnightblue" stroke="midnightblue" points="344.34,-8.16 334.24,-11.37 344.14,-15.15 344.34,-8.16"/>
</g>
<!-- Node8 -->
<g id="node8" class="node">
<title>Node8</title>
<g id="a_node8"><a xlink:href="../../db/d50/event__operator_8h.html" target="_top" xlink:title=" ">
<polygon fill="white" stroke="black" points="618.5,-56.5 618.5,-75.5 745.5,-75.5 745.5,-56.5 618.5,-56.5"/>
<text text-anchor="middle" x="682" y="-63.5" font-family="Helvetica,sans-Serif" font-size="10.00">../syntax/event_operator.h</text>
</a>
</g>
</g>
<!-- Node7&#45;&gt;Node8 -->
<g id="edge9" class="edge">
<title>Node7&#45;&gt;Node8</title>
<path fill="none" stroke="midnightblue" d="M577.65,-112.44C597.96,-103.6 629.9,-89.69 653.1,-79.59"/>
<polygon fill="midnightblue" stroke="midnightblue" points="654.67,-82.72 662.44,-75.52 651.88,-76.3 654.67,-82.72"/>
</g>
<!-- Node9 -->
<g id="node9" class="node">
<title>Node9</title>
<g id="a_node9"><a xlink:href="../../df/dc3/event__id_8h.html" target="_top" xlink:title=" ">
<polygon fill="white" stroke="black" points="480.5,-56.5 480.5,-75.5 561.5,-75.5 561.5,-56.5 480.5,-56.5"/>
<text text-anchor="middle" x="521" y="-63.5" font-family="Helvetica,sans-Serif" font-size="10.00">../lib/event_id.h</text>
</a>
</g>
</g>
<!-- Node7&#45;&gt;Node9 -->
<g id="edge10" class="edge">
<title>Node7&#45;&gt;Node9</title>
<path fill="none" stroke="midnightblue" d="M551.89,-112.08C546.72,-104.53 539.15,-93.49 532.81,-84.23"/>
<polygon fill="midnightblue" stroke="midnightblue" points="535.54,-82.02 527,-75.75 529.76,-85.98 535.54,-82.02"/>
</g>
<!-- Node9&#45;&gt;Node6 -->
<g id="edge11" class="edge">
<title>Node9&#45;&gt;Node6</title>
<path fill="none" stroke="midnightblue" d="M487.72,-56.44C448.34,-46.32 383.16,-29.55 343.92,-19.47"/>
<polygon fill="midnightblue" stroke="midnightblue" points="344.62,-16.03 334.06,-16.93 342.88,-22.81 344.62,-16.03"/>
</g>
<!-- Node10&#45;&gt;Node6 -->
<g id="edge18" class="edge">
<title>Node10&#45;&gt;Node6</title>
<path fill="none" stroke="midnightblue" d="M407.14,-168.2C397.12,-159.7 382.29,-146.07 372,-132 368.66,-127.44 335.95,-61.52 319.86,-28.95"/>
<polygon fill="midnightblue" stroke="midnightblue" points="322.84,-27.08 315.27,-19.67 316.56,-30.18 322.84,-27.08"/>
</g>
<!-- Node10&#45;&gt;Node7 -->
<g id="edge14" class="edge">
<title>Node10&#45;&gt;Node7</title>
<path fill="none" stroke="midnightblue" d="M440.18,-168.44C463.43,-159.48 500.15,-145.31 526.42,-135.18"/>
<polygon fill="midnightblue" stroke="midnightblue" points="527.85,-138.38 535.92,-131.52 525.33,-131.85 527.85,-138.38"/>
</g>
<!-- Node10&#45;&gt;Node11 -->
<g id="edge15" class="edge">
<title>Node10&#45;&gt;Node11</title>
<path fill="none" stroke="midnightblue" d="M420.31,-168.08C422.17,-160.93 424.84,-150.64 427.15,-141.69"/>
<polygon fill="midnightblue" stroke="midnightblue" points="430.61,-142.31 429.73,-131.75 423.83,-140.55 430.61,-142.31"/>
</g>
<!-- Node11&#45;&gt;Node6 -->
<g id="edge17" class="edge">
<title>Node11&#45;&gt;Node6</title>
<path fill="none" stroke="midnightblue" d="M423.7,-112.33C411.42,-99.62 387.54,-75.34 366,-56 354.41,-45.59 340.88,-34.51 330.13,-25.94"/>
<polygon fill="midnightblue" stroke="midnightblue" points="332.22,-23.13 322.21,-19.67 327.88,-28.62 332.22,-23.13"/>
</g>
<!-- Node12 -->
<g id="node12" class="node">
<title>Node12</title>
<g id="a_node12"><a xlink:title=" ">
<polygon fill="white" stroke="#bfbfbf" points="418,-56.5 418,-75.5 462,-75.5 462,-56.5 418,-56.5"/>
<text text-anchor="middle" x="440" y="-63.5" font-family="Helvetica,sans-Serif" font-size="10.00">vector</text>
</a>
</g>
</g>
<!-- Node11&#45;&gt;Node12 -->
<g id="edge16" class="edge">
<title>Node11&#45;&gt;Node12</title>
<path fill="none" stroke="midnightblue" d="M433.32,-112.08C434.38,-104.93 435.91,-94.64 437.23,-85.69"/>
<polygon fill="midnightblue" stroke="midnightblue" points="440.7,-86.16 438.7,-75.75 433.78,-85.13 440.7,-86.16"/>
</g>
<!-- Node13&#45;&gt;Node6 -->
<g id="edge45" class="edge">
<title>Node13&#45;&gt;Node6</title>
<path fill="none" stroke="midnightblue" d="M184.77,-399.05C120.06,-393.53 0,-372.31 0,-291 0,-291 0,-291 0,-121 0,-62.56 197.66,-27.39 277.82,-15.53"/>
<polygon fill="midnightblue" stroke="midnightblue" points="278.48,-18.97 287.88,-14.07 277.48,-12.04 278.48,-18.97"/>
</g>
<!-- Node13&#45;&gt;Node10 -->
<g id="edge23" class="edge">
<title>Node13&#45;&gt;Node10</title>
<path fill="none" stroke="midnightblue" d="M232.57,-392.3C261.44,-359.08 365.04,-239.92 403.5,-195.68"/>
<polygon fill="midnightblue" stroke="midnightblue" points="406.36,-197.73 410.28,-187.88 401.07,-193.13 406.36,-197.73"/>
</g>
<!-- Node14 -->
<g id="node14" class="node">
<title>Node14</title>
<g id="a_node14"><a xlink:href="../../d0/d77/body_8h.html" target="_top" xlink:title=" ">
<polygon fill="white" stroke="black" points="397,-336.5 397,-355.5 441,-355.5 441,-336.5 397,-336.5"/>
<text text-anchor="middle" x="419" y="-343.5" font-family="Helvetica,sans-Serif" font-size="10.00">body.h</text>
</a>
</g>
</g>
<!-- Node13&#45;&gt;Node14 -->
<g id="edge24" class="edge">
<title>Node13&#45;&gt;Node14</title>
<path fill="none" stroke="midnightblue" d="M255.74,-392.44C291.53,-382.48 350.36,-366.11 386.77,-355.97"/>
<polygon fill="midnightblue" stroke="midnightblue" points="388.16,-359.22 396.85,-353.16 386.28,-352.47 388.16,-359.22"/>
</g>
<!-- Node18 -->
<g id="node18" class="node">
<title>Node18</title>
<g id="a_node18"><a xlink:href="../../dc/d1e/context_8h.html" target="_top" xlink:title=" ">
<polygon fill="white" stroke="black" points="166,-280.5 166,-299.5 222,-299.5 222,-280.5 166,-280.5"/>
<text text-anchor="middle" x="194" y="-287.5" font-family="Helvetica,sans-Serif" font-size="10.00">context.h</text>
</a>
</g>
</g>
<!-- Node13&#45;&gt;Node18 -->
<g id="edge38" class="edge">
<title>Node13&#45;&gt;Node18</title>
<path fill="none" stroke="midnightblue" d="M222.57,-392.37C217.54,-374.54 205.92,-333.3 199.15,-309.27"/>
<polygon fill="midnightblue" stroke="midnightblue" points="202.5,-308.27 196.42,-299.59 195.77,-310.17 202.5,-308.27"/>
</g>
<!-- Node14&#45;&gt;Node3 -->
<g id="edge34" class="edge">
<title>Node14&#45;&gt;Node3</title>
<path fill="none" stroke="midnightblue" d="M409.98,-336.37C390.66,-317.89 345.08,-274.29 320.46,-250.74"/>
<polygon fill="midnightblue" stroke="midnightblue" points="322.63,-247.97 312.98,-243.59 317.79,-253.03 322.63,-247.97"/>
</g>
<!-- Node14&#45;&gt;Node6 -->
<g id="edge37" class="edge">
<title>Node14&#45;&gt;Node6</title>
<path fill="none" stroke="midnightblue" d="M396.88,-344.88C350.36,-343.86 239.9,-337.34 157,-300 114.91,-281.05 76,-281.16 76,-235 76,-235 76,-235 76,-121 76,-33.1 212.54,-15.29 277.47,-11.79"/>
<polygon fill="midnightblue" stroke="midnightblue" points="277.78,-15.28 287.61,-11.33 277.46,-8.29 277.78,-15.28"/>
</g>
<!-- Node14&#45;&gt;Node10 -->
<g id="edge35" class="edge">
<title>Node14&#45;&gt;Node10</title>
<path fill="none" stroke="midnightblue" d="M418.95,-336.08C418.79,-309.95 418.33,-233.21 418.11,-197.58"/>
<polygon fill="midnightblue" stroke="midnightblue" points="421.61,-197.55 418.05,-187.57 414.61,-197.59 421.61,-197.55"/>
</g>
<!-- Node14&#45;&gt;Node11 -->
<g id="edge36" class="edge">
<title>Node14&#45;&gt;Node11</title>
<path fill="none" stroke="midnightblue" d="M422.42,-336.33C431.46,-312.9 455.86,-246.13 464,-188 465.23,-179.2 466.7,-176.47 464,-168 460.66,-157.54 453.9,-147.43 447.45,-139.45"/>
<polygon fill="midnightblue" stroke="midnightblue" points="449.94,-136.98 440.75,-131.71 444.65,-141.56 449.94,-136.98"/>
</g>
<!-- Node15 -->
<g id="node15" class="node">
<title>Node15</title>
<g id="a_node15"><a xlink:href="../../d8/d67/body__instruction_8h.html" target="_top" xlink:title=" ">
<polygon fill="white" stroke="black" points="549.5,-280.5 549.5,-299.5 644.5,-299.5 644.5,-280.5 549.5,-280.5"/>
<text text-anchor="middle" x="597" y="-287.5" font-family="Helvetica,sans-Serif" font-size="10.00">body_instruction.h</text>
</a>
</g>
</g>
<!-- Node14&#45;&gt;Node15 -->
<g id="edge25" class="edge">
<title>Node14&#45;&gt;Node15</title>
<path fill="none" stroke="midnightblue" d="M441.18,-338.27C470.74,-329.3 523.48,-313.3 559.33,-302.43"/>
<polygon fill="midnightblue" stroke="midnightblue" points="560.41,-305.76 568.96,-299.51 558.37,-299.06 560.41,-305.76"/>
</g>
<!-- Node15&#45;&gt;Node3 -->
<g id="edge31" class="edge">
<title>Node15&#45;&gt;Node3</title>
<path fill="none" stroke="midnightblue" d="M550.57,-280.44C496.15,-270.41 406.44,-253.88 351.54,-243.76"/>
<polygon fill="midnightblue" stroke="midnightblue" points="351.85,-240.26 341.38,-241.89 350.58,-247.14 351.85,-240.26"/>
</g>
<!-- Node15&#45;&gt;Node6 -->
<g id="edge33" class="edge">
<title>Node15&#45;&gt;Node6</title>
<path fill="none" stroke="midnightblue" d="M628.4,-280.49C650.25,-273.4 679.09,-261.59 700,-244 768.71,-186.19 834.35,-122.5 774,-56 745.2,-24.26 445.84,-14.22 344.4,-11.71"/>
<polygon fill="midnightblue" stroke="midnightblue" points="344.2,-8.21 334.12,-11.47 344.04,-15.21 344.2,-8.21"/>
</g>
<!-- Node15&#45;&gt;Node10 -->
<g id="edge32" class="edge">
<title>Node15&#45;&gt;Node10</title>
<path fill="none" stroke="midnightblue" d="M582.95,-280.37C552.11,-261.41 478.21,-216 440.69,-192.94"/>
<polygon fill="midnightblue" stroke="midnightblue" points="442.33,-189.85 431.98,-187.59 438.67,-195.81 442.33,-189.85"/>
</g>
<!-- Node16 -->
<g id="node16" class="node">
<title>Node16</title>
<g id="a_node16"><a xlink:href="../../d0/d96/body__type_8h.html" target="_top" xlink:title=" ">
<polygon fill="white" stroke="black" points="556,-168.5 556,-187.5 624,-187.5 624,-168.5 556,-168.5"/>
<text text-anchor="middle" x="590" y="-175.5" font-family="Helvetica,sans-Serif" font-size="10.00">body_type.h</text>
</a>
</g>
</g>
<!-- Node15&#45;&gt;Node16 -->
<g id="edge26" class="edge">
<title>Node15&#45;&gt;Node16</title>
<path fill="none" stroke="midnightblue" d="M596.45,-280.37C595.32,-262.62 592.72,-221.67 591.18,-197.6"/>
<polygon fill="midnightblue" stroke="midnightblue" points="594.67,-197.35 590.55,-187.59 587.69,-197.79 594.67,-197.35"/>
</g>
<!-- Node17 -->
<g id="node17" class="node">
<title>Node17</title>
<g id="a_node17"><a xlink:href="../../d9/ded/body__return_8h.html" target="_top" xlink:title=" ">
<polygon fill="white" stroke="black" points="617,-224.5 617,-243.5 691,-243.5 691,-224.5 617,-224.5"/>
<text text-anchor="middle" x="654" y="-231.5" font-family="Helvetica,sans-Serif" font-size="10.00">body_return.h</text>
</a>
</g>
</g>
<!-- Node15&#45;&gt;Node17 -->
<g id="edge27" class="edge">
<title>Node15&#45;&gt;Node17</title>
<path fill="none" stroke="midnightblue" d="M606.16,-280.32C614.5,-272.42 627.03,-260.55 637.18,-250.94"/>
<polygon fill="midnightblue" stroke="midnightblue" points="639.82,-253.25 644.68,-243.83 635.01,-248.17 639.82,-253.25"/>
</g>
<!-- Node17&#45;&gt;Node6 -->
<g id="edge30" class="edge">
<title>Node17&#45;&gt;Node6</title>
<path fill="none" stroke="midnightblue" d="M665.87,-224.43C702.05,-197.31 805.53,-111.91 755,-56 727.55,-25.63 442.86,-14.74 344.33,-11.86"/>
<polygon fill="midnightblue" stroke="midnightblue" points="344.16,-8.35 334.06,-11.57 343.96,-15.35 344.16,-8.35"/>
</g>
<!-- Node17&#45;&gt;Node7 -->
<g id="edge29" class="edge">
<title>Node17&#45;&gt;Node7</title>
<path fill="none" stroke="midnightblue" d="M653.12,-224.08C651.38,-210.62 646.43,-184.9 633,-168 621.92,-154.05 605.25,-143.44 590.43,-136.03"/>
<polygon fill="midnightblue" stroke="midnightblue" points="591.58,-132.71 581.04,-131.63 588.61,-139.04 591.58,-132.71"/>
</g>
<!-- Node17&#45;&gt;Node16 -->
<g id="edge28" class="edge">
<title>Node17&#45;&gt;Node16</title>
<path fill="none" stroke="midnightblue" d="M643.72,-224.32C634.16,-216.26 619.72,-204.08 608.22,-194.37"/>
<polygon fill="midnightblue" stroke="midnightblue" points="610.37,-191.61 600.47,-187.83 605.86,-196.96 610.37,-191.61"/>
</g>
<!-- Node18&#45;&gt;Node3 -->
<g id="edge42" class="edge">
<title>Node18&#45;&gt;Node3</title>
<path fill="none" stroke="midnightblue" d="M211.67,-280.32C229.39,-271.62 256.9,-258.12 277.29,-248.11"/>
<polygon fill="midnightblue" stroke="midnightblue" points="278.94,-251.2 286.37,-243.65 275.85,-244.92 278.94,-251.2"/>
</g>
<!-- Node18&#45;&gt;Node6 -->
<g id="edge44" class="edge">
<title>Node18&#45;&gt;Node6</title>
<path fill="none" stroke="midnightblue" d="M183.21,-280.46C153.7,-255.99 75.17,-182.87 95,-112 102.85,-83.96 105.54,-73.24 129,-56 173.45,-23.34 238.8,-14.2 277.91,-11.75"/>
<polygon fill="midnightblue" stroke="midnightblue" points="278.16,-15.24 287.96,-11.24 277.8,-8.25 278.16,-15.24"/>
</g>
<!-- Node18&#45;&gt;Node11 -->
<g id="edge43" class="edge">
<title>Node18&#45;&gt;Node11</title>
<path fill="none" stroke="midnightblue" d="M200.73,-280.43C218.19,-258.71 267.27,-200.94 320,-168 342.76,-153.78 370.77,-142.53 393.09,-134.83"/>
<polygon fill="midnightblue" stroke="midnightblue" points="394.22,-138.15 402.59,-131.65 391.99,-131.51 394.22,-138.15"/>
</g>
<!-- Node19 -->
<g id="node19" class="node">
<title>Node19</title>
<g id="a_node19"><a xlink:href="../../d7/d7d/context__condition_8h.html" target="_top" xlink:title=" ">
<polygon fill="white" stroke="black" points="104,-112.5 104,-131.5 204,-131.5 204,-112.5 104,-112.5"/>
<text text-anchor="middle" x="154" y="-119.5" font-family="Helvetica,sans-Serif" font-size="10.00">context_condition.h</text>
</a>
</g>
</g>
<!-- Node18&#45;&gt;Node19 -->
<g id="edge39" class="edge">
<title>Node18&#45;&gt;Node19</title>
<path fill="none" stroke="midnightblue" d="M191.08,-280.44C188.08,-271.44 183.36,-256.82 180,-244 170.58,-208.1 162.03,-165.56 157.47,-141.68"/>
<polygon fill="midnightblue" stroke="midnightblue" points="160.86,-140.75 155.57,-131.57 153.98,-142.05 160.86,-140.75"/>
</g>
<!-- Node19&#45;&gt;Node5 -->
<g id="edge40" class="edge">
<title>Node19&#45;&gt;Node5</title>
<path fill="none" stroke="midnightblue" d="M172.54,-112.44C191.62,-103.64 221.57,-89.81 243.44,-79.72"/>
<polygon fill="midnightblue" stroke="midnightblue" points="244.93,-82.88 252.55,-75.52 242,-76.53 244.93,-82.88"/>
</g>
<!-- Node19&#45;&gt;Node6 -->
<g id="edge41" class="edge">
<title>Node19&#45;&gt;Node6</title>
<path fill="none" stroke="midnightblue" d="M147.81,-112.48C138.91,-99.09 124.92,-72.92 138,-56 154.95,-34.08 232.44,-20.84 277.76,-14.84"/>
<polygon fill="midnightblue" stroke="midnightblue" points="278.24,-18.31 287.72,-13.57 277.36,-11.36 278.24,-18.31"/>
</g>
</g>
</svg>
