<?xml version="1.0" encoding="UTF-8" standalone="no"?>
<!DOCTYPE svg PUBLIC "-//W3C//DTD SVG 1.1//EN"
 "http://www.w3.org/Graphics/SVG/1.1/DTD/svg11.dtd">
<!-- Generated by graphviz version 5.0.0 (20220708.1001)
 -->
<!-- Title: proposition.h Pages: 1 -->
<!--zoomable 644 -->
<svg id="main" version="1.1" xmlns="http://www.w3.org/2000/svg" xmlns:xlink="http://www.w3.org/1999/xlink" xml:space="preserve" onload="init(evt)">
<style type="text/css"><![CDATA[
.edge:hover path { stroke: red; }
.edge:hover polygon { stroke: red; fill: red; }
]]></style>
<script type="text/javascript"><![CDATA[
var edges = document.getElementsByTagName('g');
if (edges && edges.length) {
  for (var i=0;i<edges.length;i++) {
    if (edges[i].id.substr(0,4)=='edge') {
      edges[i].setAttribute('class','edge');
    }
  }
}
]]></script>
        <defs>
                <circle id="rim" cx="0" cy="0" r="7"/>
                <circle id="rim2" cx="0" cy="0" r="3.5"/>
                <g id="zoomPlus">
                        <use xlink:href="#rim" fill="#404040">
                                <set attributeName="fill" to="#808080" begin="zoomplus.mouseover" end="zoomplus.mouseout"/>
                        </use>
                        <path d="M-4,0h8M0,-4v8" fill="none" stroke="white" stroke-width="1.5" pointer-events="none"/>
                </g>
                <g id="zoomMin">
                        <use xlink:href="#rim" fill="#404040">
                                <set attributeName="fill" to="#808080" begin="zoomminus.mouseover" end="zoomminus.mouseout"/>
                        </use>
                        <path d="M-4,0h8" fill="none" stroke="white" stroke-width="1.5" pointer-events="none"/>
                </g>
                <g id="dirArrow">
                        <path fill="none" stroke="white" stroke-width="1.5" d="M0,-3.0v7 M-2.5,-0.5L0,-3.0L2.5,-0.5"/>
                </g>
               <g id="resetDef">
                       <use xlink:href="#rim2" fill="#404040">
                               <set attributeName="fill" to="#808080" begin="reset.mouseover" end="reset.mouseout"/>
                       </use>
               </g>
        </defs>

<script type="text/javascript">
var viewWidth = 772;
var viewHeight = 644;
var sectionId = 'dynsection-1';
</script>
<script xlink:href="../../svgpan.js"/>
<svg id="graph" class="graph">
<g id="viewport">
<title>proposition.h</title>
<polygon fill="white" stroke="transparent" points="-4,4 -4,-640 767.5,-640 767.5,4 -4,4"/>
<!-- Node1 -->
<g id="node1" class="node">
<title>Node1</title>
<g id="a_node1"><a xlink:title=" ">
<polygon fill="#bfbfbf" stroke="black" points="407.5,-616.5 407.5,-635.5 478.5,-635.5 478.5,-616.5 407.5,-616.5"/>
<text text-anchor="middle" x="443" y="-623.5" font-family="Helvetica,sans-Serif" font-size="10.00">proposition.h</text>
</a>
</g>
</g>
<!-- Node2 -->
<g id="node2" class="node">
<title>Node2</title>
<g id="a_node2"><a xlink:href="../../da/db8/belief_8h.html" target="_top" xlink:title=" ">
<polygon fill="white" stroke="black" points="386.5,-560.5 386.5,-579.5 433.5,-579.5 433.5,-560.5 386.5,-560.5"/>
<text text-anchor="middle" x="410" y="-567.5" font-family="Helvetica,sans-Serif" font-size="10.00">belief.h</text>
</a>
</g>
</g>
<!-- Node1&#45;&gt;Node2 -->
<g id="edge1" class="edge">
<title>Node1&#45;&gt;Node2</title>
<path fill="none" stroke="midnightblue" d="M432.17,-607.27C426.53,-598.05 419.88,-587.17 415.35,-579.75"/>
<polygon fill="midnightblue" stroke="midnightblue" points="429.35,-609.38 437.55,-616.08 435.32,-605.73 429.35,-609.38"/>
</g>
<!-- Node25 -->
<g id="node25" class="node">
<title>Node25</title>
<g id="a_node25"><a xlink:href="../../d7/d7d/context__condition_8h.html" target="_top" xlink:title=" ">
<polygon fill="white" stroke="black" points="110,-560.5 110,-579.5 210,-579.5 210,-560.5 110,-560.5"/>
<text text-anchor="middle" x="160" y="-567.5" font-family="Helvetica,sans-Serif" font-size="10.00">context_condition.h</text>
</a>
</g>
</g>
<!-- Node1&#45;&gt;Node25 -->
<g id="edge33" class="edge">
<title>Node1&#45;&gt;Node25</title>
<path fill="none" stroke="midnightblue" d="M397.32,-616.28C344.36,-606.18 257.62,-589.63 204.97,-579.58"/>
<polygon fill="midnightblue" stroke="midnightblue" points="396.97,-619.78 407.44,-618.22 398.28,-612.9 396.97,-619.78"/>
</g>
<!-- Node27 -->
<g id="node27" class="node">
<title>Node27</title>
<g id="a_node27"><a xlink:href="../../dd/d20/event_8h.html" target="_top" xlink:title=" ">
<polygon fill="white" stroke="black" points="452,-560.5 452,-579.5 500,-579.5 500,-560.5 452,-560.5"/>
<text text-anchor="middle" x="476" y="-567.5" font-family="Helvetica,sans-Serif" font-size="10.00">event.h</text>
</a>
</g>
</g>
<!-- Node1&#45;&gt;Node27 -->
<g id="edge36" class="edge">
<title>Node1&#45;&gt;Node27</title>
<path fill="none" stroke="midnightblue" d="M453.83,-607.27C459.47,-598.05 466.12,-587.17 470.65,-579.75"/>
<polygon fill="midnightblue" stroke="midnightblue" points="450.68,-605.73 448.45,-616.08 456.65,-609.38 450.68,-605.73"/>
</g>
<!-- Node33 -->
<g id="node33" class="node">
<title>Node33</title>
<g id="a_node33"><a xlink:href="../../d1/d0a/proposition_8cpp.html" target="_top" xlink:title=" ">
<polygon fill="white" stroke="black" points="518,-560.5 518,-579.5 600,-579.5 600,-560.5 518,-560.5"/>
<text text-anchor="middle" x="559" y="-567.5" font-family="Helvetica,sans-Serif" font-size="10.00">proposition.cpp</text>
</a>
</g>
</g>
<!-- Node1&#45;&gt;Node33 -->
<g id="edge51" class="edge">
<title>Node1&#45;&gt;Node33</title>
<path fill="none" stroke="midnightblue" d="M470.72,-612.1C492.39,-602.01 521.9,-588.27 540.71,-579.52"/>
<polygon fill="midnightblue" stroke="midnightblue" points="468.97,-609.05 461.38,-616.44 471.92,-615.4 468.97,-609.05"/>
</g>
<!-- Node3 -->
<g id="node3" class="node">
<title>Node3</title>
<g id="a_node3"><a xlink:href="../../d7/d2f/belief_8cpp.html" target="_top" xlink:title=" ">
<polygon fill="white" stroke="black" points="233,-504.5 233,-523.5 291,-523.5 291,-504.5 233,-504.5"/>
<text text-anchor="middle" x="262" y="-511.5" font-family="Helvetica,sans-Serif" font-size="10.00">belief.cpp</text>
</a>
</g>
</g>
<!-- Node2&#45;&gt;Node3 -->
<g id="edge2" class="edge">
<title>Node2&#45;&gt;Node3</title>
<path fill="none" stroke="midnightblue" d="M376.85,-556.91C349.03,-546.75 309.98,-532.51 285.34,-523.52"/>
<polygon fill="midnightblue" stroke="midnightblue" points="375.96,-560.3 386.55,-560.44 378.35,-553.73 375.96,-560.3"/>
</g>
<!-- Node4 -->
<g id="node4" class="node">
<title>Node4</title>
<g id="a_node4"><a xlink:href="../../d2/d2f/belief__base_8h.html" target="_top" xlink:title=" ">
<polygon fill="white" stroke="black" points="374,-448.5 374,-467.5 448,-467.5 448,-448.5 374,-448.5"/>
<text text-anchor="middle" x="411" y="-455.5" font-family="Helvetica,sans-Serif" font-size="10.00">belief_base.h</text>
</a>
</g>
</g>
<!-- Node2&#45;&gt;Node4 -->
<g id="edge3" class="edge">
<title>Node2&#45;&gt;Node4</title>
<path fill="none" stroke="midnightblue" d="M410.17,-550.35C410.39,-526.25 410.76,-485.31 410.92,-467.59"/>
<polygon fill="midnightblue" stroke="midnightblue" points="406.67,-550.34 410.08,-560.37 413.67,-550.4 406.67,-550.34"/>
</g>
<!-- Node5 -->
<g id="node5" class="node">
<title>Node5</title>
<g id="a_node5"><a xlink:href="../../de/d9e/agent_8h.html" target="_top" xlink:title=" ">
<polygon fill="white" stroke="black" points="546,-56.5 546,-75.5 594,-75.5 594,-56.5 546,-56.5"/>
<text text-anchor="middle" x="570" y="-63.5" font-family="Helvetica,sans-Serif" font-size="10.00">agent.h</text>
</a>
</g>
</g>
<!-- Node4&#45;&gt;Node5 -->
<g id="edge4" class="edge">
<title>Node4&#45;&gt;Node5</title>
<path fill="none" stroke="midnightblue" d="M458.2,-453C489.89,-448.03 530.68,-436.9 558,-412 640.62,-336.7 644.03,-276.94 619,-168 610.58,-131.34 587,-92.55 575.91,-75.68"/>
<polygon fill="midnightblue" stroke="midnightblue" points="457.67,-449.54 448.26,-454.41 458.66,-456.47 457.67,-449.54"/>
</g>
<!-- Node8 -->
<g id="node8" class="node">
<title>Node8</title>
<g id="a_node8"><a xlink:href="../../de/d9b/belief__base_8cpp.html" target="_top" xlink:title=" ">
<polygon fill="white" stroke="black" points="412,-392.5 412,-411.5 496,-411.5 496,-392.5 412,-392.5"/>
<text text-anchor="middle" x="454" y="-399.5" font-family="Helvetica,sans-Serif" font-size="10.00">belief_base.cpp</text>
</a>
</g>
</g>
<!-- Node4&#45;&gt;Node8 -->
<g id="edge7" class="edge">
<title>Node4&#45;&gt;Node8</title>
<path fill="none" stroke="midnightblue" d="M424.42,-440.14C431.91,-430.74 440.94,-419.4 447.03,-411.75"/>
<polygon fill="midnightblue" stroke="midnightblue" points="421.59,-438.08 418.1,-448.08 427.07,-442.44 421.59,-438.08"/>
</g>
<!-- Node9 -->
<g id="node9" class="node">
<title>Node9</title>
<g id="a_node9"><a xlink:href="../../d0/d77/body_8h.html" target="_top" xlink:title=" ">
<polygon fill="white" stroke="black" points="312,-336.5 312,-355.5 356,-355.5 356,-336.5 312,-336.5"/>
<text text-anchor="middle" x="334" y="-343.5" font-family="Helvetica,sans-Serif" font-size="10.00">body.h</text>
</a>
</g>
</g>
<!-- Node4&#45;&gt;Node9 -->
<g id="edge8" class="edge">
<title>Node4&#45;&gt;Node9</title>
<path fill="none" stroke="midnightblue" d="M394.79,-441.06C386.82,-432.79 377.38,-422.28 370,-412 356.46,-393.13 344.17,-368.66 338.06,-355.8"/>
<polygon fill="midnightblue" stroke="midnightblue" points="392.34,-443.57 401.85,-448.23 397.33,-438.65 392.34,-443.57"/>
</g>
<!-- Node14 -->
<g id="node14" class="node">
<title>Node14</title>
<g id="a_node14"><a xlink:href="../../df/d3f/intention_8h.html" target="_top" xlink:title=" ">
<polygon fill="white" stroke="black" points="412.5,-168.5 412.5,-187.5 473.5,-187.5 473.5,-168.5 412.5,-168.5"/>
<text text-anchor="middle" x="443" y="-175.5" font-family="Helvetica,sans-Serif" font-size="10.00">intention.h</text>
</a>
</g>
</g>
<!-- Node4&#45;&gt;Node14 -->
<g id="edge30" class="edge">
<title>Node4&#45;&gt;Node14</title>
<path fill="none" stroke="midnightblue" d="M458.07,-446C475.94,-439.29 494.5,-428.66 505,-412 553.64,-334.79 474.48,-220.12 449.91,-187.77"/>
<polygon fill="midnightblue" stroke="midnightblue" points="456.6,-442.81 448.26,-449.34 458.86,-449.43 456.6,-442.81"/>
</g>
<!-- Node16 -->
<g id="node16" class="node">
<title>Node16</title>
<g id="a_node16"><a xlink:href="../../d8/d83/intention__base_8h.html" target="_top" xlink:title=" ">
<polygon fill="white" stroke="black" points="297.5,-112.5 297.5,-131.5 384.5,-131.5 384.5,-112.5 297.5,-112.5"/>
<text text-anchor="middle" x="341" y="-119.5" font-family="Helvetica,sans-Serif" font-size="10.00">intention_base.h</text>
</a>
</g>
</g>
<!-- Node4&#45;&gt;Node16 -->
<g id="edge31" class="edge">
<title>Node4&#45;&gt;Node16</title>
<path fill="none" stroke="midnightblue" d="M403.7,-438.86C395.7,-417.32 384,-380.14 384,-347 384,-347 384,-347 384,-233 384,-192.81 358.79,-149.68 346.98,-131.67"/>
<polygon fill="midnightblue" stroke="midnightblue" points="400.49,-440.27 407.36,-448.34 407.02,-437.75 400.49,-440.27"/>
</g>
<!-- Node19 -->
<g id="node19" class="node">
<title>Node19</title>
<g id="a_node19"><a xlink:href="../../de/d75/plan__base_8h.html" target="_top" xlink:title=" ">
<polygon fill="white" stroke="black" points="536,-224.5 536,-243.5 604,-243.5 604,-224.5 536,-224.5"/>
<text text-anchor="middle" x="570" y="-231.5" font-family="Helvetica,sans-Serif" font-size="10.00">plan_base.h</text>
</a>
</g>
</g>
<!-- Node4&#45;&gt;Node19 -->
<g id="edge32" class="edge">
<title>Node4&#45;&gt;Node19</title>
<path fill="none" stroke="midnightblue" d="M458.2,-451.96C485.47,-446.55 518.18,-435.31 538,-412 581.28,-361.09 574.56,-271.61 571.19,-243.62"/>
<polygon fill="midnightblue" stroke="midnightblue" points="457.29,-448.57 448.06,-453.77 458.52,-455.46 457.29,-448.57"/>
</g>
<!-- Node21 -->
<g id="node21" class="node">
<title>Node21</title>
<g id="a_node21"><a xlink:href="../../d8/d67/body__instruction_8h.html" target="_top" xlink:title=" ">
<polygon fill="white" stroke="black" points="184.5,-392.5 184.5,-411.5 279.5,-411.5 279.5,-392.5 184.5,-392.5"/>
<text text-anchor="middle" x="232" y="-399.5" font-family="Helvetica,sans-Serif" font-size="10.00">body_instruction.h</text>
</a>
</g>
</g>
<!-- Node4&#45;&gt;Node21 -->
<g id="edge24" class="edge">
<title>Node4&#45;&gt;Node21</title>
<path fill="none" stroke="midnightblue" d="M372.67,-445.44C338.92,-435.26 290.55,-420.66 260.23,-411.52"/>
<polygon fill="midnightblue" stroke="midnightblue" points="372.05,-448.91 382.64,-448.44 374.07,-442.2 372.05,-448.91"/>
</g>
<!-- Node23 -->
<g id="node23" class="node">
<title>Node23</title>
<g id="a_node23"><a xlink:href="../../dc/d1e/context_8h.html" target="_top" xlink:title=" ">
<polygon fill="white" stroke="black" points="88,-392.5 88,-411.5 144,-411.5 144,-392.5 88,-392.5"/>
<text text-anchor="middle" x="116" y="-399.5" font-family="Helvetica,sans-Serif" font-size="10.00">context.h</text>
</a>
</g>
</g>
<!-- Node4&#45;&gt;Node23 -->
<g id="edge27" class="edge">
<title>Node4&#45;&gt;Node23</title>
<path fill="none" stroke="midnightblue" d="M364.03,-448.4C302.12,-437.07 195.11,-417.48 144.32,-408.18"/>
<polygon fill="midnightblue" stroke="midnightblue" points="363.47,-451.86 373.94,-450.22 364.73,-444.97 363.47,-451.86"/>
</g>
<!-- Node6 -->
<g id="node6" class="node">
<title>Node6</title>
<g id="a_node6"><a xlink:href="../../dd/d3d/agent_8cpp.html" target="_top" xlink:title=" ">
<polygon fill="white" stroke="black" points="495.5,-0.5 495.5,-19.5 554.5,-19.5 554.5,-0.5 495.5,-0.5"/>
<text text-anchor="middle" x="525" y="-7.5" font-family="Helvetica,sans-Serif" font-size="10.00">agent.cpp</text>
</a>
</g>
</g>
<!-- Node5&#45;&gt;Node6 -->
<g id="edge5" class="edge">
<title>Node5&#45;&gt;Node6</title>
<path fill="none" stroke="midnightblue" d="M555.95,-48.14C548.11,-38.74 538.67,-27.4 532.29,-19.75"/>
<polygon fill="midnightblue" stroke="midnightblue" points="553.48,-50.64 562.57,-56.08 558.86,-46.16 553.48,-50.64"/>
</g>
<!-- Node7 -->
<g id="node7" class="node">
<title>Node7</title>
<g id="a_node7"><a xlink:href="../../d4/d91/agent__loop_8cpp.html" target="_top" xlink:title=" ">
<polygon fill="white" stroke="black" points="573,-0.5 573,-19.5 655,-19.5 655,-0.5 573,-0.5"/>
<text text-anchor="middle" x="614" y="-7.5" font-family="Helvetica,sans-Serif" font-size="10.00">agent_loop.cpp</text>
</a>
</g>
</g>
<!-- Node5&#45;&gt;Node7 -->
<g id="edge6" class="edge">
<title>Node5&#45;&gt;Node7</title>
<path fill="none" stroke="midnightblue" d="M583.73,-48.14C591.4,-38.74 600.63,-27.4 606.87,-19.75"/>
<polygon fill="midnightblue" stroke="midnightblue" points="580.87,-46.12 577.27,-56.08 586.3,-50.54 580.87,-46.12"/>
</g>
<!-- Node10 -->
<g id="node10" class="node">
<title>Node10</title>
<g id="a_node10"><a xlink:href="../../d1/d5f/body_8cpp.html" target="_top" xlink:title=" ">
<polygon fill="white" stroke="black" points="300.5,-280.5 300.5,-299.5 355.5,-299.5 355.5,-280.5 300.5,-280.5"/>
<text text-anchor="middle" x="328" y="-287.5" font-family="Helvetica,sans-Serif" font-size="10.00">body.cpp</text>
</a>
</g>
</g>
<!-- Node9&#45;&gt;Node10 -->
<g id="edge9" class="edge">
<title>Node9&#45;&gt;Node10</title>
<path fill="none" stroke="midnightblue" d="M331.9,-326.1C330.9,-317.14 329.76,-306.86 328.97,-299.75"/>
<polygon fill="midnightblue" stroke="midnightblue" points="328.43,-326.53 333.01,-336.08 335.38,-325.76 328.43,-326.53"/>
</g>
<!-- Node11 -->
<g id="node11" class="node">
<title>Node11</title>
<g id="a_node11"><a xlink:href="../../d9/d4e/plan_8h.html" target="_top" xlink:title=" ">
<polygon fill="white" stroke="black" points="193,-280.5 193,-299.5 235,-299.5 235,-280.5 193,-280.5"/>
<text text-anchor="middle" x="214" y="-287.5" font-family="Helvetica,sans-Serif" font-size="10.00">plan.h</text>
</a>
</g>
</g>
<!-- Node9&#45;&gt;Node11 -->
<g id="edge10" class="edge">
<title>Node9&#45;&gt;Node11</title>
<path fill="none" stroke="midnightblue" d="M305.63,-332.23C283.18,-322.13 252.46,-308.31 232.93,-299.52"/>
<polygon fill="midnightblue" stroke="midnightblue" points="304.43,-335.53 314.99,-336.44 307.3,-329.15 304.43,-335.53"/>
</g>
<!-- Node12 -->
<g id="node12" class="node">
<title>Node12</title>
<g id="a_node12"><a xlink:href="../../de/d3c/instantiated__plan_8h.html" target="_top" xlink:title=" ">
<polygon fill="white" stroke="black" points="258,-224.5 258,-243.5 356,-243.5 356,-224.5 258,-224.5"/>
<text text-anchor="middle" x="307" y="-231.5" font-family="Helvetica,sans-Serif" font-size="10.00">instantiated_plan.h</text>
</a>
</g>
</g>
<!-- Node11&#45;&gt;Node12 -->
<g id="edge11" class="edge">
<title>Node11&#45;&gt;Node12</title>
<path fill="none" stroke="midnightblue" d="M237.81,-275.18C254.92,-265.24 277.47,-252.15 292.1,-243.65"/>
<polygon fill="midnightblue" stroke="midnightblue" points="235.83,-272.28 228.94,-280.32 239.35,-278.33 235.83,-272.28"/>
</g>
<!-- Node11&#45;&gt;Node16 -->
<g id="edge18" class="edge">
<title>Node11&#45;&gt;Node16</title>
<path fill="none" stroke="midnightblue" d="M196.38,-273.19C184.22,-260.25 171.47,-241.33 179,-224 201.72,-171.72 267.04,-144.1 307.46,-131.6"/>
<polygon fill="midnightblue" stroke="midnightblue" points="194.12,-275.87 203.7,-280.4 199.04,-270.89 194.12,-275.87"/>
</g>
<!-- Node18 -->
<g id="node18" class="node">
<title>Node18</title>
<g id="a_node18"><a xlink:href="../../d7/df1/plan_8cpp.html" target="_top" xlink:title=" ">
<polygon fill="white" stroke="black" points="187.5,-224.5 187.5,-243.5 240.5,-243.5 240.5,-224.5 187.5,-224.5"/>
<text text-anchor="middle" x="214" y="-231.5" font-family="Helvetica,sans-Serif" font-size="10.00">plan.cpp</text>
</a>
</g>
</g>
<!-- Node11&#45;&gt;Node18 -->
<g id="edge19" class="edge">
<title>Node11&#45;&gt;Node18</title>
<path fill="none" stroke="midnightblue" d="M214,-269.8C214,-260.91 214,-250.78 214,-243.75"/>
<polygon fill="midnightblue" stroke="midnightblue" points="210.5,-270.08 214,-280.08 217.5,-270.08 210.5,-270.08"/>
</g>
<!-- Node11&#45;&gt;Node19 -->
<g id="edge20" class="edge">
<title>Node11&#45;&gt;Node19</title>
<path fill="none" stroke="midnightblue" d="M245.49,-284.22C312.14,-274.11 467.02,-250.62 535.91,-240.17"/>
<polygon fill="midnightblue" stroke="midnightblue" points="244.57,-280.82 235.2,-285.78 245.62,-287.74 244.57,-280.82"/>
</g>
<!-- Node13 -->
<g id="node13" class="node">
<title>Node13</title>
<g id="a_node13"><a xlink:href="../../df/dbd/instantiated__plan_8cpp.html" target="_top" xlink:title=" ">
<polygon fill="white" stroke="black" points="248,-168.5 248,-187.5 356,-187.5 356,-168.5 248,-168.5"/>
<text text-anchor="middle" x="302" y="-175.5" font-family="Helvetica,sans-Serif" font-size="10.00">instantiated_plan.cpp</text>
</a>
</g>
</g>
<!-- Node12&#45;&gt;Node13 -->
<g id="edge12" class="edge">
<title>Node12&#45;&gt;Node13</title>
<path fill="none" stroke="midnightblue" d="M305.25,-214.1C304.42,-205.14 303.47,-194.86 302.81,-187.75"/>
<polygon fill="midnightblue" stroke="midnightblue" points="301.77,-214.45 306.17,-224.08 308.74,-213.8 301.77,-214.45"/>
</g>
<!-- Node12&#45;&gt;Node14 -->
<g id="edge13" class="edge">
<title>Node12&#45;&gt;Node14</title>
<path fill="none" stroke="midnightblue" d="M338.13,-220.64C363.66,-210.5 399.11,-196.43 421.55,-187.52"/>
<polygon fill="midnightblue" stroke="midnightblue" points="336.55,-217.5 328.55,-224.44 339.14,-224.01 336.55,-217.5"/>
</g>
<!-- Node15 -->
<g id="node15" class="node">
<title>Node15</title>
<g id="a_node15"><a xlink:href="../../d4/db4/intention_8cpp.html" target="_top" xlink:title=" ">
<polygon fill="white" stroke="black" points="402.5,-112.5 402.5,-131.5 473.5,-131.5 473.5,-112.5 402.5,-112.5"/>
<text text-anchor="middle" x="438" y="-119.5" font-family="Helvetica,sans-Serif" font-size="10.00">intention.cpp</text>
</a>
</g>
</g>
<!-- Node14&#45;&gt;Node15 -->
<g id="edge14" class="edge">
<title>Node14&#45;&gt;Node15</title>
<path fill="none" stroke="midnightblue" d="M441.25,-158.1C440.42,-149.14 439.47,-138.86 438.81,-131.75"/>
<polygon fill="midnightblue" stroke="midnightblue" points="437.77,-158.45 442.17,-168.08 444.74,-157.8 437.77,-158.45"/>
</g>
<!-- Node14&#45;&gt;Node16 -->
<g id="edge15" class="edge">
<title>Node14&#45;&gt;Node16</title>
<path fill="none" stroke="midnightblue" d="M417.67,-163.59C398.81,-153.61 373.62,-140.27 357.35,-131.65"/>
<polygon fill="midnightblue" stroke="midnightblue" points="416.14,-166.74 426.61,-168.32 419.41,-160.55 416.14,-166.74"/>
</g>
<!-- Node16&#45;&gt;Node5 -->
<g id="edge16" class="edge">
<title>Node16&#45;&gt;Node5</title>
<path fill="none" stroke="midnightblue" d="M387.11,-110.13C435.04,-98.82 508.22,-81.57 545.83,-72.7"/>
<polygon fill="midnightblue" stroke="midnightblue" points="386.22,-106.74 377.29,-112.44 387.82,-113.55 386.22,-106.74"/>
</g>
<!-- Node17 -->
<g id="node17" class="node">
<title>Node17</title>
<g id="a_node17"><a xlink:href="../../d2/dd9/intention__base_8cpp.html" target="_top" xlink:title=" ">
<polygon fill="white" stroke="black" points="292,-56.5 292,-75.5 390,-75.5 390,-56.5 292,-56.5"/>
<text text-anchor="middle" x="341" y="-63.5" font-family="Helvetica,sans-Serif" font-size="10.00">intention_base.cpp</text>
</a>
</g>
</g>
<!-- Node16&#45;&gt;Node17 -->
<g id="edge17" class="edge">
<title>Node16&#45;&gt;Node17</title>
<path fill="none" stroke="midnightblue" d="M341,-101.8C341,-92.91 341,-82.78 341,-75.75"/>
<polygon fill="midnightblue" stroke="midnightblue" points="337.5,-102.08 341,-112.08 344.5,-102.08 337.5,-102.08"/>
</g>
<!-- Node19&#45;&gt;Node5 -->
<g id="edge21" class="edge">
<title>Node19&#45;&gt;Node5</title>
<path fill="none" stroke="midnightblue" d="M547.36,-218.26C537.62,-210.54 527.27,-200.16 522,-188 503.94,-146.32 543.83,-95.5 561.8,-75.58"/>
<polygon fill="midnightblue" stroke="midnightblue" points="545.5,-221.23 555.63,-224.33 549.64,-215.59 545.5,-221.23"/>
</g>
<!-- Node19&#45;&gt;Node14 -->
<g id="edge22" class="edge">
<title>Node19&#45;&gt;Node14</title>
<path fill="none" stroke="midnightblue" d="M540.61,-220.5C516.8,-210.38 483.89,-196.39 463.03,-187.52"/>
<polygon fill="midnightblue" stroke="midnightblue" points="539.3,-223.75 549.88,-224.44 542.04,-217.31 539.3,-223.75"/>
</g>
<!-- Node20 -->
<g id="node20" class="node">
<title>Node20</title>
<g id="a_node20"><a xlink:href="../../d4/d51/plan__base_8cpp.html" target="_top" xlink:title=" ">
<polygon fill="white" stroke="black" points="530.5,-168.5 530.5,-187.5 609.5,-187.5 609.5,-168.5 530.5,-168.5"/>
<text text-anchor="middle" x="570" y="-175.5" font-family="Helvetica,sans-Serif" font-size="10.00">plan_base.cpp</text>
</a>
</g>
</g>
<!-- Node19&#45;&gt;Node20 -->
<g id="edge23" class="edge">
<title>Node19&#45;&gt;Node20</title>
<path fill="none" stroke="midnightblue" d="M570,-213.8C570,-204.91 570,-194.78 570,-187.75"/>
<polygon fill="midnightblue" stroke="midnightblue" points="566.5,-214.08 570,-224.08 573.5,-214.08 566.5,-214.08"/>
</g>
<!-- Node21&#45;&gt;Node9 -->
<g id="edge25" class="edge">
<title>Node21&#45;&gt;Node9</title>
<path fill="none" stroke="midnightblue" d="M257.33,-387.59C276.19,-377.61 301.38,-364.27 317.65,-355.65"/>
<polygon fill="midnightblue" stroke="midnightblue" points="255.59,-384.55 248.39,-392.32 258.86,-390.74 255.59,-384.55"/>
</g>
<!-- Node22 -->
<g id="node22" class="node">
<title>Node22</title>
<g id="a_node22"><a xlink:href="../../d4/d8b/body__instruction_8cpp.html" target="_top" xlink:title=" ">
<polygon fill="white" stroke="black" points="188.5,-336.5 188.5,-355.5 293.5,-355.5 293.5,-336.5 188.5,-336.5"/>
<text text-anchor="middle" x="241" y="-343.5" font-family="Helvetica,sans-Serif" font-size="10.00">body_instruction.cpp</text>
</a>
</g>
</g>
<!-- Node21&#45;&gt;Node22 -->
<g id="edge26" class="edge">
<title>Node21&#45;&gt;Node22</title>
<path fill="none" stroke="midnightblue" d="M235.15,-382.1C236.64,-373.14 238.36,-362.86 239.54,-355.75"/>
<polygon fill="midnightblue" stroke="midnightblue" points="231.68,-381.64 233.49,-392.08 238.58,-382.79 231.68,-381.64"/>
</g>
<!-- Node23&#45;&gt;Node11 -->
<g id="edge29" class="edge">
<title>Node23&#45;&gt;Node11</title>
<path fill="none" stroke="midnightblue" d="M102.85,-384.13C93.75,-370.25 84.94,-350.57 95,-336 117.1,-304.02 165.06,-294.74 192.87,-292.07"/>
<polygon fill="midnightblue" stroke="midnightblue" points="100.02,-386.19 108.67,-392.3 105.72,-382.12 100.02,-386.19"/>
</g>
<!-- Node24 -->
<g id="node24" class="node">
<title>Node24</title>
<g id="a_node24"><a xlink:href="../../db/d12/context_8cpp.html" target="_top" xlink:title=" ">
<polygon fill="white" stroke="black" points="104,-336.5 104,-355.5 170,-355.5 170,-336.5 104,-336.5"/>
<text text-anchor="middle" x="137" y="-343.5" font-family="Helvetica,sans-Serif" font-size="10.00">context.cpp</text>
</a>
</g>
</g>
<!-- Node23&#45;&gt;Node24 -->
<g id="edge28" class="edge">
<title>Node23&#45;&gt;Node24</title>
<path fill="none" stroke="midnightblue" d="M123.12,-382.69C126.66,-373.59 130.77,-363.01 133.6,-355.75"/>
<polygon fill="midnightblue" stroke="midnightblue" points="119.83,-381.49 119.47,-392.08 126.35,-384.03 119.83,-381.49"/>
</g>
<!-- Node25&#45;&gt;Node23 -->
<g id="edge34" class="edge">
<title>Node25&#45;&gt;Node23</title>
<path fill="none" stroke="midnightblue" d="M129.45,-555.56C116.67,-548.22 103.15,-537.77 96,-524 76.18,-485.83 100.09,-432.56 111.06,-411.79"/>
<polygon fill="midnightblue" stroke="midnightblue" points="128.04,-558.77 138.52,-560.36 131.32,-552.59 128.04,-558.77"/>
</g>
<!-- Node26 -->
<g id="node26" class="node">
<title>Node26</title>
<g id="a_node26"><a xlink:href="../../d6/d2e/context__condition_8cpp.html" target="_top" xlink:title=" ">
<polygon fill="white" stroke="black" points="105,-504.5 105,-523.5 215,-523.5 215,-504.5 105,-504.5"/>
<text text-anchor="middle" x="160" y="-511.5" font-family="Helvetica,sans-Serif" font-size="10.00">context_condition.cpp</text>
</a>
</g>
</g>
<!-- Node25&#45;&gt;Node26 -->
<g id="edge35" class="edge">
<title>Node25&#45;&gt;Node26</title>
<path fill="none" stroke="midnightblue" d="M160,-549.8C160,-540.91 160,-530.78 160,-523.75"/>
<polygon fill="midnightblue" stroke="midnightblue" points="156.5,-550.08 160,-560.08 163.5,-550.08 156.5,-550.08"/>
</g>
<!-- Node27&#45;&gt;Node4 -->
<g id="edge37" class="edge">
<title>Node27&#45;&gt;Node4</title>
<path fill="none" stroke="midnightblue" d="M498.28,-554.27C515.22,-541.19 533.77,-521.48 522,-504 505.62,-479.68 473.61,-468.5 448.16,-463.36"/>
<polygon fill="midnightblue" stroke="midnightblue" points="495.78,-551.76 489.73,-560.47 499.88,-557.43 495.78,-551.76"/>
</g>
<!-- Node27&#45;&gt;Node19 -->
<g id="edge50" class="edge">
<title>Node27&#45;&gt;Node19</title>
<path fill="none" stroke="midnightblue" d="M506.63,-556.43C553.71,-536.4 640.2,-496.61 657,-468 704.66,-386.83 608.06,-274.94 578.33,-243.51"/>
<polygon fill="midnightblue" stroke="midnightblue" points="505.07,-553.28 497.22,-560.39 507.79,-559.73 505.07,-553.28"/>
</g>
<!-- Node28 -->
<g id="node28" class="node">
<title>Node28</title>
<g id="a_node28"><a xlink:href="../../d9/ded/body__return_8h.html" target="_top" xlink:title=" ">
<polygon fill="white" stroke="black" points="439,-504.5 439,-523.5 513,-523.5 513,-504.5 439,-504.5"/>
<text text-anchor="middle" x="476" y="-511.5" font-family="Helvetica,sans-Serif" font-size="10.00">body_return.h</text>
</a>
</g>
</g>
<!-- Node27&#45;&gt;Node28 -->
<g id="edge38" class="edge">
<title>Node27&#45;&gt;Node28</title>
<path fill="none" stroke="midnightblue" d="M476,-549.8C476,-540.91 476,-530.78 476,-523.75"/>
<polygon fill="midnightblue" stroke="midnightblue" points="472.5,-550.08 476,-560.08 479.5,-550.08 472.5,-550.08"/>
</g>
<!-- Node30 -->
<g id="node30" class="node">
<title>Node30</title>
<g id="a_node30"><a xlink:href="../../df/d1b/event_8cpp.html" target="_top" xlink:title=" ">
<polygon fill="white" stroke="black" points="704.5,-504.5 704.5,-523.5 763.5,-523.5 763.5,-504.5 704.5,-504.5"/>
<text text-anchor="middle" x="734" y="-511.5" font-family="Helvetica,sans-Serif" font-size="10.00">event.cpp</text>
</a>
</g>
</g>
<!-- Node27&#45;&gt;Node30 -->
<g id="edge41" class="edge">
<title>Node27&#45;&gt;Node30</title>
<path fill="none" stroke="midnightblue" d="M510.2,-559.84C590.55,-541.1 612.74,-539.58 690,-524 694.59,-523.07 699.44,-522.09 704.18,-521.12"/>
<polygon fill="midnightblue" stroke="midnightblue" points="509.03,-556.52 500.1,-562.22 510.64,-563.34 509.03,-556.52"/>
</g>
<!-- Node31 -->
<g id="node31" class="node">
<title>Node31</title>
<g id="a_node31"><a xlink:href="../../d7/dc4/event__base_8h.html" target="_top" xlink:title=" ">
<polygon fill="white" stroke="black" points="309,-504.5 309,-523.5 383,-523.5 383,-504.5 309,-504.5"/>
<text text-anchor="middle" x="346" y="-511.5" font-family="Helvetica,sans-Serif" font-size="10.00">event_base.h</text>
</a>
</g>
</g>
<!-- Node27&#45;&gt;Node31 -->
<g id="edge42" class="edge">
<title>Node27&#45;&gt;Node31</title>
<path fill="none" stroke="midnightblue" d="M445.91,-556.5C421.54,-546.38 387.86,-532.39 366.5,-523.52"/>
<polygon fill="midnightblue" stroke="midnightblue" points="444.82,-559.84 455.4,-560.44 447.51,-553.38 444.82,-559.84"/>
</g>
<!-- Node28&#45;&gt;Node21 -->
<g id="edge39" class="edge">
<title>Node28&#45;&gt;Node21</title>
<path fill="none" stroke="midnightblue" d="M444.36,-500.85C422.01,-492.1 391.46,-479.81 365,-468 322.52,-449.04 273.63,-424.4 248.62,-411.59"/>
<polygon fill="midnightblue" stroke="midnightblue" points="443.11,-504.12 453.7,-504.48 445.65,-497.59 443.11,-504.12"/>
</g>
<!-- Node29 -->
<g id="node29" class="node">
<title>Node29</title>
<g id="a_node29"><a xlink:href="../../de/dc0/body__return_8cpp.html" target="_top" xlink:title=" ">
<polygon fill="white" stroke="black" points="562.5,-448.5 562.5,-467.5 647.5,-467.5 647.5,-448.5 562.5,-448.5"/>
<text text-anchor="middle" x="605" y="-455.5" font-family="Helvetica,sans-Serif" font-size="10.00">body_return.cpp</text>
</a>
</g>
</g>
<!-- Node28&#45;&gt;Node29 -->
<g id="edge40" class="edge">
<title>Node28&#45;&gt;Node29</title>
<path fill="none" stroke="midnightblue" d="M505.85,-500.5C530.04,-490.38 563.46,-476.39 584.66,-467.52"/>
<polygon fill="midnightblue" stroke="midnightblue" points="504.31,-497.35 496.44,-504.44 507.02,-503.81 504.31,-497.35"/>
</g>
<!-- Node31&#45;&gt;Node4 -->
<g id="edge44" class="edge">
<title>Node31&#45;&gt;Node4</title>
<path fill="none" stroke="midnightblue" d="M364.27,-497.82C375.92,-488.15 390.6,-475.95 400.37,-467.83"/>
<polygon fill="midnightblue" stroke="midnightblue" points="361.9,-495.24 356.44,-504.32 366.37,-500.63 361.9,-495.24"/>
</g>
<!-- Node31&#45;&gt;Node5 -->
<g id="edge43" class="edge">
<title>Node31&#45;&gt;Node5</title>
<path fill="none" stroke="midnightblue" d="M377.12,-500.76C399.44,-491.89 430.19,-479.48 457,-468 572.04,-418.73 676,-416.15 676,-291 676,-291 676,-291 676,-177 676,-127.14 618.83,-91.19 588.46,-75.61"/>
<polygon fill="midnightblue" stroke="midnightblue" points="375.81,-497.52 367.8,-504.45 378.38,-504.02 375.81,-497.52"/>
</g>
<!-- Node31&#45;&gt;Node9 -->
<g id="edge45" class="edge">
<title>Node31&#45;&gt;Node9</title>
<path fill="none" stroke="midnightblue" d="M344.62,-493.93C342.02,-457.92 336.47,-381.23 334.62,-355.57"/>
<polygon fill="midnightblue" stroke="midnightblue" points="341.14,-494.35 345.35,-504.08 348.12,-493.85 341.14,-494.35"/>
</g>
<!-- Node31&#45;&gt;Node11 -->
<g id="edge49" class="edge">
<title>Node31&#45;&gt;Node11</title>
<path fill="none" stroke="midnightblue" d="M299.92,-502.15C257.9,-492 199.1,-477.08 177,-468 130.6,-448.94 104.18,-455.39 79,-412 69.68,-395.94 72.56,-353.64 87,-336 113.23,-303.96 163.9,-294.72 192.68,-292.06"/>
<polygon fill="midnightblue" stroke="midnightblue" points="299.14,-505.56 309.68,-504.5 300.77,-498.76 299.14,-505.56"/>
</g>
<!-- Node31&#45;&gt;Node16 -->
<g id="edge48" class="edge">
<title>Node31&#45;&gt;Node16</title>
<path fill="none" stroke="midnightblue" d="M298.92,-503.94C154.71,-480.01 0,-540.53 0,-403 0,-403 0,-403 0,-233 0,-171.18 205.54,-139.05 297.47,-127.77"/>
<polygon fill="midnightblue" stroke="midnightblue" points="298.38,-507.4 308.84,-505.72 299.62,-500.51 298.38,-507.4"/>
</g>
<!-- Node31&#45;&gt;Node21 -->
<g id="edge46" class="edge">
<title>Node31&#45;&gt;Node21</title>
<path fill="none" stroke="midnightblue" d="M299.01,-502.8C254.36,-492.64 193.01,-477.25 186,-468 170.97,-448.16 199.82,-424.09 218.27,-411.54"/>
<polygon fill="midnightblue" stroke="midnightblue" points="298.3,-506.23 308.83,-505.01 299.84,-499.4 298.3,-506.23"/>
</g>
<!-- Node32 -->
<g id="node32" class="node">
<title>Node32</title>
<g id="a_node32"><a xlink:href="../../d8/ddf/event__base_8cpp.html" target="_top" xlink:title=" ">
<polygon fill="white" stroke="black" points="194.5,-448.5 194.5,-467.5 279.5,-467.5 279.5,-448.5 194.5,-448.5"/>
<text text-anchor="middle" x="237" y="-455.5" font-family="Helvetica,sans-Serif" font-size="10.00">event_base.cpp</text>
</a>
</g>
</g>
<!-- Node31&#45;&gt;Node32 -->
<g id="edge47" class="edge">
<title>Node31&#45;&gt;Node32</title>
<path fill="none" stroke="midnightblue" d="M319.48,-499.86C299.27,-489.85 272.01,-476.35 254.47,-467.65"/>
<polygon fill="midnightblue" stroke="midnightblue" points="317.97,-503.02 328.49,-504.32 321.08,-496.75 317.97,-503.02"/>
</g>
</g>
</svg>
        <g id="navigator" transform="translate(0 0)" fill="#404254">
                <rect fill="#f2f5e9" fill-opacity="0.5" stroke="#606060" stroke-width=".5" x="0" y="0" width="60" height="60"/>
                <use id="zoomplus" xlink:href="#zoomPlus" x="17" y="9" onmousedown="handleZoom(evt,'in')"/>
                <use id="zoomminus" xlink:href="#zoomMin" x="42" y="9" onmousedown="handleZoom(evt,'out')"/>
                <use id="reset" xlink:href="#resetDef" x="30" y="36" onmousedown="handleReset()"/>
                <g id="arrowUp" xlink:href="#dirArrow" transform="translate(30 24)" onmousedown="handlePan(0,-1)">
                  <use xlink:href="#rim" fill="#404040">
                        <set attributeName="fill" to="#808080" begin="arrowUp.mouseover" end="arrowUp.mouseout"/>
                  </use>
                  <path fill="none" stroke="white" stroke-width="1.5" d="M0,-3.0v7 M-2.5,-0.5L0,-3.0L2.5,-0.5"/>
                </g>
                <g id="arrowRight" xlink:href="#dirArrow" transform="rotate(90) translate(36 -43)" onmousedown="handlePan(1,0)">
                  <use xlink:href="#rim" fill="#404040">
                        <set attributeName="fill" to="#808080" begin="arrowRight.mouseover" end="arrowRight.mouseout"/>
                  </use>
                  <path fill="none" stroke="white" stroke-width="1.5" d="M0,-3.0v7 M-2.5,-0.5L0,-3.0L2.5,-0.5"/>
                </g>
                <g id="arrowDown" xlink:href="#dirArrow" transform="rotate(180) translate(-30 -48)" onmousedown="handlePan(0,1)">
                  <use xlink:href="#rim" fill="#404040">
                        <set attributeName="fill" to="#808080" begin="arrowDown.mouseover" end="arrowDown.mouseout"/>
                  </use>
                  <path fill="none" stroke="white" stroke-width="1.5" d="M0,-3.0v7 M-2.5,-0.5L0,-3.0L2.5,-0.5"/>
                </g>
                <g id="arrowLeft" xlink:href="#dirArrow" transform="rotate(270) translate(-36 17)" onmousedown="handlePan(-1,0)">
                  <use xlink:href="#rim" fill="#404040">
                        <set attributeName="fill" to="#808080" begin="arrowLeft.mouseover" end="arrowLeft.mouseout"/>
                  </use>
                  <path fill="none" stroke="white" stroke-width="1.5" d="M0,-3.0v7 M-2.5,-0.5L0,-3.0L2.5,-0.5"/>
                </g>
        </g>
        <svg viewBox="0 0 15 15" width="100%" height="30px" preserveAspectRatio="xMaxYMin meet">
         <g id="arrow_out" transform="scale(0.3 0.3)">
          <a xlink:href="proposition_8h__dep__incl_org.svg" target="_base">
           <rect id="button" ry="5" rx="5" y="6" x="6" height="38" width="38"
                fill="#f2f5e9" fill-opacity="0.5" stroke="#606060" stroke-width="1.0"/>
           <path id="arrow"
             d="M 11.500037,31.436501 C 11.940474,20.09759 22.043105,11.32322 32.158766,21.979434 L 37.068811,17.246167 C 37.068811,17.246167 37.088388,32 37.088388,32 L 22.160133,31.978069 C 22.160133,31.978069 26.997745,27.140456 26.997745,27.140456 C 18.528582,18.264221 13.291696,25.230495 11.500037,31.436501 z"
             style="fill:#404040;"/>
          </a>
         </g>
        </svg>
</svg>
