<?xml version="1.0" encoding="UTF-8" standalone="no"?>
<!DOCTYPE svg PUBLIC "-//W3C//DTD SVG 1.1//EN"
 "http://www.w3.org/Graphics/SVG/1.1/DTD/svg11.dtd">
<!-- Generated by graphviz version 2.47.3 (20210711.2253)
 -->
<!-- Title: proposition.h Pages: 1 -->
<svg width="832pt" height="644pt"
 viewBox="0.00 0.00 832.00 644.00" xmlns="http://www.w3.org/2000/svg" xmlns:xlink="http://www.w3.org/1999/xlink">
<g id="graph0" class="graph" transform="scale(1 1) rotate(0) translate(4 640)">
<title>proposition.h</title>
<polygon fill="white" stroke="transparent" points="-4,4 -4,-640 828,-640 828,4 -4,4"/>
<!-- Node1 -->
<g id="node1" class="node">
<title>Node1</title>
<g id="a_node1"><a xlink:title=" ">
<polygon fill="#bfbfbf" stroke="black" points="440.5,-616.5 440.5,-635.5 511.5,-635.5 511.5,-616.5 440.5,-616.5"/>
<text text-anchor="middle" x="476" y="-623.5" font-family="Helvetica,sans-Serif" font-size="10.00">proposition.h</text>
</a>
</g>
</g>
<!-- Node2 -->
<g id="node2" class="node">
<title>Node2</title>
<g id="a_node2"><a xlink:href="../../da/db8/belief_8h.html" target="_top" xlink:title=" ">
<polygon fill="white" stroke="black" points="62.5,-560.5 62.5,-579.5 109.5,-579.5 109.5,-560.5 62.5,-560.5"/>
<text text-anchor="middle" x="86" y="-567.5" font-family="Helvetica,sans-Serif" font-size="10.00">belief.h</text>
</a>
</g>
</g>
<!-- Node1&#45;&gt;Node2 -->
<g id="edge1" class="edge">
<title>Node1&#45;&gt;Node2</title>
<path fill="none" stroke="midnightblue" d="M430.44,-618.69C347.26,-607.17 173.55,-583.12 109.97,-574.32"/>
<polygon fill="midnightblue" stroke="midnightblue" points="429.97,-622.16 440.36,-620.06 430.93,-615.23 429.97,-622.16"/>
</g>
<!-- Node25 -->
<g id="node25" class="node">
<title>Node25</title>
<g id="a_node25"><a xlink:href="../../dd/d20/event_8h.html" target="_top" xlink:title=" ">
<polygon fill="white" stroke="black" points="406,-560.5 406,-579.5 454,-579.5 454,-560.5 406,-560.5"/>
<text text-anchor="middle" x="430" y="-567.5" font-family="Helvetica,sans-Serif" font-size="10.00">event.h</text>
</a>
</g>
</g>
<!-- Node1&#45;&gt;Node25 -->
<g id="edge33" class="edge">
<title>Node1&#45;&gt;Node25</title>
<path fill="none" stroke="midnightblue" d="M461.89,-608.43C453.82,-598.97 444.04,-587.48 437.45,-579.75"/>
<polygon fill="midnightblue" stroke="midnightblue" points="459.25,-610.74 468.4,-616.08 464.58,-606.2 459.25,-610.74"/>
</g>
<!-- Node31 -->
<g id="node31" class="node">
<title>Node31</title>
<g id="a_node31"><a xlink:href="../../d7/d7d/context__condition_8h.html" target="_top" xlink:title=" ">
<polygon fill="white" stroke="black" points="571,-560.5 571,-579.5 671,-579.5 671,-560.5 571,-560.5"/>
<text text-anchor="middle" x="621" y="-567.5" font-family="Helvetica,sans-Serif" font-size="10.00">context_condition.h</text>
</a>
</g>
</g>
<!-- Node1&#45;&gt;Node31 -->
<g id="edge48" class="edge">
<title>Node1&#45;&gt;Node31</title>
<path fill="none" stroke="midnightblue" d="M508.48,-612.91C535.74,-602.75 573.99,-588.51 598.13,-579.52"/>
<polygon fill="midnightblue" stroke="midnightblue" points="507.13,-609.67 498.98,-616.44 509.57,-616.23 507.13,-609.67"/>
</g>
<!-- Node33 -->
<g id="node33" class="node">
<title>Node33</title>
<g id="a_node33"><a xlink:href="../../d1/d0a/proposition_8cpp.html" target="_top" xlink:title=" ">
<polygon fill="white" stroke="black" points="689,-560.5 689,-579.5 771,-579.5 771,-560.5 689,-560.5"/>
<text text-anchor="middle" x="730" y="-567.5" font-family="Helvetica,sans-Serif" font-size="10.00">proposition.cpp</text>
</a>
</g>
</g>
<!-- Node1&#45;&gt;Node33 -->
<g id="edge51" class="edge">
<title>Node1&#45;&gt;Node33</title>
<path fill="none" stroke="midnightblue" d="M521.66,-615.29C569.49,-605.12 643.88,-589.31 689.63,-579.58"/>
<polygon fill="midnightblue" stroke="midnightblue" points="520.64,-611.93 511.59,-617.43 522.09,-618.78 520.64,-611.93"/>
</g>
<!-- Node3 -->
<g id="node3" class="node">
<title>Node3</title>
<g id="a_node3"><a xlink:href="../../d7/d2f/belief_8cpp.html" target="_top" xlink:title=" ">
<polygon fill="white" stroke="black" points="0,-504.5 0,-523.5 58,-523.5 58,-504.5 0,-504.5"/>
<text text-anchor="middle" x="29" y="-511.5" font-family="Helvetica,sans-Serif" font-size="10.00">belief.cpp</text>
</a>
</g>
</g>
<!-- Node2&#45;&gt;Node3 -->
<g id="edge2" class="edge">
<title>Node2&#45;&gt;Node3</title>
<path fill="none" stroke="midnightblue" d="M69.38,-553.25C59.27,-543.67 46.72,-531.79 38.32,-523.83"/>
<polygon fill="midnightblue" stroke="midnightblue" points="67.18,-555.99 76.84,-560.32 71.99,-550.91 67.18,-555.99"/>
</g>
<!-- Node4 -->
<g id="node4" class="node">
<title>Node4</title>
<g id="a_node4"><a xlink:href="../../d2/d2f/belief__base_8h.html" target="_top" xlink:title=" ">
<polygon fill="white" stroke="black" points="286,-448.5 286,-467.5 360,-467.5 360,-448.5 286,-448.5"/>
<text text-anchor="middle" x="323" y="-455.5" font-family="Helvetica,sans-Serif" font-size="10.00">belief_base.h</text>
</a>
</g>
</g>
<!-- Node2&#45;&gt;Node4 -->
<g id="edge3" class="edge">
<title>Node2&#45;&gt;Node4</title>
<path fill="none" stroke="midnightblue" d="M113.96,-556.02C162.98,-533.27 263.12,-486.79 304.49,-467.59"/>
<polygon fill="midnightblue" stroke="midnightblue" points="112.19,-552.98 104.6,-560.37 115.14,-559.33 112.19,-552.98"/>
</g>
<!-- Node5 -->
<g id="node5" class="node">
<title>Node5</title>
<g id="a_node5"><a xlink:href="../../de/d9e/agent_8h.html" target="_top" xlink:title=" ">
<polygon fill="white" stroke="black" points="327,-56.5 327,-75.5 375,-75.5 375,-56.5 327,-56.5"/>
<text text-anchor="middle" x="351" y="-63.5" font-family="Helvetica,sans-Serif" font-size="10.00">agent.h</text>
</a>
</g>
</g>
<!-- Node4&#45;&gt;Node5 -->
<g id="edge4" class="edge">
<title>Node4&#45;&gt;Node5</title>
<path fill="none" stroke="midnightblue" d="M275.84,-453.34C244.96,-448.51 205.85,-437.42 181,-412 159.96,-390.48 162,-377.1 162,-347 162,-347 162,-347 162,-177 162,-101.64 275.63,-77.01 326.68,-69.75"/>
<polygon fill="midnightblue" stroke="midnightblue" points="275.58,-456.84 285.97,-454.75 276.55,-449.9 275.58,-456.84"/>
</g>
<!-- Node8 -->
<g id="node8" class="node">
<title>Node8</title>
<g id="a_node8"><a xlink:href="../../de/d9b/belief__base_8cpp.html" target="_top" xlink:title=" ">
<polygon fill="white" stroke="black" points="190,-392.5 190,-411.5 274,-411.5 274,-392.5 190,-392.5"/>
<text text-anchor="middle" x="232" y="-399.5" font-family="Helvetica,sans-Serif" font-size="10.00">belief_base.cpp</text>
</a>
</g>
</g>
<!-- Node4&#45;&gt;Node8 -->
<g id="edge7" class="edge">
<title>Node4&#45;&gt;Node8</title>
<path fill="none" stroke="midnightblue" d="M299.71,-443.18C282.96,-433.24 260.9,-420.15 246.58,-411.65"/>
<polygon fill="midnightblue" stroke="midnightblue" points="297.99,-446.23 308.38,-448.32 301.57,-440.21 297.99,-446.23"/>
</g>
<!-- Node9 -->
<g id="node9" class="node">
<title>Node9</title>
<g id="a_node9"><a xlink:href="../../df/d3f/intention_8h.html" target="_top" xlink:title=" ">
<polygon fill="white" stroke="black" points="328.5,-168.5 328.5,-187.5 389.5,-187.5 389.5,-168.5 328.5,-168.5"/>
<text text-anchor="middle" x="359" y="-175.5" font-family="Helvetica,sans-Serif" font-size="10.00">intention.h</text>
</a>
</g>
</g>
<!-- Node4&#45;&gt;Node9 -->
<g id="edge8" class="edge">
<title>Node4&#45;&gt;Node9</title>
<path fill="none" stroke="midnightblue" d="M327.67,-438.36C332.7,-416.58 340,-379.42 340,-347 340,-347 340,-347 340,-289 340,-250.82 351.25,-206.26 356.44,-187.75"/>
<polygon fill="midnightblue" stroke="midnightblue" points="324.23,-437.69 325.29,-448.23 331.03,-439.33 324.23,-437.69"/>
</g>
<!-- Node11 -->
<g id="node11" class="node">
<title>Node11</title>
<g id="a_node11"><a xlink:href="../../d8/d83/intention__base_8h.html" target="_top" xlink:title=" ">
<polygon fill="white" stroke="black" points="545.5,-112.5 545.5,-131.5 632.5,-131.5 632.5,-112.5 545.5,-112.5"/>
<text text-anchor="middle" x="589" y="-119.5" font-family="Helvetica,sans-Serif" font-size="10.00">intention_base.h</text>
</a>
</g>
</g>
<!-- Node4&#45;&gt;Node11 -->
<g id="edge13" class="edge">
<title>Node4&#45;&gt;Node11</title>
<path fill="none" stroke="midnightblue" d="M333.33,-439.43C350.32,-410.64 383.62,-354.73 397,-336 453.31,-257.13 467.91,-236.96 536,-168 549.4,-154.43 566.45,-140.47 577.54,-131.77"/>
<polygon fill="midnightblue" stroke="midnightblue" points="330.11,-437.99 328.06,-448.38 336.15,-441.54 330.11,-437.99"/>
</g>
<!-- Node13 -->
<g id="node13" class="node">
<title>Node13</title>
<g id="a_node13"><a xlink:href="../../de/d75/plan__base_8h.html" target="_top" xlink:title=" ">
<polygon fill="white" stroke="black" points="239,-224.5 239,-243.5 307,-243.5 307,-224.5 239,-224.5"/>
<text text-anchor="middle" x="273" y="-231.5" font-family="Helvetica,sans-Serif" font-size="10.00">plan_base.h</text>
</a>
</g>
</g>
<!-- Node4&#45;&gt;Node13 -->
<g id="edge14" class="edge">
<title>Node4&#45;&gt;Node13</title>
<path fill="none" stroke="midnightblue" d="M318.79,-438.3C308.51,-392.64 282.43,-276.85 275,-243.88"/>
<polygon fill="midnightblue" stroke="midnightblue" points="315.43,-439.31 321.04,-448.3 322.26,-437.77 315.43,-439.31"/>
</g>
<!-- Node15 -->
<g id="node15" class="node">
<title>Node15</title>
<g id="a_node15"><a xlink:href="../../d0/d77/body_8h.html" target="_top" xlink:title=" ">
<polygon fill="white" stroke="black" points="530,-336.5 530,-355.5 574,-355.5 574,-336.5 530,-336.5"/>
<text text-anchor="middle" x="552" y="-343.5" font-family="Helvetica,sans-Serif" font-size="10.00">body.h</text>
</a>
</g>
</g>
<!-- Node4&#45;&gt;Node15 -->
<g id="edge18" class="edge">
<title>Node4&#45;&gt;Node15</title>
<path fill="none" stroke="midnightblue" d="M344.7,-443.02C366.86,-429.07 402.53,-407.55 435,-392 467,-376.68 505.68,-362.63 529.56,-354.44"/>
<polygon fill="midnightblue" stroke="midnightblue" points="342.64,-440.18 336.08,-448.49 346.39,-446.09 342.64,-440.18"/>
</g>
<!-- Node21 -->
<g id="node21" class="node">
<title>Node21</title>
<g id="a_node21"><a xlink:href="../../d8/d67/body__instruction_8h.html" target="_top" xlink:title=" ">
<polygon fill="white" stroke="black" points="444.5,-392.5 444.5,-411.5 539.5,-411.5 539.5,-392.5 444.5,-392.5"/>
<text text-anchor="middle" x="492" y="-399.5" font-family="Helvetica,sans-Serif" font-size="10.00">body_instruction.h</text>
</a>
</g>
</g>
<!-- Node4&#45;&gt;Node21 -->
<g id="edge27" class="edge">
<title>Node4&#45;&gt;Node21</title>
<path fill="none" stroke="midnightblue" d="M359.6,-445.3C391.45,-435.13 436.84,-420.62 465.35,-411.52"/>
<polygon fill="midnightblue" stroke="midnightblue" points="358.24,-442.07 349.78,-448.44 360.37,-448.73 358.24,-442.07"/>
</g>
<!-- Node23 -->
<g id="node23" class="node">
<title>Node23</title>
<g id="a_node23"><a xlink:href="../../dc/d1e/context_8h.html" target="_top" xlink:title=" ">
<polygon fill="white" stroke="black" points="657,-392.5 657,-411.5 713,-411.5 713,-392.5 657,-392.5"/>
<text text-anchor="middle" x="685" y="-399.5" font-family="Helvetica,sans-Serif" font-size="10.00">context.h</text>
</a>
</g>
</g>
<!-- Node4&#45;&gt;Node23 -->
<g id="edge30" class="edge">
<title>Node4&#45;&gt;Node23</title>
<path fill="none" stroke="midnightblue" d="M370.23,-447.87C482.08,-429.18 602.79,-413.36 656.6,-406.54"/>
<polygon fill="midnightblue" stroke="midnightblue" points="369.41,-444.45 360.13,-449.56 370.57,-451.36 369.41,-444.45"/>
</g>
<!-- Node6 -->
<g id="node6" class="node">
<title>Node6</title>
<g id="a_node6"><a xlink:href="../../dd/d3d/agent_8cpp.html" target="_top" xlink:title=" ">
<polygon fill="white" stroke="black" points="277.5,-0.5 277.5,-19.5 336.5,-19.5 336.5,-0.5 277.5,-0.5"/>
<text text-anchor="middle" x="307" y="-7.5" font-family="Helvetica,sans-Serif" font-size="10.00">agent.cpp</text>
</a>
</g>
</g>
<!-- Node5&#45;&gt;Node6 -->
<g id="edge5" class="edge">
<title>Node5&#45;&gt;Node6</title>
<path fill="none" stroke="midnightblue" d="M337.27,-48.14C329.6,-38.74 320.37,-27.4 314.13,-19.75"/>
<polygon fill="midnightblue" stroke="midnightblue" points="334.7,-50.54 343.73,-56.08 340.13,-46.12 334.7,-50.54"/>
</g>
<!-- Node7 -->
<g id="node7" class="node">
<title>Node7</title>
<g id="a_node7"><a xlink:href="../../d4/d91/agent__loop_8cpp.html" target="_top" xlink:title=" ">
<polygon fill="white" stroke="black" points="355,-0.5 355,-19.5 437,-19.5 437,-0.5 355,-0.5"/>
<text text-anchor="middle" x="396" y="-7.5" font-family="Helvetica,sans-Serif" font-size="10.00">agent_loop.cpp</text>
</a>
</g>
</g>
<!-- Node5&#45;&gt;Node7 -->
<g id="edge6" class="edge">
<title>Node5&#45;&gt;Node7</title>
<path fill="none" stroke="midnightblue" d="M365.05,-48.14C372.89,-38.74 382.33,-27.4 388.71,-19.75"/>
<polygon fill="midnightblue" stroke="midnightblue" points="362.14,-46.16 358.43,-56.08 367.52,-50.64 362.14,-46.16"/>
</g>
<!-- Node10 -->
<g id="node10" class="node">
<title>Node10</title>
<g id="a_node10"><a xlink:href="../../d4/db4/intention_8cpp.html" target="_top" xlink:title=" ">
<polygon fill="white" stroke="black" points="323.5,-112.5 323.5,-131.5 394.5,-131.5 394.5,-112.5 323.5,-112.5"/>
<text text-anchor="middle" x="359" y="-119.5" font-family="Helvetica,sans-Serif" font-size="10.00">intention.cpp</text>
</a>
</g>
</g>
<!-- Node9&#45;&gt;Node10 -->
<g id="edge9" class="edge">
<title>Node9&#45;&gt;Node10</title>
<path fill="none" stroke="midnightblue" d="M359,-157.8C359,-148.91 359,-138.78 359,-131.75"/>
<polygon fill="midnightblue" stroke="midnightblue" points="355.5,-158.08 359,-168.08 362.5,-158.08 355.5,-158.08"/>
</g>
<!-- Node9&#45;&gt;Node11 -->
<g id="edge10" class="edge">
<title>Node9&#45;&gt;Node11</title>
<path fill="none" stroke="midnightblue" d="M399.46,-167.5C442.8,-157.33 510.95,-141.33 552.64,-131.54"/>
<polygon fill="midnightblue" stroke="midnightblue" points="398.48,-164.14 389.54,-169.83 400.08,-170.95 398.48,-164.14"/>
</g>
<!-- Node11&#45;&gt;Node5 -->
<g id="edge11" class="edge">
<title>Node11&#45;&gt;Node5</title>
<path fill="none" stroke="midnightblue" d="M541.31,-110.18C491.07,-98.78 413.96,-81.29 375.12,-72.47"/>
<polygon fill="midnightblue" stroke="midnightblue" points="540.76,-113.64 551.29,-112.44 542.31,-106.82 540.76,-113.64"/>
</g>
<!-- Node12 -->
<g id="node12" class="node">
<title>Node12</title>
<g id="a_node12"><a xlink:href="../../d2/dd9/intention__base_8cpp.html" target="_top" xlink:title=" ">
<polygon fill="white" stroke="black" points="540,-56.5 540,-75.5 638,-75.5 638,-56.5 540,-56.5"/>
<text text-anchor="middle" x="589" y="-63.5" font-family="Helvetica,sans-Serif" font-size="10.00">intention_base.cpp</text>
</a>
</g>
</g>
<!-- Node11&#45;&gt;Node12 -->
<g id="edge12" class="edge">
<title>Node11&#45;&gt;Node12</title>
<path fill="none" stroke="midnightblue" d="M589,-101.8C589,-92.91 589,-82.78 589,-75.75"/>
<polygon fill="midnightblue" stroke="midnightblue" points="585.5,-102.08 589,-112.08 592.5,-102.08 585.5,-102.08"/>
</g>
<!-- Node13&#45;&gt;Node5 -->
<g id="edge15" class="edge">
<title>Node13&#45;&gt;Node5</title>
<path fill="none" stroke="midnightblue" d="M248.82,-218.5C231.46,-206.09 212.64,-187.22 222,-168 244.79,-121.2 300.92,-89.7 331.07,-75.54"/>
<polygon fill="midnightblue" stroke="midnightblue" points="247.35,-221.73 257.61,-224.37 251.24,-215.91 247.35,-221.73"/>
</g>
<!-- Node13&#45;&gt;Node9 -->
<g id="edge16" class="edge">
<title>Node13&#45;&gt;Node9</title>
<path fill="none" stroke="midnightblue" d="M295.45,-218.9C311.22,-209 331.81,-196.07 345.22,-187.65"/>
<polygon fill="midnightblue" stroke="midnightblue" points="293.43,-216.04 286.82,-224.32 297.15,-221.97 293.43,-216.04"/>
</g>
<!-- Node14 -->
<g id="node14" class="node">
<title>Node14</title>
<g id="a_node14"><a xlink:href="../../d4/d51/plan__base_8cpp.html" target="_top" xlink:title=" ">
<polygon fill="white" stroke="black" points="231.5,-168.5 231.5,-187.5 310.5,-187.5 310.5,-168.5 231.5,-168.5"/>
<text text-anchor="middle" x="271" y="-175.5" font-family="Helvetica,sans-Serif" font-size="10.00">plan_base.cpp</text>
</a>
</g>
</g>
<!-- Node13&#45;&gt;Node14 -->
<g id="edge17" class="edge">
<title>Node13&#45;&gt;Node14</title>
<path fill="none" stroke="midnightblue" d="M272.29,-213.8C271.96,-204.91 271.58,-194.78 271.32,-187.75"/>
<polygon fill="midnightblue" stroke="midnightblue" points="268.8,-214.22 272.67,-224.08 275.8,-213.96 268.8,-214.22"/>
</g>
<!-- Node16 -->
<g id="node16" class="node">
<title>Node16</title>
<g id="a_node16"><a xlink:href="../../d1/d5f/body_8cpp.html" target="_top" xlink:title=" ">
<polygon fill="white" stroke="black" points="518.5,-280.5 518.5,-299.5 573.5,-299.5 573.5,-280.5 518.5,-280.5"/>
<text text-anchor="middle" x="546" y="-287.5" font-family="Helvetica,sans-Serif" font-size="10.00">body.cpp</text>
</a>
</g>
</g>
<!-- Node15&#45;&gt;Node16 -->
<g id="edge19" class="edge">
<title>Node15&#45;&gt;Node16</title>
<path fill="none" stroke="midnightblue" d="M549.9,-326.1C548.9,-317.14 547.76,-306.86 546.97,-299.75"/>
<polygon fill="midnightblue" stroke="midnightblue" points="546.43,-326.53 551.01,-336.08 553.38,-325.76 546.43,-326.53"/>
</g>
<!-- Node17 -->
<g id="node17" class="node">
<title>Node17</title>
<g id="a_node17"><a xlink:href="../../d9/d4e/plan_8h.html" target="_top" xlink:title=" ">
<polygon fill="white" stroke="black" points="666,-280.5 666,-299.5 708,-299.5 708,-280.5 666,-280.5"/>
<text text-anchor="middle" x="687" y="-287.5" font-family="Helvetica,sans-Serif" font-size="10.00">plan.h</text>
</a>
</g>
</g>
<!-- Node15&#45;&gt;Node17 -->
<g id="edge20" class="edge">
<title>Node15&#45;&gt;Node17</title>
<path fill="none" stroke="midnightblue" d="M582.91,-332.64C608.24,-322.5 643.43,-308.43 665.71,-299.52"/>
<polygon fill="midnightblue" stroke="midnightblue" points="581.38,-329.48 573.39,-336.44 583.98,-335.98 581.38,-329.48"/>
</g>
<!-- Node17&#45;&gt;Node11 -->
<g id="edge24" class="edge">
<title>Node17&#45;&gt;Node11</title>
<path fill="none" stroke="midnightblue" d="M705.07,-273.23C717.55,-260.32 730.65,-241.41 723,-224 701.84,-175.86 643.91,-145.39 611.57,-131.61"/>
<polygon fill="midnightblue" stroke="midnightblue" points="702.36,-270.98 697.56,-280.43 707.2,-276.03 702.36,-270.98"/>
</g>
<!-- Node17&#45;&gt;Node13 -->
<g id="edge25" class="edge">
<title>Node17&#45;&gt;Node13</title>
<path fill="none" stroke="midnightblue" d="M655.55,-284.9C579.42,-274.97 385.74,-249.7 307.03,-239.44"/>
<polygon fill="midnightblue" stroke="midnightblue" points="655.53,-288.43 665.9,-286.25 656.44,-281.48 655.53,-288.43"/>
</g>
<!-- Node18 -->
<g id="node18" class="node">
<title>Node18</title>
<g id="a_node18"><a xlink:href="../../de/d3c/instantiated__plan_8h.html" target="_top" xlink:title=" ">
<polygon fill="white" stroke="black" points="545,-224.5 545,-243.5 643,-243.5 643,-224.5 545,-224.5"/>
<text text-anchor="middle" x="594" y="-231.5" font-family="Helvetica,sans-Serif" font-size="10.00">instantiated_plan.h</text>
</a>
</g>
</g>
<!-- Node17&#45;&gt;Node18 -->
<g id="edge21" class="edge">
<title>Node17&#45;&gt;Node18</title>
<path fill="none" stroke="midnightblue" d="M663.19,-275.18C646.08,-265.24 623.53,-252.15 608.9,-243.65"/>
<polygon fill="midnightblue" stroke="midnightblue" points="661.65,-278.33 672.06,-280.32 665.17,-272.28 661.65,-278.33"/>
</g>
<!-- Node20 -->
<g id="node20" class="node">
<title>Node20</title>
<g id="a_node20"><a xlink:href="../../d7/df1/plan_8cpp.html" target="_top" xlink:title=" ">
<polygon fill="white" stroke="black" points="660.5,-224.5 660.5,-243.5 713.5,-243.5 713.5,-224.5 660.5,-224.5"/>
<text text-anchor="middle" x="687" y="-231.5" font-family="Helvetica,sans-Serif" font-size="10.00">plan.cpp</text>
</a>
</g>
</g>
<!-- Node17&#45;&gt;Node20 -->
<g id="edge26" class="edge">
<title>Node17&#45;&gt;Node20</title>
<path fill="none" stroke="midnightblue" d="M687,-269.8C687,-260.91 687,-250.78 687,-243.75"/>
<polygon fill="midnightblue" stroke="midnightblue" points="683.5,-270.08 687,-280.08 690.5,-270.08 683.5,-270.08"/>
</g>
<!-- Node18&#45;&gt;Node9 -->
<g id="edge23" class="edge">
<title>Node18&#45;&gt;Node9</title>
<path fill="none" stroke="midnightblue" d="M546.86,-222.17C500.07,-211.42 429.7,-195.25 389.7,-186.05"/>
<polygon fill="midnightblue" stroke="midnightblue" points="546.23,-225.62 556.76,-224.44 547.8,-218.79 546.23,-225.62"/>
</g>
<!-- Node19 -->
<g id="node19" class="node">
<title>Node19</title>
<g id="a_node19"><a xlink:href="../../df/dbd/instantiated__plan_8cpp.html" target="_top" xlink:title=" ">
<polygon fill="white" stroke="black" points="545,-168.5 545,-187.5 653,-187.5 653,-168.5 545,-168.5"/>
<text text-anchor="middle" x="599" y="-175.5" font-family="Helvetica,sans-Serif" font-size="10.00">instantiated_plan.cpp</text>
</a>
</g>
</g>
<!-- Node18&#45;&gt;Node19 -->
<g id="edge22" class="edge">
<title>Node18&#45;&gt;Node19</title>
<path fill="none" stroke="midnightblue" d="M595.75,-214.1C596.58,-205.14 597.53,-194.86 598.19,-187.75"/>
<polygon fill="midnightblue" stroke="midnightblue" points="592.26,-213.8 594.83,-224.08 599.23,-214.45 592.26,-213.8"/>
</g>
<!-- Node21&#45;&gt;Node15 -->
<g id="edge28" class="edge">
<title>Node21&#45;&gt;Node15</title>
<path fill="none" stroke="midnightblue" d="M509.18,-385.54C519.88,-375.91 533.26,-363.87 542.18,-355.83"/>
<polygon fill="midnightblue" stroke="midnightblue" points="506.73,-383.03 501.64,-392.32 511.41,-388.24 506.73,-383.03"/>
</g>
<!-- Node22 -->
<g id="node22" class="node">
<title>Node22</title>
<g id="a_node22"><a xlink:href="../../d4/d8b/body__instruction_8cpp.html" target="_top" xlink:title=" ">
<polygon fill="white" stroke="black" points="406.5,-336.5 406.5,-355.5 511.5,-355.5 511.5,-336.5 406.5,-336.5"/>
<text text-anchor="middle" x="459" y="-343.5" font-family="Helvetica,sans-Serif" font-size="10.00">body_instruction.cpp</text>
</a>
</g>
</g>
<!-- Node21&#45;&gt;Node22 -->
<g id="edge29" class="edge">
<title>Node21&#45;&gt;Node22</title>
<path fill="none" stroke="midnightblue" d="M481.17,-383.27C475.53,-374.05 468.88,-363.17 464.35,-355.75"/>
<polygon fill="midnightblue" stroke="midnightblue" points="478.35,-385.38 486.55,-392.08 484.32,-381.73 478.35,-385.38"/>
</g>
<!-- Node23&#45;&gt;Node17 -->
<g id="edge32" class="edge">
<title>Node23&#45;&gt;Node17</title>
<path fill="none" stroke="midnightblue" d="M694.93,-383.3C698.9,-375.24 703,-365.41 705,-356 709.33,-335.61 698.93,-312.15 692.2,-299.75"/>
<polygon fill="midnightblue" stroke="midnightblue" points="691.69,-381.93 690.13,-392.41 697.89,-385.19 691.69,-381.93"/>
</g>
<!-- Node24 -->
<g id="node24" class="node">
<title>Node24</title>
<g id="a_node24"><a xlink:href="../../db/d12/context_8cpp.html" target="_top" xlink:title=" ">
<polygon fill="white" stroke="black" points="630,-336.5 630,-355.5 696,-355.5 696,-336.5 630,-336.5"/>
<text text-anchor="middle" x="663" y="-343.5" font-family="Helvetica,sans-Serif" font-size="10.00">context.cpp</text>
</a>
</g>
</g>
<!-- Node23&#45;&gt;Node24 -->
<g id="edge31" class="edge">
<title>Node23&#45;&gt;Node24</title>
<path fill="none" stroke="midnightblue" d="M677.54,-382.69C673.83,-373.59 669.52,-363.01 666.57,-355.75"/>
<polygon fill="midnightblue" stroke="midnightblue" points="674.35,-384.14 681.37,-392.08 680.84,-381.5 674.35,-384.14"/>
</g>
<!-- Node25&#45;&gt;Node4 -->
<g id="edge34" class="edge">
<title>Node25&#45;&gt;Node4</title>
<path fill="none" stroke="midnightblue" d="M396.21,-556.52C380.12,-549.14 361.68,-538.4 349,-524 334.22,-507.22 327.25,-480.98 324.51,-467.55"/>
<polygon fill="midnightblue" stroke="midnightblue" points="395.28,-559.93 405.85,-560.68 398.05,-553.5 395.28,-559.93"/>
</g>
<!-- Node25&#45;&gt;Node13 -->
<g id="edge44" class="edge">
<title>Node25&#45;&gt;Node13</title>
<path fill="none" stroke="midnightblue" d="M395.98,-559.86C338.55,-542.32 224.38,-497.84 181,-412 148.2,-347.09 231.12,-269.57 261.98,-243.8"/>
<polygon fill="midnightblue" stroke="midnightblue" points="395.1,-563.25 405.69,-562.73 397.09,-556.54 395.1,-563.25"/>
</g>
<!-- Node26 -->
<g id="node26" class="node">
<title>Node26</title>
<g id="a_node26"><a xlink:href="../../df/d1b/event_8cpp.html" target="_top" xlink:title=" ">
<polygon fill="white" stroke="black" points="358.5,-504.5 358.5,-523.5 417.5,-523.5 417.5,-504.5 358.5,-504.5"/>
<text text-anchor="middle" x="388" y="-511.5" font-family="Helvetica,sans-Serif" font-size="10.00">event.cpp</text>
</a>
</g>
</g>
<!-- Node25&#45;&gt;Node26 -->
<g id="edge35" class="edge">
<title>Node25&#45;&gt;Node26</title>
<path fill="none" stroke="midnightblue" d="M416.89,-552.14C409.57,-542.74 400.76,-531.4 394.81,-523.75"/>
<polygon fill="midnightblue" stroke="midnightblue" points="414.16,-554.34 423.06,-560.08 419.69,-550.04 414.16,-554.34"/>
</g>
<!-- Node27 -->
<g id="node27" class="node">
<title>Node27</title>
<g id="a_node27"><a xlink:href="../../d7/dc4/event__base_8h.html" target="_top" xlink:title=" ">
<polygon fill="white" stroke="black" points="531,-504.5 531,-523.5 605,-523.5 605,-504.5 531,-504.5"/>
<text text-anchor="middle" x="568" y="-511.5" font-family="Helvetica,sans-Serif" font-size="10.00">event_base.h</text>
</a>
</g>
</g>
<!-- Node25&#45;&gt;Node27 -->
<g id="edge36" class="edge">
<title>Node25&#45;&gt;Node27</title>
<path fill="none" stroke="midnightblue" d="M461.25,-556.77C487.17,-546.63 523.36,-532.47 546.24,-523.52"/>
<polygon fill="midnightblue" stroke="midnightblue" points="459.9,-553.54 451.87,-560.44 462.45,-560.06 459.9,-553.54"/>
</g>
<!-- Node29 -->
<g id="node29" class="node">
<title>Node29</title>
<g id="a_node29"><a xlink:href="../../d9/ded/body__return_8h.html" target="_top" xlink:title=" ">
<polygon fill="white" stroke="black" points="436,-504.5 436,-523.5 510,-523.5 510,-504.5 436,-504.5"/>
<text text-anchor="middle" x="473" y="-511.5" font-family="Helvetica,sans-Serif" font-size="10.00">body_return.h</text>
</a>
</g>
</g>
<!-- Node25&#45;&gt;Node29 -->
<g id="edge45" class="edge">
<title>Node25&#45;&gt;Node29</title>
<path fill="none" stroke="midnightblue" d="M443.42,-552.14C450.91,-542.74 459.94,-531.4 466.03,-523.75"/>
<polygon fill="midnightblue" stroke="midnightblue" points="440.59,-550.08 437.1,-560.08 446.07,-554.44 440.59,-550.08"/>
</g>
<!-- Node27&#45;&gt;Node4 -->
<g id="edge38" class="edge">
<title>Node27&#45;&gt;Node4</title>
<path fill="none" stroke="midnightblue" d="M520.89,-502.62C474.05,-492.29 403.16,-476.67 360.16,-467.19"/>
<polygon fill="midnightblue" stroke="midnightblue" points="520.27,-506.06 530.79,-504.8 521.78,-499.23 520.27,-506.06"/>
</g>
<!-- Node27&#45;&gt;Node5 -->
<g id="edge37" class="edge">
<title>Node27&#45;&gt;Node5</title>
<path fill="none" stroke="midnightblue" d="M574.88,-494.92C589.24,-454.07 618.17,-352.58 582,-280 570.42,-256.76 555.47,-261.17 536,-244 473.54,-188.91 464.08,-168.62 403,-112 388.99,-99.01 372.18,-84.68 361.54,-75.76"/>
<polygon fill="midnightblue" stroke="midnightblue" points="571.58,-493.76 571.44,-504.35 578.15,-496.15 571.58,-493.76"/>
</g>
<!-- Node27&#45;&gt;Node11 -->
<g id="edge40" class="edge">
<title>Node27&#45;&gt;Node11</title>
<path fill="none" stroke="midnightblue" d="M614.9,-503.03C666.16,-491.93 742.68,-474.67 755,-468 792.06,-447.95 824,-445.13 824,-403 824,-403 824,-403 824,-233 824,-149.44 700.61,-129.22 632.65,-124.42"/>
<polygon fill="midnightblue" stroke="midnightblue" points="614.05,-499.63 605.01,-505.17 615.52,-506.48 614.05,-499.63"/>
</g>
<!-- Node27&#45;&gt;Node15 -->
<g id="edge41" class="edge">
<title>Node27&#45;&gt;Node15</title>
<path fill="none" stroke="midnightblue" d="M566.16,-493.93C562.69,-457.92 555.3,-381.23 552.83,-355.57"/>
<polygon fill="midnightblue" stroke="midnightblue" points="562.7,-494.46 567.14,-504.08 569.66,-493.79 562.7,-494.46"/>
</g>
<!-- Node27&#45;&gt;Node17 -->
<g id="edge43" class="edge">
<title>Node27&#45;&gt;Node17</title>
<path fill="none" stroke="midnightblue" d="M614.89,-502.91C659.85,-492.76 721.93,-477.32 729,-468 742.74,-449.9 782.1,-506.95 719,-336 713.82,-321.97 703.07,-308.33 695.46,-299.81"/>
<polygon fill="midnightblue" stroke="midnightblue" points="614.01,-499.52 605.01,-505.12 615.54,-506.35 614.01,-499.52"/>
</g>
<!-- Node27&#45;&gt;Node21 -->
<g id="edge42" class="edge">
<title>Node27&#45;&gt;Node21</title>
<path fill="none" stroke="midnightblue" d="M556.22,-495.96C539.75,-472.12 510.45,-429.71 497.94,-411.59"/>
<polygon fill="midnightblue" stroke="midnightblue" points="553.47,-498.13 562.04,-504.37 559.23,-494.15 553.47,-498.13"/>
</g>
<!-- Node28 -->
<g id="node28" class="node">
<title>Node28</title>
<g id="a_node28"><a xlink:href="../../d8/ddf/event__base_8cpp.html" target="_top" xlink:title=" ">
<polygon fill="white" stroke="black" points="634.5,-448.5 634.5,-467.5 719.5,-467.5 719.5,-448.5 634.5,-448.5"/>
<text text-anchor="middle" x="677" y="-455.5" font-family="Helvetica,sans-Serif" font-size="10.00">event_base.cpp</text>
</a>
</g>
</g>
<!-- Node27&#45;&gt;Node28 -->
<g id="edge39" class="edge">
<title>Node27&#45;&gt;Node28</title>
<path fill="none" stroke="midnightblue" d="M594.52,-499.86C614.73,-489.85 641.99,-476.35 659.53,-467.65"/>
<polygon fill="midnightblue" stroke="midnightblue" points="592.92,-496.75 585.51,-504.32 596.03,-503.02 592.92,-496.75"/>
</g>
<!-- Node29&#45;&gt;Node21 -->
<g id="edge46" class="edge">
<title>Node29&#45;&gt;Node21</title>
<path fill="none" stroke="midnightblue" d="M476.22,-494.35C480.38,-470.25 487.46,-429.31 490.52,-411.59"/>
<polygon fill="midnightblue" stroke="midnightblue" points="472.74,-493.92 474.49,-504.37 479.64,-495.11 472.74,-493.92"/>
</g>
<!-- Node30 -->
<g id="node30" class="node">
<title>Node30</title>
<g id="a_node30"><a xlink:href="../../de/dc0/body__return_8cpp.html" target="_top" xlink:title=" ">
<polygon fill="white" stroke="black" points="378.5,-448.5 378.5,-467.5 463.5,-467.5 463.5,-448.5 378.5,-448.5"/>
<text text-anchor="middle" x="421" y="-455.5" font-family="Helvetica,sans-Serif" font-size="10.00">body_return.cpp</text>
</a>
</g>
</g>
<!-- Node29&#45;&gt;Node30 -->
<g id="edge47" class="edge">
<title>Node29&#45;&gt;Node30</title>
<path fill="none" stroke="midnightblue" d="M457.32,-496.72C448.16,-487.2 436.95,-475.56 429.43,-467.75"/>
<polygon fill="midnightblue" stroke="midnightblue" points="454.96,-499.31 464.41,-504.08 460,-494.45 454.96,-499.31"/>
</g>
<!-- Node31&#45;&gt;Node23 -->
<g id="edge49" class="edge">
<title>Node31&#45;&gt;Node23</title>
<path fill="none" stroke="midnightblue" d="M666.82,-557.78C697.16,-549.32 732.98,-536.98 742,-524 752.88,-508.35 740.93,-469.78 729,-448 720.92,-433.24 706.64,-419.96 696.54,-411.71"/>
<polygon fill="midnightblue" stroke="midnightblue" points="665.52,-554.51 656.79,-560.5 667.35,-561.26 665.52,-554.51"/>
</g>
<!-- Node32 -->
<g id="node32" class="node">
<title>Node32</title>
<g id="a_node32"><a xlink:href="../../d6/d2e/context__condition_8cpp.html" target="_top" xlink:title=" ">
<polygon fill="white" stroke="black" points="623,-504.5 623,-523.5 733,-523.5 733,-504.5 623,-504.5"/>
<text text-anchor="middle" x="678" y="-511.5" font-family="Helvetica,sans-Serif" font-size="10.00">context_condition.cpp</text>
</a>
</g>
</g>
<!-- Node31&#45;&gt;Node32 -->
<g id="edge50" class="edge">
<title>Node31&#45;&gt;Node32</title>
<path fill="none" stroke="midnightblue" d="M637.62,-553.25C647.73,-543.67 660.28,-531.79 668.68,-523.83"/>
<polygon fill="midnightblue" stroke="midnightblue" points="635.01,-550.91 630.16,-560.32 639.82,-555.99 635.01,-550.91"/>
</g>
</g>
</svg>
