<?xml version="1.0" encoding="UTF-8" standalone="no"?>
<!DOCTYPE svg PUBLIC "-//W3C//DTD SVG 1.1//EN"
 "http://www.w3.org/Graphics/SVG/1.1/DTD/svg11.dtd">
<!-- Generated by graphviz version 2.48.0 (20210719.0153)
 -->
<!-- Title: instantiated_plan.h Pages: 1 -->
<svg width="308pt" height="252pt"
 viewBox="0.00 0.00 308.00 252.00" xmlns="http://www.w3.org/2000/svg" xmlns:xlink="http://www.w3.org/1999/xlink">
<g id="graph0" class="graph" transform="scale(1 1) rotate(0) translate(4 248)">
<title>instantiated_plan.h</title>
<polygon fill="white" stroke="transparent" points="-4,4 -4,-248 304,-248 304,4 -4,4"/>
<!-- Node1 -->
<g id="node1" class="node">
<title>Node1</title>
<g id="a_node1"><a xlink:title=" ">
<polygon fill="#bfbfbf" stroke="black" points="56,-224.5 56,-243.5 154,-243.5 154,-224.5 56,-224.5"/>
<text text-anchor="middle" x="105" y="-231.5" font-family="Helvetica,sans-Serif" font-size="10.00">instantiated_plan.h</text>
</a>
</g>
</g>
<!-- Node2 -->
<g id="node2" class="node">
<title>Node2</title>
<g id="a_node2"><a xlink:href="../../df/dbd/instantiated__plan_8cpp.html" target="_top" xlink:title=" ">
<polygon fill="white" stroke="black" points="0,-168.5 0,-187.5 108,-187.5 108,-168.5 0,-168.5"/>
<text text-anchor="middle" x="54" y="-175.5" font-family="Helvetica,sans-Serif" font-size="10.00">instantiated_plan.cpp</text>
</a>
</g>
</g>
<!-- Node1&#45;&gt;Node2 -->
<g id="edge1" class="edge">
<title>Node1&#45;&gt;Node2</title>
<path fill="none" stroke="midnightblue" d="M89.62,-216.72C80.63,-207.2 69.64,-195.56 62.26,-187.75"/>
<polygon fill="midnightblue" stroke="midnightblue" points="87.17,-219.22 96.58,-224.08 92.26,-214.41 87.17,-219.22"/>
</g>
<!-- Node3 -->
<g id="node3" class="node">
<title>Node3</title>
<g id="a_node3"><a xlink:href="../../df/d3f/intention_8h.html" target="_top" xlink:title=" ">
<polygon fill="white" stroke="black" points="126.5,-168.5 126.5,-187.5 187.5,-187.5 187.5,-168.5 126.5,-168.5"/>
<text text-anchor="middle" x="157" y="-175.5" font-family="Helvetica,sans-Serif" font-size="10.00">intention.h</text>
</a>
</g>
</g>
<!-- Node1&#45;&gt;Node3 -->
<g id="edge2" class="edge">
<title>Node1&#45;&gt;Node3</title>
<path fill="none" stroke="midnightblue" d="M120.68,-216.72C129.84,-207.2 141.05,-195.56 148.57,-187.75"/>
<polygon fill="midnightblue" stroke="midnightblue" points="118,-214.45 113.59,-224.08 123.04,-219.31 118,-214.45"/>
</g>
<!-- Node4 -->
<g id="node4" class="node">
<title>Node4</title>
<g id="a_node4"><a xlink:href="../../d4/db4/intention_8cpp.html" target="_top" xlink:title=" ">
<polygon fill="white" stroke="black" points="73.5,-112.5 73.5,-131.5 144.5,-131.5 144.5,-112.5 73.5,-112.5"/>
<text text-anchor="middle" x="109" y="-119.5" font-family="Helvetica,sans-Serif" font-size="10.00">intention.cpp</text>
</a>
</g>
</g>
<!-- Node3&#45;&gt;Node4 -->
<g id="edge3" class="edge">
<title>Node3&#45;&gt;Node4</title>
<path fill="none" stroke="midnightblue" d="M142.27,-160.43C133.86,-150.97 123.65,-139.48 116.78,-131.75"/>
<polygon fill="midnightblue" stroke="midnightblue" points="139.81,-162.93 149.07,-168.08 145.05,-158.28 139.81,-162.93"/>
</g>
<!-- Node5 -->
<g id="node5" class="node">
<title>Node5</title>
<g id="a_node5"><a xlink:href="../../d8/d83/intention__base_8h.html" target="_top" xlink:title=" ">
<polygon fill="white" stroke="black" points="162.5,-112.5 162.5,-131.5 249.5,-131.5 249.5,-112.5 162.5,-112.5"/>
<text text-anchor="middle" x="206" y="-119.5" font-family="Helvetica,sans-Serif" font-size="10.00">intention_base.h</text>
</a>
</g>
</g>
<!-- Node3&#45;&gt;Node5 -->
<g id="edge4" class="edge">
<title>Node3&#45;&gt;Node5</title>
<path fill="none" stroke="midnightblue" d="M172.03,-160.43C180.62,-150.97 191.04,-139.48 198.06,-131.75"/>
<polygon fill="midnightblue" stroke="midnightblue" points="169.22,-158.33 165.09,-168.08 174.4,-163.03 169.22,-158.33"/>
</g>
<!-- Node6 -->
<g id="node6" class="node">
<title>Node6</title>
<g id="a_node6"><a xlink:href="../../de/d9e/agent_8h.html" target="_top" xlink:title=" ">
<polygon fill="white" stroke="black" points="136,-56.5 136,-75.5 184,-75.5 184,-56.5 136,-56.5"/>
<text text-anchor="middle" x="160" y="-63.5" font-family="Helvetica,sans-Serif" font-size="10.00">agent.h</text>
</a>
</g>
</g>
<!-- Node5&#45;&gt;Node6 -->
<g id="edge5" class="edge">
<title>Node5&#45;&gt;Node6</title>
<path fill="none" stroke="midnightblue" d="M191.89,-104.43C183.82,-94.97 174.04,-83.48 167.45,-75.75"/>
<polygon fill="midnightblue" stroke="midnightblue" points="189.25,-106.74 198.4,-112.08 194.58,-102.2 189.25,-106.74"/>
</g>
<!-- Node9 -->
<g id="node9" class="node">
<title>Node9</title>
<g id="a_node9"><a xlink:href="../../d2/dd9/intention__base_8cpp.html" target="_top" xlink:title=" ">
<polygon fill="white" stroke="black" points="202,-56.5 202,-75.5 300,-75.5 300,-56.5 202,-56.5"/>
<text text-anchor="middle" x="251" y="-63.5" font-family="Helvetica,sans-Serif" font-size="10.00">intention_base.cpp</text>
</a>
</g>
</g>
<!-- Node5&#45;&gt;Node9 -->
<g id="edge8" class="edge">
<title>Node5&#45;&gt;Node9</title>
<path fill="none" stroke="midnightblue" d="M220.05,-104.14C227.89,-94.74 237.33,-83.4 243.71,-75.75"/>
<polygon fill="midnightblue" stroke="midnightblue" points="217.14,-102.16 213.43,-112.08 222.52,-106.64 217.14,-102.16"/>
</g>
<!-- Node7 -->
<g id="node7" class="node">
<title>Node7</title>
<g id="a_node7"><a xlink:href="../../dd/d3d/agent_8cpp.html" target="_top" xlink:title=" ">
<polygon fill="white" stroke="black" points="86.5,-0.5 86.5,-19.5 145.5,-19.5 145.5,-0.5 86.5,-0.5"/>
<text text-anchor="middle" x="116" y="-7.5" font-family="Helvetica,sans-Serif" font-size="10.00">agent.cpp</text>
</a>
</g>
</g>
<!-- Node6&#45;&gt;Node7 -->
<g id="edge6" class="edge">
<title>Node6&#45;&gt;Node7</title>
<path fill="none" stroke="midnightblue" d="M146.27,-48.14C138.6,-38.74 129.37,-27.4 123.13,-19.75"/>
<polygon fill="midnightblue" stroke="midnightblue" points="143.7,-50.54 152.73,-56.08 149.13,-46.12 143.7,-50.54"/>
</g>
<!-- Node8 -->
<g id="node8" class="node">
<title>Node8</title>
<g id="a_node8"><a xlink:href="../../d4/d91/agent__loop_8cpp.html" target="_top" xlink:title=" ">
<polygon fill="white" stroke="black" points="164,-0.5 164,-19.5 246,-19.5 246,-0.5 164,-0.5"/>
<text text-anchor="middle" x="205" y="-7.5" font-family="Helvetica,sans-Serif" font-size="10.00">agent_loop.cpp</text>
</a>
</g>
</g>
<!-- Node6&#45;&gt;Node8 -->
<g id="edge7" class="edge">
<title>Node6&#45;&gt;Node8</title>
<path fill="none" stroke="midnightblue" d="M174.05,-48.14C181.89,-38.74 191.33,-27.4 197.71,-19.75"/>
<polygon fill="midnightblue" stroke="midnightblue" points="171.14,-46.16 167.43,-56.08 176.52,-50.64 171.14,-46.16"/>
</g>
</g>
</svg>
