<?xml version="1.0" encoding="UTF-8" standalone="no"?>
<!DOCTYPE svg PUBLIC "-//W3C//DTD SVG 1.1//EN"
 "http://www.w3.org/Graphics/SVG/1.1/DTD/svg11.dtd">
<!-- Generated by graphviz version 2.46.1 (20210215.1649)
 -->
<!-- Title: Intention Pages: 1 -->
<svg width="275pt" height="694pt"
 viewBox="0.00 0.00 275.00 694.00" xmlns="http://www.w3.org/2000/svg" xmlns:xlink="http://www.w3.org/1999/xlink">
<g id="graph0" class="graph" transform="scale(1 1) rotate(0) translate(4 690)">
<title>Intention</title>
<polygon fill="white" stroke="transparent" points="-4,4 -4,-690 271,-690 271,4 -4,4"/>
<!-- Node1 -->
<g id="node1" class="node">
<title>Node1</title>
<g id="a_node1"><a xlink:title=" ">
<polygon fill="#bfbfbf" stroke="black" points="30,-0.5 30,-200.5 158,-200.5 158,-0.5 30,-0.5"/>
<text text-anchor="middle" x="94" y="-188.5" font-family="Helvetica,sans-Serif" font-size="10.00">Intention</text>
<polyline fill="none" stroke="black" points="30,-181.5 158,-181.5 "/>
<text text-anchor="start" x="38" y="-169.5" font-family="Helvetica,sans-Serif" font-size="10.00">&#45; _size</text>
<text text-anchor="start" x="38" y="-158.5" font-family="Helvetica,sans-Serif" font-size="10.00">&#45; suspended_by_belief</text>
<text text-anchor="start" x="38" y="-147.5" font-family="Helvetica,sans-Serif" font-size="10.00">_event</text>
<polyline fill="none" stroke="black" points="30,-140.5 158,-140.5 "/>
<text text-anchor="start" x="38" y="-128.5" font-family="Helvetica,sans-Serif" font-size="10.00">+ Intention()</text>
<text text-anchor="start" x="38" y="-117.5" font-family="Helvetica,sans-Serif" font-size="10.00">+ stack_plan()</text>
<text text-anchor="start" x="38" y="-106.5" font-family="Helvetica,sans-Serif" font-size="10.00">+ run_intention()</text>
<text text-anchor="start" x="38" y="-95.5" font-family="Helvetica,sans-Serif" font-size="10.00">+ is_suspended_by()</text>
<text text-anchor="start" x="38" y="-84.5" font-family="Helvetica,sans-Serif" font-size="10.00">+ is_finished()</text>
<text text-anchor="start" x="38" y="-73.5" font-family="Helvetica,sans-Serif" font-size="10.00">+ terminate()</text>
<text text-anchor="start" x="38" y="-62.5" font-family="Helvetica,sans-Serif" font-size="10.00">+ is_suspended()</text>
<text text-anchor="start" x="38" y="-51.5" font-family="Helvetica,sans-Serif" font-size="10.00">+ is_suspended_by_belief</text>
<text text-anchor="start" x="38" y="-40.5" font-family="Helvetica,sans-Serif" font-size="10.00">_event()</text>
<text text-anchor="start" x="38" y="-29.5" font-family="Helvetica,sans-Serif" font-size="10.00">+ get_event_id()</text>
<text text-anchor="start" x="38" y="-18.5" font-family="Helvetica,sans-Serif" font-size="10.00">+ unsuspend()</text>
<text text-anchor="start" x="38" y="-7.5" font-family="Helvetica,sans-Serif" font-size="10.00">&#45; suspend()</text>
</a>
</g>
</g>
<!-- Node2 -->
<g id="node2" class="node">
<title>Node2</title>
<g id="a_node2"><a xlink:href="../../d6/d06/class_event_i_d.html" target="_top" xlink:title=" ">
<polygon fill="white" stroke="black" points="0,-298 0,-399 92,-399 92,-298 0,-298"/>
<text text-anchor="middle" x="46" y="-387" font-family="Helvetica,sans-Serif" font-size="10.00">EventID</text>
<polyline fill="none" stroke="black" points="0,-380 92,-380 "/>
<text text-anchor="start" x="8" y="-368" font-family="Helvetica,sans-Serif" font-size="10.00"># id</text>
<text text-anchor="start" x="8" y="-357" font-family="Helvetica,sans-Serif" font-size="10.00">&#45; _id</text>
<polyline fill="none" stroke="black" points="0,-350 92,-350 "/>
<text text-anchor="start" x="8" y="-338" font-family="Helvetica,sans-Serif" font-size="10.00">+ EventID()</text>
<text text-anchor="start" x="8" y="-327" font-family="Helvetica,sans-Serif" font-size="10.00">+ is_equal()</text>
<text text-anchor="start" x="8" y="-316" font-family="Helvetica,sans-Serif" font-size="10.00">+ get_id()</text>
<text text-anchor="start" x="8" y="-305" font-family="Helvetica,sans-Serif" font-size="10.00">+ get_control_id()</text>
</a>
</g>
</g>
<!-- Node2&#45;&gt;Node1 -->
<g id="edge1" class="edge">
<title>Node2&#45;&gt;Node1</title>
<path fill="none" stroke="#404040" d="M51.65,-297.86C54.71,-273.92 58.9,-244.86 64,-219 64.42,-216.85 64.86,-214.67 65.32,-212.49"/>
<polygon fill="none" stroke="#404040" points="65.33,-212.42 62.68,-205.71 67.85,-200.69 70.5,-207.39 65.33,-212.42"/>
<text text-anchor="middle" x="100.5" y="-222" font-family="Helvetica,sans-Serif" font-size="10.00"> &#45;_suspended_by</text>
</g>
<!-- Node3 -->
<g id="node3" class="node">
<title>Node3</title>
<g id="a_node3"><a xlink:href="../../df/d28/class_vector_queue.html" target="_top" xlink:title=" ">
<polygon fill="white" stroke="black" points="110.5,-248.5 110.5,-448.5 243.5,-448.5 243.5,-248.5 110.5,-248.5"/>
<text text-anchor="start" x="118.5" y="-436.5" font-family="Helvetica,sans-Serif" font-size="10.00">VectorQueue&lt; Instantiated</text>
<text text-anchor="middle" x="177" y="-425.5" font-family="Helvetica,sans-Serif" font-size="10.00">Plan &gt;</text>
<polyline fill="none" stroke="black" points="110.5,-418.5 243.5,-418.5 "/>
<text text-anchor="start" x="118.5" y="-406.5" font-family="Helvetica,sans-Serif" font-size="10.00">&#45; _queue</text>
<text text-anchor="start" x="118.5" y="-395.5" font-family="Helvetica,sans-Serif" font-size="10.00">&#45; _capacity</text>
<polyline fill="none" stroke="black" points="110.5,-388.5 243.5,-388.5 "/>
<text text-anchor="start" x="118.5" y="-376.5" font-family="Helvetica,sans-Serif" font-size="10.00">+ init()</text>
<text text-anchor="start" x="118.5" y="-365.5" font-family="Helvetica,sans-Serif" font-size="10.00">+ push_front()</text>
<text text-anchor="start" x="118.5" y="-354.5" font-family="Helvetica,sans-Serif" font-size="10.00">+ push_back()</text>
<text text-anchor="start" x="118.5" y="-343.5" font-family="Helvetica,sans-Serif" font-size="10.00">+ pop_back()</text>
<text text-anchor="start" x="118.5" y="-332.5" font-family="Helvetica,sans-Serif" font-size="10.00">+ front()</text>
<text text-anchor="start" x="118.5" y="-321.5" font-family="Helvetica,sans-Serif" font-size="10.00">+ back()</text>
<text text-anchor="start" x="118.5" y="-310.5" font-family="Helvetica,sans-Serif" font-size="10.00">+ item_at()</text>
<text text-anchor="start" x="118.5" y="-299.5" font-family="Helvetica,sans-Serif" font-size="10.00">+ erase()</text>
<text text-anchor="start" x="118.5" y="-288.5" font-family="Helvetica,sans-Serif" font-size="10.00">+ rotate()</text>
<text text-anchor="start" x="118.5" y="-277.5" font-family="Helvetica,sans-Serif" font-size="10.00">+ size()</text>
<text text-anchor="start" x="118.5" y="-266.5" font-family="Helvetica,sans-Serif" font-size="10.00">+ is_empty()</text>
<text text-anchor="start" x="118.5" y="-255.5" font-family="Helvetica,sans-Serif" font-size="10.00">+ is_full()</text>
</a>
</g>
</g>
<!-- Node3&#45;&gt;Node1 -->
<g id="edge2" class="edge">
<title>Node3&#45;&gt;Node1</title>
<path fill="none" stroke="#404040" d="M146.69,-248.42C143.49,-238.46 140.22,-228.52 137,-219 136.24,-216.76 135.47,-214.5 134.69,-212.23"/>
<polygon fill="none" stroke="#404040" points="134.64,-212.08 128.89,-207.72 130.71,-200.74 136.45,-205.1 134.64,-212.08"/>
<text text-anchor="middle" x="158" y="-222" font-family="Helvetica,sans-Serif" font-size="10.00"> &#45;_plans</text>
</g>
<!-- Node4 -->
<g id="node4" class="node">
<title>Node4</title>
<g id="a_node4"><a xlink:href="../../df/d28/class_vector_queue.html" target="_top" xlink:title=" ">
<polygon fill="white" stroke="black" points="128.5,-496.5 128.5,-685.5 225.5,-685.5 225.5,-496.5 128.5,-496.5"/>
<text text-anchor="middle" x="177" y="-673.5" font-family="Helvetica,sans-Serif" font-size="10.00">VectorQueue&lt; X &gt;</text>
<polyline fill="none" stroke="black" points="128.5,-666.5 225.5,-666.5 "/>
<text text-anchor="start" x="136.5" y="-654.5" font-family="Helvetica,sans-Serif" font-size="10.00">&#45; _queue</text>
<text text-anchor="start" x="136.5" y="-643.5" font-family="Helvetica,sans-Serif" font-size="10.00">&#45; _capacity</text>
<polyline fill="none" stroke="black" points="128.5,-636.5 225.5,-636.5 "/>
<text text-anchor="start" x="136.5" y="-624.5" font-family="Helvetica,sans-Serif" font-size="10.00">+ init()</text>
<text text-anchor="start" x="136.5" y="-613.5" font-family="Helvetica,sans-Serif" font-size="10.00">+ push_front()</text>
<text text-anchor="start" x="136.5" y="-602.5" font-family="Helvetica,sans-Serif" font-size="10.00">+ push_back()</text>
<text text-anchor="start" x="136.5" y="-591.5" font-family="Helvetica,sans-Serif" font-size="10.00">+ pop_back()</text>
<text text-anchor="start" x="136.5" y="-580.5" font-family="Helvetica,sans-Serif" font-size="10.00">+ front()</text>
<text text-anchor="start" x="136.5" y="-569.5" font-family="Helvetica,sans-Serif" font-size="10.00">+ back()</text>
<text text-anchor="start" x="136.5" y="-558.5" font-family="Helvetica,sans-Serif" font-size="10.00">+ item_at()</text>
<text text-anchor="start" x="136.5" y="-547.5" font-family="Helvetica,sans-Serif" font-size="10.00">+ erase()</text>
<text text-anchor="start" x="136.5" y="-536.5" font-family="Helvetica,sans-Serif" font-size="10.00">+ rotate()</text>
<text text-anchor="start" x="136.5" y="-525.5" font-family="Helvetica,sans-Serif" font-size="10.00">+ size()</text>
<text text-anchor="start" x="136.5" y="-514.5" font-family="Helvetica,sans-Serif" font-size="10.00">+ is_empty()</text>
<text text-anchor="start" x="136.5" y="-503.5" font-family="Helvetica,sans-Serif" font-size="10.00">+ is_full()</text>
</a>
</g>
</g>
<!-- Node4&#45;&gt;Node3 -->
<g id="edge3" class="edge">
<title>Node4&#45;&gt;Node3</title>
<path fill="none" stroke="orange" d="M177,-486.04C177,-473.71 177,-461.14 177,-448.88"/>
<polygon fill="orange" stroke="orange" points="173.5,-486.33 177,-496.33 180.5,-486.33 173.5,-486.33"/>
<text text-anchor="middle" x="222" y="-470" font-family="Helvetica,sans-Serif" font-size="10.00"> &lt; InstantiatedPlan &gt;</text>
</g>
</g>
</svg>
