<?xml version="1.0" encoding="UTF-8" standalone="no"?>
<!DOCTYPE svg PUBLIC "-//W3C//DTD SVG 1.1//EN"
 "http://www.w3.org/Graphics/SVG/1.1/DTD/svg11.dtd">
<!-- Generated by graphviz version 5.0.0 (20220708.1001)
 -->
<!-- Title: Intention Pages: 1 -->
<svg width="252pt" height="694pt"
 viewBox="0.00 0.00 251.50 694.00" xmlns="http://www.w3.org/2000/svg" xmlns:xlink="http://www.w3.org/1999/xlink">
<g id="graph0" class="graph" transform="scale(1 1) rotate(0) translate(4 690)">
<title>Intention</title>
<polygon fill="white" stroke="transparent" points="-4,4 -4,-690 247.5,-690 247.5,4 -4,4"/>
<!-- Node1 -->
<g id="node1" class="node">
<title>Node1</title>
<g id="a_node1"><a xlink:title=" ">
<polygon fill="#bfbfbf" stroke="black" points="67.5,-0.5 67.5,-200.5 195.5,-200.5 195.5,-0.5 67.5,-0.5"/>
<text text-anchor="middle" x="131.5" y="-188.5" font-family="Helvetica,sans-Serif" font-size="10.00">Intention</text>
<polyline fill="none" stroke="black" points="67.5,-181.5 195.5,-181.5 "/>
<text text-anchor="start" x="75.5" y="-169.5" font-family="Helvetica,sans-Serif" font-size="10.00">&#45; _size</text>
<text text-anchor="start" x="75.5" y="-158.5" font-family="Helvetica,sans-Serif" font-size="10.00">&#45; suspended_by_belief</text>
<text text-anchor="start" x="75.5" y="-147.5" font-family="Helvetica,sans-Serif" font-size="10.00">_event</text>
<polyline fill="none" stroke="black" points="67.5,-140.5 195.5,-140.5 "/>
<text text-anchor="start" x="75.5" y="-128.5" font-family="Helvetica,sans-Serif" font-size="10.00">+ Intention()</text>
<text text-anchor="start" x="75.5" y="-117.5" font-family="Helvetica,sans-Serif" font-size="10.00">+ stack_plan()</text>
<text text-anchor="start" x="75.5" y="-106.5" font-family="Helvetica,sans-Serif" font-size="10.00">+ run_intention()</text>
<text text-anchor="start" x="75.5" y="-95.5" font-family="Helvetica,sans-Serif" font-size="10.00">+ is_suspended_by()</text>
<text text-anchor="start" x="75.5" y="-84.5" font-family="Helvetica,sans-Serif" font-size="10.00">+ is_finished()</text>
<text text-anchor="start" x="75.5" y="-73.5" font-family="Helvetica,sans-Serif" font-size="10.00">+ terminate()</text>
<text text-anchor="start" x="75.5" y="-62.5" font-family="Helvetica,sans-Serif" font-size="10.00">+ is_suspended()</text>
<text text-anchor="start" x="75.5" y="-51.5" font-family="Helvetica,sans-Serif" font-size="10.00">+ is_suspended_by_belief</text>
<text text-anchor="start" x="75.5" y="-40.5" font-family="Helvetica,sans-Serif" font-size="10.00">_event()</text>
<text text-anchor="start" x="75.5" y="-29.5" font-family="Helvetica,sans-Serif" font-size="10.00">+ get_event_id()</text>
<text text-anchor="start" x="75.5" y="-18.5" font-family="Helvetica,sans-Serif" font-size="10.00">+ unsuspend()</text>
<text text-anchor="start" x="75.5" y="-7.5" font-family="Helvetica,sans-Serif" font-size="10.00">&#45; suspend()</text>
</a>
</g>
</g>
<!-- Node2 -->
<g id="node2" class="node">
<title>Node2</title>
<g id="a_node2"><a xlink:href="../../df/d28/class_vector_queue.html" target="_top" xlink:title=" ">
<polygon fill="white" stroke="black" points="0,-248.5 0,-448.5 133,-448.5 133,-248.5 0,-248.5"/>
<text text-anchor="start" x="8" y="-436.5" font-family="Helvetica,sans-Serif" font-size="10.00">VectorQueue&lt; Instantiated</text>
<text text-anchor="middle" x="66.5" y="-425.5" font-family="Helvetica,sans-Serif" font-size="10.00">Plan &gt;</text>
<polyline fill="none" stroke="black" points="0,-418.5 133,-418.5 "/>
<text text-anchor="start" x="8" y="-406.5" font-family="Helvetica,sans-Serif" font-size="10.00">&#45; _queue</text>
<text text-anchor="start" x="8" y="-395.5" font-family="Helvetica,sans-Serif" font-size="10.00">&#45; _capacity</text>
<polyline fill="none" stroke="black" points="0,-388.5 133,-388.5 "/>
<text text-anchor="start" x="8" y="-376.5" font-family="Helvetica,sans-Serif" font-size="10.00">+ init()</text>
<text text-anchor="start" x="8" y="-365.5" font-family="Helvetica,sans-Serif" font-size="10.00">+ push_front()</text>
<text text-anchor="start" x="8" y="-354.5" font-family="Helvetica,sans-Serif" font-size="10.00">+ push_back()</text>
<text text-anchor="start" x="8" y="-343.5" font-family="Helvetica,sans-Serif" font-size="10.00">+ pop_back()</text>
<text text-anchor="start" x="8" y="-332.5" font-family="Helvetica,sans-Serif" font-size="10.00">+ front()</text>
<text text-anchor="start" x="8" y="-321.5" font-family="Helvetica,sans-Serif" font-size="10.00">+ back()</text>
<text text-anchor="start" x="8" y="-310.5" font-family="Helvetica,sans-Serif" font-size="10.00">+ item_at()</text>
<text text-anchor="start" x="8" y="-299.5" font-family="Helvetica,sans-Serif" font-size="10.00">+ erase()</text>
<text text-anchor="start" x="8" y="-288.5" font-family="Helvetica,sans-Serif" font-size="10.00">+ rotate()</text>
<text text-anchor="start" x="8" y="-277.5" font-family="Helvetica,sans-Serif" font-size="10.00">+ size()</text>
<text text-anchor="start" x="8" y="-266.5" font-family="Helvetica,sans-Serif" font-size="10.00">+ is_empty()</text>
<text text-anchor="start" x="8" y="-255.5" font-family="Helvetica,sans-Serif" font-size="10.00">+ is_full()</text>
</a>
</g>
</g>
<!-- Node2&#45;&gt;Node1 -->
<g id="edge1" class="edge">
<title>Node2&#45;&gt;Node1</title>
<path fill="none" stroke="#404040" d="M92.75,-248.15C95.84,-236.45 99.01,-224.45 102.14,-212.6"/>
<polygon fill="none" stroke="#404040" points="102.19,-212.42 99.86,-205.6 105.26,-200.82 107.59,-207.64 102.19,-212.42"/>
<text text-anchor="middle" x="116.5" y="-222" font-family="Helvetica,sans-Serif" font-size="10.00"> &#45;_plans</text>
</g>
<!-- Node3 -->
<g id="node3" class="node">
<title>Node3</title>
<g id="a_node3"><a xlink:href="../../df/d28/class_vector_queue.html" target="_top" xlink:title=" ">
<polygon fill="white" stroke="black" points="18,-496.5 18,-685.5 115,-685.5 115,-496.5 18,-496.5"/>
<text text-anchor="middle" x="66.5" y="-673.5" font-family="Helvetica,sans-Serif" font-size="10.00">VectorQueue&lt; X &gt;</text>
<polyline fill="none" stroke="black" points="18,-666.5 115,-666.5 "/>
<text text-anchor="start" x="26" y="-654.5" font-family="Helvetica,sans-Serif" font-size="10.00">&#45; _queue</text>
<text text-anchor="start" x="26" y="-643.5" font-family="Helvetica,sans-Serif" font-size="10.00">&#45; _capacity</text>
<polyline fill="none" stroke="black" points="18,-636.5 115,-636.5 "/>
<text text-anchor="start" x="26" y="-624.5" font-family="Helvetica,sans-Serif" font-size="10.00">+ init()</text>
<text text-anchor="start" x="26" y="-613.5" font-family="Helvetica,sans-Serif" font-size="10.00">+ push_front()</text>
<text text-anchor="start" x="26" y="-602.5" font-family="Helvetica,sans-Serif" font-size="10.00">+ push_back()</text>
<text text-anchor="start" x="26" y="-591.5" font-family="Helvetica,sans-Serif" font-size="10.00">+ pop_back()</text>
<text text-anchor="start" x="26" y="-580.5" font-family="Helvetica,sans-Serif" font-size="10.00">+ front()</text>
<text text-anchor="start" x="26" y="-569.5" font-family="Helvetica,sans-Serif" font-size="10.00">+ back()</text>
<text text-anchor="start" x="26" y="-558.5" font-family="Helvetica,sans-Serif" font-size="10.00">+ item_at()</text>
<text text-anchor="start" x="26" y="-547.5" font-family="Helvetica,sans-Serif" font-size="10.00">+ erase()</text>
<text text-anchor="start" x="26" y="-536.5" font-family="Helvetica,sans-Serif" font-size="10.00">+ rotate()</text>
<text text-anchor="start" x="26" y="-525.5" font-family="Helvetica,sans-Serif" font-size="10.00">+ size()</text>
<text text-anchor="start" x="26" y="-514.5" font-family="Helvetica,sans-Serif" font-size="10.00">+ is_empty()</text>
<text text-anchor="start" x="26" y="-503.5" font-family="Helvetica,sans-Serif" font-size="10.00">+ is_full()</text>
</a>
</g>
</g>
<!-- Node3&#45;&gt;Node2 -->
<g id="edge2" class="edge">
<title>Node3&#45;&gt;Node2</title>
<path fill="none" stroke="orange" d="M66.5,-486.04C66.5,-473.71 66.5,-461.14 66.5,-448.88"/>
<polygon fill="orange" stroke="orange" points="63,-486.33 66.5,-496.33 70,-486.33 63,-486.33"/>
<text text-anchor="middle" x="111.5" y="-470" font-family="Helvetica,sans-Serif" font-size="10.00"> &lt; InstantiatedPlan &gt;</text>
</g>
<!-- Node4 -->
<g id="node4" class="node">
<title>Node4</title>
<g id="a_node4"><a xlink:href="../../d6/d06/class_event_i_d.html" target="_top" xlink:title=" ">
<polygon fill="white" stroke="black" points="151.5,-298 151.5,-399 243.5,-399 243.5,-298 151.5,-298"/>
<text text-anchor="middle" x="197.5" y="-387" font-family="Helvetica,sans-Serif" font-size="10.00">EventID</text>
<polyline fill="none" stroke="black" points="151.5,-380 243.5,-380 "/>
<text text-anchor="start" x="159.5" y="-368" font-family="Helvetica,sans-Serif" font-size="10.00"># id</text>
<text text-anchor="start" x="159.5" y="-357" font-family="Helvetica,sans-Serif" font-size="10.00">&#45; _id</text>
<polyline fill="none" stroke="black" points="151.5,-350 243.5,-350 "/>
<text text-anchor="start" x="159.5" y="-338" font-family="Helvetica,sans-Serif" font-size="10.00">+ EventID()</text>
<text text-anchor="start" x="159.5" y="-327" font-family="Helvetica,sans-Serif" font-size="10.00">+ is_equal()</text>
<text text-anchor="start" x="159.5" y="-316" font-family="Helvetica,sans-Serif" font-size="10.00">+ get_id()</text>
<text text-anchor="start" x="159.5" y="-305" font-family="Helvetica,sans-Serif" font-size="10.00">+ get_control_id()</text>
</a>
</g>
</g>
<!-- Node4&#45;&gt;Node1 -->
<g id="edge3" class="edge">
<title>Node4&#45;&gt;Node1</title>
<path fill="none" stroke="#404040" d="M184.14,-297.72C177.53,-273.05 169.25,-242.21 161.24,-212.34"/>
<polygon fill="none" stroke="#404040" points="161.17,-212.1 155.76,-207.34 158.06,-200.51 163.48,-205.27 161.17,-212.1"/>
<text text-anchor="middle" x="201" y="-222" font-family="Helvetica,sans-Serif" font-size="10.00"> &#45;_suspended_by</text>
</g>
</g>
</svg>
