<?xml version="1.0" encoding="UTF-8" standalone="no"?>
<!DOCTYPE svg PUBLIC "-//W3C//DTD SVG 1.1//EN"
 "http://www.w3.org/Graphics/SVG/1.1/DTD/svg11.dtd">
<!-- Generated by graphviz version 2.46.1 (20210215.1649)
 -->
<!-- Title: belief_base.h Pages: 1 -->
<!--zoomable 252 -->
<svg id="main" version="1.1" xmlns="http://www.w3.org/2000/svg" xmlns:xlink="http://www.w3.org/1999/xlink" xml:space="preserve" onload="init(evt)">
<style type="text/css"><![CDATA[
.edge:hover path { stroke: red; }
.edge:hover polygon { stroke: red; fill: red; }
]]></style>
<script type="text/javascript"><![CDATA[
var edges = document.getElementsByTagName('g');
if (edges && edges.length) {
  for (var i=0;i<edges.length;i++) {
    if (edges[i].id.substr(0,4)=='edge') {
      edges[i].setAttribute('class','edge');
    }
  }
}
]]></script>
        <defs>
                <circle id="rim" cx="0" cy="0" r="7"/>
                <circle id="rim2" cx="0" cy="0" r="3.5"/>
                <g id="zoomPlus">
                        <use xlink:href="#rim" fill="#404040">
                                <set attributeName="fill" to="#808080" begin="zoomplus.mouseover" end="zoomplus.mouseout"/>
                        </use>
                        <path d="M-4,0h8M0,-4v8" fill="none" stroke="white" stroke-width="1.5" pointer-events="none"/>
                </g>
                <g id="zoomMin">
                        <use xlink:href="#rim" fill="#404040">
                                <set attributeName="fill" to="#808080" begin="zoomminus.mouseover" end="zoomminus.mouseout"/>
                        </use>
                        <path d="M-4,0h8" fill="none" stroke="white" stroke-width="1.5" pointer-events="none"/>
                </g>
                <g id="dirArrow">
                        <path fill="none" stroke="white" stroke-width="1.5" d="M0,-3.0v7 M-2.5,-0.5L0,-3.0L2.5,-0.5"/>
                </g>
               <g id="resetDef">
                       <use xlink:href="#rim2" fill="#404040">
                               <set attributeName="fill" to="#808080" begin="reset.mouseover" end="reset.mouseout"/>
                       </use>
               </g>
        </defs>

<script type="text/javascript">
var viewWidth = 576;
var viewHeight = 252;
var sectionId = 'dynsection-0';
</script>
<script xlink:href="../../svgpan.js"/>
<svg id="graph" class="graph">
<g id="viewport">
<title>belief_base.h</title>
<polygon fill="white" stroke="transparent" points="-4,4 -4,-248 571.72,-248 571.72,4 -4,4"/>
<!-- Node1 -->
<g id="node1" class="node">
<title>Node1</title>
<g id="a_node1"><a xlink:title=" ">
<polygon fill="#bfbfbf" stroke="black" points="185.22,-224.5 185.22,-243.5 259.22,-243.5 259.22,-224.5 185.22,-224.5"/>
<text text-anchor="middle" x="222.22" y="-231.5" font-family="Helvetica,sans-Serif" font-size="10.00">belief_base.h</text>
</a>
</g>
</g>
<!-- Node2 -->
<g id="node2" class="node">
<title>Node2</title>
<g id="a_node2"><a xlink:href="../../da/db8/belief_8h.html" target="_top" xlink:title=" ">
<polygon fill="white" stroke="black" points="48.72,-112.5 48.72,-131.5 95.72,-131.5 95.72,-112.5 48.72,-112.5"/>
<text text-anchor="middle" x="72.22" y="-119.5" font-family="Helvetica,sans-Serif" font-size="10.00">belief.h</text>
</a>
</g>
</g>
<!-- Node1&#45;&gt;Node2 -->
<g id="edge1" class="edge">
<title>Node1&#45;&gt;Node2</title>
<path fill="none" stroke="midnightblue" d="M210.45,-224.37C184.82,-205.57 123.72,-160.77 92.04,-137.53"/>
<polygon fill="midnightblue" stroke="midnightblue" points="94.07,-134.68 83.93,-131.59 89.93,-140.33 94.07,-134.68"/>
</g>
<!-- Node4 -->
<g id="node4" class="node">
<title>Node4</title>
<g id="a_node4"><a xlink:title=" ">
<polygon fill="white" stroke="#bfbfbf" points="130.22,-0.5 130.22,-19.5 176.22,-19.5 176.22,-0.5 130.22,-0.5"/>
<text text-anchor="middle" x="153.22" y="-7.5" font-family="Helvetica,sans-Serif" font-size="10.00">cstdint</text>
</a>
</g>
</g>
<!-- Node1&#45;&gt;Node4 -->
<g id="edge18" class="edge">
<title>Node1&#45;&gt;Node4</title>
<path fill="none" stroke="midnightblue" d="M191.86,-224.38C137.78,-206.98 28.01,-161.83 2.22,-76 -12.82,-25.96 70.87,-14.25 119.77,-11.64"/>
<polygon fill="midnightblue" stroke="midnightblue" points="120.08,-15.13 129.92,-11.2 119.78,-8.13 120.08,-15.13"/>
</g>
<!-- Node5 -->
<g id="node5" class="node">
<title>Node5</title>
<g id="a_node5"><a xlink:href="../../dd/d20/event_8h.html" target="_top" xlink:title=" ">
<polygon fill="white" stroke="black" points="198.22,-112.5 198.22,-131.5 246.22,-131.5 246.22,-112.5 198.22,-112.5"/>
<text text-anchor="middle" x="222.22" y="-119.5" font-family="Helvetica,sans-Serif" font-size="10.00">event.h</text>
</a>
</g>
</g>
<!-- Node1&#45;&gt;Node5 -->
<g id="edge5" class="edge">
<title>Node1&#45;&gt;Node5</title>
<path fill="none" stroke="midnightblue" d="M222.22,-224.37C222.22,-206.62 222.22,-165.67 222.22,-141.6"/>
<polygon fill="midnightblue" stroke="midnightblue" points="225.72,-141.59 222.22,-131.59 218.72,-141.59 225.72,-141.59"/>
</g>
<!-- Node8 -->
<g id="node8" class="node">
<title>Node8</title>
<g id="a_node8"><a xlink:href="../../d7/dc4/event__base_8h.html" target="_top" xlink:title=" ">
<polygon fill="white" stroke="black" points="324.22,-168.5 324.22,-187.5 398.22,-187.5 398.22,-168.5 324.22,-168.5"/>
<text text-anchor="middle" x="361.22" y="-175.5" font-family="Helvetica,sans-Serif" font-size="10.00">event_base.h</text>
</a>
</g>
</g>
<!-- Node1&#45;&gt;Node8 -->
<g id="edge11" class="edge">
<title>Node1&#45;&gt;Node8</title>
<path fill="none" stroke="midnightblue" d="M244.24,-224.44C267.32,-215.48 303.78,-201.31 329.86,-191.18"/>
<polygon fill="midnightblue" stroke="midnightblue" points="331.24,-194.4 339.29,-187.52 328.71,-187.88 331.24,-194.4"/>
</g>
<!-- Node9 -->
<g id="node9" class="node">
<title>Node9</title>
<g id="a_node9"><a xlink:href="../../d0/d81/vector__queue_8h.html" target="_top" xlink:title=" ">
<polygon fill="white" stroke="black" points="464.72,-112.5 464.72,-131.5 567.72,-131.5 567.72,-112.5 464.72,-112.5"/>
<text text-anchor="middle" x="516.22" y="-119.5" font-family="Helvetica,sans-Serif" font-size="10.00">../lib/vector_queue.h</text>
</a>
</g>
</g>
<!-- Node1&#45;&gt;Node9 -->
<g id="edge17" class="edge">
<title>Node1&#45;&gt;Node9</title>
<path fill="none" stroke="midnightblue" d="M259.39,-227.33C297.49,-220.75 357.96,-208.14 407.22,-188 440.23,-174.5 475.07,-152.08 496.24,-137.42"/>
<polygon fill="midnightblue" stroke="midnightblue" points="498.26,-140.28 504.42,-131.67 494.23,-134.56 498.26,-140.28"/>
</g>
<!-- Node3 -->
<g id="node3" class="node">
<title>Node3</title>
<g id="a_node3"><a xlink:href="../../de/d93/statement_8h.html" target="_top" xlink:title=" ">
<polygon fill="white" stroke="black" points="19.22,-56.5 19.22,-75.5 125.22,-75.5 125.22,-56.5 19.22,-56.5"/>
<text text-anchor="middle" x="72.22" y="-63.5" font-family="Helvetica,sans-Serif" font-size="10.00">../syntax/statement.h</text>
</a>
</g>
</g>
<!-- Node2&#45;&gt;Node3 -->
<g id="edge2" class="edge">
<title>Node2&#45;&gt;Node3</title>
<path fill="none" stroke="midnightblue" d="M72.22,-112.08C72.22,-105.01 72.22,-94.86 72.22,-85.99"/>
<polygon fill="midnightblue" stroke="midnightblue" points="75.72,-85.75 72.22,-75.75 68.72,-85.75 75.72,-85.75"/>
</g>
<!-- Node2&#45;&gt;Node4 -->
<g id="edge4" class="edge">
<title>Node2&#45;&gt;Node4</title>
<path fill="none" stroke="midnightblue" d="M53.08,-112.41C29.37,-100.55 -6.02,-78.13 10.22,-56 35.15,-22.01 85.78,-13.02 119.6,-11"/>
<polygon fill="midnightblue" stroke="midnightblue" points="120.1,-14.48 129.94,-10.56 119.81,-7.49 120.1,-14.48"/>
</g>
<!-- Node3&#45;&gt;Node4 -->
<g id="edge3" class="edge">
<title>Node3&#45;&gt;Node4</title>
<path fill="none" stroke="midnightblue" d="M85.23,-56.32C97.75,-47.98 116.9,-35.21 131.69,-25.35"/>
<polygon fill="midnightblue" stroke="midnightblue" points="133.86,-28.11 140.24,-19.65 129.97,-22.29 133.86,-28.11"/>
</g>
<!-- Node5&#45;&gt;Node3 -->
<g id="edge6" class="edge">
<title>Node5&#45;&gt;Node3</title>
<path fill="none" stroke="midnightblue" d="M198.45,-112.44C173.32,-103.4 133.51,-89.06 105.32,-78.92"/>
<polygon fill="midnightblue" stroke="midnightblue" points="106.47,-75.61 95.87,-75.52 104.1,-82.2 106.47,-75.61"/>
</g>
<!-- Node5&#45;&gt;Node4 -->
<g id="edge10" class="edge">
<title>Node5&#45;&gt;Node4</title>
<path fill="none" stroke="midnightblue" d="M208.84,-112.19C197.52,-104.08 181.66,-91.03 172.22,-76 163.32,-61.85 158.45,-43.36 155.87,-29.73"/>
<polygon fill="midnightblue" stroke="midnightblue" points="159.28,-28.91 154.21,-19.61 152.37,-30.05 159.28,-28.91"/>
</g>
<!-- Node6 -->
<g id="node6" class="node">
<title>Node6</title>
<g id="a_node6"><a xlink:href="../../db/d50/event__operator_8h.html" target="_top" xlink:title=" ">
<polygon fill="white" stroke="black" points="280.72,-56.5 280.72,-75.5 407.72,-75.5 407.72,-56.5 280.72,-56.5"/>
<text text-anchor="middle" x="344.22" y="-63.5" font-family="Helvetica,sans-Serif" font-size="10.00">../syntax/event_operator.h</text>
</a>
</g>
</g>
<!-- Node5&#45;&gt;Node6 -->
<g id="edge7" class="edge">
<title>Node5&#45;&gt;Node6</title>
<path fill="none" stroke="midnightblue" d="M241.55,-112.44C261.54,-103.6 292.96,-89.69 315.78,-79.59"/>
<polygon fill="midnightblue" stroke="midnightblue" points="317.25,-82.76 324.98,-75.52 314.42,-76.36 317.25,-82.76"/>
</g>
<!-- Node7 -->
<g id="node7" class="node">
<title>Node7</title>
<g id="a_node7"><a xlink:href="../../df/dc3/event__id_8h.html" target="_top" xlink:title=" ">
<polygon fill="white" stroke="black" points="181.72,-56.5 181.72,-75.5 262.72,-75.5 262.72,-56.5 181.72,-56.5"/>
<text text-anchor="middle" x="222.22" y="-63.5" font-family="Helvetica,sans-Serif" font-size="10.00">../lib/event_id.h</text>
</a>
</g>
</g>
<!-- Node5&#45;&gt;Node7 -->
<g id="edge8" class="edge">
<title>Node5&#45;&gt;Node7</title>
<path fill="none" stroke="midnightblue" d="M222.22,-112.08C222.22,-105.01 222.22,-94.86 222.22,-85.99"/>
<polygon fill="midnightblue" stroke="midnightblue" points="225.72,-85.75 222.22,-75.75 218.72,-85.75 225.72,-85.75"/>
</g>
<!-- Node7&#45;&gt;Node4 -->
<g id="edge9" class="edge">
<title>Node7&#45;&gt;Node4</title>
<path fill="none" stroke="midnightblue" d="M211.13,-56.32C200.73,-48.18 184.96,-35.84 172.5,-26.09"/>
<polygon fill="midnightblue" stroke="midnightblue" points="174.54,-23.24 164.5,-19.83 170.22,-28.75 174.54,-23.24"/>
</g>
<!-- Node8&#45;&gt;Node4 -->
<g id="edge16" class="edge">
<title>Node8&#45;&gt;Node4</title>
<path fill="none" stroke="midnightblue" d="M371.32,-168.21C394.55,-146.95 447.52,-91.91 417.22,-56 388.03,-21.42 250.58,-13.41 186.39,-11.56"/>
<polygon fill="midnightblue" stroke="midnightblue" points="186.47,-8.06 176.39,-11.3 186.29,-15.05 186.47,-8.06"/>
</g>
<!-- Node8&#45;&gt;Node5 -->
<g id="edge12" class="edge">
<title>Node8&#45;&gt;Node5</title>
<path fill="none" stroke="midnightblue" d="M339.19,-168.44C316.11,-159.48 279.65,-145.31 253.58,-135.18"/>
<polygon fill="midnightblue" stroke="midnightblue" points="254.73,-131.88 244.14,-131.52 252.19,-138.4 254.73,-131.88"/>
</g>
<!-- Node8&#45;&gt;Node9 -->
<g id="edge13" class="edge">
<title>Node8&#45;&gt;Node9</title>
<path fill="none" stroke="midnightblue" d="M385.78,-168.44C411.74,-159.4 452.88,-145.06 482.01,-134.92"/>
<polygon fill="midnightblue" stroke="midnightblue" points="483.48,-138.11 491.77,-131.52 481.18,-131.5 483.48,-138.11"/>
</g>
<!-- Node9&#45;&gt;Node4 -->
<g id="edge15" class="edge">
<title>Node9&#45;&gt;Node4</title>
<path fill="none" stroke="midnightblue" d="M510.11,-112.08C499.69,-97.64 476.97,-69.39 450.22,-56 404.4,-33.07 253.95,-18.83 186.48,-13.45"/>
<polygon fill="midnightblue" stroke="midnightblue" points="186.63,-9.95 176.39,-12.66 186.09,-16.93 186.63,-9.95"/>
</g>
<!-- Node10 -->
<g id="node10" class="node">
<title>Node10</title>
<g id="a_node10"><a xlink:title=" ">
<polygon fill="white" stroke="#bfbfbf" points="502.22,-56.5 502.22,-75.5 546.22,-75.5 546.22,-56.5 502.22,-56.5"/>
<text text-anchor="middle" x="524.22" y="-63.5" font-family="Helvetica,sans-Serif" font-size="10.00">vector</text>
</a>
</g>
</g>
<!-- Node9&#45;&gt;Node10 -->
<g id="edge14" class="edge">
<title>Node9&#45;&gt;Node10</title>
<path fill="none" stroke="midnightblue" d="M517.54,-112.08C518.6,-104.93 520.12,-94.64 521.45,-85.69"/>
<polygon fill="midnightblue" stroke="midnightblue" points="524.92,-86.16 522.92,-75.75 517.99,-85.13 524.92,-86.16"/>
</g>
</g>
</svg>
        <g id="navigator" transform="translate(0 0)" fill="#404254">
                <rect fill="#f2f5e9" fill-opacity="0.5" stroke="#606060" stroke-width=".5" x="0" y="0" width="60" height="60"/>
                <use id="zoomplus" xlink:href="#zoomPlus" x="17" y="9" onmousedown="handleZoom(evt,'in')"/>
                <use id="zoomminus" xlink:href="#zoomMin" x="42" y="9" onmousedown="handleZoom(evt,'out')"/>
                <use id="reset" xlink:href="#resetDef" x="30" y="36" onmousedown="handleReset()"/>
                <g id="arrowUp" xlink:href="#dirArrow" transform="translate(30 24)" onmousedown="handlePan(0,-1)">
                  <use xlink:href="#rim" fill="#404040">
                        <set attributeName="fill" to="#808080" begin="arrowUp.mouseover" end="arrowUp.mouseout"/>
                  </use>
                  <path fill="none" stroke="white" stroke-width="1.5" d="M0,-3.0v7 M-2.5,-0.5L0,-3.0L2.5,-0.5"/>
                </g>
                <g id="arrowRight" xlink:href="#dirArrow" transform="rotate(90) translate(36 -43)" onmousedown="handlePan(1,0)">
                  <use xlink:href="#rim" fill="#404040">
                        <set attributeName="fill" to="#808080" begin="arrowRight.mouseover" end="arrowRight.mouseout"/>
                  </use>
                  <path fill="none" stroke="white" stroke-width="1.5" d="M0,-3.0v7 M-2.5,-0.5L0,-3.0L2.5,-0.5"/>
                </g>
                <g id="arrowDown" xlink:href="#dirArrow" transform="rotate(180) translate(-30 -48)" onmousedown="handlePan(0,1)">
                  <use xlink:href="#rim" fill="#404040">
                        <set attributeName="fill" to="#808080" begin="arrowDown.mouseover" end="arrowDown.mouseout"/>
                  </use>
                  <path fill="none" stroke="white" stroke-width="1.5" d="M0,-3.0v7 M-2.5,-0.5L0,-3.0L2.5,-0.5"/>
                </g>
                <g id="arrowLeft" xlink:href="#dirArrow" transform="rotate(270) translate(-36 17)" onmousedown="handlePan(-1,0)">
                  <use xlink:href="#rim" fill="#404040">
                        <set attributeName="fill" to="#808080" begin="arrowLeft.mouseover" end="arrowLeft.mouseout"/>
                  </use>
                  <path fill="none" stroke="white" stroke-width="1.5" d="M0,-3.0v7 M-2.5,-0.5L0,-3.0L2.5,-0.5"/>
                </g>
        </g>
        <svg viewBox="0 0 15 15" width="100%" height="30px" preserveAspectRatio="xMaxYMin meet">
         <g id="arrow_out" transform="scale(0.3 0.3)">
          <a xlink:href="belief__base_8h__incl_org.svg" target="_base">
           <rect id="button" ry="5" rx="5" y="6" x="6" height="38" width="38"
                fill="#f2f5e9" fill-opacity="0.5" stroke="#606060" stroke-width="1.0"/>
           <path id="arrow"
             d="M 11.500037,31.436501 C 11.940474,20.09759 22.043105,11.32322 32.158766,21.979434 L 37.068811,17.246167 C 37.068811,17.246167 37.088388,32 37.088388,32 L 22.160133,31.978069 C 22.160133,31.978069 26.997745,27.140456 26.997745,27.140456 C 18.528582,18.264221 13.291696,25.230495 11.500037,31.436501 z"
             style="fill:#404040;"/>
          </a>
         </g>
        </svg>
</svg>
