<?xml version="1.0" encoding="UTF-8" standalone="no"?>
<!DOCTYPE svg PUBLIC "-//W3C//DTD SVG 1.1//EN"
 "http://www.w3.org/Graphics/SVG/1.1/DTD/svg11.dtd">
<!-- Generated by graphviz version 5.0.0 (20220708.1001)
 -->
<!-- Title: context_condition.h Pages: 1 -->
<svg width="378pt" height="420pt"
 viewBox="0.00 0.00 377.67 420.00" xmlns="http://www.w3.org/2000/svg" xmlns:xlink="http://www.w3.org/1999/xlink">
<g id="graph0" class="graph" transform="scale(1 1) rotate(0) translate(4 416)">
<title>context_condition.h</title>
<polygon fill="white" stroke="transparent" points="-4,4 -4,-416 373.67,-416 373.67,4 -4,4"/>
<!-- Node1 -->
<g id="node1" class="node">
<title>Node1</title>
<g id="a_node1"><a xlink:title=" ">
<polygon fill="#bfbfbf" stroke="black" points="80.67,-392.5 80.67,-411.5 180.67,-411.5 180.67,-392.5 80.67,-392.5"/>
<text text-anchor="middle" x="130.67" y="-399.5" font-family="Helvetica,sans-Serif" font-size="10.00">context_condition.h</text>
</a>
</g>
</g>
<!-- Node2 -->
<g id="node2" class="node">
<title>Node2</title>
<g id="a_node2"><a xlink:href="../../dc/d1e/context_8h.html" target="_top" xlink:title=" ">
<polygon fill="white" stroke="black" points="52.67,-336.5 52.67,-355.5 108.67,-355.5 108.67,-336.5 52.67,-336.5"/>
<text text-anchor="middle" x="80.67" y="-343.5" font-family="Helvetica,sans-Serif" font-size="10.00">context.h</text>
</a>
</g>
</g>
<!-- Node1&#45;&gt;Node2 -->
<g id="edge1" class="edge">
<title>Node1&#45;&gt;Node2</title>
<path fill="none" stroke="midnightblue" d="M115.59,-384.72C106.78,-375.2 96,-363.56 88.77,-355.75"/>
<polygon fill="midnightblue" stroke="midnightblue" points="113.05,-387.12 122.41,-392.08 118.19,-382.37 113.05,-387.12"/>
</g>
<!-- Node17 -->
<g id="node17" class="node">
<title>Node17</title>
<g id="a_node17"><a xlink:href="../../d6/d2e/context__condition_8cpp.html" target="_top" xlink:title=" ">
<polygon fill="white" stroke="black" points="126.67,-336.5 126.67,-355.5 236.67,-355.5 236.67,-336.5 126.67,-336.5"/>
<text text-anchor="middle" x="181.67" y="-343.5" font-family="Helvetica,sans-Serif" font-size="10.00">context_condition.cpp</text>
</a>
</g>
</g>
<!-- Node1&#45;&gt;Node17 -->
<g id="edge19" class="edge">
<title>Node1&#45;&gt;Node17</title>
<path fill="none" stroke="midnightblue" d="M146.05,-384.72C155.03,-375.2 166.03,-363.56 173.4,-355.75"/>
<polygon fill="midnightblue" stroke="midnightblue" points="143.41,-382.41 139.09,-392.08 148.5,-387.22 143.41,-382.41"/>
</g>
<!-- Node3 -->
<g id="node3" class="node">
<title>Node3</title>
<g id="a_node3"><a xlink:href="../../db/d12/context_8cpp.html" target="_top" xlink:title=" ">
<polygon fill="white" stroke="black" points="11.67,-280.5 11.67,-299.5 77.67,-299.5 77.67,-280.5 11.67,-280.5"/>
<text text-anchor="middle" x="44.67" y="-287.5" font-family="Helvetica,sans-Serif" font-size="10.00">context.cpp</text>
</a>
</g>
</g>
<!-- Node2&#45;&gt;Node3 -->
<g id="edge2" class="edge">
<title>Node2&#45;&gt;Node3</title>
<path fill="none" stroke="midnightblue" d="M69.04,-327.57C62.85,-318.27 55.5,-307.25 50.5,-299.75"/>
<polygon fill="midnightblue" stroke="midnightblue" points="66.26,-329.7 74.72,-336.08 72.09,-325.82 66.26,-329.7"/>
</g>
<!-- Node4 -->
<g id="node4" class="node">
<title>Node4</title>
<g id="a_node4"><a xlink:href="../../d9/d4e/plan_8h.html" target="_top" xlink:title=" ">
<polygon fill="white" stroke="black" points="95.67,-280.5 95.67,-299.5 137.67,-299.5 137.67,-280.5 95.67,-280.5"/>
<text text-anchor="middle" x="116.67" y="-287.5" font-family="Helvetica,sans-Serif" font-size="10.00">plan.h</text>
</a>
</g>
</g>
<!-- Node2&#45;&gt;Node4 -->
<g id="edge3" class="edge">
<title>Node2&#45;&gt;Node4</title>
<path fill="none" stroke="midnightblue" d="M92.29,-327.57C98.48,-318.27 105.84,-307.25 110.83,-299.75"/>
<polygon fill="midnightblue" stroke="midnightblue" points="89.25,-325.82 86.61,-336.08 95.07,-329.7 89.25,-325.82"/>
</g>
<!-- Node5 -->
<g id="node5" class="node">
<title>Node5</title>
<g id="a_node5"><a xlink:href="../../de/d3c/instantiated__plan_8h.html" target="_top" xlink:title=" ">
<polygon fill="white" stroke="black" points="21.67,-224.5 21.67,-243.5 119.67,-243.5 119.67,-224.5 21.67,-224.5"/>
<text text-anchor="middle" x="70.67" y="-231.5" font-family="Helvetica,sans-Serif" font-size="10.00">instantiated_plan.h</text>
</a>
</g>
</g>
<!-- Node4&#45;&gt;Node5 -->
<g id="edge4" class="edge">
<title>Node4&#45;&gt;Node5</title>
<path fill="none" stroke="midnightblue" d="M102.55,-272.43C94.49,-262.97 84.71,-251.48 78.12,-243.75"/>
<polygon fill="midnightblue" stroke="midnightblue" points="99.92,-274.74 109.07,-280.08 105.25,-270.2 99.92,-274.74"/>
</g>
<!-- Node9 -->
<g id="node9" class="node">
<title>Node9</title>
<g id="a_node9"><a xlink:href="../../d8/d83/intention__base_8h.html" target="_top" xlink:title=" ">
<polygon fill="white" stroke="black" points="68.17,-112.5 68.17,-131.5 155.17,-131.5 155.17,-112.5 68.17,-112.5"/>
<text text-anchor="middle" x="111.67" y="-119.5" font-family="Helvetica,sans-Serif" font-size="10.00">intention_base.h</text>
</a>
</g>
</g>
<!-- Node4&#45;&gt;Node9 -->
<g id="edge13" class="edge">
<title>Node4&#45;&gt;Node9</title>
<path fill="none" stroke="midnightblue" d="M85.39,-279.13C58.34,-269.96 22.14,-255.97 12.67,-244 -3.02,-224.18 4.9,-213.18 2.67,-188 1.88,-179.15 -2.28,-175.39 2.67,-168 17.24,-146.22 44.49,-134.97 68.1,-129.16"/>
<polygon fill="midnightblue" stroke="midnightblue" points="84.64,-282.57 95.23,-282.39 86.84,-275.92 84.64,-282.57"/>
</g>
<!-- Node14 -->
<g id="node14" class="node">
<title>Node14</title>
<g id="a_node14"><a xlink:href="../../d7/df1/plan_8cpp.html" target="_top" xlink:title=" ">
<polygon fill="white" stroke="black" points="137.17,-224.5 137.17,-243.5 190.17,-243.5 190.17,-224.5 137.17,-224.5"/>
<text text-anchor="middle" x="163.67" y="-231.5" font-family="Helvetica,sans-Serif" font-size="10.00">plan.cpp</text>
</a>
</g>
</g>
<!-- Node4&#45;&gt;Node14 -->
<g id="edge14" class="edge">
<title>Node4&#45;&gt;Node14</title>
<path fill="none" stroke="midnightblue" d="M131.09,-272.43C139.33,-262.97 149.32,-251.48 156.05,-243.75"/>
<polygon fill="midnightblue" stroke="midnightblue" points="128.35,-270.24 124.43,-280.08 133.63,-274.84 128.35,-270.24"/>
</g>
<!-- Node15 -->
<g id="node15" class="node">
<title>Node15</title>
<g id="a_node15"><a xlink:href="../../de/d75/plan__base_8h.html" target="_top" xlink:title=" ">
<polygon fill="white" stroke="black" points="217.67,-224.5 217.67,-243.5 285.67,-243.5 285.67,-224.5 217.67,-224.5"/>
<text text-anchor="middle" x="251.67" y="-231.5" font-family="Helvetica,sans-Serif" font-size="10.00">plan_base.h</text>
</a>
</g>
</g>
<!-- Node4&#45;&gt;Node15 -->
<g id="edge15" class="edge">
<title>Node4&#45;&gt;Node15</title>
<path fill="none" stroke="midnightblue" d="M147.26,-276.76C172.58,-266.63 207.9,-252.51 230.28,-243.56"/>
<polygon fill="midnightblue" stroke="midnightblue" points="145.75,-273.6 137.76,-280.56 148.35,-280.1 145.75,-273.6"/>
</g>
<!-- Node6 -->
<g id="node6" class="node">
<title>Node6</title>
<g id="a_node6"><a xlink:href="../../df/dbd/instantiated__plan_8cpp.html" target="_top" xlink:title=" ">
<polygon fill="white" stroke="black" points="11.67,-168.5 11.67,-187.5 119.67,-187.5 119.67,-168.5 11.67,-168.5"/>
<text text-anchor="middle" x="65.67" y="-175.5" font-family="Helvetica,sans-Serif" font-size="10.00">instantiated_plan.cpp</text>
</a>
</g>
</g>
<!-- Node5&#45;&gt;Node6 -->
<g id="edge5" class="edge">
<title>Node5&#45;&gt;Node6</title>
<path fill="none" stroke="midnightblue" d="M68.92,-214.1C68.09,-205.14 67.14,-194.86 66.48,-187.75"/>
<polygon fill="midnightblue" stroke="midnightblue" points="65.43,-214.45 69.84,-224.08 72.4,-213.8 65.43,-214.45"/>
</g>
<!-- Node7 -->
<g id="node7" class="node">
<title>Node7</title>
<g id="a_node7"><a xlink:href="../../df/d3f/intention_8h.html" target="_top" xlink:title=" ">
<polygon fill="white" stroke="black" points="138.17,-168.5 138.17,-187.5 199.17,-187.5 199.17,-168.5 138.17,-168.5"/>
<text text-anchor="middle" x="168.67" y="-175.5" font-family="Helvetica,sans-Serif" font-size="10.00">intention.h</text>
</a>
</g>
</g>
<!-- Node5&#45;&gt;Node7 -->
<g id="edge6" class="edge">
<title>Node5&#45;&gt;Node7</title>
<path fill="none" stroke="midnightblue" d="M95.25,-219.45C113.35,-209.48 137.4,-196.23 152.96,-187.65"/>
<polygon fill="midnightblue" stroke="midnightblue" points="93.48,-216.43 86.41,-224.32 96.86,-222.56 93.48,-216.43"/>
</g>
<!-- Node8 -->
<g id="node8" class="node">
<title>Node8</title>
<g id="a_node8"><a xlink:href="../../d4/db4/intention_8cpp.html" target="_top" xlink:title=" ">
<polygon fill="white" stroke="black" points="173.17,-112.5 173.17,-131.5 244.17,-131.5 244.17,-112.5 173.17,-112.5"/>
<text text-anchor="middle" x="208.67" y="-119.5" font-family="Helvetica,sans-Serif" font-size="10.00">intention.cpp</text>
</a>
</g>
</g>
<!-- Node7&#45;&gt;Node8 -->
<g id="edge7" class="edge">
<title>Node7&#45;&gt;Node8</title>
<path fill="none" stroke="midnightblue" d="M181.37,-159.86C188.29,-150.5 196.57,-139.33 202.19,-131.75"/>
<polygon fill="midnightblue" stroke="midnightblue" points="178.41,-157.96 175.27,-168.08 184.04,-162.13 178.41,-157.96"/>
</g>
<!-- Node7&#45;&gt;Node9 -->
<g id="edge8" class="edge">
<title>Node7&#45;&gt;Node9</title>
<path fill="none" stroke="midnightblue" d="M152.05,-161.25C141.93,-151.67 129.39,-139.79 120.99,-131.83"/>
<polygon fill="midnightblue" stroke="midnightblue" points="149.84,-163.99 159.51,-168.32 154.66,-158.91 149.84,-163.99"/>
</g>
<!-- Node10 -->
<g id="node10" class="node">
<title>Node10</title>
<g id="a_node10"><a xlink:href="../../de/d9e/agent_8h.html" target="_top" xlink:title=" ">
<polygon fill="white" stroke="black" points="259.67,-56.5 259.67,-75.5 307.67,-75.5 307.67,-56.5 259.67,-56.5"/>
<text text-anchor="middle" x="283.67" y="-63.5" font-family="Helvetica,sans-Serif" font-size="10.00">agent.h</text>
</a>
</g>
</g>
<!-- Node9&#45;&gt;Node10 -->
<g id="edge9" class="edge">
<title>Node9&#45;&gt;Node10</title>
<path fill="none" stroke="midnightblue" d="M148.83,-109.33C182.4,-98.79 230.83,-83.59 259.59,-74.56"/>
<polygon fill="midnightblue" stroke="midnightblue" points="147.41,-106.11 138.92,-112.44 149.51,-112.79 147.41,-106.11"/>
</g>
<!-- Node13 -->
<g id="node13" class="node">
<title>Node13</title>
<g id="a_node13"><a xlink:href="../../d2/dd9/intention__base_8cpp.html" target="_top" xlink:title=" ">
<polygon fill="white" stroke="black" points="62.67,-56.5 62.67,-75.5 160.67,-75.5 160.67,-56.5 62.67,-56.5"/>
<text text-anchor="middle" x="111.67" y="-63.5" font-family="Helvetica,sans-Serif" font-size="10.00">intention_base.cpp</text>
</a>
</g>
</g>
<!-- Node9&#45;&gt;Node13 -->
<g id="edge12" class="edge">
<title>Node9&#45;&gt;Node13</title>
<path fill="none" stroke="midnightblue" d="M111.67,-101.8C111.67,-92.91 111.67,-82.78 111.67,-75.75"/>
<polygon fill="midnightblue" stroke="midnightblue" points="108.17,-102.08 111.67,-112.08 115.17,-102.08 108.17,-102.08"/>
</g>
<!-- Node11 -->
<g id="node11" class="node">
<title>Node11</title>
<g id="a_node11"><a xlink:href="../../dd/d3d/agent_8cpp.html" target="_top" xlink:title=" ">
<polygon fill="white" stroke="black" points="210.17,-0.5 210.17,-19.5 269.17,-19.5 269.17,-0.5 210.17,-0.5"/>
<text text-anchor="middle" x="239.67" y="-7.5" font-family="Helvetica,sans-Serif" font-size="10.00">agent.cpp</text>
</a>
</g>
</g>
<!-- Node10&#45;&gt;Node11 -->
<g id="edge10" class="edge">
<title>Node10&#45;&gt;Node11</title>
<path fill="none" stroke="midnightblue" d="M269.93,-48.14C262.27,-38.74 253.03,-27.4 246.8,-19.75"/>
<polygon fill="midnightblue" stroke="midnightblue" points="267.37,-50.54 276.4,-56.08 272.8,-46.12 267.37,-50.54"/>
</g>
<!-- Node12 -->
<g id="node12" class="node">
<title>Node12</title>
<g id="a_node12"><a xlink:href="../../d4/d91/agent__loop_8cpp.html" target="_top" xlink:title=" ">
<polygon fill="white" stroke="black" points="287.67,-0.5 287.67,-19.5 369.67,-19.5 369.67,-0.5 287.67,-0.5"/>
<text text-anchor="middle" x="328.67" y="-7.5" font-family="Helvetica,sans-Serif" font-size="10.00">agent_loop.cpp</text>
</a>
</g>
</g>
<!-- Node10&#45;&gt;Node12 -->
<g id="edge11" class="edge">
<title>Node10&#45;&gt;Node12</title>
<path fill="none" stroke="midnightblue" d="M297.71,-48.14C305.55,-38.74 315,-27.4 321.37,-19.75"/>
<polygon fill="midnightblue" stroke="midnightblue" points="294.81,-46.16 291.1,-56.08 300.19,-50.64 294.81,-46.16"/>
</g>
<!-- Node15&#45;&gt;Node7 -->
<g id="edge17" class="edge">
<title>Node15&#45;&gt;Node7</title>
<path fill="none" stroke="midnightblue" d="M229.57,-218.62C214.41,-208.76 194.78,-195.99 181.97,-187.65"/>
<polygon fill="midnightblue" stroke="midnightblue" points="228.04,-221.8 238.33,-224.32 231.86,-215.94 228.04,-221.8"/>
</g>
<!-- Node15&#45;&gt;Node10 -->
<g id="edge16" class="edge">
<title>Node15&#45;&gt;Node10</title>
<path fill="none" stroke="midnightblue" d="M276.84,-219C287.86,-211.4 299.62,-200.91 305.67,-188 323.96,-148.94 299.69,-96.19 288.63,-75.67"/>
<polygon fill="midnightblue" stroke="midnightblue" points="274.84,-216.13 268.3,-224.46 278.61,-222.03 274.84,-216.13"/>
</g>
<!-- Node16 -->
<g id="node16" class="node">
<title>Node16</title>
<g id="a_node16"><a xlink:href="../../d4/d51/plan__base_8cpp.html" target="_top" xlink:title=" ">
<polygon fill="white" stroke="black" points="217.17,-168.5 217.17,-187.5 296.17,-187.5 296.17,-168.5 217.17,-168.5"/>
<text text-anchor="middle" x="256.67" y="-175.5" font-family="Helvetica,sans-Serif" font-size="10.00">plan_base.cpp</text>
</a>
</g>
</g>
<!-- Node15&#45;&gt;Node16 -->
<g id="edge18" class="edge">
<title>Node15&#45;&gt;Node16</title>
<path fill="none" stroke="midnightblue" d="M253.42,-214.1C254.25,-205.14 255.2,-194.86 255.86,-187.75"/>
<polygon fill="midnightblue" stroke="midnightblue" points="249.93,-213.8 252.49,-224.08 256.9,-214.45 249.93,-213.8"/>
</g>
</g>
</svg>
