<?xml version="1.0" encoding="UTF-8" standalone="no"?>
<!DOCTYPE svg PUBLIC "-//W3C//DTD SVG 1.1//EN"
 "http://www.w3.org/Graphics/SVG/1.1/DTD/svg11.dtd">
<!-- Generated by graphviz version 2.47.3 (20210711.2253)
 -->
<!-- Title: intention.h Pages: 1 -->
<svg width="1018pt" height="532pt"
 viewBox="0.00 0.00 1018.00 532.00" xmlns="http://www.w3.org/2000/svg" xmlns:xlink="http://www.w3.org/1999/xlink">
<g id="graph0" class="graph" transform="scale(1 1) rotate(0) translate(4 528)">
<title>intention.h</title>
<polygon fill="white" stroke="transparent" points="-4,4 -4,-528 1014,-528 1014,4 -4,4"/>
<!-- Node1 -->
<g id="node1" class="node">
<title>Node1</title>
<g id="a_node1"><a xlink:title=" ">
<polygon fill="#bfbfbf" stroke="black" points="338.5,-504.5 338.5,-523.5 399.5,-523.5 399.5,-504.5 338.5,-504.5"/>
<text text-anchor="middle" x="369" y="-511.5" font-family="Helvetica,sans-Serif" font-size="10.00">intention.h</text>
</a>
</g>
</g>
<!-- Node2 -->
<g id="node2" class="node">
<title>Node2</title>
<g id="a_node2"><a xlink:href="../../de/d75/plan__base_8h.html" target="_top" xlink:title=" ">
<polygon fill="white" stroke="black" points="205,-448.5 205,-467.5 273,-467.5 273,-448.5 205,-448.5"/>
<text text-anchor="middle" x="239" y="-455.5" font-family="Helvetica,sans-Serif" font-size="10.00">plan_base.h</text>
</a>
</g>
</g>
<!-- Node1&#45;&gt;Node2 -->
<g id="edge1" class="edge">
<title>Node1&#45;&gt;Node2</title>
<path fill="none" stroke="midnightblue" d="M348.4,-504.44C327.01,-495.56 293.32,-481.56 268.98,-471.45"/>
<polygon fill="midnightblue" stroke="midnightblue" points="270.08,-468.12 259.5,-467.52 267.39,-474.58 270.08,-468.12"/>
</g>
<!-- Node3 -->
<g id="node3" class="node">
<title>Node3</title>
<g id="a_node3"><a xlink:href="../../d2/d2f/belief__base_8h.html" target="_top" xlink:title=" ">
<polygon fill="white" stroke="black" points="400,-224.5 400,-243.5 474,-243.5 474,-224.5 400,-224.5"/>
<text text-anchor="middle" x="437" y="-231.5" font-family="Helvetica,sans-Serif" font-size="10.00">belief_base.h</text>
</a>
</g>
</g>
<!-- Node1&#45;&gt;Node3 -->
<g id="edge48" class="edge">
<title>Node1&#45;&gt;Node3</title>
<path fill="none" stroke="midnightblue" d="M384.64,-504.41C397.67,-496.52 415.84,-483.68 427,-468 444.69,-443.15 449,-433.5 449,-403 449,-403 449,-403 449,-345 449,-312.76 443.84,-275.51 440.29,-253.68"/>
<polygon fill="midnightblue" stroke="midnightblue" points="443.69,-252.8 438.57,-243.52 436.79,-253.97 443.69,-252.8"/>
</g>
<!-- Node6 -->
<g id="node6" class="node">
<title>Node6</title>
<g id="a_node6"><a xlink:title=" ">
<polygon fill="white" stroke="#bfbfbf" points="622,-0.5 622,-19.5 668,-19.5 668,-0.5 622,-0.5"/>
<text text-anchor="middle" x="645" y="-7.5" font-family="Helvetica,sans-Serif" font-size="10.00">cstdint</text>
</a>
</g>
</g>
<!-- Node1&#45;&gt;Node6 -->
<g id="edge53" class="edge">
<title>Node1&#45;&gt;Node6</title>
<path fill="none" stroke="midnightblue" d="M399.92,-511.01C527.96,-502.37 1010,-465.67 1010,-403 1010,-403 1010,-403 1010,-121 1010,-79.83 980.83,-74.41 944,-56 897.87,-32.94 746.41,-18.77 678.48,-13.43"/>
<polygon fill="midnightblue" stroke="midnightblue" points="678.57,-9.92 668.33,-12.64 678.03,-16.9 678.57,-9.92"/>
</g>
<!-- Node11 -->
<g id="node11" class="node">
<title>Node11</title>
<g id="a_node11"><a xlink:href="../../d0/d81/vector__queue_8h.html" target="_top" xlink:title=" ">
<polygon fill="white" stroke="black" points="54.5,-112.5 54.5,-131.5 157.5,-131.5 157.5,-112.5 54.5,-112.5"/>
<text text-anchor="middle" x="106" y="-119.5" font-family="Helvetica,sans-Serif" font-size="10.00">../lib/vector_queue.h</text>
</a>
</g>
</g>
<!-- Node1&#45;&gt;Node11 -->
<g id="edge52" class="edge">
<title>Node1&#45;&gt;Node11</title>
<path fill="none" stroke="midnightblue" d="M338.32,-513.73C268.94,-513.61 106,-502.73 106,-403 106,-403 106,-403 106,-233 106,-200.95 106,-163.64 106,-141.75"/>
<polygon fill="midnightblue" stroke="midnightblue" points="109.5,-141.56 106,-131.56 102.5,-141.56 109.5,-141.56"/>
</g>
<!-- Node20 -->
<g id="node20" class="node">
<title>Node20</title>
<g id="a_node20"><a xlink:href="../../de/d3c/instantiated__plan_8h.html" target="_top" xlink:title=" ">
<polygon fill="white" stroke="black" points="320,-448.5 320,-467.5 418,-467.5 418,-448.5 320,-448.5"/>
<text text-anchor="middle" x="369" y="-455.5" font-family="Helvetica,sans-Serif" font-size="10.00">instantiated_plan.h</text>
</a>
</g>
</g>
<!-- Node1&#45;&gt;Node20 -->
<g id="edge49" class="edge">
<title>Node1&#45;&gt;Node20</title>
<path fill="none" stroke="midnightblue" d="M369,-504.08C369,-497.01 369,-486.86 369,-477.99"/>
<polygon fill="midnightblue" stroke="midnightblue" points="372.5,-477.75 369,-467.75 365.5,-477.75 372.5,-477.75"/>
</g>
<!-- Node2&#45;&gt;Node3 -->
<g id="edge2" class="edge">
<title>Node2&#45;&gt;Node3</title>
<path fill="none" stroke="midnightblue" d="M244.72,-448.41C258.43,-428.06 294.67,-375.63 330,-336 354.06,-309.01 362.7,-304.81 389,-280 399.41,-270.18 411.13,-259.19 420.38,-250.53"/>
<polygon fill="midnightblue" stroke="midnightblue" points="422.87,-253 427.78,-243.61 418.09,-247.89 422.87,-253"/>
</g>
<!-- Node2&#45;&gt;Node6 -->
<g id="edge47" class="edge">
<title>Node2&#45;&gt;Node6</title>
<path fill="none" stroke="midnightblue" d="M204.76,-456.41C138.67,-453.27 0,-436.07 0,-347 0,-347 0,-347 0,-121 0,-85.09 16.57,-73.37 48,-56 97.4,-28.69 492.79,-15.33 611.45,-11.91"/>
<polygon fill="midnightblue" stroke="midnightblue" points="611.84,-15.4 621.74,-11.61 611.64,-8.4 611.84,-15.4"/>
</g>
<!-- Node7 -->
<g id="node7" class="node">
<title>Node7</title>
<g id="a_node7"><a xlink:href="../../dd/d20/event_8h.html" target="_top" xlink:title=" ">
<polygon fill="white" stroke="black" points="302,-112.5 302,-131.5 350,-131.5 350,-112.5 302,-112.5"/>
<text text-anchor="middle" x="326" y="-119.5" font-family="Helvetica,sans-Serif" font-size="10.00">event.h</text>
</a>
</g>
</g>
<!-- Node2&#45;&gt;Node7 -->
<g id="edge21" class="edge">
<title>Node2&#45;&gt;Node7</title>
<path fill="none" stroke="midnightblue" d="M236.44,-448.25C231.25,-429.74 220,-385.18 220,-347 220,-347 220,-347 220,-233 220,-202.9 219.87,-191.23 239,-168 252.74,-151.31 274.3,-140.1 292.51,-133.04"/>
<polygon fill="midnightblue" stroke="midnightblue" points="293.73,-136.32 301.94,-129.63 291.35,-129.74 293.73,-136.32"/>
</g>
<!-- Node2&#45;&gt;Node11 -->
<g id="edge46" class="edge">
<title>Node2&#45;&gt;Node11</title>
<path fill="none" stroke="midnightblue" d="M223.31,-448.4C196.33,-432.31 144,-394.94 144,-347 144,-347 144,-347 144,-233 144,-198.81 127.4,-161.76 116.14,-140.57"/>
<polygon fill="midnightblue" stroke="midnightblue" points="119.18,-138.83 111.28,-131.77 113.05,-142.22 119.18,-138.83"/>
</g>
<!-- Node13 -->
<g id="node13" class="node">
<title>Node13</title>
<g id="a_node13"><a xlink:href="../../d9/d4e/plan_8h.html" target="_top" xlink:title=" ">
<polygon fill="white" stroke="black" points="326,-392.5 326,-411.5 406,-411.5 406,-392.5 326,-392.5"/>
<text text-anchor="middle" x="366" y="-399.5" font-family="Helvetica,sans-Serif" font-size="10.00">../syntax/plan.h</text>
</a>
</g>
</g>
<!-- Node2&#45;&gt;Node13 -->
<g id="edge22" class="edge">
<title>Node2&#45;&gt;Node13</title>
<path fill="none" stroke="midnightblue" d="M259.12,-448.44C280.02,-439.56 312.93,-425.56 336.72,-415.45"/>
<polygon fill="midnightblue" stroke="midnightblue" points="338.14,-418.65 345.97,-411.52 335.4,-412.21 338.14,-418.65"/>
</g>
<!-- Node4 -->
<g id="node4" class="node">
<title>Node4</title>
<g id="a_node4"><a xlink:href="../../da/db8/belief_8h.html" target="_top" xlink:title=" ">
<polygon fill="white" stroke="black" points="481.5,-112.5 481.5,-131.5 528.5,-131.5 528.5,-112.5 481.5,-112.5"/>
<text text-anchor="middle" x="505" y="-119.5" font-family="Helvetica,sans-Serif" font-size="10.00">belief.h</text>
</a>
</g>
</g>
<!-- Node3&#45;&gt;Node4 -->
<g id="edge3" class="edge">
<title>Node3&#45;&gt;Node4</title>
<path fill="none" stroke="midnightblue" d="M442.34,-224.37C453.51,-206.3 479.55,-164.18 494.3,-140.31"/>
<polygon fill="midnightblue" stroke="midnightblue" points="497.41,-141.94 499.69,-131.59 491.45,-138.26 497.41,-141.94"/>
</g>
<!-- Node3&#45;&gt;Node6 -->
<g id="edge20" class="edge">
<title>Node3&#45;&gt;Node6</title>
<path fill="none" stroke="midnightblue" d="M446.92,-224.21C456.94,-215.26 472.77,-200.91 486,-188 535.49,-139.7 548.6,-128.16 594,-76 607.77,-60.18 622.45,-41.22 632.51,-27.87"/>
<polygon fill="midnightblue" stroke="midnightblue" points="635.48,-29.74 638.67,-19.64 629.88,-25.55 635.48,-29.74"/>
</g>
<!-- Node3&#45;&gt;Node7 -->
<g id="edge7" class="edge">
<title>Node3&#45;&gt;Node7</title>
<path fill="none" stroke="midnightblue" d="M428.29,-224.37C409.65,-205.89 365.65,-162.29 341.89,-138.74"/>
<polygon fill="midnightblue" stroke="midnightblue" points="344.24,-136.14 334.67,-131.59 339.31,-141.12 344.24,-136.14"/>
</g>
<!-- Node10 -->
<g id="node10" class="node">
<title>Node10</title>
<g id="a_node10"><a xlink:href="../../d7/dc4/event__base_8h.html" target="_top" xlink:title=" ">
<polygon fill="white" stroke="black" points="248,-168.5 248,-187.5 322,-187.5 322,-168.5 248,-168.5"/>
<text text-anchor="middle" x="285" y="-175.5" font-family="Helvetica,sans-Serif" font-size="10.00">event_base.h</text>
</a>
</g>
</g>
<!-- Node3&#45;&gt;Node10 -->
<g id="edge13" class="edge">
<title>Node3&#45;&gt;Node10</title>
<path fill="none" stroke="midnightblue" d="M412.92,-224.44C387.46,-215.4 347.11,-201.06 318.54,-190.92"/>
<polygon fill="midnightblue" stroke="midnightblue" points="319.57,-187.57 308.97,-187.52 317.22,-194.16 319.57,-187.57"/>
</g>
<!-- Node3&#45;&gt;Node11 -->
<g id="edge19" class="edge">
<title>Node3&#45;&gt;Node11</title>
<path fill="none" stroke="midnightblue" d="M424.05,-224.26C400.27,-208.35 350.29,-175.57 331,-168 278.08,-147.24 214.24,-135.65 168.1,-129.44"/>
<polygon fill="midnightblue" stroke="midnightblue" points="168.32,-125.94 157.95,-128.13 167.42,-132.88 168.32,-125.94"/>
</g>
<!-- Node5 -->
<g id="node5" class="node">
<title>Node5</title>
<g id="a_node5"><a xlink:href="../../d5/d6b/proposition_8h.html" target="_top" xlink:title=" ">
<polygon fill="white" stroke="black" points="450,-56.5 450,-75.5 560,-75.5 560,-56.5 450,-56.5"/>
<text text-anchor="middle" x="505" y="-63.5" font-family="Helvetica,sans-Serif" font-size="10.00">../syntax/proposition.h</text>
</a>
</g>
</g>
<!-- Node4&#45;&gt;Node5 -->
<g id="edge4" class="edge">
<title>Node4&#45;&gt;Node5</title>
<path fill="none" stroke="midnightblue" d="M505,-112.08C505,-105.01 505,-94.86 505,-85.99"/>
<polygon fill="midnightblue" stroke="midnightblue" points="508.5,-85.75 505,-75.75 501.5,-85.75 508.5,-85.75"/>
</g>
<!-- Node4&#45;&gt;Node6 -->
<g id="edge6" class="edge">
<title>Node4&#45;&gt;Node6</title>
<path fill="none" stroke="midnightblue" d="M518.01,-112.38C531.13,-103.57 551.83,-89.33 569,-76 589.83,-59.83 612.69,-39.97 627.85,-26.49"/>
<polygon fill="midnightblue" stroke="midnightblue" points="630.29,-28.99 635.41,-19.72 625.62,-23.78 630.29,-28.99"/>
</g>
<!-- Node5&#45;&gt;Node6 -->
<g id="edge5" class="edge">
<title>Node5&#45;&gt;Node6</title>
<path fill="none" stroke="midnightblue" d="M527.18,-56.44C550.43,-47.48 587.15,-33.31 613.42,-23.18"/>
<polygon fill="midnightblue" stroke="midnightblue" points="614.85,-26.38 622.92,-19.52 612.33,-19.85 614.85,-26.38"/>
</g>
<!-- Node7&#45;&gt;Node5 -->
<g id="edge8" class="edge">
<title>Node7&#45;&gt;Node5</title>
<path fill="none" stroke="midnightblue" d="M350.14,-113.72C380.02,-104.7 431.26,-89.24 466.57,-78.59"/>
<polygon fill="midnightblue" stroke="midnightblue" points="467.96,-81.83 476.53,-75.59 465.94,-75.13 467.96,-81.83"/>
</g>
<!-- Node7&#45;&gt;Node6 -->
<g id="edge12" class="edge">
<title>Node7&#45;&gt;Node6</title>
<path fill="none" stroke="midnightblue" d="M315.96,-112.13C301.98,-98.73 279.97,-73.08 295,-56 315.76,-32.4 528.22,-17.71 611.64,-12.82"/>
<polygon fill="midnightblue" stroke="midnightblue" points="612.06,-16.3 621.84,-12.23 611.65,-9.31 612.06,-16.3"/>
</g>
<!-- Node8 -->
<g id="node8" class="node">
<title>Node8</title>
<g id="a_node8"><a xlink:href="../../db/d50/event__operator_8h.html" target="_top" xlink:title=" ">
<polygon fill="white" stroke="black" points="304.5,-56.5 304.5,-75.5 431.5,-75.5 431.5,-56.5 304.5,-56.5"/>
<text text-anchor="middle" x="368" y="-63.5" font-family="Helvetica,sans-Serif" font-size="10.00">../syntax/event_operator.h</text>
</a>
</g>
</g>
<!-- Node7&#45;&gt;Node8 -->
<g id="edge9" class="edge">
<title>Node7&#45;&gt;Node8</title>
<path fill="none" stroke="midnightblue" d="M332.94,-112.08C338.93,-104.38 347.75,-93.03 355.05,-83.65"/>
<polygon fill="midnightblue" stroke="midnightblue" points="357.82,-85.79 361.19,-75.75 352.29,-81.5 357.82,-85.79"/>
</g>
<!-- Node9 -->
<g id="node9" class="node">
<title>Node9</title>
<g id="a_node9"><a xlink:href="../../df/dc3/event__id_8h.html" target="_top" xlink:title=" ">
<polygon fill="white" stroke="black" points="166.5,-56.5 166.5,-75.5 247.5,-75.5 247.5,-56.5 166.5,-56.5"/>
<text text-anchor="middle" x="207" y="-63.5" font-family="Helvetica,sans-Serif" font-size="10.00">../lib/event_id.h</text>
</a>
</g>
</g>
<!-- Node7&#45;&gt;Node9 -->
<g id="edge10" class="edge">
<title>Node7&#45;&gt;Node9</title>
<path fill="none" stroke="midnightblue" d="M307.14,-112.44C287.73,-103.64 257.27,-89.81 235.04,-79.72"/>
<polygon fill="midnightblue" stroke="midnightblue" points="236.32,-76.46 225.77,-75.52 233.43,-82.84 236.32,-76.46"/>
</g>
<!-- Node9&#45;&gt;Node6 -->
<g id="edge11" class="edge">
<title>Node9&#45;&gt;Node6</title>
<path fill="none" stroke="midnightblue" d="M247.52,-58.16C252.39,-57.4 257.31,-56.66 262,-56 390.75,-37.91 544.55,-21.37 611.32,-14.44"/>
<polygon fill="midnightblue" stroke="midnightblue" points="612.05,-17.88 621.64,-13.37 611.33,-10.92 612.05,-17.88"/>
</g>
<!-- Node10&#45;&gt;Node6 -->
<g id="edge18" class="edge">
<title>Node10&#45;&gt;Node6</title>
<path fill="none" stroke="midnightblue" d="M265.22,-168.42C235.3,-154.2 179.6,-122.61 157,-76 153.12,-68 151.01,-62.57 157,-56 187.62,-22.42 507.06,-13.55 611.89,-11.53"/>
<polygon fill="midnightblue" stroke="midnightblue" points="611.97,-15.03 621.91,-11.35 611.84,-8.03 611.97,-15.03"/>
</g>
<!-- Node10&#45;&gt;Node7 -->
<g id="edge14" class="edge">
<title>Node10&#45;&gt;Node7</title>
<path fill="none" stroke="midnightblue" d="M291.77,-168.08C297.56,-160.46 306.06,-149.26 313.14,-139.94"/>
<polygon fill="midnightblue" stroke="midnightblue" points="316.1,-141.83 319.36,-131.75 310.52,-137.6 316.1,-141.83"/>
</g>
<!-- Node10&#45;&gt;Node11 -->
<g id="edge15" class="edge">
<title>Node10&#45;&gt;Node11</title>
<path fill="none" stroke="midnightblue" d="M256.64,-168.44C226.26,-159.28 177.89,-144.69 144.18,-134.52"/>
<polygon fill="midnightblue" stroke="midnightblue" points="144.82,-131.05 134.23,-131.52 142.79,-137.76 144.82,-131.05"/>
</g>
<!-- Node11&#45;&gt;Node6 -->
<g id="edge17" class="edge">
<title>Node11&#45;&gt;Node6</title>
<path fill="none" stroke="midnightblue" d="M91.37,-112.36C71.31,-99.49 39.62,-74.76 57,-56 94.83,-15.17 492.68,-11.24 611.61,-10.98"/>
<polygon fill="midnightblue" stroke="midnightblue" points="611.91,-14.48 621.91,-10.96 611.9,-7.48 611.91,-14.48"/>
</g>
<!-- Node12 -->
<g id="node12" class="node">
<title>Node12</title>
<g id="a_node12"><a xlink:title=" ">
<polygon fill="white" stroke="#bfbfbf" points="66,-56.5 66,-75.5 110,-75.5 110,-56.5 66,-56.5"/>
<text text-anchor="middle" x="88" y="-63.5" font-family="Helvetica,sans-Serif" font-size="10.00">vector</text>
</a>
</g>
</g>
<!-- Node11&#45;&gt;Node12 -->
<g id="edge16" class="edge">
<title>Node11&#45;&gt;Node12</title>
<path fill="none" stroke="midnightblue" d="M103.03,-112.08C100.62,-104.85 97.14,-94.41 94.13,-85.4"/>
<polygon fill="midnightblue" stroke="midnightblue" points="97.4,-84.13 90.92,-75.75 90.76,-86.34 97.4,-84.13"/>
</g>
<!-- Node13&#45;&gt;Node6 -->
<g id="edge45" class="edge">
<title>Node13&#45;&gt;Node6</title>
<path fill="none" stroke="midnightblue" d="M406.39,-401.76C536.16,-403.14 934,-398.6 934,-291 934,-291 934,-291 934,-121 934,-84.82 915.75,-75.07 885,-56 850.83,-34.81 735.52,-20.31 678.08,-14.23"/>
<polygon fill="midnightblue" stroke="midnightblue" points="678.37,-10.74 668.07,-13.19 677.65,-17.7 678.37,-10.74"/>
</g>
<!-- Node13&#45;&gt;Node10 -->
<g id="edge23" class="edge">
<title>Node13&#45;&gt;Node10</title>
<path fill="none" stroke="midnightblue" d="M357.31,-392.49C349.11,-383.98 337.04,-370.15 330,-356 303.21,-302.17 291.41,-230.96 287.1,-197.66"/>
<polygon fill="midnightblue" stroke="midnightblue" points="290.56,-197.06 285.88,-187.56 283.61,-197.9 290.56,-197.06"/>
</g>
<!-- Node14 -->
<g id="node14" class="node">
<title>Node14</title>
<g id="a_node14"><a xlink:href="../../d0/d77/body_8h.html" target="_top" xlink:title=" ">
<polygon fill="white" stroke="black" points="339,-336.5 339,-355.5 383,-355.5 383,-336.5 339,-336.5"/>
<text text-anchor="middle" x="361" y="-343.5" font-family="Helvetica,sans-Serif" font-size="10.00">body.h</text>
</a>
</g>
</g>
<!-- Node13&#45;&gt;Node14 -->
<g id="edge24" class="edge">
<title>Node13&#45;&gt;Node14</title>
<path fill="none" stroke="midnightblue" d="M365.17,-392.08C364.52,-385.01 363.58,-374.86 362.76,-365.99"/>
<polygon fill="midnightblue" stroke="midnightblue" points="366.22,-365.39 361.81,-355.75 359.25,-366.03 366.22,-365.39"/>
</g>
<!-- Node18 -->
<g id="node18" class="node">
<title>Node18</title>
<g id="a_node18"><a xlink:href="../../dc/d1e/context_8h.html" target="_top" xlink:title=" ">
<polygon fill="white" stroke="black" points="768,-280.5 768,-299.5 824,-299.5 824,-280.5 768,-280.5"/>
<text text-anchor="middle" x="796" y="-287.5" font-family="Helvetica,sans-Serif" font-size="10.00">context.h</text>
</a>
</g>
</g>
<!-- Node13&#45;&gt;Node18 -->
<g id="edge38" class="edge">
<title>Node13&#45;&gt;Node18</title>
<path fill="none" stroke="midnightblue" d="M399.38,-392.46C478.09,-372.33 674.87,-321.99 757.99,-300.72"/>
<polygon fill="midnightblue" stroke="midnightblue" points="758.96,-304.09 767.78,-298.22 757.23,-297.31 758.96,-304.09"/>
</g>
<!-- Node14&#45;&gt;Node3 -->
<g id="edge34" class="edge">
<title>Node14&#45;&gt;Node3</title>
<path fill="none" stroke="midnightblue" d="M366.96,-336.37C379.51,-318.22 408.81,-275.8 425.26,-251.99"/>
<polygon fill="midnightblue" stroke="midnightblue" points="428.26,-253.81 431.06,-243.59 422.5,-249.83 428.26,-253.81"/>
</g>
<!-- Node14&#45;&gt;Node6 -->
<g id="edge37" class="edge">
<title>Node14&#45;&gt;Node6</title>
<path fill="none" stroke="midnightblue" d="M383.01,-343.43C463.9,-337.06 740,-309.85 740,-235 740,-235 740,-235 740,-121 740,-77.74 697.39,-43.09 669.25,-24.91"/>
<polygon fill="midnightblue" stroke="midnightblue" points="671.03,-21.9 660.69,-19.6 667.34,-27.85 671.03,-21.9"/>
</g>
<!-- Node14&#45;&gt;Node10 -->
<g id="edge35" class="edge">
<title>Node14&#45;&gt;Node10</title>
<path fill="none" stroke="midnightblue" d="M357.73,-336.35C350.06,-316.3 330.05,-265.2 310,-224 305.5,-214.76 300,-204.74 295.3,-196.51"/>
<polygon fill="midnightblue" stroke="midnightblue" points="298.31,-194.71 290.27,-187.81 292.25,-198.22 298.31,-194.71"/>
</g>
<!-- Node14&#45;&gt;Node11 -->
<g id="edge36" class="edge">
<title>Node14&#45;&gt;Node11</title>
<path fill="none" stroke="midnightblue" d="M350.87,-336.15C321.24,-310.25 232.13,-232.39 158,-168 146.59,-158.09 133.75,-146.98 123.69,-138.28"/>
<polygon fill="midnightblue" stroke="midnightblue" points="125.83,-135.51 115.98,-131.62 121.26,-140.8 125.83,-135.51"/>
</g>
<!-- Node15 -->
<g id="node15" class="node">
<title>Node15</title>
<g id="a_node15"><a xlink:href="../../d8/d67/body__instruction_8h.html" target="_top" xlink:title=" ">
<polygon fill="white" stroke="black" points="480.5,-280.5 480.5,-299.5 575.5,-299.5 575.5,-280.5 480.5,-280.5"/>
<text text-anchor="middle" x="528" y="-287.5" font-family="Helvetica,sans-Serif" font-size="10.00">body_instruction.h</text>
</a>
</g>
</g>
<!-- Node14&#45;&gt;Node15 -->
<g id="edge25" class="edge">
<title>Node14&#45;&gt;Node15</title>
<path fill="none" stroke="midnightblue" d="M383.18,-337.83C410.92,-328.86 458.78,-313.38 491.85,-302.69"/>
<polygon fill="midnightblue" stroke="midnightblue" points="493.16,-305.94 501.6,-299.54 491.01,-299.28 493.16,-305.94"/>
</g>
<!-- Node15&#45;&gt;Node3 -->
<g id="edge31" class="edge">
<title>Node15&#45;&gt;Node3</title>
<path fill="none" stroke="midnightblue" d="M513.38,-280.32C499.05,-271.82 476.99,-258.73 460.25,-248.8"/>
<polygon fill="midnightblue" stroke="midnightblue" points="461.97,-245.75 451.58,-243.65 458.4,-251.77 461.97,-245.75"/>
</g>
<!-- Node15&#45;&gt;Node6 -->
<g id="edge33" class="edge">
<title>Node15&#45;&gt;Node6</title>
<path fill="none" stroke="midnightblue" d="M574.63,-280.45C626.17,-267.99 702,-239.4 702,-179 702,-179 702,-179 702,-121 702,-84.3 676.68,-47.66 659.79,-27.3"/>
<polygon fill="midnightblue" stroke="midnightblue" points="662.35,-24.9 653.17,-19.62 657.05,-29.48 662.35,-24.9"/>
</g>
<!-- Node15&#45;&gt;Node10 -->
<g id="edge32" class="edge">
<title>Node15&#45;&gt;Node10</title>
<path fill="none" stroke="midnightblue" d="M494.79,-280.44C466.53,-272.6 425.19,-259.83 391,-244 359.6,-229.46 325.97,-207.65 305.21,-193.37"/>
<polygon fill="midnightblue" stroke="midnightblue" points="307.09,-190.41 296.88,-187.57 303.09,-196.16 307.09,-190.41"/>
</g>
<!-- Node16 -->
<g id="node16" class="node">
<title>Node16</title>
<g id="a_node16"><a xlink:href="../../d0/d96/body__type_8h.html" target="_top" xlink:title=" ">
<polygon fill="white" stroke="black" points="568,-168.5 568,-187.5 636,-187.5 636,-168.5 568,-168.5"/>
<text text-anchor="middle" x="602" y="-175.5" font-family="Helvetica,sans-Serif" font-size="10.00">body_type.h</text>
</a>
</g>
</g>
<!-- Node15&#45;&gt;Node16 -->
<g id="edge26" class="edge">
<title>Node15&#45;&gt;Node16</title>
<path fill="none" stroke="midnightblue" d="M540.37,-280.26C551.29,-272 566.99,-258.7 577,-244 586.77,-229.65 593.44,-210.94 597.42,-197.28"/>
<polygon fill="midnightblue" stroke="midnightblue" points="600.81,-198.16 600.04,-187.59 594.06,-196.33 600.81,-198.16"/>
</g>
<!-- Node17 -->
<g id="node17" class="node">
<title>Node17</title>
<g id="a_node17"><a xlink:href="../../d9/ded/body__return_8h.html" target="_top" xlink:title=" ">
<polygon fill="white" stroke="black" points="494,-224.5 494,-243.5 568,-243.5 568,-224.5 494,-224.5"/>
<text text-anchor="middle" x="531" y="-231.5" font-family="Helvetica,sans-Serif" font-size="10.00">body_return.h</text>
</a>
</g>
</g>
<!-- Node15&#45;&gt;Node17 -->
<g id="edge27" class="edge">
<title>Node15&#45;&gt;Node17</title>
<path fill="none" stroke="midnightblue" d="M528.5,-280.08C528.89,-273.01 529.45,-262.86 529.95,-253.99"/>
<polygon fill="midnightblue" stroke="midnightblue" points="533.45,-253.93 530.51,-243.75 526.46,-253.54 533.45,-253.93"/>
</g>
<!-- Node17&#45;&gt;Node6 -->
<g id="edge30" class="edge">
<title>Node17&#45;&gt;Node6</title>
<path fill="none" stroke="midnightblue" d="M533.22,-224.27C536.9,-211.05 545.25,-185.64 559,-168 575.17,-147.24 588.43,-151.58 606,-132 625.45,-110.33 631.08,-103.72 640,-76 644.82,-61 645.88,-43.09 645.84,-29.87"/>
<polygon fill="midnightblue" stroke="midnightblue" points="649.33,-29.57 645.59,-19.66 642.34,-29.74 649.33,-29.57"/>
</g>
<!-- Node17&#45;&gt;Node7 -->
<g id="edge29" class="edge">
<title>Node17&#45;&gt;Node7</title>
<path fill="none" stroke="midnightblue" d="M514.91,-224.37C479.29,-205.25 393.52,-159.23 350.9,-136.36"/>
<polygon fill="midnightblue" stroke="midnightblue" points="352.48,-133.24 342.01,-131.59 349.17,-139.4 352.48,-133.24"/>
</g>
<!-- Node17&#45;&gt;Node16 -->
<g id="edge28" class="edge">
<title>Node17&#45;&gt;Node16</title>
<path fill="none" stroke="midnightblue" d="M542.41,-224.32C553.11,-216.18 569.34,-203.84 582.16,-194.09"/>
<polygon fill="midnightblue" stroke="midnightblue" points="584.54,-196.67 590.39,-187.83 580.31,-191.1 584.54,-196.67"/>
</g>
<!-- Node18&#45;&gt;Node3 -->
<g id="edge42" class="edge">
<title>Node18&#45;&gt;Node3</title>
<path fill="none" stroke="midnightblue" d="M767.64,-285.3C712.89,-278.06 588.87,-261.24 485,-244 484.78,-243.96 484.56,-243.93 484.34,-243.89"/>
<polygon fill="midnightblue" stroke="midnightblue" points="484.63,-240.39 474.18,-242.13 483.44,-247.29 484.63,-240.39"/>
</g>
<!-- Node18&#45;&gt;Node6 -->
<g id="edge44" class="edge">
<title>Node18&#45;&gt;Node6</title>
<path fill="none" stroke="midnightblue" d="M812.96,-280.36C841.49,-264.49 896,-227.78 896,-179 896,-179 896,-179 896,-121 896,-27.06 746.7,-12.59 678.4,-10.89"/>
<polygon fill="midnightblue" stroke="midnightblue" points="678.22,-7.38 668.16,-10.71 678.1,-14.38 678.22,-7.38"/>
</g>
<!-- Node18&#45;&gt;Node11 -->
<g id="edge43" class="edge">
<title>Node18&#45;&gt;Node11</title>
<path fill="none" stroke="midnightblue" d="M788.62,-280.23C768.45,-256.97 709.59,-193.76 645,-168 601.64,-150.71 300.39,-133.13 168.08,-126.14"/>
<polygon fill="midnightblue" stroke="midnightblue" points="167.88,-122.62 157.71,-125.6 167.51,-129.62 167.88,-122.62"/>
</g>
<!-- Node19 -->
<g id="node19" class="node">
<title>Node19</title>
<g id="a_node19"><a xlink:href="../../d7/d7d/context__condition_8h.html" target="_top" xlink:title=" ">
<polygon fill="white" stroke="black" points="768,-112.5 768,-131.5 868,-131.5 868,-112.5 768,-112.5"/>
<text text-anchor="middle" x="818" y="-119.5" font-family="Helvetica,sans-Serif" font-size="10.00">context_condition.h</text>
</a>
</g>
</g>
<!-- Node18&#45;&gt;Node19 -->
<g id="edge39" class="edge">
<title>Node18&#45;&gt;Node19</title>
<path fill="none" stroke="midnightblue" d="M797.18,-280.08C800.65,-253.95 810.82,-177.21 815.54,-141.58"/>
<polygon fill="midnightblue" stroke="midnightblue" points="819.02,-141.94 816.86,-131.57 812.08,-141.02 819.02,-141.94"/>
</g>
<!-- Node19&#45;&gt;Node5 -->
<g id="edge40" class="edge">
<title>Node19&#45;&gt;Node5</title>
<path fill="none" stroke="midnightblue" d="M768.4,-112.44C713,-102.89 623.36,-87.42 564.29,-77.23"/>
<polygon fill="midnightblue" stroke="midnightblue" points="564.81,-73.77 554.36,-75.52 563.62,-80.67 564.81,-73.77"/>
</g>
<!-- Node19&#45;&gt;Node6 -->
<g id="edge41" class="edge">
<title>Node19&#45;&gt;Node6</title>
<path fill="none" stroke="midnightblue" d="M811.4,-112.33C800.66,-98.73 778.18,-72.27 754,-56 730.43,-40.14 700.39,-28.25 677.82,-20.69"/>
<polygon fill="midnightblue" stroke="midnightblue" points="678.62,-17.27 668.02,-17.52 676.46,-23.93 678.62,-17.27"/>
</g>
<!-- Node20&#45;&gt;Node6 -->
<g id="edge51" class="edge">
<title>Node20&#45;&gt;Node6</title>
<path fill="none" stroke="midnightblue" d="M418.09,-453.22C561.87,-441.51 972,-403.17 972,-347 972,-347 972,-347 972,-121 972,-81.98 947.24,-74.71 913,-56 872.98,-34.13 740.58,-19.63 678.14,-13.84"/>
<polygon fill="midnightblue" stroke="midnightblue" points="678.31,-10.34 668.03,-12.92 677.68,-17.31 678.31,-10.34"/>
</g>
<!-- Node20&#45;&gt;Node13 -->
<g id="edge50" class="edge">
<title>Node20&#45;&gt;Node13</title>
<path fill="none" stroke="midnightblue" d="M368.5,-448.08C368.11,-441.01 367.55,-430.86 367.05,-421.99"/>
<polygon fill="midnightblue" stroke="midnightblue" points="370.54,-421.54 366.49,-411.75 363.55,-421.93 370.54,-421.54"/>
</g>
</g>
</svg>
