<?xml version="1.0" encoding="UTF-8" standalone="no"?>
<!DOCTYPE svg PUBLIC "-//W3C//DTD SVG 1.1//EN"
 "http://www.w3.org/Graphics/SVG/1.1/DTD/svg11.dtd">
<!-- Generated by graphviz version 5.0.0 (20220708.1001)
 -->
<!-- Title: context_condition.cpp Pages: 1 -->
<svg width="131pt" height="196pt"
 viewBox="0.00 0.00 130.50 196.00" xmlns="http://www.w3.org/2000/svg" xmlns:xlink="http://www.w3.org/1999/xlink">
<g id="graph0" class="graph" transform="scale(1 1) rotate(0) translate(4 192)">
<title>context_condition.cpp</title>
<polygon fill="white" stroke="transparent" points="-4,4 -4,-192 126.5,-192 126.5,4 -4,4"/>
<!-- Node1 -->
<g id="node1" class="node">
<title>Node1</title>
<g id="a_node1"><a xlink:title=" ">
<polygon fill="#bfbfbf" stroke="black" points="12.5,-168.5 12.5,-187.5 122.5,-187.5 122.5,-168.5 12.5,-168.5"/>
<text text-anchor="middle" x="67.5" y="-175.5" font-family="Helvetica,sans-Serif" font-size="10.00">context_condition.cpp</text>
</a>
</g>
</g>
<!-- Node2 -->
<g id="node2" class="node">
<title>Node2</title>
<g id="a_node2"><a xlink:href="../../d7/d7d/context__condition_8h.html" target="_top" xlink:title=" ">
<polygon fill="white" stroke="black" points="17.5,-112.5 17.5,-131.5 117.5,-131.5 117.5,-112.5 17.5,-112.5"/>
<text text-anchor="middle" x="67.5" y="-119.5" font-family="Helvetica,sans-Serif" font-size="10.00">context_condition.h</text>
</a>
</g>
</g>
<!-- Node1&#45;&gt;Node2 -->
<g id="edge1" class="edge">
<title>Node1&#45;&gt;Node2</title>
<path fill="none" stroke="midnightblue" d="M67.5,-168.08C67.5,-161.01 67.5,-150.86 67.5,-141.99"/>
<polygon fill="midnightblue" stroke="midnightblue" points="71,-141.75 67.5,-131.75 64,-141.75 71,-141.75"/>
</g>
<!-- Node3 -->
<g id="node3" class="node">
<title>Node3</title>
<g id="a_node3"><a xlink:href="../../d5/d6b/proposition_8h.html" target="_top" xlink:title=" ">
<polygon fill="white" stroke="black" points="0,-56.5 0,-75.5 71,-75.5 71,-56.5 0,-56.5"/>
<text text-anchor="middle" x="35.5" y="-63.5" font-family="Helvetica,sans-Serif" font-size="10.00">proposition.h</text>
</a>
</g>
</g>
<!-- Node2&#45;&gt;Node3 -->
<g id="edge2" class="edge">
<title>Node2&#45;&gt;Node3</title>
<path fill="none" stroke="midnightblue" d="M62.22,-112.08C57.79,-104.61 51.34,-93.72 45.88,-84.52"/>
<polygon fill="midnightblue" stroke="midnightblue" points="48.79,-82.57 40.69,-75.75 42.77,-86.14 48.79,-82.57"/>
</g>
<!-- Node4 -->
<g id="node4" class="node">
<title>Node4</title>
<g id="a_node4"><a xlink:title=" ">
<polygon fill="white" stroke="#bfbfbf" points="44.5,-0.5 44.5,-19.5 90.5,-19.5 90.5,-0.5 44.5,-0.5"/>
<text text-anchor="middle" x="67.5" y="-7.5" font-family="Helvetica,sans-Serif" font-size="10.00">cstdint</text>
</a>
</g>
</g>
<!-- Node2&#45;&gt;Node4 -->
<g id="edge4" class="edge">
<title>Node2&#45;&gt;Node4</title>
<path fill="none" stroke="midnightblue" d="M70.84,-112.2C74.05,-103.24 78.68,-88.88 80.5,-76 82.74,-60.15 78.71,-42.34 74.56,-29.38"/>
<polygon fill="midnightblue" stroke="midnightblue" points="77.81,-28.05 71.18,-19.78 71.2,-30.37 77.81,-28.05"/>
</g>
<!-- Node3&#45;&gt;Node4 -->
<g id="edge3" class="edge">
<title>Node3&#45;&gt;Node4</title>
<path fill="none" stroke="midnightblue" d="M40.78,-56.08C45.21,-48.61 51.66,-37.72 57.12,-28.52"/>
<polygon fill="midnightblue" stroke="midnightblue" points="60.23,-30.14 62.31,-19.75 54.21,-26.57 60.23,-30.14"/>
</g>
</g>
</svg>
