<?xml version="1.0" encoding="UTF-8" standalone="no"?>
<!DOCTYPE svg PUBLIC "-//W3C//DTD SVG 1.1//EN"
 "http://www.w3.org/Graphics/SVG/1.1/DTD/svg11.dtd">
<!-- Generated by graphviz version 2.47.1 (20210421.1823)
 -->
<!-- Title: Plan Pages: 1 -->
<svg width="379pt" height="744pt"
 viewBox="0.00 0.00 379.00 744.00" xmlns="http://www.w3.org/2000/svg" xmlns:xlink="http://www.w3.org/1999/xlink">
<g id="graph0" class="graph" transform="scale(1 1) rotate(0) translate(4 740)">
<title>Plan</title>
<polygon fill="white" stroke="transparent" points="-4,4 -4,-740 375,-740 375,4 -4,4"/>
<!-- Node1 -->
<g id="node1" class="node">
<title>Node1</title>
<g id="a_node1"><a xlink:title=" ">
<polygon fill="#bfbfbf" stroke="black" points="91.5,-0.5 91.5,-112.5 188.5,-112.5 188.5,-0.5 91.5,-0.5"/>
<text text-anchor="middle" x="140" y="-100.5" font-family="Helvetica,sans-Serif" font-size="10.00">Plan</text>
<polyline fill="none" stroke="black" points="91.5,-93.5 188.5,-93.5 "/>
<text text-anchor="start" x="99.5" y="-81.5" font-family="Helvetica,sans-Serif" font-size="10.00">&#45; _operator</text>
<polyline fill="none" stroke="black" points="91.5,-74.5 188.5,-74.5 "/>
<text text-anchor="start" x="99.5" y="-62.5" font-family="Helvetica,sans-Serif" font-size="10.00">+ Plan()</text>
<text text-anchor="start" x="99.5" y="-51.5" font-family="Helvetica,sans-Serif" font-size="10.00">+ run_body()</text>
<text text-anchor="start" x="99.5" y="-40.5" font-family="Helvetica,sans-Serif" font-size="10.00">+ get_operator()</text>
<text text-anchor="start" x="99.5" y="-29.5" font-family="Helvetica,sans-Serif" font-size="10.00">+ get_proposition()</text>
<text text-anchor="start" x="99.5" y="-18.5" font-family="Helvetica,sans-Serif" font-size="10.00">+ get_context()</text>
<text text-anchor="start" x="99.5" y="-7.5" font-family="Helvetica,sans-Serif" font-size="10.00">+ get_body()</text>
</a>
</g>
</g>
<!-- Node2 -->
<g id="node2" class="node">
<title>Node2</title>
<g id="a_node2"><a xlink:href="../../df/d75/class_proposition.html" target="_top" xlink:title=" ">
<polygon fill="white" stroke="black" points="0,-160.5 0,-261.5 80,-261.5 80,-160.5 0,-160.5"/>
<text text-anchor="middle" x="40" y="-249.5" font-family="Helvetica,sans-Serif" font-size="10.00">Proposition</text>
<polyline fill="none" stroke="black" points="0,-242.5 80,-242.5 "/>
<text text-anchor="start" x="8" y="-230.5" font-family="Helvetica,sans-Serif" font-size="10.00">&#45; _name</text>
<polyline fill="none" stroke="black" points="0,-223.5 80,-223.5 "/>
<text text-anchor="start" x="8" y="-211.5" font-family="Helvetica,sans-Serif" font-size="10.00">+ Proposition()</text>
<text text-anchor="start" x="8" y="-200.5" font-family="Helvetica,sans-Serif" font-size="10.00">+ Proposition()</text>
<text text-anchor="start" x="8" y="-189.5" font-family="Helvetica,sans-Serif" font-size="10.00">+ is_equal()</text>
<text text-anchor="start" x="8" y="-178.5" font-family="Helvetica,sans-Serif" font-size="10.00">+ is_equal()</text>
<text text-anchor="start" x="8" y="-167.5" font-family="Helvetica,sans-Serif" font-size="10.00">+ get_name()</text>
</a>
</g>
</g>
<!-- Node2&#45;&gt;Node1 -->
<g id="edge1" class="edge">
<title>Node2&#45;&gt;Node1</title>
<path fill="none" stroke="#404040" d="M61.44,-160.49C66.43,-150.47 72.04,-140.2 78,-131 79.98,-127.95 82.07,-124.88 84.24,-121.82"/>
<polygon fill="none" stroke="#404040" points="84.26,-121.79 84.61,-114.58 91.39,-112.13 91.05,-119.34 84.26,-121.79"/>
<text text-anchor="middle" x="107" y="-134" font-family="Helvetica,sans-Serif" font-size="10.00"> &#45;_proposition</text>
</g>
<!-- Node3 -->
<g id="node3" class="node">
<title>Node3</title>
<g id="a_node3"><a xlink:href="../../d5/de2/class_context.html" target="_top" xlink:title=" ">
<polygon fill="white" stroke="black" points="98.5,-171.5 98.5,-250.5 181.5,-250.5 181.5,-171.5 98.5,-171.5"/>
<text text-anchor="middle" x="140" y="-238.5" font-family="Helvetica,sans-Serif" font-size="10.00">Context</text>
<polyline fill="none" stroke="black" points="98.5,-231.5 181.5,-231.5 "/>
<text text-anchor="start" x="106.5" y="-219.5" font-family="Helvetica,sans-Serif" font-size="10.00">&#45; _size</text>
<polyline fill="none" stroke="black" points="98.5,-212.5 181.5,-212.5 "/>
<text text-anchor="start" x="106.5" y="-200.5" font-family="Helvetica,sans-Serif" font-size="10.00">+ Context()</text>
<text text-anchor="start" x="106.5" y="-189.5" font-family="Helvetica,sans-Serif" font-size="10.00">+ add_context()</text>
<text text-anchor="start" x="106.5" y="-178.5" font-family="Helvetica,sans-Serif" font-size="10.00">+ is_valid()</text>
</a>
</g>
</g>
<!-- Node3&#45;&gt;Node1 -->
<g id="edge2" class="edge">
<title>Node3&#45;&gt;Node1</title>
<path fill="none" stroke="#404040" d="M140,-171.12C140,-157.13 140,-140.9 140,-125.17"/>
<polygon fill="none" stroke="#404040" points="140,-124.71 136,-118.71 140,-112.71 144,-118.71 140,-124.71"/>
<text text-anchor="middle" x="161.5" y="-134" font-family="Helvetica,sans-Serif" font-size="10.00"> &#45;_context</text>
</g>
<!-- Node4 -->
<g id="node4" class="node">
<title>Node4</title>
<g id="a_node4"><a xlink:href="../../df/d28/class_vector_queue.html" target="_top" xlink:title=" ">
<polygon fill="white" stroke="black" points="31,-309.5 31,-498.5 195,-498.5 195,-309.5 31,-309.5"/>
<text text-anchor="middle" x="113" y="-486.5" font-family="Helvetica,sans-Serif" font-size="10.00">VectorQueue&lt; ContextCondition &gt;</text>
<polyline fill="none" stroke="black" points="31,-479.5 195,-479.5 "/>
<text text-anchor="start" x="39" y="-467.5" font-family="Helvetica,sans-Serif" font-size="10.00">&#45; _queue</text>
<text text-anchor="start" x="39" y="-456.5" font-family="Helvetica,sans-Serif" font-size="10.00">&#45; _capacity</text>
<polyline fill="none" stroke="black" points="31,-449.5 195,-449.5 "/>
<text text-anchor="start" x="39" y="-437.5" font-family="Helvetica,sans-Serif" font-size="10.00">+ init()</text>
<text text-anchor="start" x="39" y="-426.5" font-family="Helvetica,sans-Serif" font-size="10.00">+ push_front()</text>
<text text-anchor="start" x="39" y="-415.5" font-family="Helvetica,sans-Serif" font-size="10.00">+ push_back()</text>
<text text-anchor="start" x="39" y="-404.5" font-family="Helvetica,sans-Serif" font-size="10.00">+ pop_back()</text>
<text text-anchor="start" x="39" y="-393.5" font-family="Helvetica,sans-Serif" font-size="10.00">+ front()</text>
<text text-anchor="start" x="39" y="-382.5" font-family="Helvetica,sans-Serif" font-size="10.00">+ back()</text>
<text text-anchor="start" x="39" y="-371.5" font-family="Helvetica,sans-Serif" font-size="10.00">+ item_at()</text>
<text text-anchor="start" x="39" y="-360.5" font-family="Helvetica,sans-Serif" font-size="10.00">+ erase()</text>
<text text-anchor="start" x="39" y="-349.5" font-family="Helvetica,sans-Serif" font-size="10.00">+ rotate()</text>
<text text-anchor="start" x="39" y="-338.5" font-family="Helvetica,sans-Serif" font-size="10.00">+ size()</text>
<text text-anchor="start" x="39" y="-327.5" font-family="Helvetica,sans-Serif" font-size="10.00">+ is_empty()</text>
<text text-anchor="start" x="39" y="-316.5" font-family="Helvetica,sans-Serif" font-size="10.00">+ is_full()</text>
</a>
</g>
</g>
<!-- Node4&#45;&gt;Node3 -->
<g id="edge3" class="edge">
<title>Node4&#45;&gt;Node3</title>
<path fill="none" stroke="#404040" d="M126.22,-309.46C128.5,-293.38 130.78,-277.22 132.82,-262.81"/>
<polygon fill="none" stroke="#404040" points="132.86,-262.53 129.74,-256.03 134.54,-250.65 137.66,-257.15 132.86,-262.53"/>
<text text-anchor="middle" x="151.5" y="-283" font-family="Helvetica,sans-Serif" font-size="10.00"> &#45;_context</text>
</g>
<!-- Node5 -->
<g id="node5" class="node">
<title>Node5</title>
<g id="a_node5"><a xlink:href="../../df/d28/class_vector_queue.html" target="_top" xlink:title=" ">
<polygon fill="white" stroke="black" points="153.5,-546.5 153.5,-735.5 250.5,-735.5 250.5,-546.5 153.5,-546.5"/>
<text text-anchor="middle" x="202" y="-723.5" font-family="Helvetica,sans-Serif" font-size="10.00">VectorQueue&lt; X &gt;</text>
<polyline fill="none" stroke="black" points="153.5,-716.5 250.5,-716.5 "/>
<text text-anchor="start" x="161.5" y="-704.5" font-family="Helvetica,sans-Serif" font-size="10.00">&#45; _queue</text>
<text text-anchor="start" x="161.5" y="-693.5" font-family="Helvetica,sans-Serif" font-size="10.00">&#45; _capacity</text>
<polyline fill="none" stroke="black" points="153.5,-686.5 250.5,-686.5 "/>
<text text-anchor="start" x="161.5" y="-674.5" font-family="Helvetica,sans-Serif" font-size="10.00">+ init()</text>
<text text-anchor="start" x="161.5" y="-663.5" font-family="Helvetica,sans-Serif" font-size="10.00">+ push_front()</text>
<text text-anchor="start" x="161.5" y="-652.5" font-family="Helvetica,sans-Serif" font-size="10.00">+ push_back()</text>
<text text-anchor="start" x="161.5" y="-641.5" font-family="Helvetica,sans-Serif" font-size="10.00">+ pop_back()</text>
<text text-anchor="start" x="161.5" y="-630.5" font-family="Helvetica,sans-Serif" font-size="10.00">+ front()</text>
<text text-anchor="start" x="161.5" y="-619.5" font-family="Helvetica,sans-Serif" font-size="10.00">+ back()</text>
<text text-anchor="start" x="161.5" y="-608.5" font-family="Helvetica,sans-Serif" font-size="10.00">+ item_at()</text>
<text text-anchor="start" x="161.5" y="-597.5" font-family="Helvetica,sans-Serif" font-size="10.00">+ erase()</text>
<text text-anchor="start" x="161.5" y="-586.5" font-family="Helvetica,sans-Serif" font-size="10.00">+ rotate()</text>
<text text-anchor="start" x="161.5" y="-575.5" font-family="Helvetica,sans-Serif" font-size="10.00">+ size()</text>
<text text-anchor="start" x="161.5" y="-564.5" font-family="Helvetica,sans-Serif" font-size="10.00">+ is_empty()</text>
<text text-anchor="start" x="161.5" y="-553.5" font-family="Helvetica,sans-Serif" font-size="10.00">+ is_full()</text>
</a>
</g>
</g>
<!-- Node5&#45;&gt;Node4 -->
<g id="edge4" class="edge">
<title>Node5&#45;&gt;Node4</title>
<path fill="none" stroke="orange" d="M162.91,-536.79C158.1,-524.09 153.21,-511.16 148.45,-498.62"/>
<polygon fill="orange" stroke="orange" points="159.75,-538.33 166.57,-546.45 166.3,-535.86 159.75,-538.33"/>
<text text-anchor="middle" x="204.5" y="-520" font-family="Helvetica,sans-Serif" font-size="10.00"> &lt; ContextCondition &gt;</text>
</g>
<!-- Node7 -->
<g id="node7" class="node">
<title>Node7</title>
<g id="a_node7"><a xlink:href="../../df/d28/class_vector_queue.html" target="_top" xlink:title=" ">
<polygon fill="white" stroke="black" points="213,-309.5 213,-498.5 371,-498.5 371,-309.5 213,-309.5"/>
<text text-anchor="middle" x="292" y="-486.5" font-family="Helvetica,sans-Serif" font-size="10.00">VectorQueue&lt; BodyInstruction &gt;</text>
<polyline fill="none" stroke="black" points="213,-479.5 371,-479.5 "/>
<text text-anchor="start" x="221" y="-467.5" font-family="Helvetica,sans-Serif" font-size="10.00">&#45; _queue</text>
<text text-anchor="start" x="221" y="-456.5" font-family="Helvetica,sans-Serif" font-size="10.00">&#45; _capacity</text>
<polyline fill="none" stroke="black" points="213,-449.5 371,-449.5 "/>
<text text-anchor="start" x="221" y="-437.5" font-family="Helvetica,sans-Serif" font-size="10.00">+ init()</text>
<text text-anchor="start" x="221" y="-426.5" font-family="Helvetica,sans-Serif" font-size="10.00">+ push_front()</text>
<text text-anchor="start" x="221" y="-415.5" font-family="Helvetica,sans-Serif" font-size="10.00">+ push_back()</text>
<text text-anchor="start" x="221" y="-404.5" font-family="Helvetica,sans-Serif" font-size="10.00">+ pop_back()</text>
<text text-anchor="start" x="221" y="-393.5" font-family="Helvetica,sans-Serif" font-size="10.00">+ front()</text>
<text text-anchor="start" x="221" y="-382.5" font-family="Helvetica,sans-Serif" font-size="10.00">+ back()</text>
<text text-anchor="start" x="221" y="-371.5" font-family="Helvetica,sans-Serif" font-size="10.00">+ item_at()</text>
<text text-anchor="start" x="221" y="-360.5" font-family="Helvetica,sans-Serif" font-size="10.00">+ erase()</text>
<text text-anchor="start" x="221" y="-349.5" font-family="Helvetica,sans-Serif" font-size="10.00">+ rotate()</text>
<text text-anchor="start" x="221" y="-338.5" font-family="Helvetica,sans-Serif" font-size="10.00">+ size()</text>
<text text-anchor="start" x="221" y="-327.5" font-family="Helvetica,sans-Serif" font-size="10.00">+ is_empty()</text>
<text text-anchor="start" x="221" y="-316.5" font-family="Helvetica,sans-Serif" font-size="10.00">+ is_full()</text>
</a>
</g>
</g>
<!-- Node5&#45;&gt;Node7 -->
<g id="edge7" class="edge">
<title>Node5&#45;&gt;Node7</title>
<path fill="none" stroke="orange" d="M250.53,-536.8C251.72,-533.85 252.88,-530.91 254,-528 257.61,-518.61 261.13,-508.73 264.47,-498.8"/>
<polygon fill="orange" stroke="orange" points="247.2,-535.71 246.63,-546.29 253.67,-538.37 247.2,-535.71"/>
<text text-anchor="middle" x="301.5" y="-520" font-family="Helvetica,sans-Serif" font-size="10.00"> &lt; BodyInstruction &gt;</text>
</g>
<!-- Node6 -->
<g id="node6" class="node">
<title>Node6</title>
<g id="a_node6"><a xlink:href="../../d0/dcb/class_body.html" target="_top" xlink:title=" ">
<polygon fill="white" stroke="black" points="234.5,-166 234.5,-256 331.5,-256 331.5,-166 234.5,-166"/>
<text text-anchor="middle" x="283" y="-244" font-family="Helvetica,sans-Serif" font-size="10.00">Body</text>
<polyline fill="none" stroke="black" points="234.5,-237 331.5,-237 "/>
<text text-anchor="start" x="242.5" y="-225" font-family="Helvetica,sans-Serif" font-size="10.00">&#45; _size</text>
<polyline fill="none" stroke="black" points="234.5,-218 331.5,-218 "/>
<text text-anchor="start" x="242.5" y="-206" font-family="Helvetica,sans-Serif" font-size="10.00">+ Body()</text>
<text text-anchor="start" x="242.5" y="-195" font-family="Helvetica,sans-Serif" font-size="10.00">+ run_body()</text>
<text text-anchor="start" x="242.5" y="-184" font-family="Helvetica,sans-Serif" font-size="10.00">+ add_instruction()</text>
<text text-anchor="start" x="242.5" y="-173" font-family="Helvetica,sans-Serif" font-size="10.00">+ get_size()</text>
</a>
</g>
</g>
<!-- Node6&#45;&gt;Node1 -->
<g id="edge5" class="edge">
<title>Node6&#45;&gt;Node1</title>
<path fill="none" stroke="#404040" d="M241.64,-165.89C227.65,-150.97 211.78,-134.04 196.8,-118.08"/>
<polygon fill="none" stroke="#404040" points="196.8,-118.07 189.78,-116.43 188.59,-109.32 195.61,-110.96 196.8,-118.07"/>
<text text-anchor="middle" x="231.5" y="-134" font-family="Helvetica,sans-Serif" font-size="10.00"> &#45;_body</text>
</g>
<!-- Node7&#45;&gt;Node6 -->
<g id="edge6" class="edge">
<title>Node7&#45;&gt;Node6</title>
<path fill="none" stroke="#404040" d="M287.59,-309.46C286.93,-295.42 286.27,-281.32 285.66,-268.39"/>
<polygon fill="none" stroke="#404040" points="285.66,-268.36 281.38,-262.56 285.09,-256.38 289.37,-262.18 285.66,-268.36"/>
<text text-anchor="middle" x="301.5" y="-283" font-family="Helvetica,sans-Serif" font-size="10.00"> &#45;_body</text>
</g>
</g>
</svg>
