<?xml version="1.0" encoding="UTF-8" standalone="no"?>
<!DOCTYPE svg PUBLIC "-//W3C//DTD SVG 1.1//EN"
 "http://www.w3.org/Graphics/SVG/1.1/DTD/svg11.dtd">
<!-- Generated by graphviz version 5.0.0 (20220708.1001)
 -->
<!-- Title: Plan Pages: 1 -->
<!--zoomable 744 -->
<svg id="main" version="1.1" xmlns="http://www.w3.org/2000/svg" xmlns:xlink="http://www.w3.org/1999/xlink" xml:space="preserve" onload="init(evt)">
<style type="text/css"><![CDATA[
.edge:hover path { stroke: red; }
.edge:hover polygon { stroke: red; fill: red; }
]]></style>
<script type="text/javascript"><![CDATA[
var edges = document.getElementsByTagName('g');
if (edges && edges.length) {
  for (var i=0;i<edges.length;i++) {
    if (edges[i].id.substr(0,4)=='edge') {
      edges[i].setAttribute('class','edge');
    }
  }
}
]]></script>
        <defs>
                <circle id="rim" cx="0" cy="0" r="7"/>
                <circle id="rim2" cx="0" cy="0" r="3.5"/>
                <g id="zoomPlus">
                        <use xlink:href="#rim" fill="#404040">
                                <set attributeName="fill" to="#808080" begin="zoomplus.mouseover" end="zoomplus.mouseout"/>
                        </use>
                        <path d="M-4,0h8M0,-4v8" fill="none" stroke="white" stroke-width="1.5" pointer-events="none"/>
                </g>
                <g id="zoomMin">
                        <use xlink:href="#rim" fill="#404040">
                                <set attributeName="fill" to="#808080" begin="zoomminus.mouseover" end="zoomminus.mouseout"/>
                        </use>
                        <path d="M-4,0h8" fill="none" stroke="white" stroke-width="1.5" pointer-events="none"/>
                </g>
                <g id="dirArrow">
                        <path fill="none" stroke="white" stroke-width="1.5" d="M0,-3.0v7 M-2.5,-0.5L0,-3.0L2.5,-0.5"/>
                </g>
               <g id="resetDef">
                       <use xlink:href="#rim2" fill="#404040">
                               <set attributeName="fill" to="#808080" begin="reset.mouseover" end="reset.mouseout"/>
                       </use>
               </g>
        </defs>

<script type="text/javascript">
var viewWidth = 379;
var viewHeight = 744;
var sectionId = 'dynsection-0';
</script>
<script xlink:href="../../svgpan.js"/>
<svg id="graph" class="graph">
<g id="viewport">
<title>Plan</title>
<polygon fill="white" stroke="transparent" points="-4,4 -4,-740 375,-740 375,4 -4,4"/>
<!-- Node1 -->
<g id="node1" class="node">
<title>Node1</title>
<g id="a_node1"><a xlink:title=" ">
<polygon fill="#bfbfbf" stroke="black" points="91.5,-0.5 91.5,-112.5 188.5,-112.5 188.5,-0.5 91.5,-0.5"/>
<text text-anchor="middle" x="140" y="-100.5" font-family="Helvetica,sans-Serif" font-size="10.00">Plan</text>
<polyline fill="none" stroke="black" points="91.5,-93.5 188.5,-93.5 "/>
<text text-anchor="start" x="99.5" y="-81.5" font-family="Helvetica,sans-Serif" font-size="10.00">&#45; _operator</text>
<polyline fill="none" stroke="black" points="91.5,-74.5 188.5,-74.5 "/>
<text text-anchor="start" x="99.5" y="-62.5" font-family="Helvetica,sans-Serif" font-size="10.00">+ Plan()</text>
<text text-anchor="start" x="99.5" y="-51.5" font-family="Helvetica,sans-Serif" font-size="10.00">+ run_body()</text>
<text text-anchor="start" x="99.5" y="-40.5" font-family="Helvetica,sans-Serif" font-size="10.00">+ get_operator()</text>
<text text-anchor="start" x="99.5" y="-29.5" font-family="Helvetica,sans-Serif" font-size="10.00">+ get_proposition()</text>
<text text-anchor="start" x="99.5" y="-18.5" font-family="Helvetica,sans-Serif" font-size="10.00">+ get_context()</text>
<text text-anchor="start" x="99.5" y="-7.5" font-family="Helvetica,sans-Serif" font-size="10.00">+ get_body()</text>
</a>
</g>
</g>
<!-- Node2 -->
<g id="node2" class="node">
<title>Node2</title>
<g id="a_node2"><a xlink:href="../../df/d75/class_proposition.html" target="_top" xlink:title=" ">
<polygon fill="white" stroke="black" points="0,-160.5 0,-261.5 80,-261.5 80,-160.5 0,-160.5"/>
<text text-anchor="middle" x="40" y="-249.5" font-family="Helvetica,sans-Serif" font-size="10.00">Proposition</text>
<polyline fill="none" stroke="black" points="0,-242.5 80,-242.5 "/>
<text text-anchor="start" x="8" y="-230.5" font-family="Helvetica,sans-Serif" font-size="10.00">&#45; _name</text>
<polyline fill="none" stroke="black" points="0,-223.5 80,-223.5 "/>
<text text-anchor="start" x="8" y="-211.5" font-family="Helvetica,sans-Serif" font-size="10.00">+ Proposition()</text>
<text text-anchor="start" x="8" y="-200.5" font-family="Helvetica,sans-Serif" font-size="10.00">+ Proposition()</text>
<text text-anchor="start" x="8" y="-189.5" font-family="Helvetica,sans-Serif" font-size="10.00">+ is_equal()</text>
<text text-anchor="start" x="8" y="-178.5" font-family="Helvetica,sans-Serif" font-size="10.00">+ is_equal()</text>
<text text-anchor="start" x="8" y="-167.5" font-family="Helvetica,sans-Serif" font-size="10.00">+ get_name()</text>
</a>
</g>
</g>
<!-- Node2&#45;&gt;Node1 -->
<g id="edge1" class="edge">
<title>Node2&#45;&gt;Node1</title>
<path fill="none" stroke="#404040" d="M61.44,-160.49C66.43,-150.47 72.04,-140.2 78,-131 79.98,-127.95 82.07,-124.88 84.24,-121.82"/>
<polygon fill="none" stroke="#404040" points="84.26,-121.79 84.61,-114.58 91.39,-112.13 91.05,-119.34 84.26,-121.79"/>
<text text-anchor="middle" x="107" y="-134" font-family="Helvetica,sans-Serif" font-size="10.00"> &#45;_proposition</text>
</g>
<!-- Node3 -->
<g id="node3" class="node">
<title>Node3</title>
<g id="a_node3"><a xlink:href="../../d5/de2/class_context.html" target="_top" xlink:title=" ">
<polygon fill="white" stroke="black" points="98.5,-166 98.5,-256 181.5,-256 181.5,-166 98.5,-166"/>
<text text-anchor="middle" x="140" y="-244" font-family="Helvetica,sans-Serif" font-size="10.00">Context</text>
<polyline fill="none" stroke="black" points="98.5,-237 181.5,-237 "/>
<text text-anchor="start" x="106.5" y="-225" font-family="Helvetica,sans-Serif" font-size="10.00">&#45; _size</text>
<polyline fill="none" stroke="black" points="98.5,-218 181.5,-218 "/>
<text text-anchor="start" x="106.5" y="-206" font-family="Helvetica,sans-Serif" font-size="10.00">+ Context()</text>
<text text-anchor="start" x="106.5" y="-195" font-family="Helvetica,sans-Serif" font-size="10.00">+ Context()</text>
<text text-anchor="start" x="106.5" y="-184" font-family="Helvetica,sans-Serif" font-size="10.00">+ add_context()</text>
<text text-anchor="start" x="106.5" y="-173" font-family="Helvetica,sans-Serif" font-size="10.00">+ is_valid()</text>
</a>
</g>
</g>
<!-- Node3&#45;&gt;Node1 -->
<g id="edge2" class="edge">
<title>Node3&#45;&gt;Node1</title>
<path fill="none" stroke="#404040" d="M140,-165.89C140,-153.03 140,-138.68 140,-124.74"/>
<polygon fill="none" stroke="#404040" points="140,-124.64 136,-118.64 140,-112.64 144,-118.64 140,-124.64"/>
<text text-anchor="middle" x="161.5" y="-134" font-family="Helvetica,sans-Serif" font-size="10.00"> &#45;_context</text>
</g>
<!-- Node4 -->
<g id="node4" class="node">
<title>Node4</title>
<g id="a_node4"><a xlink:href="../../df/d28/class_vector_queue.html" target="_top" xlink:title=" ">
<polygon fill="white" stroke="black" points="31,-309.5 31,-498.5 195,-498.5 195,-309.5 31,-309.5"/>
<text text-anchor="middle" x="113" y="-486.5" font-family="Helvetica,sans-Serif" font-size="10.00">VectorQueue&lt; ContextCondition &gt;</text>
<polyline fill="none" stroke="black" points="31,-479.5 195,-479.5 "/>
<text text-anchor="start" x="39" y="-467.5" font-family="Helvetica,sans-Serif" font-size="10.00">&#45; _queue</text>
<text text-anchor="start" x="39" y="-456.5" font-family="Helvetica,sans-Serif" font-size="10.00">&#45; _capacity</text>
<polyline fill="none" stroke="black" points="31,-449.5 195,-449.5 "/>
<text text-anchor="start" x="39" y="-437.5" font-family="Helvetica,sans-Serif" font-size="10.00">+ init()</text>
<text text-anchor="start" x="39" y="-426.5" font-family="Helvetica,sans-Serif" font-size="10.00">+ push_front()</text>
<text text-anchor="start" x="39" y="-415.5" font-family="Helvetica,sans-Serif" font-size="10.00">+ push_back()</text>
<text text-anchor="start" x="39" y="-404.5" font-family="Helvetica,sans-Serif" font-size="10.00">+ pop_back()</text>
<text text-anchor="start" x="39" y="-393.5" font-family="Helvetica,sans-Serif" font-size="10.00">+ front()</text>
<text text-anchor="start" x="39" y="-382.5" font-family="Helvetica,sans-Serif" font-size="10.00">+ back()</text>
<text text-anchor="start" x="39" y="-371.5" font-family="Helvetica,sans-Serif" font-size="10.00">+ item_at()</text>
<text text-anchor="start" x="39" y="-360.5" font-family="Helvetica,sans-Serif" font-size="10.00">+ erase()</text>
<text text-anchor="start" x="39" y="-349.5" font-family="Helvetica,sans-Serif" font-size="10.00">+ rotate()</text>
<text text-anchor="start" x="39" y="-338.5" font-family="Helvetica,sans-Serif" font-size="10.00">+ size()</text>
<text text-anchor="start" x="39" y="-327.5" font-family="Helvetica,sans-Serif" font-size="10.00">+ is_empty()</text>
<text text-anchor="start" x="39" y="-316.5" font-family="Helvetica,sans-Serif" font-size="10.00">+ is_full()</text>
</a>
</g>
</g>
<!-- Node4&#45;&gt;Node3 -->
<g id="edge3" class="edge">
<title>Node4&#45;&gt;Node3</title>
<path fill="none" stroke="#404040" d="M126.22,-309.46C128.21,-295.42 130.2,-281.32 132.03,-268.39"/>
<polygon fill="none" stroke="#404040" points="132.05,-268.26 128.93,-261.76 133.73,-256.38 136.85,-262.88 132.05,-268.26"/>
<text text-anchor="middle" x="151.5" y="-283" font-family="Helvetica,sans-Serif" font-size="10.00"> &#45;_context</text>
</g>
<!-- Node5 -->
<g id="node5" class="node">
<title>Node5</title>
<g id="a_node5"><a xlink:href="../../df/d28/class_vector_queue.html" target="_top" xlink:title=" ">
<polygon fill="white" stroke="black" points="153.5,-546.5 153.5,-735.5 250.5,-735.5 250.5,-546.5 153.5,-546.5"/>
<text text-anchor="middle" x="202" y="-723.5" font-family="Helvetica,sans-Serif" font-size="10.00">VectorQueue&lt; X &gt;</text>
<polyline fill="none" stroke="black" points="153.5,-716.5 250.5,-716.5 "/>
<text text-anchor="start" x="161.5" y="-704.5" font-family="Helvetica,sans-Serif" font-size="10.00">&#45; _queue</text>
<text text-anchor="start" x="161.5" y="-693.5" font-family="Helvetica,sans-Serif" font-size="10.00">&#45; _capacity</text>
<polyline fill="none" stroke="black" points="153.5,-686.5 250.5,-686.5 "/>
<text text-anchor="start" x="161.5" y="-674.5" font-family="Helvetica,sans-Serif" font-size="10.00">+ init()</text>
<text text-anchor="start" x="161.5" y="-663.5" font-family="Helvetica,sans-Serif" font-size="10.00">+ push_front()</text>
<text text-anchor="start" x="161.5" y="-652.5" font-family="Helvetica,sans-Serif" font-size="10.00">+ push_back()</text>
<text text-anchor="start" x="161.5" y="-641.5" font-family="Helvetica,sans-Serif" font-size="10.00">+ pop_back()</text>
<text text-anchor="start" x="161.5" y="-630.5" font-family="Helvetica,sans-Serif" font-size="10.00">+ front()</text>
<text text-anchor="start" x="161.5" y="-619.5" font-family="Helvetica,sans-Serif" font-size="10.00">+ back()</text>
<text text-anchor="start" x="161.5" y="-608.5" font-family="Helvetica,sans-Serif" font-size="10.00">+ item_at()</text>
<text text-anchor="start" x="161.5" y="-597.5" font-family="Helvetica,sans-Serif" font-size="10.00">+ erase()</text>
<text text-anchor="start" x="161.5" y="-586.5" font-family="Helvetica,sans-Serif" font-size="10.00">+ rotate()</text>
<text text-anchor="start" x="161.5" y="-575.5" font-family="Helvetica,sans-Serif" font-size="10.00">+ size()</text>
<text text-anchor="start" x="161.5" y="-564.5" font-family="Helvetica,sans-Serif" font-size="10.00">+ is_empty()</text>
<text text-anchor="start" x="161.5" y="-553.5" font-family="Helvetica,sans-Serif" font-size="10.00">+ is_full()</text>
</a>
</g>
</g>
<!-- Node5&#45;&gt;Node4 -->
<g id="edge4" class="edge">
<title>Node5&#45;&gt;Node4</title>
<path fill="none" stroke="orange" d="M162.91,-536.79C158.1,-524.09 153.21,-511.16 148.45,-498.62"/>
<polygon fill="orange" stroke="orange" points="159.75,-538.33 166.57,-546.45 166.3,-535.86 159.75,-538.33"/>
<text text-anchor="middle" x="204.5" y="-520" font-family="Helvetica,sans-Serif" font-size="10.00"> &lt; ContextCondition &gt;</text>
</g>
<!-- Node7 -->
<g id="node7" class="node">
<title>Node7</title>
<g id="a_node7"><a xlink:href="../../df/d28/class_vector_queue.html" target="_top" xlink:title=" ">
<polygon fill="white" stroke="black" points="213,-309.5 213,-498.5 371,-498.5 371,-309.5 213,-309.5"/>
<text text-anchor="middle" x="292" y="-486.5" font-family="Helvetica,sans-Serif" font-size="10.00">VectorQueue&lt; BodyInstruction &gt;</text>
<polyline fill="none" stroke="black" points="213,-479.5 371,-479.5 "/>
<text text-anchor="start" x="221" y="-467.5" font-family="Helvetica,sans-Serif" font-size="10.00">&#45; _queue</text>
<text text-anchor="start" x="221" y="-456.5" font-family="Helvetica,sans-Serif" font-size="10.00">&#45; _capacity</text>
<polyline fill="none" stroke="black" points="213,-449.5 371,-449.5 "/>
<text text-anchor="start" x="221" y="-437.5" font-family="Helvetica,sans-Serif" font-size="10.00">+ init()</text>
<text text-anchor="start" x="221" y="-426.5" font-family="Helvetica,sans-Serif" font-size="10.00">+ push_front()</text>
<text text-anchor="start" x="221" y="-415.5" font-family="Helvetica,sans-Serif" font-size="10.00">+ push_back()</text>
<text text-anchor="start" x="221" y="-404.5" font-family="Helvetica,sans-Serif" font-size="10.00">+ pop_back()</text>
<text text-anchor="start" x="221" y="-393.5" font-family="Helvetica,sans-Serif" font-size="10.00">+ front()</text>
<text text-anchor="start" x="221" y="-382.5" font-family="Helvetica,sans-Serif" font-size="10.00">+ back()</text>
<text text-anchor="start" x="221" y="-371.5" font-family="Helvetica,sans-Serif" font-size="10.00">+ item_at()</text>
<text text-anchor="start" x="221" y="-360.5" font-family="Helvetica,sans-Serif" font-size="10.00">+ erase()</text>
<text text-anchor="start" x="221" y="-349.5" font-family="Helvetica,sans-Serif" font-size="10.00">+ rotate()</text>
<text text-anchor="start" x="221" y="-338.5" font-family="Helvetica,sans-Serif" font-size="10.00">+ size()</text>
<text text-anchor="start" x="221" y="-327.5" font-family="Helvetica,sans-Serif" font-size="10.00">+ is_empty()</text>
<text text-anchor="start" x="221" y="-316.5" font-family="Helvetica,sans-Serif" font-size="10.00">+ is_full()</text>
</a>
</g>
</g>
<!-- Node5&#45;&gt;Node7 -->
<g id="edge7" class="edge">
<title>Node5&#45;&gt;Node7</title>
<path fill="none" stroke="orange" d="M250.53,-536.8C251.72,-533.85 252.88,-530.91 254,-528 257.61,-518.61 261.13,-508.73 264.47,-498.8"/>
<polygon fill="orange" stroke="orange" points="247.2,-535.71 246.63,-546.29 253.67,-538.37 247.2,-535.71"/>
<text text-anchor="middle" x="301.5" y="-520" font-family="Helvetica,sans-Serif" font-size="10.00"> &lt; BodyInstruction &gt;</text>
</g>
<!-- Node6 -->
<g id="node6" class="node">
<title>Node6</title>
<g id="a_node6"><a xlink:href="../../d0/dcb/class_body.html" target="_top" xlink:title=" ">
<polygon fill="white" stroke="black" points="234.5,-160.5 234.5,-261.5 331.5,-261.5 331.5,-160.5 234.5,-160.5"/>
<text text-anchor="middle" x="283" y="-249.5" font-family="Helvetica,sans-Serif" font-size="10.00">Body</text>
<polyline fill="none" stroke="black" points="234.5,-242.5 331.5,-242.5 "/>
<text text-anchor="start" x="242.5" y="-230.5" font-family="Helvetica,sans-Serif" font-size="10.00">&#45; _size</text>
<polyline fill="none" stroke="black" points="234.5,-223.5 331.5,-223.5 "/>
<text text-anchor="start" x="242.5" y="-211.5" font-family="Helvetica,sans-Serif" font-size="10.00">+ Body()</text>
<text text-anchor="start" x="242.5" y="-200.5" font-family="Helvetica,sans-Serif" font-size="10.00">+ Body()</text>
<text text-anchor="start" x="242.5" y="-189.5" font-family="Helvetica,sans-Serif" font-size="10.00">+ run_body()</text>
<text text-anchor="start" x="242.5" y="-178.5" font-family="Helvetica,sans-Serif" font-size="10.00">+ add_instruction()</text>
<text text-anchor="start" x="242.5" y="-167.5" font-family="Helvetica,sans-Serif" font-size="10.00">+ get_size()</text>
</a>
</g>
</g>
<!-- Node6&#45;&gt;Node1 -->
<g id="edge5" class="edge">
<title>Node6&#45;&gt;Node1</title>
<path fill="none" stroke="#404040" d="M236.57,-160.49C224,-147.08 210.23,-132.4 197.14,-118.44"/>
<polygon fill="none" stroke="#404040" points="196.86,-118.14 189.84,-116.5 188.65,-109.39 195.68,-111.03 196.86,-118.14"/>
<text text-anchor="middle" x="231.5" y="-134" font-family="Helvetica,sans-Serif" font-size="10.00"> &#45;_body</text>
</g>
<!-- Node7&#45;&gt;Node6 -->
<g id="edge6" class="edge">
<title>Node7&#45;&gt;Node6</title>
<path fill="none" stroke="#404040" d="M287.59,-309.46C287.02,-297.31 286.45,-285.12 285.91,-273.68"/>
<polygon fill="none" stroke="#404040" points="285.9,-273.57 281.62,-267.77 285.34,-261.59 289.61,-267.39 285.9,-273.57"/>
<text text-anchor="middle" x="301.5" y="-283" font-family="Helvetica,sans-Serif" font-size="10.00"> &#45;_body</text>
</g>
</g>
</svg>
        <g id="navigator" transform="translate(0 0)" fill="#404254">
                <rect fill="#f2f5e9" fill-opacity="0.5" stroke="#606060" stroke-width=".5" x="0" y="0" width="60" height="60"/>
                <use id="zoomplus" xlink:href="#zoomPlus" x="17" y="9" onmousedown="handleZoom(evt,'in')"/>
                <use id="zoomminus" xlink:href="#zoomMin" x="42" y="9" onmousedown="handleZoom(evt,'out')"/>
                <use id="reset" xlink:href="#resetDef" x="30" y="36" onmousedown="handleReset()"/>
                <g id="arrowUp" xlink:href="#dirArrow" transform="translate(30 24)" onmousedown="handlePan(0,-1)">
                  <use xlink:href="#rim" fill="#404040">
                        <set attributeName="fill" to="#808080" begin="arrowUp.mouseover" end="arrowUp.mouseout"/>
                  </use>
                  <path fill="none" stroke="white" stroke-width="1.5" d="M0,-3.0v7 M-2.5,-0.5L0,-3.0L2.5,-0.5"/>
                </g>
                <g id="arrowRight" xlink:href="#dirArrow" transform="rotate(90) translate(36 -43)" onmousedown="handlePan(1,0)">
                  <use xlink:href="#rim" fill="#404040">
                        <set attributeName="fill" to="#808080" begin="arrowRight.mouseover" end="arrowRight.mouseout"/>
                  </use>
                  <path fill="none" stroke="white" stroke-width="1.5" d="M0,-3.0v7 M-2.5,-0.5L0,-3.0L2.5,-0.5"/>
                </g>
                <g id="arrowDown" xlink:href="#dirArrow" transform="rotate(180) translate(-30 -48)" onmousedown="handlePan(0,1)">
                  <use xlink:href="#rim" fill="#404040">
                        <set attributeName="fill" to="#808080" begin="arrowDown.mouseover" end="arrowDown.mouseout"/>
                  </use>
                  <path fill="none" stroke="white" stroke-width="1.5" d="M0,-3.0v7 M-2.5,-0.5L0,-3.0L2.5,-0.5"/>
                </g>
                <g id="arrowLeft" xlink:href="#dirArrow" transform="rotate(270) translate(-36 17)" onmousedown="handlePan(-1,0)">
                  <use xlink:href="#rim" fill="#404040">
                        <set attributeName="fill" to="#808080" begin="arrowLeft.mouseover" end="arrowLeft.mouseout"/>
                  </use>
                  <path fill="none" stroke="white" stroke-width="1.5" d="M0,-3.0v7 M-2.5,-0.5L0,-3.0L2.5,-0.5"/>
                </g>
        </g>
        <svg viewBox="0 0 15 15" width="100%" height="30px" preserveAspectRatio="xMaxYMin meet">
         <g id="arrow_out" transform="scale(0.3 0.3)">
          <a xlink:href="class_plan__coll__graph_org.svg" target="_base">
           <rect id="button" ry="5" rx="5" y="6" x="6" height="38" width="38"
                fill="#f2f5e9" fill-opacity="0.5" stroke="#606060" stroke-width="1.0"/>
           <path id="arrow"
             d="M 11.500037,31.436501 C 11.940474,20.09759 22.043105,11.32322 32.158766,21.979434 L 37.068811,17.246167 C 37.068811,17.246167 37.088388,32 37.088388,32 L 22.160133,31.978069 C 22.160133,31.978069 26.997745,27.140456 26.997745,27.140456 C 18.528582,18.264221 13.291696,25.230495 11.500037,31.436501 z"
             style="fill:#404040;"/>
          </a>
         </g>
        </svg>
</svg>
