<?xml version="1.0" encoding="UTF-8" standalone="no"?>
<!DOCTYPE svg PUBLIC "-//W3C//DTD SVG 1.1//EN"
 "http://www.w3.org/Graphics/SVG/1.1/DTD/svg11.dtd">
<!-- Generated by graphviz version 2.47.3 (20210711.2253)
 -->
<!-- Title: body_return.h Pages: 1 -->
<svg width="377pt" height="476pt"
 viewBox="0.00 0.00 377.22 476.00" xmlns="http://www.w3.org/2000/svg" xmlns:xlink="http://www.w3.org/1999/xlink">
<g id="graph0" class="graph" transform="scale(1 1) rotate(0) translate(4 472)">
<title>body_return.h</title>
<polygon fill="white" stroke="transparent" points="-4,4 -4,-472 373.22,-472 373.22,4 -4,4"/>
<!-- Node1 -->
<g id="node1" class="node">
<title>Node1</title>
<g id="a_node1"><a xlink:title=" ">
<polygon fill="#bfbfbf" stroke="black" points="190.22,-448.5 190.22,-467.5 264.22,-467.5 264.22,-448.5 190.22,-448.5"/>
<text text-anchor="middle" x="227.22" y="-455.5" font-family="Helvetica,sans-Serif" font-size="10.00">body_return.h</text>
</a>
</g>
</g>
<!-- Node2 -->
<g id="node2" class="node">
<title>Node2</title>
<g id="a_node2"><a xlink:href="../../d8/d67/body__instruction_8h.html" target="_top" xlink:title=" ">
<polygon fill="white" stroke="black" points="125.72,-392.5 125.72,-411.5 220.72,-411.5 220.72,-392.5 125.72,-392.5"/>
<text text-anchor="middle" x="173.22" y="-399.5" font-family="Helvetica,sans-Serif" font-size="10.00">body_instruction.h</text>
</a>
</g>
</g>
<!-- Node1&#45;&gt;Node2 -->
<g id="edge1" class="edge">
<title>Node1&#45;&gt;Node2</title>
<path fill="none" stroke="midnightblue" d="M211.22,-441C201.65,-431.43 189.86,-419.64 181.97,-411.75"/>
<polygon fill="midnightblue" stroke="midnightblue" points="208.76,-443.49 218.3,-448.08 213.71,-438.54 208.76,-443.49"/>
</g>
<!-- Node19 -->
<g id="node19" class="node">
<title>Node19</title>
<g id="a_node19"><a xlink:href="../../de/dc0/body__return_8cpp.html" target="_top" xlink:title=" ">
<polygon fill="white" stroke="black" points="238.72,-392.5 238.72,-411.5 323.72,-411.5 323.72,-392.5 238.72,-392.5"/>
<text text-anchor="middle" x="281.22" y="-399.5" font-family="Helvetica,sans-Serif" font-size="10.00">body_return.cpp</text>
</a>
</g>
</g>
<!-- Node1&#45;&gt;Node19 -->
<g id="edge21" class="edge">
<title>Node1&#45;&gt;Node19</title>
<path fill="none" stroke="midnightblue" d="M243.22,-441C252.79,-431.43 264.58,-419.64 272.47,-411.75"/>
<polygon fill="midnightblue" stroke="midnightblue" points="240.73,-438.54 236.14,-448.08 245.68,-443.49 240.73,-438.54"/>
</g>
<!-- Node3 -->
<g id="node3" class="node">
<title>Node3</title>
<g id="a_node3"><a xlink:href="../../d0/d77/body_8h.html" target="_top" xlink:title=" ">
<polygon fill="white" stroke="black" points="105.22,-336.5 105.22,-355.5 149.22,-355.5 149.22,-336.5 105.22,-336.5"/>
<text text-anchor="middle" x="127.22" y="-343.5" font-family="Helvetica,sans-Serif" font-size="10.00">body.h</text>
</a>
</g>
</g>
<!-- Node2&#45;&gt;Node3 -->
<g id="edge2" class="edge">
<title>Node2&#45;&gt;Node3</title>
<path fill="none" stroke="midnightblue" d="M159.11,-384.43C151.04,-374.97 141.26,-363.48 134.67,-355.75"/>
<polygon fill="midnightblue" stroke="midnightblue" points="156.48,-386.74 165.62,-392.08 161.8,-382.2 156.48,-386.74"/>
</g>
<!-- Node18 -->
<g id="node18" class="node">
<title>Node18</title>
<g id="a_node18"><a xlink:href="../../d4/d8b/body__instruction_8cpp.html" target="_top" xlink:title=" ">
<polygon fill="white" stroke="black" points="167.72,-336.5 167.72,-355.5 272.72,-355.5 272.72,-336.5 167.72,-336.5"/>
<text text-anchor="middle" x="220.22" y="-343.5" font-family="Helvetica,sans-Serif" font-size="10.00">body_instruction.cpp</text>
</a>
</g>
</g>
<!-- Node2&#45;&gt;Node18 -->
<g id="edge20" class="edge">
<title>Node2&#45;&gt;Node18</title>
<path fill="none" stroke="midnightblue" d="M187.64,-384.43C195.88,-374.97 205.87,-363.48 212.6,-355.75"/>
<polygon fill="midnightblue" stroke="midnightblue" points="184.91,-382.24 180.98,-392.08 190.19,-386.84 184.91,-382.24"/>
</g>
<!-- Node4 -->
<g id="node4" class="node">
<title>Node4</title>
<g id="a_node4"><a xlink:href="../../d1/d5f/body_8cpp.html" target="_top" xlink:title=" ">
<polygon fill="white" stroke="black" points="66.72,-280.5 66.72,-299.5 121.72,-299.5 121.72,-280.5 66.72,-280.5"/>
<text text-anchor="middle" x="94.22" y="-287.5" font-family="Helvetica,sans-Serif" font-size="10.00">body.cpp</text>
</a>
</g>
</g>
<!-- Node3&#45;&gt;Node4 -->
<g id="edge3" class="edge">
<title>Node3&#45;&gt;Node4</title>
<path fill="none" stroke="midnightblue" d="M116.39,-327.27C110.75,-318.05 104.1,-307.17 99.57,-299.75"/>
<polygon fill="midnightblue" stroke="midnightblue" points="113.57,-329.38 121.77,-336.08 119.54,-325.73 113.57,-329.38"/>
</g>
<!-- Node5 -->
<g id="node5" class="node">
<title>Node5</title>
<g id="a_node5"><a xlink:href="../../d9/d4e/plan_8h.html" target="_top" xlink:title=" ">
<polygon fill="white" stroke="black" points="140.22,-280.5 140.22,-299.5 182.22,-299.5 182.22,-280.5 140.22,-280.5"/>
<text text-anchor="middle" x="161.22" y="-287.5" font-family="Helvetica,sans-Serif" font-size="10.00">plan.h</text>
</a>
</g>
</g>
<!-- Node3&#45;&gt;Node5 -->
<g id="edge4" class="edge">
<title>Node3&#45;&gt;Node5</title>
<path fill="none" stroke="midnightblue" d="M138.2,-327.57C144.05,-318.27 150.99,-307.25 155.71,-299.75"/>
<polygon fill="midnightblue" stroke="midnightblue" points="135.2,-325.76 132.83,-336.08 141.12,-329.49 135.2,-325.76"/>
</g>
<!-- Node6 -->
<g id="node6" class="node">
<title>Node6</title>
<g id="a_node6"><a xlink:href="../../de/d3c/instantiated__plan_8h.html" target="_top" xlink:title=" ">
<polygon fill="white" stroke="black" points="62.22,-224.5 62.22,-243.5 160.22,-243.5 160.22,-224.5 62.22,-224.5"/>
<text text-anchor="middle" x="111.22" y="-231.5" font-family="Helvetica,sans-Serif" font-size="10.00">instantiated_plan.h</text>
</a>
</g>
</g>
<!-- Node5&#45;&gt;Node6 -->
<g id="edge5" class="edge">
<title>Node5&#45;&gt;Node6</title>
<path fill="none" stroke="midnightblue" d="M146.14,-272.72C137.33,-263.2 126.55,-251.56 119.32,-243.75"/>
<polygon fill="midnightblue" stroke="midnightblue" points="143.6,-275.12 152.96,-280.08 148.74,-270.37 143.6,-275.12"/>
</g>
<!-- Node10 -->
<g id="node10" class="node">
<title>Node10</title>
<g id="a_node10"><a xlink:href="../../d8/d83/intention__base_8h.html" target="_top" xlink:title=" ">
<polygon fill="white" stroke="black" points="67.72,-112.5 67.72,-131.5 154.72,-131.5 154.72,-112.5 67.72,-112.5"/>
<text text-anchor="middle" x="111.22" y="-119.5" font-family="Helvetica,sans-Serif" font-size="10.00">intention_base.h</text>
</a>
</g>
</g>
<!-- Node5&#45;&gt;Node10 -->
<g id="edge14" class="edge">
<title>Node5&#45;&gt;Node10</title>
<path fill="none" stroke="midnightblue" d="M130.51,-277.91C103.38,-267.81 66.16,-253.11 53.22,-244 25.69,-224.62 14.37,-219.39 2.22,-188 -10.07,-156.25 32.18,-139.15 67.61,-130.58"/>
<polygon fill="midnightblue" stroke="midnightblue" points="129.4,-281.23 139.99,-281.41 131.82,-274.66 129.4,-281.23"/>
</g>
<!-- Node15 -->
<g id="node15" class="node">
<title>Node15</title>
<g id="a_node15"><a xlink:href="../../de/d75/plan__base_8h.html" target="_top" xlink:title=" ">
<polygon fill="white" stroke="black" points="178.22,-224.5 178.22,-243.5 246.22,-243.5 246.22,-224.5 178.22,-224.5"/>
<text text-anchor="middle" x="212.22" y="-231.5" font-family="Helvetica,sans-Serif" font-size="10.00">plan_base.h</text>
</a>
</g>
</g>
<!-- Node5&#45;&gt;Node15 -->
<g id="edge15" class="edge">
<title>Node5&#45;&gt;Node15</title>
<path fill="none" stroke="midnightblue" d="M176.6,-272.72C185.59,-263.2 196.58,-251.56 203.96,-243.75"/>
<polygon fill="midnightblue" stroke="midnightblue" points="173.96,-270.41 169.64,-280.08 179.05,-275.22 173.96,-270.41"/>
</g>
<!-- Node17 -->
<g id="node17" class="node">
<title>Node17</title>
<g id="a_node17"><a xlink:href="../../d7/df1/plan_8cpp.html" target="_top" xlink:title=" ">
<polygon fill="white" stroke="black" points="264.72,-224.5 264.72,-243.5 317.72,-243.5 317.72,-224.5 264.72,-224.5"/>
<text text-anchor="middle" x="291.22" y="-231.5" font-family="Helvetica,sans-Serif" font-size="10.00">plan.cpp</text>
</a>
</g>
</g>
<!-- Node5&#45;&gt;Node17 -->
<g id="edge19" class="edge">
<title>Node5&#45;&gt;Node17</title>
<path fill="none" stroke="midnightblue" d="M191.31,-276.5C215.68,-266.38 249.36,-252.39 270.72,-243.52"/>
<polygon fill="midnightblue" stroke="midnightblue" points="189.71,-273.38 181.82,-280.44 192.4,-279.84 189.71,-273.38"/>
</g>
<!-- Node7 -->
<g id="node7" class="node">
<title>Node7</title>
<g id="a_node7"><a xlink:href="../../df/dbd/instantiated__plan_8cpp.html" target="_top" xlink:title=" ">
<polygon fill="white" stroke="black" points="11.22,-168.5 11.22,-187.5 119.22,-187.5 119.22,-168.5 11.22,-168.5"/>
<text text-anchor="middle" x="65.22" y="-175.5" font-family="Helvetica,sans-Serif" font-size="10.00">instantiated_plan.cpp</text>
</a>
</g>
</g>
<!-- Node6&#45;&gt;Node7 -->
<g id="edge6" class="edge">
<title>Node6&#45;&gt;Node7</title>
<path fill="none" stroke="midnightblue" d="M97.11,-216.43C89.04,-206.97 79.26,-195.48 72.67,-187.75"/>
<polygon fill="midnightblue" stroke="midnightblue" points="94.48,-218.74 103.62,-224.08 99.8,-214.2 94.48,-218.74"/>
</g>
<!-- Node8 -->
<g id="node8" class="node">
<title>Node8</title>
<g id="a_node8"><a xlink:href="../../df/d3f/intention_8h.html" target="_top" xlink:title=" ">
<polygon fill="white" stroke="black" points="137.72,-168.5 137.72,-187.5 198.72,-187.5 198.72,-168.5 137.72,-168.5"/>
<text text-anchor="middle" x="168.22" y="-175.5" font-family="Helvetica,sans-Serif" font-size="10.00">intention.h</text>
</a>
</g>
</g>
<!-- Node6&#45;&gt;Node8 -->
<g id="edge7" class="edge">
<title>Node6&#45;&gt;Node8</title>
<path fill="none" stroke="midnightblue" d="M127.84,-217.25C137.95,-207.67 150.5,-195.79 158.9,-187.83"/>
<polygon fill="midnightblue" stroke="midnightblue" points="125.23,-214.91 120.38,-224.32 130.04,-219.99 125.23,-214.91"/>
</g>
<!-- Node9 -->
<g id="node9" class="node">
<title>Node9</title>
<g id="a_node9"><a xlink:href="../../d4/db4/intention_8cpp.html" target="_top" xlink:title=" ">
<polygon fill="white" stroke="black" points="172.72,-112.5 172.72,-131.5 243.72,-131.5 243.72,-112.5 172.72,-112.5"/>
<text text-anchor="middle" x="208.22" y="-119.5" font-family="Helvetica,sans-Serif" font-size="10.00">intention.cpp</text>
</a>
</g>
</g>
<!-- Node8&#45;&gt;Node9 -->
<g id="edge8" class="edge">
<title>Node8&#45;&gt;Node9</title>
<path fill="none" stroke="midnightblue" d="M180.92,-159.86C187.85,-150.5 196.13,-139.33 201.74,-131.75"/>
<polygon fill="midnightblue" stroke="midnightblue" points="177.97,-157.96 174.83,-168.08 183.59,-162.13 177.97,-157.96"/>
</g>
<!-- Node8&#45;&gt;Node10 -->
<g id="edge9" class="edge">
<title>Node8&#45;&gt;Node10</title>
<path fill="none" stroke="midnightblue" d="M151.6,-161.25C141.49,-151.67 128.94,-139.79 120.54,-131.83"/>
<polygon fill="midnightblue" stroke="midnightblue" points="149.4,-163.99 159.06,-168.32 154.21,-158.91 149.4,-163.99"/>
</g>
<!-- Node11 -->
<g id="node11" class="node">
<title>Node11</title>
<g id="a_node11"><a xlink:href="../../de/d9e/agent_8h.html" target="_top" xlink:title=" ">
<polygon fill="white" stroke="black" points="259.22,-56.5 259.22,-75.5 307.22,-75.5 307.22,-56.5 259.22,-56.5"/>
<text text-anchor="middle" x="283.22" y="-63.5" font-family="Helvetica,sans-Serif" font-size="10.00">agent.h</text>
</a>
</g>
</g>
<!-- Node10&#45;&gt;Node11 -->
<g id="edge10" class="edge">
<title>Node10&#45;&gt;Node11</title>
<path fill="none" stroke="midnightblue" d="M148.38,-109.33C181.95,-98.79 230.39,-83.59 259.15,-74.56"/>
<polygon fill="midnightblue" stroke="midnightblue" points="146.97,-106.11 138.47,-112.44 149.06,-112.79 146.97,-106.11"/>
</g>
<!-- Node14 -->
<g id="node14" class="node">
<title>Node14</title>
<g id="a_node14"><a xlink:href="../../d2/dd9/intention__base_8cpp.html" target="_top" xlink:title=" ">
<polygon fill="white" stroke="black" points="62.22,-56.5 62.22,-75.5 160.22,-75.5 160.22,-56.5 62.22,-56.5"/>
<text text-anchor="middle" x="111.22" y="-63.5" font-family="Helvetica,sans-Serif" font-size="10.00">intention_base.cpp</text>
</a>
</g>
</g>
<!-- Node10&#45;&gt;Node14 -->
<g id="edge13" class="edge">
<title>Node10&#45;&gt;Node14</title>
<path fill="none" stroke="midnightblue" d="M111.22,-101.8C111.22,-92.91 111.22,-82.78 111.22,-75.75"/>
<polygon fill="midnightblue" stroke="midnightblue" points="107.72,-102.08 111.22,-112.08 114.72,-102.08 107.72,-102.08"/>
</g>
<!-- Node12 -->
<g id="node12" class="node">
<title>Node12</title>
<g id="a_node12"><a xlink:href="../../dd/d3d/agent_8cpp.html" target="_top" xlink:title=" ">
<polygon fill="white" stroke="black" points="209.72,-0.5 209.72,-19.5 268.72,-19.5 268.72,-0.5 209.72,-0.5"/>
<text text-anchor="middle" x="239.22" y="-7.5" font-family="Helvetica,sans-Serif" font-size="10.00">agent.cpp</text>
</a>
</g>
</g>
<!-- Node11&#45;&gt;Node12 -->
<g id="edge11" class="edge">
<title>Node11&#45;&gt;Node12</title>
<path fill="none" stroke="midnightblue" d="M269.49,-48.14C261.82,-38.74 252.59,-27.4 246.35,-19.75"/>
<polygon fill="midnightblue" stroke="midnightblue" points="266.92,-50.54 275.95,-56.08 272.35,-46.12 266.92,-50.54"/>
</g>
<!-- Node13 -->
<g id="node13" class="node">
<title>Node13</title>
<g id="a_node13"><a xlink:href="../../d4/d91/agent__loop_8cpp.html" target="_top" xlink:title=" ">
<polygon fill="white" stroke="black" points="287.22,-0.5 287.22,-19.5 369.22,-19.5 369.22,-0.5 287.22,-0.5"/>
<text text-anchor="middle" x="328.22" y="-7.5" font-family="Helvetica,sans-Serif" font-size="10.00">agent_loop.cpp</text>
</a>
</g>
</g>
<!-- Node11&#45;&gt;Node13 -->
<g id="edge12" class="edge">
<title>Node11&#45;&gt;Node13</title>
<path fill="none" stroke="midnightblue" d="M297.27,-48.14C305.11,-38.74 314.55,-27.4 320.93,-19.75"/>
<polygon fill="midnightblue" stroke="midnightblue" points="294.36,-46.16 290.65,-56.08 299.74,-50.64 294.36,-46.16"/>
</g>
<!-- Node15&#45;&gt;Node8 -->
<g id="edge17" class="edge">
<title>Node15&#45;&gt;Node8</title>
<path fill="none" stroke="midnightblue" d="M198.49,-216.14C190.82,-206.74 181.59,-195.4 175.35,-187.75"/>
<polygon fill="midnightblue" stroke="midnightblue" points="195.92,-218.54 204.95,-224.08 201.35,-214.12 195.92,-218.54"/>
</g>
<!-- Node15&#45;&gt;Node11 -->
<g id="edge16" class="edge">
<title>Node15&#45;&gt;Node11</title>
<path fill="none" stroke="midnightblue" d="M255.83,-222.98C274.4,-216.32 294.27,-205.47 305.22,-188 328.25,-151.28 300.92,-96.71 288.62,-75.69"/>
<polygon fill="midnightblue" stroke="midnightblue" points="254.71,-219.66 246.29,-226.09 256.88,-226.32 254.71,-219.66"/>
</g>
<!-- Node16 -->
<g id="node16" class="node">
<title>Node16</title>
<g id="a_node16"><a xlink:href="../../d4/d51/plan__base_8cpp.html" target="_top" xlink:title=" ">
<polygon fill="white" stroke="black" points="216.72,-168.5 216.72,-187.5 295.72,-187.5 295.72,-168.5 216.72,-168.5"/>
<text text-anchor="middle" x="256.22" y="-175.5" font-family="Helvetica,sans-Serif" font-size="10.00">plan_base.cpp</text>
</a>
</g>
</g>
<!-- Node15&#45;&gt;Node16 -->
<g id="edge18" class="edge">
<title>Node15&#45;&gt;Node16</title>
<path fill="none" stroke="midnightblue" d="M225.95,-216.14C233.62,-206.74 242.85,-195.4 249.09,-187.75"/>
<polygon fill="midnightblue" stroke="midnightblue" points="223.09,-214.12 219.49,-224.08 228.52,-218.54 223.09,-214.12"/>
</g>
</g>
</svg>
