<?xml version="1.0" encoding="UTF-8" standalone="no"?>
<!DOCTYPE svg PUBLIC "-//W3C//DTD SVG 1.1//EN"
 "http://www.w3.org/Graphics/SVG/1.1/DTD/svg11.dtd">
<!-- Generated by graphviz version 2.48.0 (20210719.0153)
 -->
<!-- Title: event_base.h Pages: 1 -->
<!--zoomable 532 -->
<svg id="main" version="1.1" xmlns="http://www.w3.org/2000/svg" xmlns:xlink="http://www.w3.org/1999/xlink" xml:space="preserve" onload="init(evt)">
<style type="text/css"><![CDATA[
.edge:hover path { stroke: red; }
.edge:hover polygon { stroke: red; fill: red; }
]]></style>
<script type="text/javascript"><![CDATA[
var edges = document.getElementsByTagName('g');
if (edges && edges.length) {
  for (var i=0;i<edges.length;i++) {
    if (edges[i].id.substr(0,4)=='edge') {
      edges[i].setAttribute('class','edge');
    }
  }
}
]]></script>
        <defs>
                <circle id="rim" cx="0" cy="0" r="7"/>
                <circle id="rim2" cx="0" cy="0" r="3.5"/>
                <g id="zoomPlus">
                        <use xlink:href="#rim" fill="#404040">
                                <set attributeName="fill" to="#808080" begin="zoomplus.mouseover" end="zoomplus.mouseout"/>
                        </use>
                        <path d="M-4,0h8M0,-4v8" fill="none" stroke="white" stroke-width="1.5" pointer-events="none"/>
                </g>
                <g id="zoomMin">
                        <use xlink:href="#rim" fill="#404040">
                                <set attributeName="fill" to="#808080" begin="zoomminus.mouseover" end="zoomminus.mouseout"/>
                        </use>
                        <path d="M-4,0h8" fill="none" stroke="white" stroke-width="1.5" pointer-events="none"/>
                </g>
                <g id="dirArrow">
                        <path fill="none" stroke="white" stroke-width="1.5" d="M0,-3.0v7 M-2.5,-0.5L0,-3.0L2.5,-0.5"/>
                </g>
               <g id="resetDef">
                       <use xlink:href="#rim2" fill="#404040">
                               <set attributeName="fill" to="#808080" begin="reset.mouseover" end="reset.mouseout"/>
                       </use>
               </g>
        </defs>

<script type="text/javascript">
var viewWidth = 795;
var viewHeight = 532;
var sectionId = 'dynsection-1';
</script>
<script xlink:href="../../svgpan.js"/>
<svg id="graph" class="graph">
<g id="viewport">
<title>event_base.h</title>
<polygon fill="white" stroke="transparent" points="-4,4 -4,-528 791,-528 791,4 -4,4"/>
<!-- Node1 -->
<g id="node1" class="node">
<title>Node1</title>
<g id="a_node1"><a xlink:title=" ">
<polygon fill="#bfbfbf" stroke="black" points="493.5,-504.5 493.5,-523.5 567.5,-523.5 567.5,-504.5 493.5,-504.5"/>
<text text-anchor="middle" x="530.5" y="-511.5" font-family="Helvetica,sans-Serif" font-size="10.00">event_base.h</text>
</a>
</g>
</g>
<!-- Node2 -->
<g id="node2" class="node">
<title>Node2</title>
<g id="a_node2"><a xlink:href="../../de/d9e/agent_8h.html" target="_top" xlink:title=" ">
<polygon fill="white" stroke="black" points="49.5,-56.5 49.5,-75.5 97.5,-75.5 97.5,-56.5 49.5,-56.5"/>
<text text-anchor="middle" x="73.5" y="-63.5" font-family="Helvetica,sans-Serif" font-size="10.00">agent.h</text>
</a>
</g>
</g>
<!-- Node1&#45;&gt;Node2 -->
<g id="edge1" class="edge">
<title>Node1&#45;&gt;Node2</title>
<path fill="none" stroke="midnightblue" d="M482.89,-512.86C355.51,-511.2 16.5,-497.86 16.5,-403 16.5,-403 16.5,-403 16.5,-177 16.5,-135.06 49.57,-93.19 65.33,-75.62"/>
<polygon fill="midnightblue" stroke="midnightblue" points="483.08,-516.36 493.12,-512.97 483.16,-509.36 483.08,-516.36"/>
</g>
<!-- Node5 -->
<g id="node5" class="node">
<title>Node5</title>
<g id="a_node5"><a xlink:href="../../d2/d2f/belief__base_8h.html" target="_top" xlink:title=" ">
<polygon fill="white" stroke="black" points="252.5,-448.5 252.5,-467.5 326.5,-467.5 326.5,-448.5 252.5,-448.5"/>
<text text-anchor="middle" x="289.5" y="-455.5" font-family="Helvetica,sans-Serif" font-size="10.00">belief_base.h</text>
</a>
</g>
</g>
<!-- Node1&#45;&gt;Node5 -->
<g id="edge4" class="edge">
<title>Node1&#45;&gt;Node5</title>
<path fill="none" stroke="midnightblue" d="M483.38,-502.44C437.53,-492.17 368.79,-476.77 326.67,-467.33"/>
<polygon fill="midnightblue" stroke="midnightblue" points="482.85,-505.91 493.37,-504.68 484.38,-499.08 482.85,-505.91"/>
</g>
<!-- Node9 -->
<g id="node9" class="node">
<title>Node9</title>
<g id="a_node9"><a xlink:href="../../d8/d83/intention__base_8h.html" target="_top" xlink:title=" ">
<polygon fill="white" stroke="black" points="283,-112.5 283,-131.5 370,-131.5 370,-112.5 283,-112.5"/>
<text text-anchor="middle" x="326.5" y="-119.5" font-family="Helvetica,sans-Serif" font-size="10.00">intention_base.h</text>
</a>
</g>
</g>
<!-- Node1&#45;&gt;Node9 -->
<g id="edge33" class="edge">
<title>Node1&#45;&gt;Node9</title>
<path fill="none" stroke="midnightblue" d="M570.69,-501.2C612.99,-486.01 673.5,-455.16 673.5,-403 673.5,-403 673.5,-403 673.5,-233 673.5,-170.04 463.29,-138.45 370.1,-127.54"/>
<polygon fill="midnightblue" stroke="midnightblue" points="569.5,-497.91 561.18,-504.46 571.77,-504.53 569.5,-497.91"/>
</g>
<!-- Node13 -->
<g id="node13" class="node">
<title>Node13</title>
<g id="a_node13"><a xlink:href="../../d0/d77/body_8h.html" target="_top" xlink:title=" ">
<polygon fill="white" stroke="black" points="601.5,-336.5 601.5,-355.5 645.5,-355.5 645.5,-336.5 601.5,-336.5"/>
<text text-anchor="middle" x="623.5" y="-343.5" font-family="Helvetica,sans-Serif" font-size="10.00">body.h</text>
</a>
</g>
</g>
<!-- Node1&#45;&gt;Node13 -->
<g id="edge34" class="edge">
<title>Node1&#45;&gt;Node13</title>
<path fill="none" stroke="midnightblue" d="M540.47,-495.44C551.88,-475.31 571.11,-441.32 587.5,-412 598.71,-391.96 611.73,-368.36 618.63,-355.84"/>
<polygon fill="midnightblue" stroke="midnightblue" points="537.29,-493.94 535.4,-504.37 543.38,-497.4 537.29,-493.94"/>
</g>
<!-- Node15 -->
<g id="node15" class="node">
<title>Node15</title>
<g id="a_node15"><a xlink:href="../../d9/d4e/plan_8h.html" target="_top" xlink:title=" ">
<polygon fill="white" stroke="black" points="428.5,-280.5 428.5,-299.5 470.5,-299.5 470.5,-280.5 428.5,-280.5"/>
<text text-anchor="middle" x="449.5" y="-287.5" font-family="Helvetica,sans-Serif" font-size="10.00">plan.h</text>
</a>
</g>
</g>
<!-- Node1&#45;&gt;Node15 -->
<g id="edge36" class="edge">
<title>Node1&#45;&gt;Node15</title>
<path fill="none" stroke="midnightblue" d="M518.86,-495.85C506.15,-476.35 486.06,-443.18 474.5,-412 459.51,-371.57 452.65,-320.04 450.39,-299.76"/>
<polygon fill="midnightblue" stroke="midnightblue" points="515.99,-497.86 524.44,-504.25 521.82,-493.99 515.99,-497.86"/>
</g>
<!-- Node19 -->
<g id="node19" class="node">
<title>Node19</title>
<g id="a_node19"><a xlink:href="../../d8/d67/body__instruction_8h.html" target="_top" xlink:title=" ">
<polygon fill="white" stroke="black" points="483,-392.5 483,-411.5 578,-411.5 578,-392.5 483,-392.5"/>
<text text-anchor="middle" x="530.5" y="-399.5" font-family="Helvetica,sans-Serif" font-size="10.00">body_instruction.h</text>
</a>
</g>
</g>
<!-- Node1&#45;&gt;Node19 -->
<g id="edge35" class="edge">
<title>Node1&#45;&gt;Node19</title>
<path fill="none" stroke="midnightblue" d="M530.5,-494.35C530.5,-470.25 530.5,-429.31 530.5,-411.59"/>
<polygon fill="midnightblue" stroke="midnightblue" points="527,-494.37 530.5,-504.37 534,-494.37 527,-494.37"/>
</g>
<!-- Node23 -->
<g id="node23" class="node">
<title>Node23</title>
<g id="a_node23"><a xlink:href="../../d8/ddf/event__base_8cpp.html" target="_top" xlink:title=" ">
<polygon fill="white" stroke="black" points="702,-448.5 702,-467.5 787,-467.5 787,-448.5 702,-448.5"/>
<text text-anchor="middle" x="744.5" y="-455.5" font-family="Helvetica,sans-Serif" font-size="10.00">event_base.cpp</text>
</a>
</g>
</g>
<!-- Node1&#45;&gt;Node23 -->
<g id="edge32" class="edge">
<title>Node1&#45;&gt;Node23</title>
<path fill="none" stroke="midnightblue" d="M574.26,-501.96C614.67,-491.76 673.87,-476.82 710.75,-467.52"/>
<polygon fill="midnightblue" stroke="midnightblue" points="573.25,-498.6 564.41,-504.44 574.96,-505.39 573.25,-498.6"/>
</g>
<!-- Node3 -->
<g id="node3" class="node">
<title>Node3</title>
<g id="a_node3"><a xlink:href="../../dd/d3d/agent_8cpp.html" target="_top" xlink:title=" ">
<polygon fill="white" stroke="black" points="0,-0.5 0,-19.5 59,-19.5 59,-0.5 0,-0.5"/>
<text text-anchor="middle" x="29.5" y="-7.5" font-family="Helvetica,sans-Serif" font-size="10.00">agent.cpp</text>
</a>
</g>
</g>
<!-- Node2&#45;&gt;Node3 -->
<g id="edge2" class="edge">
<title>Node2&#45;&gt;Node3</title>
<path fill="none" stroke="midnightblue" d="M59.77,-48.14C52.1,-38.74 42.87,-27.4 36.63,-19.75"/>
<polygon fill="midnightblue" stroke="midnightblue" points="57.2,-50.54 66.23,-56.08 62.63,-46.12 57.2,-50.54"/>
</g>
<!-- Node4 -->
<g id="node4" class="node">
<title>Node4</title>
<g id="a_node4"><a xlink:href="../../d4/d91/agent__loop_8cpp.html" target="_top" xlink:title=" ">
<polygon fill="white" stroke="black" points="77.5,-0.5 77.5,-19.5 159.5,-19.5 159.5,-0.5 77.5,-0.5"/>
<text text-anchor="middle" x="118.5" y="-7.5" font-family="Helvetica,sans-Serif" font-size="10.00">agent_loop.cpp</text>
</a>
</g>
</g>
<!-- Node2&#45;&gt;Node4 -->
<g id="edge3" class="edge">
<title>Node2&#45;&gt;Node4</title>
<path fill="none" stroke="midnightblue" d="M87.55,-48.14C95.39,-38.74 104.83,-27.4 111.21,-19.75"/>
<polygon fill="midnightblue" stroke="midnightblue" points="84.64,-46.16 80.93,-56.08 90.02,-50.64 84.64,-46.16"/>
</g>
<!-- Node5&#45;&gt;Node2 -->
<g id="edge5" class="edge">
<title>Node5&#45;&gt;Node2</title>
<path fill="none" stroke="midnightblue" d="M242.11,-455.3C173.47,-450.03 54.5,-429.05 54.5,-347 54.5,-347 54.5,-347 54.5,-177 54.5,-138.82 65.75,-94.26 70.94,-75.75"/>
<polygon fill="midnightblue" stroke="midnightblue" points="242.05,-458.81 252.26,-456 242.53,-451.82 242.05,-458.81"/>
</g>
<!-- Node6 -->
<g id="node6" class="node">
<title>Node6</title>
<g id="a_node6"><a xlink:href="../../de/d9b/belief__base_8cpp.html" target="_top" xlink:title=" ">
<polygon fill="white" stroke="black" points="101.5,-392.5 101.5,-411.5 185.5,-411.5 185.5,-392.5 101.5,-392.5"/>
<text text-anchor="middle" x="143.5" y="-399.5" font-family="Helvetica,sans-Serif" font-size="10.00">belief_base.cpp</text>
</a>
</g>
</g>
<!-- Node5&#45;&gt;Node6 -->
<g id="edge6" class="edge">
<title>Node5&#45;&gt;Node6</title>
<path fill="none" stroke="midnightblue" d="M256.8,-444.91C229.35,-434.75 190.83,-420.51 166.53,-411.52"/>
<polygon fill="midnightblue" stroke="midnightblue" points="255.77,-448.26 266.37,-448.44 258.2,-441.69 255.77,-448.26"/>
</g>
<!-- Node7 -->
<g id="node7" class="node">
<title>Node7</title>
<g id="a_node7"><a xlink:href="../../df/d3f/intention_8h.html" target="_top" xlink:title=" ">
<polygon fill="white" stroke="black" points="218,-168.5 218,-187.5 279,-187.5 279,-168.5 218,-168.5"/>
<text text-anchor="middle" x="248.5" y="-175.5" font-family="Helvetica,sans-Serif" font-size="10.00">intention.h</text>
</a>
</g>
</g>
<!-- Node5&#45;&gt;Node7 -->
<g id="edge7" class="edge">
<title>Node5&#45;&gt;Node7</title>
<path fill="none" stroke="midnightblue" d="M279.36,-439.43C268.1,-418.24 251.5,-381.19 251.5,-347 251.5,-347 251.5,-347 251.5,-289 251.5,-251.17 249.71,-206.06 248.89,-187.56"/>
<polygon fill="midnightblue" stroke="midnightblue" points="276.32,-441.17 284.22,-448.23 282.45,-437.78 276.32,-441.17"/>
</g>
<!-- Node5&#45;&gt;Node9 -->
<g id="edge12" class="edge">
<title>Node5&#45;&gt;Node9</title>
<path fill="none" stroke="midnightblue" d="M291.56,-438.44C298.47,-376.06 320.69,-175.42 325.55,-131.54"/>
<polygon fill="midnightblue" stroke="midnightblue" points="288.07,-438.08 290.45,-448.41 295.03,-438.85 288.07,-438.08"/>
</g>
<!-- Node11 -->
<g id="node11" class="node">
<title>Node11</title>
<g id="a_node11"><a xlink:href="../../de/d75/plan__base_8h.html" target="_top" xlink:title=" ">
<polygon fill="white" stroke="black" points="155.5,-224.5 155.5,-243.5 223.5,-243.5 223.5,-224.5 155.5,-224.5"/>
<text text-anchor="middle" x="189.5" y="-231.5" font-family="Helvetica,sans-Serif" font-size="10.00">plan_base.h</text>
</a>
</g>
</g>
<!-- Node5&#45;&gt;Node11 -->
<g id="edge13" class="edge">
<title>Node5&#45;&gt;Node11</title>
<path fill="none" stroke="midnightblue" d="M267.19,-442.42C256.78,-434.55 245.04,-424 237.5,-412 201.58,-354.85 192.23,-270.97 190.08,-243.82"/>
<polygon fill="midnightblue" stroke="midnightblue" points="265.34,-445.39 275.51,-448.36 269.41,-439.7 265.34,-445.39"/>
</g>
<!-- Node5&#45;&gt;Node13 -->
<g id="edge17" class="edge">
<title>Node5&#45;&gt;Node13</title>
<path fill="none" stroke="midnightblue" d="M322.47,-444.92C359.35,-431.52 420.96,-409.48 474.5,-392 498.33,-384.22 565.86,-364.09 601.24,-353.59"/>
<polygon fill="midnightblue" stroke="midnightblue" points="320.95,-441.75 312.75,-448.46 323.34,-448.32 320.95,-441.75"/>
</g>
<!-- Node5&#45;&gt;Node19 -->
<g id="edge26" class="edge">
<title>Node5&#45;&gt;Node19</title>
<path fill="none" stroke="midnightblue" d="M336.56,-446.46C382.12,-436.25 450.33,-420.96 492.53,-411.51"/>
<polygon fill="midnightblue" stroke="midnightblue" points="335.62,-443.08 326.63,-448.68 337.15,-449.91 335.62,-443.08"/>
</g>
<!-- Node21 -->
<g id="node21" class="node">
<title>Node21</title>
<g id="a_node21"><a xlink:href="../../dc/d1e/context_8h.html" target="_top" xlink:title=" ">
<polygon fill="white" stroke="black" points="322.5,-392.5 322.5,-411.5 378.5,-411.5 378.5,-392.5 322.5,-392.5"/>
<text text-anchor="middle" x="350.5" y="-399.5" font-family="Helvetica,sans-Serif" font-size="10.00">context.h</text>
</a>
</g>
</g>
<!-- Node5&#45;&gt;Node21 -->
<g id="edge29" class="edge">
<title>Node5&#45;&gt;Node21</title>
<path fill="none" stroke="midnightblue" d="M306.97,-441.54C317.84,-431.91 331.44,-419.87 340.52,-411.83"/>
<polygon fill="midnightblue" stroke="midnightblue" points="304.47,-439.07 299.3,-448.32 309.11,-444.32 304.47,-439.07"/>
</g>
<!-- Node8 -->
<g id="node8" class="node">
<title>Node8</title>
<g id="a_node8"><a xlink:href="../../d4/db4/intention_8cpp.html" target="_top" xlink:title=" ">
<polygon fill="white" stroke="black" points="194,-112.5 194,-131.5 265,-131.5 265,-112.5 194,-112.5"/>
<text text-anchor="middle" x="229.5" y="-119.5" font-family="Helvetica,sans-Serif" font-size="10.00">intention.cpp</text>
</a>
</g>
</g>
<!-- Node7&#45;&gt;Node8 -->
<g id="edge8" class="edge">
<title>Node7&#45;&gt;Node8</title>
<path fill="none" stroke="midnightblue" d="M241.95,-158.4C238.78,-149.36 235.11,-138.94 232.58,-131.75"/>
<polygon fill="midnightblue" stroke="midnightblue" points="238.74,-159.81 245.36,-168.08 245.35,-157.49 238.74,-159.81"/>
</g>
<!-- Node7&#45;&gt;Node9 -->
<g id="edge9" class="edge">
<title>Node7&#45;&gt;Node9</title>
<path fill="none" stroke="midnightblue" d="M269.27,-162.62C283.52,-152.76 301.96,-139.99 314,-131.65"/>
<polygon fill="midnightblue" stroke="midnightblue" points="267.26,-159.75 261.03,-168.32 271.25,-165.51 267.26,-159.75"/>
</g>
<!-- Node9&#45;&gt;Node2 -->
<g id="edge10" class="edge">
<title>Node9&#45;&gt;Node2</title>
<path fill="none" stroke="midnightblue" d="M276.36,-110.3C222.36,-98.77 138.71,-80.92 97.76,-72.18"/>
<polygon fill="midnightblue" stroke="midnightblue" points="275.9,-113.78 286.41,-112.44 277.36,-106.93 275.9,-113.78"/>
</g>
<!-- Node10 -->
<g id="node10" class="node">
<title>Node10</title>
<g id="a_node10"><a xlink:href="../../d2/dd9/intention__base_8cpp.html" target="_top" xlink:title=" ">
<polygon fill="white" stroke="black" points="277.5,-56.5 277.5,-75.5 375.5,-75.5 375.5,-56.5 277.5,-56.5"/>
<text text-anchor="middle" x="326.5" y="-63.5" font-family="Helvetica,sans-Serif" font-size="10.00">intention_base.cpp</text>
</a>
</g>
</g>
<!-- Node9&#45;&gt;Node10 -->
<g id="edge11" class="edge">
<title>Node9&#45;&gt;Node10</title>
<path fill="none" stroke="midnightblue" d="M326.5,-101.8C326.5,-92.91 326.5,-82.78 326.5,-75.75"/>
<polygon fill="midnightblue" stroke="midnightblue" points="323,-102.08 326.5,-112.08 330,-102.08 323,-102.08"/>
</g>
<!-- Node11&#45;&gt;Node2 -->
<g id="edge14" class="edge">
<title>Node11&#45;&gt;Node2</title>
<path fill="none" stroke="midnightblue" d="M155.84,-220.34C140.39,-213 123,-202.34 111.5,-188 83.4,-152.96 75.95,-96.93 74.09,-75.61"/>
<polygon fill="midnightblue" stroke="midnightblue" points="154.58,-223.61 165.14,-224.48 157.42,-217.21 154.58,-223.61"/>
</g>
<!-- Node11&#45;&gt;Node7 -->
<g id="edge15" class="edge">
<title>Node11&#45;&gt;Node7</title>
<path fill="none" stroke="midnightblue" d="M206.39,-217.54C216.91,-207.91 230.07,-195.87 238.85,-187.83"/>
<polygon fill="midnightblue" stroke="midnightblue" points="203.99,-214.99 198.98,-224.32 208.72,-220.15 203.99,-214.99"/>
</g>
<!-- Node12 -->
<g id="node12" class="node">
<title>Node12</title>
<g id="a_node12"><a xlink:href="../../d4/d51/plan__base_8cpp.html" target="_top" xlink:title=" ">
<polygon fill="white" stroke="black" points="121,-168.5 121,-187.5 200,-187.5 200,-168.5 121,-168.5"/>
<text text-anchor="middle" x="160.5" y="-175.5" font-family="Helvetica,sans-Serif" font-size="10.00">plan_base.cpp</text>
</a>
</g>
</g>
<!-- Node11&#45;&gt;Node12 -->
<g id="edge16" class="edge">
<title>Node11&#45;&gt;Node12</title>
<path fill="none" stroke="midnightblue" d="M179.82,-214.98C174.9,-205.82 169.14,-195.09 165.2,-187.75"/>
<polygon fill="midnightblue" stroke="midnightblue" points="176.9,-216.93 184.71,-224.08 183.06,-213.62 176.9,-216.93"/>
</g>
<!-- Node14 -->
<g id="node14" class="node">
<title>Node14</title>
<g id="a_node14"><a xlink:href="../../d1/d5f/body_8cpp.html" target="_top" xlink:title=" ">
<polygon fill="white" stroke="black" points="590,-280.5 590,-299.5 645,-299.5 645,-280.5 590,-280.5"/>
<text text-anchor="middle" x="617.5" y="-287.5" font-family="Helvetica,sans-Serif" font-size="10.00">body.cpp</text>
</a>
</g>
</g>
<!-- Node13&#45;&gt;Node14 -->
<g id="edge18" class="edge">
<title>Node13&#45;&gt;Node14</title>
<path fill="none" stroke="midnightblue" d="M621.4,-326.1C620.4,-317.14 619.26,-306.86 618.47,-299.75"/>
<polygon fill="midnightblue" stroke="midnightblue" points="617.93,-326.53 622.51,-336.08 624.88,-325.76 617.93,-326.53"/>
</g>
<!-- Node13&#45;&gt;Node15 -->
<g id="edge19" class="edge">
<title>Node13&#45;&gt;Node15</title>
<path fill="none" stroke="midnightblue" d="M591.68,-335.12C556.46,-324.19 500.7,-306.89 470.54,-297.53"/>
<polygon fill="midnightblue" stroke="midnightblue" points="590.87,-338.54 601.46,-338.16 592.95,-331.85 590.87,-338.54"/>
</g>
<!-- Node15&#45;&gt;Node9 -->
<g id="edge23" class="edge">
<title>Node15&#45;&gt;Node9</title>
<path fill="none" stroke="midnightblue" d="M456.1,-270.88C464.12,-245.39 474.11,-198.66 452.5,-168 433.97,-141.7 398.61,-130.69 370.05,-126.12"/>
<polygon fill="midnightblue" stroke="midnightblue" points="452.77,-269.79 452.88,-280.39 459.4,-272.04 452.77,-269.79"/>
</g>
<!-- Node15&#45;&gt;Node11 -->
<g id="edge24" class="edge">
<title>Node15&#45;&gt;Node11</title>
<path fill="none" stroke="midnightblue" d="M418.19,-282.5C369.09,-272.3 274.37,-252.63 223.61,-242.08"/>
<polygon fill="midnightblue" stroke="midnightblue" points="417.72,-285.97 428.22,-284.58 419.14,-279.12 417.72,-285.97"/>
</g>
<!-- Node16 -->
<g id="node16" class="node">
<title>Node16</title>
<g id="a_node16"><a xlink:href="../../de/d3c/instantiated__plan_8h.html" target="_top" xlink:title=" ">
<polygon fill="white" stroke="black" points="340.5,-224.5 340.5,-243.5 438.5,-243.5 438.5,-224.5 340.5,-224.5"/>
<text text-anchor="middle" x="389.5" y="-231.5" font-family="Helvetica,sans-Serif" font-size="10.00">instantiated_plan.h</text>
</a>
</g>
</g>
<!-- Node15&#45;&gt;Node16 -->
<g id="edge20" class="edge">
<title>Node15&#45;&gt;Node16</title>
<path fill="none" stroke="midnightblue" d="M432.32,-273.54C421.62,-263.91 408.24,-251.87 399.32,-243.83"/>
<polygon fill="midnightblue" stroke="midnightblue" points="430.09,-276.24 439.86,-280.32 434.77,-271.03 430.09,-276.24"/>
</g>
<!-- Node18 -->
<g id="node18" class="node">
<title>Node18</title>
<g id="a_node18"><a xlink:href="../../d7/df1/plan_8cpp.html" target="_top" xlink:title=" ">
<polygon fill="white" stroke="black" points="500,-224.5 500,-243.5 553,-243.5 553,-224.5 500,-224.5"/>
<text text-anchor="middle" x="526.5" y="-231.5" font-family="Helvetica,sans-Serif" font-size="10.00">plan.cpp</text>
</a>
</g>
</g>
<!-- Node15&#45;&gt;Node18 -->
<g id="edge25" class="edge">
<title>Node15&#45;&gt;Node18</title>
<path fill="none" stroke="midnightblue" d="M470.4,-274.34C484.41,-264.52 502.38,-251.91 514.16,-243.65"/>
<polygon fill="midnightblue" stroke="midnightblue" points="468.05,-271.72 461.87,-280.32 472.07,-277.45 468.05,-271.72"/>
</g>
<!-- Node16&#45;&gt;Node7 -->
<g id="edge22" class="edge">
<title>Node16&#45;&gt;Node7</title>
<path fill="none" stroke="midnightblue" d="M357.57,-220.77C331.09,-210.63 294.11,-196.47 270.74,-187.52"/>
<polygon fill="midnightblue" stroke="midnightblue" points="356.57,-224.14 367.16,-224.44 359.07,-217.6 356.57,-224.14"/>
</g>
<!-- Node17 -->
<g id="node17" class="node">
<title>Node17</title>
<g id="a_node17"><a xlink:href="../../df/dbd/instantiated__plan_8cpp.html" target="_top" xlink:title=" ">
<polygon fill="white" stroke="black" points="335.5,-168.5 335.5,-187.5 443.5,-187.5 443.5,-168.5 335.5,-168.5"/>
<text text-anchor="middle" x="389.5" y="-175.5" font-family="Helvetica,sans-Serif" font-size="10.00">instantiated_plan.cpp</text>
</a>
</g>
</g>
<!-- Node16&#45;&gt;Node17 -->
<g id="edge21" class="edge">
<title>Node16&#45;&gt;Node17</title>
<path fill="none" stroke="midnightblue" d="M389.5,-213.8C389.5,-204.91 389.5,-194.78 389.5,-187.75"/>
<polygon fill="midnightblue" stroke="midnightblue" points="386,-214.08 389.5,-224.08 393,-214.08 386,-214.08"/>
</g>
<!-- Node19&#45;&gt;Node13 -->
<g id="edge27" class="edge">
<title>Node19&#45;&gt;Node13</title>
<path fill="none" stroke="midnightblue" d="M554.31,-387.18C571.42,-377.24 593.97,-364.15 608.6,-355.65"/>
<polygon fill="midnightblue" stroke="midnightblue" points="552.33,-384.28 545.44,-392.32 555.85,-390.33 552.33,-384.28"/>
</g>
<!-- Node20 -->
<g id="node20" class="node">
<title>Node20</title>
<g id="a_node20"><a xlink:href="../../d4/d8b/body__instruction_8cpp.html" target="_top" xlink:title=" ">
<polygon fill="white" stroke="black" points="478,-336.5 478,-355.5 583,-355.5 583,-336.5 478,-336.5"/>
<text text-anchor="middle" x="530.5" y="-343.5" font-family="Helvetica,sans-Serif" font-size="10.00">body_instruction.cpp</text>
</a>
</g>
</g>
<!-- Node19&#45;&gt;Node20 -->
<g id="edge28" class="edge">
<title>Node19&#45;&gt;Node20</title>
<path fill="none" stroke="midnightblue" d="M530.5,-381.8C530.5,-372.91 530.5,-362.78 530.5,-355.75"/>
<polygon fill="midnightblue" stroke="midnightblue" points="527,-382.08 530.5,-392.08 534,-382.08 527,-382.08"/>
</g>
<!-- Node21&#45;&gt;Node15 -->
<g id="edge31" class="edge">
<title>Node21&#45;&gt;Node15</title>
<path fill="none" stroke="midnightblue" d="M365.64,-385.03C373.68,-376.48 383.7,-365.73 392.5,-356 410.42,-336.19 430.98,-312.5 441.84,-299.91"/>
<polygon fill="midnightblue" stroke="midnightblue" points="362.95,-382.77 358.63,-392.45 368.04,-387.58 362.95,-382.77"/>
</g>
<!-- Node22 -->
<g id="node22" class="node">
<title>Node22</title>
<g id="a_node22"><a xlink:href="../../db/d12/context_8cpp.html" target="_top" xlink:title=" ">
<polygon fill="white" stroke="black" points="317.5,-336.5 317.5,-355.5 383.5,-355.5 383.5,-336.5 317.5,-336.5"/>
<text text-anchor="middle" x="350.5" y="-343.5" font-family="Helvetica,sans-Serif" font-size="10.00">context.cpp</text>
</a>
</g>
</g>
<!-- Node21&#45;&gt;Node22 -->
<g id="edge30" class="edge">
<title>Node21&#45;&gt;Node22</title>
<path fill="none" stroke="midnightblue" d="M350.5,-381.8C350.5,-372.91 350.5,-362.78 350.5,-355.75"/>
<polygon fill="midnightblue" stroke="midnightblue" points="347,-382.08 350.5,-392.08 354,-382.08 347,-382.08"/>
</g>
</g>
</svg>
        <g id="navigator" transform="translate(0 0)" fill="#404254">
                <rect fill="#f2f5e9" fill-opacity="0.5" stroke="#606060" stroke-width=".5" x="0" y="0" width="60" height="60"/>
                <use id="zoomplus" xlink:href="#zoomPlus" x="17" y="9" onmousedown="handleZoom(evt,'in')"/>
                <use id="zoomminus" xlink:href="#zoomMin" x="42" y="9" onmousedown="handleZoom(evt,'out')"/>
                <use id="reset" xlink:href="#resetDef" x="30" y="36" onmousedown="handleReset()"/>
                <g id="arrowUp" xlink:href="#dirArrow" transform="translate(30 24)" onmousedown="handlePan(0,-1)">
                  <use xlink:href="#rim" fill="#404040">
                        <set attributeName="fill" to="#808080" begin="arrowUp.mouseover" end="arrowUp.mouseout"/>
                  </use>
                  <path fill="none" stroke="white" stroke-width="1.5" d="M0,-3.0v7 M-2.5,-0.5L0,-3.0L2.5,-0.5"/>
                </g>
                <g id="arrowRight" xlink:href="#dirArrow" transform="rotate(90) translate(36 -43)" onmousedown="handlePan(1,0)">
                  <use xlink:href="#rim" fill="#404040">
                        <set attributeName="fill" to="#808080" begin="arrowRight.mouseover" end="arrowRight.mouseout"/>
                  </use>
                  <path fill="none" stroke="white" stroke-width="1.5" d="M0,-3.0v7 M-2.5,-0.5L0,-3.0L2.5,-0.5"/>
                </g>
                <g id="arrowDown" xlink:href="#dirArrow" transform="rotate(180) translate(-30 -48)" onmousedown="handlePan(0,1)">
                  <use xlink:href="#rim" fill="#404040">
                        <set attributeName="fill" to="#808080" begin="arrowDown.mouseover" end="arrowDown.mouseout"/>
                  </use>
                  <path fill="none" stroke="white" stroke-width="1.5" d="M0,-3.0v7 M-2.5,-0.5L0,-3.0L2.5,-0.5"/>
                </g>
                <g id="arrowLeft" xlink:href="#dirArrow" transform="rotate(270) translate(-36 17)" onmousedown="handlePan(-1,0)">
                  <use xlink:href="#rim" fill="#404040">
                        <set attributeName="fill" to="#808080" begin="arrowLeft.mouseover" end="arrowLeft.mouseout"/>
                  </use>
                  <path fill="none" stroke="white" stroke-width="1.5" d="M0,-3.0v7 M-2.5,-0.5L0,-3.0L2.5,-0.5"/>
                </g>
        </g>
        <svg viewBox="0 0 15 15" width="100%" height="30px" preserveAspectRatio="xMaxYMin meet">
         <g id="arrow_out" transform="scale(0.3 0.3)">
          <a xlink:href="event__base_8h__dep__incl_org.svg" target="_base">
           <rect id="button" ry="5" rx="5" y="6" x="6" height="38" width="38"
                fill="#f2f5e9" fill-opacity="0.5" stroke="#606060" stroke-width="1.0"/>
           <path id="arrow"
             d="M 11.500037,31.436501 C 11.940474,20.09759 22.043105,11.32322 32.158766,21.979434 L 37.068811,17.246167 C 37.068811,17.246167 37.088388,32 37.088388,32 L 22.160133,31.978069 C 22.160133,31.978069 26.997745,27.140456 26.997745,27.140456 C 18.528582,18.264221 13.291696,25.230495 11.500037,31.436501 z"
             style="fill:#404040;"/>
          </a>
         </g>
        </svg>
</svg>
