<?xml version="1.0" encoding="UTF-8" standalone="no"?>
<!DOCTYPE svg PUBLIC "-//W3C//DTD SVG 1.1//EN"
 "http://www.w3.org/Graphics/SVG/1.1/DTD/svg11.dtd">
<!-- Generated by graphviz version 5.0.0 (20220708.1001)
 -->
<!-- Title: event_base.h Pages: 1 -->
<svg width="813pt" height="532pt"
 viewBox="0.00 0.00 813.00 532.00" xmlns="http://www.w3.org/2000/svg" xmlns:xlink="http://www.w3.org/1999/xlink">
<g id="graph0" class="graph" transform="scale(1 1) rotate(0) translate(4 528)">
<title>event_base.h</title>
<polygon fill="white" stroke="transparent" points="-4,4 -4,-528 809,-528 809,4 -4,4"/>
<!-- Node1 -->
<g id="node1" class="node">
<title>Node1</title>
<g id="a_node1"><a xlink:title=" ">
<polygon fill="#bfbfbf" stroke="black" points="540.5,-504.5 540.5,-523.5 614.5,-523.5 614.5,-504.5 540.5,-504.5"/>
<text text-anchor="middle" x="577.5" y="-511.5" font-family="Helvetica,sans-Serif" font-size="10.00">event_base.h</text>
</a>
</g>
</g>
<!-- Node2 -->
<g id="node2" class="node">
<title>Node2</title>
<g id="a_node2"><a xlink:href="../../de/d9e/agent_8h.html" target="_top" xlink:title=" ">
<polygon fill="white" stroke="black" points="49.5,-56.5 49.5,-75.5 97.5,-75.5 97.5,-56.5 49.5,-56.5"/>
<text text-anchor="middle" x="73.5" y="-63.5" font-family="Helvetica,sans-Serif" font-size="10.00">agent.h</text>
</a>
</g>
</g>
<!-- Node1&#45;&gt;Node2 -->
<g id="edge1" class="edge">
<title>Node1&#45;&gt;Node2</title>
<path fill="none" stroke="midnightblue" d="M530.2,-513.71C394.98,-514.49 16.5,-507.35 16.5,-403 16.5,-403 16.5,-403 16.5,-177 16.5,-135.06 49.57,-93.19 65.33,-75.62"/>
<polygon fill="midnightblue" stroke="midnightblue" points="530.28,-517.21 540.26,-513.64 530.23,-510.21 530.28,-517.21"/>
</g>
<!-- Node5 -->
<g id="node5" class="node">
<title>Node5</title>
<g id="a_node5"><a xlink:href="../../d2/d2f/belief__base_8h.html" target="_top" xlink:title=" ">
<polygon fill="white" stroke="black" points="270.5,-448.5 270.5,-467.5 344.5,-467.5 344.5,-448.5 270.5,-448.5"/>
<text text-anchor="middle" x="307.5" y="-455.5" font-family="Helvetica,sans-Serif" font-size="10.00">belief_base.h</text>
</a>
</g>
</g>
<!-- Node1&#45;&gt;Node5 -->
<g id="edge4" class="edge">
<title>Node1&#45;&gt;Node5</title>
<path fill="none" stroke="midnightblue" d="M530.13,-503.53C477.35,-492.97 393.12,-476.12 344.81,-466.46"/>
<polygon fill="midnightblue" stroke="midnightblue" points="529.75,-507.02 540.24,-505.55 531.12,-500.15 529.75,-507.02"/>
</g>
<!-- Node7 -->
<g id="node7" class="node">
<title>Node7</title>
<g id="a_node7"><a xlink:href="../../d0/d77/body_8h.html" target="_top" xlink:title=" ">
<polygon fill="white" stroke="black" points="495.5,-336.5 495.5,-355.5 539.5,-355.5 539.5,-336.5 495.5,-336.5"/>
<text text-anchor="middle" x="517.5" y="-343.5" font-family="Helvetica,sans-Serif" font-size="10.00">body.h</text>
</a>
</g>
</g>
<!-- Node1&#45;&gt;Node7 -->
<g id="edge32" class="edge">
<title>Node1&#45;&gt;Node7</title>
<path fill="none" stroke="midnightblue" d="M594.69,-497.34C618.84,-473.39 657.34,-426.81 633.5,-392 627.95,-383.89 571.66,-364.57 539.58,-354.07"/>
<polygon fill="midnightblue" stroke="midnightblue" points="592.25,-494.83 587.45,-504.27 597.09,-499.88 592.25,-494.83"/>
</g>
<!-- Node9 -->
<g id="node9" class="node">
<title>Node9</title>
<g id="a_node9"><a xlink:href="../../d9/d4e/plan_8h.html" target="_top" xlink:title=" ">
<polygon fill="white" stroke="black" points="437.5,-280.5 437.5,-299.5 479.5,-299.5 479.5,-280.5 437.5,-280.5"/>
<text text-anchor="middle" x="458.5" y="-287.5" font-family="Helvetica,sans-Serif" font-size="10.00">plan.h</text>
</a>
</g>
</g>
<!-- Node1&#45;&gt;Node9 -->
<g id="edge36" class="edge">
<title>Node1&#45;&gt;Node9</title>
<path fill="none" stroke="midnightblue" d="M566.48,-495.56C548.61,-466.98 512.71,-408.12 486.5,-356 476.56,-336.24 466.76,-312.13 461.81,-299.56"/>
<polygon fill="midnightblue" stroke="midnightblue" points="563.71,-497.74 572,-504.35 569.64,-494.02 563.71,-497.74"/>
</g>
<!-- Node14 -->
<g id="node14" class="node">
<title>Node14</title>
<g id="a_node14"><a xlink:href="../../d8/d83/intention__base_8h.html" target="_top" xlink:title=" ">
<polygon fill="white" stroke="black" points="283,-112.5 283,-131.5 370,-131.5 370,-112.5 283,-112.5"/>
<text text-anchor="middle" x="326.5" y="-119.5" font-family="Helvetica,sans-Serif" font-size="10.00">intention_base.h</text>
</a>
</g>
</g>
<!-- Node1&#45;&gt;Node14 -->
<g id="edge35" class="edge">
<title>Node1&#45;&gt;Node14</title>
<path fill="none" stroke="midnightblue" d="M607.17,-500.07C640.95,-483.11 691.5,-449.89 691.5,-403 691.5,-403 691.5,-403 691.5,-233 691.5,-166.57 467.05,-136.68 370.16,-126.88"/>
<polygon fill="midnightblue" stroke="midnightblue" points="605.63,-496.93 598.14,-504.42 608.67,-503.23 605.63,-496.93"/>
</g>
<!-- Node19 -->
<g id="node19" class="node">
<title>Node19</title>
<g id="a_node19"><a xlink:href="../../d8/d67/body__instruction_8h.html" target="_top" xlink:title=" ">
<polygon fill="white" stroke="black" points="530,-392.5 530,-411.5 625,-411.5 625,-392.5 530,-392.5"/>
<text text-anchor="middle" x="577.5" y="-399.5" font-family="Helvetica,sans-Serif" font-size="10.00">body_instruction.h</text>
</a>
</g>
</g>
<!-- Node1&#45;&gt;Node19 -->
<g id="edge33" class="edge">
<title>Node1&#45;&gt;Node19</title>
<path fill="none" stroke="midnightblue" d="M577.5,-494.35C577.5,-470.25 577.5,-429.31 577.5,-411.59"/>
<polygon fill="midnightblue" stroke="midnightblue" points="574,-494.37 577.5,-504.37 581,-494.37 574,-494.37"/>
</g>
<!-- Node23 -->
<g id="node23" class="node">
<title>Node23</title>
<g id="a_node23"><a xlink:href="../../d8/ddf/event__base_8cpp.html" target="_top" xlink:title=" ">
<polygon fill="white" stroke="black" points="720,-448.5 720,-467.5 805,-467.5 805,-448.5 720,-448.5"/>
<text text-anchor="middle" x="762.5" y="-455.5" font-family="Helvetica,sans-Serif" font-size="10.00">event_base.cpp</text>
</a>
</g>
</g>
<!-- Node1&#45;&gt;Node23 -->
<g id="edge34" class="edge">
<title>Node1&#45;&gt;Node23</title>
<path fill="none" stroke="midnightblue" d="M616.67,-501.57C651.57,-491.38 701.85,-476.7 733.32,-467.52"/>
<polygon fill="midnightblue" stroke="midnightblue" points="615.43,-498.28 606.81,-504.44 617.39,-505 615.43,-498.28"/>
</g>
<!-- Node3 -->
<g id="node3" class="node">
<title>Node3</title>
<g id="a_node3"><a xlink:href="../../dd/d3d/agent_8cpp.html" target="_top" xlink:title=" ">
<polygon fill="white" stroke="black" points="0,-0.5 0,-19.5 59,-19.5 59,-0.5 0,-0.5"/>
<text text-anchor="middle" x="29.5" y="-7.5" font-family="Helvetica,sans-Serif" font-size="10.00">agent.cpp</text>
</a>
</g>
</g>
<!-- Node2&#45;&gt;Node3 -->
<g id="edge2" class="edge">
<title>Node2&#45;&gt;Node3</title>
<path fill="none" stroke="midnightblue" d="M59.77,-48.14C52.1,-38.74 42.87,-27.4 36.63,-19.75"/>
<polygon fill="midnightblue" stroke="midnightblue" points="57.2,-50.54 66.23,-56.08 62.63,-46.12 57.2,-50.54"/>
</g>
<!-- Node4 -->
<g id="node4" class="node">
<title>Node4</title>
<g id="a_node4"><a xlink:href="../../d4/d91/agent__loop_8cpp.html" target="_top" xlink:title=" ">
<polygon fill="white" stroke="black" points="77.5,-0.5 77.5,-19.5 159.5,-19.5 159.5,-0.5 77.5,-0.5"/>
<text text-anchor="middle" x="118.5" y="-7.5" font-family="Helvetica,sans-Serif" font-size="10.00">agent_loop.cpp</text>
</a>
</g>
</g>
<!-- Node2&#45;&gt;Node4 -->
<g id="edge3" class="edge">
<title>Node2&#45;&gt;Node4</title>
<path fill="none" stroke="midnightblue" d="M87.55,-48.14C95.39,-38.74 104.83,-27.4 111.21,-19.75"/>
<polygon fill="midnightblue" stroke="midnightblue" points="84.64,-46.16 80.93,-56.08 90.02,-50.64 84.64,-46.16"/>
</g>
<!-- Node5&#45;&gt;Node2 -->
<g id="edge5" class="edge">
<title>Node5&#45;&gt;Node2</title>
<path fill="none" stroke="midnightblue" d="M260.08,-456.76C186.83,-453.62 54.5,-435.68 54.5,-347 54.5,-347 54.5,-347 54.5,-177 54.5,-138.82 65.75,-94.26 70.94,-75.75"/>
<polygon fill="midnightblue" stroke="midnightblue" points="260.32,-460.27 270.44,-457.13 260.57,-453.28 260.32,-460.27"/>
</g>
<!-- Node6 -->
<g id="node6" class="node">
<title>Node6</title>
<g id="a_node6"><a xlink:href="../../de/d9b/belief__base_8cpp.html" target="_top" xlink:title=" ">
<polygon fill="white" stroke="black" points="157.5,-392.5 157.5,-411.5 241.5,-411.5 241.5,-392.5 157.5,-392.5"/>
<text text-anchor="middle" x="199.5" y="-399.5" font-family="Helvetica,sans-Serif" font-size="10.00">belief_base.cpp</text>
</a>
</g>
</g>
<!-- Node5&#45;&gt;Node6 -->
<g id="edge6" class="edge">
<title>Node5&#45;&gt;Node6</title>
<path fill="none" stroke="midnightblue" d="M280.95,-443.73C260.95,-433.73 234.11,-420.31 216.81,-411.65"/>
<polygon fill="midnightblue" stroke="midnightblue" points="279.64,-446.98 290.15,-448.32 282.77,-440.72 279.64,-446.98"/>
</g>
<!-- Node5&#45;&gt;Node7 -->
<g id="edge7" class="edge">
<title>Node5&#45;&gt;Node7</title>
<path fill="none" stroke="midnightblue" d="M337,-444.33C356.64,-435.69 382.89,-423.72 405.5,-412 441.63,-393.28 482.66,-368.54 503.6,-355.65"/>
<polygon fill="midnightblue" stroke="midnightblue" points="335.43,-441.2 327.66,-448.41 338.23,-447.62 335.43,-441.2"/>
</g>
<!-- Node12 -->
<g id="node12" class="node">
<title>Node12</title>
<g id="a_node12"><a xlink:href="../../df/d3f/intention_8h.html" target="_top" xlink:title=" ">
<polygon fill="white" stroke="black" points="218,-168.5 218,-187.5 279,-187.5 279,-168.5 218,-168.5"/>
<text text-anchor="middle" x="248.5" y="-175.5" font-family="Helvetica,sans-Serif" font-size="10.00">intention.h</text>
</a>
</g>
</g>
<!-- Node5&#45;&gt;Node12 -->
<g id="edge29" class="edge">
<title>Node5&#45;&gt;Node12</title>
<path fill="none" stroke="midnightblue" d="M297.36,-439.43C286.1,-418.24 269.5,-381.19 269.5,-347 269.5,-347 269.5,-347 269.5,-289 269.5,-250.7 257.06,-206.21 251.33,-187.73"/>
<polygon fill="midnightblue" stroke="midnightblue" points="294.32,-441.17 302.22,-448.23 300.45,-437.78 294.32,-441.17"/>
</g>
<!-- Node5&#45;&gt;Node14 -->
<g id="edge30" class="edge">
<title>Node5&#45;&gt;Node14</title>
<path fill="none" stroke="midnightblue" d="M307.5,-438.25C307.5,-416.36 307.5,-379.05 307.5,-347 307.5,-347 307.5,-347 307.5,-233 307.5,-194.82 318.75,-150.26 323.94,-131.75"/>
<polygon fill="midnightblue" stroke="midnightblue" points="304,-438.44 307.5,-448.44 311,-438.44 304,-438.44"/>
</g>
<!-- Node17 -->
<g id="node17" class="node">
<title>Node17</title>
<g id="a_node17"><a xlink:href="../../de/d75/plan__base_8h.html" target="_top" xlink:title=" ">
<polygon fill="white" stroke="black" points="126.5,-224.5 126.5,-243.5 194.5,-243.5 194.5,-224.5 126.5,-224.5"/>
<text text-anchor="middle" x="160.5" y="-231.5" font-family="Helvetica,sans-Serif" font-size="10.00">plan_base.h</text>
</a>
</g>
</g>
<!-- Node5&#45;&gt;Node17 -->
<g id="edge31" class="edge">
<title>Node5&#45;&gt;Node17</title>
<path fill="none" stroke="midnightblue" d="M260.32,-450.02C218.51,-442.75 162.05,-429.92 148.5,-412 108.93,-359.67 143.51,-271.89 156.25,-243.87"/>
<polygon fill="midnightblue" stroke="midnightblue" points="259.89,-453.49 270.33,-451.7 261.05,-446.59 259.89,-453.49"/>
</g>
<!-- Node5&#45;&gt;Node19 -->
<g id="edge23" class="edge">
<title>Node5&#45;&gt;Node19</title>
<path fill="none" stroke="midnightblue" d="M354.84,-447.53C405.71,-437.36 485.85,-421.33 534.84,-411.53"/>
<polygon fill="midnightblue" stroke="midnightblue" points="353.88,-444.15 344.76,-449.55 355.25,-451.02 353.88,-444.15"/>
</g>
<!-- Node21 -->
<g id="node21" class="node">
<title>Node21</title>
<g id="a_node21"><a xlink:href="../../dc/d1e/context_8h.html" target="_top" xlink:title=" ">
<polygon fill="white" stroke="black" points="340.5,-392.5 340.5,-411.5 396.5,-411.5 396.5,-392.5 340.5,-392.5"/>
<text text-anchor="middle" x="368.5" y="-399.5" font-family="Helvetica,sans-Serif" font-size="10.00">context.h</text>
</a>
</g>
</g>
<!-- Node5&#45;&gt;Node21 -->
<g id="edge26" class="edge">
<title>Node5&#45;&gt;Node21</title>
<path fill="none" stroke="midnightblue" d="M324.97,-441.54C335.84,-431.91 349.44,-419.87 358.52,-411.83"/>
<polygon fill="midnightblue" stroke="midnightblue" points="322.47,-439.07 317.3,-448.32 327.11,-444.32 322.47,-439.07"/>
</g>
<!-- Node8 -->
<g id="node8" class="node">
<title>Node8</title>
<g id="a_node8"><a xlink:href="../../d1/d5f/body_8cpp.html" target="_top" xlink:title=" ">
<polygon fill="white" stroke="black" points="498,-280.5 498,-299.5 553,-299.5 553,-280.5 498,-280.5"/>
<text text-anchor="middle" x="525.5" y="-287.5" font-family="Helvetica,sans-Serif" font-size="10.00">body.cpp</text>
</a>
</g>
</g>
<!-- Node7&#45;&gt;Node8 -->
<g id="edge8" class="edge">
<title>Node7&#45;&gt;Node8</title>
<path fill="none" stroke="midnightblue" d="M520.3,-326.1C521.63,-317.14 523.15,-306.86 524.2,-299.75"/>
<polygon fill="midnightblue" stroke="midnightblue" points="516.82,-325.68 518.82,-336.08 523.75,-326.7 516.82,-325.68"/>
</g>
<!-- Node7&#45;&gt;Node9 -->
<g id="edge9" class="edge">
<title>Node7&#45;&gt;Node9</title>
<path fill="none" stroke="midnightblue" d="M500.61,-329.54C490.09,-319.91 476.93,-307.87 468.15,-299.83"/>
<polygon fill="midnightblue" stroke="midnightblue" points="498.28,-332.15 508.02,-336.32 503.01,-326.99 498.28,-332.15"/>
</g>
<!-- Node10 -->
<g id="node10" class="node">
<title>Node10</title>
<g id="a_node10"><a xlink:href="../../de/d3c/instantiated__plan_8h.html" target="_top" xlink:title=" ">
<polygon fill="white" stroke="black" points="340.5,-224.5 340.5,-243.5 438.5,-243.5 438.5,-224.5 340.5,-224.5"/>
<text text-anchor="middle" x="389.5" y="-231.5" font-family="Helvetica,sans-Serif" font-size="10.00">instantiated_plan.h</text>
</a>
</g>
</g>
<!-- Node9&#45;&gt;Node10 -->
<g id="edge10" class="edge">
<title>Node9&#45;&gt;Node10</title>
<path fill="none" stroke="midnightblue" d="M439.46,-274.1C427.04,-264.38 411.26,-252.03 400.79,-243.83"/>
<polygon fill="midnightblue" stroke="midnightblue" points="437.38,-276.92 447.41,-280.32 441.7,-271.4 437.38,-276.92"/>
</g>
<!-- Node9&#45;&gt;Node14 -->
<g id="edge17" class="edge">
<title>Node9&#45;&gt;Node14</title>
<path fill="none" stroke="midnightblue" d="M463.41,-270.39C469.02,-244.66 474.78,-198.01 452.5,-168 433.46,-142.36 398.52,-131.28 370.26,-126.52"/>
<polygon fill="midnightblue" stroke="midnightblue" points="459.96,-269.77 461.02,-280.32 466.77,-271.41 459.96,-269.77"/>
</g>
<!-- Node16 -->
<g id="node16" class="node">
<title>Node16</title>
<g id="a_node16"><a xlink:href="../../d7/df1/plan_8cpp.html" target="_top" xlink:title=" ">
<polygon fill="white" stroke="black" points="500,-224.5 500,-243.5 553,-243.5 553,-224.5 500,-224.5"/>
<text text-anchor="middle" x="526.5" y="-231.5" font-family="Helvetica,sans-Serif" font-size="10.00">plan.cpp</text>
</a>
</g>
</g>
<!-- Node9&#45;&gt;Node16 -->
<g id="edge18" class="edge">
<title>Node9&#45;&gt;Node16</title>
<path fill="none" stroke="midnightblue" d="M477.26,-274.1C489.5,-264.38 505.06,-252.03 515.38,-243.83"/>
<polygon fill="midnightblue" stroke="midnightblue" points="475.08,-271.36 469.43,-280.32 479.43,-276.85 475.08,-271.36"/>
</g>
<!-- Node9&#45;&gt;Node17 -->
<g id="edge19" class="edge">
<title>Node9&#45;&gt;Node17</title>
<path fill="none" stroke="midnightblue" d="M426.96,-283.28C370.53,-273.06 252.8,-251.73 194.59,-241.18"/>
<polygon fill="midnightblue" stroke="midnightblue" points="426.6,-286.78 437.07,-285.12 427.85,-279.89 426.6,-286.78"/>
</g>
<!-- Node11 -->
<g id="node11" class="node">
<title>Node11</title>
<g id="a_node11"><a xlink:href="../../df/dbd/instantiated__plan_8cpp.html" target="_top" xlink:title=" ">
<polygon fill="white" stroke="black" points="335.5,-168.5 335.5,-187.5 443.5,-187.5 443.5,-168.5 335.5,-168.5"/>
<text text-anchor="middle" x="389.5" y="-175.5" font-family="Helvetica,sans-Serif" font-size="10.00">instantiated_plan.cpp</text>
</a>
</g>
</g>
<!-- Node10&#45;&gt;Node11 -->
<g id="edge11" class="edge">
<title>Node10&#45;&gt;Node11</title>
<path fill="none" stroke="midnightblue" d="M389.5,-213.8C389.5,-204.91 389.5,-194.78 389.5,-187.75"/>
<polygon fill="midnightblue" stroke="midnightblue" points="386,-214.08 389.5,-224.08 393,-214.08 386,-214.08"/>
</g>
<!-- Node10&#45;&gt;Node12 -->
<g id="edge12" class="edge">
<title>Node10&#45;&gt;Node12</title>
<path fill="none" stroke="midnightblue" d="M357.57,-220.77C331.09,-210.63 294.11,-196.47 270.74,-187.52"/>
<polygon fill="midnightblue" stroke="midnightblue" points="356.57,-224.14 367.16,-224.44 359.07,-217.6 356.57,-224.14"/>
</g>
<!-- Node13 -->
<g id="node13" class="node">
<title>Node13</title>
<g id="a_node13"><a xlink:href="../../d4/db4/intention_8cpp.html" target="_top" xlink:title=" ">
<polygon fill="white" stroke="black" points="194,-112.5 194,-131.5 265,-131.5 265,-112.5 194,-112.5"/>
<text text-anchor="middle" x="229.5" y="-119.5" font-family="Helvetica,sans-Serif" font-size="10.00">intention.cpp</text>
</a>
</g>
</g>
<!-- Node12&#45;&gt;Node13 -->
<g id="edge13" class="edge">
<title>Node12&#45;&gt;Node13</title>
<path fill="none" stroke="midnightblue" d="M241.95,-158.4C238.78,-149.36 235.11,-138.94 232.58,-131.75"/>
<polygon fill="midnightblue" stroke="midnightblue" points="238.74,-159.81 245.36,-168.08 245.35,-157.49 238.74,-159.81"/>
</g>
<!-- Node12&#45;&gt;Node14 -->
<g id="edge14" class="edge">
<title>Node12&#45;&gt;Node14</title>
<path fill="none" stroke="midnightblue" d="M269.27,-162.62C283.52,-152.76 301.96,-139.99 314,-131.65"/>
<polygon fill="midnightblue" stroke="midnightblue" points="267.26,-159.75 261.03,-168.32 271.25,-165.51 267.26,-159.75"/>
</g>
<!-- Node14&#45;&gt;Node2 -->
<g id="edge15" class="edge">
<title>Node14&#45;&gt;Node2</title>
<path fill="none" stroke="midnightblue" d="M276.36,-110.3C222.36,-98.77 138.71,-80.92 97.76,-72.18"/>
<polygon fill="midnightblue" stroke="midnightblue" points="275.9,-113.78 286.41,-112.44 277.36,-106.93 275.9,-113.78"/>
</g>
<!-- Node15 -->
<g id="node15" class="node">
<title>Node15</title>
<g id="a_node15"><a xlink:href="../../d2/dd9/intention__base_8cpp.html" target="_top" xlink:title=" ">
<polygon fill="white" stroke="black" points="277.5,-56.5 277.5,-75.5 375.5,-75.5 375.5,-56.5 277.5,-56.5"/>
<text text-anchor="middle" x="326.5" y="-63.5" font-family="Helvetica,sans-Serif" font-size="10.00">intention_base.cpp</text>
</a>
</g>
</g>
<!-- Node14&#45;&gt;Node15 -->
<g id="edge16" class="edge">
<title>Node14&#45;&gt;Node15</title>
<path fill="none" stroke="midnightblue" d="M326.5,-101.8C326.5,-92.91 326.5,-82.78 326.5,-75.75"/>
<polygon fill="midnightblue" stroke="midnightblue" points="323,-102.08 326.5,-112.08 330,-102.08 323,-102.08"/>
</g>
<!-- Node17&#45;&gt;Node2 -->
<g id="edge20" class="edge">
<title>Node17&#45;&gt;Node2</title>
<path fill="none" stroke="midnightblue" d="M139.78,-218.12C130,-210.16 118.88,-199.61 111.5,-188 87.53,-150.28 77.68,-96.29 74.63,-75.56"/>
<polygon fill="midnightblue" stroke="midnightblue" points="137.86,-221.06 147.91,-224.41 142.14,-215.52 137.86,-221.06"/>
</g>
<!-- Node17&#45;&gt;Node12 -->
<g id="edge21" class="edge">
<title>Node17&#45;&gt;Node12</title>
<path fill="none" stroke="midnightblue" d="M183.48,-218.9C199.61,-209 220.68,-196.07 234.4,-187.65"/>
<polygon fill="midnightblue" stroke="midnightblue" points="181.33,-216.11 174.64,-224.32 184.99,-222.08 181.33,-216.11"/>
</g>
<!-- Node18 -->
<g id="node18" class="node">
<title>Node18</title>
<g id="a_node18"><a xlink:href="../../d4/d51/plan__base_8cpp.html" target="_top" xlink:title=" ">
<polygon fill="white" stroke="black" points="121,-168.5 121,-187.5 200,-187.5 200,-168.5 121,-168.5"/>
<text text-anchor="middle" x="160.5" y="-175.5" font-family="Helvetica,sans-Serif" font-size="10.00">plan_base.cpp</text>
</a>
</g>
</g>
<!-- Node17&#45;&gt;Node18 -->
<g id="edge22" class="edge">
<title>Node17&#45;&gt;Node18</title>
<path fill="none" stroke="midnightblue" d="M160.5,-213.8C160.5,-204.91 160.5,-194.78 160.5,-187.75"/>
<polygon fill="midnightblue" stroke="midnightblue" points="157,-214.08 160.5,-224.08 164,-214.08 157,-214.08"/>
</g>
<!-- Node19&#45;&gt;Node7 -->
<g id="edge24" class="edge">
<title>Node19&#45;&gt;Node7</title>
<path fill="none" stroke="midnightblue" d="M560.32,-385.54C549.62,-375.91 536.24,-363.87 527.32,-355.83"/>
<polygon fill="midnightblue" stroke="midnightblue" points="558.09,-388.24 567.86,-392.32 562.77,-383.03 558.09,-388.24"/>
</g>
<!-- Node20 -->
<g id="node20" class="node">
<title>Node20</title>
<g id="a_node20"><a xlink:href="../../d4/d8b/body__instruction_8cpp.html" target="_top" xlink:title=" ">
<polygon fill="white" stroke="black" points="558,-336.5 558,-355.5 663,-355.5 663,-336.5 558,-336.5"/>
<text text-anchor="middle" x="610.5" y="-343.5" font-family="Helvetica,sans-Serif" font-size="10.00">body_instruction.cpp</text>
</a>
</g>
</g>
<!-- Node19&#45;&gt;Node20 -->
<g id="edge25" class="edge">
<title>Node19&#45;&gt;Node20</title>
<path fill="none" stroke="midnightblue" d="M588.33,-383.27C593.97,-374.05 600.62,-363.17 605.15,-355.75"/>
<polygon fill="midnightblue" stroke="midnightblue" points="585.18,-381.73 582.95,-392.08 591.15,-385.38 585.18,-381.73"/>
</g>
<!-- Node21&#45;&gt;Node9 -->
<g id="edge28" class="edge">
<title>Node21&#45;&gt;Node9</title>
<path fill="none" stroke="midnightblue" d="M384.27,-385C392.36,-376.58 402.22,-365.96 410.5,-356 426.64,-336.58 443.81,-312.34 452.59,-299.65"/>
<polygon fill="midnightblue" stroke="midnightblue" points="381.64,-382.7 377.18,-392.31 386.66,-387.58 381.64,-382.7"/>
</g>
<!-- Node22 -->
<g id="node22" class="node">
<title>Node22</title>
<g id="a_node22"><a xlink:href="../../db/d12/context_8cpp.html" target="_top" xlink:title=" ">
<polygon fill="white" stroke="black" points="335.5,-336.5 335.5,-355.5 401.5,-355.5 401.5,-336.5 335.5,-336.5"/>
<text text-anchor="middle" x="368.5" y="-343.5" font-family="Helvetica,sans-Serif" font-size="10.00">context.cpp</text>
</a>
</g>
</g>
<!-- Node21&#45;&gt;Node22 -->
<g id="edge27" class="edge">
<title>Node21&#45;&gt;Node22</title>
<path fill="none" stroke="midnightblue" d="M368.5,-381.8C368.5,-372.91 368.5,-362.78 368.5,-355.75"/>
<polygon fill="midnightblue" stroke="midnightblue" points="365,-382.08 368.5,-392.08 372,-382.08 365,-382.08"/>
</g>
</g>
</svg>
