<?xml version="1.0" encoding="UTF-8" standalone="no"?>
<!DOCTYPE svg PUBLIC "-//W3C//DTD SVG 1.1//EN"
 "http://www.w3.org/Graphics/SVG/1.1/DTD/svg11.dtd">
<!-- Generated by graphviz version 2.47.3 (20210711.2253)
 -->
<!-- Title: plan_base.h Pages: 1 -->
<svg width="257pt" height="252pt"
 viewBox="0.00 0.00 256.50 252.00" xmlns="http://www.w3.org/2000/svg" xmlns:xlink="http://www.w3.org/1999/xlink">
<g id="graph0" class="graph" transform="scale(1 1) rotate(0) translate(4 248)">
<title>plan_base.h</title>
<polygon fill="white" stroke="transparent" points="-4,4 -4,-248 252.5,-248 252.5,4 -4,4"/>
<!-- Node1 -->
<g id="node1" class="node">
<title>Node1</title>
<g id="a_node1"><a xlink:title=" ">
<polygon fill="#bfbfbf" stroke="black" points="68.5,-224.5 68.5,-243.5 136.5,-243.5 136.5,-224.5 68.5,-224.5"/>
<text text-anchor="middle" x="102.5" y="-231.5" font-family="Helvetica,sans-Serif" font-size="10.00">plan_base.h</text>
</a>
</g>
</g>
<!-- Node2 -->
<g id="node2" class="node">
<title>Node2</title>
<g id="a_node2"><a xlink:href="../../de/d9e/agent_8h.html" target="_top" xlink:title=" ">
<polygon fill="white" stroke="black" points="49.5,-56.5 49.5,-75.5 97.5,-75.5 97.5,-56.5 49.5,-56.5"/>
<text text-anchor="middle" x="73.5" y="-63.5" font-family="Helvetica,sans-Serif" font-size="10.00">agent.h</text>
</a>
</g>
</g>
<!-- Node1&#45;&gt;Node2 -->
<g id="edge1" class="edge">
<title>Node1&#45;&gt;Node2</title>
<path fill="none" stroke="midnightblue" d="M83.91,-217.23C75.9,-209.33 67.29,-199.08 62.5,-188 49.07,-156.93 51.75,-145.36 57.5,-112 59.76,-98.93 65.44,-84.62 69.39,-75.72"/>
<polygon fill="midnightblue" stroke="midnightblue" points="81.83,-220.08 91.55,-224.3 86.59,-214.94 81.83,-220.08"/>
</g>
<!-- Node5 -->
<g id="node5" class="node">
<title>Node5</title>
<g id="a_node5"><a xlink:href="../../df/d3f/intention_8h.html" target="_top" xlink:title=" ">
<polygon fill="white" stroke="black" points="72,-168.5 72,-187.5 133,-187.5 133,-168.5 72,-168.5"/>
<text text-anchor="middle" x="102.5" y="-175.5" font-family="Helvetica,sans-Serif" font-size="10.00">intention.h</text>
</a>
</g>
</g>
<!-- Node1&#45;&gt;Node5 -->
<g id="edge4" class="edge">
<title>Node1&#45;&gt;Node5</title>
<path fill="none" stroke="midnightblue" d="M102.5,-213.8C102.5,-204.91 102.5,-194.78 102.5,-187.75"/>
<polygon fill="midnightblue" stroke="midnightblue" points="99,-214.08 102.5,-224.08 106,-214.08 99,-214.08"/>
</g>
<!-- Node9 -->
<g id="node9" class="node">
<title>Node9</title>
<g id="a_node9"><a xlink:href="../../d4/d51/plan__base_8cpp.html" target="_top" xlink:title=" ">
<polygon fill="white" stroke="black" points="151,-168.5 151,-187.5 230,-187.5 230,-168.5 151,-168.5"/>
<text text-anchor="middle" x="190.5" y="-175.5" font-family="Helvetica,sans-Serif" font-size="10.00">plan_base.cpp</text>
</a>
</g>
</g>
<!-- Node1&#45;&gt;Node9 -->
<g id="edge9" class="edge">
<title>Node1&#45;&gt;Node9</title>
<path fill="none" stroke="midnightblue" d="M125.48,-218.9C141.61,-209 162.68,-196.07 176.4,-187.65"/>
<polygon fill="midnightblue" stroke="midnightblue" points="123.33,-216.11 116.64,-224.32 126.99,-222.08 123.33,-216.11"/>
</g>
<!-- Node3 -->
<g id="node3" class="node">
<title>Node3</title>
<g id="a_node3"><a xlink:href="../../dd/d3d/agent_8cpp.html" target="_top" xlink:title=" ">
<polygon fill="white" stroke="black" points="0,-0.5 0,-19.5 59,-19.5 59,-0.5 0,-0.5"/>
<text text-anchor="middle" x="29.5" y="-7.5" font-family="Helvetica,sans-Serif" font-size="10.00">agent.cpp</text>
</a>
</g>
</g>
<!-- Node2&#45;&gt;Node3 -->
<g id="edge2" class="edge">
<title>Node2&#45;&gt;Node3</title>
<path fill="none" stroke="midnightblue" d="M59.77,-48.14C52.1,-38.74 42.87,-27.4 36.63,-19.75"/>
<polygon fill="midnightblue" stroke="midnightblue" points="57.2,-50.54 66.23,-56.08 62.63,-46.12 57.2,-50.54"/>
</g>
<!-- Node4 -->
<g id="node4" class="node">
<title>Node4</title>
<g id="a_node4"><a xlink:href="../../d4/d91/agent__loop_8cpp.html" target="_top" xlink:title=" ">
<polygon fill="white" stroke="black" points="77.5,-0.5 77.5,-19.5 159.5,-19.5 159.5,-0.5 77.5,-0.5"/>
<text text-anchor="middle" x="118.5" y="-7.5" font-family="Helvetica,sans-Serif" font-size="10.00">agent_loop.cpp</text>
</a>
</g>
</g>
<!-- Node2&#45;&gt;Node4 -->
<g id="edge3" class="edge">
<title>Node2&#45;&gt;Node4</title>
<path fill="none" stroke="midnightblue" d="M87.55,-48.14C95.39,-38.74 104.83,-27.4 111.21,-19.75"/>
<polygon fill="midnightblue" stroke="midnightblue" points="84.64,-46.16 80.93,-56.08 90.02,-50.64 84.64,-46.16"/>
</g>
<!-- Node6 -->
<g id="node6" class="node">
<title>Node6</title>
<g id="a_node6"><a xlink:href="../../d4/db4/intention_8cpp.html" target="_top" xlink:title=" ">
<polygon fill="white" stroke="black" points="67,-112.5 67,-131.5 138,-131.5 138,-112.5 67,-112.5"/>
<text text-anchor="middle" x="102.5" y="-119.5" font-family="Helvetica,sans-Serif" font-size="10.00">intention.cpp</text>
</a>
</g>
</g>
<!-- Node5&#45;&gt;Node6 -->
<g id="edge5" class="edge">
<title>Node5&#45;&gt;Node6</title>
<path fill="none" stroke="midnightblue" d="M102.5,-157.8C102.5,-148.91 102.5,-138.78 102.5,-131.75"/>
<polygon fill="midnightblue" stroke="midnightblue" points="99,-158.08 102.5,-168.08 106,-158.08 99,-158.08"/>
</g>
<!-- Node7 -->
<g id="node7" class="node">
<title>Node7</title>
<g id="a_node7"><a xlink:href="../../d8/d83/intention__base_8h.html" target="_top" xlink:title=" ">
<polygon fill="white" stroke="black" points="156,-112.5 156,-131.5 243,-131.5 243,-112.5 156,-112.5"/>
<text text-anchor="middle" x="199.5" y="-119.5" font-family="Helvetica,sans-Serif" font-size="10.00">intention_base.h</text>
</a>
</g>
</g>
<!-- Node5&#45;&gt;Node7 -->
<g id="edge6" class="edge">
<title>Node5&#45;&gt;Node7</title>
<path fill="none" stroke="midnightblue" d="M126.84,-163.45C144.74,-153.48 168.55,-140.23 183.95,-131.65"/>
<polygon fill="midnightblue" stroke="midnightblue" points="125.12,-160.4 118.08,-168.32 128.52,-166.52 125.12,-160.4"/>
</g>
<!-- Node7&#45;&gt;Node2 -->
<g id="edge7" class="edge">
<title>Node7&#45;&gt;Node2</title>
<path fill="none" stroke="midnightblue" d="M170.34,-108.5C146.72,-98.38 114.07,-84.39 93.37,-75.52"/>
<polygon fill="midnightblue" stroke="midnightblue" points="168.96,-111.72 179.53,-112.44 171.72,-105.29 168.96,-111.72"/>
</g>
<!-- Node8 -->
<g id="node8" class="node">
<title>Node8</title>
<g id="a_node8"><a xlink:href="../../d2/dd9/intention__base_8cpp.html" target="_top" xlink:title=" ">
<polygon fill="white" stroke="black" points="150.5,-56.5 150.5,-75.5 248.5,-75.5 248.5,-56.5 150.5,-56.5"/>
<text text-anchor="middle" x="199.5" y="-63.5" font-family="Helvetica,sans-Serif" font-size="10.00">intention_base.cpp</text>
</a>
</g>
</g>
<!-- Node7&#45;&gt;Node8 -->
<g id="edge8" class="edge">
<title>Node7&#45;&gt;Node8</title>
<path fill="none" stroke="midnightblue" d="M199.5,-101.8C199.5,-92.91 199.5,-82.78 199.5,-75.75"/>
<polygon fill="midnightblue" stroke="midnightblue" points="196,-102.08 199.5,-112.08 203,-102.08 196,-102.08"/>
</g>
</g>
</svg>
