<?xml version="1.0" encoding="UTF-8" standalone="no"?>
<!DOCTYPE svg PUBLIC "-//W3C//DTD SVG 1.1//EN"
 "http://www.w3.org/Graphics/SVG/1.1/DTD/svg11.dtd">
<!-- Generated by graphviz version 2.46.1 (20210215.1649)
 -->
<!-- Title: Belief Pages: 1 -->
<svg width="110pt" height="270pt"
 viewBox="0.00 0.00 109.50 270.00" xmlns="http://www.w3.org/2000/svg" xmlns:xlink="http://www.w3.org/1999/xlink">
<g id="graph0" class="graph" transform="scale(1 1) rotate(0) translate(4 266)">
<title>Belief</title>
<polygon fill="white" stroke="transparent" points="-4,4 -4,-266 105.5,-266 105.5,4 -4,4"/>
<!-- Node1 -->
<g id="node1" class="node">
<title>Node1</title>
<g id="a_node1"><a xlink:title=" ">
<polygon fill="#bfbfbf" stroke="black" points="0,-0.5 0,-112.5 93,-112.5 93,-0.5 0,-0.5"/>
<text text-anchor="middle" x="46.5" y="-100.5" font-family="Helvetica,sans-Serif" font-size="10.00">Belief</text>
<polyline fill="none" stroke="black" points="0,-93.5 93,-93.5 "/>
<text text-anchor="start" x="8" y="-81.5" font-family="Helvetica,sans-Serif" font-size="10.00">&#45; _belief_state</text>
<text text-anchor="start" x="8" y="-70.5" font-family="Helvetica,sans-Serif" font-size="10.00">&#45; _update</text>
<polyline fill="none" stroke="black" points="0,-63.5 93,-63.5 "/>
<text text-anchor="start" x="8" y="-51.5" font-family="Helvetica,sans-Serif" font-size="10.00">+ Belief()</text>
<text text-anchor="start" x="8" y="-40.5" font-family="Helvetica,sans-Serif" font-size="10.00">+ update_belief()</text>
<text text-anchor="start" x="8" y="-29.5" font-family="Helvetica,sans-Serif" font-size="10.00">+ change_state()</text>
<text text-anchor="start" x="8" y="-18.5" font-family="Helvetica,sans-Serif" font-size="10.00">+ get_statement()</text>
<text text-anchor="start" x="8" y="-7.5" font-family="Helvetica,sans-Serif" font-size="10.00">+ get_state()</text>
</a>
</g>
</g>
<!-- Node2 -->
<g id="node2" class="node">
<title>Node2</title>
<g id="a_node2"><a xlink:href="../../d7/da3/class_statement.html" target="_top" xlink:title=" ">
<polygon fill="white" stroke="black" points="8.5,-160.5 8.5,-261.5 84.5,-261.5 84.5,-160.5 8.5,-160.5"/>
<text text-anchor="middle" x="46.5" y="-249.5" font-family="Helvetica,sans-Serif" font-size="10.00">Statement</text>
<polyline fill="none" stroke="black" points="8.5,-242.5 84.5,-242.5 "/>
<text text-anchor="start" x="16.5" y="-230.5" font-family="Helvetica,sans-Serif" font-size="10.00">&#45; _name</text>
<polyline fill="none" stroke="black" points="8.5,-223.5 84.5,-223.5 "/>
<text text-anchor="start" x="16.5" y="-211.5" font-family="Helvetica,sans-Serif" font-size="10.00">+ Statement()</text>
<text text-anchor="start" x="16.5" y="-200.5" font-family="Helvetica,sans-Serif" font-size="10.00">+ Statement()</text>
<text text-anchor="start" x="16.5" y="-189.5" font-family="Helvetica,sans-Serif" font-size="10.00">+ is_equal()</text>
<text text-anchor="start" x="16.5" y="-178.5" font-family="Helvetica,sans-Serif" font-size="10.00">+ is_equal()</text>
<text text-anchor="start" x="16.5" y="-167.5" font-family="Helvetica,sans-Serif" font-size="10.00">+ get_name()</text>
</a>
</g>
</g>
<!-- Node2&#45;&gt;Node1 -->
<g id="edge1" class="edge">
<title>Node2&#45;&gt;Node1</title>
<path fill="none" stroke="#404040" d="M46.5,-160.49C46.5,-149.13 46.5,-136.86 46.5,-124.89"/>
<polygon fill="none" stroke="#404040" points="46.5,-124.57 42.5,-118.57 46.5,-112.57 50.5,-118.57 46.5,-124.57"/>
<text text-anchor="middle" x="74" y="-134" font-family="Helvetica,sans-Serif" font-size="10.00"> &#45;_statement</text>
</g>
</g>
</svg>
