<?xml version="1.0" encoding="UTF-8" standalone="no"?>
<!DOCTYPE svg PUBLIC "-//W3C//DTD SVG 1.1//EN"
 "http://www.w3.org/Graphics/SVG/1.1/DTD/svg11.dtd">
<!-- Generated by graphviz version 2.46.1 (20210215.1649)
 -->
<!-- Title: event_base.cpp Pages: 1 -->
<svg width="557pt" height="252pt"
 viewBox="0.00 0.00 556.50 252.00" xmlns="http://www.w3.org/2000/svg" xmlns:xlink="http://www.w3.org/1999/xlink">
<g id="graph0" class="graph" transform="scale(1 1) rotate(0) translate(4 248)">
<title>event_base.cpp</title>
<polygon fill="white" stroke="transparent" points="-4,4 -4,-248 552.5,-248 552.5,4 -4,4"/>
<!-- Node1 -->
<g id="node1" class="node">
<title>Node1</title>
<g id="a_node1"><a xlink:title=" ">
<polygon fill="#bfbfbf" stroke="black" points="374.5,-224.5 374.5,-243.5 459.5,-243.5 459.5,-224.5 374.5,-224.5"/>
<text text-anchor="middle" x="417" y="-231.5" font-family="Helvetica,sans-Serif" font-size="10.00">event_base.cpp</text>
</a>
</g>
</g>
<!-- Node2 -->
<g id="node2" class="node">
<title>Node2</title>
<g id="a_node2"><a xlink:href="../../d7/dc4/event__base_8h.html" target="_top" xlink:title=" ">
<polygon fill="white" stroke="black" points="380,-168.5 380,-187.5 454,-187.5 454,-168.5 380,-168.5"/>
<text text-anchor="middle" x="417" y="-175.5" font-family="Helvetica,sans-Serif" font-size="10.00">event_base.h</text>
</a>
</g>
</g>
<!-- Node1&#45;&gt;Node2 -->
<g id="edge1" class="edge">
<title>Node1&#45;&gt;Node2</title>
<path fill="none" stroke="midnightblue" d="M417,-224.08C417,-217.01 417,-206.86 417,-197.99"/>
<polygon fill="midnightblue" stroke="midnightblue" points="420.5,-197.75 417,-187.75 413.5,-197.75 420.5,-197.75"/>
</g>
<!-- Node3 -->
<g id="node3" class="node">
<title>Node3</title>
<g id="a_node3"><a xlink:href="../../dd/d20/event_8h.html" target="_top" xlink:title=" ">
<polygon fill="white" stroke="black" points="202,-112.5 202,-131.5 250,-131.5 250,-112.5 202,-112.5"/>
<text text-anchor="middle" x="226" y="-119.5" font-family="Helvetica,sans-Serif" font-size="10.00">event.h</text>
</a>
</g>
</g>
<!-- Node2&#45;&gt;Node3 -->
<g id="edge2" class="edge">
<title>Node2&#45;&gt;Node3</title>
<path fill="none" stroke="midnightblue" d="M386.74,-168.44C352.27,-158.7 296.09,-142.82 260.1,-132.64"/>
<polygon fill="midnightblue" stroke="midnightblue" points="260.65,-129.16 250.08,-129.81 258.75,-135.9 260.65,-129.16"/>
</g>
<!-- Node5 -->
<g id="node5" class="node">
<title>Node5</title>
<g id="a_node5"><a xlink:title=" ">
<polygon fill="white" stroke="#bfbfbf" points="325,-0.5 325,-19.5 371,-19.5 371,-0.5 325,-0.5"/>
<text text-anchor="middle" x="348" y="-7.5" font-family="Helvetica,sans-Serif" font-size="10.00">cstdint</text>
</a>
</g>
</g>
<!-- Node2&#45;&gt;Node5 -->
<g id="edge12" class="edge">
<title>Node2&#45;&gt;Node5</title>
<path fill="none" stroke="midnightblue" d="M417.43,-168.48C418.09,-147.83 417.57,-94.02 397,-56 390.54,-44.06 379.68,-33.59 369.82,-25.77"/>
<polygon fill="midnightblue" stroke="midnightblue" points="371.66,-22.77 361.55,-19.6 367.48,-28.39 371.66,-22.77"/>
</g>
<!-- Node8 -->
<g id="node8" class="node">
<title>Node8</title>
<g id="a_node8"><a xlink:href="../../d0/d81/vector__queue_8h.html" target="_top" xlink:title=" ">
<polygon fill="white" stroke="black" points="445.5,-112.5 445.5,-131.5 548.5,-131.5 548.5,-112.5 445.5,-112.5"/>
<text text-anchor="middle" x="497" y="-119.5" font-family="Helvetica,sans-Serif" font-size="10.00">../lib/vector_queue.h</text>
</a>
</g>
</g>
<!-- Node2&#45;&gt;Node8 -->
<g id="edge9" class="edge">
<title>Node2&#45;&gt;Node8</title>
<path fill="none" stroke="midnightblue" d="M429.85,-168.32C442.22,-159.98 461.13,-147.21 475.74,-137.35"/>
<polygon fill="midnightblue" stroke="midnightblue" points="477.85,-140.15 484.18,-131.65 473.93,-134.35 477.85,-140.15"/>
</g>
<!-- Node4 -->
<g id="node4" class="node">
<title>Node4</title>
<g id="a_node4"><a xlink:href="../../de/d93/statement_8h.html" target="_top" xlink:title=" ">
<polygon fill="white" stroke="black" points="0,-56.5 0,-75.5 106,-75.5 106,-56.5 0,-56.5"/>
<text text-anchor="middle" x="53" y="-63.5" font-family="Helvetica,sans-Serif" font-size="10.00">../syntax/statement.h</text>
</a>
</g>
</g>
<!-- Node3&#45;&gt;Node4 -->
<g id="edge3" class="edge">
<title>Node3&#45;&gt;Node4</title>
<path fill="none" stroke="midnightblue" d="M201.95,-113.49C173,-104.46 124.08,-89.19 90.25,-78.63"/>
<polygon fill="midnightblue" stroke="midnightblue" points="90.86,-75.15 80.27,-75.51 88.77,-81.83 90.86,-75.15"/>
</g>
<!-- Node3&#45;&gt;Node5 -->
<g id="edge8" class="edge">
<title>Node3&#45;&gt;Node5</title>
<path fill="none" stroke="midnightblue" d="M202.67,-112.38C174.95,-100.83 134.62,-79.11 153,-56 172.84,-31.06 264.38,-18.76 314.67,-13.78"/>
<polygon fill="midnightblue" stroke="midnightblue" points="315.11,-17.26 324.74,-12.83 314.45,-10.29 315.11,-17.26"/>
</g>
<!-- Node6 -->
<g id="node6" class="node">
<title>Node6</title>
<g id="a_node6"><a xlink:href="../../db/d50/event__operator_8h.html" target="_top" xlink:title=" ">
<polygon fill="white" stroke="black" points="162.5,-56.5 162.5,-75.5 289.5,-75.5 289.5,-56.5 162.5,-56.5"/>
<text text-anchor="middle" x="226" y="-63.5" font-family="Helvetica,sans-Serif" font-size="10.00">../syntax/event_operator.h</text>
</a>
</g>
</g>
<!-- Node3&#45;&gt;Node6 -->
<g id="edge5" class="edge">
<title>Node3&#45;&gt;Node6</title>
<path fill="none" stroke="midnightblue" d="M226,-112.08C226,-105.01 226,-94.86 226,-85.99"/>
<polygon fill="midnightblue" stroke="midnightblue" points="229.5,-85.75 226,-75.75 222.5,-85.75 229.5,-85.75"/>
</g>
<!-- Node7 -->
<g id="node7" class="node">
<title>Node7</title>
<g id="a_node7"><a xlink:href="../../df/dc3/event__id_8h.html" target="_top" xlink:title=" ">
<polygon fill="white" stroke="black" points="307.5,-56.5 307.5,-75.5 388.5,-75.5 388.5,-56.5 307.5,-56.5"/>
<text text-anchor="middle" x="348" y="-63.5" font-family="Helvetica,sans-Serif" font-size="10.00">../lib/event_id.h</text>
</a>
</g>
</g>
<!-- Node3&#45;&gt;Node7 -->
<g id="edge6" class="edge">
<title>Node3&#45;&gt;Node7</title>
<path fill="none" stroke="midnightblue" d="M245.33,-112.44C265.32,-103.6 296.74,-89.69 319.56,-79.59"/>
<polygon fill="midnightblue" stroke="midnightblue" points="321.03,-82.76 328.76,-75.52 318.2,-76.36 321.03,-82.76"/>
</g>
<!-- Node4&#45;&gt;Node5 -->
<g id="edge4" class="edge">
<title>Node4&#45;&gt;Node5</title>
<path fill="none" stroke="midnightblue" d="M99.74,-56.44C159.63,-45.48 261.96,-26.75 314.58,-17.12"/>
<polygon fill="midnightblue" stroke="midnightblue" points="315.51,-20.51 324.72,-15.26 314.25,-13.62 315.51,-20.51"/>
</g>
<!-- Node7&#45;&gt;Node5 -->
<g id="edge7" class="edge">
<title>Node7&#45;&gt;Node5</title>
<path fill="none" stroke="midnightblue" d="M348,-56.08C348,-49.01 348,-38.86 348,-29.99"/>
<polygon fill="midnightblue" stroke="midnightblue" points="351.5,-29.75 348,-19.75 344.5,-29.75 351.5,-29.75"/>
</g>
<!-- Node8&#45;&gt;Node5 -->
<g id="edge11" class="edge">
<title>Node8&#45;&gt;Node5</title>
<path fill="none" stroke="midnightblue" d="M489.54,-112.21C477.96,-98.92 454.52,-73.42 431,-56 414.04,-43.44 393.15,-32.14 376.57,-24"/>
<polygon fill="midnightblue" stroke="midnightblue" points="377.9,-20.75 367.37,-19.59 374.87,-27.06 377.9,-20.75"/>
</g>
<!-- Node9 -->
<g id="node9" class="node">
<title>Node9</title>
<g id="a_node9"><a xlink:title=" ">
<polygon fill="white" stroke="#bfbfbf" points="483,-56.5 483,-75.5 527,-75.5 527,-56.5 483,-56.5"/>
<text text-anchor="middle" x="505" y="-63.5" font-family="Helvetica,sans-Serif" font-size="10.00">vector</text>
</a>
</g>
</g>
<!-- Node8&#45;&gt;Node9 -->
<g id="edge10" class="edge">
<title>Node8&#45;&gt;Node9</title>
<path fill="none" stroke="midnightblue" d="M498.32,-112.08C499.38,-104.93 500.91,-94.64 502.23,-85.69"/>
<polygon fill="midnightblue" stroke="midnightblue" points="505.7,-86.16 503.7,-75.75 498.78,-85.13 505.7,-86.16"/>
</g>
</g>
</svg>
