<?xml version="1.0" encoding="UTF-8" standalone="no"?>
<!DOCTYPE svg PUBLIC "-//W3C//DTD SVG 1.1//EN"
 "http://www.w3.org/Graphics/SVG/1.1/DTD/svg11.dtd">
<!-- Generated by graphviz version 2.47.1 (20210421.1823)
 -->
<!-- Title: event_base.cpp Pages: 1 -->
<svg width="561pt" height="252pt"
 viewBox="0.00 0.00 560.50 252.00" xmlns="http://www.w3.org/2000/svg" xmlns:xlink="http://www.w3.org/1999/xlink">
<g id="graph0" class="graph" transform="scale(1 1) rotate(0) translate(4 248)">
<title>event_base.cpp</title>
<polygon fill="white" stroke="transparent" points="-4,4 -4,-248 556.5,-248 556.5,4 -4,4"/>
<!-- Node1 -->
<g id="node1" class="node">
<title>Node1</title>
<g id="a_node1"><a xlink:title=" ">
<polygon fill="#bfbfbf" stroke="black" points="378.5,-224.5 378.5,-243.5 463.5,-243.5 463.5,-224.5 378.5,-224.5"/>
<text text-anchor="middle" x="421" y="-231.5" font-family="Helvetica,sans-Serif" font-size="10.00">event_base.cpp</text>
</a>
</g>
</g>
<!-- Node2 -->
<g id="node2" class="node">
<title>Node2</title>
<g id="a_node2"><a xlink:href="../../d7/dc4/event__base_8h.html" target="_top" xlink:title=" ">
<polygon fill="white" stroke="black" points="384,-168.5 384,-187.5 458,-187.5 458,-168.5 384,-168.5"/>
<text text-anchor="middle" x="421" y="-175.5" font-family="Helvetica,sans-Serif" font-size="10.00">event_base.h</text>
</a>
</g>
</g>
<!-- Node1&#45;&gt;Node2 -->
<g id="edge1" class="edge">
<title>Node1&#45;&gt;Node2</title>
<path fill="none" stroke="midnightblue" d="M421,-224.08C421,-217.01 421,-206.86 421,-197.99"/>
<polygon fill="midnightblue" stroke="midnightblue" points="424.5,-197.75 421,-187.75 417.5,-197.75 424.5,-197.75"/>
</g>
<!-- Node3 -->
<g id="node3" class="node">
<title>Node3</title>
<g id="a_node3"><a xlink:href="../../dd/d20/event_8h.html" target="_top" xlink:title=" ">
<polygon fill="white" stroke="black" points="206,-112.5 206,-131.5 254,-131.5 254,-112.5 206,-112.5"/>
<text text-anchor="middle" x="230" y="-119.5" font-family="Helvetica,sans-Serif" font-size="10.00">event.h</text>
</a>
</g>
</g>
<!-- Node2&#45;&gt;Node3 -->
<g id="edge2" class="edge">
<title>Node2&#45;&gt;Node3</title>
<path fill="none" stroke="midnightblue" d="M390.74,-168.44C356.27,-158.7 300.09,-142.82 264.1,-132.64"/>
<polygon fill="midnightblue" stroke="midnightblue" points="264.65,-129.16 254.08,-129.81 262.75,-135.9 264.65,-129.16"/>
</g>
<!-- Node5 -->
<g id="node5" class="node">
<title>Node5</title>
<g id="a_node5"><a xlink:title=" ">
<polygon fill="white" stroke="#bfbfbf" points="329,-0.5 329,-19.5 375,-19.5 375,-0.5 329,-0.5"/>
<text text-anchor="middle" x="352" y="-7.5" font-family="Helvetica,sans-Serif" font-size="10.00">cstdint</text>
</a>
</g>
</g>
<!-- Node2&#45;&gt;Node5 -->
<g id="edge12" class="edge">
<title>Node2&#45;&gt;Node5</title>
<path fill="none" stroke="midnightblue" d="M421.43,-168.48C422.09,-147.83 421.57,-94.02 401,-56 394.54,-44.06 383.68,-33.59 373.82,-25.77"/>
<polygon fill="midnightblue" stroke="midnightblue" points="375.66,-22.77 365.55,-19.6 371.48,-28.39 375.66,-22.77"/>
</g>
<!-- Node8 -->
<g id="node8" class="node">
<title>Node8</title>
<g id="a_node8"><a xlink:href="../../d0/d81/vector__queue_8h.html" target="_top" xlink:title=" ">
<polygon fill="white" stroke="black" points="449.5,-112.5 449.5,-131.5 552.5,-131.5 552.5,-112.5 449.5,-112.5"/>
<text text-anchor="middle" x="501" y="-119.5" font-family="Helvetica,sans-Serif" font-size="10.00">../lib/vector_queue.h</text>
</a>
</g>
</g>
<!-- Node2&#45;&gt;Node8 -->
<g id="edge9" class="edge">
<title>Node2&#45;&gt;Node8</title>
<path fill="none" stroke="midnightblue" d="M433.85,-168.32C446.22,-159.98 465.13,-147.21 479.74,-137.35"/>
<polygon fill="midnightblue" stroke="midnightblue" points="481.85,-140.15 488.18,-131.65 477.93,-134.35 481.85,-140.15"/>
</g>
<!-- Node4 -->
<g id="node4" class="node">
<title>Node4</title>
<g id="a_node4"><a xlink:href="../../d5/d6b/proposition_8h.html" target="_top" xlink:title=" ">
<polygon fill="white" stroke="black" points="0,-56.5 0,-75.5 110,-75.5 110,-56.5 0,-56.5"/>
<text text-anchor="middle" x="55" y="-63.5" font-family="Helvetica,sans-Serif" font-size="10.00">../syntax/proposition.h</text>
</a>
</g>
</g>
<!-- Node3&#45;&gt;Node4 -->
<g id="edge3" class="edge">
<title>Node3&#45;&gt;Node4</title>
<path fill="none" stroke="midnightblue" d="M205.67,-113.49C176.26,-104.42 126.48,-89.06 92.24,-78.49"/>
<polygon fill="midnightblue" stroke="midnightblue" points="93.17,-75.12 82.58,-75.51 91.11,-81.8 93.17,-75.12"/>
</g>
<!-- Node3&#45;&gt;Node5 -->
<g id="edge8" class="edge">
<title>Node3&#45;&gt;Node5</title>
<path fill="none" stroke="midnightblue" d="M206.67,-112.38C178.95,-100.83 138.62,-79.11 157,-56 176.84,-31.06 268.38,-18.76 318.67,-13.78"/>
<polygon fill="midnightblue" stroke="midnightblue" points="319.11,-17.26 328.74,-12.83 318.45,-10.29 319.11,-17.26"/>
</g>
<!-- Node6 -->
<g id="node6" class="node">
<title>Node6</title>
<g id="a_node6"><a xlink:href="../../db/d50/event__operator_8h.html" target="_top" xlink:title=" ">
<polygon fill="white" stroke="black" points="166.5,-56.5 166.5,-75.5 293.5,-75.5 293.5,-56.5 166.5,-56.5"/>
<text text-anchor="middle" x="230" y="-63.5" font-family="Helvetica,sans-Serif" font-size="10.00">../syntax/event_operator.h</text>
</a>
</g>
</g>
<!-- Node3&#45;&gt;Node6 -->
<g id="edge5" class="edge">
<title>Node3&#45;&gt;Node6</title>
<path fill="none" stroke="midnightblue" d="M230,-112.08C230,-105.01 230,-94.86 230,-85.99"/>
<polygon fill="midnightblue" stroke="midnightblue" points="233.5,-85.75 230,-75.75 226.5,-85.75 233.5,-85.75"/>
</g>
<!-- Node7 -->
<g id="node7" class="node">
<title>Node7</title>
<g id="a_node7"><a xlink:href="../../df/dc3/event__id_8h.html" target="_top" xlink:title=" ">
<polygon fill="white" stroke="black" points="311.5,-56.5 311.5,-75.5 392.5,-75.5 392.5,-56.5 311.5,-56.5"/>
<text text-anchor="middle" x="352" y="-63.5" font-family="Helvetica,sans-Serif" font-size="10.00">../lib/event_id.h</text>
</a>
</g>
</g>
<!-- Node3&#45;&gt;Node7 -->
<g id="edge6" class="edge">
<title>Node3&#45;&gt;Node7</title>
<path fill="none" stroke="midnightblue" d="M249.33,-112.44C269.32,-103.6 300.74,-89.69 323.56,-79.59"/>
<polygon fill="midnightblue" stroke="midnightblue" points="325.03,-82.76 332.76,-75.52 322.2,-76.36 325.03,-82.76"/>
</g>
<!-- Node4&#45;&gt;Node5 -->
<g id="edge4" class="edge">
<title>Node4&#45;&gt;Node5</title>
<path fill="none" stroke="midnightblue" d="M102.06,-56.44C162.63,-45.43 266.33,-26.58 319.09,-16.98"/>
<polygon fill="midnightblue" stroke="midnightblue" points="319.72,-20.43 328.93,-15.19 318.47,-13.54 319.72,-20.43"/>
</g>
<!-- Node7&#45;&gt;Node5 -->
<g id="edge7" class="edge">
<title>Node7&#45;&gt;Node5</title>
<path fill="none" stroke="midnightblue" d="M352,-56.08C352,-49.01 352,-38.86 352,-29.99"/>
<polygon fill="midnightblue" stroke="midnightblue" points="355.5,-29.75 352,-19.75 348.5,-29.75 355.5,-29.75"/>
</g>
<!-- Node8&#45;&gt;Node5 -->
<g id="edge11" class="edge">
<title>Node8&#45;&gt;Node5</title>
<path fill="none" stroke="midnightblue" d="M493.54,-112.21C481.96,-98.92 458.52,-73.42 435,-56 418.04,-43.44 397.15,-32.14 380.57,-24"/>
<polygon fill="midnightblue" stroke="midnightblue" points="381.9,-20.75 371.37,-19.59 378.87,-27.06 381.9,-20.75"/>
</g>
<!-- Node9 -->
<g id="node9" class="node">
<title>Node9</title>
<g id="a_node9"><a xlink:title=" ">
<polygon fill="white" stroke="#bfbfbf" points="487,-56.5 487,-75.5 531,-75.5 531,-56.5 487,-56.5"/>
<text text-anchor="middle" x="509" y="-63.5" font-family="Helvetica,sans-Serif" font-size="10.00">vector</text>
</a>
</g>
</g>
<!-- Node8&#45;&gt;Node9 -->
<g id="edge10" class="edge">
<title>Node8&#45;&gt;Node9</title>
<path fill="none" stroke="midnightblue" d="M502.32,-112.08C503.38,-104.93 504.91,-94.64 506.23,-85.69"/>
<polygon fill="midnightblue" stroke="midnightblue" points="509.7,-86.16 507.7,-75.75 502.78,-85.13 509.7,-86.16"/>
</g>
</g>
</svg>
