<?xml version="1.0" encoding="UTF-8" standalone="no"?>
<!DOCTYPE svg PUBLIC "-//W3C//DTD SVG 1.1//EN"
 "http://www.w3.org/Graphics/SVG/1.1/DTD/svg11.dtd">
<!-- Generated by graphviz version 5.0.0 (20220708.1001)
 -->
<!-- Title: body.h Pages: 1 -->
<!--zoomable 364 -->
<svg id="main" version="1.1" xmlns="http://www.w3.org/2000/svg" xmlns:xlink="http://www.w3.org/1999/xlink" xml:space="preserve" onload="init(evt)">
<style type="text/css"><![CDATA[
.edge:hover path { stroke: red; }
.edge:hover polygon { stroke: red; fill: red; }
]]></style>
<script type="text/javascript"><![CDATA[
var edges = document.getElementsByTagName('g');
if (edges && edges.length) {
  for (var i=0;i<edges.length;i++) {
    if (edges[i].id.substr(0,4)=='edge') {
      edges[i].setAttribute('class','edge');
    }
  }
}
]]></script>
        <defs>
                <circle id="rim" cx="0" cy="0" r="7"/>
                <circle id="rim2" cx="0" cy="0" r="3.5"/>
                <g id="zoomPlus">
                        <use xlink:href="#rim" fill="#404040">
                                <set attributeName="fill" to="#808080" begin="zoomplus.mouseover" end="zoomplus.mouseout"/>
                        </use>
                        <path d="M-4,0h8M0,-4v8" fill="none" stroke="white" stroke-width="1.5" pointer-events="none"/>
                </g>
                <g id="zoomMin">
                        <use xlink:href="#rim" fill="#404040">
                                <set attributeName="fill" to="#808080" begin="zoomminus.mouseover" end="zoomminus.mouseout"/>
                        </use>
                        <path d="M-4,0h8" fill="none" stroke="white" stroke-width="1.5" pointer-events="none"/>
                </g>
                <g id="dirArrow">
                        <path fill="none" stroke="white" stroke-width="1.5" d="M0,-3.0v7 M-2.5,-0.5L0,-3.0L2.5,-0.5"/>
                </g>
               <g id="resetDef">
                       <use xlink:href="#rim2" fill="#404040">
                               <set attributeName="fill" to="#808080" begin="reset.mouseover" end="reset.mouseout"/>
                       </use>
               </g>
        </defs>

<script type="text/javascript">
var viewWidth = 797;
var viewHeight = 364;
var sectionId = 'dynsection-0';
</script>
<script xlink:href="../../svgpan.js"/>
<svg id="graph" class="graph">
<g id="viewport">
<title>body.h</title>
<polygon fill="white" stroke="transparent" points="-4,4 -4,-360 792.97,-360 792.97,4 -4,4"/>
<!-- Node1 -->
<g id="node1" class="node">
<title>Node1</title>
<g id="a_node1"><a xlink:title=" ">
<polygon fill="#bfbfbf" stroke="black" points="583,-336.5 583,-355.5 627,-355.5 627,-336.5 583,-336.5"/>
<text text-anchor="middle" x="605" y="-343.5" font-family="Helvetica,sans-Serif" font-size="10.00">body.h</text>
</a>
</g>
</g>
<!-- Node2 -->
<g id="node2" class="node">
<title>Node2</title>
<g id="a_node2"><a xlink:href="../../d8/d67/body__instruction_8h.html" target="_top" xlink:title=" ">
<polygon fill="white" stroke="black" points="404.5,-280.5 404.5,-299.5 499.5,-299.5 499.5,-280.5 404.5,-280.5"/>
<text text-anchor="middle" x="452" y="-287.5" font-family="Helvetica,sans-Serif" font-size="10.00">body_instruction.h</text>
</a>
</g>
</g>
<!-- Node1&#45;&gt;Node2 -->
<g id="edge1" class="edge">
<title>Node1&#45;&gt;Node2</title>
<path fill="none" stroke="midnightblue" d="M582.75,-337.15C557.29,-328.16 515.3,-313.34 485.78,-302.92"/>
<polygon fill="midnightblue" stroke="midnightblue" points="486.89,-299.6 476.3,-299.58 484.56,-306.2 486.89,-299.6"/>
</g>
<!-- Node7 -->
<g id="node7" class="node">
<title>Node7</title>
<g id="a_node7"><a xlink:title=" ">
<polygon fill="white" stroke="#bfbfbf" points="391,-0.5 391,-19.5 437,-19.5 437,-0.5 391,-0.5"/>
<text text-anchor="middle" x="414" y="-7.5" font-family="Helvetica,sans-Serif" font-size="10.00">cstdint</text>
</a>
</g>
</g>
<!-- Node1&#45;&gt;Node7 -->
<g id="edge31" class="edge">
<title>Node1&#45;&gt;Node7</title>
<path fill="none" stroke="midnightblue" d="M627.07,-342.21C675.75,-334.7 788,-309.32 788,-235 788,-235 788,-235 788,-121 788,-90.9 791.9,-75.53 769,-56 721.15,-15.18 526.92,-10.78 447.79,-10.73"/>
<polygon fill="midnightblue" stroke="midnightblue" points="447.41,-7.23 437.42,-10.74 447.42,-14.23 447.41,-7.23"/>
</g>
<!-- Node10 -->
<g id="node10" class="node">
<title>Node10</title>
<g id="a_node10"><a xlink:href="../../d2/d2f/belief__base_8h.html" target="_top" xlink:title=" ">
<polygon fill="white" stroke="black" points="441.5,-224.5 441.5,-243.5 538.5,-243.5 538.5,-224.5 441.5,-224.5"/>
<text text-anchor="middle" x="490" y="-231.5" font-family="Helvetica,sans-Serif" font-size="10.00">../bdi/belief_base.h</text>
</a>
</g>
</g>
<!-- Node1&#45;&gt;Node10 -->
<g id="edge28" class="edge">
<title>Node1&#45;&gt;Node10</title>
<path fill="none" stroke="midnightblue" d="M595.98,-336.37C576.66,-317.89 531.08,-274.29 506.46,-250.74"/>
<polygon fill="midnightblue" stroke="midnightblue" points="508.63,-247.97 498.98,-243.59 503.79,-253.03 508.63,-247.97"/>
</g>
<!-- Node12 -->
<g id="node12" class="node">
<title>Node12</title>
<g id="a_node12"><a xlink:href="../../d7/dc4/event__base_8h.html" target="_top" xlink:title=" ">
<polygon fill="white" stroke="black" points="567,-168.5 567,-187.5 641,-187.5 641,-168.5 567,-168.5"/>
<text text-anchor="middle" x="604" y="-175.5" font-family="Helvetica,sans-Serif" font-size="10.00">event_base.h</text>
</a>
</g>
</g>
<!-- Node1&#45;&gt;Node12 -->
<g id="edge29" class="edge">
<title>Node1&#45;&gt;Node12</title>
<path fill="none" stroke="midnightblue" d="M604.95,-336.08C604.79,-309.95 604.33,-233.21 604.11,-197.58"/>
<polygon fill="midnightblue" stroke="midnightblue" points="607.61,-197.55 604.05,-187.57 600.61,-197.59 607.61,-197.55"/>
</g>
<!-- Node13 -->
<g id="node13" class="node">
<title>Node13</title>
<g id="a_node13"><a xlink:href="../../d0/d81/vector__queue_8h.html" target="_top" xlink:title=" ">
<polygon fill="white" stroke="black" points="646.5,-112.5 646.5,-131.5 749.5,-131.5 749.5,-112.5 646.5,-112.5"/>
<text text-anchor="middle" x="698" y="-119.5" font-family="Helvetica,sans-Serif" font-size="10.00">../lib/vector_queue.h</text>
</a>
</g>
</g>
<!-- Node1&#45;&gt;Node13 -->
<g id="edge30" class="edge">
<title>Node1&#45;&gt;Node13</title>
<path fill="none" stroke="midnightblue" d="M608.65,-336.3C622.39,-303.49 671.24,-186.88 690.3,-141.38"/>
<polygon fill="midnightblue" stroke="midnightblue" points="693.64,-142.46 694.28,-131.88 687.19,-139.75 693.64,-142.46"/>
</g>
<!-- Node3 -->
<g id="node3" class="node">
<title>Node3</title>
<g id="a_node3"><a xlink:href="../../d0/d96/body__type_8h.html" target="_top" xlink:title=" ">
<polygon fill="white" stroke="black" points="28,-168.5 28,-187.5 96,-187.5 96,-168.5 28,-168.5"/>
<text text-anchor="middle" x="62" y="-175.5" font-family="Helvetica,sans-Serif" font-size="10.00">body_type.h</text>
</a>
</g>
</g>
<!-- Node2&#45;&gt;Node3 -->
<g id="edge2" class="edge">
<title>Node2&#45;&gt;Node3</title>
<path fill="none" stroke="midnightblue" d="M404.43,-288.11C319.94,-285.7 147.96,-276.79 99,-244 82.85,-233.19 72.94,-212.8 67.49,-197.73"/>
<polygon fill="midnightblue" stroke="midnightblue" points="70.71,-196.33 64.29,-187.91 64.06,-198.5 70.71,-196.33"/>
</g>
<!-- Node4 -->
<g id="node4" class="node">
<title>Node4</title>
<g id="a_node4"><a xlink:href="../../d9/ded/body__return_8h.html" target="_top" xlink:title=" ">
<polygon fill="white" stroke="black" points="108,-224.5 108,-243.5 182,-243.5 182,-224.5 108,-224.5"/>
<text text-anchor="middle" x="145" y="-231.5" font-family="Helvetica,sans-Serif" font-size="10.00">body_return.h</text>
</a>
</g>
</g>
<!-- Node2&#45;&gt;Node4 -->
<g id="edge3" class="edge">
<title>Node2&#45;&gt;Node4</title>
<path fill="none" stroke="midnightblue" d="M404.37,-280.62C346.54,-270.45 249.61,-253.4 192.05,-243.28"/>
<polygon fill="midnightblue" stroke="midnightblue" points="192.57,-239.81 182.12,-241.53 191.36,-246.71 192.57,-239.81"/>
</g>
<!-- Node2&#45;&gt;Node7 -->
<g id="edge27" class="edge">
<title>Node2&#45;&gt;Node7</title>
<path fill="none" stroke="midnightblue" d="M404.23,-286.68C316.8,-281.87 134.72,-269.11 77,-244 35.93,-226.14 0,-223.79 0,-179 0,-179 0,-179 0,-121 0,-42.42 282.12,-18.62 380.58,-12.7"/>
<polygon fill="midnightblue" stroke="midnightblue" points="381.07,-16.18 390.85,-12.11 380.67,-9.19 381.07,-16.18"/>
</g>
<!-- Node2&#45;&gt;Node10 -->
<g id="edge13" class="edge">
<title>Node2&#45;&gt;Node10</title>
<path fill="none" stroke="midnightblue" d="M458.27,-280.08C463.64,-272.46 471.52,-261.26 478.08,-251.94"/>
<polygon fill="midnightblue" stroke="midnightblue" points="480.95,-253.94 483.84,-243.75 475.22,-249.91 480.95,-253.94"/>
</g>
<!-- Node2&#45;&gt;Node12 -->
<g id="edge26" class="edge">
<title>Node2&#45;&gt;Node12</title>
<path fill="none" stroke="midnightblue" d="M476.95,-280.42C497.06,-272.77 525.44,-260.27 547,-244 565.08,-230.35 581.66,-210.2 592.21,-195.96"/>
<polygon fill="midnightblue" stroke="midnightblue" points="595.24,-197.75 598.24,-187.58 589.56,-193.66 595.24,-197.75"/>
</g>
<!-- Node4&#45;&gt;Node3 -->
<g id="edge4" class="edge">
<title>Node4&#45;&gt;Node3</title>
<path fill="none" stroke="midnightblue" d="M131.66,-224.32C118.84,-215.98 99.22,-203.21 84.06,-193.35"/>
<polygon fill="midnightblue" stroke="midnightblue" points="85.59,-190.17 75.3,-187.65 81.78,-196.04 85.59,-190.17"/>
</g>
<!-- Node5 -->
<g id="node5" class="node">
<title>Node5</title>
<g id="a_node5"><a xlink:href="../../dd/d20/event_8h.html" target="_top" xlink:title=" ">
<polygon fill="white" stroke="black" points="356.5,-112.5 356.5,-131.5 427.5,-131.5 427.5,-112.5 356.5,-112.5"/>
<text text-anchor="middle" x="392" y="-119.5" font-family="Helvetica,sans-Serif" font-size="10.00">../bdi/event.h</text>
</a>
</g>
</g>
<!-- Node4&#45;&gt;Node5 -->
<g id="edge5" class="edge">
<title>Node4&#45;&gt;Node5</title>
<path fill="none" stroke="midnightblue" d="M164.38,-224.37C207.67,-205.09 312.39,-158.45 363.28,-135.79"/>
<polygon fill="midnightblue" stroke="midnightblue" points="365,-138.86 372.71,-131.59 362.15,-132.46 365,-138.86"/>
</g>
<!-- Node4&#45;&gt;Node7 -->
<g id="edge12" class="edge">
<title>Node4&#45;&gt;Node7</title>
<path fill="none" stroke="midnightblue" d="M143.32,-224.12C138.45,-195.32 127.42,-103.66 174,-56 202.24,-27.1 321.51,-16.29 380.57,-12.65"/>
<polygon fill="midnightblue" stroke="midnightblue" points="381.09,-16.13 390.87,-12.05 380.68,-9.14 381.09,-16.13"/>
</g>
<!-- Node6 -->
<g id="node6" class="node">
<title>Node6</title>
<g id="a_node6"><a xlink:href="../../d5/d6b/proposition_8h.html" target="_top" xlink:title=" ">
<polygon fill="white" stroke="black" points="474,-56.5 474,-75.5 584,-75.5 584,-56.5 474,-56.5"/>
<text text-anchor="middle" x="529" y="-63.5" font-family="Helvetica,sans-Serif" font-size="10.00">../syntax/proposition.h</text>
</a>
</g>
</g>
<!-- Node5&#45;&gt;Node6 -->
<g id="edge6" class="edge">
<title>Node5&#45;&gt;Node6</title>
<path fill="none" stroke="midnightblue" d="M413.71,-112.44C436.35,-103.52 472.07,-89.44 497.75,-79.32"/>
<polygon fill="midnightblue" stroke="midnightblue" points="499.37,-82.44 507.39,-75.52 496.81,-75.93 499.37,-82.44"/>
</g>
<!-- Node5&#45;&gt;Node7 -->
<g id="edge11" class="edge">
<title>Node5&#45;&gt;Node7</title>
<path fill="none" stroke="midnightblue" d="M368.07,-112.37C341.27,-101.28 303.48,-80.52 319,-56 332.56,-34.57 359.4,-23.14 381.1,-17.18"/>
<polygon fill="midnightblue" stroke="midnightblue" points="382.09,-20.54 390.95,-14.73 380.4,-13.74 382.09,-20.54"/>
</g>
<!-- Node8 -->
<g id="node8" class="node">
<title>Node8</title>
<g id="a_node8"><a xlink:href="../../db/d50/event__operator_8h.html" target="_top" xlink:title=" ">
<polygon fill="white" stroke="black" points="328.5,-56.5 328.5,-75.5 455.5,-75.5 455.5,-56.5 328.5,-56.5"/>
<text text-anchor="middle" x="392" y="-63.5" font-family="Helvetica,sans-Serif" font-size="10.00">../syntax/event_operator.h</text>
</a>
</g>
</g>
<!-- Node5&#45;&gt;Node8 -->
<g id="edge8" class="edge">
<title>Node5&#45;&gt;Node8</title>
<path fill="none" stroke="midnightblue" d="M392,-112.08C392,-105.01 392,-94.86 392,-85.99"/>
<polygon fill="midnightblue" stroke="midnightblue" points="395.5,-85.75 392,-75.75 388.5,-85.75 395.5,-85.75"/>
</g>
<!-- Node9 -->
<g id="node9" class="node">
<title>Node9</title>
<g id="a_node9"><a xlink:href="../../df/dc3/event__id_8h.html" target="_top" xlink:title=" ">
<polygon fill="white" stroke="black" points="190.5,-56.5 190.5,-75.5 271.5,-75.5 271.5,-56.5 190.5,-56.5"/>
<text text-anchor="middle" x="231" y="-63.5" font-family="Helvetica,sans-Serif" font-size="10.00">../lib/event_id.h</text>
</a>
</g>
</g>
<!-- Node5&#45;&gt;Node9 -->
<g id="edge9" class="edge">
<title>Node5&#45;&gt;Node9</title>
<path fill="none" stroke="midnightblue" d="M366.49,-112.44C339.4,-103.36 296.41,-88.94 266.13,-78.78"/>
<polygon fill="midnightblue" stroke="midnightblue" points="266.99,-75.38 256.39,-75.52 264.76,-82.01 266.99,-75.38"/>
</g>
<!-- Node6&#45;&gt;Node7 -->
<g id="edge7" class="edge">
<title>Node6&#45;&gt;Node7</title>
<path fill="none" stroke="midnightblue" d="M510.78,-56.44C492.1,-47.68 462.84,-33.94 441.38,-23.86"/>
<polygon fill="midnightblue" stroke="midnightblue" points="442.68,-20.6 432.14,-19.52 439.7,-26.93 442.68,-20.6"/>
</g>
<!-- Node9&#45;&gt;Node7 -->
<g id="edge10" class="edge">
<title>Node9&#45;&gt;Node7</title>
<path fill="none" stroke="midnightblue" d="M260,-56.44C293.02,-46.7 346.85,-30.82 381.33,-20.64"/>
<polygon fill="midnightblue" stroke="midnightblue" points="382.33,-23.99 390.93,-17.81 380.35,-17.28 382.33,-23.99"/>
</g>
<!-- Node10&#45;&gt;Node5 -->
<g id="edge17" class="edge">
<title>Node10&#45;&gt;Node5</title>
<path fill="none" stroke="midnightblue" d="M482.31,-224.37C465.99,-206.05 427.68,-163.05 406.58,-139.36"/>
<polygon fill="midnightblue" stroke="midnightblue" points="408.92,-136.73 399.65,-131.59 403.69,-141.39 408.92,-136.73"/>
</g>
<!-- Node10&#45;&gt;Node7 -->
<g id="edge25" class="edge">
<title>Node10&#45;&gt;Node7</title>
<path fill="none" stroke="midnightblue" d="M441.24,-224.5C369.57,-209.1 238.12,-169.09 181,-76 176.35,-68.42 175.34,-62.86 181,-56 205.94,-25.79 322.39,-15.63 380.64,-12.4"/>
<polygon fill="midnightblue" stroke="midnightblue" points="381,-15.89 390.81,-11.88 380.64,-8.9 381,-15.89"/>
</g>
<!-- Node11 -->
<g id="node11" class="node">
<title>Node11</title>
<g id="a_node11"><a xlink:href="../../da/db8/belief_8h.html" target="_top" xlink:title=" ">
<polygon fill="white" stroke="black" points="505.5,-112.5 505.5,-131.5 552.5,-131.5 552.5,-112.5 505.5,-112.5"/>
<text text-anchor="middle" x="529" y="-119.5" font-family="Helvetica,sans-Serif" font-size="10.00">belief.h</text>
</a>
</g>
</g>
<!-- Node10&#45;&gt;Node11 -->
<g id="edge14" class="edge">
<title>Node10&#45;&gt;Node11</title>
<path fill="none" stroke="midnightblue" d="M493.06,-224.37C499.38,-206.54 514,-165.3 522.52,-141.27"/>
<polygon fill="midnightblue" stroke="midnightblue" points="525.91,-142.19 525.95,-131.59 519.31,-139.85 525.91,-142.19"/>
</g>
<!-- Node10&#45;&gt;Node12 -->
<g id="edge18" class="edge">
<title>Node10&#45;&gt;Node12</title>
<path fill="none" stroke="midnightblue" d="M508.06,-224.44C526.57,-215.68 555.58,-201.94 576.86,-191.86"/>
<polygon fill="midnightblue" stroke="midnightblue" points="578.48,-194.96 586.02,-187.52 575.49,-188.63 578.48,-194.96"/>
</g>
<!-- Node10&#45;&gt;Node13 -->
<g id="edge24" class="edge">
<title>Node10&#45;&gt;Node13</title>
<path fill="none" stroke="midnightblue" d="M496.98,-224.11C508.35,-210.22 532.18,-183.37 558,-168 584.77,-152.07 617.82,-141.1 645.09,-133.98"/>
<polygon fill="midnightblue" stroke="midnightblue" points="646.01,-137.36 654.85,-131.53 644.3,-130.57 646.01,-137.36"/>
</g>
<!-- Node11&#45;&gt;Node6 -->
<g id="edge15" class="edge">
<title>Node11&#45;&gt;Node6</title>
<path fill="none" stroke="midnightblue" d="M529,-112.08C529,-105.01 529,-94.86 529,-85.99"/>
<polygon fill="midnightblue" stroke="midnightblue" points="532.5,-85.75 529,-75.75 525.5,-85.75 532.5,-85.75"/>
</g>
<!-- Node11&#45;&gt;Node7 -->
<g id="edge16" class="edge">
<title>Node11&#45;&gt;Node7</title>
<path fill="none" stroke="midnightblue" d="M548.86,-112.36C573.46,-100.46 610.14,-77.98 593,-56 575.23,-33.21 493.65,-20.2 446.99,-14.5"/>
<polygon fill="midnightblue" stroke="midnightblue" points="447.39,-11.02 437.05,-13.33 446.57,-17.97 447.39,-11.02"/>
</g>
<!-- Node12&#45;&gt;Node5 -->
<g id="edge19" class="edge">
<title>Node12&#45;&gt;Node5</title>
<path fill="none" stroke="midnightblue" d="M570.41,-168.44C533.81,-159.12 475.16,-144.18 435.17,-134"/>
<polygon fill="midnightblue" stroke="midnightblue" points="435.99,-130.59 425.43,-131.52 434.26,-137.38 435.99,-130.59"/>
</g>
<!-- Node12&#45;&gt;Node7 -->
<g id="edge23" class="edge">
<title>Node12&#45;&gt;Node7</title>
<path fill="none" stroke="midnightblue" d="M607.95,-168.21C617.05,-146.47 636.73,-89.56 610,-56 590,-30.89 497.57,-18.63 447.11,-13.72"/>
<polygon fill="midnightblue" stroke="midnightblue" points="447.3,-10.22 437.02,-12.78 446.65,-17.19 447.3,-10.22"/>
</g>
<!-- Node12&#45;&gt;Node13 -->
<g id="edge20" class="edge">
<title>Node12&#45;&gt;Node13</title>
<path fill="none" stroke="midnightblue" d="M619.1,-168.32C633.9,-159.82 656.69,-146.73 673.98,-136.8"/>
<polygon fill="midnightblue" stroke="midnightblue" points="676.01,-139.67 682.93,-131.65 672.52,-133.6 676.01,-139.67"/>
</g>
<!-- Node13&#45;&gt;Node7 -->
<g id="edge22" class="edge">
<title>Node13&#45;&gt;Node7</title>
<path fill="none" stroke="midnightblue" d="M696.05,-112.22C692.39,-97.98 683.09,-70.02 664,-56 629.97,-31 506.95,-18.22 447.13,-13.37"/>
<polygon fill="midnightblue" stroke="midnightblue" points="447.31,-9.87 437.07,-12.58 446.77,-16.85 447.31,-9.87"/>
</g>
<!-- Node14 -->
<g id="node14" class="node">
<title>Node14</title>
<g id="a_node14"><a xlink:title=" ">
<polygon fill="white" stroke="#bfbfbf" points="716,-56.5 716,-75.5 760,-75.5 760,-56.5 716,-56.5"/>
<text text-anchor="middle" x="738" y="-63.5" font-family="Helvetica,sans-Serif" font-size="10.00">vector</text>
</a>
</g>
</g>
<!-- Node13&#45;&gt;Node14 -->
<g id="edge21" class="edge">
<title>Node13&#45;&gt;Node14</title>
<path fill="none" stroke="midnightblue" d="M704.61,-112.08C710.26,-104.46 718.54,-93.26 725.45,-83.94"/>
<polygon fill="midnightblue" stroke="midnightblue" points="728.38,-85.87 731.52,-75.75 722.75,-81.7 728.38,-85.87"/>
</g>
</g>
</svg>
        <g id="navigator" transform="translate(0 0)" fill="#404254">
                <rect fill="#f2f5e9" fill-opacity="0.5" stroke="#606060" stroke-width=".5" x="0" y="0" width="60" height="60"/>
                <use id="zoomplus" xlink:href="#zoomPlus" x="17" y="9" onmousedown="handleZoom(evt,'in')"/>
                <use id="zoomminus" xlink:href="#zoomMin" x="42" y="9" onmousedown="handleZoom(evt,'out')"/>
                <use id="reset" xlink:href="#resetDef" x="30" y="36" onmousedown="handleReset()"/>
                <g id="arrowUp" xlink:href="#dirArrow" transform="translate(30 24)" onmousedown="handlePan(0,-1)">
                  <use xlink:href="#rim" fill="#404040">
                        <set attributeName="fill" to="#808080" begin="arrowUp.mouseover" end="arrowUp.mouseout"/>
                  </use>
                  <path fill="none" stroke="white" stroke-width="1.5" d="M0,-3.0v7 M-2.5,-0.5L0,-3.0L2.5,-0.5"/>
                </g>
                <g id="arrowRight" xlink:href="#dirArrow" transform="rotate(90) translate(36 -43)" onmousedown="handlePan(1,0)">
                  <use xlink:href="#rim" fill="#404040">
                        <set attributeName="fill" to="#808080" begin="arrowRight.mouseover" end="arrowRight.mouseout"/>
                  </use>
                  <path fill="none" stroke="white" stroke-width="1.5" d="M0,-3.0v7 M-2.5,-0.5L0,-3.0L2.5,-0.5"/>
                </g>
                <g id="arrowDown" xlink:href="#dirArrow" transform="rotate(180) translate(-30 -48)" onmousedown="handlePan(0,1)">
                  <use xlink:href="#rim" fill="#404040">
                        <set attributeName="fill" to="#808080" begin="arrowDown.mouseover" end="arrowDown.mouseout"/>
                  </use>
                  <path fill="none" stroke="white" stroke-width="1.5" d="M0,-3.0v7 M-2.5,-0.5L0,-3.0L2.5,-0.5"/>
                </g>
                <g id="arrowLeft" xlink:href="#dirArrow" transform="rotate(270) translate(-36 17)" onmousedown="handlePan(-1,0)">
                  <use xlink:href="#rim" fill="#404040">
                        <set attributeName="fill" to="#808080" begin="arrowLeft.mouseover" end="arrowLeft.mouseout"/>
                  </use>
                  <path fill="none" stroke="white" stroke-width="1.5" d="M0,-3.0v7 M-2.5,-0.5L0,-3.0L2.5,-0.5"/>
                </g>
        </g>
        <svg viewBox="0 0 15 15" width="100%" height="30px" preserveAspectRatio="xMaxYMin meet">
         <g id="arrow_out" transform="scale(0.3 0.3)">
          <a xlink:href="body_8h__incl_org.svg" target="_base">
           <rect id="button" ry="5" rx="5" y="6" x="6" height="38" width="38"
                fill="#f2f5e9" fill-opacity="0.5" stroke="#606060" stroke-width="1.0"/>
           <path id="arrow"
             d="M 11.500037,31.436501 C 11.940474,20.09759 22.043105,11.32322 32.158766,21.979434 L 37.068811,17.246167 C 37.068811,17.246167 37.088388,32 37.088388,32 L 22.160133,31.978069 C 22.160133,31.978069 26.997745,27.140456 26.997745,27.140456 C 18.528582,18.264221 13.291696,25.230495 11.500037,31.436501 z"
             style="fill:#404040;"/>
          </a>
         </g>
        </svg>
</svg>
