<?xml version="1.0" encoding="UTF-8" standalone="no"?>
<!DOCTYPE svg PUBLIC "-//W3C//DTD SVG 1.1//EN"
 "http://www.w3.org/Graphics/SVG/1.1/DTD/svg11.dtd">
<!-- Generated by graphviz version 2.46.1 (20210215.1649)
 -->
<!-- Title: body.h Pages: 1 -->
<!--zoomable 364 -->
<svg id="main" version="1.1" xmlns="http://www.w3.org/2000/svg" xmlns:xlink="http://www.w3.org/1999/xlink" xml:space="preserve" onload="init(evt)">
<style type="text/css"><![CDATA[
.edge:hover path { stroke: red; }
.edge:hover polygon { stroke: red; fill: red; }
]]></style>
<script type="text/javascript"><![CDATA[
var edges = document.getElementsByTagName('g');
if (edges && edges.length) {
  for (var i=0;i<edges.length;i++) {
    if (edges[i].id.substr(0,4)=='edge') {
      edges[i].setAttribute('class','edge');
    }
  }
}
]]></script>
        <defs>
                <circle id="rim" cx="0" cy="0" r="7"/>
                <circle id="rim2" cx="0" cy="0" r="3.5"/>
                <g id="zoomPlus">
                        <use xlink:href="#rim" fill="#404040">
                                <set attributeName="fill" to="#808080" begin="zoomplus.mouseover" end="zoomplus.mouseout"/>
                        </use>
                        <path d="M-4,0h8M0,-4v8" fill="none" stroke="white" stroke-width="1.5" pointer-events="none"/>
                </g>
                <g id="zoomMin">
                        <use xlink:href="#rim" fill="#404040">
                                <set attributeName="fill" to="#808080" begin="zoomminus.mouseover" end="zoomminus.mouseout"/>
                        </use>
                        <path d="M-4,0h8" fill="none" stroke="white" stroke-width="1.5" pointer-events="none"/>
                </g>
                <g id="dirArrow">
                        <path fill="none" stroke="white" stroke-width="1.5" d="M0,-3.0v7 M-2.5,-0.5L0,-3.0L2.5,-0.5"/>
                </g>
               <g id="resetDef">
                       <use xlink:href="#rim2" fill="#404040">
                               <set attributeName="fill" to="#808080" begin="reset.mouseover" end="reset.mouseout"/>
                       </use>
               </g>
        </defs>

<script type="text/javascript">
var viewWidth = 793;
var viewHeight = 364;
var sectionId = 'dynsection-0';
</script>
<script xlink:href="../../svgpan.js"/>
<svg id="graph" class="graph">
<g id="viewport">
<title>body.h</title>
<polygon fill="white" stroke="transparent" points="-4,4 -4,-360 788.97,-360 788.97,4 -4,4"/>
<!-- Node1 -->
<g id="node1" class="node">
<title>Node1</title>
<g id="a_node1"><a xlink:title=" ">
<polygon fill="#bfbfbf" stroke="black" points="580,-336.5 580,-355.5 624,-355.5 624,-336.5 580,-336.5"/>
<text text-anchor="middle" x="602" y="-343.5" font-family="Helvetica,sans-Serif" font-size="10.00">body.h</text>
</a>
</g>
</g>
<!-- Node2 -->
<g id="node2" class="node">
<title>Node2</title>
<g id="a_node2"><a xlink:href="../../d8/d67/body__instruction_8h.html" target="_top" xlink:title=" ">
<polygon fill="white" stroke="black" points="401.5,-280.5 401.5,-299.5 496.5,-299.5 496.5,-280.5 401.5,-280.5"/>
<text text-anchor="middle" x="449" y="-287.5" font-family="Helvetica,sans-Serif" font-size="10.00">body_instruction.h</text>
</a>
</g>
</g>
<!-- Node1&#45;&gt;Node2 -->
<g id="edge1" class="edge">
<title>Node1&#45;&gt;Node2</title>
<path fill="none" stroke="midnightblue" d="M579.75,-337.15C554.29,-328.16 512.3,-313.34 482.78,-302.92"/>
<polygon fill="midnightblue" stroke="midnightblue" points="483.89,-299.6 473.3,-299.58 481.56,-306.2 483.89,-299.6"/>
</g>
<!-- Node7 -->
<g id="node7" class="node">
<title>Node7</title>
<g id="a_node7"><a xlink:title=" ">
<polygon fill="white" stroke="#bfbfbf" points="390,-0.5 390,-19.5 436,-19.5 436,-0.5 390,-0.5"/>
<text text-anchor="middle" x="413" y="-7.5" font-family="Helvetica,sans-Serif" font-size="10.00">cstdint</text>
</a>
</g>
</g>
<!-- Node1&#45;&gt;Node7 -->
<g id="edge31" class="edge">
<title>Node1&#45;&gt;Node7</title>
<path fill="none" stroke="midnightblue" d="M624.32,-342.11C672.92,-334.44 784,-308.84 784,-235 784,-235 784,-235 784,-121 784,-90.9 787.89,-75.55 765,-56 717.57,-15.5 524.97,-10.91 446.51,-10.77"/>
<polygon fill="midnightblue" stroke="midnightblue" points="446.22,-7.27 436.22,-10.77 446.22,-14.27 446.22,-7.27"/>
</g>
<!-- Node10 -->
<g id="node10" class="node">
<title>Node10</title>
<g id="a_node10"><a xlink:href="../../d2/d2f/belief__base_8h.html" target="_top" xlink:title=" ">
<polygon fill="white" stroke="black" points="438.5,-224.5 438.5,-243.5 535.5,-243.5 535.5,-224.5 438.5,-224.5"/>
<text text-anchor="middle" x="487" y="-231.5" font-family="Helvetica,sans-Serif" font-size="10.00">../bdi/belief_base.h</text>
</a>
</g>
</g>
<!-- Node1&#45;&gt;Node10 -->
<g id="edge28" class="edge">
<title>Node1&#45;&gt;Node10</title>
<path fill="none" stroke="midnightblue" d="M592.98,-336.37C573.66,-317.89 528.08,-274.29 503.46,-250.74"/>
<polygon fill="midnightblue" stroke="midnightblue" points="505.63,-247.97 495.98,-243.59 500.79,-253.03 505.63,-247.97"/>
</g>
<!-- Node12 -->
<g id="node12" class="node">
<title>Node12</title>
<g id="a_node12"><a xlink:href="../../d7/dc4/event__base_8h.html" target="_top" xlink:title=" ">
<polygon fill="white" stroke="black" points="564,-168.5 564,-187.5 638,-187.5 638,-168.5 564,-168.5"/>
<text text-anchor="middle" x="601" y="-175.5" font-family="Helvetica,sans-Serif" font-size="10.00">event_base.h</text>
</a>
</g>
</g>
<!-- Node1&#45;&gt;Node12 -->
<g id="edge29" class="edge">
<title>Node1&#45;&gt;Node12</title>
<path fill="none" stroke="midnightblue" d="M601.95,-336.08C601.79,-309.95 601.33,-233.21 601.11,-197.58"/>
<polygon fill="midnightblue" stroke="midnightblue" points="604.61,-197.55 601.05,-187.57 597.61,-197.59 604.61,-197.55"/>
</g>
<!-- Node13 -->
<g id="node13" class="node">
<title>Node13</title>
<g id="a_node13"><a xlink:href="../../d0/d81/vector__queue_8h.html" target="_top" xlink:title=" ">
<polygon fill="white" stroke="black" points="642.5,-112.5 642.5,-131.5 745.5,-131.5 745.5,-112.5 642.5,-112.5"/>
<text text-anchor="middle" x="694" y="-119.5" font-family="Helvetica,sans-Serif" font-size="10.00">../lib/vector_queue.h</text>
</a>
</g>
</g>
<!-- Node1&#45;&gt;Node13 -->
<g id="edge30" class="edge">
<title>Node1&#45;&gt;Node13</title>
<path fill="none" stroke="midnightblue" d="M605.61,-336.3C619.2,-303.49 667.53,-186.88 686.38,-141.38"/>
<polygon fill="midnightblue" stroke="midnightblue" points="689.72,-142.46 690.32,-131.88 683.26,-139.78 689.72,-142.46"/>
</g>
<!-- Node3 -->
<g id="node3" class="node">
<title>Node3</title>
<g id="a_node3"><a xlink:href="../../d0/d96/body__type_8h.html" target="_top" xlink:title=" ">
<polygon fill="white" stroke="black" points="28,-168.5 28,-187.5 96,-187.5 96,-168.5 28,-168.5"/>
<text text-anchor="middle" x="62" y="-175.5" font-family="Helvetica,sans-Serif" font-size="10.00">body_type.h</text>
</a>
</g>
</g>
<!-- Node2&#45;&gt;Node3 -->
<g id="edge2" class="edge">
<title>Node2&#45;&gt;Node3</title>
<path fill="none" stroke="midnightblue" d="M401.18,-288.04C317.17,-285.52 147.41,-276.45 99,-244 82.86,-233.18 72.94,-212.79 67.49,-197.72"/>
<polygon fill="midnightblue" stroke="midnightblue" points="70.72,-196.33 64.29,-187.91 64.06,-198.5 70.72,-196.33"/>
</g>
<!-- Node4 -->
<g id="node4" class="node">
<title>Node4</title>
<g id="a_node4"><a xlink:href="../../d9/ded/body__return_8h.html" target="_top" xlink:title=" ">
<polygon fill="white" stroke="black" points="108,-224.5 108,-243.5 182,-243.5 182,-224.5 108,-224.5"/>
<text text-anchor="middle" x="145" y="-231.5" font-family="Helvetica,sans-Serif" font-size="10.00">body_return.h</text>
</a>
</g>
</g>
<!-- Node2&#45;&gt;Node4 -->
<g id="edge3" class="edge">
<title>Node2&#45;&gt;Node4</title>
<path fill="none" stroke="midnightblue" d="M401.17,-280.5C344.03,-270.35 249.04,-253.48 192.19,-243.38"/>
<polygon fill="midnightblue" stroke="midnightblue" points="192.49,-239.88 182.04,-241.58 191.27,-246.77 192.49,-239.88"/>
</g>
<!-- Node2&#45;&gt;Node7 -->
<g id="edge27" class="edge">
<title>Node2&#45;&gt;Node7</title>
<path fill="none" stroke="midnightblue" d="M401.41,-286.58C314.81,-281.63 135.11,-268.67 78,-244 36.57,-226.11 0,-224.13 0,-179 0,-179 0,-179 0,-121 0,-42.6 281.44,-18.68 379.66,-12.72"/>
<polygon fill="midnightblue" stroke="midnightblue" points="380.13,-16.2 389.91,-12.12 379.72,-9.21 380.13,-16.2"/>
</g>
<!-- Node2&#45;&gt;Node10 -->
<g id="edge13" class="edge">
<title>Node2&#45;&gt;Node10</title>
<path fill="none" stroke="midnightblue" d="M455.27,-280.08C460.64,-272.46 468.52,-261.26 475.08,-251.94"/>
<polygon fill="midnightblue" stroke="midnightblue" points="477.95,-253.94 480.84,-243.75 472.22,-249.91 477.95,-253.94"/>
</g>
<!-- Node2&#45;&gt;Node12 -->
<g id="edge26" class="edge">
<title>Node2&#45;&gt;Node12</title>
<path fill="none" stroke="midnightblue" d="M473.95,-280.42C494.06,-272.77 522.44,-260.27 544,-244 562.08,-230.35 578.66,-210.2 589.21,-195.96"/>
<polygon fill="midnightblue" stroke="midnightblue" points="592.24,-197.75 595.24,-187.58 586.56,-193.66 592.24,-197.75"/>
</g>
<!-- Node4&#45;&gt;Node3 -->
<g id="edge4" class="edge">
<title>Node4&#45;&gt;Node3</title>
<path fill="none" stroke="midnightblue" d="M131.66,-224.32C118.84,-215.98 99.22,-203.21 84.06,-193.35"/>
<polygon fill="midnightblue" stroke="midnightblue" points="85.59,-190.17 75.3,-187.65 81.78,-196.04 85.59,-190.17"/>
</g>
<!-- Node5 -->
<g id="node5" class="node">
<title>Node5</title>
<g id="a_node5"><a xlink:href="../../dd/d20/event_8h.html" target="_top" xlink:title=" ">
<polygon fill="white" stroke="black" points="356.5,-112.5 356.5,-131.5 427.5,-131.5 427.5,-112.5 356.5,-112.5"/>
<text text-anchor="middle" x="392" y="-119.5" font-family="Helvetica,sans-Serif" font-size="10.00">../bdi/event.h</text>
</a>
</g>
</g>
<!-- Node4&#45;&gt;Node5 -->
<g id="edge5" class="edge">
<title>Node4&#45;&gt;Node5</title>
<path fill="none" stroke="midnightblue" d="M164.38,-224.37C207.67,-205.09 312.39,-158.45 363.28,-135.79"/>
<polygon fill="midnightblue" stroke="midnightblue" points="365,-138.86 372.71,-131.59 362.15,-132.46 365,-138.86"/>
</g>
<!-- Node4&#45;&gt;Node7 -->
<g id="edge12" class="edge">
<title>Node4&#45;&gt;Node7</title>
<path fill="none" stroke="midnightblue" d="M143.33,-224.12C138.46,-195.33 127.44,-103.67 174,-56 202.12,-27.21 320.89,-16.34 379.71,-12.67"/>
<polygon fill="midnightblue" stroke="midnightblue" points="380.19,-16.15 389.96,-12.07 379.77,-9.16 380.19,-16.15"/>
</g>
<!-- Node6 -->
<g id="node6" class="node">
<title>Node6</title>
<g id="a_node6"><a xlink:href="../../de/d93/statement_8h.html" target="_top" xlink:title=" ">
<polygon fill="white" stroke="black" points="474,-56.5 474,-75.5 580,-75.5 580,-56.5 474,-56.5"/>
<text text-anchor="middle" x="527" y="-63.5" font-family="Helvetica,sans-Serif" font-size="10.00">../syntax/statement.h</text>
</a>
</g>
</g>
<!-- Node5&#45;&gt;Node6 -->
<g id="edge6" class="edge">
<title>Node5&#45;&gt;Node6</title>
<path fill="none" stroke="midnightblue" d="M413.39,-112.44C435.71,-103.52 470.9,-89.44 496.21,-79.32"/>
<polygon fill="midnightblue" stroke="midnightblue" points="497.72,-82.48 505.71,-75.52 495.12,-75.98 497.72,-82.48"/>
</g>
<!-- Node5&#45;&gt;Node7 -->
<g id="edge11" class="edge">
<title>Node5&#45;&gt;Node7</title>
<path fill="none" stroke="midnightblue" d="M368.09,-112.38C341.3,-101.31 303.53,-80.55 319,-56 332.32,-34.85 358.63,-23.43 380.04,-17.39"/>
<polygon fill="midnightblue" stroke="midnightblue" points="380.94,-20.77 389.77,-14.9 379.21,-13.99 380.94,-20.77"/>
</g>
<!-- Node8 -->
<g id="node8" class="node">
<title>Node8</title>
<g id="a_node8"><a xlink:href="../../db/d50/event__operator_8h.html" target="_top" xlink:title=" ">
<polygon fill="white" stroke="black" points="328.5,-56.5 328.5,-75.5 455.5,-75.5 455.5,-56.5 328.5,-56.5"/>
<text text-anchor="middle" x="392" y="-63.5" font-family="Helvetica,sans-Serif" font-size="10.00">../syntax/event_operator.h</text>
</a>
</g>
</g>
<!-- Node5&#45;&gt;Node8 -->
<g id="edge8" class="edge">
<title>Node5&#45;&gt;Node8</title>
<path fill="none" stroke="midnightblue" d="M392,-112.08C392,-105.01 392,-94.86 392,-85.99"/>
<polygon fill="midnightblue" stroke="midnightblue" points="395.5,-85.75 392,-75.75 388.5,-85.75 395.5,-85.75"/>
</g>
<!-- Node9 -->
<g id="node9" class="node">
<title>Node9</title>
<g id="a_node9"><a xlink:href="../../df/dc3/event__id_8h.html" target="_top" xlink:title=" ">
<polygon fill="white" stroke="black" points="190.5,-56.5 190.5,-75.5 271.5,-75.5 271.5,-56.5 190.5,-56.5"/>
<text text-anchor="middle" x="231" y="-63.5" font-family="Helvetica,sans-Serif" font-size="10.00">../lib/event_id.h</text>
</a>
</g>
</g>
<!-- Node5&#45;&gt;Node9 -->
<g id="edge9" class="edge">
<title>Node5&#45;&gt;Node9</title>
<path fill="none" stroke="midnightblue" d="M366.49,-112.44C339.4,-103.36 296.41,-88.94 266.13,-78.78"/>
<polygon fill="midnightblue" stroke="midnightblue" points="266.99,-75.38 256.39,-75.52 264.76,-82.01 266.99,-75.38"/>
</g>
<!-- Node6&#45;&gt;Node7 -->
<g id="edge7" class="edge">
<title>Node6&#45;&gt;Node7</title>
<path fill="none" stroke="midnightblue" d="M508.94,-56.44C490.43,-47.68 461.42,-33.94 440.14,-23.86"/>
<polygon fill="midnightblue" stroke="midnightblue" points="441.51,-20.63 430.98,-19.52 438.52,-26.96 441.51,-20.63"/>
</g>
<!-- Node9&#45;&gt;Node7 -->
<g id="edge10" class="edge">
<title>Node9&#45;&gt;Node7</title>
<path fill="none" stroke="midnightblue" d="M259.84,-56.44C292.45,-46.77 345.46,-31.04 379.78,-20.86"/>
<polygon fill="midnightblue" stroke="midnightblue" points="381.19,-24.09 389.78,-17.89 379.2,-17.38 381.19,-24.09"/>
</g>
<!-- Node10&#45;&gt;Node5 -->
<g id="edge17" class="edge">
<title>Node10&#45;&gt;Node5</title>
<path fill="none" stroke="midnightblue" d="M479.55,-224.37C463.73,-206.05 426.59,-163.05 406.13,-139.36"/>
<polygon fill="midnightblue" stroke="midnightblue" points="408.6,-136.87 399.42,-131.59 403.31,-141.45 408.6,-136.87"/>
</g>
<!-- Node10&#45;&gt;Node7 -->
<g id="edge25" class="edge">
<title>Node10&#45;&gt;Node7</title>
<path fill="none" stroke="midnightblue" d="M439.28,-224.48C368.41,-208.97 237.65,-168.74 181,-76 176.37,-68.41 175.34,-62.86 181,-56 205.82,-25.9 321.78,-15.69 379.79,-12.43"/>
<polygon fill="midnightblue" stroke="midnightblue" points="380.1,-15.91 389.91,-11.89 379.74,-8.92 380.1,-15.91"/>
</g>
<!-- Node11 -->
<g id="node11" class="node">
<title>Node11</title>
<g id="a_node11"><a xlink:href="../../da/db8/belief_8h.html" target="_top" xlink:title=" ">
<polygon fill="white" stroke="black" points="503.5,-112.5 503.5,-131.5 550.5,-131.5 550.5,-112.5 503.5,-112.5"/>
<text text-anchor="middle" x="527" y="-119.5" font-family="Helvetica,sans-Serif" font-size="10.00">belief.h</text>
</a>
</g>
</g>
<!-- Node10&#45;&gt;Node11 -->
<g id="edge14" class="edge">
<title>Node10&#45;&gt;Node11</title>
<path fill="none" stroke="midnightblue" d="M490.14,-224.37C496.62,-206.54 511.62,-165.3 520.36,-141.27"/>
<polygon fill="midnightblue" stroke="midnightblue" points="523.75,-142.19 523.88,-131.59 517.17,-139.79 523.75,-142.19"/>
</g>
<!-- Node10&#45;&gt;Node12 -->
<g id="edge18" class="edge">
<title>Node10&#45;&gt;Node12</title>
<path fill="none" stroke="midnightblue" d="M505.06,-224.44C523.57,-215.68 552.58,-201.94 573.86,-191.86"/>
<polygon fill="midnightblue" stroke="midnightblue" points="575.48,-194.96 583.02,-187.52 572.49,-188.63 575.48,-194.96"/>
</g>
<!-- Node10&#45;&gt;Node13 -->
<g id="edge24" class="edge">
<title>Node10&#45;&gt;Node13</title>
<path fill="none" stroke="midnightblue" d="M493.99,-224.12C505.36,-210.24 529.19,-183.4 555,-168 581.67,-152.08 614.64,-141.1 641.77,-133.97"/>
<polygon fill="midnightblue" stroke="midnightblue" points="642.64,-137.36 651.48,-131.51 640.92,-130.57 642.64,-137.36"/>
</g>
<!-- Node11&#45;&gt;Node6 -->
<g id="edge15" class="edge">
<title>Node11&#45;&gt;Node6</title>
<path fill="none" stroke="midnightblue" d="M527,-112.08C527,-105.01 527,-94.86 527,-85.99"/>
<polygon fill="midnightblue" stroke="midnightblue" points="530.5,-85.75 527,-75.75 523.5,-85.75 530.5,-85.75"/>
</g>
<!-- Node11&#45;&gt;Node7 -->
<g id="edge16" class="edge">
<title>Node11&#45;&gt;Node7</title>
<path fill="none" stroke="midnightblue" d="M545.91,-112.48C569.81,-100.53 605.93,-77.8 589,-56 571.64,-33.64 492.08,-20.51 446.09,-14.66"/>
<polygon fill="midnightblue" stroke="midnightblue" points="446.35,-11.17 436,-13.43 445.5,-18.12 446.35,-11.17"/>
</g>
<!-- Node12&#45;&gt;Node5 -->
<g id="edge19" class="edge">
<title>Node12&#45;&gt;Node5</title>
<path fill="none" stroke="midnightblue" d="M567.88,-168.44C531.88,-159.14 474.23,-144.25 434.81,-134.06"/>
<polygon fill="midnightblue" stroke="midnightblue" points="435.52,-130.63 424.96,-131.52 433.77,-137.41 435.52,-130.63"/>
</g>
<!-- Node12&#45;&gt;Node7 -->
<g id="edge23" class="edge">
<title>Node12&#45;&gt;Node7</title>
<path fill="none" stroke="midnightblue" d="M604.84,-168.21C613.66,-146.48 632.66,-89.6 606,-56 586.38,-31.28 495.77,-18.88 445.99,-13.84"/>
<polygon fill="midnightblue" stroke="midnightblue" points="446.32,-10.35 436.03,-12.87 445.64,-17.32 446.32,-10.35"/>
</g>
<!-- Node12&#45;&gt;Node13 -->
<g id="edge20" class="edge">
<title>Node12&#45;&gt;Node13</title>
<path fill="none" stroke="midnightblue" d="M615.94,-168.32C630.59,-159.82 653.13,-146.73 670.24,-136.8"/>
<polygon fill="midnightblue" stroke="midnightblue" points="672.2,-139.7 679.1,-131.65 668.69,-133.65 672.2,-139.7"/>
</g>
<!-- Node13&#45;&gt;Node7 -->
<g id="edge22" class="edge">
<title>Node13&#45;&gt;Node7</title>
<path fill="none" stroke="midnightblue" d="M692.04,-112.23C688.38,-97.99 679.08,-70.04 660,-56 626.47,-31.32 505.44,-18.42 446.17,-13.46"/>
<polygon fill="midnightblue" stroke="midnightblue" points="446.45,-9.97 436.2,-12.65 445.88,-16.94 446.45,-9.97"/>
</g>
<!-- Node14 -->
<g id="node14" class="node">
<title>Node14</title>
<g id="a_node14"><a xlink:title=" ">
<polygon fill="white" stroke="#bfbfbf" points="712,-56.5 712,-75.5 756,-75.5 756,-56.5 712,-56.5"/>
<text text-anchor="middle" x="734" y="-63.5" font-family="Helvetica,sans-Serif" font-size="10.00">vector</text>
</a>
</g>
</g>
<!-- Node13&#45;&gt;Node14 -->
<g id="edge21" class="edge">
<title>Node13&#45;&gt;Node14</title>
<path fill="none" stroke="midnightblue" d="M700.61,-112.08C706.26,-104.46 714.54,-93.26 721.45,-83.94"/>
<polygon fill="midnightblue" stroke="midnightblue" points="724.38,-85.87 727.52,-75.75 718.75,-81.7 724.38,-85.87"/>
</g>
</g>
</svg>
        <g id="navigator" transform="translate(0 0)" fill="#404254">
                <rect fill="#f2f5e9" fill-opacity="0.5" stroke="#606060" stroke-width=".5" x="0" y="0" width="60" height="60"/>
                <use id="zoomplus" xlink:href="#zoomPlus" x="17" y="9" onmousedown="handleZoom(evt,'in')"/>
                <use id="zoomminus" xlink:href="#zoomMin" x="42" y="9" onmousedown="handleZoom(evt,'out')"/>
                <use id="reset" xlink:href="#resetDef" x="30" y="36" onmousedown="handleReset()"/>
                <g id="arrowUp" xlink:href="#dirArrow" transform="translate(30 24)" onmousedown="handlePan(0,-1)">
                  <use xlink:href="#rim" fill="#404040">
                        <set attributeName="fill" to="#808080" begin="arrowUp.mouseover" end="arrowUp.mouseout"/>
                  </use>
                  <path fill="none" stroke="white" stroke-width="1.5" d="M0,-3.0v7 M-2.5,-0.5L0,-3.0L2.5,-0.5"/>
                </g>
                <g id="arrowRight" xlink:href="#dirArrow" transform="rotate(90) translate(36 -43)" onmousedown="handlePan(1,0)">
                  <use xlink:href="#rim" fill="#404040">
                        <set attributeName="fill" to="#808080" begin="arrowRight.mouseover" end="arrowRight.mouseout"/>
                  </use>
                  <path fill="none" stroke="white" stroke-width="1.5" d="M0,-3.0v7 M-2.5,-0.5L0,-3.0L2.5,-0.5"/>
                </g>
                <g id="arrowDown" xlink:href="#dirArrow" transform="rotate(180) translate(-30 -48)" onmousedown="handlePan(0,1)">
                  <use xlink:href="#rim" fill="#404040">
                        <set attributeName="fill" to="#808080" begin="arrowDown.mouseover" end="arrowDown.mouseout"/>
                  </use>
                  <path fill="none" stroke="white" stroke-width="1.5" d="M0,-3.0v7 M-2.5,-0.5L0,-3.0L2.5,-0.5"/>
                </g>
                <g id="arrowLeft" xlink:href="#dirArrow" transform="rotate(270) translate(-36 17)" onmousedown="handlePan(-1,0)">
                  <use xlink:href="#rim" fill="#404040">
                        <set attributeName="fill" to="#808080" begin="arrowLeft.mouseover" end="arrowLeft.mouseout"/>
                  </use>
                  <path fill="none" stroke="white" stroke-width="1.5" d="M0,-3.0v7 M-2.5,-0.5L0,-3.0L2.5,-0.5"/>
                </g>
        </g>
        <svg viewBox="0 0 15 15" width="100%" height="30px" preserveAspectRatio="xMaxYMin meet">
         <g id="arrow_out" transform="scale(0.3 0.3)">
          <a xlink:href="body_8h__incl_org.svg" target="_base">
           <rect id="button" ry="5" rx="5" y="6" x="6" height="38" width="38"
                fill="#f2f5e9" fill-opacity="0.5" stroke="#606060" stroke-width="1.0"/>
           <path id="arrow"
             d="M 11.500037,31.436501 C 11.940474,20.09759 22.043105,11.32322 32.158766,21.979434 L 37.068811,17.246167 C 37.068811,17.246167 37.088388,32 37.088388,32 L 22.160133,31.978069 C 22.160133,31.978069 26.997745,27.140456 26.997745,27.140456 C 18.528582,18.264221 13.291696,25.230495 11.500037,31.436501 z"
             style="fill:#404040;"/>
          </a>
         </g>
        </svg>
</svg>
