<?xml version="1.0" encoding="UTF-8" standalone="no"?>
<!DOCTYPE svg PUBLIC "-//W3C//DTD SVG 1.1//EN"
 "http://www.w3.org/Graphics/SVG/1.1/DTD/svg11.dtd">
<!-- Generated by graphviz version 2.46.1 (20210215.1649)
 -->
<!-- Title: intention.cpp Pages: 1 -->
<!--zoomable 588 -->
<svg id="main" version="1.1" xmlns="http://www.w3.org/2000/svg" xmlns:xlink="http://www.w3.org/1999/xlink" xml:space="preserve" onload="init(evt)">
<style type="text/css"><![CDATA[
.edge:hover path { stroke: red; }
.edge:hover polygon { stroke: red; fill: red; }
]]></style>
<script type="text/javascript"><![CDATA[
var edges = document.getElementsByTagName('g');
if (edges && edges.length) {
  for (var i=0;i<edges.length;i++) {
    if (edges[i].id.substr(0,4)=='edge') {
      edges[i].setAttribute('class','edge');
    }
  }
}
]]></script>
        <defs>
                <circle id="rim" cx="0" cy="0" r="7"/>
                <circle id="rim2" cx="0" cy="0" r="3.5"/>
                <g id="zoomPlus">
                        <use xlink:href="#rim" fill="#404040">
                                <set attributeName="fill" to="#808080" begin="zoomplus.mouseover" end="zoomplus.mouseout"/>
                        </use>
                        <path d="M-4,0h8M0,-4v8" fill="none" stroke="white" stroke-width="1.5" pointer-events="none"/>
                </g>
                <g id="zoomMin">
                        <use xlink:href="#rim" fill="#404040">
                                <set attributeName="fill" to="#808080" begin="zoomminus.mouseover" end="zoomminus.mouseout"/>
                        </use>
                        <path d="M-4,0h8" fill="none" stroke="white" stroke-width="1.5" pointer-events="none"/>
                </g>
                <g id="dirArrow">
                        <path fill="none" stroke="white" stroke-width="1.5" d="M0,-3.0v7 M-2.5,-0.5L0,-3.0L2.5,-0.5"/>
                </g>
               <g id="resetDef">
                       <use xlink:href="#rim2" fill="#404040">
                               <set attributeName="fill" to="#808080" begin="reset.mouseover" end="reset.mouseout"/>
                       </use>
               </g>
        </defs>

<script type="text/javascript">
var viewWidth = 1014;
var viewHeight = 588;
var sectionId = 'dynsection-0';
</script>
<script xlink:href="../../svgpan.js"/>
<svg id="graph" class="graph">
<g id="viewport">
<title>intention.cpp</title>
<polygon fill="white" stroke="transparent" points="-4,4 -4,-584 1010,-584 1010,4 -4,4"/>
<!-- Node1 -->
<g id="node1" class="node">
<title>Node1</title>
<g id="a_node1"><a xlink:title=" ">
<polygon fill="#bfbfbf" stroke="black" points="329.5,-560.5 329.5,-579.5 400.5,-579.5 400.5,-560.5 329.5,-560.5"/>
<text text-anchor="middle" x="365" y="-567.5" font-family="Helvetica,sans-Serif" font-size="10.00">intention.cpp</text>
</a>
</g>
</g>
<!-- Node2 -->
<g id="node2" class="node">
<title>Node2</title>
<g id="a_node2"><a xlink:href="../../df/d3f/intention_8h.html" target="_top" xlink:title=" ">
<polygon fill="white" stroke="black" points="334.5,-504.5 334.5,-523.5 395.5,-523.5 395.5,-504.5 334.5,-504.5"/>
<text text-anchor="middle" x="365" y="-511.5" font-family="Helvetica,sans-Serif" font-size="10.00">intention.h</text>
</a>
</g>
</g>
<!-- Node1&#45;&gt;Node2 -->
<g id="edge1" class="edge">
<title>Node1&#45;&gt;Node2</title>
<path fill="none" stroke="midnightblue" d="M365,-560.08C365,-553.01 365,-542.86 365,-533.99"/>
<polygon fill="midnightblue" stroke="midnightblue" points="368.5,-533.75 365,-523.75 361.5,-533.75 368.5,-533.75"/>
</g>
<!-- Node3 -->
<g id="node3" class="node">
<title>Node3</title>
<g id="a_node3"><a xlink:href="../../de/d75/plan__base_8h.html" target="_top" xlink:title=" ">
<polygon fill="white" stroke="black" points="201,-448.5 201,-467.5 269,-467.5 269,-448.5 201,-448.5"/>
<text text-anchor="middle" x="235" y="-455.5" font-family="Helvetica,sans-Serif" font-size="10.00">plan_base.h</text>
</a>
</g>
</g>
<!-- Node2&#45;&gt;Node3 -->
<g id="edge2" class="edge">
<title>Node2&#45;&gt;Node3</title>
<path fill="none" stroke="midnightblue" d="M344.4,-504.44C323.01,-495.56 289.32,-481.56 264.98,-471.45"/>
<polygon fill="midnightblue" stroke="midnightblue" points="266.08,-468.12 255.5,-467.52 263.39,-474.58 266.08,-468.12"/>
</g>
<!-- Node4 -->
<g id="node4" class="node">
<title>Node4</title>
<g id="a_node4"><a xlink:href="../../d2/d2f/belief__base_8h.html" target="_top" xlink:title=" ">
<polygon fill="white" stroke="black" points="396,-224.5 396,-243.5 470,-243.5 470,-224.5 396,-224.5"/>
<text text-anchor="middle" x="433" y="-231.5" font-family="Helvetica,sans-Serif" font-size="10.00">belief_base.h</text>
</a>
</g>
</g>
<!-- Node2&#45;&gt;Node4 -->
<g id="edge49" class="edge">
<title>Node2&#45;&gt;Node4</title>
<path fill="none" stroke="midnightblue" d="M380.64,-504.41C393.67,-496.52 411.84,-483.68 423,-468 440.69,-443.15 445,-433.5 445,-403 445,-403 445,-403 445,-345 445,-312.76 439.84,-275.51 436.29,-253.68"/>
<polygon fill="midnightblue" stroke="midnightblue" points="439.69,-252.8 434.57,-243.52 432.79,-253.97 439.69,-252.8"/>
</g>
<!-- Node7 -->
<g id="node7" class="node">
<title>Node7</title>
<g id="a_node7"><a xlink:title=" ">
<polygon fill="white" stroke="#bfbfbf" points="618,-0.5 618,-19.5 664,-19.5 664,-0.5 618,-0.5"/>
<text text-anchor="middle" x="641" y="-7.5" font-family="Helvetica,sans-Serif" font-size="10.00">cstdint</text>
</a>
</g>
</g>
<!-- Node2&#45;&gt;Node7 -->
<g id="edge54" class="edge">
<title>Node2&#45;&gt;Node7</title>
<path fill="none" stroke="midnightblue" d="M395.92,-511.01C523.96,-502.37 1006,-465.67 1006,-403 1006,-403 1006,-403 1006,-121 1006,-79.83 976.83,-74.41 940,-56 893.87,-32.94 742.41,-18.77 674.48,-13.43"/>
<polygon fill="midnightblue" stroke="midnightblue" points="674.57,-9.92 664.33,-12.64 674.03,-16.9 674.57,-9.92"/>
</g>
<!-- Node12 -->
<g id="node12" class="node">
<title>Node12</title>
<g id="a_node12"><a xlink:href="../../d0/d81/vector__queue_8h.html" target="_top" xlink:title=" ">
<polygon fill="white" stroke="black" points="50.5,-112.5 50.5,-131.5 153.5,-131.5 153.5,-112.5 50.5,-112.5"/>
<text text-anchor="middle" x="102" y="-119.5" font-family="Helvetica,sans-Serif" font-size="10.00">../lib/vector_queue.h</text>
</a>
</g>
</g>
<!-- Node2&#45;&gt;Node12 -->
<g id="edge53" class="edge">
<title>Node2&#45;&gt;Node12</title>
<path fill="none" stroke="midnightblue" d="M334.32,-513.73C264.94,-513.61 102,-502.73 102,-403 102,-403 102,-403 102,-233 102,-200.95 102,-163.64 102,-141.75"/>
<polygon fill="midnightblue" stroke="midnightblue" points="105.5,-141.56 102,-131.56 98.5,-141.56 105.5,-141.56"/>
</g>
<!-- Node21 -->
<g id="node21" class="node">
<title>Node21</title>
<g id="a_node21"><a xlink:href="../../de/d3c/instantiated__plan_8h.html" target="_top" xlink:title=" ">
<polygon fill="white" stroke="black" points="316,-448.5 316,-467.5 414,-467.5 414,-448.5 316,-448.5"/>
<text text-anchor="middle" x="365" y="-455.5" font-family="Helvetica,sans-Serif" font-size="10.00">instantiated_plan.h</text>
</a>
</g>
</g>
<!-- Node2&#45;&gt;Node21 -->
<g id="edge50" class="edge">
<title>Node2&#45;&gt;Node21</title>
<path fill="none" stroke="midnightblue" d="M365,-504.08C365,-497.01 365,-486.86 365,-477.99"/>
<polygon fill="midnightblue" stroke="midnightblue" points="368.5,-477.75 365,-467.75 361.5,-477.75 368.5,-477.75"/>
</g>
<!-- Node3&#45;&gt;Node4 -->
<g id="edge3" class="edge">
<title>Node3&#45;&gt;Node4</title>
<path fill="none" stroke="midnightblue" d="M240.72,-448.41C254.43,-428.06 290.67,-375.63 326,-336 350.06,-309.01 358.7,-304.81 385,-280 395.41,-270.18 407.13,-259.19 416.38,-250.53"/>
<polygon fill="midnightblue" stroke="midnightblue" points="418.87,-253 423.78,-243.61 414.09,-247.89 418.87,-253"/>
</g>
<!-- Node3&#45;&gt;Node7 -->
<g id="edge48" class="edge">
<title>Node3&#45;&gt;Node7</title>
<path fill="none" stroke="midnightblue" d="M200.83,-456.17C135.65,-452.59 0,-434.62 0,-347 0,-347 0,-347 0,-121 0,-85.09 16.57,-73.38 48,-56 97.06,-28.86 489.81,-15.38 607.67,-11.92"/>
<polygon fill="midnightblue" stroke="midnightblue" points="608,-15.41 617.89,-11.62 607.79,-8.41 608,-15.41"/>
</g>
<!-- Node8 -->
<g id="node8" class="node">
<title>Node8</title>
<g id="a_node8"><a xlink:href="../../dd/d20/event_8h.html" target="_top" xlink:title=" ">
<polygon fill="white" stroke="black" points="300,-112.5 300,-131.5 348,-131.5 348,-112.5 300,-112.5"/>
<text text-anchor="middle" x="324" y="-119.5" font-family="Helvetica,sans-Serif" font-size="10.00">event.h</text>
</a>
</g>
</g>
<!-- Node3&#45;&gt;Node8 -->
<g id="edge22" class="edge">
<title>Node3&#45;&gt;Node8</title>
<path fill="none" stroke="midnightblue" d="M232.44,-448.25C227.25,-429.74 216,-385.18 216,-347 216,-347 216,-347 216,-233 216,-202.9 215.76,-191.15 235,-168 249.17,-150.96 271.42,-139.71 290.12,-132.72"/>
<polygon fill="midnightblue" stroke="midnightblue" points="291.5,-135.94 299.8,-129.35 289.2,-129.33 291.5,-135.94"/>
</g>
<!-- Node3&#45;&gt;Node12 -->
<g id="edge47" class="edge">
<title>Node3&#45;&gt;Node12</title>
<path fill="none" stroke="midnightblue" d="M219.31,-448.4C192.33,-432.31 140,-394.94 140,-347 140,-347 140,-347 140,-233 140,-198.81 123.4,-161.76 112.14,-140.57"/>
<polygon fill="midnightblue" stroke="midnightblue" points="115.18,-138.83 107.28,-131.77 109.05,-142.22 115.18,-138.83"/>
</g>
<!-- Node14 -->
<g id="node14" class="node">
<title>Node14</title>
<g id="a_node14"><a xlink:href="../../d9/d4e/plan_8h.html" target="_top" xlink:title=" ">
<polygon fill="white" stroke="black" points="322,-392.5 322,-411.5 402,-411.5 402,-392.5 322,-392.5"/>
<text text-anchor="middle" x="362" y="-399.5" font-family="Helvetica,sans-Serif" font-size="10.00">../syntax/plan.h</text>
</a>
</g>
</g>
<!-- Node3&#45;&gt;Node14 -->
<g id="edge23" class="edge">
<title>Node3&#45;&gt;Node14</title>
<path fill="none" stroke="midnightblue" d="M255.12,-448.44C276.02,-439.56 308.93,-425.56 332.72,-415.45"/>
<polygon fill="midnightblue" stroke="midnightblue" points="334.14,-418.65 341.97,-411.52 331.4,-412.21 334.14,-418.65"/>
</g>
<!-- Node5 -->
<g id="node5" class="node">
<title>Node5</title>
<g id="a_node5"><a xlink:href="../../da/db8/belief_8h.html" target="_top" xlink:title=" ">
<polygon fill="white" stroke="black" points="479.5,-112.5 479.5,-131.5 526.5,-131.5 526.5,-112.5 479.5,-112.5"/>
<text text-anchor="middle" x="503" y="-119.5" font-family="Helvetica,sans-Serif" font-size="10.00">belief.h</text>
</a>
</g>
</g>
<!-- Node4&#45;&gt;Node5 -->
<g id="edge4" class="edge">
<title>Node4&#45;&gt;Node5</title>
<path fill="none" stroke="midnightblue" d="M438.49,-224.37C449.99,-206.3 476.8,-164.18 491.99,-140.31"/>
<polygon fill="midnightblue" stroke="midnightblue" points="495.12,-141.91 497.53,-131.59 489.21,-138.15 495.12,-141.91"/>
</g>
<!-- Node4&#45;&gt;Node7 -->
<g id="edge21" class="edge">
<title>Node4&#45;&gt;Node7</title>
<path fill="none" stroke="midnightblue" d="M443.16,-224.25C453.41,-215.34 469.59,-201.01 483,-188 532.4,-140.05 544.92,-128.03 590,-76 603.74,-60.15 618.42,-41.19 628.49,-27.85"/>
<polygon fill="midnightblue" stroke="midnightblue" points="631.46,-29.73 634.65,-19.63 625.86,-25.53 631.46,-29.73"/>
</g>
<!-- Node4&#45;&gt;Node8 -->
<g id="edge8" class="edge">
<title>Node4&#45;&gt;Node8</title>
<path fill="none" stroke="midnightblue" d="M424.45,-224.37C406.14,-205.89 362.94,-162.29 339.6,-138.74"/>
<polygon fill="midnightblue" stroke="midnightblue" points="342.04,-136.23 332.51,-131.59 337.07,-141.16 342.04,-136.23"/>
</g>
<!-- Node11 -->
<g id="node11" class="node">
<title>Node11</title>
<g id="a_node11"><a xlink:href="../../d7/dc4/event__base_8h.html" target="_top" xlink:title=" ">
<polygon fill="white" stroke="black" points="244,-168.5 244,-187.5 318,-187.5 318,-168.5 244,-168.5"/>
<text text-anchor="middle" x="281" y="-175.5" font-family="Helvetica,sans-Serif" font-size="10.00">event_base.h</text>
</a>
</g>
</g>
<!-- Node4&#45;&gt;Node11 -->
<g id="edge14" class="edge">
<title>Node4&#45;&gt;Node11</title>
<path fill="none" stroke="midnightblue" d="M408.92,-224.44C383.46,-215.4 343.11,-201.06 314.54,-190.92"/>
<polygon fill="midnightblue" stroke="midnightblue" points="315.57,-187.57 304.97,-187.52 313.22,-194.16 315.57,-187.57"/>
</g>
<!-- Node4&#45;&gt;Node12 -->
<g id="edge20" class="edge">
<title>Node4&#45;&gt;Node12</title>
<path fill="none" stroke="midnightblue" d="M420.05,-224.26C396.27,-208.35 346.29,-175.57 327,-168 274.08,-147.24 210.24,-135.65 164.1,-129.44"/>
<polygon fill="midnightblue" stroke="midnightblue" points="164.32,-125.94 153.95,-128.13 163.42,-132.88 164.32,-125.94"/>
</g>
<!-- Node6 -->
<g id="node6" class="node">
<title>Node6</title>
<g id="a_node6"><a xlink:href="../../de/d93/statement_8h.html" target="_top" xlink:title=" ">
<polygon fill="white" stroke="black" points="450,-56.5 450,-75.5 556,-75.5 556,-56.5 450,-56.5"/>
<text text-anchor="middle" x="503" y="-63.5" font-family="Helvetica,sans-Serif" font-size="10.00">../syntax/statement.h</text>
</a>
</g>
</g>
<!-- Node5&#45;&gt;Node6 -->
<g id="edge5" class="edge">
<title>Node5&#45;&gt;Node6</title>
<path fill="none" stroke="midnightblue" d="M503,-112.08C503,-105.01 503,-94.86 503,-85.99"/>
<polygon fill="midnightblue" stroke="midnightblue" points="506.5,-85.75 503,-75.75 499.5,-85.75 506.5,-85.75"/>
</g>
<!-- Node5&#45;&gt;Node7 -->
<g id="edge7" class="edge">
<title>Node5&#45;&gt;Node7</title>
<path fill="none" stroke="midnightblue" d="M515.57,-112.32C528.25,-103.46 548.29,-89.18 565,-76 585.71,-59.67 608.59,-39.84 623.79,-26.41"/>
<polygon fill="midnightblue" stroke="midnightblue" points="626.22,-28.93 631.37,-19.67 621.57,-23.69 626.22,-28.93"/>
</g>
<!-- Node6&#45;&gt;Node7 -->
<g id="edge6" class="edge">
<title>Node6&#45;&gt;Node7</title>
<path fill="none" stroke="midnightblue" d="M524.87,-56.44C547.78,-47.48 583.98,-33.31 609.87,-23.18"/>
<polygon fill="midnightblue" stroke="midnightblue" points="611.2,-26.42 619.24,-19.52 608.65,-19.9 611.2,-26.42"/>
</g>
<!-- Node8&#45;&gt;Node6 -->
<g id="edge9" class="edge">
<title>Node8&#45;&gt;Node6</title>
<path fill="none" stroke="midnightblue" d="M348.14,-113.72C378.02,-104.7 429.26,-89.24 464.57,-78.59"/>
<polygon fill="midnightblue" stroke="midnightblue" points="465.96,-81.83 474.53,-75.59 463.94,-75.13 465.96,-81.83"/>
</g>
<!-- Node8&#45;&gt;Node7 -->
<g id="edge13" class="edge">
<title>Node8&#45;&gt;Node7</title>
<path fill="none" stroke="midnightblue" d="M314.41,-112.08C301.08,-98.62 280.16,-72.9 295,-56 315.49,-32.67 525.06,-17.85 607.73,-12.87"/>
<polygon fill="midnightblue" stroke="midnightblue" points="608.07,-16.35 617.84,-12.27 607.65,-9.37 608.07,-16.35"/>
</g>
<!-- Node9 -->
<g id="node9" class="node">
<title>Node9</title>
<g id="a_node9"><a xlink:href="../../db/d50/event__operator_8h.html" target="_top" xlink:title=" ">
<polygon fill="white" stroke="black" points="304.5,-56.5 304.5,-75.5 431.5,-75.5 431.5,-56.5 304.5,-56.5"/>
<text text-anchor="middle" x="368" y="-63.5" font-family="Helvetica,sans-Serif" font-size="10.00">../syntax/event_operator.h</text>
</a>
</g>
</g>
<!-- Node8&#45;&gt;Node9 -->
<g id="edge10" class="edge">
<title>Node8&#45;&gt;Node9</title>
<path fill="none" stroke="midnightblue" d="M331.27,-112.08C337.54,-104.38 346.79,-93.03 354.43,-83.65"/>
<polygon fill="midnightblue" stroke="midnightblue" points="357.27,-85.71 360.87,-75.75 351.84,-81.29 357.27,-85.71"/>
</g>
<!-- Node10 -->
<g id="node10" class="node">
<title>Node10</title>
<g id="a_node10"><a xlink:href="../../df/dc3/event__id_8h.html" target="_top" xlink:title=" ">
<polygon fill="white" stroke="black" points="166.5,-56.5 166.5,-75.5 247.5,-75.5 247.5,-56.5 166.5,-56.5"/>
<text text-anchor="middle" x="207" y="-63.5" font-family="Helvetica,sans-Serif" font-size="10.00">../lib/event_id.h</text>
</a>
</g>
</g>
<!-- Node8&#45;&gt;Node10 -->
<g id="edge11" class="edge">
<title>Node8&#45;&gt;Node10</title>
<path fill="none" stroke="midnightblue" d="M305.46,-112.44C286.38,-103.64 256.43,-89.81 234.56,-79.72"/>
<polygon fill="midnightblue" stroke="midnightblue" points="236,-76.53 225.45,-75.52 233.07,-82.88 236,-76.53"/>
</g>
<!-- Node10&#45;&gt;Node7 -->
<g id="edge12" class="edge">
<title>Node10&#45;&gt;Node7</title>
<path fill="none" stroke="midnightblue" d="M247.52,-58.16C252.39,-57.4 257.31,-56.66 262,-56 389.41,-38.02 541.6,-21.42 607.67,-14.46"/>
<polygon fill="midnightblue" stroke="midnightblue" points="608.3,-17.91 617.88,-13.39 607.57,-10.95 608.3,-17.91"/>
</g>
<!-- Node11&#45;&gt;Node7 -->
<g id="edge19" class="edge">
<title>Node11&#45;&gt;Node7</title>
<path fill="none" stroke="midnightblue" d="M259.64,-168.4C214.46,-149.06 116.58,-100.35 157,-56 187.3,-22.75 502.84,-13.67 607.49,-11.56"/>
<polygon fill="midnightblue" stroke="midnightblue" points="607.85,-15.06 617.78,-11.37 607.72,-8.06 607.85,-15.06"/>
</g>
<!-- Node11&#45;&gt;Node8 -->
<g id="edge15" class="edge">
<title>Node11&#45;&gt;Node8</title>
<path fill="none" stroke="midnightblue" d="M288.1,-168.08C294.24,-160.38 303.27,-149.03 310.74,-139.65"/>
<polygon fill="midnightblue" stroke="midnightblue" points="313.54,-141.75 317.03,-131.75 308.06,-137.39 313.54,-141.75"/>
</g>
<!-- Node11&#45;&gt;Node12 -->
<g id="edge16" class="edge">
<title>Node11&#45;&gt;Node12</title>
<path fill="none" stroke="midnightblue" d="M252.64,-168.44C222.26,-159.28 173.89,-144.69 140.18,-134.52"/>
<polygon fill="midnightblue" stroke="midnightblue" points="140.82,-131.05 130.23,-131.52 138.79,-137.76 140.82,-131.05"/>
</g>
<!-- Node12&#45;&gt;Node7 -->
<g id="edge18" class="edge">
<title>Node12&#45;&gt;Node7</title>
<path fill="none" stroke="midnightblue" d="M88.64,-112.44C69.93,-99.45 40.03,-74.33 57,-56 94.52,-15.48 488.83,-11.32 607.44,-11"/>
<polygon fill="midnightblue" stroke="midnightblue" points="607.73,-14.5 617.72,-10.97 607.71,-7.5 607.73,-14.5"/>
</g>
<!-- Node13 -->
<g id="node13" class="node">
<title>Node13</title>
<g id="a_node13"><a xlink:title=" ">
<polygon fill="white" stroke="#bfbfbf" points="66,-56.5 66,-75.5 110,-75.5 110,-56.5 66,-56.5"/>
<text text-anchor="middle" x="88" y="-63.5" font-family="Helvetica,sans-Serif" font-size="10.00">vector</text>
</a>
</g>
</g>
<!-- Node12&#45;&gt;Node13 -->
<g id="edge17" class="edge">
<title>Node12&#45;&gt;Node13</title>
<path fill="none" stroke="midnightblue" d="M99.69,-112.08C97.83,-104.93 95.16,-94.64 92.85,-85.69"/>
<polygon fill="midnightblue" stroke="midnightblue" points="96.17,-84.55 90.27,-75.75 89.39,-86.31 96.17,-84.55"/>
</g>
<!-- Node14&#45;&gt;Node7 -->
<g id="edge46" class="edge">
<title>Node14&#45;&gt;Node7</title>
<path fill="none" stroke="midnightblue" d="M402.39,-401.76C532.16,-403.14 930,-398.6 930,-291 930,-291 930,-291 930,-121 930,-84.82 911.75,-75.07 881,-56 846.83,-34.81 731.52,-20.31 674.08,-14.23"/>
<polygon fill="midnightblue" stroke="midnightblue" points="674.37,-10.74 664.07,-13.19 673.65,-17.7 674.37,-10.74"/>
</g>
<!-- Node14&#45;&gt;Node11 -->
<g id="edge24" class="edge">
<title>Node14&#45;&gt;Node11</title>
<path fill="none" stroke="midnightblue" d="M353.31,-392.49C345.11,-383.98 333.04,-370.15 326,-356 299.21,-302.17 287.41,-230.96 283.1,-197.66"/>
<polygon fill="midnightblue" stroke="midnightblue" points="286.56,-197.06 281.88,-187.56 279.61,-197.9 286.56,-197.06"/>
</g>
<!-- Node15 -->
<g id="node15" class="node">
<title>Node15</title>
<g id="a_node15"><a xlink:href="../../d0/d77/body_8h.html" target="_top" xlink:title=" ">
<polygon fill="white" stroke="black" points="335,-336.5 335,-355.5 379,-355.5 379,-336.5 335,-336.5"/>
<text text-anchor="middle" x="357" y="-343.5" font-family="Helvetica,sans-Serif" font-size="10.00">body.h</text>
</a>
</g>
</g>
<!-- Node14&#45;&gt;Node15 -->
<g id="edge25" class="edge">
<title>Node14&#45;&gt;Node15</title>
<path fill="none" stroke="midnightblue" d="M361.17,-392.08C360.52,-385.01 359.58,-374.86 358.76,-365.99"/>
<polygon fill="midnightblue" stroke="midnightblue" points="362.22,-365.39 357.81,-355.75 355.25,-366.03 362.22,-365.39"/>
</g>
<!-- Node19 -->
<g id="node19" class="node">
<title>Node19</title>
<g id="a_node19"><a xlink:href="../../dc/d1e/context_8h.html" target="_top" xlink:title=" ">
<polygon fill="white" stroke="black" points="764,-280.5 764,-299.5 820,-299.5 820,-280.5 764,-280.5"/>
<text text-anchor="middle" x="792" y="-287.5" font-family="Helvetica,sans-Serif" font-size="10.00">context.h</text>
</a>
</g>
</g>
<!-- Node14&#45;&gt;Node19 -->
<g id="edge39" class="edge">
<title>Node14&#45;&gt;Node19</title>
<path fill="none" stroke="midnightblue" d="M395.38,-392.46C474.09,-372.33 670.87,-321.99 753.99,-300.72"/>
<polygon fill="midnightblue" stroke="midnightblue" points="754.96,-304.09 763.78,-298.22 753.23,-297.31 754.96,-304.09"/>
</g>
<!-- Node15&#45;&gt;Node4 -->
<g id="edge35" class="edge">
<title>Node15&#45;&gt;Node4</title>
<path fill="none" stroke="midnightblue" d="M362.96,-336.37C375.51,-318.22 404.81,-275.8 421.26,-251.99"/>
<polygon fill="midnightblue" stroke="midnightblue" points="424.26,-253.81 427.06,-243.59 418.5,-249.83 424.26,-253.81"/>
</g>
<!-- Node15&#45;&gt;Node7 -->
<g id="edge38" class="edge">
<title>Node15&#45;&gt;Node7</title>
<path fill="none" stroke="midnightblue" d="M379.01,-343.43C459.9,-337.06 736,-309.85 736,-235 736,-235 736,-235 736,-121 736,-77.74 693.39,-43.09 665.25,-24.91"/>
<polygon fill="midnightblue" stroke="midnightblue" points="667.03,-21.9 656.69,-19.6 663.34,-27.85 667.03,-21.9"/>
</g>
<!-- Node15&#45;&gt;Node11 -->
<g id="edge36" class="edge">
<title>Node15&#45;&gt;Node11</title>
<path fill="none" stroke="midnightblue" d="M353.73,-336.35C346.06,-316.3 326.05,-265.2 306,-224 301.5,-214.76 296,-204.74 291.3,-196.51"/>
<polygon fill="midnightblue" stroke="midnightblue" points="294.31,-194.71 286.27,-187.81 288.25,-198.22 294.31,-194.71"/>
</g>
<!-- Node15&#45;&gt;Node12 -->
<g id="edge37" class="edge">
<title>Node15&#45;&gt;Node12</title>
<path fill="none" stroke="midnightblue" d="M346.87,-336.15C317.24,-310.25 228.13,-232.39 154,-168 142.59,-158.09 129.75,-146.98 119.69,-138.28"/>
<polygon fill="midnightblue" stroke="midnightblue" points="121.83,-135.51 111.98,-131.62 117.26,-140.8 121.83,-135.51"/>
</g>
<!-- Node16 -->
<g id="node16" class="node">
<title>Node16</title>
<g id="a_node16"><a xlink:href="../../d8/d67/body__instruction_8h.html" target="_top" xlink:title=" ">
<polygon fill="white" stroke="black" points="476.5,-280.5 476.5,-299.5 571.5,-299.5 571.5,-280.5 476.5,-280.5"/>
<text text-anchor="middle" x="524" y="-287.5" font-family="Helvetica,sans-Serif" font-size="10.00">body_instruction.h</text>
</a>
</g>
</g>
<!-- Node15&#45;&gt;Node16 -->
<g id="edge26" class="edge">
<title>Node15&#45;&gt;Node16</title>
<path fill="none" stroke="midnightblue" d="M379.18,-337.83C406.92,-328.86 454.78,-313.38 487.85,-302.69"/>
<polygon fill="midnightblue" stroke="midnightblue" points="489.16,-305.94 497.6,-299.54 487.01,-299.28 489.16,-305.94"/>
</g>
<!-- Node16&#45;&gt;Node4 -->
<g id="edge32" class="edge">
<title>Node16&#45;&gt;Node4</title>
<path fill="none" stroke="midnightblue" d="M509.38,-280.32C495.05,-271.82 472.99,-258.73 456.25,-248.8"/>
<polygon fill="midnightblue" stroke="midnightblue" points="457.97,-245.75 447.58,-243.65 454.4,-251.77 457.97,-245.75"/>
</g>
<!-- Node16&#45;&gt;Node7 -->
<g id="edge34" class="edge">
<title>Node16&#45;&gt;Node7</title>
<path fill="none" stroke="midnightblue" d="M570.63,-280.45C622.17,-267.99 698,-239.4 698,-179 698,-179 698,-179 698,-121 698,-84.3 672.68,-47.66 655.79,-27.3"/>
<polygon fill="midnightblue" stroke="midnightblue" points="658.35,-24.9 649.17,-19.62 653.05,-29.48 658.35,-24.9"/>
</g>
<!-- Node16&#45;&gt;Node11 -->
<g id="edge33" class="edge">
<title>Node16&#45;&gt;Node11</title>
<path fill="none" stroke="midnightblue" d="M490.79,-280.44C462.53,-272.6 421.19,-259.83 387,-244 355.6,-229.46 321.97,-207.65 301.21,-193.37"/>
<polygon fill="midnightblue" stroke="midnightblue" points="303.09,-190.41 292.88,-187.57 299.09,-196.16 303.09,-190.41"/>
</g>
<!-- Node17 -->
<g id="node17" class="node">
<title>Node17</title>
<g id="a_node17"><a xlink:href="../../d0/d96/body__type_8h.html" target="_top" xlink:title=" ">
<polygon fill="white" stroke="black" points="564,-168.5 564,-187.5 632,-187.5 632,-168.5 564,-168.5"/>
<text text-anchor="middle" x="598" y="-175.5" font-family="Helvetica,sans-Serif" font-size="10.00">body_type.h</text>
</a>
</g>
</g>
<!-- Node16&#45;&gt;Node17 -->
<g id="edge27" class="edge">
<title>Node16&#45;&gt;Node17</title>
<path fill="none" stroke="midnightblue" d="M536.37,-280.26C547.29,-272 562.99,-258.7 573,-244 582.77,-229.65 589.44,-210.94 593.42,-197.28"/>
<polygon fill="midnightblue" stroke="midnightblue" points="596.81,-198.16 596.04,-187.59 590.06,-196.33 596.81,-198.16"/>
</g>
<!-- Node18 -->
<g id="node18" class="node">
<title>Node18</title>
<g id="a_node18"><a xlink:href="../../d9/ded/body__return_8h.html" target="_top" xlink:title=" ">
<polygon fill="white" stroke="black" points="490,-224.5 490,-243.5 564,-243.5 564,-224.5 490,-224.5"/>
<text text-anchor="middle" x="527" y="-231.5" font-family="Helvetica,sans-Serif" font-size="10.00">body_return.h</text>
</a>
</g>
</g>
<!-- Node16&#45;&gt;Node18 -->
<g id="edge28" class="edge">
<title>Node16&#45;&gt;Node18</title>
<path fill="none" stroke="midnightblue" d="M524.5,-280.08C524.89,-273.01 525.45,-262.86 525.95,-253.99"/>
<polygon fill="midnightblue" stroke="midnightblue" points="529.45,-253.93 526.51,-243.75 522.46,-253.54 529.45,-253.93"/>
</g>
<!-- Node18&#45;&gt;Node7 -->
<g id="edge31" class="edge">
<title>Node18&#45;&gt;Node7</title>
<path fill="none" stroke="midnightblue" d="M529.2,-224.25C532.85,-211.01 541.17,-185.57 555,-168 571.5,-147.05 585.22,-151.87 603,-132 622.26,-110.47 627.33,-103.56 636,-76 640.73,-60.97 641.79,-43.06 641.78,-29.85"/>
<polygon fill="midnightblue" stroke="midnightblue" points="645.27,-29.57 641.56,-19.65 638.27,-29.72 645.27,-29.57"/>
</g>
<!-- Node18&#45;&gt;Node8 -->
<g id="edge30" class="edge">
<title>Node18&#45;&gt;Node8</title>
<path fill="none" stroke="midnightblue" d="M511.07,-224.37C475.79,-205.25 390.86,-159.23 348.66,-136.36"/>
<polygon fill="midnightblue" stroke="midnightblue" points="350.31,-133.28 339.86,-131.59 346.98,-139.43 350.31,-133.28"/>
</g>
<!-- Node18&#45;&gt;Node17 -->
<g id="edge29" class="edge">
<title>Node18&#45;&gt;Node17</title>
<path fill="none" stroke="midnightblue" d="M538.41,-224.32C549.11,-216.18 565.34,-203.84 578.16,-194.09"/>
<polygon fill="midnightblue" stroke="midnightblue" points="580.54,-196.67 586.39,-187.83 576.31,-191.1 580.54,-196.67"/>
</g>
<!-- Node19&#45;&gt;Node4 -->
<g id="edge43" class="edge">
<title>Node19&#45;&gt;Node4</title>
<path fill="none" stroke="midnightblue" d="M763.64,-285.3C708.89,-278.06 584.87,-261.24 481,-244 480.78,-243.96 480.56,-243.93 480.34,-243.89"/>
<polygon fill="midnightblue" stroke="midnightblue" points="480.63,-240.39 470.18,-242.13 479.44,-247.29 480.63,-240.39"/>
</g>
<!-- Node19&#45;&gt;Node7 -->
<g id="edge45" class="edge">
<title>Node19&#45;&gt;Node7</title>
<path fill="none" stroke="midnightblue" d="M808.96,-280.36C837.49,-264.49 892,-227.78 892,-179 892,-179 892,-179 892,-121 892,-27.06 742.7,-12.59 674.4,-10.89"/>
<polygon fill="midnightblue" stroke="midnightblue" points="674.22,-7.38 664.16,-10.71 674.1,-14.38 674.22,-7.38"/>
</g>
<!-- Node19&#45;&gt;Node12 -->
<g id="edge44" class="edge">
<title>Node19&#45;&gt;Node12</title>
<path fill="none" stroke="midnightblue" d="M784.62,-280.23C764.45,-256.97 705.59,-193.76 641,-168 597.64,-150.71 296.39,-133.13 164.08,-126.14"/>
<polygon fill="midnightblue" stroke="midnightblue" points="163.88,-122.62 153.71,-125.6 163.51,-129.62 163.88,-122.62"/>
</g>
<!-- Node20 -->
<g id="node20" class="node">
<title>Node20</title>
<g id="a_node20"><a xlink:href="../../d7/d7d/context__condition_8h.html" target="_top" xlink:title=" ">
<polygon fill="white" stroke="black" points="764,-112.5 764,-131.5 864,-131.5 864,-112.5 764,-112.5"/>
<text text-anchor="middle" x="814" y="-119.5" font-family="Helvetica,sans-Serif" font-size="10.00">context_condition.h</text>
</a>
</g>
</g>
<!-- Node19&#45;&gt;Node20 -->
<g id="edge40" class="edge">
<title>Node19&#45;&gt;Node20</title>
<path fill="none" stroke="midnightblue" d="M793.18,-280.08C796.65,-253.95 806.82,-177.21 811.54,-141.58"/>
<polygon fill="midnightblue" stroke="midnightblue" points="815.02,-141.94 812.86,-131.57 808.08,-141.02 815.02,-141.94"/>
</g>
<!-- Node20&#45;&gt;Node6 -->
<g id="edge41" class="edge">
<title>Node20&#45;&gt;Node6</title>
<path fill="none" stroke="midnightblue" d="M764.72,-112.44C709.67,-102.89 620.6,-87.42 561.92,-77.23"/>
<polygon fill="midnightblue" stroke="midnightblue" points="562.5,-73.78 552.05,-75.52 561.3,-80.68 562.5,-73.78"/>
</g>
<!-- Node20&#45;&gt;Node7 -->
<g id="edge42" class="edge">
<title>Node20&#45;&gt;Node7</title>
<path fill="none" stroke="midnightblue" d="M807.4,-112.33C796.66,-98.73 774.18,-72.27 750,-56 726.43,-40.14 696.39,-28.25 673.82,-20.69"/>
<polygon fill="midnightblue" stroke="midnightblue" points="674.62,-17.27 664.02,-17.52 672.46,-23.93 674.62,-17.27"/>
</g>
<!-- Node21&#45;&gt;Node7 -->
<g id="edge52" class="edge">
<title>Node21&#45;&gt;Node7</title>
<path fill="none" stroke="midnightblue" d="M414.09,-453.22C557.87,-441.51 968,-403.17 968,-347 968,-347 968,-347 968,-121 968,-81.98 943.24,-74.71 909,-56 868.98,-34.13 736.58,-19.63 674.14,-13.84"/>
<polygon fill="midnightblue" stroke="midnightblue" points="674.31,-10.34 664.03,-12.92 673.68,-17.31 674.31,-10.34"/>
</g>
<!-- Node21&#45;&gt;Node14 -->
<g id="edge51" class="edge">
<title>Node21&#45;&gt;Node14</title>
<path fill="none" stroke="midnightblue" d="M364.5,-448.08C364.11,-441.01 363.55,-430.86 363.05,-421.99"/>
<polygon fill="midnightblue" stroke="midnightblue" points="366.54,-421.54 362.49,-411.75 359.55,-421.93 366.54,-421.54"/>
</g>
</g>
</svg>
        <g id="navigator" transform="translate(0 0)" fill="#404254">
                <rect fill="#f2f5e9" fill-opacity="0.5" stroke="#606060" stroke-width=".5" x="0" y="0" width="60" height="60"/>
                <use id="zoomplus" xlink:href="#zoomPlus" x="17" y="9" onmousedown="handleZoom(evt,'in')"/>
                <use id="zoomminus" xlink:href="#zoomMin" x="42" y="9" onmousedown="handleZoom(evt,'out')"/>
                <use id="reset" xlink:href="#resetDef" x="30" y="36" onmousedown="handleReset()"/>
                <g id="arrowUp" xlink:href="#dirArrow" transform="translate(30 24)" onmousedown="handlePan(0,-1)">
                  <use xlink:href="#rim" fill="#404040">
                        <set attributeName="fill" to="#808080" begin="arrowUp.mouseover" end="arrowUp.mouseout"/>
                  </use>
                  <path fill="none" stroke="white" stroke-width="1.5" d="M0,-3.0v7 M-2.5,-0.5L0,-3.0L2.5,-0.5"/>
                </g>
                <g id="arrowRight" xlink:href="#dirArrow" transform="rotate(90) translate(36 -43)" onmousedown="handlePan(1,0)">
                  <use xlink:href="#rim" fill="#404040">
                        <set attributeName="fill" to="#808080" begin="arrowRight.mouseover" end="arrowRight.mouseout"/>
                  </use>
                  <path fill="none" stroke="white" stroke-width="1.5" d="M0,-3.0v7 M-2.5,-0.5L0,-3.0L2.5,-0.5"/>
                </g>
                <g id="arrowDown" xlink:href="#dirArrow" transform="rotate(180) translate(-30 -48)" onmousedown="handlePan(0,1)">
                  <use xlink:href="#rim" fill="#404040">
                        <set attributeName="fill" to="#808080" begin="arrowDown.mouseover" end="arrowDown.mouseout"/>
                  </use>
                  <path fill="none" stroke="white" stroke-width="1.5" d="M0,-3.0v7 M-2.5,-0.5L0,-3.0L2.5,-0.5"/>
                </g>
                <g id="arrowLeft" xlink:href="#dirArrow" transform="rotate(270) translate(-36 17)" onmousedown="handlePan(-1,0)">
                  <use xlink:href="#rim" fill="#404040">
                        <set attributeName="fill" to="#808080" begin="arrowLeft.mouseover" end="arrowLeft.mouseout"/>
                  </use>
                  <path fill="none" stroke="white" stroke-width="1.5" d="M0,-3.0v7 M-2.5,-0.5L0,-3.0L2.5,-0.5"/>
                </g>
        </g>
        <svg viewBox="0 0 15 15" width="100%" height="30px" preserveAspectRatio="xMaxYMin meet">
         <g id="arrow_out" transform="scale(0.3 0.3)">
          <a xlink:href="intention_8cpp__incl_org.svg" target="_base">
           <rect id="button" ry="5" rx="5" y="6" x="6" height="38" width="38"
                fill="#f2f5e9" fill-opacity="0.5" stroke="#606060" stroke-width="1.0"/>
           <path id="arrow"
             d="M 11.500037,31.436501 C 11.940474,20.09759 22.043105,11.32322 32.158766,21.979434 L 37.068811,17.246167 C 37.068811,17.246167 37.088388,32 37.088388,32 L 22.160133,31.978069 C 22.160133,31.978069 26.997745,27.140456 26.997745,27.140456 C 18.528582,18.264221 13.291696,25.230495 11.500037,31.436501 z"
             style="fill:#404040;"/>
          </a>
         </g>
        </svg>
</svg>
