<?xml version="1.0" encoding="UTF-8" standalone="no"?>
<!DOCTYPE svg PUBLIC "-//W3C//DTD SVG 1.1//EN"
 "http://www.w3.org/Graphics/SVG/1.1/DTD/svg11.dtd">
<!-- Generated by graphviz version 2.48.0 (20210719.0153)
 -->
<!-- Title: EventBase Pages: 1 -->
<svg width="145pt" height="628pt"
 viewBox="0.00 0.00 144.50 628.00" xmlns="http://www.w3.org/2000/svg" xmlns:xlink="http://www.w3.org/1999/xlink">
<g id="graph0" class="graph" transform="scale(1 1) rotate(0) translate(4 624)">
<title>EventBase</title>
<polygon fill="white" stroke="transparent" points="-4,4 -4,-624 140.5,-624 140.5,4 -4,4"/>
<!-- Node1 -->
<g id="node1" class="node">
<title>Node1</title>
<g id="a_node1"><a xlink:title=" ">
<polygon fill="#bfbfbf" stroke="black" points="7,-0.5 7,-145.5 108,-145.5 108,-0.5 7,-0.5"/>
<text text-anchor="middle" x="57.5" y="-133.5" font-family="Helvetica,sans-Serif" font-size="10.00">EventBase</text>
<polyline fill="none" stroke="black" points="7,-126.5 108,-126.5 "/>
<text text-anchor="start" x="15" y="-114.5" font-family="Helvetica,sans-Serif" font-size="10.00">&#45; _size</text>
<polyline fill="none" stroke="black" points="7,-107.5 108,-107.5 "/>
<text text-anchor="start" x="15" y="-95.5" font-family="Helvetica,sans-Serif" font-size="10.00">+ EventBase()</text>
<text text-anchor="start" x="15" y="-84.5" font-family="Helvetica,sans-Serif" font-size="10.00">+ EventBase()</text>
<text text-anchor="start" x="15" y="-73.5" font-family="Helvetica,sans-Serif" font-size="10.00">+ add_event()</text>
<text text-anchor="start" x="15" y="-62.5" font-family="Helvetica,sans-Serif" font-size="10.00">+ get_event()</text>
<text text-anchor="start" x="15" y="-51.5" font-family="Helvetica,sans-Serif" font-size="10.00">+ last_event()</text>
<text text-anchor="start" x="15" y="-40.5" font-family="Helvetica,sans-Serif" font-size="10.00">+ event_exists()</text>
<text text-anchor="start" x="15" y="-29.5" font-family="Helvetica,sans-Serif" font-size="10.00">+ is_full()</text>
<text text-anchor="start" x="15" y="-18.5" font-family="Helvetica,sans-Serif" font-size="10.00">+ is_empty()</text>
<text text-anchor="start" x="15" y="-7.5" font-family="Helvetica,sans-Serif" font-size="10.00">+ get_event_by_id()</text>
</a>
</g>
</g>
<!-- Node2 -->
<g id="node2" class="node">
<title>Node2</title>
<g id="a_node2"><a xlink:href="../../df/d28/class_vector_queue.html" target="_top" xlink:title=" ">
<polygon fill="white" stroke="black" points="0,-193.5 0,-382.5 115,-382.5 115,-193.5 0,-193.5"/>
<text text-anchor="middle" x="57.5" y="-370.5" font-family="Helvetica,sans-Serif" font-size="10.00">VectorQueue&lt; Event &gt;</text>
<polyline fill="none" stroke="black" points="0,-363.5 115,-363.5 "/>
<text text-anchor="start" x="8" y="-351.5" font-family="Helvetica,sans-Serif" font-size="10.00">&#45; _queue</text>
<text text-anchor="start" x="8" y="-340.5" font-family="Helvetica,sans-Serif" font-size="10.00">&#45; _capacity</text>
<polyline fill="none" stroke="black" points="0,-333.5 115,-333.5 "/>
<text text-anchor="start" x="8" y="-321.5" font-family="Helvetica,sans-Serif" font-size="10.00">+ init()</text>
<text text-anchor="start" x="8" y="-310.5" font-family="Helvetica,sans-Serif" font-size="10.00">+ push_front()</text>
<text text-anchor="start" x="8" y="-299.5" font-family="Helvetica,sans-Serif" font-size="10.00">+ push_back()</text>
<text text-anchor="start" x="8" y="-288.5" font-family="Helvetica,sans-Serif" font-size="10.00">+ pop_back()</text>
<text text-anchor="start" x="8" y="-277.5" font-family="Helvetica,sans-Serif" font-size="10.00">+ front()</text>
<text text-anchor="start" x="8" y="-266.5" font-family="Helvetica,sans-Serif" font-size="10.00">+ back()</text>
<text text-anchor="start" x="8" y="-255.5" font-family="Helvetica,sans-Serif" font-size="10.00">+ item_at()</text>
<text text-anchor="start" x="8" y="-244.5" font-family="Helvetica,sans-Serif" font-size="10.00">+ erase()</text>
<text text-anchor="start" x="8" y="-233.5" font-family="Helvetica,sans-Serif" font-size="10.00">+ rotate()</text>
<text text-anchor="start" x="8" y="-222.5" font-family="Helvetica,sans-Serif" font-size="10.00">+ size()</text>
<text text-anchor="start" x="8" y="-211.5" font-family="Helvetica,sans-Serif" font-size="10.00">+ is_empty()</text>
<text text-anchor="start" x="8" y="-200.5" font-family="Helvetica,sans-Serif" font-size="10.00">+ is_full()</text>
</a>
</g>
</g>
<!-- Node2&#45;&gt;Node1 -->
<g id="edge1" class="edge">
<title>Node2&#45;&gt;Node1</title>
<path fill="none" stroke="#404040" d="M57.5,-193.27C57.5,-181.42 57.5,-169.36 57.5,-157.68"/>
<polygon fill="none" stroke="#404040" points="57.5,-157.68 53.5,-151.68 57.5,-145.68 61.5,-151.68 57.5,-157.68"/>
<text text-anchor="middle" x="97" y="-167" font-family="Helvetica,sans-Serif" font-size="10.00"> &#45;_pending_events</text>
</g>
<!-- Node3 -->
<g id="node3" class="node">
<title>Node3</title>
<g id="a_node3"><a xlink:href="../../df/d28/class_vector_queue.html" target="_top" xlink:title=" ">
<polygon fill="white" stroke="black" points="9,-430.5 9,-619.5 106,-619.5 106,-430.5 9,-430.5"/>
<text text-anchor="middle" x="57.5" y="-607.5" font-family="Helvetica,sans-Serif" font-size="10.00">VectorQueue&lt; X &gt;</text>
<polyline fill="none" stroke="black" points="9,-600.5 106,-600.5 "/>
<text text-anchor="start" x="17" y="-588.5" font-family="Helvetica,sans-Serif" font-size="10.00">&#45; _queue</text>
<text text-anchor="start" x="17" y="-577.5" font-family="Helvetica,sans-Serif" font-size="10.00">&#45; _capacity</text>
<polyline fill="none" stroke="black" points="9,-570.5 106,-570.5 "/>
<text text-anchor="start" x="17" y="-558.5" font-family="Helvetica,sans-Serif" font-size="10.00">+ init()</text>
<text text-anchor="start" x="17" y="-547.5" font-family="Helvetica,sans-Serif" font-size="10.00">+ push_front()</text>
<text text-anchor="start" x="17" y="-536.5" font-family="Helvetica,sans-Serif" font-size="10.00">+ push_back()</text>
<text text-anchor="start" x="17" y="-525.5" font-family="Helvetica,sans-Serif" font-size="10.00">+ pop_back()</text>
<text text-anchor="start" x="17" y="-514.5" font-family="Helvetica,sans-Serif" font-size="10.00">+ front()</text>
<text text-anchor="start" x="17" y="-503.5" font-family="Helvetica,sans-Serif" font-size="10.00">+ back()</text>
<text text-anchor="start" x="17" y="-492.5" font-family="Helvetica,sans-Serif" font-size="10.00">+ item_at()</text>
<text text-anchor="start" x="17" y="-481.5" font-family="Helvetica,sans-Serif" font-size="10.00">+ erase()</text>
<text text-anchor="start" x="17" y="-470.5" font-family="Helvetica,sans-Serif" font-size="10.00">+ rotate()</text>
<text text-anchor="start" x="17" y="-459.5" font-family="Helvetica,sans-Serif" font-size="10.00">+ size()</text>
<text text-anchor="start" x="17" y="-448.5" font-family="Helvetica,sans-Serif" font-size="10.00">+ is_empty()</text>
<text text-anchor="start" x="17" y="-437.5" font-family="Helvetica,sans-Serif" font-size="10.00">+ is_full()</text>
</a>
</g>
</g>
<!-- Node3&#45;&gt;Node2 -->
<g id="edge2" class="edge">
<title>Node3&#45;&gt;Node2</title>
<path fill="none" stroke="orange" d="M57.5,-420.42C57.5,-407.84 57.5,-395.04 57.5,-382.62"/>
<polygon fill="orange" stroke="orange" points="54,-420.45 57.5,-430.45 61,-420.45 54,-420.45"/>
<text text-anchor="middle" x="79.5" y="-404" font-family="Helvetica,sans-Serif" font-size="10.00"> &lt; Event &gt;</text>
</g>
</g>
</svg>
