<?xml version="1.0" encoding="UTF-8" standalone="no"?>
<!DOCTYPE svg PUBLIC "-//W3C//DTD SVG 1.1//EN"
 "http://www.w3.org/Graphics/SVG/1.1/DTD/svg11.dtd">
<!-- Generated by graphviz version 2.47.3 (20210711.2253)
 -->
<!-- Title: vector_queue.h Pages: 1 -->
<!--zoomable 588 -->
<svg id="main" version="1.1" xmlns="http://www.w3.org/2000/svg" xmlns:xlink="http://www.w3.org/1999/xlink" xml:space="preserve" onload="init(evt)">
<style type="text/css"><![CDATA[
.edge:hover path { stroke: red; }
.edge:hover polygon { stroke: red; fill: red; }
]]></style>
<script type="text/javascript"><![CDATA[
var edges = document.getElementsByTagName('g');
if (edges && edges.length) {
  for (var i=0;i<edges.length;i++) {
    if (edges[i].id.substr(0,4)=='edge') {
      edges[i].setAttribute('class','edge');
    }
  }
}
]]></script>
        <defs>
                <circle id="rim" cx="0" cy="0" r="7"/>
                <circle id="rim2" cx="0" cy="0" r="3.5"/>
                <g id="zoomPlus">
                        <use xlink:href="#rim" fill="#404040">
                                <set attributeName="fill" to="#808080" begin="zoomplus.mouseover" end="zoomplus.mouseout"/>
                        </use>
                        <path d="M-4,0h8M0,-4v8" fill="none" stroke="white" stroke-width="1.5" pointer-events="none"/>
                </g>
                <g id="zoomMin">
                        <use xlink:href="#rim" fill="#404040">
                                <set attributeName="fill" to="#808080" begin="zoomminus.mouseover" end="zoomminus.mouseout"/>
                        </use>
                        <path d="M-4,0h8" fill="none" stroke="white" stroke-width="1.5" pointer-events="none"/>
                </g>
                <g id="dirArrow">
                        <path fill="none" stroke="white" stroke-width="1.5" d="M0,-3.0v7 M-2.5,-0.5L0,-3.0L2.5,-0.5"/>
                </g>
               <g id="resetDef">
                       <use xlink:href="#rim2" fill="#404040">
                               <set attributeName="fill" to="#808080" begin="reset.mouseover" end="reset.mouseout"/>
                       </use>
               </g>
        </defs>

<script type="text/javascript">
var viewWidth = 692;
var viewHeight = 588;
var sectionId = 'dynsection-1';
</script>
<script xlink:href="../../svgpan.js"/>
<svg id="graph" class="graph">
<g id="viewport">
<title>vector_queue.h</title>
<polygon fill="white" stroke="transparent" points="-4,4 -4,-584 688.36,-584 688.36,4 -4,4"/>
<!-- Node1 -->
<g id="node1" class="node">
<title>Node1</title>
<g id="a_node1"><a xlink:title=" ">
<polygon fill="#bfbfbf" stroke="black" points="297.5,-560.5 297.5,-579.5 380.5,-579.5 380.5,-560.5 297.5,-560.5"/>
<text text-anchor="middle" x="339" y="-567.5" font-family="Helvetica,sans-Serif" font-size="10.00">vector_queue.h</text>
</a>
</g>
</g>
<!-- Node2 -->
<g id="node2" class="node">
<title>Node2</title>
<g id="a_node2"><a xlink:href="../../d2/d2f/belief__base_8h.html" target="_top" xlink:title=" ">
<polygon fill="white" stroke="black" points="302,-448.5 302,-467.5 376,-467.5 376,-448.5 302,-448.5"/>
<text text-anchor="middle" x="339" y="-455.5" font-family="Helvetica,sans-Serif" font-size="10.00">belief_base.h</text>
</a>
</g>
</g>
<!-- Node1&#45;&gt;Node2 -->
<g id="edge1" class="edge">
<title>Node1&#45;&gt;Node2</title>
<path fill="none" stroke="midnightblue" d="M339,-550.35C339,-526.25 339,-485.31 339,-467.59"/>
<polygon fill="midnightblue" stroke="midnightblue" points="335.5,-550.37 339,-560.37 342.5,-550.37 335.5,-550.37"/>
</g>
<!-- Node7 -->
<g id="node7" class="node">
<title>Node7</title>
<g id="a_node7"><a xlink:href="../../df/d3f/intention_8h.html" target="_top" xlink:title=" ">
<polygon fill="white" stroke="black" points="225.5,-168.5 225.5,-187.5 286.5,-187.5 286.5,-168.5 225.5,-168.5"/>
<text text-anchor="middle" x="256" y="-175.5" font-family="Helvetica,sans-Serif" font-size="10.00">intention.h</text>
</a>
</g>
</g>
<!-- Node1&#45;&gt;Node7 -->
<g id="edge39" class="edge">
<title>Node1&#45;&gt;Node7</title>
<path fill="none" stroke="midnightblue" d="M312.66,-555.65C270.55,-532.73 189.15,-481.54 153,-412 108.73,-326.85 213.52,-218.64 246.47,-187.65"/>
<polygon fill="midnightblue" stroke="midnightblue" points="311.03,-558.75 321.5,-560.36 314.32,-552.57 311.03,-558.75"/>
</g>
<!-- Node9 -->
<g id="node9" class="node">
<title>Node9</title>
<g id="a_node9"><a xlink:href="../../d8/d83/intention__base_8h.html" target="_top" xlink:title=" ">
<polygon fill="white" stroke="black" points="41.5,-112.5 41.5,-131.5 128.5,-131.5 128.5,-112.5 41.5,-112.5"/>
<text text-anchor="middle" x="85" y="-119.5" font-family="Helvetica,sans-Serif" font-size="10.00">intention_base.h</text>
</a>
</g>
</g>
<!-- Node1&#45;&gt;Node9 -->
<g id="edge40" class="edge">
<title>Node1&#45;&gt;Node9</title>
<path fill="none" stroke="midnightblue" d="M287.47,-563.14C192.62,-550.9 0,-518.7 0,-459 0,-459 0,-459 0,-233 0,-186.9 47.32,-148.36 71.34,-131.76"/>
<polygon fill="midnightblue" stroke="midnightblue" points="287.07,-566.61 297.43,-564.39 287.95,-559.67 287.07,-566.61"/>
</g>
<!-- Node11 -->
<g id="node11" class="node">
<title>Node11</title>
<g id="a_node11"><a xlink:href="../../de/d75/plan__base_8h.html" target="_top" xlink:title=" ">
<polygon fill="white" stroke="black" points="471,-224.5 471,-243.5 539,-243.5 539,-224.5 471,-224.5"/>
<text text-anchor="middle" x="505" y="-231.5" font-family="Helvetica,sans-Serif" font-size="10.00">plan_base.h</text>
</a>
</g>
</g>
<!-- Node1&#45;&gt;Node11 -->
<g id="edge41" class="edge">
<title>Node1&#45;&gt;Node11</title>
<path fill="none" stroke="midnightblue" d="M391.2,-569.75C448.62,-568.53 542.14,-560.36 613,-524 644.32,-507.93 655.53,-500.52 669,-468 702.36,-387.45 679.12,-336.83 613,-280 591.74,-261.73 562.02,-250.08 539.13,-243.22"/>
<polygon fill="midnightblue" stroke="midnightblue" points="390.86,-566.26 380.91,-569.91 390.96,-573.26 390.86,-566.26"/>
</g>
<!-- Node13 -->
<g id="node13" class="node">
<title>Node13</title>
<g id="a_node13"><a xlink:href="../../d0/d77/body_8h.html" target="_top" xlink:title=" ">
<polygon fill="white" stroke="black" points="594,-336.5 594,-355.5 638,-355.5 638,-336.5 594,-336.5"/>
<text text-anchor="middle" x="616" y="-343.5" font-family="Helvetica,sans-Serif" font-size="10.00">body.h</text>
</a>
</g>
</g>
<!-- Node1&#45;&gt;Node13 -->
<g id="edge42" class="edge">
<title>Node1&#45;&gt;Node13</title>
<path fill="none" stroke="midnightblue" d="M390.84,-569.48C462.94,-567 591.36,-550.44 651,-468 677.02,-432.03 639.77,-377.02 623.23,-355.79"/>
<polygon fill="midnightblue" stroke="midnightblue" points="390.52,-565.99 380.62,-569.75 390.71,-572.99 390.52,-565.99"/>
</g>
<!-- Node21 -->
<g id="node21" class="node">
<title>Node21</title>
<g id="a_node21"><a xlink:href="../../dc/d1e/context_8h.html" target="_top" xlink:title=" ">
<polygon fill="white" stroke="black" points="180,-392.5 180,-411.5 236,-411.5 236,-392.5 180,-392.5"/>
<text text-anchor="middle" x="208" y="-399.5" font-family="Helvetica,sans-Serif" font-size="10.00">context.h</text>
</a>
</g>
</g>
<!-- Node1&#45;&gt;Node21 -->
<g id="edge43" class="edge">
<title>Node1&#45;&gt;Node21</title>
<path fill="none" stroke="midnightblue" d="M325.75,-552.21C298.17,-517.26 235.45,-437.79 214.76,-411.57"/>
<polygon fill="midnightblue" stroke="midnightblue" points="323.01,-554.39 331.96,-560.08 328.51,-550.06 323.01,-554.39"/>
</g>
<!-- Node23 -->
<g id="node23" class="node">
<title>Node23</title>
<g id="a_node23"><a xlink:href="../../d7/dc4/event__base_8h.html" target="_top" xlink:title=" ">
<polygon fill="white" stroke="black" points="398,-504.5 398,-523.5 472,-523.5 472,-504.5 398,-504.5"/>
<text text-anchor="middle" x="435" y="-511.5" font-family="Helvetica,sans-Serif" font-size="10.00">event_base.h</text>
</a>
</g>
</g>
<!-- Node1&#45;&gt;Node23 -->
<g id="edge31" class="edge">
<title>Node1&#45;&gt;Node23</title>
<path fill="none" stroke="midnightblue" d="M363.57,-555.18C381.24,-545.24 404.51,-532.15 419.61,-523.65"/>
<polygon fill="midnightblue" stroke="midnightblue" points="361.42,-552.37 354.42,-560.32 364.86,-558.47 361.42,-552.37"/>
</g>
<!-- Node3 -->
<g id="node3" class="node">
<title>Node3</title>
<g id="a_node3"><a xlink:href="../../de/d9e/agent_8h.html" target="_top" xlink:title=" ">
<polygon fill="white" stroke="black" points="347,-56.5 347,-75.5 395,-75.5 395,-56.5 347,-56.5"/>
<text text-anchor="middle" x="371" y="-63.5" font-family="Helvetica,sans-Serif" font-size="10.00">agent.h</text>
</a>
</g>
</g>
<!-- Node2&#45;&gt;Node3 -->
<g id="edge2" class="edge">
<title>Node2&#45;&gt;Node3</title>
<path fill="none" stroke="midnightblue" d="M291.65,-456.42C254.17,-453.41 202.97,-443.26 171,-412 149.48,-390.96 152,-377.1 152,-347 152,-347 152,-347 152,-289 152,-206.08 150.99,-169.22 211,-112 248.49,-76.26 312.07,-68.51 346.72,-67.08"/>
<polygon fill="midnightblue" stroke="midnightblue" points="291.62,-459.92 301.83,-457.08 292.08,-452.94 291.62,-459.92"/>
</g>
<!-- Node6 -->
<g id="node6" class="node">
<title>Node6</title>
<g id="a_node6"><a xlink:href="../../de/d9b/belief__base_8cpp.html" target="_top" xlink:title=" ">
<polygon fill="white" stroke="black" points="254,-392.5 254,-411.5 338,-411.5 338,-392.5 254,-392.5"/>
<text text-anchor="middle" x="296" y="-399.5" font-family="Helvetica,sans-Serif" font-size="10.00">belief_base.cpp</text>
</a>
</g>
</g>
<!-- Node2&#45;&gt;Node6 -->
<g id="edge5" class="edge">
<title>Node2&#45;&gt;Node6</title>
<path fill="none" stroke="midnightblue" d="M325.58,-440.14C318.09,-430.74 309.06,-419.4 302.97,-411.75"/>
<polygon fill="midnightblue" stroke="midnightblue" points="322.93,-442.44 331.9,-448.08 328.41,-438.08 322.93,-442.44"/>
</g>
<!-- Node2&#45;&gt;Node7 -->
<g id="edge6" class="edge">
<title>Node2&#45;&gt;Node7</title>
<path fill="none" stroke="midnightblue" d="M344.57,-438.79C347.78,-425.67 350.55,-407.59 347,-392 330.82,-320.86 302.58,-311.94 276,-244 268.26,-224.21 261.52,-200.11 258.19,-187.55"/>
<polygon fill="midnightblue" stroke="midnightblue" points="341.18,-437.92 341.9,-448.49 347.93,-439.78 341.18,-437.92"/>
</g>
<!-- Node2&#45;&gt;Node9 -->
<g id="edge11" class="edge">
<title>Node2&#45;&gt;Node9</title>
<path fill="none" stroke="midnightblue" d="M291.53,-457.41C247.48,-455.44 182.24,-446.25 138,-412 90.22,-375.01 76,-351.43 76,-291 76,-291 76,-291 76,-233 76,-195.06 81.38,-150.01 83.82,-131.54"/>
<polygon fill="midnightblue" stroke="midnightblue" points="291.58,-460.92 301.69,-457.76 291.82,-453.92 291.58,-460.92"/>
</g>
<!-- Node2&#45;&gt;Node11 -->
<g id="edge12" class="edge">
<title>Node2&#45;&gt;Node11</title>
<path fill="none" stroke="midnightblue" d="M354.45,-441.02C362.35,-432.61 371.97,-421.99 380,-412 429.72,-350.12 482.4,-270 499.38,-243.75"/>
<polygon fill="midnightblue" stroke="midnightblue" points="351.86,-438.67 347.5,-448.32 356.93,-443.49 351.86,-438.67"/>
</g>
<!-- Node2&#45;&gt;Node13 -->
<g id="edge16" class="edge">
<title>Node2&#45;&gt;Node13</title>
<path fill="none" stroke="midnightblue" d="M385.99,-452.5C445.77,-446.02 544.86,-432.54 575,-412 595.51,-398.02 607.86,-370.04 613.08,-355.79"/>
<polygon fill="midnightblue" stroke="midnightblue" points="385.61,-449.02 376.03,-453.55 386.35,-455.98 385.61,-449.02"/>
</g>
<!-- Node19 -->
<g id="node19" class="node">
<title>Node19</title>
<g id="a_node19"><a xlink:href="../../d8/d67/body__instruction_8h.html" target="_top" xlink:title=" ">
<polygon fill="white" stroke="black" points="470.5,-392.5 470.5,-411.5 565.5,-411.5 565.5,-392.5 470.5,-392.5"/>
<text text-anchor="middle" x="518" y="-399.5" font-family="Helvetica,sans-Serif" font-size="10.00">body_instruction.h</text>
</a>
</g>
</g>
<!-- Node2&#45;&gt;Node19 -->
<g id="edge25" class="edge">
<title>Node2&#45;&gt;Node19</title>
<path fill="none" stroke="midnightblue" d="M377.33,-445.44C411.08,-435.26 459.45,-420.66 489.77,-411.52"/>
<polygon fill="midnightblue" stroke="midnightblue" points="375.93,-442.2 367.36,-448.44 377.95,-448.91 375.93,-442.2"/>
</g>
<!-- Node2&#45;&gt;Node21 -->
<g id="edge28" class="edge">
<title>Node2&#45;&gt;Node21</title>
<path fill="none" stroke="midnightblue" d="M308.68,-444.5C284.12,-434.38 250.18,-420.39 228.66,-411.52"/>
<polygon fill="midnightblue" stroke="midnightblue" points="307.66,-447.87 318.24,-448.44 310.33,-441.4 307.66,-447.87"/>
</g>
<!-- Node4 -->
<g id="node4" class="node">
<title>Node4</title>
<g id="a_node4"><a xlink:href="../../dd/d3d/agent_8cpp.html" target="_top" xlink:title=" ">
<polygon fill="white" stroke="black" points="296.5,-0.5 296.5,-19.5 355.5,-19.5 355.5,-0.5 296.5,-0.5"/>
<text text-anchor="middle" x="326" y="-7.5" font-family="Helvetica,sans-Serif" font-size="10.00">agent.cpp</text>
</a>
</g>
</g>
<!-- Node3&#45;&gt;Node4 -->
<g id="edge3" class="edge">
<title>Node3&#45;&gt;Node4</title>
<path fill="none" stroke="midnightblue" d="M356.95,-48.14C349.11,-38.74 339.67,-27.4 333.29,-19.75"/>
<polygon fill="midnightblue" stroke="midnightblue" points="354.48,-50.64 363.57,-56.08 359.86,-46.16 354.48,-50.64"/>
</g>
<!-- Node5 -->
<g id="node5" class="node">
<title>Node5</title>
<g id="a_node5"><a xlink:href="../../d4/d91/agent__loop_8cpp.html" target="_top" xlink:title=" ">
<polygon fill="white" stroke="black" points="374,-0.5 374,-19.5 456,-19.5 456,-0.5 374,-0.5"/>
<text text-anchor="middle" x="415" y="-7.5" font-family="Helvetica,sans-Serif" font-size="10.00">agent_loop.cpp</text>
</a>
</g>
</g>
<!-- Node3&#45;&gt;Node5 -->
<g id="edge4" class="edge">
<title>Node3&#45;&gt;Node5</title>
<path fill="none" stroke="midnightblue" d="M384.73,-48.14C392.4,-38.74 401.63,-27.4 407.87,-19.75"/>
<polygon fill="midnightblue" stroke="midnightblue" points="381.87,-46.12 378.27,-56.08 387.3,-50.54 381.87,-46.12"/>
</g>
<!-- Node8 -->
<g id="node8" class="node">
<title>Node8</title>
<g id="a_node8"><a xlink:href="../../d4/db4/intention_8cpp.html" target="_top" xlink:title=" ">
<polygon fill="white" stroke="black" points="220.5,-112.5 220.5,-131.5 291.5,-131.5 291.5,-112.5 220.5,-112.5"/>
<text text-anchor="middle" x="256" y="-119.5" font-family="Helvetica,sans-Serif" font-size="10.00">intention.cpp</text>
</a>
</g>
</g>
<!-- Node7&#45;&gt;Node8 -->
<g id="edge7" class="edge">
<title>Node7&#45;&gt;Node8</title>
<path fill="none" stroke="midnightblue" d="M256,-157.8C256,-148.91 256,-138.78 256,-131.75"/>
<polygon fill="midnightblue" stroke="midnightblue" points="252.5,-158.08 256,-168.08 259.5,-158.08 252.5,-158.08"/>
</g>
<!-- Node7&#45;&gt;Node9 -->
<g id="edge8" class="edge">
<title>Node7&#45;&gt;Node9</title>
<path fill="none" stroke="midnightblue" d="M218.96,-165.3C186.74,-155.13 140.81,-140.62 111.97,-131.52"/>
<polygon fill="midnightblue" stroke="midnightblue" points="218.31,-168.77 228.9,-168.44 220.42,-162.09 218.31,-168.77"/>
</g>
<!-- Node9&#45;&gt;Node3 -->
<g id="edge9" class="edge">
<title>Node9&#45;&gt;Node3</title>
<path fill="none" stroke="midnightblue" d="M138.78,-110.84C201.06,-99.09 300.94,-80.23 346.69,-71.59"/>
<polygon fill="midnightblue" stroke="midnightblue" points="137.93,-107.45 128.75,-112.74 139.22,-114.32 137.93,-107.45"/>
</g>
<!-- Node10 -->
<g id="node10" class="node">
<title>Node10</title>
<g id="a_node10"><a xlink:href="../../d2/dd9/intention__base_8cpp.html" target="_top" xlink:title=" ">
<polygon fill="white" stroke="black" points="36,-56.5 36,-75.5 134,-75.5 134,-56.5 36,-56.5"/>
<text text-anchor="middle" x="85" y="-63.5" font-family="Helvetica,sans-Serif" font-size="10.00">intention_base.cpp</text>
</a>
</g>
</g>
<!-- Node9&#45;&gt;Node10 -->
<g id="edge10" class="edge">
<title>Node9&#45;&gt;Node10</title>
<path fill="none" stroke="midnightblue" d="M85,-101.8C85,-92.91 85,-82.78 85,-75.75"/>
<polygon fill="midnightblue" stroke="midnightblue" points="81.5,-102.08 85,-112.08 88.5,-102.08 81.5,-102.08"/>
</g>
<!-- Node11&#45;&gt;Node3 -->
<g id="edge13" class="edge">
<title>Node11&#45;&gt;Node3</title>
<path fill="none" stroke="midnightblue" d="M521.9,-217.01C533.83,-203.69 546.19,-184.34 537,-168 506.42,-113.6 433.35,-85.08 395.17,-73.44"/>
<polygon fill="midnightblue" stroke="midnightblue" points="519.15,-214.81 514.72,-224.43 524.18,-219.67 519.15,-214.81"/>
</g>
<!-- Node11&#45;&gt;Node7 -->
<g id="edge14" class="edge">
<title>Node11&#45;&gt;Node7</title>
<path fill="none" stroke="midnightblue" d="M461,-223.46C410.87,-212.59 330.27,-195.11 286.57,-185.63"/>
<polygon fill="midnightblue" stroke="midnightblue" points="460.39,-226.91 470.9,-225.6 461.87,-220.06 460.39,-226.91"/>
</g>
<!-- Node12 -->
<g id="node12" class="node">
<title>Node12</title>
<g id="a_node12"><a xlink:href="../../d4/d51/plan__base_8cpp.html" target="_top" xlink:title=" ">
<polygon fill="white" stroke="black" points="448.5,-168.5 448.5,-187.5 527.5,-187.5 527.5,-168.5 448.5,-168.5"/>
<text text-anchor="middle" x="488" y="-175.5" font-family="Helvetica,sans-Serif" font-size="10.00">plan_base.cpp</text>
</a>
</g>
</g>
<!-- Node11&#45;&gt;Node12 -->
<g id="edge15" class="edge">
<title>Node11&#45;&gt;Node12</title>
<path fill="none" stroke="midnightblue" d="M499.14,-214.4C496.3,-205.36 493.02,-194.94 490.75,-187.75"/>
<polygon fill="midnightblue" stroke="midnightblue" points="495.85,-215.6 502.19,-224.08 502.53,-213.49 495.85,-215.6"/>
</g>
<!-- Node14 -->
<g id="node14" class="node">
<title>Node14</title>
<g id="a_node14"><a xlink:href="../../d1/d5f/body_8cpp.html" target="_top" xlink:title=" ">
<polygon fill="white" stroke="black" points="548.5,-280.5 548.5,-299.5 603.5,-299.5 603.5,-280.5 548.5,-280.5"/>
<text text-anchor="middle" x="576" y="-287.5" font-family="Helvetica,sans-Serif" font-size="10.00">body.cpp</text>
</a>
</g>
</g>
<!-- Node13&#45;&gt;Node14 -->
<g id="edge17" class="edge">
<title>Node13&#45;&gt;Node14</title>
<path fill="none" stroke="midnightblue" d="M603.3,-327.86C596.37,-318.5 588.09,-307.33 582.48,-299.75"/>
<polygon fill="midnightblue" stroke="midnightblue" points="600.63,-330.13 609.39,-336.08 606.25,-325.96 600.63,-330.13"/>
</g>
<!-- Node15 -->
<g id="node15" class="node">
<title>Node15</title>
<g id="a_node15"><a xlink:href="../../d9/d4e/plan_8h.html" target="_top" xlink:title=" ">
<polygon fill="white" stroke="black" points="372,-280.5 372,-299.5 414,-299.5 414,-280.5 372,-280.5"/>
<text text-anchor="middle" x="393" y="-287.5" font-family="Helvetica,sans-Serif" font-size="10.00">plan.h</text>
</a>
</g>
</g>
<!-- Node13&#45;&gt;Node15 -->
<g id="edge18" class="edge">
<title>Node13&#45;&gt;Node15</title>
<path fill="none" stroke="midnightblue" d="M583.76,-335.77C516.41,-318.28 447.9,-302.96 414.11,-295.57"/>
<polygon fill="midnightblue" stroke="midnightblue" points="583.13,-339.23 593.69,-338.37 584.9,-332.45 583.13,-339.23"/>
</g>
<!-- Node15&#45;&gt;Node9 -->
<g id="edge22" class="edge">
<title>Node15&#45;&gt;Node9</title>
<path fill="none" stroke="midnightblue" d="M362.11,-278.99C338.1,-270.77 304.24,-258.2 276,-244 204.81,-208.2 126.42,-153.09 97.02,-131.81"/>
<polygon fill="midnightblue" stroke="midnightblue" points="361.16,-282.37 371.75,-282.24 363.39,-275.73 361.16,-282.37"/>
</g>
<!-- Node15&#45;&gt;Node11 -->
<g id="edge23" class="edge">
<title>Node15&#45;&gt;Node11</title>
<path fill="none" stroke="midnightblue" d="M420.25,-275.86C441.02,-265.85 469.02,-252.35 487.05,-243.65"/>
<polygon fill="midnightblue" stroke="midnightblue" points="418.48,-272.83 410.99,-280.32 421.52,-279.13 418.48,-272.83"/>
</g>
<!-- Node16 -->
<g id="node16" class="node">
<title>Node16</title>
<g id="a_node16"><a xlink:href="../../de/d3c/instantiated__plan_8h.html" target="_top" xlink:title=" ">
<polygon fill="white" stroke="black" points="355,-224.5 355,-243.5 453,-243.5 453,-224.5 355,-224.5"/>
<text text-anchor="middle" x="404" y="-231.5" font-family="Helvetica,sans-Serif" font-size="10.00">instantiated_plan.h</text>
</a>
</g>
</g>
<!-- Node15&#45;&gt;Node16 -->
<g id="edge19" class="edge">
<title>Node15&#45;&gt;Node16</title>
<path fill="none" stroke="midnightblue" d="M396.85,-270.1C398.68,-261.14 400.77,-250.86 402.22,-243.75"/>
<polygon fill="midnightblue" stroke="midnightblue" points="393.38,-269.59 394.82,-280.08 400.24,-270.98 393.38,-269.59"/>
</g>
<!-- Node18 -->
<g id="node18" class="node">
<title>Node18</title>
<g id="a_node18"><a xlink:href="../../d7/df1/plan_8cpp.html" target="_top" xlink:title=" ">
<polygon fill="white" stroke="black" points="284.5,-224.5 284.5,-243.5 337.5,-243.5 337.5,-224.5 284.5,-224.5"/>
<text text-anchor="middle" x="311" y="-231.5" font-family="Helvetica,sans-Serif" font-size="10.00">plan.cpp</text>
</a>
</g>
</g>
<!-- Node15&#45;&gt;Node18 -->
<g id="edge24" class="edge">
<title>Node15&#45;&gt;Node18</title>
<path fill="none" stroke="midnightblue" d="M371.17,-274.62C356.19,-264.76 336.8,-251.99 324.14,-243.65"/>
<polygon fill="midnightblue" stroke="midnightblue" points="369.55,-277.75 379.83,-280.32 373.4,-271.9 369.55,-277.75"/>
</g>
<!-- Node16&#45;&gt;Node7 -->
<g id="edge21" class="edge">
<title>Node16&#45;&gt;Node7</title>
<path fill="none" stroke="midnightblue" d="M370.85,-220.91C343.03,-210.75 303.98,-196.51 279.34,-187.52"/>
<polygon fill="midnightblue" stroke="midnightblue" points="369.96,-224.3 380.55,-224.44 372.35,-217.73 369.96,-224.3"/>
</g>
<!-- Node17 -->
<g id="node17" class="node">
<title>Node17</title>
<g id="a_node17"><a xlink:href="../../df/dbd/instantiated__plan_8cpp.html" target="_top" xlink:title=" ">
<polygon fill="white" stroke="black" points="322,-168.5 322,-187.5 430,-187.5 430,-168.5 322,-168.5"/>
<text text-anchor="middle" x="376" y="-175.5" font-family="Helvetica,sans-Serif" font-size="10.00">instantiated_plan.cpp</text>
</a>
</g>
</g>
<!-- Node16&#45;&gt;Node17 -->
<g id="edge20" class="edge">
<title>Node16&#45;&gt;Node17</title>
<path fill="none" stroke="midnightblue" d="M394.66,-214.98C389.91,-205.82 384.34,-195.09 380.54,-187.75"/>
<polygon fill="midnightblue" stroke="midnightblue" points="391.67,-216.82 399.38,-224.08 397.88,-213.59 391.67,-216.82"/>
</g>
<!-- Node19&#45;&gt;Node13 -->
<g id="edge26" class="edge">
<title>Node19&#45;&gt;Node13</title>
<path fill="none" stroke="midnightblue" d="M542.59,-387.45C560.68,-377.48 584.73,-364.23 600.29,-355.65"/>
<polygon fill="midnightblue" stroke="midnightblue" points="540.81,-384.43 533.75,-392.32 544.19,-390.56 540.81,-384.43"/>
</g>
<!-- Node20 -->
<g id="node20" class="node">
<title>Node20</title>
<g id="a_node20"><a xlink:href="../../d4/d8b/body__instruction_8cpp.html" target="_top" xlink:title=" ">
<polygon fill="white" stroke="black" points="470.5,-336.5 470.5,-355.5 575.5,-355.5 575.5,-336.5 470.5,-336.5"/>
<text text-anchor="middle" x="523" y="-343.5" font-family="Helvetica,sans-Serif" font-size="10.00">body_instruction.cpp</text>
</a>
</g>
</g>
<!-- Node19&#45;&gt;Node20 -->
<g id="edge27" class="edge">
<title>Node19&#45;&gt;Node20</title>
<path fill="none" stroke="midnightblue" d="M519.75,-382.1C520.58,-373.14 521.53,-362.86 522.19,-355.75"/>
<polygon fill="midnightblue" stroke="midnightblue" points="516.26,-381.8 518.83,-392.08 523.23,-382.45 516.26,-381.8"/>
</g>
<!-- Node21&#45;&gt;Node15 -->
<g id="edge30" class="edge">
<title>Node21&#45;&gt;Node15</title>
<path fill="none" stroke="midnightblue" d="M231.53,-387.01C270.36,-363.92 346.73,-318.51 378.55,-299.59"/>
<polygon fill="midnightblue" stroke="midnightblue" points="229.32,-384.25 222.52,-392.37 232.9,-390.27 229.32,-384.25"/>
</g>
<!-- Node22 -->
<g id="node22" class="node">
<title>Node22</title>
<g id="a_node22"><a xlink:href="../../db/d12/context_8cpp.html" target="_top" xlink:title=" ">
<polygon fill="white" stroke="black" points="180,-336.5 180,-355.5 246,-355.5 246,-336.5 180,-336.5"/>
<text text-anchor="middle" x="213" y="-343.5" font-family="Helvetica,sans-Serif" font-size="10.00">context.cpp</text>
</a>
</g>
</g>
<!-- Node21&#45;&gt;Node22 -->
<g id="edge29" class="edge">
<title>Node21&#45;&gt;Node22</title>
<path fill="none" stroke="midnightblue" d="M209.75,-382.1C210.58,-373.14 211.53,-362.86 212.19,-355.75"/>
<polygon fill="midnightblue" stroke="midnightblue" points="206.26,-381.8 208.83,-392.08 213.23,-382.45 206.26,-381.8"/>
</g>
<!-- Node23&#45;&gt;Node2 -->
<g id="edge33" class="edge">
<title>Node23&#45;&gt;Node2</title>
<path fill="none" stroke="midnightblue" d="M410.43,-499.18C392.76,-489.24 369.49,-476.15 354.39,-467.65"/>
<polygon fill="midnightblue" stroke="midnightblue" points="409.14,-502.47 419.58,-504.32 412.58,-496.37 409.14,-502.47"/>
</g>
<!-- Node23&#45;&gt;Node3 -->
<g id="edge32" class="edge">
<title>Node23&#45;&gt;Node3</title>
<path fill="none" stroke="midnightblue" d="M482.34,-508.8C538.3,-502.89 626.9,-490.27 651,-468 673.11,-447.57 670,-433.1 670,-403 670,-403 670,-403 670,-177 670,-118.58 466.4,-81.67 395.22,-70.55"/>
<polygon fill="midnightblue" stroke="midnightblue" points="481.89,-505.33 472.29,-509.82 482.6,-512.29 481.89,-505.33"/>
</g>
<!-- Node23&#45;&gt;Node9 -->
<g id="edge35" class="edge">
<title>Node23&#45;&gt;Node9</title>
<path fill="none" stroke="midnightblue" d="M387.61,-503.64C282.28,-481.48 38,-422.01 38,-347 38,-347 38,-347 38,-233 38,-192.3 65.55,-149.44 78.46,-131.59"/>
<polygon fill="midnightblue" stroke="midnightblue" points="387.15,-507.12 397.65,-505.73 388.57,-500.27 387.15,-507.12"/>
</g>
<!-- Node23&#45;&gt;Node13 -->
<g id="edge36" class="edge">
<title>Node23&#45;&gt;Node13</title>
<path fill="none" stroke="midnightblue" d="M459.04,-499.41C502.02,-474.92 588.44,-424.75 598,-412 610.78,-394.95 614.49,-369.29 615.56,-355.88"/>
<polygon fill="midnightblue" stroke="midnightblue" points="457.29,-496.37 450.33,-504.36 460.75,-502.46 457.29,-496.37"/>
</g>
<!-- Node23&#45;&gt;Node15 -->
<g id="edge38" class="edge">
<title>Node23&#45;&gt;Node15</title>
<path fill="none" stroke="midnightblue" d="M431.46,-494.3C422.82,-448.64 400.92,-332.85 394.68,-299.88"/>
<polygon fill="midnightblue" stroke="midnightblue" points="428.06,-495.12 433.35,-504.3 434.93,-493.82 428.06,-495.12"/>
</g>
<!-- Node23&#45;&gt;Node19 -->
<g id="edge37" class="edge">
<title>Node23&#45;&gt;Node19</title>
<path fill="none" stroke="midnightblue" d="M447.62,-496.27C465.56,-472.49 497.79,-429.79 511.52,-411.59"/>
<polygon fill="midnightblue" stroke="midnightblue" points="444.74,-494.28 441.51,-504.37 450.33,-498.49 444.74,-494.28"/>
</g>
<!-- Node24 -->
<g id="node24" class="node">
<title>Node24</title>
<g id="a_node24"><a xlink:href="../../d8/ddf/event__base_8cpp.html" target="_top" xlink:title=" ">
<polygon fill="white" stroke="black" points="556.5,-448.5 556.5,-467.5 641.5,-467.5 641.5,-448.5 556.5,-448.5"/>
<text text-anchor="middle" x="599" y="-455.5" font-family="Helvetica,sans-Serif" font-size="10.00">event_base.cpp</text>
</a>
</g>
</g>
<!-- Node23&#45;&gt;Node24 -->
<g id="edge34" class="edge">
<title>Node23&#45;&gt;Node24</title>
<path fill="none" stroke="midnightblue" d="M470.52,-501.3C501.42,-491.13 545.47,-476.62 573.14,-467.52"/>
<polygon fill="midnightblue" stroke="midnightblue" points="469.39,-497.99 460.99,-504.44 471.58,-504.64 469.39,-497.99"/>
</g>
</g>
</svg>
        <g id="navigator" transform="translate(0 0)" fill="#404254">
                <rect fill="#f2f5e9" fill-opacity="0.5" stroke="#606060" stroke-width=".5" x="0" y="0" width="60" height="60"/>
                <use id="zoomplus" xlink:href="#zoomPlus" x="17" y="9" onmousedown="handleZoom(evt,'in')"/>
                <use id="zoomminus" xlink:href="#zoomMin" x="42" y="9" onmousedown="handleZoom(evt,'out')"/>
                <use id="reset" xlink:href="#resetDef" x="30" y="36" onmousedown="handleReset()"/>
                <g id="arrowUp" xlink:href="#dirArrow" transform="translate(30 24)" onmousedown="handlePan(0,-1)">
                  <use xlink:href="#rim" fill="#404040">
                        <set attributeName="fill" to="#808080" begin="arrowUp.mouseover" end="arrowUp.mouseout"/>
                  </use>
                  <path fill="none" stroke="white" stroke-width="1.5" d="M0,-3.0v7 M-2.5,-0.5L0,-3.0L2.5,-0.5"/>
                </g>
                <g id="arrowRight" xlink:href="#dirArrow" transform="rotate(90) translate(36 -43)" onmousedown="handlePan(1,0)">
                  <use xlink:href="#rim" fill="#404040">
                        <set attributeName="fill" to="#808080" begin="arrowRight.mouseover" end="arrowRight.mouseout"/>
                  </use>
                  <path fill="none" stroke="white" stroke-width="1.5" d="M0,-3.0v7 M-2.5,-0.5L0,-3.0L2.5,-0.5"/>
                </g>
                <g id="arrowDown" xlink:href="#dirArrow" transform="rotate(180) translate(-30 -48)" onmousedown="handlePan(0,1)">
                  <use xlink:href="#rim" fill="#404040">
                        <set attributeName="fill" to="#808080" begin="arrowDown.mouseover" end="arrowDown.mouseout"/>
                  </use>
                  <path fill="none" stroke="white" stroke-width="1.5" d="M0,-3.0v7 M-2.5,-0.5L0,-3.0L2.5,-0.5"/>
                </g>
                <g id="arrowLeft" xlink:href="#dirArrow" transform="rotate(270) translate(-36 17)" onmousedown="handlePan(-1,0)">
                  <use xlink:href="#rim" fill="#404040">
                        <set attributeName="fill" to="#808080" begin="arrowLeft.mouseover" end="arrowLeft.mouseout"/>
                  </use>
                  <path fill="none" stroke="white" stroke-width="1.5" d="M0,-3.0v7 M-2.5,-0.5L0,-3.0L2.5,-0.5"/>
                </g>
        </g>
        <svg viewBox="0 0 15 15" width="100%" height="30px" preserveAspectRatio="xMaxYMin meet">
         <g id="arrow_out" transform="scale(0.3 0.3)">
          <a xlink:href="vector__queue_8h__dep__incl_org.svg" target="_base">
           <rect id="button" ry="5" rx="5" y="6" x="6" height="38" width="38"
                fill="#f2f5e9" fill-opacity="0.5" stroke="#606060" stroke-width="1.0"/>
           <path id="arrow"
             d="M 11.500037,31.436501 C 11.940474,20.09759 22.043105,11.32322 32.158766,21.979434 L 37.068811,17.246167 C 37.068811,17.246167 37.088388,32 37.088388,32 L 22.160133,31.978069 C 22.160133,31.978069 26.997745,27.140456 26.997745,27.140456 C 18.528582,18.264221 13.291696,25.230495 11.500037,31.436501 z"
             style="fill:#404040;"/>
          </a>
         </g>
        </svg>
</svg>
