<?xml version="1.0" encoding="UTF-8" standalone="no"?>
<!DOCTYPE svg PUBLIC "-//W3C//DTD SVG 1.1//EN"
 "http://www.w3.org/Graphics/SVG/1.1/DTD/svg11.dtd">
<!-- Generated by graphviz version 5.0.0 (20220708.1001)
 -->
<!-- Title: vector_queue.h Pages: 1 -->
<svg width="788pt" height="588pt"
 viewBox="0.00 0.00 788.00 588.00" xmlns="http://www.w3.org/2000/svg" xmlns:xlink="http://www.w3.org/1999/xlink">
<g id="graph0" class="graph" transform="scale(1 1) rotate(0) translate(4 584)">
<title>vector_queue.h</title>
<polygon fill="white" stroke="transparent" points="-4,4 -4,-584 784,-584 784,4 -4,4"/>
<!-- Node1 -->
<g id="node1" class="node">
<title>Node1</title>
<g id="a_node1"><a xlink:title=" ">
<polygon fill="#bfbfbf" stroke="black" points="296.5,-560.5 296.5,-579.5 379.5,-579.5 379.5,-560.5 296.5,-560.5"/>
<text text-anchor="middle" x="338" y="-567.5" font-family="Helvetica,sans-Serif" font-size="10.00">vector_queue.h</text>
</a>
</g>
</g>
<!-- Node2 -->
<g id="node2" class="node">
<title>Node2</title>
<g id="a_node2"><a xlink:href="../../d2/d2f/belief__base_8h.html" target="_top" xlink:title=" ">
<polygon fill="white" stroke="black" points="428,-448.5 428,-467.5 502,-467.5 502,-448.5 428,-448.5"/>
<text text-anchor="middle" x="465" y="-455.5" font-family="Helvetica,sans-Serif" font-size="10.00">belief_base.h</text>
</a>
</g>
</g>
<!-- Node1&#45;&gt;Node2 -->
<g id="edge1" class="edge">
<title>Node1&#45;&gt;Node2</title>
<path fill="none" stroke="midnightblue" d="M360.34,-554.8C373,-546.39 388.87,-535.22 402,-524 423.51,-505.63 445.92,-480.96 457.33,-467.93"/>
<polygon fill="midnightblue" stroke="midnightblue" points="358.24,-551.99 351.78,-560.39 362.07,-557.85 358.24,-551.99"/>
</g>
<!-- Node7 -->
<g id="node7" class="node">
<title>Node7</title>
<g id="a_node7"><a xlink:href="../../d0/d77/body_8h.html" target="_top" xlink:title=" ">
<polygon fill="white" stroke="black" points="142,-336.5 142,-355.5 186,-355.5 186,-336.5 142,-336.5"/>
<text text-anchor="middle" x="164" y="-343.5" font-family="Helvetica,sans-Serif" font-size="10.00">body.h</text>
</a>
</g>
</g>
<!-- Node1&#45;&gt;Node7 -->
<g id="edge31" class="edge">
<title>Node1&#45;&gt;Node7</title>
<path fill="none" stroke="midnightblue" d="M286.03,-567.54C252.38,-563.67 210.44,-552.82 186,-524 143.14,-473.46 156.56,-383.73 162.12,-355.65"/>
<polygon fill="midnightblue" stroke="midnightblue" points="285.88,-571.04 296.17,-568.52 286.56,-564.07 285.88,-571.04"/>
</g>
<!-- Node12 -->
<g id="node12" class="node">
<title>Node12</title>
<g id="a_node12"><a xlink:href="../../df/d3f/intention_8h.html" target="_top" xlink:title=" ">
<polygon fill="white" stroke="black" points="426.5,-168.5 426.5,-187.5 487.5,-187.5 487.5,-168.5 426.5,-168.5"/>
<text text-anchor="middle" x="457" y="-175.5" font-family="Helvetica,sans-Serif" font-size="10.00">intention.h</text>
</a>
</g>
</g>
<!-- Node1&#45;&gt;Node12 -->
<g id="edge41" class="edge">
<title>Node1&#45;&gt;Node12</title>
<path fill="none" stroke="midnightblue" d="M338,-550.25C338,-528.36 338,-491.05 338,-459 338,-459 338,-459 338,-401 338,-307.86 420.38,-216.02 448.06,-187.8"/>
<polygon fill="midnightblue" stroke="midnightblue" points="334.5,-550.44 338,-560.44 341.5,-550.44 334.5,-550.44"/>
</g>
<!-- Node14 -->
<g id="node14" class="node">
<title>Node14</title>
<g id="a_node14"><a xlink:href="../../d8/d83/intention__base_8h.html" target="_top" xlink:title=" ">
<polygon fill="white" stroke="black" points="223.5,-112.5 223.5,-131.5 310.5,-131.5 310.5,-112.5 223.5,-112.5"/>
<text text-anchor="middle" x="267" y="-119.5" font-family="Helvetica,sans-Serif" font-size="10.00">intention_base.h</text>
</a>
</g>
</g>
<!-- Node1&#45;&gt;Node14 -->
<g id="edge42" class="edge">
<title>Node1&#45;&gt;Node14</title>
<path fill="none" stroke="midnightblue" d="M286.26,-563.06C191.57,-550.74 0,-518.47 0,-459 0,-459 0,-459 0,-233 0,-137.62 147.46,-123.25 223.21,-122.17"/>
<polygon fill="midnightblue" stroke="midnightblue" points="285.85,-566.54 296.22,-564.33 286.74,-559.59 285.85,-566.54"/>
</g>
<!-- Node17 -->
<g id="node17" class="node">
<title>Node17</title>
<g id="a_node17"><a xlink:href="../../de/d75/plan__base_8h.html" target="_top" xlink:title=" ">
<polygon fill="white" stroke="black" points="583,-224.5 583,-243.5 651,-243.5 651,-224.5 583,-224.5"/>
<text text-anchor="middle" x="617" y="-231.5" font-family="Helvetica,sans-Serif" font-size="10.00">plan_base.h</text>
</a>
</g>
</g>
<!-- Node1&#45;&gt;Node17 -->
<g id="edge43" class="edge">
<title>Node1&#45;&gt;Node17</title>
<path fill="none" stroke="midnightblue" d="M389.71,-566.99C506.38,-561.05 780,-538.64 780,-459 780,-459 780,-459 780,-345 780,-283.38 698.97,-253.97 651.17,-241.98"/>
<polygon fill="midnightblue" stroke="midnightblue" points="389.4,-563.5 379.58,-567.49 389.74,-570.49 389.4,-563.5"/>
</g>
<!-- Node21 -->
<g id="node21" class="node">
<title>Node21</title>
<g id="a_node21"><a xlink:href="../../dc/d1e/context_8h.html" target="_top" xlink:title=" ">
<polygon fill="white" stroke="black" points="404,-392.5 404,-411.5 460,-411.5 460,-392.5 404,-392.5"/>
<text text-anchor="middle" x="432" y="-399.5" font-family="Helvetica,sans-Serif" font-size="10.00">context.h</text>
</a>
</g>
</g>
<!-- Node1&#45;&gt;Node21 -->
<g id="edge32" class="edge">
<title>Node1&#45;&gt;Node21</title>
<path fill="none" stroke="midnightblue" d="M348.02,-551.31C368.06,-515.92 412.43,-437.56 427.15,-411.57"/>
<polygon fill="midnightblue" stroke="midnightblue" points="344.94,-549.65 343.05,-560.08 351.03,-553.1 344.94,-549.65"/>
</g>
<!-- Node23 -->
<g id="node23" class="node">
<title>Node23</title>
<g id="a_node23"><a xlink:href="../../d7/dc4/event__base_8h.html" target="_top" xlink:title=" ">
<polygon fill="white" stroke="black" points="195,-504.5 195,-523.5 269,-523.5 269,-504.5 195,-504.5"/>
<text text-anchor="middle" x="232" y="-511.5" font-family="Helvetica,sans-Serif" font-size="10.00">event_base.h</text>
</a>
</g>
</g>
<!-- Node1&#45;&gt;Node23 -->
<g id="edge33" class="edge">
<title>Node1&#45;&gt;Node23</title>
<path fill="none" stroke="midnightblue" d="M311.94,-555.73C292.32,-545.73 265.97,-532.31 248.99,-523.65"/>
<polygon fill="midnightblue" stroke="midnightblue" points="310.47,-558.9 320.97,-560.32 313.65,-552.67 310.47,-558.9"/>
</g>
<!-- Node3 -->
<g id="node3" class="node">
<title>Node3</title>
<g id="a_node3"><a xlink:href="../../de/d9e/agent_8h.html" target="_top" xlink:title=" ">
<polygon fill="white" stroke="black" points="612,-56.5 612,-75.5 660,-75.5 660,-56.5 612,-56.5"/>
<text text-anchor="middle" x="636" y="-63.5" font-family="Helvetica,sans-Serif" font-size="10.00">agent.h</text>
</a>
</g>
</g>
<!-- Node2&#45;&gt;Node3 -->
<g id="edge2" class="edge">
<title>Node2&#45;&gt;Node3</title>
<path fill="none" stroke="midnightblue" d="M512.38,-455.65C582.05,-450.85 704,-430.53 704,-347 704,-347 704,-347 704,-177 704,-133.44 664.95,-92.73 646.03,-75.57"/>
<polygon fill="midnightblue" stroke="midnightblue" points="511.85,-452.17 502.08,-456.27 512.27,-459.16 511.85,-452.17"/>
</g>
<!-- Node6 -->
<g id="node6" class="node">
<title>Node6</title>
<g id="a_node6"><a xlink:href="../../de/d9b/belief__base_8cpp.html" target="_top" xlink:title=" ">
<polygon fill="white" stroke="black" points="554,-392.5 554,-411.5 638,-411.5 638,-392.5 554,-392.5"/>
<text text-anchor="middle" x="596" y="-399.5" font-family="Helvetica,sans-Serif" font-size="10.00">belief_base.cpp</text>
</a>
</g>
</g>
<!-- Node2&#45;&gt;Node6 -->
<g id="edge5" class="edge">
<title>Node2&#45;&gt;Node6</title>
<path fill="none" stroke="midnightblue" d="M495.32,-444.5C519.88,-434.38 553.82,-420.39 575.34,-411.52"/>
<polygon fill="midnightblue" stroke="midnightblue" points="493.67,-441.4 485.76,-448.44 496.34,-447.87 493.67,-441.4"/>
</g>
<!-- Node2&#45;&gt;Node7 -->
<g id="edge6" class="edge">
<title>Node2&#45;&gt;Node7</title>
<path fill="none" stroke="midnightblue" d="M435.47,-444.56C402.98,-431.03 349.12,-409.06 302,-392 261.48,-377.33 213.52,-362.18 186.14,-353.74"/>
<polygon fill="midnightblue" stroke="midnightblue" points="434.25,-447.85 444.83,-448.47 436.95,-441.39 434.25,-447.85"/>
</g>
<!-- Node2&#45;&gt;Node12 -->
<g id="edge28" class="edge">
<title>Node2&#45;&gt;Node12</title>
<path fill="none" stroke="midnightblue" d="M481.49,-441.11C488.89,-433.07 497.04,-422.74 502,-412 512.6,-389.04 509.77,-381.18 512,-356 517.96,-288.69 477.13,-212.7 462.27,-187.57"/>
<polygon fill="midnightblue" stroke="midnightblue" points="478.95,-438.71 474.5,-448.32 483.97,-443.58 478.95,-438.71"/>
</g>
<!-- Node2&#45;&gt;Node14 -->
<g id="edge29" class="edge">
<title>Node2&#45;&gt;Node14</title>
<path fill="none" stroke="midnightblue" d="M472.28,-438.77C480.84,-414.49 492.29,-370.58 479,-336 439.88,-234.21 323.33,-156.66 281.86,-131.61"/>
<polygon fill="midnightblue" stroke="midnightblue" points="468.89,-437.85 468.65,-448.44 475.44,-440.31 468.89,-437.85"/>
</g>
<!-- Node2&#45;&gt;Node17 -->
<g id="edge30" class="edge">
<title>Node2&#45;&gt;Node17</title>
<path fill="none" stroke="midnightblue" d="M511.97,-451.92C560.21,-445.62 630.52,-433.06 647,-412 687.92,-359.73 639.98,-271.91 622.72,-243.88"/>
<polygon fill="midnightblue" stroke="midnightblue" points="511.52,-448.45 502.04,-453.17 512.4,-455.39 511.52,-448.45"/>
</g>
<!-- Node19 -->
<g id="node19" class="node">
<title>Node19</title>
<g id="a_node19"><a xlink:href="../../d8/d67/body__instruction_8h.html" target="_top" xlink:title=" ">
<polygon fill="white" stroke="black" points="198.5,-392.5 198.5,-411.5 293.5,-411.5 293.5,-392.5 198.5,-392.5"/>
<text text-anchor="middle" x="246" y="-399.5" font-family="Helvetica,sans-Serif" font-size="10.00">body_instruction.h</text>
</a>
</g>
</g>
<!-- Node2&#45;&gt;Node19 -->
<g id="edge22" class="edge">
<title>Node2&#45;&gt;Node19</title>
<path fill="none" stroke="midnightblue" d="M420.49,-446.02C379.12,-435.82 318.36,-420.84 280.54,-411.52"/>
<polygon fill="midnightblue" stroke="midnightblue" points="419.75,-449.45 430.3,-448.44 421.43,-442.65 419.75,-449.45"/>
</g>
<!-- Node2&#45;&gt;Node21 -->
<g id="edge25" class="edge">
<title>Node2&#45;&gt;Node21</title>
<path fill="none" stroke="midnightblue" d="M454.17,-439.27C448.53,-430.05 441.88,-419.17 437.35,-411.75"/>
<polygon fill="midnightblue" stroke="midnightblue" points="451.35,-441.38 459.55,-448.08 457.32,-437.73 451.35,-441.38"/>
</g>
<!-- Node4 -->
<g id="node4" class="node">
<title>Node4</title>
<g id="a_node4"><a xlink:href="../../dd/d3d/agent_8cpp.html" target="_top" xlink:title=" ">
<polygon fill="white" stroke="black" points="561.5,-0.5 561.5,-19.5 620.5,-19.5 620.5,-0.5 561.5,-0.5"/>
<text text-anchor="middle" x="591" y="-7.5" font-family="Helvetica,sans-Serif" font-size="10.00">agent.cpp</text>
</a>
</g>
</g>
<!-- Node3&#45;&gt;Node4 -->
<g id="edge3" class="edge">
<title>Node3&#45;&gt;Node4</title>
<path fill="none" stroke="midnightblue" d="M621.95,-48.14C614.11,-38.74 604.67,-27.4 598.29,-19.75"/>
<polygon fill="midnightblue" stroke="midnightblue" points="619.48,-50.64 628.57,-56.08 624.86,-46.16 619.48,-50.64"/>
</g>
<!-- Node5 -->
<g id="node5" class="node">
<title>Node5</title>
<g id="a_node5"><a xlink:href="../../d4/d91/agent__loop_8cpp.html" target="_top" xlink:title=" ">
<polygon fill="white" stroke="black" points="639,-0.5 639,-19.5 721,-19.5 721,-0.5 639,-0.5"/>
<text text-anchor="middle" x="680" y="-7.5" font-family="Helvetica,sans-Serif" font-size="10.00">agent_loop.cpp</text>
</a>
</g>
</g>
<!-- Node3&#45;&gt;Node5 -->
<g id="edge4" class="edge">
<title>Node3&#45;&gt;Node5</title>
<path fill="none" stroke="midnightblue" d="M649.73,-48.14C657.4,-38.74 666.63,-27.4 672.87,-19.75"/>
<polygon fill="midnightblue" stroke="midnightblue" points="646.87,-46.12 643.27,-56.08 652.3,-50.54 646.87,-46.12"/>
</g>
<!-- Node8 -->
<g id="node8" class="node">
<title>Node8</title>
<g id="a_node8"><a xlink:href="../../d1/d5f/body_8cpp.html" target="_top" xlink:title=" ">
<polygon fill="white" stroke="black" points="250.5,-280.5 250.5,-299.5 305.5,-299.5 305.5,-280.5 250.5,-280.5"/>
<text text-anchor="middle" x="278" y="-287.5" font-family="Helvetica,sans-Serif" font-size="10.00">body.cpp</text>
</a>
</g>
</g>
<!-- Node7&#45;&gt;Node8 -->
<g id="edge7" class="edge">
<title>Node7&#45;&gt;Node8</title>
<path fill="none" stroke="midnightblue" d="M191.24,-332.1C212.54,-322.01 241.54,-308.27 260.02,-299.52"/>
<polygon fill="midnightblue" stroke="midnightblue" points="189.6,-329 182.06,-336.44 192.6,-335.33 189.6,-329"/>
</g>
<!-- Node9 -->
<g id="node9" class="node">
<title>Node9</title>
<g id="a_node9"><a xlink:href="../../d9/d4e/plan_8h.html" target="_top" xlink:title=" ">
<polygon fill="white" stroke="black" points="190,-280.5 190,-299.5 232,-299.5 232,-280.5 190,-280.5"/>
<text text-anchor="middle" x="211" y="-287.5" font-family="Helvetica,sans-Serif" font-size="10.00">plan.h</text>
</a>
</g>
</g>
<!-- Node7&#45;&gt;Node9 -->
<g id="edge8" class="edge">
<title>Node7&#45;&gt;Node9</title>
<path fill="none" stroke="midnightblue" d="M178.42,-328.43C186.66,-318.97 196.65,-307.48 203.38,-299.75"/>
<polygon fill="midnightblue" stroke="midnightblue" points="175.69,-326.24 171.76,-336.08 180.97,-330.84 175.69,-326.24"/>
</g>
<!-- Node10 -->
<g id="node10" class="node">
<title>Node10</title>
<g id="a_node10"><a xlink:href="../../de/d3c/instantiated__plan_8h.html" target="_top" xlink:title=" ">
<polygon fill="white" stroke="black" points="201,-224.5 201,-243.5 299,-243.5 299,-224.5 201,-224.5"/>
<text text-anchor="middle" x="250" y="-231.5" font-family="Helvetica,sans-Serif" font-size="10.00">instantiated_plan.h</text>
</a>
</g>
</g>
<!-- Node9&#45;&gt;Node10 -->
<g id="edge9" class="edge">
<title>Node9&#45;&gt;Node10</title>
<path fill="none" stroke="midnightblue" d="M223.38,-271.86C230.14,-262.5 238.21,-251.33 243.68,-243.75"/>
<polygon fill="midnightblue" stroke="midnightblue" points="220.46,-269.93 217.44,-280.08 226.13,-274.03 220.46,-269.93"/>
</g>
<!-- Node9&#45;&gt;Node14 -->
<g id="edge16" class="edge">
<title>Node9&#45;&gt;Node14</title>
<path fill="none" stroke="midnightblue" d="M201.52,-271.16C189.75,-246.38 173.39,-200.87 192,-168 202.17,-150.03 222.71,-138.45 239.72,-131.55"/>
<polygon fill="midnightblue" stroke="midnightblue" points="198.55,-273.05 206.16,-280.42 204.8,-269.91 198.55,-273.05"/>
</g>
<!-- Node16 -->
<g id="node16" class="node">
<title>Node16</title>
<g id="a_node16"><a xlink:href="../../d7/df1/plan_8cpp.html" target="_top" xlink:title=" ">
<polygon fill="white" stroke="black" points="316.5,-224.5 316.5,-243.5 369.5,-243.5 369.5,-224.5 316.5,-224.5"/>
<text text-anchor="middle" x="343" y="-231.5" font-family="Helvetica,sans-Serif" font-size="10.00">plan.cpp</text>
</a>
</g>
</g>
<!-- Node9&#45;&gt;Node16 -->
<g id="edge17" class="edge">
<title>Node9&#45;&gt;Node16</title>
<path fill="none" stroke="midnightblue" d="M241.22,-276.64C265.99,-266.5 300.4,-252.43 322.18,-243.52"/>
<polygon fill="midnightblue" stroke="midnightblue" points="239.85,-273.42 231.92,-280.44 242.5,-279.9 239.85,-273.42"/>
</g>
<!-- Node9&#45;&gt;Node17 -->
<g id="edge18" class="edge">
<title>Node9&#45;&gt;Node17</title>
<path fill="none" stroke="midnightblue" d="M241.99,-280.12C372.87,-253.47 518.25,-241.52 582.98,-237.1"/>
<polygon fill="midnightblue" stroke="midnightblue" points="241.27,-276.7 232.19,-282.15 242.69,-283.55 241.27,-276.7"/>
</g>
<!-- Node11 -->
<g id="node11" class="node">
<title>Node11</title>
<g id="a_node11"><a xlink:href="../../df/dbd/instantiated__plan_8cpp.html" target="_top" xlink:title=" ">
<polygon fill="white" stroke="black" points="201,-168.5 201,-187.5 309,-187.5 309,-168.5 201,-168.5"/>
<text text-anchor="middle" x="255" y="-175.5" font-family="Helvetica,sans-Serif" font-size="10.00">instantiated_plan.cpp</text>
</a>
</g>
</g>
<!-- Node10&#45;&gt;Node11 -->
<g id="edge10" class="edge">
<title>Node10&#45;&gt;Node11</title>
<path fill="none" stroke="midnightblue" d="M251.75,-214.1C252.58,-205.14 253.53,-194.86 254.19,-187.75"/>
<polygon fill="midnightblue" stroke="midnightblue" points="248.26,-213.8 250.83,-224.08 255.23,-214.45 248.26,-213.8"/>
</g>
<!-- Node10&#45;&gt;Node12 -->
<g id="edge11" class="edge">
<title>Node10&#45;&gt;Node12</title>
<path fill="none" stroke="midnightblue" d="M292.5,-221.91C332.34,-211.52 390.93,-196.23 426.38,-186.99"/>
<polygon fill="midnightblue" stroke="midnightblue" points="291.59,-218.53 282.8,-224.44 293.36,-225.31 291.59,-218.53"/>
</g>
<!-- Node13 -->
<g id="node13" class="node">
<title>Node13</title>
<g id="a_node13"><a xlink:href="../../d4/db4/intention_8cpp.html" target="_top" xlink:title=" ">
<polygon fill="white" stroke="black" points="421.5,-112.5 421.5,-131.5 492.5,-131.5 492.5,-112.5 421.5,-112.5"/>
<text text-anchor="middle" x="457" y="-119.5" font-family="Helvetica,sans-Serif" font-size="10.00">intention.cpp</text>
</a>
</g>
</g>
<!-- Node12&#45;&gt;Node13 -->
<g id="edge12" class="edge">
<title>Node12&#45;&gt;Node13</title>
<path fill="none" stroke="midnightblue" d="M457,-157.8C457,-148.91 457,-138.78 457,-131.75"/>
<polygon fill="midnightblue" stroke="midnightblue" points="453.5,-158.08 457,-168.08 460.5,-158.08 453.5,-158.08"/>
</g>
<!-- Node12&#45;&gt;Node14 -->
<g id="edge13" class="edge">
<title>Node12&#45;&gt;Node14</title>
<path fill="none" stroke="midnightblue" d="M417.24,-165.7C381.38,-155.51 329.43,-140.74 296.97,-131.52"/>
<polygon fill="midnightblue" stroke="midnightblue" points="416.32,-169.08 426.89,-168.44 418.23,-162.34 416.32,-169.08"/>
</g>
<!-- Node14&#45;&gt;Node3 -->
<g id="edge14" class="edge">
<title>Node14&#45;&gt;Node3</title>
<path fill="none" stroke="midnightblue" d="M320.82,-113.12C402.13,-101.23 553.02,-79.14 611.74,-70.55"/>
<polygon fill="midnightblue" stroke="midnightblue" points="320.17,-109.68 310.78,-114.59 321.18,-116.61 320.17,-109.68"/>
</g>
<!-- Node15 -->
<g id="node15" class="node">
<title>Node15</title>
<g id="a_node15"><a xlink:href="../../d2/dd9/intention__base_8cpp.html" target="_top" xlink:title=" ">
<polygon fill="white" stroke="black" points="218,-56.5 218,-75.5 316,-75.5 316,-56.5 218,-56.5"/>
<text text-anchor="middle" x="267" y="-63.5" font-family="Helvetica,sans-Serif" font-size="10.00">intention_base.cpp</text>
</a>
</g>
</g>
<!-- Node14&#45;&gt;Node15 -->
<g id="edge15" class="edge">
<title>Node14&#45;&gt;Node15</title>
<path fill="none" stroke="midnightblue" d="M267,-101.8C267,-92.91 267,-82.78 267,-75.75"/>
<polygon fill="midnightblue" stroke="midnightblue" points="263.5,-102.08 267,-112.08 270.5,-102.08 263.5,-102.08"/>
</g>
<!-- Node17&#45;&gt;Node3 -->
<g id="edge19" class="edge">
<title>Node17&#45;&gt;Node3</title>
<path fill="none" stroke="midnightblue" d="M603.01,-216.37C597.15,-208.34 591.01,-198.24 588,-188 585.49,-179.47 586.04,-176.67 588,-168 596.24,-131.45 619.34,-92.6 630.21,-75.7"/>
<polygon fill="midnightblue" stroke="midnightblue" points="600.41,-218.73 609.33,-224.46 605.93,-214.42 600.41,-218.73"/>
</g>
<!-- Node17&#45;&gt;Node12 -->
<g id="edge20" class="edge">
<title>Node17&#45;&gt;Node12</title>
<path fill="none" stroke="midnightblue" d="M581.95,-221.17C551.83,-211 509.1,-196.59 482.23,-187.52"/>
<polygon fill="midnightblue" stroke="midnightblue" points="581.05,-224.56 591.65,-224.44 583.29,-217.93 581.05,-224.56"/>
</g>
<!-- Node18 -->
<g id="node18" class="node">
<title>Node18</title>
<g id="a_node18"><a xlink:href="../../d4/d51/plan__base_8cpp.html" target="_top" xlink:title=" ">
<polygon fill="white" stroke="black" points="596.5,-168.5 596.5,-187.5 675.5,-187.5 675.5,-168.5 596.5,-168.5"/>
<text text-anchor="middle" x="636" y="-175.5" font-family="Helvetica,sans-Serif" font-size="10.00">plan_base.cpp</text>
</a>
</g>
</g>
<!-- Node17&#45;&gt;Node18 -->
<g id="edge21" class="edge">
<title>Node17&#45;&gt;Node18</title>
<path fill="none" stroke="midnightblue" d="M623.55,-214.4C626.72,-205.36 630.39,-194.94 632.92,-187.75"/>
<polygon fill="midnightblue" stroke="midnightblue" points="620.15,-213.49 620.14,-224.08 626.76,-215.81 620.15,-213.49"/>
</g>
<!-- Node19&#45;&gt;Node7 -->
<g id="edge23" class="edge">
<title>Node19&#45;&gt;Node7</title>
<path fill="none" stroke="midnightblue" d="M224.17,-386.62C209.19,-376.76 189.8,-363.99 177.14,-355.65"/>
<polygon fill="midnightblue" stroke="midnightblue" points="222.55,-389.75 232.83,-392.32 226.4,-383.9 222.55,-389.75"/>
</g>
<!-- Node20 -->
<g id="node20" class="node">
<title>Node20</title>
<g id="a_node20"><a xlink:href="../../d4/d8b/body__instruction_8cpp.html" target="_top" xlink:title=" ">
<polygon fill="white" stroke="black" points="204.5,-336.5 204.5,-355.5 309.5,-355.5 309.5,-336.5 204.5,-336.5"/>
<text text-anchor="middle" x="257" y="-343.5" font-family="Helvetica,sans-Serif" font-size="10.00">body_instruction.cpp</text>
</a>
</g>
</g>
<!-- Node19&#45;&gt;Node20 -->
<g id="edge24" class="edge">
<title>Node19&#45;&gt;Node20</title>
<path fill="none" stroke="midnightblue" d="M249.85,-382.1C251.68,-373.14 253.77,-362.86 255.22,-355.75"/>
<polygon fill="midnightblue" stroke="midnightblue" points="246.38,-381.59 247.82,-392.08 253.24,-382.98 246.38,-381.59"/>
</g>
<!-- Node21&#45;&gt;Node9 -->
<g id="edge27" class="edge">
<title>Node21&#45;&gt;Node9</title>
<path fill="none" stroke="midnightblue" d="M409.71,-387.23C387.03,-373.47 350.69,-352.12 318,-336 288.9,-321.65 254.08,-307.55 232.25,-299.06"/>
<polygon fill="midnightblue" stroke="midnightblue" points="407.89,-390.22 418.25,-392.44 411.54,-384.25 407.89,-390.22"/>
</g>
<!-- Node22 -->
<g id="node22" class="node">
<title>Node22</title>
<g id="a_node22"><a xlink:href="../../db/d12/context_8cpp.html" target="_top" xlink:title=" ">
<polygon fill="white" stroke="black" points="404,-336.5 404,-355.5 470,-355.5 470,-336.5 404,-336.5"/>
<text text-anchor="middle" x="437" y="-343.5" font-family="Helvetica,sans-Serif" font-size="10.00">context.cpp</text>
</a>
</g>
</g>
<!-- Node21&#45;&gt;Node22 -->
<g id="edge26" class="edge">
<title>Node21&#45;&gt;Node22</title>
<path fill="none" stroke="midnightblue" d="M433.75,-382.1C434.58,-373.14 435.53,-362.86 436.19,-355.75"/>
<polygon fill="midnightblue" stroke="midnightblue" points="430.26,-381.8 432.83,-392.08 437.23,-382.45 430.26,-381.8"/>
</g>
<!-- Node23&#45;&gt;Node2 -->
<g id="edge35" class="edge">
<title>Node23&#45;&gt;Node2</title>
<path fill="none" stroke="midnightblue" d="M278.8,-502.15C322.83,-491.95 387.85,-476.88 428.25,-467.52"/>
<polygon fill="midnightblue" stroke="midnightblue" points="277.87,-498.78 268.92,-504.44 279.45,-505.6 277.87,-498.78"/>
</g>
<!-- Node23&#45;&gt;Node3 -->
<g id="edge34" class="edge">
<title>Node23&#45;&gt;Node3</title>
<path fill="none" stroke="midnightblue" d="M279.24,-512.78C405.63,-510.93 742,-497.16 742,-403 742,-403 742,-403 742,-177 742,-127.14 684.83,-91.19 654.46,-75.61"/>
<polygon fill="midnightblue" stroke="midnightblue" points="279.04,-509.28 269.09,-512.91 279.13,-516.28 279.04,-509.28"/>
</g>
<!-- Node23&#45;&gt;Node7 -->
<g id="edge36" class="edge">
<title>Node23&#45;&gt;Node7</title>
<path fill="none" stroke="midnightblue" d="M222.97,-495.47C218.84,-487.22 213.98,-477.19 210,-468 192.04,-426.55 173.92,-375.6 166.97,-355.62"/>
<polygon fill="midnightblue" stroke="midnightblue" points="219.9,-497.15 227.55,-504.48 226.14,-493.98 219.9,-497.15"/>
</g>
<!-- Node23&#45;&gt;Node9 -->
<g id="edge40" class="edge">
<title>Node23&#45;&gt;Node9</title>
<path fill="none" stroke="midnightblue" d="M216.99,-496.73C193.39,-469.88 148.68,-413.51 133,-356 130.66,-347.42 128.55,-343.7 133,-336 145.12,-315.02 171.16,-302.95 189.82,-296.69"/>
<polygon fill="midnightblue" stroke="midnightblue" points="214.57,-499.27 223.85,-504.38 219.78,-494.6 214.57,-499.27"/>
</g>
<!-- Node23&#45;&gt;Node14 -->
<g id="edge39" class="edge">
<title>Node23&#45;&gt;Node14</title>
<path fill="none" stroke="midnightblue" d="M185.62,-501.52C139.63,-487.03 76,-457.18 76,-403 76,-403 76,-403 76,-233 76,-165.46 166.79,-138.76 223.18,-128.7"/>
<polygon fill="midnightblue" stroke="midnightblue" points="184.84,-504.94 195.42,-504.46 186.85,-498.23 184.84,-504.94"/>
</g>
<!-- Node23&#45;&gt;Node19 -->
<g id="edge37" class="edge">
<title>Node23&#45;&gt;Node19</title>
<path fill="none" stroke="midnightblue" d="M221.94,-495.18C215.84,-482.04 210.09,-463.8 215,-448 219.4,-433.87 229.95,-420.25 237.52,-411.77"/>
<polygon fill="midnightblue" stroke="midnightblue" points="218.84,-496.79 226.51,-504.1 225.07,-493.6 218.84,-496.79"/>
</g>
<!-- Node24 -->
<g id="node24" class="node">
<title>Node24</title>
<g id="a_node24"><a xlink:href="../../d8/ddf/event__base_8cpp.html" target="_top" xlink:title=" ">
<polygon fill="white" stroke="black" points="224.5,-448.5 224.5,-467.5 309.5,-467.5 309.5,-448.5 224.5,-448.5"/>
<text text-anchor="middle" x="267" y="-455.5" font-family="Helvetica,sans-Serif" font-size="10.00">event_base.cpp</text>
</a>
</g>
</g>
<!-- Node23&#45;&gt;Node24 -->
<g id="edge38" class="edge">
<title>Node23&#45;&gt;Node24</title>
<path fill="none" stroke="midnightblue" d="M243.3,-495.57C249.32,-486.27 256.47,-475.25 261.33,-467.75"/>
<polygon fill="midnightblue" stroke="midnightblue" points="240.28,-493.79 237.78,-504.08 246.16,-497.6 240.28,-493.79"/>
</g>
</g>
</svg>
