<?xml version="1.0" encoding="UTF-8" standalone="no"?>
<!DOCTYPE svg PUBLIC "-//W3C//DTD SVG 1.1//EN"
 "http://www.w3.org/Graphics/SVG/1.1/DTD/svg11.dtd">
<!-- Generated by graphviz version 2.46.1 (20210215.1649)
 -->
<!-- Title: body_instruction.h Pages: 1 -->
<svg width="719pt" height="308pt"
 viewBox="0.00 0.00 719.42 308.00" xmlns="http://www.w3.org/2000/svg" xmlns:xlink="http://www.w3.org/1999/xlink">
<g id="graph0" class="graph" transform="scale(1 1) rotate(0) translate(4 304)">
<title>body_instruction.h</title>
<polygon fill="white" stroke="transparent" points="-4,4 -4,-304 715.42,-304 715.42,4 -4,4"/>
<!-- Node1 -->
<g id="node1" class="node">
<title>Node1</title>
<g id="a_node1"><a xlink:title=" ">
<polygon fill="#bfbfbf" stroke="black" points="536.92,-280.5 536.92,-299.5 631.92,-299.5 631.92,-280.5 536.92,-280.5"/>
<text text-anchor="middle" x="584.42" y="-287.5" font-family="Helvetica,sans-Serif" font-size="10.00">body_instruction.h</text>
</a>
</g>
</g>
<!-- Node2 -->
<g id="node2" class="node">
<title>Node2</title>
<g id="a_node2"><a xlink:href="../../d0/d96/body__type_8h.html" target="_top" xlink:title=" ">
<polygon fill="white" stroke="black" points="615.42,-168.5 615.42,-187.5 683.42,-187.5 683.42,-168.5 615.42,-168.5"/>
<text text-anchor="middle" x="649.42" y="-175.5" font-family="Helvetica,sans-Serif" font-size="10.00">body_type.h</text>
</a>
</g>
</g>
<!-- Node1&#45;&gt;Node2 -->
<g id="edge1" class="edge">
<title>Node1&#45;&gt;Node2</title>
<path fill="none" stroke="midnightblue" d="M596.29,-280.29C606.72,-272.04 621.57,-258.75 630.42,-244 639.02,-229.67 643.93,-211.2 646.59,-197.62"/>
<polygon fill="midnightblue" stroke="midnightblue" points="650.08,-198 648.34,-187.55 643.18,-196.81 650.08,-198"/>
</g>
<!-- Node3 -->
<g id="node3" class="node">
<title>Node3</title>
<g id="a_node3"><a xlink:href="../../d9/ded/body__return_8h.html" target="_top" xlink:title=" ">
<polygon fill="white" stroke="black" points="547.42,-224.5 547.42,-243.5 621.42,-243.5 621.42,-224.5 547.42,-224.5"/>
<text text-anchor="middle" x="584.42" y="-231.5" font-family="Helvetica,sans-Serif" font-size="10.00">body_return.h</text>
</a>
</g>
</g>
<!-- Node1&#45;&gt;Node3 -->
<g id="edge2" class="edge">
<title>Node1&#45;&gt;Node3</title>
<path fill="none" stroke="midnightblue" d="M584.42,-280.08C584.42,-273.01 584.42,-262.86 584.42,-253.99"/>
<polygon fill="midnightblue" stroke="midnightblue" points="587.92,-253.75 584.42,-243.75 580.92,-253.75 587.92,-253.75"/>
</g>
<!-- Node6 -->
<g id="node6" class="node">
<title>Node6</title>
<g id="a_node6"><a xlink:title=" ">
<polygon fill="white" stroke="#bfbfbf" points="407.42,-0.5 407.42,-19.5 453.42,-19.5 453.42,-0.5 407.42,-0.5"/>
<text text-anchor="middle" x="430.42" y="-7.5" font-family="Helvetica,sans-Serif" font-size="10.00">cstdint</text>
</a>
</g>
</g>
<!-- Node1&#45;&gt;Node6 -->
<g id="edge26" class="edge">
<title>Node1&#45;&gt;Node6</title>
<path fill="none" stroke="midnightblue" d="M609.21,-280.41C646.17,-265.83 711.42,-232.53 711.42,-179 711.42,-179 711.42,-179 711.42,-121 711.42,-68.44 538.83,-30.7 464.17,-16.84"/>
<polygon fill="midnightblue" stroke="midnightblue" points="464.36,-13.31 453.9,-14.96 463.11,-20.2 464.36,-13.31"/>
</g>
<!-- Node9 -->
<g id="node9" class="node">
<title>Node9</title>
<g id="a_node9"><a xlink:href="../../d2/d2f/belief__base_8h.html" target="_top" xlink:title=" ">
<polygon fill="white" stroke="black" points="368.92,-224.5 368.92,-243.5 465.92,-243.5 465.92,-224.5 368.92,-224.5"/>
<text text-anchor="middle" x="417.42" y="-231.5" font-family="Helvetica,sans-Serif" font-size="10.00">../bdi/belief_base.h</text>
</a>
</g>
</g>
<!-- Node1&#45;&gt;Node9 -->
<g id="edge12" class="edge">
<title>Node1&#45;&gt;Node9</title>
<path fill="none" stroke="midnightblue" d="M557.96,-280.44C529.74,-271.32 484.88,-256.81 453.45,-246.65"/>
<polygon fill="midnightblue" stroke="midnightblue" points="454.35,-243.26 443.76,-243.52 452.2,-249.92 454.35,-243.26"/>
</g>
<!-- Node11 -->
<g id="node11" class="node">
<title>Node11</title>
<g id="a_node11"><a xlink:href="../../d7/dc4/event__base_8h.html" target="_top" xlink:title=" ">
<polygon fill="white" stroke="black" points="255.42,-168.5 255.42,-187.5 329.42,-187.5 329.42,-168.5 255.42,-168.5"/>
<text text-anchor="middle" x="292.42" y="-175.5" font-family="Helvetica,sans-Serif" font-size="10.00">event_base.h</text>
</a>
</g>
</g>
<!-- Node1&#45;&gt;Node11 -->
<g id="edge25" class="edge">
<title>Node1&#45;&gt;Node11</title>
<path fill="none" stroke="midnightblue" d="M536.85,-287.11C489.67,-283.52 416.52,-273.25 360.42,-244 337.9,-232.26 317.66,-210.8 305.23,-195.76"/>
<polygon fill="midnightblue" stroke="midnightblue" points="307.82,-193.41 298.85,-187.77 302.35,-197.77 307.82,-193.41"/>
</g>
<!-- Node3&#45;&gt;Node2 -->
<g id="edge3" class="edge">
<title>Node3&#45;&gt;Node2</title>
<path fill="none" stroke="midnightblue" d="M594.86,-224.32C604.57,-216.26 619.24,-204.08 630.92,-194.37"/>
<polygon fill="midnightblue" stroke="midnightblue" points="633.33,-196.92 638.79,-187.83 628.86,-191.53 633.33,-196.92"/>
</g>
<!-- Node4 -->
<g id="node4" class="node">
<title>Node4</title>
<g id="a_node4"><a xlink:href="../../dd/d20/event_8h.html" target="_top" xlink:title=" ">
<polygon fill="white" stroke="black" points="259.92,-112.5 259.92,-131.5 330.92,-131.5 330.92,-112.5 259.92,-112.5"/>
<text text-anchor="middle" x="295.42" y="-119.5" font-family="Helvetica,sans-Serif" font-size="10.00">../bdi/event.h</text>
</a>
</g>
</g>
<!-- Node3&#45;&gt;Node4 -->
<g id="edge4" class="edge">
<title>Node3&#45;&gt;Node4</title>
<path fill="none" stroke="midnightblue" d="M561.74,-224.37C510.67,-204.93 386.52,-157.67 327.55,-135.23"/>
<polygon fill="midnightblue" stroke="midnightblue" points="328.58,-131.88 317.99,-131.59 326.09,-138.42 328.58,-131.88"/>
</g>
<!-- Node3&#45;&gt;Node6 -->
<g id="edge11" class="edge">
<title>Node3&#45;&gt;Node6</title>
<path fill="none" stroke="midnightblue" d="M583.7,-224.48C580.93,-196.78 568.7,-108.09 522.42,-56 506.83,-38.46 482.86,-27.04 463.3,-20.1"/>
<polygon fill="midnightblue" stroke="midnightblue" points="464.13,-16.69 453.54,-16.87 461.93,-23.33 464.13,-16.69"/>
</g>
<!-- Node5 -->
<g id="node5" class="node">
<title>Node5</title>
<g id="a_node5"><a xlink:href="../../de/d93/statement_8h.html" target="_top" xlink:title=" ">
<polygon fill="white" stroke="black" points="377.42,-56.5 377.42,-75.5 483.42,-75.5 483.42,-56.5 377.42,-56.5"/>
<text text-anchor="middle" x="430.42" y="-63.5" font-family="Helvetica,sans-Serif" font-size="10.00">../syntax/statement.h</text>
</a>
</g>
</g>
<!-- Node4&#45;&gt;Node5 -->
<g id="edge5" class="edge">
<title>Node4&#45;&gt;Node5</title>
<path fill="none" stroke="midnightblue" d="M316.81,-112.44C339.13,-103.52 374.32,-89.44 399.63,-79.32"/>
<polygon fill="midnightblue" stroke="midnightblue" points="401.15,-82.48 409.13,-75.52 398.55,-75.98 401.15,-82.48"/>
</g>
<!-- Node4&#45;&gt;Node6 -->
<g id="edge10" class="edge">
<title>Node4&#45;&gt;Node6</title>
<path fill="none" stroke="midnightblue" d="M259.6,-119.45C198.32,-115.54 83.66,-102.01 123.42,-56 158.51,-15.39 324.99,-10.74 397.05,-10.67"/>
<polygon fill="midnightblue" stroke="midnightblue" points="397.36,-14.17 407.37,-10.69 397.37,-7.17 397.36,-14.17"/>
</g>
<!-- Node7 -->
<g id="node7" class="node">
<title>Node7</title>
<g id="a_node7"><a xlink:href="../../db/d50/event__operator_8h.html" target="_top" xlink:title=" ">
<polygon fill="white" stroke="black" points="231.92,-56.5 231.92,-75.5 358.92,-75.5 358.92,-56.5 231.92,-56.5"/>
<text text-anchor="middle" x="295.42" y="-63.5" font-family="Helvetica,sans-Serif" font-size="10.00">../syntax/event_operator.h</text>
</a>
</g>
</g>
<!-- Node4&#45;&gt;Node7 -->
<g id="edge7" class="edge">
<title>Node4&#45;&gt;Node7</title>
<path fill="none" stroke="midnightblue" d="M295.42,-112.08C295.42,-105.01 295.42,-94.86 295.42,-85.99"/>
<polygon fill="midnightblue" stroke="midnightblue" points="298.92,-85.75 295.42,-75.75 291.92,-85.75 298.92,-85.75"/>
</g>
<!-- Node8 -->
<g id="node8" class="node">
<title>Node8</title>
<g id="a_node8"><a xlink:href="../../df/dc3/event__id_8h.html" target="_top" xlink:title=" ">
<polygon fill="white" stroke="black" points="132.92,-56.5 132.92,-75.5 213.92,-75.5 213.92,-56.5 132.92,-56.5"/>
<text text-anchor="middle" x="173.42" y="-63.5" font-family="Helvetica,sans-Serif" font-size="10.00">../lib/event_id.h</text>
</a>
</g>
</g>
<!-- Node4&#45;&gt;Node8 -->
<g id="edge8" class="edge">
<title>Node4&#45;&gt;Node8</title>
<path fill="none" stroke="midnightblue" d="M276.09,-112.44C256.1,-103.6 224.68,-89.69 201.86,-79.59"/>
<polygon fill="midnightblue" stroke="midnightblue" points="203.22,-76.36 192.66,-75.52 200.39,-82.76 203.22,-76.36"/>
</g>
<!-- Node5&#45;&gt;Node6 -->
<g id="edge6" class="edge">
<title>Node5&#45;&gt;Node6</title>
<path fill="none" stroke="midnightblue" d="M430.42,-56.08C430.42,-49.01 430.42,-38.86 430.42,-29.99"/>
<polygon fill="midnightblue" stroke="midnightblue" points="433.92,-29.75 430.42,-19.75 426.92,-29.75 433.92,-29.75"/>
</g>
<!-- Node8&#45;&gt;Node6 -->
<g id="edge9" class="edge">
<title>Node8&#45;&gt;Node6</title>
<path fill="none" stroke="midnightblue" d="M214.14,-56.44C264.8,-45.8 350.33,-27.83 397.22,-17.98"/>
<polygon fill="midnightblue" stroke="midnightblue" points="398.09,-21.37 407.16,-15.89 396.65,-14.52 398.09,-21.37"/>
</g>
<!-- Node9&#45;&gt;Node4 -->
<g id="edge16" class="edge">
<title>Node9&#45;&gt;Node4</title>
<path fill="none" stroke="midnightblue" d="M412.75,-224.12C405.37,-210.71 389.92,-185.05 371.42,-168 357.32,-155 338.86,-143.97 323.67,-136.08"/>
<polygon fill="midnightblue" stroke="midnightblue" points="325.21,-132.93 314.7,-131.58 322.07,-139.19 325.21,-132.93"/>
</g>
<!-- Node9&#45;&gt;Node6 -->
<g id="edge24" class="edge">
<title>Node9&#45;&gt;Node6</title>
<path fill="none" stroke="midnightblue" d="M424.74,-224.2C443.11,-201.47 490.85,-138.24 507.42,-76 509.71,-67.41 511.85,-63.71 507.42,-56 497.82,-39.27 479.34,-28.17 462.88,-21.18"/>
<polygon fill="midnightblue" stroke="midnightblue" points="464.1,-17.9 453.51,-17.53 461.56,-24.42 464.1,-17.9"/>
</g>
<!-- Node10 -->
<g id="node10" class="node">
<title>Node10</title>
<g id="a_node10"><a xlink:href="../../da/db8/belief_8h.html" target="_top" xlink:title=" ">
<polygon fill="white" stroke="black" points="409.92,-112.5 409.92,-131.5 456.92,-131.5 456.92,-112.5 409.92,-112.5"/>
<text text-anchor="middle" x="433.42" y="-119.5" font-family="Helvetica,sans-Serif" font-size="10.00">belief.h</text>
</a>
</g>
</g>
<!-- Node9&#45;&gt;Node10 -->
<g id="edge13" class="edge">
<title>Node9&#45;&gt;Node10</title>
<path fill="none" stroke="midnightblue" d="M418.68,-224.37C421.26,-206.62 427.22,-165.67 430.72,-141.6"/>
<polygon fill="midnightblue" stroke="midnightblue" points="434.2,-141.99 432.17,-131.59 427.27,-140.98 434.2,-141.99"/>
</g>
<!-- Node9&#45;&gt;Node11 -->
<g id="edge17" class="edge">
<title>Node9&#45;&gt;Node11</title>
<path fill="none" stroke="midnightblue" d="M397.61,-224.44C377.13,-215.6 344.94,-201.69 321.56,-191.59"/>
<polygon fill="midnightblue" stroke="midnightblue" points="322.7,-188.27 312.14,-187.52 319.93,-194.7 322.7,-188.27"/>
</g>
<!-- Node12 -->
<g id="node12" class="node">
<title>Node12</title>
<g id="a_node12"><a xlink:href="../../d0/d81/vector__queue_8h.html" target="_top" xlink:title=" ">
<polygon fill="white" stroke="black" points="70.92,-112.5 70.92,-131.5 173.92,-131.5 173.92,-112.5 70.92,-112.5"/>
<text text-anchor="middle" x="122.42" y="-119.5" font-family="Helvetica,sans-Serif" font-size="10.00">../lib/vector_queue.h</text>
</a>
</g>
</g>
<!-- Node9&#45;&gt;Node12 -->
<g id="edge23" class="edge">
<title>Node9&#45;&gt;Node12</title>
<path fill="none" stroke="midnightblue" d="M409.61,-224.28C396.42,-210.12 368.21,-182.28 338.42,-168 289.55,-144.58 228.73,-133.3 184.08,-127.9"/>
<polygon fill="midnightblue" stroke="midnightblue" points="184.29,-124.4 173.96,-126.74 183.5,-131.35 184.29,-124.4"/>
</g>
<!-- Node10&#45;&gt;Node5 -->
<g id="edge14" class="edge">
<title>Node10&#45;&gt;Node5</title>
<path fill="none" stroke="midnightblue" d="M432.93,-112.08C432.53,-105.01 431.97,-94.86 431.48,-85.99"/>
<polygon fill="midnightblue" stroke="midnightblue" points="434.96,-85.54 430.91,-75.75 427.97,-85.93 434.96,-85.54"/>
</g>
<!-- Node10&#45;&gt;Node6 -->
<g id="edge15" class="edge">
<title>Node10&#45;&gt;Node6</title>
<path fill="none" stroke="midnightblue" d="M451.78,-112.34C473.24,-100.92 504.4,-79.49 492.42,-56 485.42,-42.27 472.06,-31.75 459.52,-24.35"/>
<polygon fill="midnightblue" stroke="midnightblue" points="461.1,-21.22 450.64,-19.51 457.75,-27.37 461.1,-21.22"/>
</g>
<!-- Node11&#45;&gt;Node4 -->
<g id="edge18" class="edge">
<title>Node11&#45;&gt;Node4</title>
<path fill="none" stroke="midnightblue" d="M292.92,-168.08C293.31,-161.01 293.87,-150.86 294.37,-141.99"/>
<polygon fill="midnightblue" stroke="midnightblue" points="297.88,-141.93 294.94,-131.75 290.89,-141.54 297.88,-141.93"/>
</g>
<!-- Node11&#45;&gt;Node6 -->
<g id="edge22" class="edge">
<title>Node11&#45;&gt;Node6</title>
<path fill="none" stroke="midnightblue" d="M255.14,-174.07C163.97,-165.59 -57.66,-136.3 14.42,-56 39.89,-27.63 303.28,-15.53 397.3,-12.09"/>
<polygon fill="midnightblue" stroke="midnightblue" points="397.52,-15.59 407.39,-11.73 397.27,-8.59 397.52,-15.59"/>
</g>
<!-- Node11&#45;&gt;Node12 -->
<g id="edge19" class="edge">
<title>Node11&#45;&gt;Node12</title>
<path fill="none" stroke="midnightblue" d="M265.48,-168.44C236.76,-159.32 191.09,-144.81 159.1,-134.65"/>
<polygon fill="midnightblue" stroke="midnightblue" points="159.82,-131.21 149.23,-131.52 157.7,-137.88 159.82,-131.21"/>
</g>
<!-- Node12&#45;&gt;Node6 -->
<g id="edge21" class="edge">
<title>Node12&#45;&gt;Node6</title>
<path fill="none" stroke="midnightblue" d="M87.53,-112.46C50.51,-101.8 0.31,-81.81 23.42,-56 48.23,-28.3 304.32,-15.82 397.1,-12.18"/>
<polygon fill="midnightblue" stroke="midnightblue" points="397.47,-15.67 407.32,-11.79 397.2,-8.68 397.47,-15.67"/>
</g>
<!-- Node13 -->
<g id="node13" class="node">
<title>Node13</title>
<g id="a_node13"><a xlink:title=" ">
<polygon fill="white" stroke="#bfbfbf" points="32.42,-56.5 32.42,-75.5 76.42,-75.5 76.42,-56.5 32.42,-56.5"/>
<text text-anchor="middle" x="54.42" y="-63.5" font-family="Helvetica,sans-Serif" font-size="10.00">vector</text>
</a>
</g>
</g>
<!-- Node12&#45;&gt;Node13 -->
<g id="edge20" class="edge">
<title>Node12&#45;&gt;Node13</title>
<path fill="none" stroke="midnightblue" d="M111.5,-112.32C101.25,-104.18 85.7,-91.84 73.42,-82.09"/>
<polygon fill="midnightblue" stroke="midnightblue" points="75.55,-79.31 65.55,-75.83 71.2,-84.79 75.55,-79.31"/>
</g>
</g>
</svg>
