<?xml version="1.0" encoding="UTF-8" standalone="no"?>
<!DOCTYPE svg PUBLIC "-//W3C//DTD SVG 1.1//EN"
 "http://www.w3.org/Graphics/SVG/1.1/DTD/svg11.dtd">
<!-- Generated by graphviz version 2.47.1 (20210421.1823)
 -->
<!-- Title: body_instruction.h Pages: 1 -->
<svg width="723pt" height="308pt"
 viewBox="0.00 0.00 723.46 308.00" xmlns="http://www.w3.org/2000/svg" xmlns:xlink="http://www.w3.org/1999/xlink">
<g id="graph0" class="graph" transform="scale(1 1) rotate(0) translate(4 304)">
<title>body_instruction.h</title>
<polygon fill="white" stroke="transparent" points="-4,4 -4,-304 719.46,-304 719.46,4 -4,4"/>
<!-- Node1 -->
<g id="node1" class="node">
<title>Node1</title>
<g id="a_node1"><a xlink:title=" ">
<polygon fill="#bfbfbf" stroke="black" points="540.96,-280.5 540.96,-299.5 635.96,-299.5 635.96,-280.5 540.96,-280.5"/>
<text text-anchor="middle" x="588.46" y="-287.5" font-family="Helvetica,sans-Serif" font-size="10.00">body_instruction.h</text>
</a>
</g>
</g>
<!-- Node2 -->
<g id="node2" class="node">
<title>Node2</title>
<g id="a_node2"><a xlink:href="../../d0/d96/body__type_8h.html" target="_top" xlink:title=" ">
<polygon fill="white" stroke="black" points="619.46,-168.5 619.46,-187.5 687.46,-187.5 687.46,-168.5 619.46,-168.5"/>
<text text-anchor="middle" x="653.46" y="-175.5" font-family="Helvetica,sans-Serif" font-size="10.00">body_type.h</text>
</a>
</g>
</g>
<!-- Node1&#45;&gt;Node2 -->
<g id="edge1" class="edge">
<title>Node1&#45;&gt;Node2</title>
<path fill="none" stroke="midnightblue" d="M600.34,-280.29C610.76,-272.04 625.61,-258.75 634.46,-244 643.06,-229.67 647.97,-211.2 650.64,-197.62"/>
<polygon fill="midnightblue" stroke="midnightblue" points="654.12,-198 652.38,-187.55 647.22,-196.81 654.12,-198"/>
</g>
<!-- Node3 -->
<g id="node3" class="node">
<title>Node3</title>
<g id="a_node3"><a xlink:href="../../d9/ded/body__return_8h.html" target="_top" xlink:title=" ">
<polygon fill="white" stroke="black" points="551.46,-224.5 551.46,-243.5 625.46,-243.5 625.46,-224.5 551.46,-224.5"/>
<text text-anchor="middle" x="588.46" y="-231.5" font-family="Helvetica,sans-Serif" font-size="10.00">body_return.h</text>
</a>
</g>
</g>
<!-- Node1&#45;&gt;Node3 -->
<g id="edge2" class="edge">
<title>Node1&#45;&gt;Node3</title>
<path fill="none" stroke="midnightblue" d="M588.46,-280.08C588.46,-273.01 588.46,-262.86 588.46,-253.99"/>
<polygon fill="midnightblue" stroke="midnightblue" points="591.96,-253.75 588.46,-243.75 584.96,-253.75 591.96,-253.75"/>
</g>
<!-- Node6 -->
<g id="node6" class="node">
<title>Node6</title>
<g id="a_node6"><a xlink:title=" ">
<polygon fill="white" stroke="#bfbfbf" points="409.46,-0.5 409.46,-19.5 455.46,-19.5 455.46,-0.5 409.46,-0.5"/>
<text text-anchor="middle" x="432.46" y="-7.5" font-family="Helvetica,sans-Serif" font-size="10.00">cstdint</text>
</a>
</g>
</g>
<!-- Node1&#45;&gt;Node6 -->
<g id="edge26" class="edge">
<title>Node1&#45;&gt;Node6</title>
<path fill="none" stroke="midnightblue" d="M613.25,-280.41C650.21,-265.83 715.46,-232.53 715.46,-179 715.46,-179 715.46,-179 715.46,-121 715.46,-67.99 540.81,-30.38 465.92,-16.69"/>
<polygon fill="midnightblue" stroke="midnightblue" points="466.08,-13.17 455.62,-14.85 464.85,-20.06 466.08,-13.17"/>
</g>
<!-- Node9 -->
<g id="node9" class="node">
<title>Node9</title>
<g id="a_node9"><a xlink:href="../../d2/d2f/belief__base_8h.html" target="_top" xlink:title=" ">
<polygon fill="white" stroke="black" points="369.96,-224.5 369.96,-243.5 466.96,-243.5 466.96,-224.5 369.96,-224.5"/>
<text text-anchor="middle" x="418.46" y="-231.5" font-family="Helvetica,sans-Serif" font-size="10.00">../bdi/belief_base.h</text>
</a>
</g>
</g>
<!-- Node1&#45;&gt;Node9 -->
<g id="edge12" class="edge">
<title>Node1&#45;&gt;Node9</title>
<path fill="none" stroke="midnightblue" d="M561.53,-280.44C532.8,-271.32 487.14,-256.81 455.14,-246.65"/>
<polygon fill="midnightblue" stroke="midnightblue" points="455.87,-243.21 445.28,-243.52 453.75,-249.88 455.87,-243.21"/>
</g>
<!-- Node11 -->
<g id="node11" class="node">
<title>Node11</title>
<g id="a_node11"><a xlink:href="../../d7/dc4/event__base_8h.html" target="_top" xlink:title=" ">
<polygon fill="white" stroke="black" points="256.46,-168.5 256.46,-187.5 330.46,-187.5 330.46,-168.5 256.46,-168.5"/>
<text text-anchor="middle" x="293.46" y="-175.5" font-family="Helvetica,sans-Serif" font-size="10.00">event_base.h</text>
</a>
</g>
</g>
<!-- Node1&#45;&gt;Node11 -->
<g id="edge25" class="edge">
<title>Node1&#45;&gt;Node11</title>
<path fill="none" stroke="midnightblue" d="M540.7,-287.27C492.92,-283.81 418.5,-273.64 361.46,-244 338.93,-232.29 318.69,-210.83 306.26,-195.78"/>
<polygon fill="midnightblue" stroke="midnightblue" points="308.86,-193.42 299.89,-187.78 303.38,-197.78 308.86,-193.42"/>
</g>
<!-- Node3&#45;&gt;Node2 -->
<g id="edge3" class="edge">
<title>Node3&#45;&gt;Node2</title>
<path fill="none" stroke="midnightblue" d="M598.91,-224.32C608.61,-216.26 623.28,-204.08 634.96,-194.37"/>
<polygon fill="midnightblue" stroke="midnightblue" points="637.38,-196.92 642.83,-187.83 632.9,-191.53 637.38,-196.92"/>
</g>
<!-- Node4 -->
<g id="node4" class="node">
<title>Node4</title>
<g id="a_node4"><a xlink:href="../../dd/d20/event_8h.html" target="_top" xlink:title=" ">
<polygon fill="white" stroke="black" points="259.96,-112.5 259.96,-131.5 330.96,-131.5 330.96,-112.5 259.96,-112.5"/>
<text text-anchor="middle" x="295.46" y="-119.5" font-family="Helvetica,sans-Serif" font-size="10.00">../bdi/event.h</text>
</a>
</g>
</g>
<!-- Node3&#45;&gt;Node4 -->
<g id="edge4" class="edge">
<title>Node3&#45;&gt;Node4</title>
<path fill="none" stroke="midnightblue" d="M565.47,-224.37C513.7,-204.93 387.82,-157.67 328.04,-135.23"/>
<polygon fill="midnightblue" stroke="midnightblue" points="328.94,-131.83 318.35,-131.59 326.48,-138.38 328.94,-131.83"/>
</g>
<!-- Node3&#45;&gt;Node6 -->
<g id="edge11" class="edge">
<title>Node3&#45;&gt;Node6</title>
<path fill="none" stroke="midnightblue" d="M587.76,-224.46C585.05,-196.71 572.96,-107.89 526.46,-56 510.35,-38.02 485.49,-26.55 465.39,-19.7"/>
<polygon fill="midnightblue" stroke="midnightblue" points="466.26,-16.31 455.67,-16.61 464.14,-22.98 466.26,-16.31"/>
</g>
<!-- Node5 -->
<g id="node5" class="node">
<title>Node5</title>
<g id="a_node5"><a xlink:href="../../d5/d6b/proposition_8h.html" target="_top" xlink:title=" ">
<polygon fill="white" stroke="black" points="377.46,-56.5 377.46,-75.5 487.46,-75.5 487.46,-56.5 377.46,-56.5"/>
<text text-anchor="middle" x="432.46" y="-63.5" font-family="Helvetica,sans-Serif" font-size="10.00">../syntax/proposition.h</text>
</a>
</g>
</g>
<!-- Node4&#45;&gt;Node5 -->
<g id="edge5" class="edge">
<title>Node4&#45;&gt;Node5</title>
<path fill="none" stroke="midnightblue" d="M317.17,-112.44C339.82,-103.52 375.54,-89.44 401.22,-79.32"/>
<polygon fill="midnightblue" stroke="midnightblue" points="402.84,-82.44 410.86,-75.52 400.27,-75.93 402.84,-82.44"/>
</g>
<!-- Node4&#45;&gt;Node6 -->
<g id="edge10" class="edge">
<title>Node4&#45;&gt;Node6</title>
<path fill="none" stroke="midnightblue" d="M259.63,-119.44C198.35,-115.53 83.68,-101.99 123.46,-56 158.8,-15.15 326.35,-10.63 398.87,-10.63"/>
<polygon fill="midnightblue" stroke="midnightblue" points="399.25,-14.13 409.26,-10.66 399.27,-7.13 399.25,-14.13"/>
</g>
<!-- Node7 -->
<g id="node7" class="node">
<title>Node7</title>
<g id="a_node7"><a xlink:href="../../db/d50/event__operator_8h.html" target="_top" xlink:title=" ">
<polygon fill="white" stroke="black" points="231.96,-56.5 231.96,-75.5 358.96,-75.5 358.96,-56.5 231.96,-56.5"/>
<text text-anchor="middle" x="295.46" y="-63.5" font-family="Helvetica,sans-Serif" font-size="10.00">../syntax/event_operator.h</text>
</a>
</g>
</g>
<!-- Node4&#45;&gt;Node7 -->
<g id="edge7" class="edge">
<title>Node4&#45;&gt;Node7</title>
<path fill="none" stroke="midnightblue" d="M295.46,-112.08C295.46,-105.01 295.46,-94.86 295.46,-85.99"/>
<polygon fill="midnightblue" stroke="midnightblue" points="298.96,-85.75 295.46,-75.75 291.96,-85.75 298.96,-85.75"/>
</g>
<!-- Node8 -->
<g id="node8" class="node">
<title>Node8</title>
<g id="a_node8"><a xlink:href="../../df/dc3/event__id_8h.html" target="_top" xlink:title=" ">
<polygon fill="white" stroke="black" points="132.96,-56.5 132.96,-75.5 213.96,-75.5 213.96,-56.5 132.96,-56.5"/>
<text text-anchor="middle" x="173.46" y="-63.5" font-family="Helvetica,sans-Serif" font-size="10.00">../lib/event_id.h</text>
</a>
</g>
</g>
<!-- Node4&#45;&gt;Node8 -->
<g id="edge8" class="edge">
<title>Node4&#45;&gt;Node8</title>
<path fill="none" stroke="midnightblue" d="M276.13,-112.44C256.14,-103.6 224.72,-89.69 201.9,-79.59"/>
<polygon fill="midnightblue" stroke="midnightblue" points="203.27,-76.36 192.71,-75.52 200.43,-82.76 203.27,-76.36"/>
</g>
<!-- Node5&#45;&gt;Node6 -->
<g id="edge6" class="edge">
<title>Node5&#45;&gt;Node6</title>
<path fill="none" stroke="midnightblue" d="M432.46,-56.08C432.46,-49.01 432.46,-38.86 432.46,-29.99"/>
<polygon fill="midnightblue" stroke="midnightblue" points="435.96,-29.75 432.46,-19.75 428.96,-29.75 435.96,-29.75"/>
</g>
<!-- Node8&#45;&gt;Node6 -->
<g id="edge9" class="edge">
<title>Node8&#45;&gt;Node6</title>
<path fill="none" stroke="midnightblue" d="M214.22,-56.5C265.34,-45.84 352.01,-27.77 399.29,-17.92"/>
<polygon fill="midnightblue" stroke="midnightblue" points="400.23,-21.3 409.31,-15.83 398.8,-14.44 400.23,-21.3"/>
</g>
<!-- Node9&#45;&gt;Node4 -->
<g id="edge16" class="edge">
<title>Node9&#45;&gt;Node4</title>
<path fill="none" stroke="midnightblue" d="M413.81,-224.11C406.44,-210.68 391.01,-185 372.46,-168 358.19,-154.92 339.49,-143.88 324.09,-136.01"/>
<polygon fill="midnightblue" stroke="midnightblue" points="325.52,-132.81 315,-131.53 322.42,-139.09 325.52,-132.81"/>
</g>
<!-- Node9&#45;&gt;Node6 -->
<g id="edge24" class="edge">
<title>Node9&#45;&gt;Node6</title>
<path fill="none" stroke="midnightblue" d="M426.02,-224.25C444.99,-201.63 494.31,-138.64 511.46,-76 513.81,-67.43 515.93,-63.69 511.46,-56 501.52,-38.89 482.36,-27.74 465.41,-20.83"/>
<polygon fill="midnightblue" stroke="midnightblue" points="466.35,-17.44 455.76,-17.23 463.91,-24 466.35,-17.44"/>
</g>
<!-- Node10 -->
<g id="node10" class="node">
<title>Node10</title>
<g id="a_node10"><a xlink:href="../../da/db8/belief_8h.html" target="_top" xlink:title=" ">
<polygon fill="white" stroke="black" points="410.96,-112.5 410.96,-131.5 457.96,-131.5 457.96,-112.5 410.96,-112.5"/>
<text text-anchor="middle" x="434.46" y="-119.5" font-family="Helvetica,sans-Serif" font-size="10.00">belief.h</text>
</a>
</g>
</g>
<!-- Node9&#45;&gt;Node10 -->
<g id="edge13" class="edge">
<title>Node9&#45;&gt;Node10</title>
<path fill="none" stroke="midnightblue" d="M419.72,-224.37C422.3,-206.62 428.26,-165.67 431.76,-141.6"/>
<polygon fill="midnightblue" stroke="midnightblue" points="435.24,-141.99 433.21,-131.59 428.31,-140.98 435.24,-141.99"/>
</g>
<!-- Node9&#45;&gt;Node11 -->
<g id="edge17" class="edge">
<title>Node9&#45;&gt;Node11</title>
<path fill="none" stroke="midnightblue" d="M398.66,-224.44C378.18,-215.6 345.98,-201.69 322.6,-191.59"/>
<polygon fill="midnightblue" stroke="midnightblue" points="323.75,-188.27 313.18,-187.52 320.97,-194.7 323.75,-188.27"/>
</g>
<!-- Node12 -->
<g id="node12" class="node">
<title>Node12</title>
<g id="a_node12"><a xlink:href="../../d0/d81/vector__queue_8h.html" target="_top" xlink:title=" ">
<polygon fill="white" stroke="black" points="70.96,-112.5 70.96,-131.5 173.96,-131.5 173.96,-112.5 70.96,-112.5"/>
<text text-anchor="middle" x="122.46" y="-119.5" font-family="Helvetica,sans-Serif" font-size="10.00">../lib/vector_queue.h</text>
</a>
</g>
</g>
<!-- Node9&#45;&gt;Node12 -->
<g id="edge23" class="edge">
<title>Node9&#45;&gt;Node12</title>
<path fill="none" stroke="midnightblue" d="M410.66,-224.28C397.46,-210.11 369.26,-182.26 339.46,-168 290.37,-144.5 229.26,-133.23 184.41,-127.85"/>
<polygon fill="midnightblue" stroke="midnightblue" points="184.57,-124.34 174.24,-126.7 183.78,-131.3 184.57,-124.34"/>
</g>
<!-- Node10&#45;&gt;Node5 -->
<g id="edge14" class="edge">
<title>Node10&#45;&gt;Node5</title>
<path fill="none" stroke="midnightblue" d="M434.13,-112.08C433.87,-105.01 433.5,-94.86 433.17,-85.99"/>
<polygon fill="midnightblue" stroke="midnightblue" points="436.66,-85.61 432.79,-75.75 429.66,-85.87 436.66,-85.61"/>
</g>
<!-- Node10&#45;&gt;Node6 -->
<g id="edge15" class="edge">
<title>Node10&#45;&gt;Node6</title>
<path fill="none" stroke="midnightblue" d="M453.71,-112.48C476.21,-101.21 508.9,-79.94 496.46,-56 489.31,-42.23 475.79,-31.78 463.02,-24.44"/>
<polygon fill="midnightblue" stroke="midnightblue" points="464.42,-21.23 453.95,-19.64 461.15,-27.41 464.42,-21.23"/>
</g>
<!-- Node11&#45;&gt;Node4 -->
<g id="edge18" class="edge">
<title>Node11&#45;&gt;Node4</title>
<path fill="none" stroke="midnightblue" d="M293.79,-168.08C294.06,-161.01 294.43,-150.86 294.76,-141.99"/>
<polygon fill="midnightblue" stroke="midnightblue" points="298.27,-141.87 295.14,-131.75 291.27,-141.61 298.27,-141.87"/>
</g>
<!-- Node11&#45;&gt;Node6 -->
<g id="edge22" class="edge">
<title>Node11&#45;&gt;Node6</title>
<path fill="none" stroke="midnightblue" d="M256.38,-174.12C165.1,-165.75 -57.94,-136.62 14.46,-56 40.06,-27.5 304.72,-15.48 399.19,-12.08"/>
<polygon fill="midnightblue" stroke="midnightblue" points="399.45,-15.57 409.33,-11.72 399.21,-8.58 399.45,-15.57"/>
</g>
<!-- Node11&#45;&gt;Node12 -->
<g id="edge19" class="edge">
<title>Node11&#45;&gt;Node12</title>
<path fill="none" stroke="midnightblue" d="M266.37,-168.44C237.48,-159.32 191.54,-144.81 159.36,-134.65"/>
<polygon fill="midnightblue" stroke="midnightblue" points="160.02,-131.19 149.43,-131.52 157.92,-137.87 160.02,-131.19"/>
</g>
<!-- Node12&#45;&gt;Node6 -->
<g id="edge21" class="edge">
<title>Node12&#45;&gt;Node6</title>
<path fill="none" stroke="midnightblue" d="M87.57,-112.45C50.55,-101.8 0.35,-81.8 23.46,-56 48.42,-28.14 306.27,-15.75 399.26,-12.16"/>
<polygon fill="midnightblue" stroke="midnightblue" points="399.39,-15.66 409.25,-11.78 399.13,-8.66 399.39,-15.66"/>
</g>
<!-- Node13 -->
<g id="node13" class="node">
<title>Node13</title>
<g id="a_node13"><a xlink:title=" ">
<polygon fill="white" stroke="#bfbfbf" points="32.46,-56.5 32.46,-75.5 76.46,-75.5 76.46,-56.5 32.46,-56.5"/>
<text text-anchor="middle" x="54.46" y="-63.5" font-family="Helvetica,sans-Serif" font-size="10.00">vector</text>
</a>
</g>
</g>
<!-- Node12&#45;&gt;Node13 -->
<g id="edge20" class="edge">
<title>Node12&#45;&gt;Node13</title>
<path fill="none" stroke="midnightblue" d="M111.54,-112.32C101.29,-104.18 85.74,-91.84 73.46,-82.09"/>
<polygon fill="midnightblue" stroke="midnightblue" points="75.6,-79.31 65.59,-75.83 71.24,-84.79 75.6,-79.31"/>
</g>
</g>
</svg>
