<?xml version="1.0" encoding="UTF-8" standalone="no"?>
<!DOCTYPE svg PUBLIC "-//W3C//DTD SVG 1.1//EN"
 "http://www.w3.org/Graphics/SVG/1.1/DTD/svg11.dtd">
<!-- Generated by graphviz version 5.0.0 (20220708.1001)
 -->
<!-- Title: Event Pages: 1 -->
<svg width="198pt" height="259pt"
 viewBox="0.00 0.00 198.00 259.00" xmlns="http://www.w3.org/2000/svg" xmlns:xlink="http://www.w3.org/1999/xlink">
<g id="graph0" class="graph" transform="scale(1 1) rotate(0) translate(4 255)">
<title>Event</title>
<polygon fill="white" stroke="transparent" points="-4,4 -4,-255 194,-255 194,4 -4,4"/>
<!-- Node1 -->
<g id="node1" class="node">
<title>Node1</title>
<g id="a_node1"><a xlink:title=" ">
<polygon fill="#bfbfbf" stroke="black" points="43.5,-0.5 43.5,-101.5 140.5,-101.5 140.5,-0.5 43.5,-0.5"/>
<text text-anchor="middle" x="92" y="-89.5" font-family="Helvetica,sans-Serif" font-size="10.00">Event</text>
<polyline fill="none" stroke="black" points="43.5,-82.5 140.5,-82.5 "/>
<text text-anchor="start" x="51.5" y="-70.5" font-family="Helvetica,sans-Serif" font-size="10.00">&#45; _operator</text>
<polyline fill="none" stroke="black" points="43.5,-63.5 140.5,-63.5 "/>
<text text-anchor="start" x="51.5" y="-51.5" font-family="Helvetica,sans-Serif" font-size="10.00">+ Event()</text>
<text text-anchor="start" x="51.5" y="-40.5" font-family="Helvetica,sans-Serif" font-size="10.00">+ Event()</text>
<text text-anchor="start" x="51.5" y="-29.5" font-family="Helvetica,sans-Serif" font-size="10.00">+ get_operator()</text>
<text text-anchor="start" x="51.5" y="-18.5" font-family="Helvetica,sans-Serif" font-size="10.00">+ get_proposition()</text>
<text text-anchor="start" x="51.5" y="-7.5" font-family="Helvetica,sans-Serif" font-size="10.00">+ get_event_id()</text>
</a>
</g>
</g>
<!-- Node2 -->
<g id="node2" class="node">
<title>Node2</title>
<g id="a_node2"><a xlink:href="../../df/d75/class_proposition.html" target="_top" xlink:title=" ">
<polygon fill="white" stroke="black" points="0,-149.5 0,-250.5 80,-250.5 80,-149.5 0,-149.5"/>
<text text-anchor="middle" x="40" y="-238.5" font-family="Helvetica,sans-Serif" font-size="10.00">Proposition</text>
<polyline fill="none" stroke="black" points="0,-231.5 80,-231.5 "/>
<text text-anchor="start" x="8" y="-219.5" font-family="Helvetica,sans-Serif" font-size="10.00">&#45; _name</text>
<polyline fill="none" stroke="black" points="0,-212.5 80,-212.5 "/>
<text text-anchor="start" x="8" y="-200.5" font-family="Helvetica,sans-Serif" font-size="10.00">+ Proposition()</text>
<text text-anchor="start" x="8" y="-189.5" font-family="Helvetica,sans-Serif" font-size="10.00">+ Proposition()</text>
<text text-anchor="start" x="8" y="-178.5" font-family="Helvetica,sans-Serif" font-size="10.00">+ is_equal()</text>
<text text-anchor="start" x="8" y="-167.5" font-family="Helvetica,sans-Serif" font-size="10.00">+ is_equal()</text>
<text text-anchor="start" x="8" y="-156.5" font-family="Helvetica,sans-Serif" font-size="10.00">+ get_name()</text>
</a>
</g>
</g>
<!-- Node2&#45;&gt;Node1 -->
<g id="edge1" class="edge">
<title>Node2&#45;&gt;Node1</title>
<path fill="none" stroke="#404040" d="M54.26,-149.46C57.31,-139.64 60.63,-129.45 64,-120 64.84,-117.65 65.71,-115.27 66.61,-112.86"/>
<polygon fill="none" stroke="#404040" points="66.65,-112.75 65.07,-105.72 70.95,-101.55 72.54,-108.59 66.65,-112.75"/>
<text text-anchor="middle" x="93" y="-123" font-family="Helvetica,sans-Serif" font-size="10.00"> &#45;_proposition</text>
</g>
<!-- Node3 -->
<g id="node3" class="node">
<title>Node3</title>
<g id="a_node3"><a xlink:href="../../d6/d06/class_event_i_d.html" target="_top" xlink:title=" ">
<polygon fill="white" stroke="black" points="98,-149.5 98,-250.5 190,-250.5 190,-149.5 98,-149.5"/>
<text text-anchor="middle" x="144" y="-238.5" font-family="Helvetica,sans-Serif" font-size="10.00">EventID</text>
<polyline fill="none" stroke="black" points="98,-231.5 190,-231.5 "/>
<text text-anchor="start" x="106" y="-219.5" font-family="Helvetica,sans-Serif" font-size="10.00"># id</text>
<text text-anchor="start" x="106" y="-208.5" font-family="Helvetica,sans-Serif" font-size="10.00">&#45; _id</text>
<polyline fill="none" stroke="black" points="98,-201.5 190,-201.5 "/>
<text text-anchor="start" x="106" y="-189.5" font-family="Helvetica,sans-Serif" font-size="10.00">+ EventID()</text>
<text text-anchor="start" x="106" y="-178.5" font-family="Helvetica,sans-Serif" font-size="10.00">+ is_equal()</text>
<text text-anchor="start" x="106" y="-167.5" font-family="Helvetica,sans-Serif" font-size="10.00">+ get_id()</text>
<text text-anchor="start" x="106" y="-156.5" font-family="Helvetica,sans-Serif" font-size="10.00">+ get_control_id()</text>
</a>
</g>
</g>
<!-- Node3&#45;&gt;Node1 -->
<g id="edge2" class="edge">
<title>Node3&#45;&gt;Node1</title>
<path fill="none" stroke="#404040" d="M131.35,-149.35C128.52,-139.54 125.36,-129.38 122,-120 121.2,-117.77 120.36,-115.51 119.49,-113.23"/>
<polygon fill="none" stroke="#404040" points="119.38,-112.95 113.45,-108.86 114.95,-101.8 120.88,-105.9 119.38,-112.95"/>
<text text-anchor="middle" x="134.5" y="-123" font-family="Helvetica,sans-Serif" font-size="10.00"> &#45;_id</text>
</g>
</g>
</svg>
