<?xml version="1.0" encoding="UTF-8" standalone="no"?>
<!DOCTYPE svg PUBLIC "-//W3C//DTD SVG 1.1//EN"
 "http://www.w3.org/Graphics/SVG/1.1/DTD/svg11.dtd">
<!-- Generated by graphviz version 2.47.1 (20210421.1823)
 -->
<!-- Title: Event Pages: 1 -->
<svg width="194pt" height="248pt"
 viewBox="0.00 0.00 194.00 248.00" xmlns="http://www.w3.org/2000/svg" xmlns:xlink="http://www.w3.org/1999/xlink">
<g id="graph0" class="graph" transform="scale(1 1) rotate(0) translate(4 244)">
<title>Event</title>
<polygon fill="white" stroke="transparent" points="-4,4 -4,-244 190,-244 190,4 -4,4"/>
<!-- Node1 -->
<g id="node1" class="node">
<title>Node1</title>
<g id="a_node1"><a xlink:title=" ">
<polygon fill="#bfbfbf" stroke="black" points="50.5,-0.5 50.5,-90.5 143.5,-90.5 143.5,-0.5 50.5,-0.5"/>
<text text-anchor="middle" x="97" y="-78.5" font-family="Helvetica,sans-Serif" font-size="10.00">Event</text>
<polyline fill="none" stroke="black" points="50.5,-71.5 143.5,-71.5 "/>
<text text-anchor="start" x="58.5" y="-59.5" font-family="Helvetica,sans-Serif" font-size="10.00">&#45; _operator</text>
<polyline fill="none" stroke="black" points="50.5,-52.5 143.5,-52.5 "/>
<text text-anchor="start" x="58.5" y="-40.5" font-family="Helvetica,sans-Serif" font-size="10.00">+ Event()</text>
<text text-anchor="start" x="58.5" y="-29.5" font-family="Helvetica,sans-Serif" font-size="10.00">+ get_operator()</text>
<text text-anchor="start" x="58.5" y="-18.5" font-family="Helvetica,sans-Serif" font-size="10.00">+ get_statement()</text>
<text text-anchor="start" x="58.5" y="-7.5" font-family="Helvetica,sans-Serif" font-size="10.00">+ get_event_id()</text>
</a>
</g>
</g>
<!-- Node2 -->
<g id="node2" class="node">
<title>Node2</title>
<g id="a_node2"><a xlink:href="../../d6/d06/class_event_i_d.html" target="_top" xlink:title=" ">
<polygon fill="white" stroke="black" points="0,-138.5 0,-239.5 92,-239.5 92,-138.5 0,-138.5"/>
<text text-anchor="middle" x="46" y="-227.5" font-family="Helvetica,sans-Serif" font-size="10.00">EventID</text>
<polyline fill="none" stroke="black" points="0,-220.5 92,-220.5 "/>
<text text-anchor="start" x="8" y="-208.5" font-family="Helvetica,sans-Serif" font-size="10.00"># id</text>
<text text-anchor="start" x="8" y="-197.5" font-family="Helvetica,sans-Serif" font-size="10.00">&#45; _id</text>
<polyline fill="none" stroke="black" points="0,-190.5 92,-190.5 "/>
<text text-anchor="start" x="8" y="-178.5" font-family="Helvetica,sans-Serif" font-size="10.00">+ EventID()</text>
<text text-anchor="start" x="8" y="-167.5" font-family="Helvetica,sans-Serif" font-size="10.00">+ is_equal()</text>
<text text-anchor="start" x="8" y="-156.5" font-family="Helvetica,sans-Serif" font-size="10.00">+ get_id()</text>
<text text-anchor="start" x="8" y="-145.5" font-family="Helvetica,sans-Serif" font-size="10.00">+ get_control_id()</text>
</a>
</g>
</g>
<!-- Node2&#45;&gt;Node1 -->
<g id="edge1" class="edge">
<title>Node2&#45;&gt;Node1</title>
<path fill="none" stroke="#404040" d="M63.98,-138.11C68.15,-126.54 72.62,-114.14 76.88,-102.33"/>
<polygon fill="none" stroke="#404040" points="76.98,-102.05 75.25,-95.05 81.05,-90.76 82.78,-97.76 76.98,-102.05"/>
<text text-anchor="middle" x="83.5" y="-112" font-family="Helvetica,sans-Serif" font-size="10.00"> &#45;_id</text>
</g>
<!-- Node3 -->
<g id="node3" class="node">
<title>Node3</title>
<g id="a_node3"><a xlink:href="../../d7/da3/class_statement.html" target="_top" xlink:title=" ">
<polygon fill="white" stroke="black" points="110,-138.5 110,-239.5 186,-239.5 186,-138.5 110,-138.5"/>
<text text-anchor="middle" x="148" y="-227.5" font-family="Helvetica,sans-Serif" font-size="10.00">Statement</text>
<polyline fill="none" stroke="black" points="110,-220.5 186,-220.5 "/>
<text text-anchor="start" x="118" y="-208.5" font-family="Helvetica,sans-Serif" font-size="10.00">&#45; _name</text>
<polyline fill="none" stroke="black" points="110,-201.5 186,-201.5 "/>
<text text-anchor="start" x="118" y="-189.5" font-family="Helvetica,sans-Serif" font-size="10.00">+ Statement()</text>
<text text-anchor="start" x="118" y="-178.5" font-family="Helvetica,sans-Serif" font-size="10.00">+ Statement()</text>
<text text-anchor="start" x="118" y="-167.5" font-family="Helvetica,sans-Serif" font-size="10.00">+ is_equal()</text>
<text text-anchor="start" x="118" y="-156.5" font-family="Helvetica,sans-Serif" font-size="10.00">+ is_equal()</text>
<text text-anchor="start" x="118" y="-145.5" font-family="Helvetica,sans-Serif" font-size="10.00">+ get_name()</text>
</a>
</g>
</g>
<!-- Node3&#45;&gt;Node1 -->
<g id="edge2" class="edge">
<title>Node3&#45;&gt;Node1</title>
<path fill="none" stroke="#404040" d="M130.02,-138.11C125.85,-126.54 121.38,-114.14 117.12,-102.33"/>
<polygon fill="none" stroke="#404040" points="117.02,-102.05 111.22,-97.76 112.95,-90.76 118.75,-95.05 117.02,-102.05"/>
<text text-anchor="middle" x="149.5" y="-112" font-family="Helvetica,sans-Serif" font-size="10.00"> &#45;_statement</text>
</g>
</g>
</svg>
