<?xml version="1.0" encoding="UTF-8" standalone="no"?>
<!DOCTYPE svg PUBLIC "-//W3C//DTD SVG 1.1//EN"
 "http://www.w3.org/Graphics/SVG/1.1/DTD/svg11.dtd">
<!-- Generated by graphviz version 2.46.1 (20210215.1649)
 -->
<!-- Title: event.cpp Pages: 1 -->
<svg width="397pt" height="196pt"
 viewBox="0.00 0.00 396.50 196.00" xmlns="http://www.w3.org/2000/svg" xmlns:xlink="http://www.w3.org/1999/xlink">
<g id="graph0" class="graph" transform="scale(1 1) rotate(0) translate(4 192)">
<title>event.cpp</title>
<polygon fill="white" stroke="transparent" points="-4,4 -4,-192 392.5,-192 392.5,4 -4,4"/>
<!-- Node1 -->
<g id="node1" class="node">
<title>Node1</title>
<g id="a_node1"><a xlink:title=" ">
<polygon fill="#bfbfbf" stroke="black" points="150.5,-168.5 150.5,-187.5 209.5,-187.5 209.5,-168.5 150.5,-168.5"/>
<text text-anchor="middle" x="180" y="-175.5" font-family="Helvetica,sans-Serif" font-size="10.00">event.cpp</text>
</a>
</g>
</g>
<!-- Node2 -->
<g id="node2" class="node">
<title>Node2</title>
<g id="a_node2"><a xlink:href="../../dd/d20/event_8h.html" target="_top" xlink:title=" ">
<polygon fill="white" stroke="black" points="156,-112.5 156,-131.5 204,-131.5 204,-112.5 156,-112.5"/>
<text text-anchor="middle" x="180" y="-119.5" font-family="Helvetica,sans-Serif" font-size="10.00">event.h</text>
</a>
</g>
</g>
<!-- Node1&#45;&gt;Node2 -->
<g id="edge1" class="edge">
<title>Node1&#45;&gt;Node2</title>
<path fill="none" stroke="midnightblue" d="M180,-168.08C180,-161.01 180,-150.86 180,-141.99"/>
<polygon fill="midnightblue" stroke="midnightblue" points="183.5,-141.75 180,-131.75 176.5,-141.75 183.5,-141.75"/>
</g>
<!-- Node3 -->
<g id="node3" class="node">
<title>Node3</title>
<g id="a_node3"><a xlink:href="../../de/d93/statement_8h.html" target="_top" xlink:title=" ">
<polygon fill="white" stroke="black" points="0,-56.5 0,-75.5 106,-75.5 106,-56.5 0,-56.5"/>
<text text-anchor="middle" x="53" y="-63.5" font-family="Helvetica,sans-Serif" font-size="10.00">../syntax/statement.h</text>
</a>
</g>
</g>
<!-- Node2&#45;&gt;Node3 -->
<g id="edge2" class="edge">
<title>Node2&#45;&gt;Node3</title>
<path fill="none" stroke="midnightblue" d="M159.88,-112.44C138.98,-103.56 106.07,-89.56 82.28,-79.45"/>
<polygon fill="midnightblue" stroke="midnightblue" points="83.6,-76.21 73.03,-75.52 80.86,-82.65 83.6,-76.21"/>
</g>
<!-- Node4 -->
<g id="node4" class="node">
<title>Node4</title>
<g id="a_node4"><a xlink:title=" ">
<polygon fill="white" stroke="#bfbfbf" points="111,-0.5 111,-19.5 157,-19.5 157,-0.5 111,-0.5"/>
<text text-anchor="middle" x="134" y="-7.5" font-family="Helvetica,sans-Serif" font-size="10.00">cstdint</text>
</a>
</g>
</g>
<!-- Node2&#45;&gt;Node4 -->
<g id="edge7" class="edge">
<title>Node2&#45;&gt;Node4</title>
<path fill="none" stroke="midnightblue" d="M174.21,-112.34C168.48,-103.5 159.77,-89.23 154,-76 147.36,-60.78 141.98,-42.67 138.48,-29.43"/>
<polygon fill="midnightblue" stroke="midnightblue" points="141.85,-28.47 136,-19.63 135.06,-30.19 141.85,-28.47"/>
</g>
<!-- Node5 -->
<g id="node5" class="node">
<title>Node5</title>
<g id="a_node5"><a xlink:href="../../db/d50/event__operator_8h.html" target="_top" xlink:title=" ">
<polygon fill="white" stroke="black" points="162.5,-56.5 162.5,-75.5 289.5,-75.5 289.5,-56.5 162.5,-56.5"/>
<text text-anchor="middle" x="226" y="-63.5" font-family="Helvetica,sans-Serif" font-size="10.00">../syntax/event_operator.h</text>
</a>
</g>
</g>
<!-- Node2&#45;&gt;Node5 -->
<g id="edge4" class="edge">
<title>Node2&#45;&gt;Node5</title>
<path fill="none" stroke="midnightblue" d="M187.6,-112.08C194.23,-104.3 204.02,-92.8 212.06,-83.37"/>
<polygon fill="midnightblue" stroke="midnightblue" points="214.73,-85.63 218.55,-75.75 209.4,-81.09 214.73,-85.63"/>
</g>
<!-- Node6 -->
<g id="node6" class="node">
<title>Node6</title>
<g id="a_node6"><a xlink:href="../../df/dc3/event__id_8h.html" target="_top" xlink:title=" ">
<polygon fill="white" stroke="black" points="307.5,-56.5 307.5,-75.5 388.5,-75.5 388.5,-56.5 307.5,-56.5"/>
<text text-anchor="middle" x="348" y="-63.5" font-family="Helvetica,sans-Serif" font-size="10.00">../lib/event_id.h</text>
</a>
</g>
</g>
<!-- Node2&#45;&gt;Node6 -->
<g id="edge5" class="edge">
<title>Node2&#45;&gt;Node6</title>
<path fill="none" stroke="midnightblue" d="M204.07,-113.26C232.27,-104.2 279.28,-89.09 311.87,-78.61"/>
<polygon fill="midnightblue" stroke="midnightblue" points="313.03,-81.92 321.48,-75.52 310.89,-75.25 313.03,-81.92"/>
</g>
<!-- Node3&#45;&gt;Node4 -->
<g id="edge3" class="edge">
<title>Node3&#45;&gt;Node4</title>
<path fill="none" stroke="midnightblue" d="M66.01,-56.32C78.53,-47.98 97.68,-35.21 112.47,-25.35"/>
<polygon fill="midnightblue" stroke="midnightblue" points="114.64,-28.11 121.02,-19.65 110.76,-22.29 114.64,-28.11"/>
</g>
<!-- Node6&#45;&gt;Node4 -->
<g id="edge6" class="edge">
<title>Node6&#45;&gt;Node4</title>
<path fill="none" stroke="midnightblue" d="M314.09,-56.44C273.76,-46.27 206.89,-29.39 166.97,-19.32"/>
<polygon fill="midnightblue" stroke="midnightblue" points="167.75,-15.91 157.2,-16.85 166.04,-22.69 167.75,-15.91"/>
</g>
</g>
</svg>
