<?xml version="1.0" encoding="UTF-8" standalone="no"?>
<!DOCTYPE svg PUBLIC "-//W3C//DTD SVG 1.1//EN"
 "http://www.w3.org/Graphics/SVG/1.1/DTD/svg11.dtd">
<!-- Generated by graphviz version 5.0.0 (20220708.1001)
 -->
<!-- Title: instantiated_plan.h Pages: 1 -->
<!--zoomable 476 -->
<svg id="main" version="1.1" xmlns="http://www.w3.org/2000/svg" xmlns:xlink="http://www.w3.org/1999/xlink" xml:space="preserve" onload="init(evt)">
<style type="text/css"><![CDATA[
.edge:hover path { stroke: red; }
.edge:hover polygon { stroke: red; fill: red; }
]]></style>
<script type="text/javascript"><![CDATA[
var edges = document.getElementsByTagName('g');
if (edges && edges.length) {
  for (var i=0;i<edges.length;i++) {
    if (edges[i].id.substr(0,4)=='edge') {
      edges[i].setAttribute('class','edge');
    }
  }
}
]]></script>
        <defs>
                <circle id="rim" cx="0" cy="0" r="7"/>
                <circle id="rim2" cx="0" cy="0" r="3.5"/>
                <g id="zoomPlus">
                        <use xlink:href="#rim" fill="#404040">
                                <set attributeName="fill" to="#808080" begin="zoomplus.mouseover" end="zoomplus.mouseout"/>
                        </use>
                        <path d="M-4,0h8M0,-4v8" fill="none" stroke="white" stroke-width="1.5" pointer-events="none"/>
                </g>
                <g id="zoomMin">
                        <use xlink:href="#rim" fill="#404040">
                                <set attributeName="fill" to="#808080" begin="zoomminus.mouseover" end="zoomminus.mouseout"/>
                        </use>
                        <path d="M-4,0h8" fill="none" stroke="white" stroke-width="1.5" pointer-events="none"/>
                </g>
                <g id="dirArrow">
                        <path fill="none" stroke="white" stroke-width="1.5" d="M0,-3.0v7 M-2.5,-0.5L0,-3.0L2.5,-0.5"/>
                </g>
               <g id="resetDef">
                       <use xlink:href="#rim2" fill="#404040">
                               <set attributeName="fill" to="#808080" begin="reset.mouseover" end="reset.mouseout"/>
                       </use>
               </g>
        </defs>

<script type="text/javascript">
var viewWidth = 864;
var viewHeight = 476;
var sectionId = 'dynsection-0';
</script>
<script xlink:href="../../svgpan.js"/>
<svg id="graph" class="graph">
<g id="viewport">
<title>instantiated_plan.h</title>
<polygon fill="white" stroke="transparent" points="-4,4 -4,-472 860,-472 860,4 -4,4"/>
<!-- Node1 -->
<g id="node1" class="node">
<title>Node1</title>
<g id="a_node1"><a xlink:title=" ">
<polygon fill="#bfbfbf" stroke="black" points="697,-448.5 697,-467.5 795,-467.5 795,-448.5 697,-448.5"/>
<text text-anchor="middle" x="746" y="-455.5" font-family="Helvetica,sans-Serif" font-size="10.00">instantiated_plan.h</text>
</a>
</g>
</g>
<!-- Node2 -->
<g id="node2" class="node">
<title>Node2</title>
<g id="a_node2"><a xlink:href="../../d9/d4e/plan_8h.html" target="_top" xlink:title=" ">
<polygon fill="white" stroke="black" points="624,-392.5 624,-411.5 704,-411.5 704,-392.5 624,-392.5"/>
<text text-anchor="middle" x="664" y="-399.5" font-family="Helvetica,sans-Serif" font-size="10.00">../syntax/plan.h</text>
</a>
</g>
</g>
<!-- Node1&#45;&gt;Node2 -->
<g id="edge1" class="edge">
<title>Node1&#45;&gt;Node2</title>
<path fill="none" stroke="midnightblue" d="M732.83,-448.32C720.15,-439.98 700.77,-427.21 685.79,-417.35"/>
<polygon fill="midnightblue" stroke="midnightblue" points="687.42,-414.23 677.14,-411.65 683.57,-420.08 687.42,-414.23"/>
</g>
<!-- Node6 -->
<g id="node6" class="node">
<title>Node6</title>
<g id="a_node6"><a xlink:title=" ">
<polygon fill="white" stroke="#bfbfbf" points="499,-0.5 499,-19.5 545,-19.5 545,-0.5 499,-0.5"/>
<text text-anchor="middle" x="522" y="-7.5" font-family="Helvetica,sans-Serif" font-size="10.00">cstdint</text>
</a>
</g>
</g>
<!-- Node1&#45;&gt;Node6 -->
<g id="edge43" class="edge">
<title>Node1&#45;&gt;Node6</title>
<path fill="none" stroke="midnightblue" d="M765.41,-448.46C796.99,-433.11 856,-397.64 856,-347 856,-347 856,-347 856,-121 856,-81.98 831.28,-74.64 797,-56 755.82,-33.61 619.4,-19.33 555.53,-13.71"/>
<polygon fill="midnightblue" stroke="midnightblue" points="555.47,-10.2 545.21,-12.83 554.87,-17.17 555.47,-10.2"/>
</g>
<!-- Node3 -->
<g id="node3" class="node">
<title>Node3</title>
<g id="a_node3"><a xlink:href="../../d7/dc4/event__base_8h.html" target="_top" xlink:title=" ">
<polygon fill="white" stroke="black" points="237,-168.5 237,-187.5 335,-187.5 335,-168.5 237,-168.5"/>
<text text-anchor="middle" x="286" y="-175.5" font-family="Helvetica,sans-Serif" font-size="10.00">../bdi/event_base.h</text>
</a>
</g>
</g>
<!-- Node2&#45;&gt;Node3 -->
<g id="edge2" class="edge">
<title>Node2&#45;&gt;Node3</title>
<path fill="none" stroke="midnightblue" d="M623.69,-400.01C577.04,-397.3 499.19,-387.89 441,-356 370.28,-317.24 316.45,-232.99 295.52,-196.47"/>
<polygon fill="midnightblue" stroke="midnightblue" points="298.44,-194.52 290.5,-187.51 292.34,-197.94 298.44,-194.52"/>
</g>
<!-- Node2&#45;&gt;Node6 -->
<g id="edge42" class="edge">
<title>Node2&#45;&gt;Node6</title>
<path fill="none" stroke="midnightblue" d="M699.72,-392.43C745.21,-379.13 818,-348.83 818,-291 818,-291 818,-291 818,-121 818,-84.82 799.79,-74.99 769,-56 733.72,-34.25 614.56,-19.98 555.61,-14.08"/>
<polygon fill="midnightblue" stroke="midnightblue" points="555.63,-10.57 545.33,-13.08 554.94,-17.53 555.63,-10.57"/>
</g>
<!-- Node11 -->
<g id="node11" class="node">
<title>Node11</title>
<g id="a_node11"><a xlink:href="../../d0/d77/body_8h.html" target="_top" xlink:title=" ">
<polygon fill="white" stroke="black" points="450,-336.5 450,-355.5 494,-355.5 494,-336.5 450,-336.5"/>
<text text-anchor="middle" x="472" y="-343.5" font-family="Helvetica,sans-Serif" font-size="10.00">body.h</text>
</a>
</g>
</g>
<!-- Node2&#45;&gt;Node11 -->
<g id="edge14" class="edge">
<title>Node2&#45;&gt;Node11</title>
<path fill="none" stroke="midnightblue" d="M633.58,-392.44C598.26,-382.51 540.25,-366.2 504.19,-356.05"/>
<polygon fill="midnightblue" stroke="midnightblue" points="504.77,-352.58 494.2,-353.24 502.88,-359.32 504.77,-352.58"/>
</g>
<!-- Node17 -->
<g id="node17" class="node">
<title>Node17</title>
<g id="a_node17"><a xlink:href="../../dc/d1e/context_8h.html" target="_top" xlink:title=" ">
<polygon fill="white" stroke="black" points="636,-280.5 636,-299.5 692,-299.5 692,-280.5 636,-280.5"/>
<text text-anchor="middle" x="664" y="-287.5" font-family="Helvetica,sans-Serif" font-size="10.00">context.h</text>
</a>
</g>
</g>
<!-- Node2&#45;&gt;Node17 -->
<g id="edge35" class="edge">
<title>Node2&#45;&gt;Node17</title>
<path fill="none" stroke="midnightblue" d="M664,-392.37C664,-374.62 664,-333.67 664,-309.6"/>
<polygon fill="midnightblue" stroke="midnightblue" points="667.5,-309.59 664,-299.59 660.5,-309.59 667.5,-309.59"/>
</g>
<!-- Node4 -->
<g id="node4" class="node">
<title>Node4</title>
<g id="a_node4"><a xlink:href="../../dd/d20/event_8h.html" target="_top" xlink:title=" ">
<polygon fill="white" stroke="black" points="244,-112.5 244,-131.5 292,-131.5 292,-112.5 244,-112.5"/>
<text text-anchor="middle" x="268" y="-119.5" font-family="Helvetica,sans-Serif" font-size="10.00">event.h</text>
</a>
</g>
</g>
<!-- Node3&#45;&gt;Node4 -->
<g id="edge3" class="edge">
<title>Node3&#45;&gt;Node4</title>
<path fill="none" stroke="midnightblue" d="M283.03,-168.08C280.62,-160.85 277.14,-150.41 274.13,-141.4"/>
<polygon fill="midnightblue" stroke="midnightblue" points="277.4,-140.13 270.92,-131.75 270.76,-142.34 277.4,-140.13"/>
</g>
<!-- Node3&#45;&gt;Node6 -->
<g id="edge13" class="edge">
<title>Node3&#45;&gt;Node6</title>
<path fill="none" stroke="midnightblue" d="M290.68,-168.25C302.97,-146.11 338.34,-87.41 384,-56 415.94,-34.02 459.34,-22.21 488.88,-16.28"/>
<polygon fill="midnightblue" stroke="midnightblue" points="489.54,-19.72 498.71,-14.42 488.23,-12.84 489.54,-19.72"/>
</g>
<!-- Node9 -->
<g id="node9" class="node">
<title>Node9</title>
<g id="a_node9"><a xlink:href="../../d0/d81/vector__queue_8h.html" target="_top" xlink:title=" ">
<polygon fill="white" stroke="black" points="530.5,-112.5 530.5,-131.5 633.5,-131.5 633.5,-112.5 530.5,-112.5"/>
<text text-anchor="middle" x="582" y="-119.5" font-family="Helvetica,sans-Serif" font-size="10.00">../lib/vector_queue.h</text>
</a>
</g>
</g>
<!-- Node3&#45;&gt;Node9 -->
<g id="edge10" class="edge">
<title>Node3&#45;&gt;Node9</title>
<path fill="none" stroke="midnightblue" d="M332.9,-168.44C385.08,-158.92 469.37,-143.55 525.23,-133.36"/>
<polygon fill="midnightblue" stroke="midnightblue" points="526.11,-136.75 535.32,-131.52 524.85,-129.87 526.11,-136.75"/>
</g>
<!-- Node5 -->
<g id="node5" class="node">
<title>Node5</title>
<g id="a_node5"><a xlink:href="../../d5/d6b/proposition_8h.html" target="_top" xlink:title=" ">
<polygon fill="white" stroke="black" points="426,-56.5 426,-75.5 536,-75.5 536,-56.5 426,-56.5"/>
<text text-anchor="middle" x="481" y="-63.5" font-family="Helvetica,sans-Serif" font-size="10.00">../syntax/proposition.h</text>
</a>
</g>
</g>
<!-- Node4&#45;&gt;Node5 -->
<g id="edge4" class="edge">
<title>Node4&#45;&gt;Node5</title>
<path fill="none" stroke="midnightblue" d="M292.02,-114.91C327.25,-105.98 393.49,-89.18 437.44,-78.04"/>
<polygon fill="midnightblue" stroke="midnightblue" points="438.45,-81.4 447.28,-75.55 436.73,-74.61 438.45,-81.4"/>
</g>
<!-- Node4&#45;&gt;Node6 -->
<g id="edge9" class="edge">
<title>Node4&#45;&gt;Node6</title>
<path fill="none" stroke="midnightblue" d="M244.84,-112.32C216.76,-100.54 175.49,-78.38 195,-56 232.87,-12.57 413.04,-9.6 488.57,-10.33"/>
<polygon fill="midnightblue" stroke="midnightblue" points="488.88,-13.83 498.92,-10.46 488.97,-6.83 488.88,-13.83"/>
</g>
<!-- Node7 -->
<g id="node7" class="node">
<title>Node7</title>
<g id="a_node7"><a xlink:href="../../db/d50/event__operator_8h.html" target="_top" xlink:title=" ">
<polygon fill="white" stroke="black" points="204.5,-56.5 204.5,-75.5 331.5,-75.5 331.5,-56.5 204.5,-56.5"/>
<text text-anchor="middle" x="268" y="-63.5" font-family="Helvetica,sans-Serif" font-size="10.00">../syntax/event_operator.h</text>
</a>
</g>
</g>
<!-- Node4&#45;&gt;Node7 -->
<g id="edge6" class="edge">
<title>Node4&#45;&gt;Node7</title>
<path fill="none" stroke="midnightblue" d="M268,-112.08C268,-105.01 268,-94.86 268,-85.99"/>
<polygon fill="midnightblue" stroke="midnightblue" points="271.5,-85.75 268,-75.75 264.5,-85.75 271.5,-85.75"/>
</g>
<!-- Node8 -->
<g id="node8" class="node">
<title>Node8</title>
<g id="a_node8"><a xlink:href="../../df/dc3/event__id_8h.html" target="_top" xlink:title=" ">
<polygon fill="white" stroke="black" points="66.5,-56.5 66.5,-75.5 147.5,-75.5 147.5,-56.5 66.5,-56.5"/>
<text text-anchor="middle" x="107" y="-63.5" font-family="Helvetica,sans-Serif" font-size="10.00">../lib/event_id.h</text>
</a>
</g>
</g>
<!-- Node4&#45;&gt;Node8 -->
<g id="edge7" class="edge">
<title>Node4&#45;&gt;Node8</title>
<path fill="none" stroke="midnightblue" d="M243.9,-112.92C216.9,-103.86 172.91,-89.11 142.1,-78.77"/>
<polygon fill="midnightblue" stroke="midnightblue" points="143.19,-75.45 132.6,-75.59 140.97,-82.08 143.19,-75.45"/>
</g>
<!-- Node5&#45;&gt;Node6 -->
<g id="edge5" class="edge">
<title>Node5&#45;&gt;Node6</title>
<path fill="none" stroke="midnightblue" d="M487.77,-56.08C493.56,-48.46 502.06,-37.26 509.14,-27.94"/>
<polygon fill="midnightblue" stroke="midnightblue" points="512.1,-29.83 515.36,-19.75 506.52,-25.6 512.1,-29.83"/>
</g>
<!-- Node8&#45;&gt;Node6 -->
<g id="edge8" class="edge">
<title>Node8&#45;&gt;Node6</title>
<path fill="none" stroke="midnightblue" d="M147.52,-58.19C152.4,-57.42 157.31,-56.68 162,-56 281.93,-38.7 424.9,-21.99 488.56,-14.75"/>
<polygon fill="midnightblue" stroke="midnightblue" points="489.25,-18.2 498.79,-13.59 488.46,-11.24 489.25,-18.2"/>
</g>
<!-- Node9&#45;&gt;Node6 -->
<g id="edge12" class="edge">
<title>Node9&#45;&gt;Node6</title>
<path fill="none" stroke="midnightblue" d="M592.44,-112.34C606.45,-99.65 628.22,-75.4 616,-56 602.68,-34.85 576.37,-23.43 554.96,-17.39"/>
<polygon fill="midnightblue" stroke="midnightblue" points="555.79,-13.99 545.23,-14.9 554.06,-20.77 555.79,-13.99"/>
</g>
<!-- Node10 -->
<g id="node10" class="node">
<title>Node10</title>
<g id="a_node10"><a xlink:title=" ">
<polygon fill="white" stroke="#bfbfbf" points="668,-56.5 668,-75.5 712,-75.5 712,-56.5 668,-56.5"/>
<text text-anchor="middle" x="690" y="-63.5" font-family="Helvetica,sans-Serif" font-size="10.00">vector</text>
</a>
</g>
</g>
<!-- Node9&#45;&gt;Node10 -->
<g id="edge11" class="edge">
<title>Node9&#45;&gt;Node10</title>
<path fill="none" stroke="midnightblue" d="M599.35,-112.32C616.67,-103.66 643.52,-90.24 663.5,-80.25"/>
<polygon fill="midnightblue" stroke="midnightblue" points="665.31,-83.26 672.69,-75.65 662.18,-77 665.31,-83.26"/>
</g>
<!-- Node11&#45;&gt;Node3 -->
<g id="edge32" class="edge">
<title>Node11&#45;&gt;Node3</title>
<path fill="none" stroke="midnightblue" d="M462.26,-336.31C432.38,-309.64 341.71,-228.72 303.39,-194.52"/>
<polygon fill="midnightblue" stroke="midnightblue" points="305.43,-191.65 295.64,-187.61 300.77,-196.88 305.43,-191.65"/>
</g>
<!-- Node11&#45;&gt;Node6 -->
<g id="edge34" class="edge">
<title>Node11&#45;&gt;Node6</title>
<path fill="none" stroke="midnightblue" d="M476.05,-336.38C484.23,-318.11 502,-274 502,-235 502,-235 502,-235 502,-177 502,-146.9 504.98,-137.48 521,-112 533.73,-91.75 551.27,-97.85 561,-76 568.88,-58.31 554.82,-39.49 541.44,-26.67"/>
<polygon fill="midnightblue" stroke="midnightblue" points="543.6,-23.91 533.81,-19.88 538.95,-29.14 543.6,-23.91"/>
</g>
<!-- Node11&#45;&gt;Node9 -->
<g id="edge33" class="edge">
<title>Node11&#45;&gt;Node9</title>
<path fill="none" stroke="midnightblue" d="M482.72,-336.35C492.53,-327.95 506.87,-314.39 516,-300 549.47,-247.26 569.67,-175.02 577.82,-141.49"/>
<polygon fill="midnightblue" stroke="midnightblue" points="581.24,-142.22 580.12,-131.69 574.43,-140.62 581.24,-142.22"/>
</g>
<!-- Node12 -->
<g id="node12" class="node">
<title>Node12</title>
<g id="a_node12"><a xlink:href="../../d8/d67/body__instruction_8h.html" target="_top" xlink:title=" ">
<polygon fill="white" stroke="black" points="180.5,-280.5 180.5,-299.5 275.5,-299.5 275.5,-280.5 180.5,-280.5"/>
<text text-anchor="middle" x="228" y="-287.5" font-family="Helvetica,sans-Serif" font-size="10.00">body_instruction.h</text>
</a>
</g>
</g>
<!-- Node11&#45;&gt;Node12 -->
<g id="edge15" class="edge">
<title>Node11&#45;&gt;Node12</title>
<path fill="none" stroke="midnightblue" d="M449.92,-340.11C410.9,-331.48 328.94,-313.34 276.29,-301.69"/>
<polygon fill="midnightblue" stroke="midnightblue" points="277.01,-298.26 266.49,-299.52 275.5,-305.1 277.01,-298.26"/>
</g>
<!-- Node15 -->
<g id="node15" class="node">
<title>Node15</title>
<g id="a_node15"><a xlink:href="../../d2/d2f/belief__base_8h.html" target="_top" xlink:title=" ">
<polygon fill="white" stroke="black" points="375.5,-224.5 375.5,-243.5 472.5,-243.5 472.5,-224.5 375.5,-224.5"/>
<text text-anchor="middle" x="424" y="-231.5" font-family="Helvetica,sans-Serif" font-size="10.00">../bdi/belief_base.h</text>
</a>
</g>
</g>
<!-- Node11&#45;&gt;Node15 -->
<g id="edge31" class="edge">
<title>Node11&#45;&gt;Node15</title>
<path fill="none" stroke="midnightblue" d="M468.23,-336.37C460.42,-318.46 442.29,-276.92 431.83,-252.95"/>
<polygon fill="midnightblue" stroke="midnightblue" points="434.96,-251.36 427.75,-243.59 428.54,-254.16 434.96,-251.36"/>
</g>
<!-- Node12&#45;&gt;Node3 -->
<g id="edge29" class="edge">
<title>Node12&#45;&gt;Node3</title>
<path fill="none" stroke="midnightblue" d="M232.55,-280.37C242.04,-262.38 264.09,-220.55 276.71,-196.63"/>
<polygon fill="midnightblue" stroke="midnightblue" points="279.9,-198.07 281.47,-187.59 273.71,-194.8 279.9,-198.07"/>
</g>
<!-- Node12&#45;&gt;Node6 -->
<g id="edge30" class="edge">
<title>Node12&#45;&gt;Node6</title>
<path fill="none" stroke="midnightblue" d="M180.48,-286.67C113.66,-280.54 0,-258.44 0,-179 0,-179 0,-179 0,-121 0,-84.82 17.42,-73.66 49,-56 124.48,-13.8 393.61,-10.54 488.55,-10.74"/>
<polygon fill="midnightblue" stroke="midnightblue" points="488.71,-14.24 498.73,-10.78 488.74,-7.24 488.71,-14.24"/>
</g>
<!-- Node13 -->
<g id="node13" class="node">
<title>Node13</title>
<g id="a_node13"><a xlink:href="../../d0/d96/body__type_8h.html" target="_top" xlink:title=" ">
<polygon fill="white" stroke="black" points="28,-168.5 28,-187.5 96,-187.5 96,-168.5 28,-168.5"/>
<text text-anchor="middle" x="62" y="-175.5" font-family="Helvetica,sans-Serif" font-size="10.00">body_type.h</text>
</a>
</g>
</g>
<!-- Node12&#45;&gt;Node13 -->
<g id="edge16" class="edge">
<title>Node12&#45;&gt;Node13</title>
<path fill="none" stroke="midnightblue" d="M199.64,-280.42C177.53,-272.91 146.72,-260.61 123,-244 103.69,-230.47 85.75,-210.02 74.4,-195.68"/>
<polygon fill="midnightblue" stroke="midnightblue" points="77.1,-193.45 68.23,-187.66 71.55,-197.72 77.1,-193.45"/>
</g>
<!-- Node14 -->
<g id="node14" class="node">
<title>Node14</title>
<g id="a_node14"><a xlink:href="../../d9/ded/body__return_8h.html" target="_top" xlink:title=" ">
<polygon fill="white" stroke="black" points="132,-224.5 132,-243.5 206,-243.5 206,-224.5 132,-224.5"/>
<text text-anchor="middle" x="169" y="-231.5" font-family="Helvetica,sans-Serif" font-size="10.00">body_return.h</text>
</a>
</g>
</g>
<!-- Node12&#45;&gt;Node14 -->
<g id="edge17" class="edge">
<title>Node12&#45;&gt;Node14</title>
<path fill="none" stroke="midnightblue" d="M218.52,-280.32C209.8,-272.34 196.66,-260.31 186.1,-250.65"/>
<polygon fill="midnightblue" stroke="midnightblue" points="188.39,-248 178.65,-243.83 183.67,-253.17 188.39,-248"/>
</g>
<!-- Node12&#45;&gt;Node15 -->
<g id="edge21" class="edge">
<title>Node12&#45;&gt;Node15</title>
<path fill="none" stroke="midnightblue" d="M259.06,-280.44C292.6,-271.2 346.2,-256.44 383.14,-246.26"/>
<polygon fill="midnightblue" stroke="midnightblue" points="384.38,-249.55 393.09,-243.52 382.52,-242.8 384.38,-249.55"/>
</g>
<!-- Node14&#45;&gt;Node4 -->
<g id="edge19" class="edge">
<title>Node14&#45;&gt;Node4</title>
<path fill="none" stroke="midnightblue" d="M176.77,-224.37C193.32,-205.97 232.3,-162.67 253.55,-139.05"/>
<polygon fill="midnightblue" stroke="midnightblue" points="256.18,-141.37 260.27,-131.59 250.98,-136.68 256.18,-141.37"/>
</g>
<!-- Node14&#45;&gt;Node6 -->
<g id="edge20" class="edge">
<title>Node14&#45;&gt;Node6</title>
<path fill="none" stroke="midnightblue" d="M160.57,-224.4C130.31,-193.07 30.36,-85.35 57,-56 85.96,-24.1 387.19,-14.15 488.77,-11.69"/>
<polygon fill="midnightblue" stroke="midnightblue" points="488.86,-15.19 498.78,-11.46 488.7,-8.19 488.86,-15.19"/>
</g>
<!-- Node14&#45;&gt;Node13 -->
<g id="edge18" class="edge">
<title>Node14&#45;&gt;Node13</title>
<path fill="none" stroke="midnightblue" d="M151.81,-224.32C134.65,-215.66 108.05,-202.24 88.25,-192.25"/>
<polygon fill="midnightblue" stroke="midnightblue" points="89.65,-189.04 79.15,-187.65 86.5,-195.28 89.65,-189.04"/>
</g>
<!-- Node15&#45;&gt;Node3 -->
<g id="edge26" class="edge">
<title>Node15&#45;&gt;Node3</title>
<path fill="none" stroke="midnightblue" d="M402.13,-224.44C379.22,-215.48 343.02,-201.31 317.13,-191.18"/>
<polygon fill="midnightblue" stroke="midnightblue" points="318.35,-187.9 307.76,-187.52 315.8,-194.42 318.35,-187.9"/>
</g>
<!-- Node15&#45;&gt;Node4 -->
<g id="edge25" class="edge">
<title>Node15&#45;&gt;Node4</title>
<path fill="none" stroke="midnightblue" d="M414.02,-224.08C399.24,-211.07 370.43,-186.41 344,-168 327.54,-156.53 308.05,-145.03 292.93,-136.53"/>
<polygon fill="midnightblue" stroke="midnightblue" points="294.59,-133.44 284.15,-131.65 291.19,-139.56 294.59,-133.44"/>
</g>
<!-- Node15&#45;&gt;Node6 -->
<g id="edge28" class="edge">
<title>Node15&#45;&gt;Node6</title>
<path fill="none" stroke="midnightblue" d="M420.42,-224.32C409.73,-196.9 380.94,-110.69 417,-56 432.86,-31.95 464.52,-20.71 488.95,-15.48"/>
<polygon fill="midnightblue" stroke="midnightblue" points="489.74,-18.89 498.91,-13.58 488.43,-12.01 489.74,-18.89"/>
</g>
<!-- Node15&#45;&gt;Node9 -->
<g id="edge27" class="edge">
<title>Node15&#45;&gt;Node9</title>
<path fill="none" stroke="midnightblue" d="M436.4,-224.37C463.4,-205.57 527.75,-160.77 561.12,-137.53"/>
<polygon fill="midnightblue" stroke="midnightblue" points="563.45,-140.18 569.66,-131.59 559.45,-134.43 563.45,-140.18"/>
</g>
<!-- Node16 -->
<g id="node16" class="node">
<title>Node16</title>
<g id="a_node16"><a xlink:href="../../da/db8/belief_8h.html" target="_top" xlink:title=" ">
<polygon fill="white" stroke="black" points="426.5,-112.5 426.5,-131.5 473.5,-131.5 473.5,-112.5 426.5,-112.5"/>
<text text-anchor="middle" x="450" y="-119.5" font-family="Helvetica,sans-Serif" font-size="10.00">belief.h</text>
</a>
</g>
</g>
<!-- Node15&#45;&gt;Node16 -->
<g id="edge22" class="edge">
<title>Node15&#45;&gt;Node16</title>
<path fill="none" stroke="midnightblue" d="M426.04,-224.37C430.24,-206.62 439.92,-165.67 445.6,-141.6"/>
<polygon fill="midnightblue" stroke="midnightblue" points="449.08,-142.13 447.97,-131.59 442.26,-140.52 449.08,-142.13"/>
</g>
<!-- Node16&#45;&gt;Node5 -->
<g id="edge23" class="edge">
<title>Node16&#45;&gt;Node5</title>
<path fill="none" stroke="midnightblue" d="M455.12,-112.08C459.41,-104.61 465.66,-93.72 470.94,-84.52"/>
<polygon fill="midnightblue" stroke="midnightblue" points="474.03,-86.17 475.98,-75.75 467.96,-82.68 474.03,-86.17"/>
</g>
<!-- Node16&#45;&gt;Node6 -->
<g id="edge24" class="edge">
<title>Node16&#45;&gt;Node6</title>
<path fill="none" stroke="midnightblue" d="M473.51,-113.13C498.91,-104.1 536.85,-88.88 545,-76 554.56,-60.9 545.14,-41.3 535.64,-27.59"/>
<polygon fill="midnightblue" stroke="midnightblue" points="538.39,-25.42 529.57,-19.54 532.79,-29.63 538.39,-25.42"/>
</g>
<!-- Node17&#45;&gt;Node6 -->
<g id="edge41" class="edge">
<title>Node17&#45;&gt;Node6</title>
<path fill="none" stroke="midnightblue" d="M685.28,-280.4C718.76,-265.3 780,-230.62 780,-179 780,-179 780,-179 780,-121 780,-24.43 625.16,-11.47 555.39,-10.53"/>
<polygon fill="midnightblue" stroke="midnightblue" points="555.37,-7.03 545.35,-10.47 555.33,-14.03 555.37,-7.03"/>
</g>
<!-- Node17&#45;&gt;Node9 -->
<g id="edge40" class="edge">
<title>Node17&#45;&gt;Node9</title>
<path fill="none" stroke="midnightblue" d="M659.59,-280.08C646.57,-253.72 608.12,-175.88 590.72,-140.66"/>
<polygon fill="midnightblue" stroke="midnightblue" points="593.8,-138.98 586.23,-131.57 587.52,-142.08 593.8,-138.98"/>
</g>
<!-- Node17&#45;&gt;Node15 -->
<g id="edge39" class="edge">
<title>Node17&#45;&gt;Node15</title>
<path fill="none" stroke="midnightblue" d="M636,-282.7C595.74,-273.64 520.96,-256.82 471.84,-245.76"/>
<polygon fill="midnightblue" stroke="midnightblue" points="472.6,-242.35 462.07,-243.57 471.06,-249.18 472.6,-242.35"/>
</g>
<!-- Node18 -->
<g id="node18" class="node">
<title>Node18</title>
<g id="a_node18"><a xlink:href="../../d7/d7d/context__condition_8h.html" target="_top" xlink:title=" ">
<polygon fill="white" stroke="black" points="652,-112.5 652,-131.5 752,-131.5 752,-112.5 652,-112.5"/>
<text text-anchor="middle" x="702" y="-119.5" font-family="Helvetica,sans-Serif" font-size="10.00">context_condition.h</text>
</a>
</g>
</g>
<!-- Node17&#45;&gt;Node18 -->
<g id="edge36" class="edge">
<title>Node17&#45;&gt;Node18</title>
<path fill="none" stroke="midnightblue" d="M666.04,-280.08C672.02,-253.95 689.59,-177.21 697.75,-141.58"/>
<polygon fill="midnightblue" stroke="midnightblue" points="701.22,-142.1 700.04,-131.57 694.4,-140.53 701.22,-142.1"/>
</g>
<!-- Node18&#45;&gt;Node5 -->
<g id="edge37" class="edge">
<title>Node18&#45;&gt;Node5</title>
<path fill="none" stroke="midnightblue" d="M666.98,-112.44C628.75,-103.1 567.43,-88.12 525.74,-77.93"/>
<polygon fill="midnightblue" stroke="midnightblue" points="526.4,-74.49 515.85,-75.52 524.74,-81.29 526.4,-74.49"/>
</g>
<!-- Node18&#45;&gt;Node6 -->
<g id="edge38" class="edge">
<title>Node18&#45;&gt;Node6</title>
<path fill="none" stroke="midnightblue" d="M708.87,-112.48C718.78,-99.09 734.5,-72.9 721,-56 700.61,-30.49 606.36,-18.38 555.22,-13.61"/>
<polygon fill="midnightblue" stroke="midnightblue" points="555.28,-10.1 545,-12.69 554.65,-17.07 555.28,-10.1"/>
</g>
</g>
</svg>
        <g id="navigator" transform="translate(0 0)" fill="#404254">
                <rect fill="#f2f5e9" fill-opacity="0.5" stroke="#606060" stroke-width=".5" x="0" y="0" width="60" height="60"/>
                <use id="zoomplus" xlink:href="#zoomPlus" x="17" y="9" onmousedown="handleZoom(evt,'in')"/>
                <use id="zoomminus" xlink:href="#zoomMin" x="42" y="9" onmousedown="handleZoom(evt,'out')"/>
                <use id="reset" xlink:href="#resetDef" x="30" y="36" onmousedown="handleReset()"/>
                <g id="arrowUp" xlink:href="#dirArrow" transform="translate(30 24)" onmousedown="handlePan(0,-1)">
                  <use xlink:href="#rim" fill="#404040">
                        <set attributeName="fill" to="#808080" begin="arrowUp.mouseover" end="arrowUp.mouseout"/>
                  </use>
                  <path fill="none" stroke="white" stroke-width="1.5" d="M0,-3.0v7 M-2.5,-0.5L0,-3.0L2.5,-0.5"/>
                </g>
                <g id="arrowRight" xlink:href="#dirArrow" transform="rotate(90) translate(36 -43)" onmousedown="handlePan(1,0)">
                  <use xlink:href="#rim" fill="#404040">
                        <set attributeName="fill" to="#808080" begin="arrowRight.mouseover" end="arrowRight.mouseout"/>
                  </use>
                  <path fill="none" stroke="white" stroke-width="1.5" d="M0,-3.0v7 M-2.5,-0.5L0,-3.0L2.5,-0.5"/>
                </g>
                <g id="arrowDown" xlink:href="#dirArrow" transform="rotate(180) translate(-30 -48)" onmousedown="handlePan(0,1)">
                  <use xlink:href="#rim" fill="#404040">
                        <set attributeName="fill" to="#808080" begin="arrowDown.mouseover" end="arrowDown.mouseout"/>
                  </use>
                  <path fill="none" stroke="white" stroke-width="1.5" d="M0,-3.0v7 M-2.5,-0.5L0,-3.0L2.5,-0.5"/>
                </g>
                <g id="arrowLeft" xlink:href="#dirArrow" transform="rotate(270) translate(-36 17)" onmousedown="handlePan(-1,0)">
                  <use xlink:href="#rim" fill="#404040">
                        <set attributeName="fill" to="#808080" begin="arrowLeft.mouseover" end="arrowLeft.mouseout"/>
                  </use>
                  <path fill="none" stroke="white" stroke-width="1.5" d="M0,-3.0v7 M-2.5,-0.5L0,-3.0L2.5,-0.5"/>
                </g>
        </g>
        <svg viewBox="0 0 15 15" width="100%" height="30px" preserveAspectRatio="xMaxYMin meet">
         <g id="arrow_out" transform="scale(0.3 0.3)">
          <a xlink:href="instantiated__plan_8h__incl_org.svg" target="_base">
           <rect id="button" ry="5" rx="5" y="6" x="6" height="38" width="38"
                fill="#f2f5e9" fill-opacity="0.5" stroke="#606060" stroke-width="1.0"/>
           <path id="arrow"
             d="M 11.500037,31.436501 C 11.940474,20.09759 22.043105,11.32322 32.158766,21.979434 L 37.068811,17.246167 C 37.068811,17.246167 37.088388,32 37.088388,32 L 22.160133,31.978069 C 22.160133,31.978069 26.997745,27.140456 26.997745,27.140456 C 18.528582,18.264221 13.291696,25.230495 11.500037,31.436501 z"
             style="fill:#404040;"/>
          </a>
         </g>
        </svg>
</svg>
